<svg width="70" height="70" viewBox="0 0 70 70" fill="none" xmlns="http://www.w3.org/2000/svg">
<path d="M23.3333 0H46.6667C52.8496 0.0178528 58.7741 2.48191 63.1461 6.8539C67.5181 11.2259 69.9821 17.1504 70 23.3333V46.6667C69.9821 52.8496 67.5181 58.7741 63.1461 63.1461C58.7741 67.5181 52.8496 69.9821 46.6667 70H23.3333C17.1504 69.9821 11.2259 67.5181 6.8539 63.1461C2.48191 58.7741 0.0178528 52.8496 0 46.6667L0 23.3333C0.0178528 17.1504 2.48191 11.2259 6.8539 6.8539C11.2259 2.48191 17.1504 0.0178528 23.3333 0V0Z" fill="#FEE600"/>
<path d="M32.3895 15.1711C33.2522 15.0575 34.1242 15 35 15C35.0009 15 35.0017 15 35.0026 15C35.012 15 35.0214 15 35.0308 15C35.8962 15.0014 36.7579 15.0588 37.6105 15.1711C39.3397 15.3987 41.0354 15.8521 42.6537 16.5224C42.7039 16.5432 42.7541 16.5642 42.8042 16.5855C43.5555 16.9039 44.2889 17.269 45 17.6795C46.5104 18.5515 47.9036 19.6193 49.1421 20.8579C50.9993 22.715 52.4725 24.9198 53.4776 27.3463C54.4827 29.7728 55 32.3736 55 35C55 37.6264 54.4827 40.2272 53.4776 42.6537C52.4725 45.0802 50.9993 47.285 49.1421 49.1421C47.9036 50.3807 46.5104 51.4485 45 52.3205C44.2415 52.7584 43.4576 53.1446 42.6537 53.4776C41.0354 54.1479 39.3397 54.6012 37.6105 54.8289C36.7478 54.9425 35.8758 55 35 55C34.1242 55 33.2522 54.9425 32.3895 54.8289L32.9116 50.8631C33.6018 50.954 34.2993 51 35 51C35.7007 51 36.3982 50.954 37.0884 50.8631C38.4718 50.681 39.8283 50.3183 41.1229 49.7821C41.7661 49.5157 42.3932 49.2067 43 48.8564C44.2083 48.1588 45.3229 47.3045 46.3137 46.3137C47.7994 44.828 48.978 43.0641 49.7821 41.1229C50.5861 39.1817 51 37.1011 51 35C51 32.8988 50.5861 30.8183 49.7821 28.8771C48.978 26.9359 47.7994 25.172 46.3137 23.6863C45.3229 22.6954 44.2083 21.8412 43 21.1436C42.3932 20.7933 41.7661 20.4843 41.1229 20.2179C39.8283 19.6817 38.4717 19.319 37.0884 19.1369C36.3982 19.046 35.7007 19 35 19C34.2993 19 33.6018 19.046 32.9116 19.1369L32.3895 15.1711Z" fill="#2B2D33"/>
<path d="M27.3463 16.5224C26.5424 16.8554 25.7585 17.2416 25 17.6795C24.2415 18.1174 23.5151 18.6032 22.8248 19.1329L25.2598 22.3063C25.8121 21.8826 26.3932 21.4939 27 21.1436C27.6068 20.7933 28.2339 20.4843 28.8771 20.2179L27.3463 16.5224Z" fill="#2B2D33"/>
<path d="M17.6795 25C18.1174 24.2415 18.6032 23.5151 19.1329 22.8248L22.3063 25.2598C21.8826 25.8121 21.4939 26.3932 21.1436 27C20.7933 27.6068 20.4843 28.2339 20.2179 28.8771L16.5224 27.3463C16.8554 26.5424 17.2416 25.7585 17.6795 25Z" fill="#2B2D33"/>
<path d="M15.1711 32.3895C15.0575 33.2522 15 34.1242 15 35C15 35.8758 15.0575 36.7478 15.1711 37.6105L19.1369 37.0884C19.046 36.3982 19 35.7007 19 35C19 34.2993 19.046 33.6018 19.1369 32.9116L15.1711 32.3895Z" fill="#2B2D33"/>
<path d="M17.6795 45C17.2416 44.2415 16.8554 43.4576 16.5224 42.6537L20.2179 41.1229C20.4843 41.7661 20.7933 42.3932 21.1436 43C21.4939 43.6068 21.8826 44.1879 22.3063 44.7402L19.1329 47.1752C18.6032 46.4849 18.1174 45.7585 17.6795 45Z" fill="#2B2D33"/>
<path d="M22.8248 50.8671C23.5151 51.3968 24.2415 51.8826 25 52.3205C25.7585 52.7584 26.5424 53.1446 27.3463 53.4776L28.8771 49.7821C28.2339 49.5157 27.6068 49.2067 27 48.8564C26.3932 48.5061 25.8121 48.1174 25.2598 47.6937L22.8248 50.8671Z" fill="#2B2D33"/>
<path d="M33 35V25H37V34.1716L43.4142 40.5858L40.5858 43.4142L33.5858 36.4142C33.2107 36.0391 33 35.5304 33 35Z" fill="#2B2D33"/>
</svg>
