<svg width="70" height="70" viewBox="0 0 70 70" fill="none" xmlns="http://www.w3.org/2000/svg">
<path d="M23.3333 0H46.6667C52.8496 0.0178528 58.7741 2.48191 63.1461 6.8539C67.5181 11.2259 69.9821 17.1504 70 23.3333V46.6667C69.9821 52.8496 67.5181 58.7741 63.1461 63.1461C58.7741 67.5181 52.8496 69.9821 46.6667 70H23.3333C17.1504 69.9821 11.2259 67.5181 6.8539 63.1461C2.48191 58.7741 0.0178528 52.8496 0 46.6667L0 23.3333C0.0178528 17.1504 2.48191 11.2259 6.8539 6.8539C11.2259 2.48191 17.1504 0.0178528 23.3333 0V0Z" fill="#FEE600"/>
<path fill-rule="evenodd" clip-rule="evenodd" d="M30.8335 18.3334V14.1667H26.6668V18.3334H20.4168C19.2662 18.3334 18.3335 19.2662 18.3335 20.4167V53.7501C18.3335 54.9007 19.2662 55.8334 20.4168 55.8334H49.5835C50.7341 55.8334 51.6668 54.9007 51.6668 53.7501V20.4167C51.6668 19.2662 50.7341 18.3334 49.5835 18.3334H43.3335V14.1667H39.1668V18.3334H30.8335ZM39.1668 26.6667V22.5001H30.8335V26.6667H26.6668V22.5001H22.5002V51.6667H47.5002V22.5001H43.3335V26.6667H39.1668Z" fill="#2B2D33"/>
</svg>
