<svg width="70" height="70" viewBox="0 0 70 70" fill="none" xmlns="http://www.w3.org/2000/svg">
<path d="M23.3333 0H46.6667C52.8496 0.0178528 58.7741 2.48191 63.1461 6.8539C67.5181 11.2259 69.9821 17.1504 70 23.3333V46.6667C69.9821 52.8496 67.5181 58.7741 63.1461 63.1461C58.7741 67.5181 52.8496 69.9821 46.6667 70H23.3333C17.1504 69.9821 11.2259 67.5181 6.8539 63.1461C2.48191 58.7741 0.0178528 52.8496 0 46.6667L0 23.3333C0.0178528 17.1504 2.48191 11.2259 6.8539 6.8539C11.2259 2.48191 17.1504 0.0178528 23.3333 0V0Z" fill="#FEE600"/>
<path d="M46.9998 33.1666H43.3332V36.8333H46.9998V33.1666Z" fill="#2B2D33"/>
<path fill-rule="evenodd" clip-rule="evenodd" d="M50.6665 47.8332V42.3333H52.4998C53.5124 42.3333 54.3332 41.5124 54.3332 40.4999V29.4999C54.3332 28.4874 53.5124 27.6666 52.4998 27.6666H50.6665V22.1666C50.6665 21.1541 49.8457 20.3333 48.8332 20.3333H19.4998C18.4873 20.3333 17.6665 21.1541 17.6665 22.1666V47.8332C17.6665 48.8458 18.4873 49.6666 19.4998 49.6666H48.8332C49.8457 49.6666 50.6665 48.8458 50.6665 47.8332ZM46.9998 45.9999V42.3333H41.4998C37.4497 42.3333 34.1665 39.05 34.1665 34.9999C34.1665 30.9498 37.4497 27.6666 41.4998 27.6666H46.9998V23.9999H21.3332V45.9999H46.9998ZM41.4998 31.3333C39.4748 31.3333 37.8332 32.9749 37.8332 34.9999C37.8332 37.025 39.4748 38.6666 41.4998 38.6666H50.6665V31.3333H41.4998Z" fill="#2B2D33"/>
</svg>
