<svg width="70" height="70" viewBox="0 0 70 70" fill="none" xmlns="http://www.w3.org/2000/svg">
<path d="M23.3333 0H46.6667C52.8496 0.0178528 58.7741 2.48191 63.1461 6.8539C67.5181 11.2259 69.9821 17.1504 70 23.3333V46.6667C69.9821 52.8496 67.5181 58.7741 63.1461 63.1461C58.7741 67.5181 52.8496 69.9821 46.6667 70H23.3333C17.1504 69.9821 11.2259 67.5181 6.8539 63.1461C2.48191 58.7741 0.0178528 52.8496 0 46.6667L0 23.3333C0.0178528 17.1504 2.48191 11.2259 6.8539 6.8539C11.2259 2.48191 17.1504 0.0178528 23.3333 0V0Z" fill="#FEE600"/>
<path d="M27.875 41.125C27.875 39.9054 28.8637 38.9167 30.0833 38.9167H38.9167C40.1363 38.9167 41.125 39.9054 41.125 41.125V49.9583H49.9583V35.4147L34.5 19.9564L19.0417 35.4147V49.9583H27.875V41.125ZM32.2917 43.3333V52.1667C32.2917 53.3863 31.303 54.375 30.0833 54.375H16.8333C15.6137 54.375 14.625 53.3863 14.625 52.1667V34.5C14.625 33.9143 14.8577 33.3526 15.2718 32.9385L32.9385 15.2718C33.8009 14.4094 35.1991 14.4094 36.0615 15.2718L53.7282 32.9385C54.1423 33.3526 54.375 33.9143 54.375 34.5V52.1667C54.375 53.3863 53.3863 54.375 52.1667 54.375H38.9167C37.697 54.375 36.7083 53.3863 36.7083 52.1667V43.3333H32.2917Z" fill="#2B2D33"/>
</svg>
