<svg width="70" height="70" viewBox="0 0 70 70" fill="none" xmlns="http://www.w3.org/2000/svg">
<path d="M23.3333 0H46.6667C52.8496 0.0178528 58.7741 2.48191 63.1461 6.8539C67.5181 11.2259 69.9821 17.1504 70 23.3333V46.6667C69.9821 52.8496 67.5181 58.7741 63.1461 63.1461C58.7741 67.5181 52.8496 69.9821 46.6667 70H23.3333C17.1504 69.9821 11.2259 67.5181 6.8539 63.1461C2.48191 58.7741 0.0178528 52.8496 0 46.6667L0 23.3333C0.0178528 17.1504 2.48191 11.2259 6.8539 6.8539C11.2259 2.48191 17.1504 0.0178528 23.3333 0V0Z" fill="#FEE600"/>
<path fill-rule="evenodd" clip-rule="evenodd" d="M18.5858 48.5858L48.5858 18.5858L51.4142 21.4142L21.4142 51.4142L18.5858 48.5858Z" fill="#2B2D33"/>
<path fill-rule="evenodd" clip-rule="evenodd" d="M24.5 21C22.567 21 21 22.567 21 24.5C21 26.433 22.567 28 24.5 28C26.433 28 28 26.433 28 24.5C28 22.567 26.433 21 24.5 21ZM17 24.5C17 20.3579 20.3579 17 24.5 17C28.6421 17 32 20.3579 32 24.5C32 28.6421 28.6421 32 24.5 32C20.3579 32 17 28.6421 17 24.5Z" fill="#2B2D33"/>
<path fill-rule="evenodd" clip-rule="evenodd" d="M45.5 42C43.567 42 42 43.567 42 45.5C42 47.433 43.567 49 45.5 49C47.433 49 49 47.433 49 45.5C49 43.567 47.433 42 45.5 42ZM38 45.5C38 41.3579 41.3579 38 45.5 38C49.6421 38 53 41.3579 53 45.5C53 49.6421 49.6421 53 45.5 53C41.3579 53 38 49.6421 38 45.5Z" fill="#2B2D33"/>
</svg>
