<svg width="40" height="40" viewBox="0 0 40 40" fill="none" xmlns="http://www.w3.org/2000/svg">
<path d="M13.3333 0H26.6667C30.1998 0.0102016 33.5852 1.41824 36.0835 3.91651C38.5818 6.41479 39.9898 9.80025 40 13.3333V26.6667C39.9898 30.1998 38.5818 33.5852 36.0835 36.0835C33.5852 38.5818 30.1998 39.9898 26.6667 40H13.3333C9.80025 39.9898 6.41479 38.5818 3.91651 36.0835C1.41824 33.5852 0.0102016 30.1998 0 26.6667L0 13.3333C0.0102016 9.80025 1.41824 6.41479 3.91651 3.91651C6.41479 1.41824 9.80025 0.0102016 13.3333 0V0Z" fill="#FEE600"/>
<path d="M30.6667 6.66675H9.33341C8.62617 6.66675 7.94789 6.9477 7.4478 7.4478C6.9477 7.94789 6.66675 8.62617 6.66675 9.33341V25.3334C6.66675 26.0407 6.9477 26.7189 7.4478 27.219C7.94789 27.7191 8.62617 28.0001 9.33341 28.0001H13.3334V25.3334H9.33341V9.33341H30.6667V25.3334H19.4481L13.3334 31.4481V33.3334H15.2187L20.5521 28.0001H30.6667C31.374 28.0001 32.0523 27.7191 32.5524 27.219C33.0525 26.7189 33.3334 26.0407 33.3334 25.3334V9.33341C33.3334 8.62617 33.0525 7.94789 32.5524 7.4478C32.0523 6.9477 31.374 6.66675 30.6667 6.66675Z" fill="#2B2D33"/>
<path d="M26.6668 13.3335H13.3335V16.0002H26.6668V13.3335Z" fill="#2B2D33"/>
<path d="M26.6668 18.6667H13.3335V21.3334H26.6668V18.6667Z" fill="#2B2D33"/>
</svg>
