<svg width="40" height="40" viewBox="0 0 40 40" fill="none" xmlns="http://www.w3.org/2000/svg">
<path d="M26.6667 0H13.3333C9.80025 0.0102016 6.41479 1.41824 3.91651 3.91651C1.41823 6.41479 0.0102005 9.80025 0 13.3333V26.6667C0.0102005 30.1998 1.41823 33.5852 3.91651 36.0835C6.41479 38.5818 9.80025 39.9898 13.3333 40H26.6667C30.1997 39.9898 33.5852 38.5818 36.0835 36.0835C38.5818 33.5852 39.9898 30.1998 40 26.6667V13.3333C39.9898 9.80025 38.5818 6.41479 36.0835 3.91651C33.5852 1.41824 30.1997 0.0102016 26.6667 0V0Z" fill="#FEE600"/>
<path d="M27.7772 20.9722H15.9433L21.374 26.4031V27.7778H19.9993L12.2217 20L19.9994 12.2223H21.3742V13.597L15.9433 19.0277H27.7772V20.9722Z" fill="#2B2D33"/>
</svg>
