<svg width="166" height="36" viewBox="0 0 166 36" fill="none" xmlns="http://www.w3.org/2000/svg">
<path fill-rule="evenodd" clip-rule="evenodd" d="M155.951 14.4071H159.387V10.4976H162.548V14.4071H165.983V4.62506H162.548V8.06815H159.387V4.62558H155.951V14.4071ZM135.137 7.42001C135.86 6.93339 136.843 6.5881 137.689 6.5881C138.12 6.5881 139.063 6.65126 139.063 7.48214C139.063 8.29127 138.236 8.31094 137.902 8.31094H136.215V10.4365H137.707C138.199 10.4365 139.121 10.478 139.121 11.2679C139.121 11.591 138.927 12.2215 137.726 12.2215C136.528 12.2215 135.763 11.8954 134.76 11.2876L133.879 13.5975C135.763 14.6743 137.472 14.7752 138.257 14.7752C142.185 14.7752 142.676 12.5041 142.676 11.7561C142.676 10.7218 142.067 9.6683 140.693 9.34371V9.30333C141.556 8.91818 142.107 8.06815 142.107 7.01519C142.107 4.72601 139.692 4.26113 138.217 4.26113C136.843 4.26113 135.252 4.66492 134.213 5.23178L135.137 7.42001ZM127.699 3.34846C129.252 3.34846 130.862 2.74174 131.568 1.07895L129.33 0.230991C129.055 1.36575 128.094 1.42424 127.699 1.42424C127.306 1.42424 126.346 1.36575 126.072 0.230991L123.835 1.07895C124.539 2.74174 126.151 3.34846 127.699 3.34846ZM122.342 4.62506V14.4071H125.678L129.075 9.0212V14.4071H132.511V4.62506H129.212L125.775 9.86968V4.62558H122.343L122.342 4.62506ZM99.5632 12.3023V6.87283C98.4046 6.85212 97.2233 7.72389 97.2233 9.58702C97.2233 11.4507 98.4046 12.3204 99.5632 12.3012V12.3023ZM102.567 6.87334V12.3017C103.726 12.3209 104.903 11.4512 104.903 9.58754C104.903 7.72441 103.726 6.85212 102.567 6.87334ZM99.3457 18.664V14.5536C97.303 14.5728 93.9241 13.7399 93.9241 9.50626C93.9241 5.29442 97.2854 4.46303 99.3457 4.48218V0.230991H102.782V4.48218C104.846 4.46303 108.202 5.29494 108.202 9.50575C108.202 13.7404 104.825 14.5728 102.782 14.5536V18.664H99.3457ZM84.1094 12.3017V6.87334C82.9508 6.85264 81.7721 7.72441 81.7721 9.58754C81.7721 11.4512 82.9508 12.3209 84.1094 12.3017ZM87.1156 6.87334V12.3017C88.2715 12.3209 89.4503 11.4512 89.4503 9.58754C89.4503 7.72441 88.2715 6.85212 87.1156 6.87334ZM83.893 18.664V14.5536C81.8492 14.5728 78.4729 13.7399 78.4729 9.50626C78.4729 5.29442 81.8311 4.46303 83.893 4.48218V0.230991H87.3288V4.48218C89.3913 4.46303 92.7474 5.29494 92.7474 9.50575C92.7474 13.7404 89.3726 14.5728 87.3288 14.5536V18.664H83.893ZM72.0314 3.34846C73.5844 3.34846 75.1944 2.74174 75.8995 1.07895L73.6621 0.230991C73.3862 1.36575 72.4238 1.42424 72.0314 1.42424C71.639 1.42424 70.6766 1.36575 70.4007 0.230991L68.1628 1.07895C68.8704 2.74174 70.4809 3.34846 72.0314 3.34846ZM66.6734 4.62506V14.4071H70.0083L73.4064 9.0212V14.4071H76.8438V4.62506H73.5441L70.1087 9.86968V4.62558H66.6729L66.6734 4.62506ZM45.6918 3.12431V6.38569H46.9498C48.6587 6.38569 48.8357 5.35188 48.8357 4.7462C48.8357 4.03698 48.5997 3.12431 46.9498 3.12431H45.6918ZM42.0023 14.4071V0.00683594H47.7941C51.7031 0.00683594 52.8022 2.80024 52.8022 4.7462C52.8022 6.70976 51.684 9.50575 47.7941 9.50575H45.6924V14.4071H42.0023ZM120.2 4.60901V14.4071H116.774V13.3185H116.738C116.135 14.2938 114.949 14.7328 113.819 14.7328C110.959 14.7328 108.945 12.3074 108.945 9.50005C108.945 6.69164 110.92 4.28494 113.783 4.28494C114.893 4.28494 116.059 4.70478 116.774 5.56413V4.60901H120.201H120.2ZM114.686 7.3025C113.293 7.3025 112.483 8.3156 112.483 9.51714C112.483 10.7585 113.293 11.7137 114.686 11.7137C116.079 11.7137 116.889 10.7585 116.889 9.51714C116.889 8.31612 116.079 7.3025 114.686 7.3025ZM64.5313 4.60901V14.4071H61.1052V13.3185H61.0675C60.4654 14.2938 59.2799 14.7328 58.1488 14.7328C55.2891 14.7328 53.2748 12.3074 53.2748 9.50005C53.2748 6.69164 55.2524 4.28494 58.1125 4.28494C59.223 4.28494 60.3903 4.70478 61.1052 5.56413V4.60901H64.5313ZM59.0169 7.3025C57.6244 7.3025 56.8137 8.3156 56.8137 9.51714C56.8137 10.7585 57.6238 11.7137 59.0169 11.7137C60.4095 11.7137 61.2181 10.7585 61.2181 9.51714C61.2181 8.31612 60.409 7.3025 59.0169 7.3025ZM154.261 9.93128V10.2957H147.051C147.051 11.7095 147.788 12.4726 149.196 12.4726C149.933 12.4726 150.459 12.2251 150.834 11.5749H154.13C153.582 13.8864 151.418 14.9378 149.216 14.9378C146.018 14.9378 143.625 13.1036 143.625 9.72058C143.625 6.45506 145.828 4.48994 148.972 4.48994C152.32 4.48994 154.261 6.58914 154.261 9.93128ZM147.108 8.29023H151.079C150.912 7.35427 150.064 6.74444 149.141 6.74444C148.144 6.74444 147.314 7.27765 147.108 8.29023ZM47.4882 30.0214H46.429L45.9062 33.0762H46.9136C49.1686 33.0762 49.6076 32.4395 49.737 31.62C49.8819 30.7192 49.7049 30.0214 47.4882 30.0214ZM53.6905 31.6625C53.5337 32.629 53.2179 33.6069 52.518 34.3156C50.9758 35.8686 48.6493 35.9934 47.1734 35.9991H41.4023L43.8536 21.5993H53.6755L53.2163 24.4346H47.277L46.8183 27.3082H48.5386C49.8084 27.3082 51.4376 27.4791 52.5972 28.4704C53.4513 29.2009 53.9069 30.303 53.6905 31.6619V31.6625ZM64.0208 33.4966H58.6007L57.1398 35.9991H52.9642L61.1839 21.5993H65.4791L68.7835 35.9991H64.5882L64.0208 33.4966ZM63.4343 30.6338L62.5915 26.0498H62.5506L60.1615 30.6333H63.4343V30.6338ZM90.7419 21.5993H86.7749L84.3796 35.9975L88.3119 35.998L89.3535 29.7548H89.3933L93.4364 35.9991L98.5356 35.998L93.2273 28.4161L100.388 21.5993H95.5087L89.763 27.5376H89.7195L90.7414 21.5998L90.7419 21.5993ZM75.5206 21.5993L74.6457 26.9676H79.8913L80.7647 21.5993H84.5867L82.2623 35.9991H78.4532L79.4404 29.8081H74.1979L73.2065 35.9996H69.3679L71.713 21.5993H75.5206Z" fill="black"/>
<mask id="mask0" mask-type="alpha" maskUnits="userSpaceOnUse" x="0" y="0" width="166" height="36">
<path d="M0 36H165.982V0H0V36Z" fill="white"/>
</mask>
<g mask="url(#mask0)">
<path fill-rule="evenodd" clip-rule="evenodd" d="M1.2002 34.8004H34.7997V1.20142H1.2002V34.8004Z" fill="#FFED00"/>
<path fill-rule="evenodd" clip-rule="evenodd" d="M1.19998 34.7995H34.7995V1.20056H1.19998V34.7995ZM0 35.9995H36.0005V-0.000976562H0V35.9995Z" fill="black"/>
<path fill-rule="evenodd" clip-rule="evenodd" d="M17.9982 22.1034L7.65858 32.4414L3.55597 28.3445L13.8971 18.0023L11.74 15.8436V11.5815L10.2418 10.0818V13.7987L8.93725 15.1033L3.69523 9.85919L2.39844 11.1555C2.40776 10.177 2.60292 7.34741 5.0034 4.98782C7.59387 2.49571 10.3914 3.61856 11.3481 4.57627L16.588 9.81778L15.2514 11.1529L17.9987 13.9012L20.7455 11.1524L19.4094 9.81778L24.6483 4.57575C25.605 3.61804 28.4025 2.49468 30.993 4.98731C33.394 7.34689 33.5892 10.177 33.599 11.1549L32.3017 9.85919L27.0586 15.1033L25.7551 13.7987V10.0818L24.2559 11.5815V15.8436L22.0987 18.0023L32.4404 28.3445L28.3383 32.442L17.9982 22.1034Z" fill="black"/>
</g>
</svg>
