<svg width="40" height="40" viewBox="0 0 40 40" fill="none" xmlns="http://www.w3.org/2000/svg">
<path d="M13.3333 0H26.6667C30.1998 0.0102016 33.5852 1.41824 36.0835 3.91651C38.5818 6.41479 39.9898 9.80025 40 13.3333V26.6667C39.9898 30.1998 38.5818 33.5852 36.0835 36.0835C33.5852 38.5818 30.1998 39.9898 26.6667 40H13.3333C9.80025 39.9898 6.41479 38.5818 3.91651 36.0835C1.41824 33.5852 0.0102016 30.1998 0 26.6667L0 13.3333C0.0102016 9.80025 1.41824 6.41479 3.91651 3.91651C6.41479 1.41824 9.80025 0.0102016 13.3333 0V0Z" fill="#E1E1E3"/>
<path d="M12.2228 20.9722H24.0567L18.626 26.4031V27.7778H20.0007L27.7783 20L20.0006 12.2223H18.6258V13.597L24.0567 19.0277H12.2228V20.9722Z" fill="#A2A4A6"/>
</svg>
