<svg width="1000" height="1000" viewBox="0 0 1000 1000" fill="none" xmlns="http://www.w3.org/2000/svg">
<g clip-path="url(#clip0)">
<rect width="1000" height="1000" fill="white"/>
<path d="M1000 0H0V1000H1000V0Z" fill="#FDE700"/>
<path d="M499.607 611.071L220.847 886.98L110.239 777.626L389.045 501.626L330.864 444.039V330.297L290.486 290.284V389.498L255.314 424.26L113.944 284.35L79 318.975C79.2274 292.853 84.5247 217.328 149.253 154.376C219.096 87.8309 294.533 117.863 320.315 143.395L461.571 283.236L425.581 318.884L499.63 392.204L573.68 318.884L537.644 283.236L678.9 143.395C704.705 117.863 780.164 87.8309 849.962 154.376C914.713 217.328 919.988 292.853 920.215 318.975L885.27 284.373L743.901 424.282L708.752 389.521V290.307L668.351 330.32V444.062L610.17 501.649L888.999 777.626L778.391 886.98L499.607 611.071Z" fill="black"/>
</g>
<defs>
<clipPath id="clip0">
<rect width="1000" height="1000" fill="white"/>
</clipPath>
</defs>
</svg>
