<?xml version="1.0" standalone="no"?>
<!DOCTYPE svg PUBLIC "-//W3C//DTD SVG 1.1//EN" "http://www.w3.org/Graphics/SVG/1.1/DTD/svg11.dtd" >
<svg>
<metadata>
Created by FontForge 20090914 at Tue Nov 12 16:14:33 2019
 By www-data
&#194;&#169;2014-16 Ilya Ruderman and Yury Ostromentsky, under exclusive license to CSTM Fonts. All rights reserved.
</metadata>
<defs>
<font id="Navigo-Regular" horiz-adv-x="1180" >
  <font-face 
    font-family="Navigo"
    font-weight="400"
    font-stretch="normal"
    units-per-em="1000"
    panose-1="2 7 5 3 7 7 6 4 3 3"
    ascent="750"
    descent="-250"
    x-height="500"
    cap-height="750"
    bbox="-102 -260 1454 1154"
    underline-thickness="50"
    underline-position="-125"
    unicode-range="U+000D-U+1F7CA"
  />
<missing-glyph horiz-adv-x="500" 
d="M50 750h400v-1000h-400v1000zM400 -200v900h-300v-900h300z" />
    <glyph glyph-name="fi" unicode="fi" horiz-adv-x="567" 
d="M113 415h-90.002v85h90v52c0 36 5.33301 67 16 93s25.334 47.5 44.001 64.5s40.667 29.667 66 38s52.333 12.5 81 12.5c26 0 49 -3 69 -9s37 -13.5 51 -22.5s25.333 -19 34 -30s15 -21.167 19 -30.5v-63h-90c-2 12 -6.66699 23 -14 33
c-6.66699 8.66699 -16.167 16.167 -28.5 22.5s-29.166 9.5 -50.499 9.5c-28 0 -51.167 -9.5 -69.5 -28.5s-27.5 -48.167 -27.5 -87.5v-54h120v-85h-120v-415h-100v415zM392.998 500h100v-500h-100v500z" />
    <glyph glyph-name="fl" unicode="fl" horiz-adv-x="567" 
d="M213 0l-100.004 -0.00292969v415h-90v85h90v42c0 74 18.667 128.833 56 164.5s90.666 53.5 159.999 53.5c14.667 0 29.834 -1 45.501 -3s30.834 -4.66699 45.501 -8s28.334 -7.16602 41.001 -11.499s23.334 -9.16602 32.001 -14.499v-723h-100v657
c-2.66699 1.33301 -9.66699 3.83301 -21 7.5s-25.666 5.5 -42.999 5.5c-41.333 0 -71 -10.167 -89 -30.5s-27 -52.166 -27 -95.499v-44h120v-85h-120v-415z" />
    <glyph glyph-name=".notdef" horiz-adv-x="500" 
d="M50 750h400v-1000h-400v1000zM400 -200v900h-300v-900h300z" />
    <glyph glyph-name=".null" horiz-adv-x="0" 
 />
    <glyph glyph-name="nonmarkingreturn" unicode="&#xd;" horiz-adv-x="250" 
 />
    <glyph glyph-name="space" unicode=" " horiz-adv-x="254" 
 />
    <glyph glyph-name="exclam" unicode="!" horiz-adv-x="280" 
d="M85 750h110l-10 -538h-90zM80 120h120v-120h-120v120z" />
    <glyph glyph-name="quotedbl" unicode="&#x22;" horiz-adv-x="412" 
d="M61 750h110l-10 -240h-90zM241 750h110l-10 -240h-90z" />
    <glyph glyph-name="numbersign" unicode="#" horiz-adv-x="621" 
d="M343 185h-113l-27 -185h-97l27 185h-90v90h104l26 180h-100v90h114l30 205h97l-30 -205h113l30 205h97l-30 -205h81v-90h-95l-26 -180h91v-90h-105l-27 -185h-97zM383 455h-113l-26 -180h113z" />
    <glyph glyph-name="dollar" unicode="$" horiz-adv-x="572" 
d="M314 -143h-87.9971l5 137c-48 6.66699 -88.5 21 -121.5 43s-56.167 47 -69.5 75v70h80c8.66699 -22.667 22.667 -42.667 42 -60s43.666 -29.333 72.999 -36l10 254c-67.333 20 -116.833 47.333 -148.5 82s-47.5 78.667 -47.5 132c0 30 5.16699 57 15.5 81
s24.666 44.833 42.999 62.5s40.666 31.667 66.999 42s55.5 16.833 87.5 19.5l5 117h88l-5 -120c42 -6.66699 75.667 -19.667 101 -39s43.333 -43 54 -71v-70h-80c-6 19.333 -15.333 36.333 -28 51s-29.667 25.667 -51 33l-9 -234l9 -3c63.333 -20 110.5 -48 141.5 -84
s46.5 -83 46.5 -141c0 -29.333 -5.16699 -56 -15.5 -80s-25 -44.833 -44 -62.5s-41.667 -32 -68 -43s-55.5 -17.833 -87.5 -20.5zM154.003 562c0 -26 8 -47.332 24 -63.999s40 -31.334 72 -44.001l9 215c-36 -4.66699 -62.5 -17.167 -79.5 -37.5s-25.5 -43.5 -25.5 -69.5z
M428.003 198.001c0 28.667 -7.66699 51.667 -23 69s-39.666 32.333 -72.999 45l-9 -229c31.333 6 56.666 19 75.999 39s29 45.333 29 76z" />
    <glyph glyph-name="percent" unicode="%" horiz-adv-x="1039" 
d="M702 762h110l-482 -788h-110zM239 344c-30 0 -57.501 5.16602 -82.501 15.499s-46.5 24.666 -64.5 42.999s-32 40.333 -42 66s-15 53.5 -15 83.5c0 30.667 5.16699 58.834 15.5 84.501s24.5 47.667 42.5 66s39.5 32.5 64.5 42.5s52.167 15 81.5 15
s56.5 -5.16699 81.5 -15.5s46.833 -24.666 65.5 -42.999s33.167 -40.166 43.5 -65.499s15.5 -53.333 15.5 -84s-5.16699 -58.834 -15.5 -84.501s-24.666 -47.667 -42.999 -66s-40 -32.5 -65 -42.5s-52.5 -15 -82.5 -15zM238.999 438.999c34 0 58.333 11.167 73 33.5
s22 48.833 22 79.5c0 32 -7.5 58.833 -22.5 80.5s-39.167 32.5 -72.5 32.5c-32.667 0 -56.5 -11 -71.5 -33s-22.5 -48.667 -22.5 -80c0 -30.667 7.33301 -57.167 22 -79.5s38.667 -33.5 72 -33.5zM797.999 -10.001c-30 0 -57.501 5.16602 -82.501 15.499
s-46.5 24.666 -64.5 42.999s-32 40.333 -42 66s-15 53.5 -15 83.5c0 30.667 5.16699 58.834 15.5 84.501s24.5 47.667 42.5 66s39.5 32.5 64.5 42.5s52.167 15 81.5 15s56.5 -5.16699 81.5 -15.5s46.833 -24.666 65.5 -42.999s33.167 -40.166 43.5 -65.499
s15.5 -53.333 15.5 -84s-5.16699 -58.834 -15.5 -84.501s-24.666 -47.667 -42.999 -66s-40 -32.5 -65 -42.5s-52.5 -15 -82.5 -15zM797.998 84.998c34 0 58.333 11.167 73 33.5s22 48.833 22 79.5c0 32 -7.5 58.833 -22.5 80.5s-39.167 32.5 -72.5 32.5
c-32.667 0 -56.5 -11 -71.5 -33s-22.5 -48.667 -22.5 -80c0 -30.667 7.33301 -57.167 22 -79.5s38.667 -33.5 72 -33.5z" />
    <glyph glyph-name="ampersand" unicode="&#x26;" horiz-adv-x="713" 
d="M525 76c-32 -28.667 -67.832 -50.501 -107.499 -65.501s-81.5 -22.5 -125.5 -22.5c-38.667 0 -73.334 5.5 -104.001 16.5s-56.667 26.167 -78 45.5s-37.666 42.333 -48.999 69s-17 55.667 -17 87c0 35.333 6.66699 65.5 20 90.5s29 45.5 47 61.5s36 28.333 54 37
s31.667 14.667 41 18c-22 27.333 -37.833 54 -47.5 80s-14.5 53 -14.5 81c0 26.667 5.16699 51.334 15.5 74.001s24.333 42.334 42 59.001s38.334 29.667 62.001 39s49.167 14 76.5 14c32 0 60.167 -4.83301 84.5 -14.5s44.666 -22.834 60.999 -39.501
s28.666 -35.834 36.999 -57.501s12.5 -44.5 12.5 -68.5s-4 -46.167 -12 -66.5s-19 -39 -33 -56s-30 -32.5 -48 -46.5s-37 -26 -57 -36l141 -147c21.333 42.667 35 88 41 136h100c-10 -79.333 -34.333 -148.666 -73 -207.999l83 -86v-70h-80zM254.001 579.999
c0 -24.667 5.66699 -48.168 17 -70.501s30 -47.166 56 -74.499c36.667 21.333 62.667 44.5 78 69.5s23 49.167 23 72.5c0 26 -8.16699 47.833 -24.5 65.5s-36.833 26.5 -61.5 26.5c-25.333 0 -46.333 -8 -63 -24s-25 -37.667 -25 -65zM296.001 78.998
c34 0 64.668 5.66602 92.001 16.999s51.666 27 72.999 47l-199 209c-6 -2 -15 -5.83301 -27 -11.5s-24.167 -14 -36.5 -25s-23 -24.667 -32 -41s-13.5 -36.166 -13.5 -59.499c0 -40 12 -72.667 36 -98s59.667 -38 107 -38z" />
    <glyph glyph-name="quotesingle" unicode="'" horiz-adv-x="232" 
d="M61 750h110l-10 -240h-90z" />
    <glyph glyph-name="parenleft" unicode="(" horiz-adv-x="370" 
d="M346 -230c-50 10.667 -93.667 30.167 -131 58.5s-68.5 64 -93.5 107s-43.833 92.667 -56.5 149s-19 117.5 -19 183.5s6.33301 127.167 19 183.5s31.5 106 56.5 149s56.167 78.667 93.5 107s81 47.833 131 58.5v-90c-32.667 -10.667 -61 -29.667 -85 -57
s-43.667 -59.5 -59 -96.5s-26.833 -77.5 -34.5 -121.5s-11.5 -88.333 -11.5 -133s3.83301 -89 11.5 -133s19.167 -84.5 34.5 -121.5s35 -69.167 59 -96.5s52.333 -46.333 85 -57v-90z" />
    <glyph glyph-name="parenright" unicode=")" horiz-adv-x="370" 
d="M24 -140c32.667 10.667 61 29.667 85 57s43.667 59.5 59 96.5s26.833 77.5 34.5 121.5s11.5 88.333 11.5 133s-3.83301 89 -11.5 133s-19.167 84.5 -34.5 121.5s-35 69.167 -59 96.5s-52.333 46.333 -85 57v90c50 -10.667 93.667 -30.167 131 -58.5s68.5 -64 93.5 -107
s43.833 -92.667 56.5 -149s19 -117.5 19 -183.5s-6.33301 -127.167 -19 -183.5s-31.5 -106 -56.5 -149s-56.167 -78.667 -93.5 -107s-81 -47.833 -131 -58.5v90z" />
    <glyph glyph-name="asterisk" unicode="*" horiz-adv-x="512" 
d="M93 400l98 119l-150 39l31 95l141 -55l-9 152h100l-9 -153l145 56l31 -95l-150 -39l98 -119l-80 -59l-83 130l-83 -130z" />
    <glyph glyph-name="plus" unicode="+" horiz-adv-x="532" 
d="M311 305v-180h-91v180h-176v85h176v179h91v-179h177v-85h-177z" />
    <glyph glyph-name="comma" unicode="," horiz-adv-x="256" 
d="M68 120h120v-100l-50 -161h-70v261z" />
    <glyph glyph-name="hyphen" unicode="-" horiz-adv-x="402" 
d="M66 365h270v-85h-270v85z" />
    <glyph glyph-name="period" unicode="." horiz-adv-x="252" 
d="M66 120h120v-120h-120v120z" />
    <glyph glyph-name="slash" unicode="/" horiz-adv-x="557" 
d="M421 819h110l-394 -1069h-110z" />
    <glyph glyph-name="zero" unicode="0" horiz-adv-x="648" 
d="M324 -10c-41.333 0 -78.333 7.16699 -111 21.5s-60.167 34 -82.5 59s-39.333 54 -51 87s-17.5 68.5 -17.5 106.5v222c0 38 6 73.667 18 107s29.333 62.333 52 87s50.167 44.167 82.5 58.5s68.833 21.5 109.5 21.5c41.333 0 78.333 -7 111 -21s60.167 -33.5 82.5 -58.5
s39.333 -54.167 51 -87.5s17.5 -69 17.5 -107v-222c0 -38 -6 -73.5 -18 -106.5s-29.333 -62 -52 -87s-50.167 -44.667 -82.5 -59s-68.833 -21.5 -109.5 -21.5zM324 80c24.667 0 46.334 4.83301 65.001 14.5s34.5 22.834 47.5 39.501s22.833 36.167 29.5 58.5
s10 46.166 10 71.499v222c0 25.333 -3.16699 49.166 -9.5 71.499s-15.833 41.833 -28.5 58.5s-28.5 29.834 -47.5 39.501s-41.167 14.5 -66.5 14.5c-24.667 0 -46.334 -4.83301 -65.001 -14.5s-34.5 -22.834 -47.5 -39.501s-22.833 -36.167 -29.5 -58.5
s-10 -46.166 -10 -71.499v-222c0 -25.333 3.16699 -49.166 9.5 -71.499s15.833 -41.833 28.5 -58.5s28.5 -29.834 47.5 -39.501s41.167 -14.5 66.5 -14.5z" />
    <glyph glyph-name="one" unicode="1" horiz-adv-x="396" 
d="M181 620l-90 -75h-70v70l170 135h100v-750h-110v620z" />
    <glyph glyph-name="two" unicode="2" horiz-adv-x="552" 
d="M55 0l0.000976562 89.999l210 236c32 35.333 58.667 72 80 110s32 78.333 32 121c0 18.667 -3.16699 35 -9.5 49s-15 25.833 -26 35.5s-23.5 16.834 -37.5 21.501s-29 7 -45 7c-28.667 0 -51.334 -6.33301 -68.001 -19s-29.667 -26.334 -39 -41.001
c-10.667 -18 -18 -38.333 -22 -61h-80v70c9.33301 26 23.333 49.667 42 71c16.667 18.667 38.667 35 66 49s62.666 21 105.999 21c33.333 0 63.5 -4.83301 90.5 -14.5s50.167 -23.167 69.5 -40.5s34.333 -38.5 45 -63.5s16 -52.833 16 -83.5
c0 -28 -3.16699 -54.167 -9.5 -78.5s-15.666 -47.666 -27.999 -69.999s-27.333 -44.833 -45 -67.5s-37.5 -46.667 -59.5 -72l-150 -170h313v-100h-451z" />
    <glyph glyph-name="three" unicode="3" horiz-adv-x="579" 
d="M281 -6c-47.333 0 -86.167 7.83691 -116.5 23.5039s-54.166 33.167 -71.499 52.5c-20.667 22 -36 47.333 -46 76v70h80c5.33301 -24.667 14.333 -46.334 27 -65.001c11.333 -18 26.833 -33.5 46.5 -46.5s46.5 -19.5 80.5 -19.5c21.333 0 40.5 3.66699 57.5 11
s31.5 17 43.5 29s21.167 26 27.5 42s9.5 32.333 9.5 49c0 39.333 -12 70.666 -36 93.999s-65 35 -123 35h-78v90h72c44 0 77.167 11.5 99.5 34.5s33.5 52.833 33.5 89.5c0 33.333 -10.833 60.166 -32.5 80.499s-49.834 30.5 -84.501 30.5c-28 0 -50.333 -5.83301 -67 -17.5
s-29.667 -24.167 -39 -37.5c-10.667 -16.667 -18 -35.334 -22 -56.001h-74v70c9.33301 24.667 22.666 46.667 39.999 66c16 17.333 36.833 32.5 62.5 45.5s58.834 19.5 99.501 19.5c34 0 65 -4.66699 93 -14s51.833 -22.333 71.5 -39s35 -36.834 46 -60.501
s16.5 -49.5 16.5 -77.5c0 -41.333 -10.167 -76.666 -30.5 -105.999s-48.5 -50.666 -84.5 -63.999c44 -10 79.5 -30.667 106.5 -62s40.5 -71.333 40.5 -120c0 -32.667 -6 -62.834 -18 -90.501s-29 -51.167 -51 -70.5s-48.167 -34.5 -78.5 -45.5s-63.833 -16.5 -100.5 -16.5z
" />
    <glyph glyph-name="four" unicode="4" horiz-adv-x="613" 
d="M474 170v-180h-110v180h-343v77l358 503h95v-491h101v-89h-101zM364 589l-232 -330h232v330z" />
    <glyph glyph-name="five" unicode="5" horiz-adv-x="558" 
d="M263 -6c-44.667 0 -81.167 7.33496 -109.5 22.002s-50.833 31 -67.5 49c-19.333 20.667 -34 44.334 -44 71.001v70h80c5.33301 -22.667 13.666 -42.667 24.999 -60c10.667 -16.667 25 -31 43 -43s42 -18 72 -18c22 0 41.833 4.16699 59.5 12.5s32.667 19.666 45 33.999
s21.666 30.833 27.999 49.5s9.5 38 9.5 58c0 47.333 -12.667 85.166 -38 113.499s-60.333 42.5 -105 42.5c-21.333 0 -39.166 -2 -53.499 -6s-25.833 -8.66699 -34.5 -14c-10.667 -6 -19.334 -12.667 -26.001 -20l-68 24l42 371h351v-100h-268l-24 -187
c8.66699 4 18 7.66699 28 11c9.33301 2.66699 19.833 5.16699 31.5 7.5s24.834 3.5 39.501 3.5c32.667 0 63.334 -5.16699 92.001 -15.5s53.5 -25.833 74.5 -46.5s37.667 -46.334 50 -77.001s18.5 -66.334 18.5 -107.001c0 -36 -6.16699 -69.167 -18.5 -99.5
s-29.5 -56.166 -51.5 -77.499s-48.333 -38 -79 -50s-64.667 -18 -102 -18z" />
    <glyph glyph-name="six" unicode="6" horiz-adv-x="590" 
d="M303 -6c-40.667 0 -76.998 6.33496 -108.998 19.002s-59 29.667 -81 51s-38.667 46.666 -50 75.999s-17 60.333 -17 93c0 30.667 2.83301 59.167 8.5 85.5s16.167 54.5 31.5 84.5s36.166 63.667 62.499 101s60.5 82.333 102.5 135l96 121h75v-68l-73 -94
c-24.667 -31.333 -47.5 -58.833 -68.5 -82.5s-39.167 -45.167 -54.5 -64.5c12 6 25.667 11.167 41 15.5s32.666 6.5 51.999 6.5c37.333 0 71 -6.33301 101 -19s55.333 -29.834 76 -51.501s36.5 -47 47.5 -76s16.5 -60.167 16.5 -93.5s-5.83301 -64.5 -17.5 -93.5
s-28.667 -54.333 -51 -76s-49.333 -38.667 -81 -51s-67.5 -18.5 -107.5 -18.5zM303.002 84.002c24 0 45 3.99902 63 11.999s33.333 18.667 46 32s22.167 29 28.5 47s9.5 37.333 9.5 58c0 21.333 -3.16699 41 -9.5 59s-15.666 33.833 -27.999 47.5
s-27.666 24.334 -45.999 32.001s-39.5 11.5 -63.5 11.5s-45 -4 -63 -12s-33.333 -18.667 -46 -32s-22.167 -29.166 -28.5 -47.499s-9.5 -37.833 -9.5 -58.5s3.16699 -40 9.5 -58s15.666 -33.833 27.999 -47.5s27.666 -24.334 45.999 -32.001s39.5 -11.5 63.5 -11.5z" />
    <glyph glyph-name="seven" unicode="7" horiz-adv-x="487" 
d="M112 65c31.333 86.667 66 177.833 104 273.5s82.333 199.5 133 311.5h-326v100h441v-90c-54 -117.333 -103.5 -231.5 -148.5 -342.5s-86.167 -220.167 -123.5 -327.5h-80v75z" />
    <glyph glyph-name="eight" unicode="8" horiz-adv-x="596" 
d="M298 -10c-38.667 0 -73.335 6 -104.002 18s-56.667 28.167 -78 48.5s-37.5 44.333 -48.5 72s-16.5 57.167 -16.5 88.5c0 17.333 2.16699 34.833 6.5 52.5s11 34.667 20 51s20.667 31.5 35 45.5s31.833 26 52.5 36c-31.333 20.667 -53.333 45.334 -66 74.001
s-19 57 -19 85c0 27.333 4.83301 53.166 14.5 77.499s23.834 45.5 42.501 63.5s41.5 32.333 68.5 43s57.833 16 92.5 16c34 0 64.5 -5.33301 91.5 -16s49.667 -25 68 -43s32.333 -39.167 42 -63.5s14.5 -50.166 14.5 -77.499c0 -36 -7.66699 -67.5 -23 -94.5
s-35.666 -48.5 -60.999 -64.5c20.667 -9.33301 38.334 -21 53.001 -35s26.667 -29.333 36 -46s16.166 -33.834 20.499 -51.501s6.5 -35.167 6.5 -52.5c0 -31.333 -5.5 -60.833 -16.5 -88.5s-27.167 -51.667 -48.5 -72s-47.333 -36.5 -78 -48.5s-65.667 -18 -105 -18z
M297.999 442c37.333 0 65.666 11.667 84.999 35s29 51.333 29 84c0 29.333 -9.66699 55 -29 77s-47.666 33 -84.999 33c-38 0 -66.667 -11 -86 -33s-29 -47.667 -29 -77c0 -32.667 9.5 -60.667 28.5 -84s47.833 -35 86.5 -35zM297.999 85c22 0 41.499 3.5 58.499 10.5
s31 16.5 42 28.5s19.333 26 25 42s8.5 33 8.5 51c0 18.667 -2.83301 36.167 -8.5 52.5s-14.167 30.666 -25.5 42.999s-25.333 22 -42 29s-36 10.5 -58 10.5s-41.167 -3.5 -57.5 -10.5s-30.166 -16.667 -41.499 -29s-19.833 -26.666 -25.5 -42.999s-8.5 -33.833 -8.5 -52.5
c0 -18 2.83301 -35 8.5 -51s14 -30 25 -42s24.833 -21.5 41.5 -28.5s36 -10.5 58 -10.5z" />
    <glyph glyph-name="nine" unicode="9" horiz-adv-x="589" 
d="M172 58l68.5 86l61.5 77l30 38.5c9.33301 12.333 17.666 24.166 24.999 35.499c-10 -4 -21 -7.33301 -33 -10s-24.667 -4 -38 -4c-41.333 0 -78 6.16699 -110 18.5s-58.833 29.333 -80.5 51s-38.167 47 -49.5 76s-17 60.167 -17 93.5s5.83301 64.5 17.5 93.5
s28.667 54.333 51 76s49.333 38.834 81 51.501s67.5 19 107.5 19c40.667 0 77 -6.33301 109 -19s59 -29.667 81 -51s38.667 -46.5 50 -75.5s17 -60.167 17 -93.5c0 -27.333 -2 -52.833 -6 -76.5s-11.167 -48 -21.5 -73s-24.666 -52.167 -42.999 -81.5s-41.5 -63 -69.5 -101
l-156 -199h-75v68zM286 371c24 0 45 3.83496 63 11.502s33.333 18.334 46 32.001s22.167 29.5 28.5 47.5s9.5 37.333 9.5 58s-3.16699 40.167 -9.5 58.5s-15.666 34.166 -27.999 47.499s-27.666 24 -45.999 32s-39.5 12 -63.5 12s-45 -3.83301 -63 -11.5
s-33.333 -18.334 -46 -32.001s-22.167 -29.5 -28.5 -47.5s-9.5 -37.333 -9.5 -58s3.16699 -40.167 9.5 -58.5s15.666 -34.333 27.999 -48s27.666 -24.334 45.999 -32.001s39.5 -11.5 63.5 -11.5z" />
    <glyph glyph-name="colon" unicode=":" horiz-adv-x="252" 
d="M66 500h120v-120h-120v120zM66 120h120v-120h-120v120z" />
    <glyph glyph-name="semicolon" unicode=";" horiz-adv-x="252" 
d="M66 500h120v-120h-120v120zM66 120h120v-100l-50 -161h-70v261z" />
    <glyph glyph-name="less" unicode="&#x3c;" horiz-adv-x="507" 
d="M367 90l-321 202v76l321 202h65v-65l-284 -175l284 -175v-65h-65z" />
    <glyph glyph-name="equal" unicode="=" horiz-adv-x="584" 
d="M70 465h444v-85h-444v85zM70 255h444v-85h-444v85z" />
    <glyph glyph-name="greater" unicode="&#x3e;" horiz-adv-x="507" 
d="M75 90v65l284 175l-284 175v65h65l321 -202v-76l-321 -202h-65z" />
    <glyph glyph-name="question" unicode="?" horiz-adv-x="513" 
d="M179 212c-6 15.333 -8.99219 30.3359 -8.99219 45.0029c0 22 4.66699 41 14 57s21.166 30.5 35.499 43.5s29.666 25.5 45.999 37.5s31.666 25.5 45.999 40.5s26.166 32.333 35.499 52s14 43.5 14 71.5c0 33.333 -10.833 60.166 -32.5 80.499s-50.167 30.5 -85.5 30.5
c-28.667 0 -51.334 -6.33301 -68.001 -19s-29.334 -26.334 -38.001 -41.001c-10 -18 -17 -38.333 -21 -61h-80v70c8.66699 26 22.334 49.667 41.001 71c16 18.667 37.5 35 64.5 49s61.833 21 104.5 21c33.333 0 63.666 -4.66699 90.999 -14s51 -22.833 71 -40.5
s35.5 -38.834 46.5 -63.501s16.5 -52.334 16.5 -83.001c0 -33.333 -4.83301 -61.833 -14.5 -85.5s-21.834 -44 -36.501 -61s-30.5 -31.667 -47.5 -44l-47.5 -35.5c-14.667 -11.333 -26.834 -23.166 -36.501 -35.499s-14.5 -26.833 -14.5 -43.5
c0 -14.667 2.66699 -28.667 8 -42h-103zM177.008 120.003h120v-120h-120v120z" />
    <glyph glyph-name="at" unicode="@" horiz-adv-x="995" 
d="M464 -207c-60.667 0 -116.501 10.165 -167.501 30.498s-95 49.666 -132 87.999s-65.667 85 -86 140s-30.5 117.167 -30.5 186.5c0 64.667 10.667 125.5 32 182.5s51.833 106.667 91.5 149s88 75.833 145 100.5s121.167 37 192.5 37c63.333 0 121.666 -9.5 174.999 -28.5
s99.166 -45.5 137.499 -79.5s68.333 -74.167 90 -120.5s32.5 -97.166 32.5 -152.499c0 -111.333 -27.667 -193.5 -83 -246.5s-132.666 -79.5 -231.999 -79.5h-64v74c-6.66699 -10 -14.5 -19.833 -23.5 -29.5s-19 -18.5 -30 -26.5s-23.333 -14.5 -37 -19.5
s-29.167 -7.5 -46.5 -7.5c-28 0 -52.5 6 -73.5 18s-38 28.833 -51 50.5s-22 47.167 -27 76.5s-5.5 61.333 -1.5 96c4 35.333 11.833 67.833 23.5 97.5s27.167 55.334 46.5 77.001s42.333 38.5 69 50.5s56.667 18 90 18c18.667 0 34.834 -2.16699 48.501 -6.5
s24.834 -9.16602 33.501 -14.499c10.667 -6 19.667 -13 27 -21l10 27h74l-42 -371c64 0 110.667 20.167 140 60.5s44 99.166 44 176.499c0 35.333 -6.5 70 -19.5 104s-33 64.5 -60 91.5s-61.667 48.833 -104 65.5s-92.5 25 -150.5 25
c-53.333 0 -101.666 -9.16699 -144.999 -27.5s-80.166 -44.166 -110.499 -77.499s-53.833 -72.833 -70.5 -118.5s-25 -96.167 -25 -151.5c0 -57.333 7.83301 -108 23.5 -152s37.167 -80.833 64.5 -110.5s59.666 -52 96.999 -67s77.666 -22.5 120.999 -22.5
c28 0 53 1.16699 75 3.5s42.333 5.5 61 9.5s36 8.66699 52 14s31.667 11 47 17v-89c-15.333 -7.33301 -30.833 -13.833 -46.5 -19.5s-32.5 -10.5 -50.5 -14.5s-37.833 -7.16699 -59.5 -9.5s-46.5 -3.5 -74.5 -3.5zM449.999 71.998c35.333 0 62.998 13.834 82.998 41.501
s32.333 62.5 37 104.5l16 146c-6 6.66699 -13 12.667 -21 18c-8 4.66699 -17.167 8.66699 -27.5 12s-22.5 5 -36.5 5c-16 0 -31.167 -4.33301 -45.5 -13s-27.166 -20.334 -38.499 -35.001s-20.666 -31.834 -27.999 -51.501s-12.333 -40.5 -15 -62.5
c-6.66699 -59.333 -2.66699 -101.666 12 -126.999s36 -38 64 -38z" />
    <glyph glyph-name="A" unicode="A" horiz-adv-x="681" 
d="M17 0v70l281 680h85l279 -670v-80h-80l-81 200h-324l-80 -200h-80zM339 603l-126 -313h252z" />
    <glyph glyph-name="B" unicode="B" horiz-adv-x="647" 
d="M95 750l241.001 -0.00488281c36 0 68.333 -4.66699 97 -14s53 -22.666 73 -39.999s35.5 -38.166 46.5 -62.499s16.5 -51.5 16.5 -81.5c0 -36.667 -8.33301 -68.167 -25 -94.5s-40.334 -46.166 -71.001 -59.499c40 -13.333 70.5 -35.166 91.5 -65.499
s31.5 -66.833 31.5 -109.5c0 -34 -5.83301 -64.667 -17.5 -92s-28.5 -50.666 -50.5 -69.999s-48.833 -34.333 -80.5 -45s-67.5 -16 -107.5 -16h-245v750zM328.001 432.995c42 0 74.333 10.499 97 31.499s34 48.833 34 83.5c0 15.333 -2.66699 29.833 -8 43.5
s-13.333 25.834 -24 36.501s-23.667 19 -39 25s-33 9 -53 9h-133v-229h126zM341.001 87.9941c23.333 0 44 3.50098 62 10.501s33.167 16.667 45.5 29s21.666 26.666 27.999 42.999s9.5 33.5 9.5 51.5c0 37.333 -11.667 67.5 -35 90.5s-59.666 34.5 -108.999 34.5h-140v-259
h139z" />
    <glyph glyph-name="C" unicode="C" horiz-adv-x="735" 
d="M417 -10c-60.667 0 -113.997 10.1709 -159.997 30.5039s-84.5 48.166 -115.5 83.499s-54.333 76.5 -70 123.5s-23.5 97.167 -23.5 150.5c0 54 8.83301 104.167 26.5 150.5s42.5 86.666 74.5 120.999s70.667 61.333 116 81s96 29.5 152 29.5c54 0 98.667 -6.33301 134 -19
s63.666 -26.334 84.999 -41.001c24 -18 42.667 -38.333 56 -61v-70h-80c-8 18.667 -20.333 35.667 -37 51c-14.667 13.333 -34.167 25 -58.5 35s-56.5 15 -96.5 15c-41.333 0 -78.166 -7.5 -110.499 -22.5s-59.833 -35.5 -82.5 -61.5s-39.834 -56.833 -51.501 -92.5
s-17.5 -74.167 -17.5 -115.5c0 -40.667 5.83301 -79.167 17.5 -115.5s28.834 -67.833 51.501 -94.5s50.167 -47.834 82.5 -63.501s69.166 -23.5 110.499 -23.5c38.667 0 70.667 5.5 96 16.5s45.666 23.167 60.999 36.5c17.333 15.333 30.666 32.666 39.999 51.999h80v-70
c-14.667 -23.333 -34.667 -44.333 -60 -63c-23.333 -17.333 -52.5 -32.166 -87.5 -44.499s-79.167 -18.5 -132.5 -18.5z" />
    <glyph glyph-name="D" unicode="D" horiz-adv-x="754" 
d="M95 750l233 0.000976562c58.667 0 111.334 -9.83301 158.001 -29.5s86.334 -46.334 119.001 -80.001s57.834 -73 75.501 -118s26.5 -93.167 26.5 -144.5c0 -52 -8.83301 -101 -26.5 -147s-42.834 -86 -75.501 -120s-72.334 -61 -119.001 -81s-99.334 -30 -158.001 -30
h-233v750zM325 90.001c41.333 0 78.833 7.50098 112.5 22.501s62.334 35.5 86.001 61.5s41.834 56.5 54.501 91.5s19 72.5 19 112.5c0 38.667 -6.33301 75.167 -19 109.5s-30.834 64.166 -54.501 89.499s-52.334 45.5 -86.001 60.5s-71.167 22.5 -112.5 22.5h-120v-570h120z
" />
    <glyph glyph-name="E" unicode="E" horiz-adv-x="580" 
d="M95 750h431v-90h-321v-230h291v-90h-291v-250h321v-90h-431v750z" />
    <glyph glyph-name="F" unicode="F" horiz-adv-x="571" 
d="M95 750h431v-90h-321v-240h291v-90h-291v-330h-110v750z" />
    <glyph glyph-name="G" unicode="G" horiz-adv-x="770" 
d="M427 -10c-58.667 0 -111.499 10.334 -158.499 31.001s-86.833 48.667 -119.5 84s-57.667 76.5 -75 123.5s-26 96.833 -26 149.5s8.66699 102.167 26 148.5s42.333 86.833 75 121.5s72.5 62 119.5 82s99.833 30 158.5 30c53.333 0 97.333 -6.33301 132 -19
s62.334 -26.334 83.001 -41.001c24 -18 42.333 -38.333 55 -61v-70h-80c-8.66699 18.667 -21.334 35.667 -38.001 51c-14.667 13.333 -33.834 25 -57.501 35s-54.167 15 -91.5 15c-44 0 -83 -7.66699 -117 -23s-62.5 -36.333 -85.5 -63s-40.333 -57.667 -52 -93
s-17.5 -73 -17.5 -113c0 -40.667 5.83301 -79 17.5 -115s29 -67.5 52 -94.5s51.5 -48.333 85.5 -64s73 -23.5 117 -23.5c40 0 73.667 3.83301 101 11.5s49.333 16.167 66 25.5v182h-210v90h320v-314l-16.5 -13.5c-11 -9 -28 -18.833 -51 -29.5s-52.167 -20.5 -87.5 -29.5
s-77 -13.5 -125 -13.5z" />
    <glyph glyph-name="H" unicode="H" horiz-adv-x="770" 
d="M95 750h110v-320h360v320h110v-750h-110v340h-360v-340h-110v750z" />
    <glyph glyph-name="I" unicode="I" horiz-adv-x="300" 
d="M95 750h110v-750h-110v750z" />
    <glyph glyph-name="J" unicode="J" horiz-adv-x="448" 
d="M178 -10c-30.667 0 -55.999 3.66797 -75.999 11.001s-35.667 15.666 -47 24.999c-14 10.667 -24.667 22.667 -32 36v71h80c2.66699 -10 7 -18.667 13 -26c5.33301 -7.33301 12.5 -13.666 21.5 -18.999s20.833 -8 35.5 -8c12 0 22.833 1.33301 32.5 4
s17.667 8.16699 24 16.5s11.166 19.833 14.499 34.5s5 34 5 58v557h110v-556c0 -66.667 -14.167 -117.334 -42.5 -152.001s-74.5 -52 -138.5 -52z" />
    <glyph glyph-name="K" unicode="K" horiz-adv-x="649" 
d="M205 0h-110v750h110v-357l327 357h70v-70l-276 -296l299 -309v-75h-75l-345 359v-359z" />
    <glyph glyph-name="L" unicode="L" horiz-adv-x="547" 
d="M95 750h110v-660h321v-90h-431v750z" />
    <glyph glyph-name="M" unicode="M" horiz-adv-x="917" 
d="M195 616v-616h-100v750h138l229 -422l223 422h137v-750h-110v616l-221 -421h-75z" />
    <glyph glyph-name="N" unicode="N" horiz-adv-x="770" 
d="M95 750h100l380 -573v573h100v-750h-100l-380 565v-565h-100v750z" />
    <glyph glyph-name="O" unicode="O" horiz-adv-x="840" 
d="M420 -10c-56 0 -106.833 9.83301 -152.5 29.5s-84.667 46.667 -117 81s-57.5 75.166 -75.5 122.499s-27 99 -27 155c0 55.333 9 106.333 27 153s43.167 87 75.5 121s71.333 60.5 117 79.5s96.5 28.5 152.5 28.5s106.833 -9.5 152.5 -28.5s84.667 -45.5 117 -79.5
s57.5 -74.333 75.5 -121s27 -97.667 27 -153c0 -56 -9 -107.667 -27 -155s-43.167 -88.166 -75.5 -122.499s-71.333 -61.333 -117 -81s-96.5 -29.5 -152.5 -29.5zM420 80c40 0 76.167 7.33301 108.5 22s59.833 35.167 82.5 61.5s40.167 57.833 52.5 94.5
s18.5 76.667 18.5 120c0 42.667 -6.16699 81.834 -18.5 117.501s-29.833 66.5 -52.5 92.5s-50.167 46.167 -82.5 60.5s-68.5 21.5 -108.5 21.5s-76.167 -7.16699 -108.5 -21.5s-59.833 -34.5 -82.5 -60.5s-40.167 -56.833 -52.5 -92.5s-18.5 -74.834 -18.5 -117.501
c0 -43.333 6.16699 -83.333 18.5 -120s29.833 -68.167 52.5 -94.5s50.167 -46.833 82.5 -61.5s68.5 -22 108.5 -22z" />
    <glyph glyph-name="P" unicode="P" horiz-adv-x="594" 
d="M95 750h200.999c40 0 76.333 -5.33301 109 -16s60.334 -26 83.001 -46s40.167 -44 52.5 -72s18.5 -59.333 18.5 -94c0 -32 -5.5 -62.833 -16.5 -92.5s-27.5 -56 -49.5 -79s-49.333 -41.333 -82 -55s-71 -20.5 -115 -20.5h-91v-275h-110v750zM294.999 365
c48 0 85.667 14 113 42s41 65 41 111c0 18.667 -3.33301 36.667 -10 54s-16.5 32.5 -29.5 45.5s-29.167 23.333 -48.5 31s-41.333 11.5 -66 11.5h-90v-295h90z" />
    <glyph glyph-name="Q" unicode="Q" horiz-adv-x="840" 
d="M759 -109l-76 -0.000976562l-109 129c-23.333 -9.33301 -47.833 -16.666 -73.5 -21.999s-52.5 -8 -80.5 -8c-56 0 -106.833 9.83301 -152.5 29.5s-84.667 46.667 -117 81s-57.5 75.166 -75.5 122.499s-27 99 -27 155c0 55.333 9 106.333 27 153s43.167 87 75.5 121
s71.333 60.5 117 79.5s96.5 28.5 152.5 28.5s106.833 -9.5 152.5 -28.5s84.667 -45.5 117 -79.5s57.5 -74.333 75.5 -121s27 -97.667 27 -153c0 -62.667 -11.167 -119.667 -33.5 -171s-53.5 -94.666 -93.5 -129.999l94 -110v-76zM158 377.999
c0 -43.333 6.16699 -83.333 18.5 -120s29.833 -68.167 52.5 -94.5s50.167 -46.833 82.5 -61.5s68.5 -22 108.5 -22c33.333 0 63.333 5 90 15l-76 89v76h76l91 -107c26 26.667 46 59.167 60 97.5s21 80.833 21 127.5c0 42.667 -6.16699 81.834 -18.5 117.501
s-29.833 66.5 -52.5 92.5s-50.167 46.167 -82.5 60.5s-68.5 21.5 -108.5 21.5s-76.167 -7.16699 -108.5 -21.5s-59.833 -34.5 -82.5 -60.5s-40.167 -56.833 -52.5 -92.5s-18.5 -74.834 -18.5 -117.501z" />
    <glyph glyph-name="R" unicode="R" horiz-adv-x="648" 
d="M95 0v750.001h211c38.667 0 73.667 -5 105 -15s58 -24.333 80 -43s38.833 -41.167 50.5 -67.5s17.5 -55.5 17.5 -87.5c0 -52.667 -13.5 -96.834 -40.5 -132.501s-63.5 -61.167 -109.5 -76.5l206 -253v-75h-75l-241 305h-94v-305h-110zM305 395.001
c44.667 0 79.833 12.5 105.5 37.5s38.5 58.5 38.5 100.5c0 16 -3.16699 31.5 -9.5 46.5s-15.5 28 -27.5 39s-27 19.833 -45 26.5s-38.667 10 -62 10h-100v-260h100z" />
    <glyph glyph-name="S" unicode="S" horiz-adv-x="594" 
d="M297 -10c-31.333 0 -60.166 3.33105 -86.499 9.99805s-49.833 15.667 -70.5 27s-38.334 24.333 -53.001 39s-26 30 -34 46v70h80c11.333 -28.667 30.833 -52.834 58.5 -72.501s63.5 -29.5 107.5 -29.5c41.333 0 75.333 10.5 102 31.5s40 49.833 40 86.5
c0 33.333 -10.333 59.333 -31 78s-53.667 34.667 -99 48l-53 16c-67.333 20 -116.833 47.333 -148.5 82s-47.5 78.667 -47.5 132c0 32 5.83301 60.667 17.5 86s28.167 46.833 49.5 64.5s46.666 31.334 75.999 41.001s62 14.5 98 14.5c60 0 107.5 -10.5 142.5 -31.5
s59.167 -48.5 72.5 -82.5v-70h-80c-8.66699 28 -24 50.667 -46 68s-54.333 26 -97 26s-74.667 -10.667 -96 -32s-32 -46.666 -32 -75.999c0 -30 10 -53.667 30 -71s50.667 -32.666 92 -45.999l70 -22c63.333 -20 110.5 -48 141.5 -84s46.5 -83 46.5 -141
c0 -32 -6.16699 -60.833 -18.5 -86.5s-29.666 -47.5 -51.999 -65.5s-48.833 -31.833 -79.5 -41.5s-64 -14.5 -100 -14.5z" />
    <glyph glyph-name="T" unicode="T" horiz-adv-x="628" 
d="M259 660h-240v90h590v-90h-240v-660h-110v660z" />
    <glyph glyph-name="U" unicode="U" horiz-adv-x="754" 
d="M377 -10c-44 0 -83.832 7.33301 -119.499 22s-66.167 34.667 -91.5 60s-44.833 55 -58.5 89s-20.5 70.333 -20.5 109v480h110v-481c0 -26 4 -50.5 12 -73.5s19.833 -43 35.5 -60s34.667 -30.5 57 -40.5s47.5 -15 75.5 -15c30 0 56.667 5 80 15s43.166 23.5 59.499 40.5
s28.833 37 37.5 60s13 47.5 13 73.5v481h100v-480c0 -38.667 -6.83301 -75 -20.5 -109s-33.167 -63.667 -58.5 -89s-55.833 -45.333 -91.5 -60s-75.5 -22 -119.5 -22z" />
    <glyph glyph-name="V" unicode="V" horiz-adv-x="690" 
d="M19 670v80h85l245 -607l245 607h80v-70l-281 -680h-95z" />
    <glyph glyph-name="W" unicode="W" horiz-adv-x="957" 
d="M478 548l-162 -548h-90l-199 670v80h85l165 -557l165 557h80l165 -557l165 557h80v-70l-201 -680h-90z" />
    <glyph glyph-name="X" unicode="X" horiz-adv-x="662" 
d="M35 70l232 313l-222 292v75h75l216 -287l211 287h70v-70l-221 -296l232 -309v-75h-75l-226 303l-222 -303h-70v70z" />
    <glyph glyph-name="Y" unicode="Y" horiz-adv-x="641" 
d="M267 315l-256 360v75h75l244 -342l226 342h70v-70l-249 -366v-314h-110v315z" />
    <glyph glyph-name="Z" unicode="Z" horiz-adv-x="611" 
d="M40 0v80l395 580h-390v90h521v-80l-395 -580h400v-90h-531z" />
    <glyph glyph-name="bracketleft" unicode="[" horiz-adv-x="375" 
d="M89 750h260v-90h-150v-800h150v-90h-260v980z" />
    <glyph glyph-name="backslash" unicode="\" horiz-adv-x="557" 
d="M26 819h110l394 -1069h-110z" />
    <glyph glyph-name="bracketright" unicode="]" horiz-adv-x="375" 
d="M26 -140h150v800h-150v90h260v-980h-260v90z" />
    <glyph glyph-name="asciicircum" unicode="^" horiz-adv-x="530" 
d="M265 648l-145 -234h-65v65l172 271h76l172 -271v-65h-65z" />
    <glyph glyph-name="underscore" unicode="_" horiz-adv-x="530" 
d="M0 -125h530v-85h-530v85z" />
    <glyph glyph-name="grave" unicode="`" horiz-adv-x="332" 
d="M75 690v60h90l92 -80v-60h-90z" />
    <glyph glyph-name="a" unicode="a" horiz-adv-x="523" 
d="M207 -10c-28 0 -52.5 4 -73.5 12s-38.667 19 -53 33s-25 30.5 -32 49.5s-10.5 39.167 -10.5 60.5s3.83301 41 11.5 59s19.5 33.667 35.5 47s36.833 23.833 62.5 31.5s56.5 11.5 92.5 11.5c16 0 30.833 -0.666992 44.5 -2s25.834 -3 36.501 -5c12 -2 23 -4.33301 33 -7v31
c0 38 -8.33301 66.5 -25 85.5s-44.334 28.5 -83.001 28.5c-20.667 0 -38.167 -3.16699 -52.5 -9.5s-26.166 -13.166 -35.499 -20.499c-10 -9.33301 -18.333 -19.666 -25 -30.999h-65v65c10 15.333 23.333 29 40 41c15.333 10.667 34.166 20 56.499 28s50.5 12 84.5 12
c67.333 0 118.333 -16.833 153 -50.5s52 -83.834 52 -150.501v-309h-80l-12 72c-6 -8.66699 -13.667 -17.834 -23 -27.501s-20.333 -18.5 -33 -26.5s-27.167 -14.667 -43.5 -20s-34.833 -8 -55.5 -8zM223 71c20.667 0 39.002 3.33203 55.002 9.99902
s29.667 15.334 41 26.001s20 22.167 26 34.5s9 24.5 9 36.5v26c-9.33301 2.66699 -20 5 -32 7c-10.667 2 -22.834 3.66699 -36.501 5s-28.834 2 -45.501 2c-20 0 -36.667 -2 -50 -6s-24 -9.5 -32 -16.5s-13.667 -14.833 -17 -23.5s-5 -17.667 -5 -27
c0 -49.333 29 -74 87 -74z" />
    <glyph glyph-name="b" unicode="b" horiz-adv-x="626" 
d="M348 -10c-38.667 0 -72.5 7.83301 -101.5 23.5s-53.167 37.167 -72.5 64.5l-10 -78h-90v750h100v-327c19.333 26.667 43.5 47.834 72.5 63.501s62.833 23.5 101.5 23.5c36.667 0 69.5 -6.83301 98.5 -20.5s53.5 -32.167 73.5 -55.5s35.333 -50.666 46 -81.999
s16 -65 16 -101s-5.33301 -69.833 -16 -101.5s-26 -59.334 -46 -83.001s-44.5 -42.334 -73.5 -56.001s-61.833 -20.5 -98.5 -20.5zM328 75c26 0 48.667 4.66699 68 14s35.333 22 48 38s22.167 34.667 28.5 56s9.5 44 9.5 68s-3.16699 46.5 -9.5 67.5
s-15.833 39.5 -28.5 55.5s-28.667 28.5 -48 37.5s-42 13.5 -68 13.5c-24 0 -45.5 -4.5 -64.5 -13.5s-35.167 -21.5 -48.5 -37.5s-23.5 -34.5 -30.5 -55.5s-10.5 -43.5 -10.5 -67.5s3.5 -46.667 10.5 -68s17.167 -40 30.5 -56s29.5 -28.667 48.5 -38s40.5 -14 64.5 -14z" />
    <glyph glyph-name="c" unicode="c" horiz-adv-x="533" 
d="M297 -10c-42.667 0 -79.835 6.8291 -111.502 20.4961s-58 32.334 -79 56.001s-36.833 51.334 -47.5 83.001s-16 65.5 -16 101.5s5.66699 69.667 17 101s28 58.833 50 82.5s48.667 42.334 80 56.001s67 20.5 107 20.5c39.333 0 71.333 -4.83301 96 -14.5
s44 -20.167 58 -31.5c16.667 -13.333 29 -28.666 37 -45.999v-65h-65c-4.66699 13.333 -12.334 25.333 -23.001 36c-10 10 -23 18.5 -39 25.5s-37.333 10.5 -64 10.5c-26 0 -48.667 -4.66699 -68 -14s-35.333 -21.833 -48 -37.5s-22.167 -34.167 -28.5 -55.5
s-9.5 -44 -9.5 -68s3.16699 -46.667 9.5 -68s15.833 -40 28.5 -56s28.667 -28.667 48 -38s42 -14 68 -14c28 0 50.333 3.66699 67 11s29.334 15.666 38.001 24.999c10.667 10.667 18 22.667 22 36h65v-65c-8 -17.333 -20.333 -32.666 -37 -45.999
c-15.333 -12.667 -35.166 -23.5 -59.499 -32.5s-56.166 -13.5 -95.499 -13.5z" />
    <glyph glyph-name="d" unicode="d" horiz-adv-x="626" 
d="M278 -10c-36.667 0 -69.5 6.83203 -98.5 20.499s-53.5 32.334 -73.5 56.001s-35.333 51.334 -46 83.001s-16 65.5 -16 101.5s5.33301 69.667 16 101s26 58.666 46 81.999s44.5 41.833 73.5 55.5s61.833 20.5 98.5 20.5c38.667 0 72.5 -7.83301 101.5 -23.5
s53.167 -37.167 72.5 -64.5v328h100v-750h-90l-10 78c-19.333 -27.333 -43.5 -48.833 -72.5 -64.5s-62.833 -23.5 -101.5 -23.5zM298 74.999c24 0 45.5 4.66699 64.5 14s35.167 22 48.5 38s23.5 34.667 30.5 56s10.5 44 10.5 68s-3.5 46.5 -10.5 67.5
s-17.167 39.5 -30.5 55.5s-29.5 28.5 -48.5 37.5s-40.5 13.5 -64.5 13.5c-26 0 -48.667 -4.5 -68 -13.5s-35.333 -21.5 -48 -37.5s-22.167 -34.5 -28.5 -55.5s-9.5 -43.5 -9.5 -67.5s3.16699 -46.667 9.5 -68s15.833 -40 28.5 -56s28.667 -28.667 48 -38s42 -14 68 -14z" />
    <glyph glyph-name="e" unicode="e" horiz-adv-x="565" 
d="M303 -10c-42.667 0 -80.167 6.5 -112.5 19.5s-59.333 31 -81 54s-38 50.5 -49 82.5s-16.5 67 -16.5 105c0 36 5.33301 69.667 16 101s26.5 58.666 47.5 81.999s46.833 41.833 77.5 55.5s66 20.5 106 20.5s74.5 -5.5 103.5 -16.5s52.833 -26.333 71.5 -46
s32.334 -43 41.001 -70s13 -56.167 13 -87.5c0 -8 -0.166992 -15.167 -0.5 -21.5s-0.833008 -12.166 -1.5 -17.499s-1.33398 -10.333 -2.00098 -15h-372c2.66699 -49.333 17.167 -88.333 43.5 -117s64.833 -43 115.5 -43c28.667 0 52.167 3.16699 70.5 9.5
s32.833 13.5 43.5 21.5c12 8.66699 21.333 18.667 28 30h65v-65c-10.667 -15.333 -25.667 -29 -45 -41c-16.667 -11.333 -38 -21 -64 -29s-58.667 -12 -98 -12zM422 311c0 32.667 -10.666 59.832 -31.999 81.499s-54 32.5 -98 32.5c-44.667 0 -77.834 -10.667 -99.501 -32
s-36.167 -48.666 -43.5 -81.999h273z" />
    <glyph glyph-name="f" unicode="f" horiz-adv-x="389" 
d="M113 415h-90v85h90v82c0 56.667 14.5 100.5 43.5 131.5s69.833 46.5 122.5 46.5c34.667 0 62 -6 82 -18s33.667 -25 41 -39v-65h-68c-2 6 -5.33301 11.333 -10 16c-4 4.66699 -9.5 8.5 -16.5 11.5s-16.167 4.5 -27.5 4.5c-44.667 0 -67 -28.667 -67 -86v-84h161v-85h-161
v-415h-100v415z" />
    <glyph glyph-name="g" unicode="g" horiz-adv-x="626" 
d="M283 -260c-41.333 0 -75.6689 5.66406 -103.002 16.9971s-49.333 23.666 -66 36.999c-20 16 -35.333 34.333 -46 55v65h65c7.33301 -16 17.666 -30 30.999 -42c12 -11.333 27.333 -21.166 46 -29.499s42.667 -12.5 72 -12.5c56.667 0 99.334 17.5 128.001 52.5
s43 83.833 43 146.5v49c-19.333 -27.333 -43.5 -48.833 -72.5 -64.5s-62.833 -23.5 -101.5 -23.5c-36.667 0 -69.5 6.83301 -98.5 20.5s-53.5 32.334 -73.5 56.001s-35.333 51.334 -46 83.001s-16 65.5 -16 101.5s5.33301 69.667 16 101s26 58.833 46 82.5
s44.5 42.334 73.5 56.001s61.833 20.5 98.5 20.5c38.667 0 72.5 -7.83301 101.5 -23.5s53.167 -37.167 72.5 -64.5l10 77h90v-470c0 -44.667 -6.16699 -85 -18.5 -121s-30.166 -66.5 -53.499 -91.5s-51.666 -44.167 -84.999 -57.5s-71 -20 -113 -20zM298.997 74.9971
c24 0 45.5 4.66699 64.5 14s35.167 22 48.5 38s23.5 34.667 30.5 56s10.5 44 10.5 68s-3.5 46.667 -10.5 68s-17.167 39.833 -30.5 55.5s-29.5 28.167 -48.5 37.5s-40.5 14 -64.5 14c-26 0 -48.667 -4.66699 -68 -14s-35.333 -21.833 -48 -37.5s-22.167 -34.167 -28.5 -55.5
s-9.5 -44 -9.5 -68s3.16699 -46.667 9.5 -68s15.833 -40 28.5 -56s28.667 -28.667 48 -38s42 -14 68 -14z" />
    <glyph glyph-name="h" unicode="h" horiz-adv-x="583" 
d="M74 750h100.001v-313c6 8 13.667 16.333 23 25s20.166 16.5 32.499 23.5s26.333 12.833 42 17.5s33.167 7 52.5 7c34.667 0 64 -5.5 88 -16.5s43.5 -26.167 58.5 -45.5s26 -41.666 33 -66.999s10.5 -52.666 10.5 -81.999v-299h-100v293c0 40 -8.66699 72.167 -26 96.5
s-46.333 36.5 -87 36.5c-24 0 -44.167 -3.83301 -60.5 -11.5s-29.333 -17.834 -39 -30.501s-16.667 -26.834 -21 -42.501s-6.5 -31.5 -6.5 -47.5v-294h-100v750z" />
    <glyph glyph-name="i" unicode="i" horiz-adv-x="248" 
d="M74 500h100v-500h-100v500zM69 720h110v-110h-110v110z" />
    <glyph glyph-name="j" unicode="j" horiz-adv-x="248" 
d="M25 -260c-20 0 -37.333 1.99902 -52 5.99902s-27 8.83301 -37 14.5s-18.167 11.834 -24.5 18.501s-10.833 13 -13.5 19v65h65c2 -6 5.33301 -11.667 10 -17c4.66699 -4 10.5 -7.66699 17.5 -11s16.167 -5 27.5 -5c23.333 0 38.5 6.66699 45.5 20s10.5 34.333 10.5 63v587
h100v-587c0 -54 -11 -96.333 -33 -127s-60.667 -46 -116 -46zM69 719.999h110v-110h-110v110z" />
    <glyph glyph-name="k" unicode="k" horiz-adv-x="512" 
d="M74 750h100v-475l224 225h65v-65l-175 -171l195 -194v-70h-70l-239 243v-243h-100v750z" />
    <glyph glyph-name="l" unicode="l" horiz-adv-x="248" 
d="M74 750h100v-750h-100v750z" />
    <glyph glyph-name="m" unicode="m" horiz-adv-x="843" 
d="M74 500l90.0039 -0.00292969l7 -64c5.33301 8.66699 12 17.334 20 26.001s17.5 16.5 28.5 23.5s23.5 12.833 37.5 17.5s29.667 7 47 7c37.333 0 67.666 -7.33301 90.999 -22s41.666 -34.667 54.999 -60c6 10 13.667 19.833 23 29.5s20.166 18.334 32.499 26.001
s26.666 14 42.999 19s34.833 7.5 55.5 7.5c30.667 0 56.834 -5.33301 78.501 -16s39.167 -25.167 52.5 -43.5s23.166 -39.666 29.499 -63.999s9.5 -50.166 9.5 -77.499v-309h-100v303c0 36.667 -7 66.334 -21 89.001s-38 34 -72 34c-20 0 -36.833 -3.5 -50.5 -10.5
s-24.667 -16 -33 -27s-14.333 -23.333 -18 -37s-5.5 -27.167 -5.5 -40.5v-311h-100v305c0 36 -7 65.167 -21 87.5s-38 33.5 -72 33.5c-20 0 -36.833 -3.83301 -50.5 -11.5s-24.667 -17.834 -33 -30.501s-14.333 -26.834 -18 -42.501s-5.5 -31.5 -5.5 -47.5v-294h-100v500z
" />
    <glyph glyph-name="n" unicode="n" horiz-adv-x="583" 
d="M74 500l90.002 -0.000976562l7 -67c6 8.66699 13.667 17.5 23 26.5s20.166 17.333 32.499 25s26.666 13.834 42.999 18.501s34.5 7 54.5 7c34.667 0 64 -5.5 88 -16.5s43.5 -26.167 58.5 -45.5s26 -41.666 33 -66.999s10.5 -52.666 10.5 -81.999v-299h-100v293
c0 40 -8.66699 72.167 -26 96.5s-46.333 36.5 -87 36.5c-24 0 -44.167 -3.83301 -60.5 -11.5s-29.333 -17.834 -39 -30.501s-16.667 -26.834 -21 -42.501s-6.5 -31.5 -6.5 -47.5v-294h-100v500z" />
    <glyph glyph-name="o" unicode="o" horiz-adv-x="594" 
d="M297 -10c-40 0 -75.667 6.83301 -107 20.5s-58 32.334 -80 56.001s-38.667 51.334 -50 83.001s-17 65.5 -17 101.5s5.66699 69.667 17 101s28 58.666 50 81.999s48.667 41.833 80 55.5s67 20.5 107 20.5s75.667 -6.83301 107 -20.5s57.833 -32.167 79.5 -55.5
s38.334 -50.666 50.001 -81.999s17.5 -65 17.5 -101s-5.83301 -69.833 -17.5 -101.5s-28.334 -59.334 -50.001 -83.001s-48.167 -42.334 -79.5 -56.001s-67 -20.5 -107 -20.5zM297 75c26 0 48.667 4.66699 68 14s35.333 22 48 38s22.167 34.667 28.5 56s9.5 44 9.5 68
s-3.16699 46.5 -9.5 67.5s-15.833 39.333 -28.5 55s-28.667 28.167 -48 37.5s-42 14 -68 14s-48.667 -4.66699 -68 -14s-35.333 -21.833 -48 -37.5s-22.167 -34 -28.5 -55s-9.5 -43.5 -9.5 -67.5s3.16699 -46.667 9.5 -68s15.833 -40 28.5 -56s28.667 -28.667 48 -38
s42 -14 68 -14z" />
    <glyph glyph-name="p" unicode="p" horiz-adv-x="626" 
d="M74 500l90.001 0.000976562l9 -79c19.333 28 43.666 49.833 72.999 65.5s63.333 23.5 102 23.5c36.667 0 69.5 -6.83301 98.5 -20.5s53.5 -32.167 73.5 -55.5s35.333 -50.666 46 -81.999s16 -65 16 -101s-5.33301 -69.833 -16 -101.5s-26 -59.334 -46 -83.001
s-44.5 -42.334 -73.5 -56.001s-61.833 -20.5 -98.5 -20.5c-38.667 0 -72.5 7.83301 -101.5 23.5s-53.167 37.167 -72.5 64.5v-328h-100v750zM328.001 75.001c26 0 48.667 4.66699 68 14s35.333 22 48 38s22.167 34.667 28.5 56s9.5 44 9.5 68s-3.16699 46.5 -9.5 67.5
s-15.833 39.5 -28.5 55.5s-28.667 28.5 -48 37.5s-42 13.5 -68 13.5c-24 0 -45.5 -4.5 -64.5 -13.5s-35.167 -21.5 -48.5 -37.5s-23.5 -34.5 -30.5 -55.5s-10.5 -43.5 -10.5 -67.5s3.5 -46.667 10.5 -68s17.167 -40 30.5 -56s29.5 -28.667 48.5 -38s40.5 -14 64.5 -14z" />
    <glyph glyph-name="q" unicode="q" horiz-adv-x="625" 
d="M452 78c-19.333 -27.333 -43.5 -48.834 -72.5 -64.501s-62.833 -23.5 -101.5 -23.5c-36.667 0 -69.5 6.83301 -98.5 20.5s-53.5 32.334 -73.5 56.001s-35.333 51.334 -46 83.001s-16 65.5 -16 101.5s5.33301 69.667 16 101s26 58.666 46 81.999s44.5 41.833 73.5 55.5
s61.833 20.5 98.5 20.5c38.667 0 72.5 -7.83301 101.5 -23.5s53.167 -37.167 72.5 -64.5l10 78h90v-750h-100v328zM298 74.999c24 0 45.5 4.66699 64.5 14s35.167 22 48.5 38s23.5 34.667 30.5 56s10.5 44 10.5 68s-3.5 46.5 -10.5 67.5s-17.167 39.5 -30.5 55.5
s-29.5 28.5 -48.5 37.5s-40.5 13.5 -64.5 13.5c-26 0 -48.667 -4.5 -68 -13.5s-35.333 -21.5 -48 -37.5s-22.167 -34.5 -28.5 -55.5s-9.5 -43.5 -9.5 -67.5s3.16699 -46.667 9.5 -68s15.833 -40 28.5 -56s28.667 -28.667 48 -38s42 -14 68 -14z" />
    <glyph glyph-name="r" unicode="r" horiz-adv-x="448" 
d="M74 500l90.001 0.00195312l7 -66c13.333 22.667 31.666 41 54.999 55s52.333 21 87 21c36.667 0 65.167 -8 85.5 -24s33.166 -34.333 38.499 -55v-65h-65l-3.5 9.5c-2.33301 6.33301 -6.66602 13.166 -12.999 20.499s-15.333 14.166 -27 20.499s-27.167 9.5 -46.5 9.5
c-36 0 -63 -12.833 -81 -38.5s-27 -58.167 -27 -97.5v-290h-100v500z" />
    <glyph glyph-name="s" unicode="s" horiz-adv-x="474" 
d="M245 -10c-39.333 0 -71.834 4.50195 -97.501 13.502s-46.167 19.167 -61.5 30.5c-18 12.667 -31.667 27.334 -41 44.001v65h65c7.33301 -12.667 17 -24 29 -34c11.333 -9.33301 25.333 -17.333 42 -24s37.667 -10 63 -10c36 0 60.833 5.66699 74.5 17s20.5 26 20.5 44
c0 12 -2.83301 21.667 -8.5 29s-13.334 13.5 -23.001 18.5s-21 9.16699 -34 12.5s-26.833 6.66602 -41.5 9.99902l-55 12c-16 3.33301 -31.333 8.5 -46 15.5s-27.667 16 -39 27s-20.333 24.667 -27 41s-10 35.5 -10 57.5c0 19.333 3.83301 38.166 11.5 56.499
s19 34.5 34 48.5s33.5 25.167 55.5 33.5s47.667 12.5 77 12.5c26.667 0 49.834 -2.33301 69.501 -7s36.5 -10.834 50.5 -18.501s25.333 -16.334 34 -26.001s15.667 -19.167 21 -28.5v-65h-65c-5.33301 11.333 -12.666 21.333 -21.999 30c-8.66699 8 -20 15 -34 21
s-31.667 9 -53 9c-31.333 0 -53.333 -5.83301 -66 -17.5s-19 -26.167 -19 -43.5c0 -18 8 -32 24 -42s36 -17.667 60 -23l53 -12c18 -4 35.833 -9.16699 53.5 -15.5s33.334 -14.666 47.001 -24.999s24.834 -23.5 33.501 -39.5s13 -35.667 13 -59
c0 -22 -3.83301 -42.667 -11.5 -62s-19.334 -36 -35.001 -50s-35.334 -25.167 -59.001 -33.5s-51.167 -12.5 -82.5 -12.5z" />
    <glyph glyph-name="t" unicode="t" horiz-adv-x="432" 
d="M283 -10c-60.667 0 -105.998 15.002 -135.998 45.002s-45 74.333 -45 133v247h-81v85h85l6 125h90v-125h196v-85h-196v-237c0 -32 6 -57.167 18 -75.5s33.333 -27.5 64 -27.5c16 0 28.667 2.5 38 7.5s16.333 10.5 21 16.5c5.33301 6.66699 8.66602 14.334 9.99902 23.001
h65v-65c-4 -6.66699 -9.33301 -13.834 -16 -21.501s-15.334 -14.834 -26.001 -21.501s-23.667 -12.334 -39 -17.001s-33.333 -7 -54 -7z" />
    <glyph glyph-name="u" unicode="u" horiz-adv-x="583" 
d="M259 -10c-34.667 0 -64 5.49707 -88 16.4971s-43.5 26.167 -58.5 45.5s-26 41.833 -33 67.5s-10.5 52.834 -10.5 81.501v299h100v-293c0 -40 8.66699 -72.167 26 -96.5s46.333 -36.5 87 -36.5c24 0 44.167 3.83301 60.5 11.5s29.333 17.834 39 30.501
s16.667 26.834 21 42.501s6.5 31.5 6.5 47.5v294h100v-500h-90l-7 67c-6 -8.66699 -13.667 -17.5 -23 -26.5s-20.333 -17.167 -33 -24.5s-27 -13.5 -43 -18.5s-34 -7.5 -54 -7.5z" />
    <glyph glyph-name="v" unicode="v" horiz-adv-x="530" 
d="M233 0l-209 430v70h70l174 -365l175 365h65v-65l-210 -435h-65z" />
    <glyph glyph-name="w" unicode="w" horiz-adv-x="755" 
d="M374 346l-118 -346h-65l-164 430v70h70l135 -343l117 343h65l120 -340l131 340h65v-65l-169 -435h-65z" />
    <glyph glyph-name="x" unicode="x" horiz-adv-x="524" 
d="M40 65l163 189l-160 176v70h70l152 -184l151 184h65v-65l-161 -183l164 -182v-70h-70l-156 189l-153 -189h-65v65z" />
    <glyph glyph-name="y" unicode="y" horiz-adv-x="527" 
d="M67 -250v70l151 260l-192 350v70h70l176 -326l173 326h65v-65l-373 -685h-70z" />
    <glyph glyph-name="z" unicode="z" horiz-adv-x="485" 
d="M42 0v75l273 340h-268v85h391v-75l-273 -340h278v-85h-401z" />
    <glyph glyph-name="braceleft" unicode="{" horiz-adv-x="406" 
d="M381 -232c-86 0 -150.833 18.998 -194.5 56.998s-65.5 95.333 -65.5 172v47c0 38 -2.33301 68.167 -7 90.5s-11.5 39.333 -20.5 51s-20.333 19.334 -34 23.001s-29.834 5.5 -48.501 5.5v90c18.667 0 34.834 1.83301 48.501 5.5s25 11.334 34 23.001
s15.833 28.667 20.5 51s7 52.5 7 90.5v47c0 76.667 21.833 134 65.5 172s108.5 57 194.5 57v-90c-51.333 0 -89.166 -10.667 -113.499 -32s-36.5 -57 -36.5 -107v-47c0 -36 -3.33301 -66.667 -10 -92s-15.167 -46.333 -25.5 -63s-21.5 -29.667 -33.5 -39
s-23.333 -16.333 -34 -21c10.667 -4.66699 22 -11.667 34 -21s23.167 -22.333 33.5 -39s18.833 -37.667 25.5 -63s10 -56 10 -92v-47c0 -50 12.167 -85.667 36.5 -107s62.166 -32 113.499 -32v-90z" />
    <glyph glyph-name="bar" unicode="|" horiz-adv-x="282" 
d="M86 -198v965l55 52l55 -52v-965l-56 -52z" />
    <glyph glyph-name="braceright" unicode="}" horiz-adv-x="406" 
d="M25 -142c51.333 0 89.166 10.6689 113.499 32.002s36.5 57 36.5 107v47c0 36 3.33301 66.667 10 92s15.167 46.333 25.5 63s21.5 29.667 33.5 39s23.333 16.333 34 21c-10.667 4.66699 -22 11.667 -34 21s-23.167 22.333 -33.5 39s-18.833 37.667 -25.5 63s-10 56 -10 92
v47c0 50 -12.167 85.667 -36.5 107s-62.166 32 -113.499 32v90c86 0 150.833 -19 194.5 -57s65.5 -95.333 65.5 -172v-47c0 -38 2.33301 -68.167 7 -90.5s11.5 -39.333 20.5 -51s20.333 -19.334 34 -23.001s29.834 -5.5 48.501 -5.5v-90
c-18.667 0 -34.834 -1.83301 -48.501 -5.5s-25 -11.334 -34 -23.001s-15.833 -28.667 -20.5 -51s-7 -52.5 -7 -90.5v-47c0 -76.667 -21.833 -134 -65.5 -172s-108.5 -57 -194.5 -57v90z" />
    <glyph glyph-name="asciitilde" unicode="~" horiz-adv-x="587" 
d="M381 218c-18.667 0 -35.6689 3.99902 -51.002 11.999s-29.5 16.833 -42.5 26.5l-37 26.5c-11.667 8 -23.167 12 -34.5 12c-12.667 0 -22.667 -7.33301 -30 -22s-12 -31.667 -14 -51h-100c2.66699 33.333 8.33398 61 17.001 83s19.5 39.5 32.5 52.5s27.5 22.333 43.5 28
s32 8.5 48 8.5c20 0 37.833 -4 53.5 -12s29.834 -16.833 42.501 -26.5l36 -26.5c11.333 -8 23 -12 35 -12c13.333 0 22.5 7.5 27.5 22.5s10.167 35.167 15.5 60.5h99c-2 -35.333 -7.5 -64.666 -16.5 -87.999s-20 -42 -33 -56s-27.5 -23.833 -43.5 -29.5s-32 -8.5 -48 -8.5z
" />
    <glyph glyph-name="uni00A0" unicode="&#xa0;" horiz-adv-x="254" 
 />
    <glyph glyph-name="exclamdown" unicode="&#xa1;" horiz-adv-x="276" 
d="M93 398h90l10 -538h-110zM78 610h120v-120h-120v120z" />
    <glyph glyph-name="cent" unicode="&#xa2;" horiz-adv-x="537" 
d="M491 82c-7.33301 -16 -18.668 -30.333 -34.001 -43c-14 -12 -32 -22.667 -54 -32s-51 -15 -87 -17l-7 -133h-88l7 141c-30.667 7.33301 -57.334 18.833 -80.001 34.5s-41.667 34.667 -57 57s-26.833 47.166 -34.5 74.499s-11.5 56.333 -11.5 87
c0 32 4.66699 62.5 14 91.5s23 55 41 78s40 42.167 66 57.5s55.667 25.333 89 30l7 141h88l-7 -141c30 -4 54.5 -10.833 73.5 -20.5s33.833 -19.5 44.5 -29.5c12.667 -12 22.334 -25 29.001 -39v-65h-65c-3.33301 10 -8.66602 19.333 -15.999 28s-16.5 16.5 -27.5 23.5
s-25.5 12.5 -43.5 16.5l-18 -346c23.333 2 41.833 6.83301 55.5 14.5s24.5 15.834 32.5 24.501c8.66699 9.33301 14.667 20 18 32h65v-65zM144.998 251c0 -37.333 7.16699 -70.5 21.5 -99.5s36.5 -50.167 66.5 -63.5l17 331c-36 -10 -62.5 -30.5 -79.5 -61.5
s-25.5 -66.5 -25.5 -106.5z" />
    <glyph glyph-name="sterling" unicode="&#xa3;" horiz-adv-x="604" 
d="M552 0h-496.003v100c35.333 15.333 62.833 38.5 82.5 69.5s29.5 69.167 29.5 114.5v13c0 4 -0.333008 8 -1 12h-110v90h86c-8 21.333 -15.333 44.166 -22 68.499s-10 53.5 -10 87.5c0 32.667 5.5 61.667 16.5 87s26.5 46.833 46.5 64.5s43.833 31 71.5 40
s57.834 13.5 90.501 13.5c43.333 0 78.5 -7.33301 105.5 -22s48.167 -30.667 63.5 -48c18.667 -21.333 32.334 -45 41.001 -71v-70h-80c-4 22.667 -11 43 -21 61c-9.33301 16 -22.166 30 -38.499 42s-38.833 18 -67.5 18c-35.333 0 -63.833 -10 -85.5 -30
s-32.5 -48.333 -32.5 -85c0 -18.667 1 -35.167 3 -49.5s4.5 -27.5 7.5 -39.5s6.5 -23.333 10.5 -34s7.66699 -21.667 11 -33h194v-90h-176c0.666992 -4 1 -8 1 -12v-13c0 -41.333 -9 -78.666 -27 -111.999s-43 -57.333 -75 -72h382v-100z" />
    <glyph glyph-name="yen" unicode="&#xa5;" horiz-adv-x="686" 
d="M401 109v-109h-110v109h-180v90h180v70h-180v90h149l-225 316v75h75l244 -342l226 342h70v-70l-218 -321h149v-90h-180v-70h180v-90h-180z" />
    <glyph glyph-name="brokenbar" unicode="&#xa6;" horiz-adv-x="278" 
d="M84 767l55 52l55 -52v-370h-110v370zM84 -198v383h110v-383l-56 -52z" />
    <glyph glyph-name="section" unicode="&#xa7;" horiz-adv-x="584" 
d="M294 -120c-45.333 0 -82.333 5.16602 -111 15.499s-51.667 21.833 -69 34.5c-19.333 15.333 -34.333 32.333 -45 51v70h80c5.33301 -15.333 14.333 -28.666 27 -39.999c10.667 -11.333 25.334 -21 44.001 -29s43.334 -12 74.001 -12c37.333 0 68 7.33301 92 22
s36 37 36 67c0 14 -2 25.833 -6 35.5s-10.833 18.167 -20.5 25.5s-22.667 13.833 -39 19.5s-36.5 11.834 -60.5 18.501l-72 19c-52.667 14 -93.167 33.667 -121.5 59s-42.5 59 -42.5 101c0 51.333 19.333 86.666 58 105.999c-18 14 -32.167 31.667 -42.5 53
s-15.5 48.333 -15.5 81c0 28.667 5.66699 54.334 17 77.001s27.166 41.834 47.499 57.501s44.5 27.667 72.5 36s59 12.5 93 12.5c45.333 0 82.333 -5.16699 111 -15.5s51.667 -21.833 69 -34.5c19.333 -15.333 34.333 -32.333 45 -51v-70h-80
c-5.33301 15.333 -14.333 29 -27 41c-10.667 10.667 -25.334 20 -44.001 28s-43.334 12 -74.001 12c-37.333 0 -68 -7.33301 -92 -22s-36 -37 -36 -67c0 -14 2 -25.833 6 -35.5s10.833 -18.167 20.5 -25.5s22.667 -13.833 39 -19.5s36.5 -11.834 60.5 -18.501l72 -19
c52.667 -14 93.167 -33.667 121.5 -59s42.5 -59 42.5 -101c0 -51.333 -19.333 -86.666 -58 -105.999c18 -14 32.167 -31.667 42.5 -53s15.5 -48.333 15.5 -81c0 -28.667 -5.66699 -54.334 -17 -77.001s-27.166 -41.834 -47.499 -57.501s-44.5 -27.667 -72.5 -36
s-59 -12.5 -93 -12.5zM373 239.999c14 5.33301 24.167 12.5 30.5 21.5s9.5 19.167 9.5 30.5c0 10 -1.83301 19 -5.5 27s-10.167 15.333 -19.5 22s-22 13.167 -38 19.5s-36.667 12.833 -62 19.5l-72 19l-5 1c-14 -5.33301 -24.167 -12.5 -30.5 -21.5s-9.5 -19.167 -9.5 -30.5
c0 -10 1.83301 -19 5.5 -27s10.167 -15.333 19.5 -22s22 -13.167 38 -19.5s36.667 -12.833 62 -19.5l72 -19z" />
    <glyph glyph-name="dieresis" unicode="&#xa8;" horiz-adv-x="440" 
d="M75 720h110v-110h-110v110zM255 720h110v-110h-110v110z" />
    <glyph glyph-name="copyright" unicode="&#xa9;" horiz-adv-x="1028" 
d="M514 -208c-66.667 0 -128.667 12.167 -186 36.5s-107 57.5 -149 99.5s-74.833 91 -98.5 147s-35.5 115.667 -35.5 179s11.833 123 35.5 179s56.5 105 98.5 147s91.667 75.167 149 99.5s119.333 36.5 186 36.5c67.333 0 129.5 -12.167 186.5 -36.5
s106.5 -57.5 148.5 -99.5s74.833 -91 98.5 -147s35.5 -115.667 35.5 -179s-11.833 -123 -35.5 -179s-56.5 -105 -98.5 -147s-91.5 -75.167 -148.5 -99.5s-119.167 -36.5 -186.5 -36.5zM514 -118c52.667 0 101.5 9.83301 146.5 29.5s84 46.334 117 80.001
s58.833 73.167 77.5 118.5s28 93.333 28 144c0 51.333 -9.33301 99.5 -28 144.5s-44.5 84.333 -77.5 118s-72 60.334 -117 80.001s-93.833 29.5 -146.5 29.5s-101.5 -9.83301 -146.5 -29.5s-84 -46.334 -117 -80.001s-58.833 -73 -77.5 -118s-28 -93.167 -28 -144.5
c0 -50.667 9.33301 -98.667 28 -144s44.5 -84.833 77.5 -118.5s72 -60.334 117 -80.001s93.833 -29.5 146.5 -29.5zM519 -10c-42.667 0 -79.835 6.8291 -111.502 20.4961s-58 32.334 -79 56.001s-36.833 51.334 -47.5 83.001s-16 65.5 -16 101.5s5.66699 69.667 17 101
s28 58.833 50 82.5s48.667 42.334 80 56.001s67 20.5 107 20.5c39.333 0 71.333 -4.83301 96 -14.5s44 -20.167 58 -31.5c16.667 -13.333 29 -28.666 37 -45.999v-65h-65c-4.66699 13.333 -12.334 25.333 -23.001 36c-10 10 -23 18.5 -39 25.5s-37.333 10.5 -64 10.5
c-26 0 -48.667 -4.66699 -68 -14s-35.333 -21.833 -48 -37.5s-22.167 -34.167 -28.5 -55.5s-9.5 -44 -9.5 -68s3.16699 -46.667 9.5 -68s15.833 -40 28.5 -56s28.667 -28.667 48 -38s42 -14 68 -14c28 0 50.333 3.66699 67 11s29.334 15.666 38.001 24.999
c10.667 10.667 18 22.667 22 36h65v-65c-8 -17.333 -20.333 -32.666 -37 -45.999c-15.333 -12.667 -35.166 -23.5 -59.499 -32.5s-56.166 -13.5 -95.499 -13.5z" />
    <glyph glyph-name="ordfeminine" unicode="&#xaa;" horiz-adv-x="483" 
d="M196 304c-24.667 0 -46.333 3.5 -65 10.5s-34.167 16.833 -46.5 29.5s-21.666 27.334 -27.999 44.001s-9.5 34.334 -9.5 53.001s3.33301 36.167 10 52.5s17.167 30.666 31.5 42.999s32.666 22.166 54.999 29.499s49.5 11 81.5 11c14 0 26.667 -0.666992 38 -2
s21.333 -2.66602 30 -3.99902c10 -2 19 -4.33301 27 -7v23c0 33.333 -7.66699 57.5 -23 72.5s-37.666 22.5 -66.999 22.5c-18.667 0 -34 -2.83301 -46 -8.5s-21.333 -11.834 -28 -18.501c-8.66699 -8 -15.334 -17 -20.001 -27h-63v63c9.33301 13.333 21.333 25.333 36 36
c14 9.33301 30.833 17.5 50.5 24.5s44.5 10.5 74.5 10.5c119.333 0 179 -58 179 -174v-275h-75l-11 63c-5.33301 -8 -11.833 -16.167 -19.5 -24.5s-16.667 -16 -27 -23s-22.5 -12.833 -36.5 -17.5s-30 -7 -48 -7zM210.001 380c18 0 33.8301 2.66504 47.4971 7.99805
s25.167 12.333 34.5 21s16.333 18.334 21 29.001s7 21.334 7 32.001v23c-7.33301 2 -15.666 4 -24.999 6c-9.33301 1.33301 -19.666 2.66602 -30.999 3.99902s-24.333 2 -39 2c-58 0 -87 -21.667 -87 -65c0 -17.333 6.33301 -31.666 19 -42.999s30.334 -17 53.001 -17z" />
    <glyph glyph-name="guillemotleft" unicode="&#xab;" horiz-adv-x="580" 
d="M226 60l-191 210l191 210h65v-65l-136 -145l136 -145v-65h-65zM456 60l-191 210l191 210h65v-65l-136 -145l136 -145v-65h-65z" />
    <glyph glyph-name="uni00AD" unicode="&#xad;" horiz-adv-x="402" 
d="M66 365h270v-85h-270v85z" />
    <glyph glyph-name="registered" unicode="&#xae;" horiz-adv-x="700" 
d="M350 148c-40.667 0 -79.167 8 -115.5 24s-68 37.667 -95 65s-48.333 59.666 -64 96.999s-23.5 77.333 -23.5 120s7.83301 82.667 23.5 120s37 69.666 64 96.999s58.667 49 95 65s74.833 24 115.5 24s79.167 -8 115.5 -24s68 -37.667 95 -65s48.333 -59.666 64 -96.999
s23.5 -77.333 23.5 -120s-7.83301 -82.667 -23.5 -120s-37 -69.666 -64 -96.999s-58.667 -49 -95 -65s-74.833 -24 -115.5 -24zM350 207c34 0 65.167 6.5 93.5 19.5s52.833 30.667 73.5 53s36.834 48.5 48.501 78.5s17.5 62 17.5 96s-5.83301 66 -17.5 96
s-27.834 56.167 -48.501 78.5s-45.167 40 -73.5 53s-59.5 19.5 -93.5 19.5s-65.167 -6.5 -93.5 -19.5s-52.833 -30.667 -73.5 -53s-36.834 -48.5 -48.501 -78.5s-17.5 -62 -17.5 -96s5.83301 -66 17.5 -96s27.834 -56.167 48.501 -78.5s45.167 -40 73.5 -53
s59.5 -19.5 93.5 -19.5zM308 300h-65.999v313h103c35.333 0 62.666 -8.5 81.999 -25.5s29 -38.167 29 -63.5c0 -21.333 -5 -39 -15 -53s-24 -24.667 -42 -32l80 -98v-41h-41l-101 125h-29v-125zM338.001 475c16 0 28.667 4.16797 38 12.501s14 19.166 14 32.499
c0 12.667 -4.5 23 -13.5 31s-21.833 12 -38.5 12h-30v-88h30z" />
    <glyph glyph-name="macron" unicode="&#xaf;" horiz-adv-x="400" 
d="M75 710h250v-90h-250v90z" />
    <glyph glyph-name="degree" unicode="&#xb0;" horiz-adv-x="450" 
d="M225 402c-26.667 0 -51.167 4.66699 -73.5 14s-41.666 22.166 -57.999 38.499s-29.166 35.333 -38.499 57s-14 44.834 -14 69.501s4.66699 47.834 14 69.501s22.166 40.667 38.499 57s35.666 29.166 57.999 38.499s46.833 14 73.5 14s51.167 -4.66699 73.5 -14
s41.666 -22.166 57.999 -38.499s29.166 -35.333 38.499 -57s14 -44.834 14 -69.501s-4.66699 -47.834 -14 -69.501s-22.166 -40.667 -38.499 -57s-35.666 -29.166 -57.999 -38.499s-46.833 -14 -73.5 -14zM225 487c26.667 0 47.667 9.16699 63 27.5s23 40.5 23 66.5
c0 25.333 -7.66699 47.333 -23 66s-36.333 28 -63 28s-47.667 -9.33301 -63 -28s-23 -40.667 -23 -66c0 -26 7.66699 -48.167 23 -66.5s36.333 -27.5 63 -27.5z" />
    <glyph glyph-name="plusminus" unicode="&#xb1;" horiz-adv-x="586" 
d="M338 375v-170h-91v170h-176v85h176v169h91v-169h177v-85h-177zM71 130h444v-85h-444v85z" />
    <glyph glyph-name="acute" unicode="&#xb4;" horiz-adv-x="332" 
d="M75 670l92 80h90v-60l-92 -80h-90v60z" />
    <glyph glyph-name="paragraph" unicode="&#xb6;" horiz-adv-x="644" 
d="M261 367h-20.001c-30.667 0 -58.667 4.33301 -84 13s-47.166 21 -65.499 37s-32.5 35.833 -42.5 59.5s-15 50.5 -15 80.5c0 28 4.33301 53.833 13 77.5s22.167 44 40.5 61s41.5 30.333 69.5 40s61 14.5 99 14.5h275v-846h-90v756h-90v-756h-90v463z" />
    <glyph glyph-name="periodcentered" unicode="&#xb7;" horiz-adv-x="236" 
d="M66 360h104v-102h-104v102z" />
    <glyph glyph-name="cedilla" unicode="&#xb8;" horiz-adv-x="500" 
d="M179 -144c13.333 0 26.332 1.99902 38.999 5.99902s19 13.667 19 29c0 14.667 -6.16699 24.334 -18.5 29.001s-24.166 7 -35.499 7v73h80v-40c23.333 -5.33301 39.833 -15.5 49.5 -30.5s14.5 -31.5 14.5 -49.5c0 -20 -4 -36 -12 -48s-17 -21.667 -27 -29
c-11.333 -8 -24.333 -13.667 -39 -17h-70v70z" />
    <glyph glyph-name="ordmasculine" unicode="&#xba;" horiz-adv-x="531" 
d="M266 303c-35.333 0 -66.833 6 -94.5 18s-51.167 28.5 -70.5 49.5s-34 45.5 -44 73.5s-15 57.667 -15 89s5 60.833 15 88.5s24.667 51.834 44 72.501s42.833 37 70.5 49s59.167 18 94.5 18c34.667 0 65.834 -6 93.501 -18s51 -28.333 70 -49s33.667 -44.834 44 -72.501
s15.5 -57.167 15.5 -88.5s-5.16699 -61 -15.5 -89s-25 -52.5 -44 -73.5s-42.333 -37.5 -70 -49.5s-58.834 -18 -93.501 -18zM266 383c23.333 0 43.166 3.83301 59.499 11.5s29.666 18.167 39.999 31.5s18 29.166 23 47.499s7.5 38.166 7.5 59.499c0 20.667 -2.5 40 -7.5 58
s-12.667 33.667 -23 47s-23.666 23.833 -39.999 31.5s-36.166 11.5 -59.499 11.5s-43.333 -3.83301 -60 -11.5s-30.167 -18.167 -40.5 -31.5s-18 -29 -23 -47s-7.5 -37.333 -7.5 -58c0 -21.333 2.5 -41.166 7.5 -59.499s12.667 -34.166 23 -47.499
s23.833 -23.833 40.5 -31.5s36.667 -11.5 60 -11.5z" />
    <glyph glyph-name="guillemotright" unicode="&#xbb;" horiz-adv-x="580" 
d="M59 60v65l136 145l-136 145v65h65l191 -210l-191 -210h-65zM289 60v65l136 145l-136 145v65h65l191 -210l-191 -210h-65z" />
    <glyph glyph-name="onequarter" unicode="&#xbc;" horiz-adv-x="893" 
d="M604 790h100l-469 -830h-100zM130 300v356l-46 -39h-50v50l104 83h82v-450h-90zM795 102v-102h-90v102h-212v46l191 302h111v-272h60v-76h-60zM705 346l-107 -168h107v168z" />
    <glyph glyph-name="onehalf" unicode="&#xbd;" horiz-adv-x="927" 
d="M604 790h100l-469 -830h-100zM130 656l-46 -39h-50v50l104 83h82v-450h-90v356zM584 0l0.00195312 65l132 127c26.667 25.333 45.167 47.5 55.5 66.5s15.5 39.167 15.5 60.5c0 20 -5.5 35.5 -16.5 46.5s-26.5 16.5 -46.5 16.5c-17.333 0 -30.833 -3.33301 -40.5 -10
s-16.834 -13.667 -21.501 -21c-6 -9.33301 -9.66699 -20 -11 -32h-60v60c6 14.667 15 27.667 27 39c11.333 10 25.666 18.833 42.999 26.5s40.333 11.5 69 11.5c42 0 76.167 -11.333 102.5 -34s39.5 -53 39.5 -91c0 -32 -7 -61.333 -21 -88s-38 -56 -72 -88l-78 -75h184v-80
h-301z" />
    <glyph glyph-name="threequarters" unicode="&#xbe;" horiz-adv-x="977" 
d="M691 790h100l-469 -830h-100zM201 296c-32.667 0 -59.3379 4.33105 -80.0049 12.998s-36.667 18.334 -48 29.001c-13.333 12 -23.333 25.667 -30 41v60h60c2.66699 -12.667 7.66699 -24 15 -34c6.66699 -9.33301 15.834 -17.333 27.501 -24s27.834 -10 48.501 -10
c25.333 0 43.833 6 55.5 18s17.5 26.667 17.5 44c0 8.66699 -1.16699 16.834 -3.5 24.501s-6.66602 14.5 -12.999 20.5s-15.166 10.667 -26.499 14s-25.666 5 -42.999 5h-47v74h54c21.333 0 36.5 5.83301 45.5 17.5s13.5 25.5 13.5 41.5c0 15.333 -5.5 27.833 -16.5 37.5
s-27.167 14.5 -48.5 14.5c-17.333 0 -30.666 -2.83301 -39.999 -8.5s-16.333 -11.834 -21 -18.501c-6 -8.66699 -9.66699 -18 -11 -28h-60v60c6.66699 12.667 16.667 24.334 30 35.001c11.333 9.33301 26.166 17.333 44.499 24s42.166 10 71.499 10
c18 0 35.333 -2.16699 52 -6.5s31.334 -11 44.001 -20s22.667 -20.833 30 -35.5s11 -32.667 11 -54c0 -26.667 -6 -48 -18 -64s-29 -28.333 -51 -37c29.333 -6 51.5 -18.333 66.5 -37s22.5 -42.667 22.5 -72c0 -40 -13.833 -72.333 -41.5 -97s-64.5 -37 -110.5 -37z
M881.996 101.998v-102h-90v102h-212v46l191 302h111v-272h60v-76h-60zM791.996 345.998l-107 -168h107v168z" />
    <glyph glyph-name="questiondown" unicode="&#xbf;" horiz-adv-x="513" 
d="M334 398c6 -14.667 8.99414 -29.6689 8.99414 -45.002c0 -22 -4.66699 -41 -14 -57s-21.166 -30.5 -35.499 -43.5s-29.666 -25.5 -45.999 -37.5s-31.666 -25.5 -45.999 -40.5s-26.166 -32.333 -35.499 -52s-14 -43.5 -14 -71.5c0 -33.333 10.833 -60.166 32.5 -80.499
s50.167 -30.5 85.5 -30.5c28.667 0 51.334 6.33301 68.001 19s29.334 26.667 38.001 42c10 17.333 17 37.333 21 60h80v-70c-8.66699 -26 -22.334 -49.667 -41.001 -71c-16 -18.667 -37.5 -35 -64.5 -49s-61.833 -21 -104.5 -21c-32.667 0 -62.834 4.66699 -90.501 14
s-51.5 22.833 -71.5 40.5s-35.5 38.834 -46.5 63.501s-16.5 52.334 -16.5 83.001c0 34 4.83301 62.667 14.5 86s21.834 43.5 36.501 60.5s30.5 31.667 47.5 44l47.5 35.5c14.667 11.333 26.834 23.166 36.501 35.499s14.5 26.833 14.5 43.5c0 14.667 -2.66699 28.667 -8 42
h103zM335.994 489.998h-120v120h120v-120z" />
    <glyph glyph-name="Agrave" unicode="&#xc0;" horiz-adv-x="681" 
d="M17 0v70l281 680h85l279 -670v-80h-80l-81 200h-324l-80 -200h-80zM339 603l-126 -313h252zM199 885v60h90l92 -80v-60h-90z" />
    <glyph glyph-name="Aacute" unicode="&#xc1;" horiz-adv-x="681" 
d="M17 0v70l281 680h85l279 -670v-80h-80l-81 200h-324l-80 -200h-80zM339 603l-126 -313h252zM295 865l92 80h90v-60l-92 -80h-90v60z" />
    <glyph glyph-name="Acircumflex" unicode="&#xc2;" horiz-adv-x="681" 
d="M17 0v70l281 680h85l279 -670v-80h-80l-81 200h-324l-80 -200h-80zM339 603l-126 -313h252zM340 862l-77 -67h-60v60l92 80h90l92 -80v-60h-60z" />
    <glyph glyph-name="Atilde" unicode="&#xc3;" horiz-adv-x="681" 
d="M17 0v70l281 680h85l279 -670v-80h-80l-81 200h-324l-80 -200h-80zM339 603l-126 -313h252zM401 794c-13.333 0 -25 1.66699 -35 5s-19.167 6.83301 -27.5 10.5l-24 10.5c-7.66699 3.33301 -16.167 5 -25.5 5c-7.33301 0 -14.166 -1.83301 -20.499 -5.5
s-10.833 -10.5 -13.5 -20.5h-70c0 35.333 8.5 62.166 25.5 80.499s40.5 27.5 70.5 27.5c13.333 0 24.666 -1.66699 33.999 -5s17.666 -6.83301 24.999 -10.5l21 -10.5c6.66699 -3.33301 14.334 -5 23.001 -5c7.33301 0 14.333 1.33301 21 4s11 10 13 22h70
c0 -35.333 -7 -62.166 -21 -80.499s-36 -27.5 -66 -27.5z" />
    <glyph glyph-name="Adieresis" unicode="&#xc4;" horiz-adv-x="681" 
d="M17 0v70l281 680h85l279 -670v-80h-80l-81 200h-324l-80 -200h-80zM339 603l-126 -313h252zM197 915h110v-110h-110v110zM377 915h110v-110h-110v110z" />
    <glyph glyph-name="Aring" unicode="&#xc5;" horiz-adv-x="681" 
d="M17 0v70l281 680h85l279 -670v-80h-80l-81 200h-324l-80 -200h-80zM339 603l-126 -313h252zM338 785c-28 0 -51.333 8.66699 -70 26s-28 39.666 -28 66.999c0 26.667 9.33301 48.834 28 66.501s42 26.5 70 26.5s51.333 -8.83301 70 -26.5s28 -39.834 28 -66.501
c0 -27.333 -9.33301 -49.666 -28 -66.999s-42 -26 -70 -26zM338 848c8 0 15 2.66699 21 8s9 12.666 9 21.999s-3 16.666 -9 21.999s-13 8 -21 8s-15 -2.66699 -21 -8s-9 -12.666 -9 -21.999s3 -16.666 9 -21.999s13 -8 21 -8z" />
    <glyph glyph-name="AE" unicode="&#xc6;" horiz-adv-x="921" 
d="M407 750h460v-90h-321v-230h291v-90h-291v-250h321v-90h-431v200h-237l-113 -200h-80v70zM436 290v328l-186 -328h186z" />
    <glyph glyph-name="Ccedilla" unicode="&#xc7;" horiz-adv-x="735" 
d="M515 -120c0 -20 -3.99707 -35.9951 -11.9971 -47.9951s-17 -21.667 -27 -29c-11.333 -8 -24.333 -13.667 -39 -17h-70v70c13.333 0 26.333 2 39 6s19 13.667 19 29c0 14.667 -6.16699 24.334 -18.5 29.001s-24.166 7 -35.499 7v65
c-53.333 5.33301 -100.166 19.166 -140.499 41.499s-74 50.666 -101 84.999s-47.333 73.666 -61 117.999s-20.5 91.5 -20.5 141.5c0 54 8.83301 104.167 26.5 150.5s42.5 86.666 74.5 120.999s70.667 61.333 116 81s96 29.5 152 29.5c54 0 98.667 -6.33301 134 -19
s63.666 -26.334 84.999 -41.001c24 -18 42.667 -38.333 56 -61v-70h-80c-8 18.667 -20.333 35.667 -37 51c-14.667 13.333 -34.167 25 -58.5 35s-56.5 15 -96.5 15c-41.333 0 -78.166 -7.5 -110.499 -22.5s-59.833 -35.5 -82.5 -61.5s-39.834 -56.833 -51.501 -92.5
s-17.5 -74.167 -17.5 -115.5c0 -40.667 5.83301 -79.167 17.5 -115.5s28.834 -67.833 51.501 -94.5s50.167 -47.834 82.5 -63.501s69.166 -23.5 110.499 -23.5c38.667 0 70.667 5.5 96 16.5s45.666 23.167 60.999 36.5c17.333 15.333 30.666 32.666 39.999 51.999h80v-70
c-13.333 -21.333 -31 -40.666 -53 -57.999c-20.667 -16 -46.334 -30.333 -77.001 -43s-69.334 -20.667 -116.001 -24v-31c23.333 -5.33301 39.833 -15.5 49.5 -30.5s14.5 -31.5 14.5 -49.5z" />
    <glyph glyph-name="Egrave" unicode="&#xc8;" horiz-adv-x="580" 
d="M95 750h431v-90h-321v-230h291v-90h-291v-250h321v-90h-431v750zM198 885v60h90l92 -80v-60h-90z" />
    <glyph glyph-name="Eacute" unicode="&#xc9;" horiz-adv-x="580" 
d="M95 750h431v-90h-321v-230h291v-90h-291v-250h321v-90h-431v750zM272 865l92 80h90v-60l-92 -80h-90v60z" />
    <glyph glyph-name="Ecircumflex" unicode="&#xca;" horiz-adv-x="580" 
d="M95 750h431v-90h-321v-230h291v-90h-291v-250h321v-90h-431v750zM309 862l-77 -67h-60v60l92 80h90l92 -80v-60h-60z" />
    <glyph glyph-name="Edieresis" unicode="&#xcb;" horiz-adv-x="580" 
d="M95 750h431v-90h-321v-230h291v-90h-291v-250h321v-90h-431v750zM167 915h110v-110h-110v110zM347 915h110v-110h-110v110z" />
    <glyph glyph-name="Igrave" unicode="&#xcc;" horiz-adv-x="300" 
d="M12 885v60h90l92 -80v-60h-90zM95 750h110v-750h-110v750z" />
    <glyph glyph-name="Iacute" unicode="&#xcd;" horiz-adv-x="300" 
d="M104 865l92 80h90v-60l-92 -80h-90v60zM95 750h110v-750h-110v750z" />
    <glyph glyph-name="Icircumflex" unicode="&#xce;" horiz-adv-x="300" 
d="M150 862l-77 -67h-60v60l92 80h90l92 -80v-60h-60zM95 750h110v-750h-110v750z" />
    <glyph glyph-name="Idieresis" unicode="&#xcf;" horiz-adv-x="300" 
d="M5 915h110v-110h-110v110zM185 915h110v-110h-110v110zM95 750h110v-750h-110v750z" />
    <glyph glyph-name="Eth" unicode="&#xd0;" horiz-adv-x="764" 
d="M717 378c0 -52 -8.83301 -100.999 -26.5 -146.999s-42.834 -86 -75.501 -120s-72.334 -61 -119.001 -81s-99.334 -30 -158.001 -30h-233v340h-90v90h90v320h233c58.667 0 111.334 -9.83301 158.001 -29.5s86.334 -46.334 119.001 -80.001s57.834 -73 75.501 -118
s26.5 -93.167 26.5 -144.5zM335 90.001c41.333 0 78.833 7.50098 112.5 22.501s62.334 35.5 86.001 61.5s41.834 56.5 54.501 91.5s19 72.5 19 112.5c0 38.667 -6.33301 75.167 -19 109.5s-30.834 64.166 -54.501 89.499s-52.334 45.5 -86.001 60.5
s-71.167 22.5 -112.5 22.5h-120v-230h90v-90h-90v-250h120z" />
    <glyph glyph-name="Ntilde" unicode="&#xd1;" horiz-adv-x="770" 
d="M95 750h100l380 -573v573h100v-750h-100l-380 565v-565h-100v750zM466 794c-13.333 0 -25 1.66699 -35 5s-19.167 6.83301 -27.5 10.5l-24 10.5c-7.66699 3.33301 -16.167 5 -25.5 5c-7.33301 0 -14.166 -1.83301 -20.499 -5.5s-10.833 -10.5 -13.5 -20.5h-70
c0 35.333 8.5 62.166 25.5 80.499s40.5 27.5 70.5 27.5c13.333 0 24.666 -1.66699 33.999 -5s17.666 -6.83301 24.999 -10.5l21 -10.5c6.66699 -3.33301 14.334 -5 23.001 -5c7.33301 0 14.333 1.33301 21 4s11 10 13 22h70c0 -35.333 -7 -62.166 -21 -80.499
s-36 -27.5 -66 -27.5z" />
    <glyph glyph-name="Ograve" unicode="&#xd2;" horiz-adv-x="840" 
d="M420 -10c-56 0 -106.833 9.83301 -152.5 29.5s-84.667 46.667 -117 81s-57.5 75.166 -75.5 122.499s-27 99 -27 155c0 55.333 9 106.333 27 153s43.167 87 75.5 121s71.333 60.5 117 79.5s96.5 28.5 152.5 28.5s106.833 -9.5 152.5 -28.5s84.667 -45.5 117 -79.5
s57.5 -74.333 75.5 -121s27 -97.667 27 -153c0 -56 -9 -107.667 -27 -155s-43.167 -88.166 -75.5 -122.499s-71.333 -61.333 -117 -81s-96.5 -29.5 -152.5 -29.5zM420 80c40 0 76.167 7.33301 108.5 22s59.833 35.167 82.5 61.5s40.167 57.833 52.5 94.5
s18.5 76.667 18.5 120c0 42.667 -6.16699 81.834 -18.5 117.501s-29.833 66.5 -52.5 92.5s-50.167 46.167 -82.5 60.5s-68.5 21.5 -108.5 21.5s-76.167 -7.16699 -108.5 -21.5s-59.833 -34.5 -82.5 -60.5s-40.167 -56.833 -52.5 -92.5s-18.5 -74.834 -18.5 -117.501
c0 -43.333 6.16699 -83.333 18.5 -120s29.833 -68.167 52.5 -94.5s50.167 -46.833 82.5 -61.5s68.5 -22 108.5 -22zM277 885v60h90l92 -80v-60h-90z" />
    <glyph glyph-name="Oacute" unicode="&#xd3;" horiz-adv-x="840" 
d="M420 -10c-56 0 -106.833 9.83301 -152.5 29.5s-84.667 46.667 -117 81s-57.5 75.166 -75.5 122.499s-27 99 -27 155c0 55.333 9 106.333 27 153s43.167 87 75.5 121s71.333 60.5 117 79.5s96.5 28.5 152.5 28.5s106.833 -9.5 152.5 -28.5s84.667 -45.5 117 -79.5
s57.5 -74.333 75.5 -121s27 -97.667 27 -153c0 -56 -9 -107.667 -27 -155s-43.167 -88.166 -75.5 -122.499s-71.333 -61.333 -117 -81s-96.5 -29.5 -152.5 -29.5zM420 80c40 0 76.167 7.33301 108.5 22s59.833 35.167 82.5 61.5s40.167 57.833 52.5 94.5
s18.5 76.667 18.5 120c0 42.667 -6.16699 81.834 -18.5 117.501s-29.833 66.5 -52.5 92.5s-50.167 46.167 -82.5 60.5s-68.5 21.5 -108.5 21.5s-76.167 -7.16699 -108.5 -21.5s-59.833 -34.5 -82.5 -60.5s-40.167 -56.833 -52.5 -92.5s-18.5 -74.834 -18.5 -117.501
c0 -43.333 6.16699 -83.333 18.5 -120s29.833 -68.167 52.5 -94.5s50.167 -46.833 82.5 -61.5s68.5 -22 108.5 -22zM367 865l92 80h90v-60l-92 -80h-90v60z" />
    <glyph glyph-name="Ocircumflex" unicode="&#xd4;" horiz-adv-x="840" 
d="M420 -10c-56 0 -106.833 9.83301 -152.5 29.5s-84.667 46.667 -117 81s-57.5 75.166 -75.5 122.499s-27 99 -27 155c0 55.333 9 106.333 27 153s43.167 87 75.5 121s71.333 60.5 117 79.5s96.5 28.5 152.5 28.5s106.833 -9.5 152.5 -28.5s84.667 -45.5 117 -79.5
s57.5 -74.333 75.5 -121s27 -97.667 27 -153c0 -56 -9 -107.667 -27 -155s-43.167 -88.166 -75.5 -122.499s-71.333 -61.333 -117 -81s-96.5 -29.5 -152.5 -29.5zM420 80c40 0 76.167 7.33301 108.5 22s59.833 35.167 82.5 61.5s40.167 57.833 52.5 94.5
s18.5 76.667 18.5 120c0 42.667 -6.16699 81.834 -18.5 117.501s-29.833 66.5 -52.5 92.5s-50.167 46.167 -82.5 60.5s-68.5 21.5 -108.5 21.5s-76.167 -7.16699 -108.5 -21.5s-59.833 -34.5 -82.5 -60.5s-40.167 -56.833 -52.5 -92.5s-18.5 -74.834 -18.5 -117.501
c0 -43.333 6.16699 -83.333 18.5 -120s29.833 -68.167 52.5 -94.5s50.167 -46.833 82.5 -61.5s68.5 -22 108.5 -22zM420 862l-77 -67h-60v60l92 80h90l92 -80v-60h-60z" />
    <glyph glyph-name="Otilde" unicode="&#xd5;" horiz-adv-x="840" 
d="M420 -10c-56 0 -106.833 9.83301 -152.5 29.5s-84.667 46.667 -117 81s-57.5 75.166 -75.5 122.499s-27 99 -27 155c0 55.333 9 106.333 27 153s43.167 87 75.5 121s71.333 60.5 117 79.5s96.5 28.5 152.5 28.5s106.833 -9.5 152.5 -28.5s84.667 -45.5 117 -79.5
s57.5 -74.333 75.5 -121s27 -97.667 27 -153c0 -56 -9 -107.667 -27 -155s-43.167 -88.166 -75.5 -122.499s-71.333 -61.333 -117 -81s-96.5 -29.5 -152.5 -29.5zM420 80c40 0 76.167 7.33301 108.5 22s59.833 35.167 82.5 61.5s40.167 57.833 52.5 94.5
s18.5 76.667 18.5 120c0 42.667 -6.16699 81.834 -18.5 117.501s-29.833 66.5 -52.5 92.5s-50.167 46.167 -82.5 60.5s-68.5 21.5 -108.5 21.5s-76.167 -7.16699 -108.5 -21.5s-59.833 -34.5 -82.5 -60.5s-40.167 -56.833 -52.5 -92.5s-18.5 -74.834 -18.5 -117.501
c0 -43.333 6.16699 -83.333 18.5 -120s29.833 -68.167 52.5 -94.5s50.167 -46.833 82.5 -61.5s68.5 -22 108.5 -22zM478 794c-13.333 0 -25 1.66699 -35 5s-19.167 6.83301 -27.5 10.5l-24 10.5c-7.66699 3.33301 -16.167 5 -25.5 5
c-7.33301 0 -14.166 -1.83301 -20.499 -5.5s-10.833 -10.5 -13.5 -20.5h-70c0 35.333 8.5 62.166 25.5 80.499s40.5 27.5 70.5 27.5c13.333 0 24.666 -1.66699 33.999 -5s17.666 -6.83301 24.999 -10.5l21 -10.5c6.66699 -3.33301 14.334 -5 23.001 -5
c7.33301 0 14.333 1.33301 21 4s11 10 13 22h70c0 -35.333 -7 -62.166 -21 -80.499s-36 -27.5 -66 -27.5z" />
    <glyph glyph-name="Odieresis" unicode="&#xd6;" horiz-adv-x="840" 
d="M420 -10c-56 0 -106.833 9.83301 -152.5 29.5s-84.667 46.667 -117 81s-57.5 75.166 -75.5 122.499s-27 99 -27 155c0 55.333 9 106.333 27 153s43.167 87 75.5 121s71.333 60.5 117 79.5s96.5 28.5 152.5 28.5s106.833 -9.5 152.5 -28.5s84.667 -45.5 117 -79.5
s57.5 -74.333 75.5 -121s27 -97.667 27 -153c0 -56 -9 -107.667 -27 -155s-43.167 -88.166 -75.5 -122.499s-71.333 -61.333 -117 -81s-96.5 -29.5 -152.5 -29.5zM420 80c40 0 76.167 7.33301 108.5 22s59.833 35.167 82.5 61.5s40.167 57.833 52.5 94.5
s18.5 76.667 18.5 120c0 42.667 -6.16699 81.834 -18.5 117.501s-29.833 66.5 -52.5 92.5s-50.167 46.167 -82.5 60.5s-68.5 21.5 -108.5 21.5s-76.167 -7.16699 -108.5 -21.5s-59.833 -34.5 -82.5 -60.5s-40.167 -56.833 -52.5 -92.5s-18.5 -74.834 -18.5 -117.501
c0 -43.333 6.16699 -83.333 18.5 -120s29.833 -68.167 52.5 -94.5s50.167 -46.833 82.5 -61.5s68.5 -22 108.5 -22zM272 915h110v-110h-110v110zM452 915h110v-110h-110v110z" />
    <glyph glyph-name="multiply" unicode="&#xd7;" horiz-adv-x="555" 
d="M278 254l-162 -161l-62 63l161 160l-166 165l62 63l167 -166l166 166l62 -63l-166 -165l161 -160l-62 -63z" />
    <glyph glyph-name="Oslash" unicode="&#xd8;" horiz-adv-x="840" 
d="M420 -10c-34.667 0 -67.332 3.83398 -97.999 11.501s-59.334 18.5 -86.001 32.5l-52 -74h-110l89 127c-36.667 35.333 -65 77.666 -85 126.999s-30 104 -30 164c0 55.333 9 106.333 27 153s43.167 87 75.5 121s71.333 60.5 117 79.5s96.5 28.5 152.5 28.5
c35.333 0 68.5 -3.83301 99.5 -11.5s59.833 -18.834 86.5 -33.501l52 75h110l-90 -127c36 -34.667 64 -76.167 84 -124.5s30 -101.833 30 -160.5c0 -56 -9 -107.667 -27 -155s-43.167 -88.166 -75.5 -122.499s-71.333 -61.333 -117 -81s-96.5 -29.5 -152.5 -29.5z
M158.002 378.001c0 -42 5.50195 -80.332 16.502 -114.999s27.167 -65.334 48.5 -92.001l327 466c-18.667 10.667 -38.834 18.834 -60.501 24.501s-44.834 8.5 -69.501 8.5c-40 0 -76.167 -7.16699 -108.5 -21.5s-59.833 -34.5 -82.5 -60.5s-40.167 -56.833 -52.5 -92.5
s-18.5 -74.834 -18.5 -117.501zM420.004 80.002c40 0 76.167 7.33301 108.5 22s59.833 35.167 82.5 61.5s40.167 57.833 52.5 94.5s18.5 76.667 18.5 120c0 40 -5.5 77 -16.5 111s-26.5 63.667 -46.5 89l-328 -466c37.333 -21.333 80.333 -32 129 -32z" />
    <glyph glyph-name="Ugrave" unicode="&#xd9;" horiz-adv-x="754" 
d="M377 -10c-44 0 -83.832 7.33301 -119.499 22s-66.167 34.667 -91.5 60s-44.833 55 -58.5 89s-20.5 70.333 -20.5 109v480h110v-481c0 -26 4 -50.5 12 -73.5s19.833 -43 35.5 -60s34.667 -30.5 57 -40.5s47.5 -15 75.5 -15c30 0 56.667 5 80 15s43.166 23.5 59.499 40.5
s28.833 37 37.5 60s13 47.5 13 73.5v481h100v-480c0 -38.667 -6.83301 -75 -20.5 -109s-33.167 -63.667 -58.5 -89s-55.833 -45.333 -91.5 -60s-75.5 -22 -119.5 -22zM251.001 885v60h90l92 -80v-60h-90z" />
    <glyph glyph-name="Uacute" unicode="&#xda;" horiz-adv-x="754" 
d="M377 -10c-44 0 -83.832 7.33301 -119.499 22s-66.167 34.667 -91.5 60s-44.833 55 -58.5 89s-20.5 70.333 -20.5 109v480h110v-481c0 -26 4 -50.5 12 -73.5s19.833 -43 35.5 -60s34.667 -30.5 57 -40.5s47.5 -15 75.5 -15c30 0 56.667 5 80 15s43.166 23.5 59.499 40.5
s28.833 37 37.5 60s13 47.5 13 73.5v481h100v-480c0 -38.667 -6.83301 -75 -20.5 -109s-33.167 -63.667 -58.5 -89s-55.833 -45.333 -91.5 -60s-75.5 -22 -119.5 -22zM330.001 865l92 80h90v-60l-92 -80h-90v60z" />
    <glyph glyph-name="Ucircumflex" unicode="&#xdb;" horiz-adv-x="754" 
d="M377 -10c-44 0 -83.832 7.33301 -119.499 22s-66.167 34.667 -91.5 60s-44.833 55 -58.5 89s-20.5 70.333 -20.5 109v480h110v-481c0 -26 4 -50.5 12 -73.5s19.833 -43 35.5 -60s34.667 -30.5 57 -40.5s47.5 -15 75.5 -15c30 0 56.667 5 80 15s43.166 23.5 59.499 40.5
s28.833 37 37.5 60s13 47.5 13 73.5v481h100v-480c0 -38.667 -6.83301 -75 -20.5 -109s-33.167 -63.667 -58.5 -89s-55.833 -45.333 -91.5 -60s-75.5 -22 -119.5 -22zM381.001 862l-77 -67h-60v60l92 80h90l92 -80v-60h-60z" />
    <glyph glyph-name="Udieresis" unicode="&#xdc;" horiz-adv-x="754" 
d="M377 -10c-44 0 -83.832 7.33301 -119.499 22s-66.167 34.667 -91.5 60s-44.833 55 -58.5 89s-20.5 70.333 -20.5 109v480h110v-481c0 -26 4 -50.5 12 -73.5s19.833 -43 35.5 -60s34.667 -30.5 57 -40.5s47.5 -15 75.5 -15c30 0 56.667 5 80 15s43.166 23.5 59.499 40.5
s28.833 37 37.5 60s13 47.5 13 73.5v481h100v-480c0 -38.667 -6.83301 -75 -20.5 -109s-33.167 -63.667 -58.5 -89s-55.833 -45.333 -91.5 -60s-75.5 -22 -119.5 -22zM237.001 915h110v-110h-110v110zM417.001 915h110v-110h-110v110z" />
    <glyph glyph-name="Yacute" unicode="&#xdd;" horiz-adv-x="641" 
d="M267 315l-256 360v75h75l244 -342l226 342h70v-70l-249 -366v-314h-110v315zM269 865l92 80h90v-60l-92 -80h-90v60z" />
    <glyph glyph-name="Thorn" unicode="&#xde;" horiz-adv-x="606" 
d="M95 750h110v-100c124.667 -2 217.5 -27.667 278.5 -77s91.5 -115 91.5 -197c0 -81.333 -30.5 -146.5 -91.5 -195.5s-153.833 -74.5 -278.5 -76.5v-104h-110v750zM205 194c93.333 2.66699 160 19.5 200 50.5s60 74.833 60 131.5c0 57.333 -20 101.5 -60 132.5
s-106.667 47.833 -200 50.5v-365z" />
    <glyph glyph-name="germandbls" unicode="&#xdf;" horiz-adv-x="594" 
d="M345 -10c-20.667 0 -36.832 1.00098 -48.499 3.00098s-23.834 4.33301 -36.501 7v82c23.333 -4.66699 47 -7 71 -7c42 0 71.833 10.833 89.5 32.5s26.5 49.5 26.5 83.5c0 37.333 -14.333 69.166 -43 95.499s-76.667 41.833 -144 46.5v90
c50 8.66699 86.5 26.334 109.5 53.001s34.5 58 34.5 94c0 26.667 -9.16699 50 -27.5 70s-48.5 30 -90.5 30c-38 0 -66.167 -11.167 -84.5 -33.5s-27.5 -54.5 -27.5 -96.5v-540h-100v538c0 71.333 19.167 126.166 57.5 164.499s91.5 57.5 159.5 57.5
c67.333 0 120.5 -16.5 159.5 -49.5s58.5 -79.833 58.5 -140.5c0 -40 -11.5 -75.667 -34.5 -107s-53.5 -54.666 -91.5 -69.999c50 -13.333 90.667 -37.333 122 -72s47 -79 47 -133c0 -25.333 -3.66699 -49.833 -11 -73.5s-19.333 -44.834 -36 -63.501s-38 -33.5 -64 -44.5
s-58 -16.5 -96 -16.5z" />
    <glyph glyph-name="agrave" unicode="&#xe0;" horiz-adv-x="523" 
d="M207 -10c-28 0 -52.5 4 -73.5 12s-38.667 19 -53 33s-25 30.5 -32 49.5s-10.5 39.167 -10.5 60.5s3.83301 41 11.5 59s19.5 33.667 35.5 47s36.833 23.833 62.5 31.5s56.5 11.5 92.5 11.5c16 0 30.833 -0.666992 44.5 -2s25.834 -3 36.501 -5c12 -2 23 -4.33301 33 -7v31
c0 38 -8.33301 66.5 -25 85.5s-44.334 28.5 -83.001 28.5c-20.667 0 -38.167 -3.16699 -52.5 -9.5s-26.166 -13.166 -35.499 -20.499c-10 -9.33301 -18.333 -19.666 -25 -30.999h-65v65c10 15.333 23.333 29 40 41c15.333 10.667 34.166 20 56.499 28s50.5 12 84.5 12
c67.333 0 118.333 -16.833 153 -50.5s52 -83.834 52 -150.501v-309h-80l-12 72c-6 -8.66699 -13.667 -17.834 -23 -27.501s-20.333 -18.5 -33 -26.5s-27.167 -14.667 -43.5 -20s-34.833 -8 -55.5 -8zM223 71c20.667 0 39.002 3.33203 55.002 9.99902
s29.667 15.334 41 26.001s20 22.167 26 34.5s9 24.5 9 36.5v26c-9.33301 2.66699 -20 5 -32 7c-10.667 2 -22.834 3.66699 -36.501 5s-28.834 2 -45.501 2c-20 0 -36.667 -2 -50 -6s-24 -9.5 -32 -16.5s-13.667 -14.833 -17 -23.5s-5 -17.667 -5 -27
c0 -49.333 29 -74 87 -74zM127.002 689.999v60h90l92 -80v-60h-90z" />
    <glyph glyph-name="aacute" unicode="&#xe1;" horiz-adv-x="523" 
d="M207 -10c-28 0 -52.5 4 -73.5 12s-38.667 19 -53 33s-25 30.5 -32 49.5s-10.5 39.167 -10.5 60.5s3.83301 41 11.5 59s19.5 33.667 35.5 47s36.833 23.833 62.5 31.5s56.5 11.5 92.5 11.5c16 0 30.833 -0.666992 44.5 -2s25.834 -3 36.501 -5c12 -2 23 -4.33301 33 -7v31
c0 38 -8.33301 66.5 -25 85.5s-44.334 28.5 -83.001 28.5c-20.667 0 -38.167 -3.16699 -52.5 -9.5s-26.166 -13.166 -35.499 -20.499c-10 -9.33301 -18.333 -19.666 -25 -30.999h-65v65c10 15.333 23.333 29 40 41c15.333 10.667 34.166 20 56.499 28s50.5 12 84.5 12
c67.333 0 118.333 -16.833 153 -50.5s52 -83.834 52 -150.501v-309h-80l-12 72c-6 -8.66699 -13.667 -17.834 -23 -27.501s-20.333 -18.5 -33 -26.5s-27.167 -14.667 -43.5 -20s-34.833 -8 -55.5 -8zM223 71c20.667 0 39.002 3.33203 55.002 9.99902
s29.667 15.334 41 26.001s20 22.167 26 34.5s9 24.5 9 36.5v26c-9.33301 2.66699 -20 5 -32 7c-10.667 2 -22.834 3.66699 -36.501 5s-28.834 2 -45.501 2c-20 0 -36.667 -2 -50 -6s-24 -9.5 -32 -16.5s-13.667 -14.833 -17 -23.5s-5 -17.667 -5 -27
c0 -49.333 29 -74 87 -74zM207.002 669.999l92 80h90v-60l-92 -80h-90v60z" />
    <glyph glyph-name="acircumflex" unicode="&#xe2;" horiz-adv-x="523" 
d="M207 -10c-28 0 -52.5 4 -73.5 12s-38.667 19 -53 33s-25 30.5 -32 49.5s-10.5 39.167 -10.5 60.5s3.83301 41 11.5 59s19.5 33.667 35.5 47s36.833 23.833 62.5 31.5s56.5 11.5 92.5 11.5c16 0 30.833 -0.666992 44.5 -2s25.834 -3 36.501 -5c12 -2 23 -4.33301 33 -7v31
c0 38 -8.33301 66.5 -25 85.5s-44.334 28.5 -83.001 28.5c-20.667 0 -38.167 -3.16699 -52.5 -9.5s-26.166 -13.166 -35.499 -20.499c-10 -9.33301 -18.333 -19.666 -25 -30.999h-65v65c10 15.333 23.333 29 40 41c15.333 10.667 34.166 20 56.499 28s50.5 12 84.5 12
c67.333 0 118.333 -16.833 153 -50.5s52 -83.834 52 -150.501v-309h-80l-12 72c-6 -8.66699 -13.667 -17.834 -23 -27.501s-20.333 -18.5 -33 -26.5s-27.167 -14.667 -43.5 -20s-34.833 -8 -55.5 -8zM223 71c20.667 0 39.002 3.33203 55.002 9.99902
s29.667 15.334 41 26.001s20 22.167 26 34.5s9 24.5 9 36.5v26c-9.33301 2.66699 -20 5 -32 7c-10.667 2 -22.834 3.66699 -36.501 5s-28.834 2 -45.501 2c-20 0 -36.667 -2 -50 -6s-24 -9.5 -32 -16.5s-13.667 -14.833 -17 -23.5s-5 -17.667 -5 -27
c0 -49.333 29 -74 87 -74zM261.002 676.999l-77 -67h-60v60l92 80h90l92 -80v-60h-60z" />
    <glyph glyph-name="atilde" unicode="&#xe3;" horiz-adv-x="523" 
d="M207 -10c-28 0 -52.5 4 -73.5 12s-38.667 19 -53 33s-25 30.5 -32 49.5s-10.5 39.167 -10.5 60.5s3.83301 41 11.5 59s19.5 33.667 35.5 47s36.833 23.833 62.5 31.5s56.5 11.5 92.5 11.5c16 0 30.833 -0.666992 44.5 -2s25.834 -3 36.501 -5c12 -2 23 -4.33301 33 -7v31
c0 38 -8.33301 66.5 -25 85.5s-44.334 28.5 -83.001 28.5c-20.667 0 -38.167 -3.16699 -52.5 -9.5s-26.166 -13.166 -35.499 -20.499c-10 -9.33301 -18.333 -19.666 -25 -30.999h-65v65c10 15.333 23.333 29 40 41c15.333 10.667 34.166 20 56.499 28s50.5 12 84.5 12
c67.333 0 118.333 -16.833 153 -50.5s52 -83.834 52 -150.501v-309h-80l-12 72c-6 -8.66699 -13.667 -17.834 -23 -27.501s-20.333 -18.5 -33 -26.5s-27.167 -14.667 -43.5 -20s-34.833 -8 -55.5 -8zM223 71c20.667 0 39.002 3.33203 55.002 9.99902
s29.667 15.334 41 26.001s20 22.167 26 34.5s9 24.5 9 36.5v26c-9.33301 2.66699 -20 5 -32 7c-10.667 2 -22.834 3.66699 -36.501 5s-28.834 2 -45.501 2c-20 0 -36.667 -2 -50 -6s-24 -9.5 -32 -16.5s-13.667 -14.833 -17 -23.5s-5 -17.667 -5 -27
c0 -49.333 29 -74 87 -74zM327.002 608.999c-13.333 0 -25 1.66699 -35 5s-19.167 6.83301 -27.5 10.5l-24 10.5c-7.66699 3.33301 -16.167 5 -25.5 5c-7.33301 0 -14.166 -1.83301 -20.499 -5.5s-10.833 -10.5 -13.5 -20.5h-70c0 35.333 8.5 62.166 25.5 80.499
s40.5 27.5 70.5 27.5c13.333 0 24.666 -1.66699 33.999 -5s17.666 -6.83301 24.999 -10.5l21 -10.5c6.66699 -3.33301 14.334 -5 23.001 -5c7.33301 0 14.333 1.33301 21 4s11 10 13 22h70c0 -35.333 -7 -62.166 -21 -80.499s-36 -27.5 -66 -27.5z" />
    <glyph glyph-name="adieresis" unicode="&#xe4;" horiz-adv-x="523" 
d="M207 -10c-28 0 -52.5 4 -73.5 12s-38.667 19 -53 33s-25 30.5 -32 49.5s-10.5 39.167 -10.5 60.5s3.83301 41 11.5 59s19.5 33.667 35.5 47s36.833 23.833 62.5 31.5s56.5 11.5 92.5 11.5c16 0 30.833 -0.666992 44.5 -2s25.834 -3 36.501 -5c12 -2 23 -4.33301 33 -7v31
c0 38 -8.33301 66.5 -25 85.5s-44.334 28.5 -83.001 28.5c-20.667 0 -38.167 -3.16699 -52.5 -9.5s-26.166 -13.166 -35.499 -20.499c-10 -9.33301 -18.333 -19.666 -25 -30.999h-65v65c10 15.333 23.333 29 40 41c15.333 10.667 34.166 20 56.499 28s50.5 12 84.5 12
c67.333 0 118.333 -16.833 153 -50.5s52 -83.834 52 -150.501v-309h-80l-12 72c-6 -8.66699 -13.667 -17.834 -23 -27.501s-20.333 -18.5 -33 -26.5s-27.167 -14.667 -43.5 -20s-34.833 -8 -55.5 -8zM223 71c20.667 0 39.002 3.33203 55.002 9.99902
s29.667 15.334 41 26.001s20 22.167 26 34.5s9 24.5 9 36.5v26c-9.33301 2.66699 -20 5 -32 7c-10.667 2 -22.834 3.66699 -36.501 5s-28.834 2 -45.501 2c-20 0 -36.667 -2 -50 -6s-24 -9.5 -32 -16.5s-13.667 -14.833 -17 -23.5s-5 -17.667 -5 -27
c0 -49.333 29 -74 87 -74zM118.002 719.999h110v-110h-110v110zM298.002 719.999h110v-110h-110v110z" />
    <glyph glyph-name="aring" unicode="&#xe5;" horiz-adv-x="523" 
d="M207 -10c-28 0 -52.5 4 -73.5 12s-38.667 19 -53 33s-25 30.5 -32 49.5s-10.5 39.167 -10.5 60.5s3.83301 41 11.5 59s19.5 33.667 35.5 47s36.833 23.833 62.5 31.5s56.5 11.5 92.5 11.5c16 0 30.833 -0.666992 44.5 -2s25.834 -3 36.501 -5c12 -2 23 -4.33301 33 -7v31
c0 38 -8.33301 66.5 -25 85.5s-44.334 28.5 -83.001 28.5c-20.667 0 -38.167 -3.16699 -52.5 -9.5s-26.166 -13.166 -35.499 -20.499c-10 -9.33301 -18.333 -19.666 -25 -30.999h-65v65c10 15.333 23.333 29 40 41c15.333 10.667 34.166 20 56.499 28s50.5 12 84.5 12
c67.333 0 118.333 -16.833 153 -50.5s52 -83.834 52 -150.501v-309h-80l-12 72c-6 -8.66699 -13.667 -17.834 -23 -27.501s-20.333 -18.5 -33 -26.5s-27.167 -14.667 -43.5 -20s-34.833 -8 -55.5 -8zM223 71c20.667 0 39.002 3.33203 55.002 9.99902
s29.667 15.334 41 26.001s20 22.167 26 34.5s9 24.5 9 36.5v26c-9.33301 2.66699 -20 5 -32 7c-10.667 2 -22.834 3.66699 -36.501 5s-28.834 2 -45.501 2c-20 0 -36.667 -2 -50 -6s-24 -9.5 -32 -16.5s-13.667 -14.833 -17 -23.5s-5 -17.667 -5 -27
c0 -49.333 29 -74 87 -74zM264.002 565.999c-28 0 -51.333 8.66699 -70 26s-28 39.666 -28 66.999c0 26.667 9.33301 48.834 28 66.501s42 26.5 70 26.5s51.333 -8.83301 70 -26.5s28 -39.834 28 -66.501c0 -27.333 -9.33301 -49.666 -28 -66.999s-42 -26 -70 -26z
M264.002 628.999c8 0 15 2.66699 21 8s9 12.666 9 21.999s-3 16.666 -9 21.999s-13 8 -21 8s-15 -2.66699 -21 -8s-9 -12.666 -9 -21.999s3 -16.666 9 -21.999s13 -8 21 -8z" />
    <glyph glyph-name="ae" unicode="&#xe6;" horiz-adv-x="895" 
d="M633 -10c-48.667 0 -90.667 8.16406 -126 24.4971s-63.666 39.5 -84.999 69.5c-11.333 -19.333 -24.333 -35 -39 -47s-30.5 -21.5 -47.5 -28.5s-34.5 -11.833 -52.5 -14.5s-35.667 -4 -53 -4c-32.667 0 -61 4 -85 12s-44 19 -60 33s-27.833 30.5 -35.5 49.5
s-11.5 39.167 -11.5 60.5s3.83301 41 11.5 59s20.167 33.667 37.5 47s39.666 23.833 66.999 31.5s61 11.5 101 11.5c17.333 0 33.166 -0.666992 47.499 -2s26.833 -3 37.5 -5c12.667 -2 24 -4.33301 34 -7v31c0 38 -11.667 66.5 -35 85.5s-54.333 28.5 -93 28.5
c-20.667 0 -38.167 -3.16699 -52.5 -9.5s-26.166 -13.166 -35.499 -20.499c-10 -9.33301 -18.333 -19.666 -25 -30.999h-65v65c10 15.333 23.333 29 40 41c15.333 10.667 34.166 20 56.499 28s50.5 12 84.5 12c42 0 78.833 -6.5 110.5 -19.5s57.167 -32.167 76.5 -57.5
c21.333 23.333 47.333 42 78 56s66.334 21 107.001 21c40 0 74.5 -5.5 103.5 -16.5s52.833 -26.333 71.5 -46s32.334 -43 41.001 -70s13 -56.167 13 -87.5c0 -8 -0.166992 -15.167 -0.5 -21.5s-0.833008 -12.166 -1.5 -17.499s-1.33398 -10.333 -2.00098 -15h-372
c2.66699 -49.333 17.167 -88.333 43.5 -117s64.833 -43 115.5 -43c28.667 0 52.167 3.16699 70.5 9.5s32.833 13.5 43.5 21.5c12 8.66699 21.333 18.667 28 30h65v-65c-10.667 -15.333 -25.667 -29 -45 -41c-16.667 -11.333 -38 -21 -64 -29s-58.667 -12 -98 -12z
M752 310.997c0 32.667 -10.666 59.832 -31.999 81.499s-54 32.5 -98 32.5c-44.667 0 -77.834 -10.667 -99.501 -32s-36.167 -48.666 -43.5 -81.999h273zM233.001 70.9951c47.333 0 82.666 11.668 105.999 35.001s35 50.666 35 81.999v16c-9.33301 2.66699 -20 5 -32 7
c-11.333 2 -24.166 3.66699 -38.499 5s-30.5 2 -48.5 2c-24 0 -43.667 -2 -59 -6s-27.5 -9.5 -36.5 -16.5s-15.167 -14.833 -18.5 -23.5s-5 -17.667 -5 -27c0 -25.333 9 -44 27 -56s41.333 -18 70 -18z" />
    <glyph glyph-name="ccedilla" unicode="&#xe7;" horiz-adv-x="533" 
d="M395 -120c0 -20 -4.00195 -36.001 -12.002 -48.001s-17 -21.667 -27 -29c-11.333 -8 -24.333 -13.667 -39 -17h-70v70c13.333 0 26.333 2 39 6s19 13.667 19 29c0 14.667 -6.16699 24.334 -18.5 29.001s-24.166 7 -35.499 7v66c-34.667 5.33301 -65 15.666 -91 30.999
s-47.667 34.5 -65 57.5s-30.333 49 -39 78s-13 59.5 -13 91.5c0 36 5.66699 69.667 17 101s28 58.833 50 82.5s48.667 42.334 80 56.001s67 20.5 107 20.5c39.333 0 71.333 -4.83301 96 -14.5s44 -20.167 58 -31.5c16.667 -13.333 29 -28.666 37 -45.999v-65h-65
c-4.66699 13.333 -12.334 25.333 -23.001 36c-10 10 -23 18.5 -39 25.5s-37.333 10.5 -64 10.5c-26 0 -48.667 -4.66699 -68 -14s-35.333 -21.833 -48 -37.5s-22.167 -34.167 -28.5 -55.5s-9.5 -44 -9.5 -68s3.16699 -46.667 9.5 -68s15.833 -40 28.5 -56
s28.667 -28.667 48 -38s42 -14 68 -14c28 0 50.333 3.66699 67 11s29.334 15.666 38.001 24.999c10.667 10.667 18 22.667 22 36h65v-65c-7.33301 -14.667 -17.666 -28 -30.999 -40c-12.667 -12 -29 -22.5 -49 -31.5s-46 -15.167 -78 -18.5v-32
c23.333 -5.33301 39.833 -15.5 49.5 -30.5s14.5 -31.5 14.5 -49.5z" />
    <glyph glyph-name="egrave" unicode="&#xe8;" horiz-adv-x="565" 
d="M303 -10c-42.667 0 -80.167 6.5 -112.5 19.5s-59.333 31 -81 54s-38 50.5 -49 82.5s-16.5 67 -16.5 105c0 36 5.33301 69.667 16 101s26.5 58.666 47.5 81.999s46.833 41.833 77.5 55.5s66 20.5 106 20.5s74.5 -5.5 103.5 -16.5s52.833 -26.333 71.5 -46
s32.334 -43 41.001 -70s13 -56.167 13 -87.5c0 -8 -0.166992 -15.167 -0.5 -21.5s-0.833008 -12.166 -1.5 -17.499s-1.33398 -10.333 -2.00098 -15h-372c2.66699 -49.333 17.167 -88.333 43.5 -117s64.833 -43 115.5 -43c28.667 0 52.167 3.16699 70.5 9.5
s32.833 13.5 43.5 21.5c12 8.66699 21.333 18.667 28 30h65v-65c-10.667 -15.333 -25.667 -29 -45 -41c-16.667 -11.333 -38 -21 -64 -29s-58.667 -12 -98 -12zM422 311c0 32.667 -10.666 59.832 -31.999 81.499s-54 32.5 -98 32.5c-44.667 0 -77.834 -10.667 -99.501 -32
s-36.167 -48.666 -43.5 -81.999h273zM104.001 689.998v60h90l92 -80v-60h-90z" />
    <glyph glyph-name="eacute" unicode="&#xe9;" horiz-adv-x="565" 
d="M303 -10c-42.667 0 -80.167 6.5 -112.5 19.5s-59.333 31 -81 54s-38 50.5 -49 82.5s-16.5 67 -16.5 105c0 36 5.33301 69.667 16 101s26.5 58.666 47.5 81.999s46.833 41.833 77.5 55.5s66 20.5 106 20.5s74.5 -5.5 103.5 -16.5s52.833 -26.333 71.5 -46
s32.334 -43 41.001 -70s13 -56.167 13 -87.5c0 -8 -0.166992 -15.167 -0.5 -21.5s-0.833008 -12.166 -1.5 -17.499s-1.33398 -10.333 -2.00098 -15h-372c2.66699 -49.333 17.167 -88.333 43.5 -117s64.833 -43 115.5 -43c28.667 0 52.167 3.16699 70.5 9.5
s32.833 13.5 43.5 21.5c12 8.66699 21.333 18.667 28 30h65v-65c-10.667 -15.333 -25.667 -29 -45 -41c-16.667 -11.333 -38 -21 -64 -29s-58.667 -12 -98 -12zM422 311c0 32.667 -10.666 59.832 -31.999 81.499s-54 32.5 -98 32.5c-44.667 0 -77.834 -10.667 -99.501 -32
s-36.167 -48.666 -43.5 -81.999h273zM237.001 669.998l92 80h90v-60l-92 -80h-90v60z" />
    <glyph glyph-name="ecircumflex" unicode="&#xea;" horiz-adv-x="565" 
d="M303 -10c-42.667 0 -80.167 6.5 -112.5 19.5s-59.333 31 -81 54s-38 50.5 -49 82.5s-16.5 67 -16.5 105c0 36 5.33301 69.667 16 101s26.5 58.666 47.5 81.999s46.833 41.833 77.5 55.5s66 20.5 106 20.5s74.5 -5.5 103.5 -16.5s52.833 -26.333 71.5 -46
s32.334 -43 41.001 -70s13 -56.167 13 -87.5c0 -8 -0.166992 -15.167 -0.5 -21.5s-0.833008 -12.166 -1.5 -17.499s-1.33398 -10.333 -2.00098 -15h-372c2.66699 -49.333 17.167 -88.333 43.5 -117s64.833 -43 115.5 -43c28.667 0 52.167 3.16699 70.5 9.5
s32.833 13.5 43.5 21.5c12 8.66699 21.333 18.667 28 30h65v-65c-10.667 -15.333 -25.667 -29 -45 -41c-16.667 -11.333 -38 -21 -64 -29s-58.667 -12 -98 -12zM422 311c0 32.667 -10.666 59.832 -31.999 81.499s-54 32.5 -98 32.5c-44.667 0 -77.834 -10.667 -99.501 -32
s-36.167 -48.666 -43.5 -81.999h273zM293.001 676.998l-77 -67h-60v60l92 80h90l92 -80v-60h-60z" />
    <glyph glyph-name="edieresis" unicode="&#xeb;" horiz-adv-x="565" 
d="M303 -10c-42.667 0 -80.167 6.5 -112.5 19.5s-59.333 31 -81 54s-38 50.5 -49 82.5s-16.5 67 -16.5 105c0 36 5.33301 69.667 16 101s26.5 58.666 47.5 81.999s46.833 41.833 77.5 55.5s66 20.5 106 20.5s74.5 -5.5 103.5 -16.5s52.833 -26.333 71.5 -46
s32.334 -43 41.001 -70s13 -56.167 13 -87.5c0 -8 -0.166992 -15.167 -0.5 -21.5s-0.833008 -12.166 -1.5 -17.499s-1.33398 -10.333 -2.00098 -15h-372c2.66699 -49.333 17.167 -88.333 43.5 -117s64.833 -43 115.5 -43c28.667 0 52.167 3.16699 70.5 9.5
s32.833 13.5 43.5 21.5c12 8.66699 21.333 18.667 28 30h65v-65c-10.667 -15.333 -25.667 -29 -45 -41c-16.667 -11.333 -38 -21 -64 -29s-58.667 -12 -98 -12zM422 311c0 32.667 -10.666 59.832 -31.999 81.499s-54 32.5 -98 32.5c-44.667 0 -77.834 -10.667 -99.501 -32
s-36.167 -48.666 -43.5 -81.999h273zM148.001 719.998h110v-110h-110v110zM328.001 719.998h110v-110h-110v110z" />
    <glyph glyph-name="igrave" unicode="&#xec;" horiz-adv-x="248" 
d="M-10 690v60h90l92 -80v-60h-90zM74 500h100v-500h-100v500z" />
    <glyph glyph-name="iacute" unicode="&#xed;" horiz-adv-x="248" 
d="M76 670l92 80h90v-60l-92 -80h-90v60zM74 500h100v-500h-100v500z" />
    <glyph glyph-name="icircumflex" unicode="&#xee;" horiz-adv-x="248" 
d="M124 677l-77 -67h-60v60l92 80h90l92 -80v-60h-60zM74 500h100v-500h-100v500z" />
    <glyph glyph-name="idieresis" unicode="&#xef;" horiz-adv-x="248" 
d="M-21 720h110v-110h-110v110zM159 720h110v-110h-110v110zM74 500h100v-500h-100v500z" />
    <glyph glyph-name="eth" unicode="&#xf0;" horiz-adv-x="607" 
d="M298 -10c-40 0 -75.6699 6.3291 -107.003 18.9961s-58 30.334 -80 53.001s-38.667 49.167 -50 79.5s-17 63.5 -17 99.5s5.66699 69.167 17 99.5s27.833 56.5 49.5 78.5s48 39.333 79 52s65.833 19 104.5 19c30 0 56.667 -3.5 80 -10.5s44.333 -18.167 63 -33.5
c-18 54.667 -48 102 -90 142l-140 -64v75l78 36c-39.333 22.667 -82.666 39.334 -129.999 50.001v65h65c26.667 -7.33301 53.334 -16.833 80.001 -28.5s52.334 -26.5 77.001 -44.5l126 57v-75l-70 -32c35.333 -37.333 64 -83.666 86 -138.999s33 -122.333 33 -201
c0 -95.333 -21.833 -168.666 -65.5 -219.999s-106.5 -77 -188.5 -77zM297.997 74.9961c26 0 48.667 4.66602 68 13.999s35.333 21.666 48 36.999s22.167 33.333 28.5 54s9.5 42.334 9.5 65.001s-3.16699 43.834 -9.5 63.501s-15.833 36.667 -28.5 51s-28.667 25.5 -48 33.5
s-42 12 -68 12c-52.667 0 -91.5 -15.5 -116.5 -46.5s-37.5 -70.167 -37.5 -117.5c0 -48.667 12.5 -88.5 37.5 -119.5s63.833 -46.5 116.5 -46.5z" />
    <glyph glyph-name="ntilde" unicode="&#xf1;" horiz-adv-x="583" 
d="M74 500l90.002 -0.000976562l7 -67c6 8.66699 13.667 17.5 23 26.5s20.166 17.333 32.499 25s26.666 13.834 42.999 18.501s34.5 7 54.5 7c34.667 0 64 -5.5 88 -16.5s43.5 -26.167 58.5 -45.5s26 -41.666 33 -66.999s10.5 -52.666 10.5 -81.999v-299h-100v293
c0 40 -8.66699 72.167 -26 96.5s-46.333 36.5 -87 36.5c-24 0 -44.167 -3.83301 -60.5 -11.5s-29.333 -17.834 -39 -30.501s-16.667 -26.834 -21 -42.501s-6.5 -31.5 -6.5 -47.5v-294h-100v500zM360.002 608.999c-13.333 0 -25 1.66699 -35 5s-19.167 6.83301 -27.5 10.5
l-24 10.5c-7.66699 3.33301 -16.167 5 -25.5 5c-7.33301 0 -14.166 -1.83301 -20.499 -5.5s-10.833 -10.5 -13.5 -20.5h-70c0 35.333 8.5 62.166 25.5 80.499s40.5 27.5 70.5 27.5c13.333 0 24.666 -1.66699 33.999 -5s17.666 -6.83301 24.999 -10.5l21 -10.5
c6.66699 -3.33301 14.334 -5 23.001 -5c7.33301 0 14.333 1.33301 21 4s11 10 13 22h70c0 -35.333 -7 -62.166 -21 -80.499s-36 -27.5 -66 -27.5z" />
    <glyph glyph-name="ograve" unicode="&#xf2;" horiz-adv-x="594" 
d="M297 -10c-40 0 -75.667 6.83301 -107 20.5s-58 32.334 -80 56.001s-38.667 51.334 -50 83.001s-17 65.5 -17 101.5s5.66699 69.667 17 101s28 58.666 50 81.999s48.667 41.833 80 55.5s67 20.5 107 20.5s75.667 -6.83301 107 -20.5s57.833 -32.167 79.5 -55.5
s38.334 -50.666 50.001 -81.999s17.5 -65 17.5 -101s-5.83301 -69.833 -17.5 -101.5s-28.334 -59.334 -50.001 -83.001s-48.167 -42.334 -79.5 -56.001s-67 -20.5 -107 -20.5zM297 75c26 0 48.667 4.66699 68 14s35.333 22 48 38s22.167 34.667 28.5 56s9.5 44 9.5 68
s-3.16699 46.5 -9.5 67.5s-15.833 39.333 -28.5 55s-28.667 28.167 -48 37.5s-42 14 -68 14s-48.667 -4.66699 -68 -14s-35.333 -21.833 -48 -37.5s-22.167 -34 -28.5 -55s-9.5 -43.5 -9.5 -67.5s3.16699 -46.667 9.5 -68s15.833 -40 28.5 -56s28.667 -28.667 48 -38
s42 -14 68 -14zM155 690v60h90l92 -80v-60h-90z" />
    <glyph glyph-name="oacute" unicode="&#xf3;" horiz-adv-x="594" 
d="M245 670l92 80h90v-60l-92 -80h-90v60zM297 -10c-40 0 -75.667 6.83301 -107 20.5s-58 32.334 -80 56.001s-38.667 51.334 -50 83.001s-17 65.5 -17 101.5s5.66699 69.667 17 101s28 58.666 50 81.999s48.667 41.833 80 55.5s67 20.5 107 20.5s75.667 -6.83301 107 -20.5
s57.833 -32.167 79.5 -55.5s38.334 -50.666 50.001 -81.999s17.5 -65 17.5 -101s-5.83301 -69.833 -17.5 -101.5s-28.334 -59.334 -50.001 -83.001s-48.167 -42.334 -79.5 -56.001s-67 -20.5 -107 -20.5zM297 75c26 0 48.667 4.66699 68 14s35.333 22 48 38
s22.167 34.667 28.5 56s9.5 44 9.5 68s-3.16699 46.5 -9.5 67.5s-15.833 39.333 -28.5 55s-28.667 28.167 -48 37.5s-42 14 -68 14s-48.667 -4.66699 -68 -14s-35.333 -21.833 -48 -37.5s-22.167 -34 -28.5 -55s-9.5 -43.5 -9.5 -67.5s3.16699 -46.667 9.5 -68
s15.833 -40 28.5 -56s28.667 -28.667 48 -38s42 -14 68 -14z" />
    <glyph glyph-name="ocircumflex" unicode="&#xf4;" horiz-adv-x="594" 
d="M295 677l-77 -67h-60v60l92 80h90l92 -80v-60h-60zM297 -10c-40 0 -75.667 6.83301 -107 20.5s-58 32.334 -80 56.001s-38.667 51.334 -50 83.001s-17 65.5 -17 101.5s5.66699 69.667 17 101s28 58.666 50 81.999s48.667 41.833 80 55.5s67 20.5 107 20.5
s75.667 -6.83301 107 -20.5s57.833 -32.167 79.5 -55.5s38.334 -50.666 50.001 -81.999s17.5 -65 17.5 -101s-5.83301 -69.833 -17.5 -101.5s-28.334 -59.334 -50.001 -83.001s-48.167 -42.334 -79.5 -56.001s-67 -20.5 -107 -20.5zM297 75c26 0 48.667 4.66699 68 14
s35.333 22 48 38s22.167 34.667 28.5 56s9.5 44 9.5 68s-3.16699 46.5 -9.5 67.5s-15.833 39.333 -28.5 55s-28.667 28.167 -48 37.5s-42 14 -68 14s-48.667 -4.66699 -68 -14s-35.333 -21.833 -48 -37.5s-22.167 -34 -28.5 -55s-9.5 -43.5 -9.5 -67.5
s3.16699 -46.667 9.5 -68s15.833 -40 28.5 -56s28.667 -28.667 48 -38s42 -14 68 -14z" />
    <glyph glyph-name="otilde" unicode="&#xf5;" horiz-adv-x="594" 
d="M361 609c-13.333 0 -25 1.66699 -35 5s-19.167 6.83301 -27.5 10.5l-24 10.5c-7.66699 3.33301 -16.167 5 -25.5 5c-7.33301 0 -14.166 -1.83301 -20.499 -5.5s-10.833 -10.5 -13.5 -20.5h-70c0 35.333 8.5 62.166 25.5 80.499s40.5 27.5 70.5 27.5
c13.333 0 24.666 -1.66699 33.999 -5s17.666 -6.83301 24.999 -10.5l21 -10.5c6.66699 -3.33301 14.334 -5 23.001 -5c7.33301 0 14.333 1.33301 21 4s11 10 13 22h70c0 -35.333 -7 -62.166 -21 -80.499s-36 -27.5 -66 -27.5zM297 -10c-40 0 -75.667 6.83301 -107 20.5
s-58 32.334 -80 56.001s-38.667 51.334 -50 83.001s-17 65.5 -17 101.5s5.66699 69.667 17 101s28 58.666 50 81.999s48.667 41.833 80 55.5s67 20.5 107 20.5s75.667 -6.83301 107 -20.5s57.833 -32.167 79.5 -55.5s38.334 -50.666 50.001 -81.999s17.5 -65 17.5 -101
s-5.83301 -69.833 -17.5 -101.5s-28.334 -59.334 -50.001 -83.001s-48.167 -42.334 -79.5 -56.001s-67 -20.5 -107 -20.5zM297 75c26 0 48.667 4.66699 68 14s35.333 22 48 38s22.167 34.667 28.5 56s9.5 44 9.5 68s-3.16699 46.5 -9.5 67.5s-15.833 39.333 -28.5 55
s-28.667 28.167 -48 37.5s-42 14 -68 14s-48.667 -4.66699 -68 -14s-35.333 -21.833 -48 -37.5s-22.167 -34 -28.5 -55s-9.5 -43.5 -9.5 -67.5s3.16699 -46.667 9.5 -68s15.833 -40 28.5 -56s28.667 -28.667 48 -38s42 -14 68 -14z" />
    <glyph glyph-name="odieresis" unicode="&#xf6;" horiz-adv-x="594" 
d="M154 720h110v-110h-110v110zM334 720h110v-110h-110v110zM297 -10c-40 0 -75.667 6.83301 -107 20.5s-58 32.334 -80 56.001s-38.667 51.334 -50 83.001s-17 65.5 -17 101.5s5.66699 69.667 17 101s28 58.666 50 81.999s48.667 41.833 80 55.5s67 20.5 107 20.5
s75.667 -6.83301 107 -20.5s57.833 -32.167 79.5 -55.5s38.334 -50.666 50.001 -81.999s17.5 -65 17.5 -101s-5.83301 -69.833 -17.5 -101.5s-28.334 -59.334 -50.001 -83.001s-48.167 -42.334 -79.5 -56.001s-67 -20.5 -107 -20.5zM297 75c26 0 48.667 4.66699 68 14
s35.333 22 48 38s22.167 34.667 28.5 56s9.5 44 9.5 68s-3.16699 46.5 -9.5 67.5s-15.833 39.333 -28.5 55s-28.667 28.167 -48 37.5s-42 14 -68 14s-48.667 -4.66699 -68 -14s-35.333 -21.833 -48 -37.5s-22.167 -34 -28.5 -55s-9.5 -43.5 -9.5 -67.5
s3.16699 -46.667 9.5 -68s15.833 -40 28.5 -56s28.667 -28.667 48 -38s42 -14 68 -14z" />
    <glyph glyph-name="divide" unicode="&#xf7;" horiz-adv-x="568" 
d="M224 625h120v-120h-120v120zM62 390h444v-85h-444v85zM224 190h120v-120h-120v120z" />
    <glyph glyph-name="oslash" unicode="&#xf8;" horiz-adv-x="594" 
d="M297 -10c-42.667 0 -80.667 8.00195 -114 24.002l-50 -73h-100l83 120c-23.333 24 -41.333 52.167 -54 84.5s-19 67.5 -19 105.5c0 36 5.66699 69.667 17 101s28 58.666 50 81.999s48.667 41.833 80 55.5s67 20.5 107 20.5c42.667 0 80.334 -7.66699 113.001 -23l51 73
h100l-83 -120c23.333 -23.333 41.333 -51.166 54 -83.499s19 -67.5 19 -105.5c0 -36 -5.83301 -69.833 -17.5 -101.5s-28.334 -59.334 -50.001 -83.001s-48.167 -42.334 -79.5 -56.001s-67 -20.5 -107 -20.5zM143 251.002c0 -43.333 9.33301 -80.333 28 -111l189 274
c-18.667 7.33301 -39.667 11 -63 11c-26 0 -48.667 -4.66699 -68 -14s-35.333 -21.833 -48 -37.5s-22.167 -34 -28.5 -55s-9.5 -43.5 -9.5 -67.5zM297 75.002c26 0 48.667 4.66797 68 14.001s35.333 22 48 38s22.167 34.667 28.5 56s9.5 44 9.5 68
c0 20.667 -2.33301 40.167 -7 58.5s-11.667 35.166 -21 50.499l-189 -273c18 -8 39 -12 63 -12z" />
    <glyph glyph-name="ugrave" unicode="&#xf9;" horiz-adv-x="583" 
d="M259 -10c-34.667 0 -64 5.49707 -88 16.4971s-43.5 26.167 -58.5 45.5s-26 41.833 -33 67.5s-10.5 52.834 -10.5 81.501v299h100v-293c0 -40 8.66699 -72.167 26 -96.5s46.333 -36.5 87 -36.5c24 0 44.167 3.83301 60.5 11.5s29.333 17.834 39 30.501
s16.667 26.834 21 42.501s6.5 31.5 6.5 47.5v294h100v-500h-90l-7 67c-6 -8.66699 -13.667 -17.5 -23 -26.5s-20.333 -17.167 -33 -24.5s-27 -13.5 -43 -18.5s-34 -7.5 -54 -7.5zM146 689.997v60h90l92 -80v-60h-90z" />
    <glyph glyph-name="uacute" unicode="&#xfa;" horiz-adv-x="583" 
d="M259 -10c-34.667 0 -64 5.49707 -88 16.4971s-43.5 26.167 -58.5 45.5s-26 41.833 -33 67.5s-10.5 52.834 -10.5 81.501v299h100v-293c0 -40 8.66699 -72.167 26 -96.5s46.333 -36.5 87 -36.5c24 0 44.167 3.83301 60.5 11.5s29.333 17.834 39 30.501
s16.667 26.834 21 42.501s6.5 31.5 6.5 47.5v294h100v-500h-90l-7 67c-6 -8.66699 -13.667 -17.5 -23 -26.5s-20.333 -17.167 -33 -24.5s-27 -13.5 -43 -18.5s-34 -7.5 -54 -7.5zM235 669.997l92 80h90v-60l-92 -80h-90v60z" />
    <glyph glyph-name="ucircumflex" unicode="&#xfb;" horiz-adv-x="583" 
d="M285 677l-77 -67h-60v60l92 80h90l92 -80v-60h-60zM259 -10c-34.667 0 -64 5.49707 -88 16.4971s-43.5 26.167 -58.5 45.5s-26 41.833 -33 67.5s-10.5 52.834 -10.5 81.501v299h100v-293c0 -40 8.66699 -72.167 26 -96.5s46.333 -36.5 87 -36.5
c24 0 44.167 3.83301 60.5 11.5s29.333 17.834 39 30.501s16.667 26.834 21 42.501s6.5 31.5 6.5 47.5v294h100v-500h-90l-7 67c-6 -8.66699 -13.667 -17.5 -23 -26.5s-20.333 -17.167 -33 -24.5s-27 -13.5 -43 -18.5s-34 -7.5 -54 -7.5z" />
    <glyph glyph-name="udieresis" unicode="&#xfc;" horiz-adv-x="583" 
d="M144 720h110v-110h-110v110zM324 720h110v-110h-110v110zM259 -10c-34.667 0 -64 5.49707 -88 16.4971s-43.5 26.167 -58.5 45.5s-26 41.833 -33 67.5s-10.5 52.834 -10.5 81.501v299h100v-293c0 -40 8.66699 -72.167 26 -96.5s46.333 -36.5 87 -36.5
c24 0 44.167 3.83301 60.5 11.5s29.333 17.834 39 30.501s16.667 26.834 21 42.501s6.5 31.5 6.5 47.5v294h100v-500h-90l-7 67c-6 -8.66699 -13.667 -17.5 -23 -26.5s-20.333 -17.167 -33 -24.5s-27 -13.5 -43 -18.5s-34 -7.5 -54 -7.5z" />
    <glyph glyph-name="yacute" unicode="&#xfd;" horiz-adv-x="527" 
d="M224 670l92 80h90v-60l-92 -80h-90v60zM67 -250v70l151 260l-192 350v70h70l176 -326l173 326h65v-65l-373 -685h-70z" />
    <glyph glyph-name="thorn" unicode="&#xfe;" horiz-adv-x="626" 
d="M74 750l100 0.000976562v-329c19.333 28 43.5 49.833 72.5 65.5s62.833 23.5 101.5 23.5c36.667 0 69.5 -6.83301 98.5 -20.5s53.5 -32.167 73.5 -55.5s35.333 -50.666 46 -81.999s16 -65 16 -101s-5.33301 -69.833 -16 -101.5s-26 -59.334 -46 -83.001
s-44.5 -42.334 -73.5 -56.001s-61.833 -20.5 -98.5 -20.5c-38.667 0 -72.5 7.83301 -101.5 23.5s-53.167 37.167 -72.5 64.5v-328h-100v1000zM328 75.001c26 0 48.667 4.66699 68 14s35.333 22 48 38s22.167 34.667 28.5 56s9.5 44 9.5 68s-3.16699 46.5 -9.5 67.5
s-15.833 39.5 -28.5 55.5s-28.667 28.5 -48 37.5s-42 13.5 -68 13.5c-24 0 -45.5 -4.5 -64.5 -13.5s-35.167 -21.5 -48.5 -37.5s-23.5 -34.5 -30.5 -55.5s-10.5 -43.5 -10.5 -67.5s3.5 -46.667 10.5 -68s17.167 -40 30.5 -56s29.5 -28.667 48.5 -38s40.5 -14 64.5 -14z" />
    <glyph glyph-name="ydieresis" unicode="&#xff;" horiz-adv-x="527" 
d="M126 720h110v-110h-110v110zM306 720h110v-110h-110v110zM67 -250v70l151 260l-192 350v70h70l176 -326l173 326h65v-65l-373 -685h-70z" />
    <glyph glyph-name="Amacron" unicode="&#x100;" horiz-adv-x="681" 
d="M17 0v70l281 680h85l279 -670v-80h-80l-81 200h-324l-80 -200h-80zM339 603l-126 -313h252zM216 895h250v-90h-250v90z" />
    <glyph glyph-name="amacron" unicode="&#x101;" horiz-adv-x="523" 
d="M207 -10c-28 0 -52.5 4 -73.5 12s-38.667 19 -53 33s-25 30.5 -32 49.5s-10.5 39.167 -10.5 60.5s3.83301 41 11.5 59s19.5 33.667 35.5 47s36.833 23.833 62.5 31.5s56.5 11.5 92.5 11.5c16 0 30.833 -0.666992 44.5 -2s25.834 -3 36.501 -5c12 -2 23 -4.33301 33 -7v31
c0 38 -8.33301 66.5 -25 85.5s-44.334 28.5 -83.001 28.5c-20.667 0 -38.167 -3.16699 -52.5 -9.5s-26.166 -13.166 -35.499 -20.499c-10 -9.33301 -18.333 -19.666 -25 -30.999h-65v65c10 15.333 23.333 29 40 41c15.333 10.667 34.166 20 56.499 28s50.5 12 84.5 12
c67.333 0 118.333 -16.833 153 -50.5s52 -83.834 52 -150.501v-309h-80l-12 72c-6 -8.66699 -13.667 -17.834 -23 -27.501s-20.333 -18.5 -33 -26.5s-27.167 -14.667 -43.5 -20s-34.833 -8 -55.5 -8zM223 71c20.667 0 39.002 3.33203 55.002 9.99902
s29.667 15.334 41 26.001s20 22.167 26 34.5s9 24.5 9 36.5v26c-9.33301 2.66699 -20 5 -32 7c-10.667 2 -22.834 3.66699 -36.501 5s-28.834 2 -45.501 2c-20 0 -36.667 -2 -50 -6s-24 -9.5 -32 -16.5s-13.667 -14.833 -17 -23.5s-5 -17.667 -5 -27
c0 -49.333 29 -74 87 -74zM135.002 709.999h250v-90h-250v90z" />
    <glyph glyph-name="Abreve" unicode="&#x102;" horiz-adv-x="681" 
d="M17 0v70l281 680h85l279 -670v-80h-80l-81 200h-324l-80 -200h-80zM339 603l-126 -313h252zM338 785c-28.667 0 -51.668 3.33105 -69.001 9.99805s-31 14.334 -41 23.001c-10.667 9.33301 -18.334 20 -23.001 32v70h70c2 -10 5.66699 -18.667 11 -26
c4 -7.33301 10.167 -13.5 18.5 -18.5s19.5 -7.5 33.5 -7.5c14.667 0 25.834 2.66699 33.501 8s13.5 11.333 17.5 18c4.66699 7.33301 7.33398 16 8.00098 26h70v-70c-4 -12 -11.333 -22.667 -22 -32c-10 -9.33301 -23.333 -17.166 -40 -23.499s-39 -9.5 -67 -9.5z" />
    <glyph glyph-name="abreve" unicode="&#x103;" horiz-adv-x="523" 
d="M207 -10c-28 0 -52.5 4 -73.5 12s-38.667 19 -53 33s-25 30.5 -32 49.5s-10.5 39.167 -10.5 60.5s3.83301 41 11.5 59s19.5 33.667 35.5 47s36.833 23.833 62.5 31.5s56.5 11.5 92.5 11.5c16 0 30.833 -0.666992 44.5 -2s25.834 -3 36.501 -5c12 -2 23 -4.33301 33 -7v31
c0 38 -8.33301 66.5 -25 85.5s-44.334 28.5 -83.001 28.5c-20.667 0 -38.167 -3.16699 -52.5 -9.5s-26.166 -13.166 -35.499 -20.499c-10 -9.33301 -18.333 -19.666 -25 -30.999h-65v65c10 15.333 23.333 29 40 41c15.333 10.667 34.166 20 56.499 28s50.5 12 84.5 12
c67.333 0 118.333 -16.833 153 -50.5s52 -83.834 52 -150.501v-309h-80l-12 72c-6 -8.66699 -13.667 -17.834 -23 -27.501s-20.333 -18.5 -33 -26.5s-27.167 -14.667 -43.5 -20s-34.833 -8 -55.5 -8zM223 71c20.667 0 39.002 3.33203 55.002 9.99902
s29.667 15.334 41 26.001s20 22.167 26 34.5s9 24.5 9 36.5v26c-9.33301 2.66699 -20 5 -32 7c-10.667 2 -22.834 3.66699 -36.501 5s-28.834 2 -45.501 2c-20 0 -36.667 -2 -50 -6s-24 -9.5 -32 -16.5s-13.667 -14.833 -17 -23.5s-5 -17.667 -5 -27
c0 -49.333 29 -74 87 -74zM253.002 584.999c-28.667 0 -51.668 3.33105 -69.001 9.99805s-31 14.334 -41 23.001c-10.667 9.33301 -18.334 20 -23.001 32v70h70c2 -10 5.66699 -18.667 11 -26c4 -7.33301 10.167 -13.5 18.5 -18.5s19.5 -7.5 33.5 -7.5
c14.667 0 25.834 2.66699 33.501 8s13.5 11.333 17.5 18c4.66699 7.33301 7.33398 16 8.00098 26h70v-70c-4 -12 -11.333 -22.667 -22 -32c-10 -9.33301 -23.333 -17.166 -40 -23.499s-39 -9.5 -67 -9.5z" />
    <glyph glyph-name="Aogonek" unicode="&#x104;" horiz-adv-x="681" 
d="M531 -78c0 18 5.16699 34.332 15.5 48.999s22.166 24.334 35.499 29.001l-81 200h-324l-80 -200h-80v70l281 680h85l279 -670v-80c-8 -1.33301 -15.333 -4 -22 -8c-6 -3.33301 -11.167 -8.33301 -15.5 -15s-6.5 -16 -6.5 -28s3 -21.5 9 -28.5s12.667 -12.167 20 -15.5
c8.66699 -4 18.334 -6.33301 29.001 -7v-70h-70c-14 3.33301 -26.333 9 -37 17c-10.667 7.33301 -19.667 17 -27 29s-11 28 -11 48zM339 602.999l-126 -313h252z" />
    <glyph glyph-name="aogonek" unicode="&#x105;" horiz-adv-x="523" 
d="M323 -78c0 18 5.16699 34.332 15.5 48.999s22.166 24.334 35.499 29.001l-12 72c-6 -8.66699 -13.667 -17.834 -23 -27.501s-20.333 -18.5 -33 -26.5s-27.167 -14.667 -43.5 -20s-34.833 -8 -55.5 -8c-28 0 -52.5 4 -73.5 12s-38.667 19 -53 33s-25 30.5 -32 49.5
s-10.5 39.167 -10.5 60.5s3.83301 41 11.5 59s19.5 33.667 35.5 47s36.833 23.833 62.5 31.5s56.5 11.5 92.5 11.5c16 0 30.833 -0.666992 44.5 -2s25.834 -3 36.501 -5c12 -2 23 -4.33301 33 -7v31c0 38 -8.33301 66.5 -25 85.5s-44.334 28.5 -83.001 28.5
c-20.667 0 -38.167 -3.16699 -52.5 -9.5s-26.166 -13.166 -35.499 -20.499c-10 -9.33301 -18.333 -19.666 -25 -30.999h-65v65c10 15.333 23.333 29 40 41c15.333 10.667 34.166 20 56.499 28s50.5 12 84.5 12c67.333 0 118.333 -16.833 153 -50.5s52 -83.834 52 -150.501
v-309c-8 -1.33301 -15.333 -4 -22 -8c-6 -3.33301 -11.167 -8.33301 -15.5 -15s-6.5 -16 -6.5 -28s3 -21.5 9 -28.5s12.667 -12.167 20 -15.5c8.66699 -4 18.334 -6.33301 29.001 -7v-70h-70c-14 3.33301 -26.333 9 -37 17c-10.667 7.33301 -19.667 17 -27 29s-11 28 -11 48
zM223 70.999c20.667 0 39.002 3.33203 55.002 9.99902s29.667 15.334 41 26.001s20 22.167 26 34.5s9 24.5 9 36.5v26c-9.33301 2.66699 -20 5 -32 7c-10.667 2 -22.834 3.66699 -36.501 5s-28.834 2 -45.501 2c-20 0 -36.667 -2 -50 -6s-24 -9.5 -32 -16.5
s-13.667 -14.833 -17 -23.5s-5 -17.667 -5 -27c0 -49.333 29 -74 87 -74z" />
    <glyph glyph-name="Cacute" unicode="&#x106;" horiz-adv-x="735" 
d="M417 -10c-60.667 0 -113.997 10.1709 -159.997 30.5039s-84.5 48.166 -115.5 83.499s-54.333 76.5 -70 123.5s-23.5 97.167 -23.5 150.5c0 54 8.83301 104.167 26.5 150.5s42.5 86.666 74.5 120.999s70.667 61.333 116 81s96 29.5 152 29.5c54 0 98.667 -6.33301 134 -19
s63.666 -26.334 84.999 -41.001c24 -18 42.667 -38.333 56 -61v-70h-80c-8 18.667 -20.333 35.667 -37 51c-14.667 13.333 -34.167 25 -58.5 35s-56.5 15 -96.5 15c-41.333 0 -78.166 -7.5 -110.499 -22.5s-59.833 -35.5 -82.5 -61.5s-39.834 -56.833 -51.501 -92.5
s-17.5 -74.167 -17.5 -115.5c0 -40.667 5.83301 -79.167 17.5 -115.5s28.834 -67.833 51.501 -94.5s50.167 -47.834 82.5 -63.501s69.166 -23.5 110.499 -23.5c38.667 0 70.667 5.5 96 16.5s45.666 23.167 60.999 36.5c17.333 15.333 30.666 32.666 39.999 51.999h80v-70
c-14.667 -23.333 -34.667 -44.333 -60 -63c-23.333 -17.333 -52.5 -32.166 -87.5 -44.499s-79.167 -18.5 -132.5 -18.5zM368.003 865.004l92 80h90v-60l-92 -80h-90v60z" />
    <glyph glyph-name="cacute" unicode="&#x107;" horiz-adv-x="533" 
d="M297 -10c-42.667 0 -79.835 6.8291 -111.502 20.4961s-58 32.334 -79 56.001s-36.833 51.334 -47.5 83.001s-16 65.5 -16 101.5s5.66699 69.667 17 101s28 58.833 50 82.5s48.667 42.334 80 56.001s67 20.5 107 20.5c39.333 0 71.333 -4.83301 96 -14.5
s44 -20.167 58 -31.5c16.667 -13.333 29 -28.666 37 -45.999v-65h-65c-4.66699 13.333 -12.334 25.333 -23.001 36c-10 10 -23 18.5 -39 25.5s-37.333 10.5 -64 10.5c-26 0 -48.667 -4.66699 -68 -14s-35.333 -21.833 -48 -37.5s-22.167 -34.167 -28.5 -55.5
s-9.5 -44 -9.5 -68s3.16699 -46.667 9.5 -68s15.833 -40 28.5 -56s28.667 -28.667 48 -38s42 -14 68 -14c28 0 50.333 3.66699 67 11s29.334 15.666 38.001 24.999c10.667 10.667 18 22.667 22 36h65v-65c-8 -17.333 -20.333 -32.666 -37 -45.999
c-15.333 -12.667 -35.166 -23.5 -59.499 -32.5s-56.166 -13.5 -95.499 -13.5zM237.999 669.996l92 80h90v-60l-92 -80h-90v60z" />
    <glyph glyph-name="Ccircumflex" unicode="&#x108;" horiz-adv-x="735" 
d="M417 -10c-60.667 0 -113.997 10.1709 -159.997 30.5039s-84.5 48.166 -115.5 83.499s-54.333 76.5 -70 123.5s-23.5 97.167 -23.5 150.5c0 54 8.83301 104.167 26.5 150.5s42.5 86.666 74.5 120.999s70.667 61.333 116 81s96 29.5 152 29.5c54 0 98.667 -6.33301 134 -19
s63.666 -26.334 84.999 -41.001c24 -18 42.667 -38.333 56 -61v-70h-80c-8 18.667 -20.333 35.667 -37 51c-14.667 13.333 -34.167 25 -58.5 35s-56.5 15 -96.5 15c-41.333 0 -78.166 -7.5 -110.499 -22.5s-59.833 -35.5 -82.5 -61.5s-39.834 -56.833 -51.501 -92.5
s-17.5 -74.167 -17.5 -115.5c0 -40.667 5.83301 -79.167 17.5 -115.5s28.834 -67.833 51.501 -94.5s50.167 -47.834 82.5 -63.501s69.166 -23.5 110.499 -23.5c38.667 0 70.667 5.5 96 16.5s45.666 23.167 60.999 36.5c17.333 15.333 30.666 32.666 39.999 51.999h80v-70
c-14.667 -23.333 -34.667 -44.333 -60 -63c-23.333 -17.333 -52.5 -32.166 -87.5 -44.499s-79.167 -18.5 -132.5 -18.5zM415.003 862.004l-77 -67h-60v60l92 80h90l92 -80v-60h-60z" />
    <glyph glyph-name="ccircumflex" unicode="&#x109;" horiz-adv-x="533" 
d="M297 -10c-42.667 0 -79.835 6.8291 -111.502 20.4961s-58 32.334 -79 56.001s-36.833 51.334 -47.5 83.001s-16 65.5 -16 101.5s5.66699 69.667 17 101s28 58.833 50 82.5s48.667 42.334 80 56.001s67 20.5 107 20.5c39.333 0 71.333 -4.83301 96 -14.5
s44 -20.167 58 -31.5c16.667 -13.333 29 -28.666 37 -45.999v-65h-65c-4.66699 13.333 -12.334 25.333 -23.001 36c-10 10 -23 18.5 -39 25.5s-37.333 10.5 -64 10.5c-26 0 -48.667 -4.66699 -68 -14s-35.333 -21.833 -48 -37.5s-22.167 -34.167 -28.5 -55.5
s-9.5 -44 -9.5 -68s3.16699 -46.667 9.5 -68s15.833 -40 28.5 -56s28.667 -28.667 48 -38s42 -14 68 -14c28 0 50.333 3.66699 67 11s29.334 15.666 38.001 24.999c10.667 10.667 18 22.667 22 36h65v-65c-8 -17.333 -20.333 -32.666 -37 -45.999
c-15.333 -12.667 -35.166 -23.5 -59.499 -32.5s-56.166 -13.5 -95.499 -13.5zM286.999 676.996l-77 -67h-60v60l92 80h90l92 -80v-60h-60z" />
    <glyph glyph-name="Cdotaccent" unicode="&#x10a;" horiz-adv-x="735" 
d="M417 -10c-60.667 0 -113.997 10.1709 -159.997 30.5039s-84.5 48.166 -115.5 83.499s-54.333 76.5 -70 123.5s-23.5 97.167 -23.5 150.5c0 54 8.83301 104.167 26.5 150.5s42.5 86.666 74.5 120.999s70.667 61.333 116 81s96 29.5 152 29.5c54 0 98.667 -6.33301 134 -19
s63.666 -26.334 84.999 -41.001c24 -18 42.667 -38.333 56 -61v-70h-80c-8 18.667 -20.333 35.667 -37 51c-14.667 13.333 -34.167 25 -58.5 35s-56.5 15 -96.5 15c-41.333 0 -78.166 -7.5 -110.499 -22.5s-59.833 -35.5 -82.5 -61.5s-39.834 -56.833 -51.501 -92.5
s-17.5 -74.167 -17.5 -115.5c0 -40.667 5.83301 -79.167 17.5 -115.5s28.834 -67.833 51.501 -94.5s50.167 -47.834 82.5 -63.501s69.166 -23.5 110.499 -23.5c38.667 0 70.667 5.5 96 16.5s45.666 23.167 60.999 36.5c17.333 15.333 30.666 32.666 39.999 51.999h80v-70
c-14.667 -23.333 -34.667 -44.333 -60 -63c-23.333 -17.333 -52.5 -32.166 -87.5 -44.499s-79.167 -18.5 -132.5 -18.5zM356.003 925.004h110v-110h-110v110z" />
    <glyph glyph-name="cdotaccent" unicode="&#x10b;" horiz-adv-x="533" 
d="M297 -10c-42.667 0 -79.835 6.8291 -111.502 20.4961s-58 32.334 -79 56.001s-36.833 51.334 -47.5 83.001s-16 65.5 -16 101.5s5.66699 69.667 17 101s28 58.833 50 82.5s48.667 42.334 80 56.001s67 20.5 107 20.5c39.333 0 71.333 -4.83301 96 -14.5
s44 -20.167 58 -31.5c16.667 -13.333 29 -28.666 37 -45.999v-65h-65c-4.66699 13.333 -12.334 25.333 -23.001 36c-10 10 -23 18.5 -39 25.5s-37.333 10.5 -64 10.5c-26 0 -48.667 -4.66699 -68 -14s-35.333 -21.833 -48 -37.5s-22.167 -34.167 -28.5 -55.5
s-9.5 -44 -9.5 -68s3.16699 -46.667 9.5 -68s15.833 -40 28.5 -56s28.667 -28.667 48 -38s42 -14 68 -14c28 0 50.333 3.66699 67 11s29.334 15.666 38.001 24.999c10.667 10.667 18 22.667 22 36h65v-65c-8 -17.333 -20.333 -32.666 -37 -45.999
c-15.333 -12.667 -35.166 -23.5 -59.499 -32.5s-56.166 -13.5 -95.499 -13.5zM238.999 719.996h110v-110h-110v110z" />
    <glyph glyph-name="Ccaron" unicode="&#x10c;" horiz-adv-x="735" 
d="M417 -10c-60.667 0 -113.997 10.1709 -159.997 30.5039s-84.5 48.166 -115.5 83.499s-54.333 76.5 -70 123.5s-23.5 97.167 -23.5 150.5c0 54 8.83301 104.167 26.5 150.5s42.5 86.666 74.5 120.999s70.667 61.333 116 81s96 29.5 152 29.5c54 0 98.667 -6.33301 134 -19
s63.666 -26.334 84.999 -41.001c24 -18 42.667 -38.333 56 -61v-70h-80c-8 18.667 -20.333 35.667 -37 51c-14.667 13.333 -34.167 25 -58.5 35s-56.5 15 -96.5 15c-41.333 0 -78.166 -7.5 -110.499 -22.5s-59.833 -35.5 -82.5 -61.5s-39.834 -56.833 -51.501 -92.5
s-17.5 -74.167 -17.5 -115.5c0 -40.667 5.83301 -79.167 17.5 -115.5s28.834 -67.833 51.501 -94.5s50.167 -47.834 82.5 -63.501s69.166 -23.5 110.499 -23.5c38.667 0 70.667 5.5 96 16.5s45.666 23.167 60.999 36.5c17.333 15.333 30.666 32.666 39.999 51.999h80v-70
c-14.667 -23.333 -34.667 -44.333 -60 -63c-23.333 -17.333 -52.5 -32.166 -87.5 -44.499s-79.167 -18.5 -132.5 -18.5zM371.003 795.004l-96 80v60h60l80 -67l74 67h60v-60l-88 -80h-90z" />
    <glyph glyph-name="ccaron" unicode="&#x10d;" horiz-adv-x="533" 
d="M297 -10c-42.667 0 -79.835 6.8291 -111.502 20.4961s-58 32.334 -79 56.001s-36.833 51.334 -47.5 83.001s-16 65.5 -16 101.5s5.66699 69.667 17 101s28 58.833 50 82.5s48.667 42.334 80 56.001s67 20.5 107 20.5c39.333 0 71.333 -4.83301 96 -14.5
s44 -20.167 58 -31.5c16.667 -13.333 29 -28.666 37 -45.999v-65h-65c-4.66699 13.333 -12.334 25.333 -23.001 36c-10 10 -23 18.5 -39 25.5s-37.333 10.5 -64 10.5c-26 0 -48.667 -4.66699 -68 -14s-35.333 -21.833 -48 -37.5s-22.167 -34.167 -28.5 -55.5
s-9.5 -44 -9.5 -68s3.16699 -46.667 9.5 -68s15.833 -40 28.5 -56s28.667 -28.667 48 -38s42 -14 68 -14c28 0 50.333 3.66699 67 11s29.334 15.666 38.001 24.999c10.667 10.667 18 22.667 22 36h65v-65c-8 -17.333 -20.333 -32.666 -37 -45.999
c-15.333 -12.667 -35.166 -23.5 -59.499 -32.5s-56.166 -13.5 -95.499 -13.5zM238.999 609.996l-96 80v60h60l80 -67l74 67h60v-60l-88 -80h-90z" />
    <glyph glyph-name="Dcaron" unicode="&#x10e;" horiz-adv-x="754" 
d="M95 750l233 0.000976562c58.667 0 111.334 -9.83301 158.001 -29.5s86.334 -46.334 119.001 -80.001s57.834 -73 75.501 -118s26.5 -93.167 26.5 -144.5c0 -52 -8.83301 -101 -26.5 -147s-42.834 -86 -75.501 -120s-72.334 -61 -119.001 -81s-99.334 -30 -158.001 -30
h-233v750zM325 90.001c41.333 0 78.833 7.50098 112.5 22.501s62.334 35.5 86.001 61.5s41.834 56.5 54.501 91.5s19 72.5 19 112.5c0 38.667 -6.33301 75.167 -19 109.5s-30.834 64.166 -54.501 89.499s-52.334 45.5 -86.001 60.5s-71.167 22.5 -112.5 22.5h-120v-570h120z
M296 795.002l-96 80v60h60l80 -67l74 67h60v-60l-88 -80h-90z" />
    <glyph glyph-name="dcaron" unicode="&#x10f;" horiz-adv-x="638" 
d="M278 -10c-36.667 0 -69.5 6.83203 -98.5 20.499s-53.5 32.334 -73.5 56.001s-35.333 51.334 -46 83.001s-16 65.5 -16 101.5s5.33301 69.667 16 101s26 58.666 46 81.999s44.5 41.833 73.5 55.5s61.833 20.5 98.5 20.5c38.667 0 72.5 -7.83301 101.5 -23.5
s53.167 -37.167 72.5 -64.5v328h100v-750h-90l-10 78c-19.333 -27.333 -43.5 -48.833 -72.5 -64.5s-62.833 -23.5 -101.5 -23.5zM298 74.999c24 0 45.5 4.66699 64.5 14s35.167 22 48.5 38s23.5 34.667 30.5 56s10.5 44 10.5 68s-3.5 46.5 -10.5 67.5
s-17.167 39.5 -30.5 55.5s-29.5 28.5 -48.5 37.5s-40.5 13.5 -64.5 13.5c-26 0 -48.667 -4.5 -68 -13.5s-35.333 -21.5 -48 -37.5s-22.167 -34.5 -28.5 -55.5s-9.5 -43.5 -9.5 -67.5s3.16699 -46.667 9.5 -68s15.833 -40 28.5 -56s28.667 -28.667 48 -38s42 -14 68 -14z
M602 749.999h100v-80l-40 -101h-60v181z" />
    <glyph glyph-name="Dcroat" unicode="&#x110;" horiz-adv-x="764" 
d="M717 378c0 -52 -8.83301 -100.999 -26.5 -146.999s-42.834 -86 -75.501 -120s-72.334 -61 -119.001 -81s-99.334 -30 -158.001 -30h-233v340h-90v90h90v320h233c58.667 0 111.334 -9.83301 158.001 -29.5s86.334 -46.334 119.001 -80.001s57.834 -73 75.501 -118
s26.5 -93.167 26.5 -144.5zM335 90.001c41.333 0 78.833 7.50098 112.5 22.501s62.334 35.5 86.001 61.5s41.834 56.5 54.501 91.5s19 72.5 19 112.5c0 38.667 -6.33301 75.167 -19 109.5s-30.834 64.166 -54.501 89.499s-52.334 45.5 -86.001 60.5
s-71.167 22.5 -112.5 22.5h-120v-230h90v-90h-90v-250h120z" />
    <glyph glyph-name="dcroat" unicode="&#x111;" horiz-adv-x="626" 
d="M452 78c-19.333 -27.333 -43.5 -48.834 -72.5 -64.501s-62.833 -23.5 -101.5 -23.5c-36.667 0 -69.5 6.83301 -98.5 20.5s-53.5 32.334 -73.5 56.001s-35.333 51.334 -46 83.001s-16 65.5 -16 101.5s5.33301 69.667 16 101s26 58.666 46 81.999s44.5 41.833 73.5 55.5
s61.833 20.5 98.5 20.5c38.667 0 72.5 -7.83301 101.5 -23.5s53.167 -37.167 72.5 -64.5v158h-142v85h142v85h100v-85h85v-85h-85v-580h-90zM298 74.999c24 0 45.5 4.66699 64.5 14s35.167 22 48.5 38s23.5 34.667 30.5 56s10.5 44 10.5 68s-3.5 46.5 -10.5 67.5
s-17.167 39.5 -30.5 55.5s-29.5 28.5 -48.5 37.5s-40.5 13.5 -64.5 13.5c-26 0 -48.667 -4.5 -68 -13.5s-35.333 -21.5 -48 -37.5s-22.167 -34.5 -28.5 -55.5s-9.5 -43.5 -9.5 -67.5s3.16699 -46.667 9.5 -68s15.833 -40 28.5 -56s28.667 -28.667 48 -38s42 -14 68 -14z" />
    <glyph glyph-name="Emacron" unicode="&#x112;" horiz-adv-x="580" 
d="M95 750h431v-90h-321v-230h291v-90h-291v-250h321v-90h-431v750zM182 895h250v-90h-250v90z" />
    <glyph glyph-name="emacron" unicode="&#x113;" horiz-adv-x="565" 
d="M303 -10c-42.667 0 -80.167 6.5 -112.5 19.5s-59.333 31 -81 54s-38 50.5 -49 82.5s-16.5 67 -16.5 105c0 36 5.33301 69.667 16 101s26.5 58.666 47.5 81.999s46.833 41.833 77.5 55.5s66 20.5 106 20.5s74.5 -5.5 103.5 -16.5s52.833 -26.333 71.5 -46
s32.334 -43 41.001 -70s13 -56.167 13 -87.5c0 -8 -0.166992 -15.167 -0.5 -21.5s-0.833008 -12.166 -1.5 -17.499s-1.33398 -10.333 -2.00098 -15h-372c2.66699 -49.333 17.167 -88.333 43.5 -117s64.833 -43 115.5 -43c28.667 0 52.167 3.16699 70.5 9.5
s32.833 13.5 43.5 21.5c12 8.66699 21.333 18.667 28 30h65v-65c-10.667 -15.333 -25.667 -29 -45 -41c-16.667 -11.333 -38 -21 -64 -29s-58.667 -12 -98 -12zM422 311c0 32.667 -10.666 59.832 -31.999 81.499s-54 32.5 -98 32.5c-44.667 0 -77.834 -10.667 -99.501 -32
s-36.167 -48.666 -43.5 -81.999h273zM163.001 709.998h250v-90h-250v90z" />
    <glyph glyph-name="Ebreve" unicode="&#x114;" horiz-adv-x="580" 
d="M95 750h431v-90h-321v-230h291v-90h-291v-250h321v-90h-431v750zM312 785c-28.667 0 -51.668 3.33105 -69.001 9.99805s-31 14.334 -41 23.001c-10.667 9.33301 -18.334 20 -23.001 32v70h70c2 -10 5.66699 -18.667 11 -26c4 -7.33301 10.167 -13.5 18.5 -18.5
s19.5 -7.5 33.5 -7.5c14.667 0 25.834 2.66699 33.501 8s13.5 11.333 17.5 18c4.66699 7.33301 7.33398 16 8.00098 26h70v-70c-4 -12 -11.333 -22.667 -22 -32c-10 -9.33301 -23.333 -17.166 -40 -23.499s-39 -9.5 -67 -9.5z" />
    <glyph glyph-name="ebreve" unicode="&#x115;" horiz-adv-x="565" 
d="M303 -10c-42.667 0 -80.167 6.5 -112.5 19.5s-59.333 31 -81 54s-38 50.5 -49 82.5s-16.5 67 -16.5 105c0 36 5.33301 69.667 16 101s26.5 58.666 47.5 81.999s46.833 41.833 77.5 55.5s66 20.5 106 20.5s74.5 -5.5 103.5 -16.5s52.833 -26.333 71.5 -46
s32.334 -43 41.001 -70s13 -56.167 13 -87.5c0 -8 -0.166992 -15.167 -0.5 -21.5s-0.833008 -12.166 -1.5 -17.499s-1.33398 -10.333 -2.00098 -15h-372c2.66699 -49.333 17.167 -88.333 43.5 -117s64.833 -43 115.5 -43c28.667 0 52.167 3.16699 70.5 9.5
s32.833 13.5 43.5 21.5c12 8.66699 21.333 18.667 28 30h65v-65c-10.667 -15.333 -25.667 -29 -45 -41c-16.667 -11.333 -38 -21 -64 -29s-58.667 -12 -98 -12zM422 311c0 32.667 -10.666 59.832 -31.999 81.499s-54 32.5 -98 32.5c-44.667 0 -77.834 -10.667 -99.501 -32
s-36.167 -48.666 -43.5 -81.999h273zM288.001 584.998c-28.667 0 -51.668 3.33105 -69.001 9.99805s-31 14.334 -41 23.001c-10.667 9.33301 -18.334 20 -23.001 32v70h70c2 -10 5.66699 -18.667 11 -26c4 -7.33301 10.167 -13.5 18.5 -18.5s19.5 -7.5 33.5 -7.5
c14.667 0 25.834 2.66699 33.501 8s13.5 11.333 17.5 18c4.66699 7.33301 7.33398 16 8.00098 26h70v-70c-4 -12 -11.333 -22.667 -22 -32c-10 -9.33301 -23.333 -17.166 -40 -23.499s-39 -9.5 -67 -9.5z" />
    <glyph glyph-name="Edotaccent" unicode="&#x116;" horiz-adv-x="580" 
d="M95 750h431v-90h-321v-230h291v-90h-291v-250h321v-90h-431v750zM258 915h110v-110h-110v110z" />
    <glyph glyph-name="edotaccent" unicode="&#x117;" horiz-adv-x="565" 
d="M303 -10c-42.667 0 -80.167 6.5 -112.5 19.5s-59.333 31 -81 54s-38 50.5 -49 82.5s-16.5 67 -16.5 105c0 36 5.33301 69.667 16 101s26.5 58.666 47.5 81.999s46.833 41.833 77.5 55.5s66 20.5 106 20.5s74.5 -5.5 103.5 -16.5s52.833 -26.333 71.5 -46
s32.334 -43 41.001 -70s13 -56.167 13 -87.5c0 -8 -0.166992 -15.167 -0.5 -21.5s-0.833008 -12.166 -1.5 -17.499s-1.33398 -10.333 -2.00098 -15h-372c2.66699 -49.333 17.167 -88.333 43.5 -117s64.833 -43 115.5 -43c28.667 0 52.167 3.16699 70.5 9.5
s32.833 13.5 43.5 21.5c12 8.66699 21.333 18.667 28 30h65v-65c-10.667 -15.333 -25.667 -29 -45 -41c-16.667 -11.333 -38 -21 -64 -29s-58.667 -12 -98 -12zM422 311c0 32.667 -10.666 59.832 -31.999 81.499s-54 32.5 -98 32.5c-44.667 0 -77.834 -10.667 -99.501 -32
s-36.167 -48.666 -43.5 -81.999h273zM234.001 719.998h110v-110h-110v110z" />
    <glyph glyph-name="Eogonek" unicode="&#x118;" horiz-adv-x="580" 
d="M395 -78c0 18 5.16699 34.332 15.5 48.999s22.166 24.334 35.499 29.001h-351v750h431v-90h-321v-230h291v-90h-291v-250h321v-90c-8 -1.33301 -15.333 -4 -22 -8c-6 -3.33301 -11.167 -8.33301 -15.5 -15s-6.5 -16 -6.5 -28s3 -21.5 9 -28.5s12.667 -12.167 20 -15.5
c8.66699 -4 18.334 -6.33301 29.001 -7v-70h-70c-14 3.33301 -26.333 9 -37 17c-10.667 7.33301 -19.667 17 -27 29s-11 28 -11 48z" />
    <glyph glyph-name="eogonek" unicode="&#x119;" horiz-adv-x="565" 
d="M492 -172h-70.001c-14 3.33301 -26.333 9 -37 17c-10.667 7.33301 -19.667 17 -27 29s-11 28 -11 48c0 26.667 11 52 33 76c-23.333 -5.33301 -49 -8 -77 -8c-42.667 0 -80.167 6.5 -112.5 19.5s-59.333 31 -81 54s-38 50.5 -49 82.5s-16.5 67 -16.5 105
c0 36 5.33301 69.667 16 101s26.5 58.666 47.5 81.999s46.833 41.833 77.5 55.5s66 20.5 106 20.5s74.5 -5.5 103.5 -16.5s52.833 -26.333 71.5 -46s32.334 -43 41.001 -70s13 -56.167 13 -87.5c0 -8 -0.166992 -15.167 -0.5 -21.5s-0.833008 -12.166 -1.5 -17.499
s-1.33398 -10.333 -2.00098 -15h-372c2.66699 -49.333 17.167 -88.333 43.5 -117s64.833 -43 115.5 -43c28.667 0 52.167 3.16699 70.5 9.5s32.833 13.5 43.5 21.5c12 8.66699 21.333 18.667 28 30h65v-65c-1.33301 -2 -3 -4.33301 -5 -7s-4.5 -5.5 -7.5 -8.5
s-6.5 -6.16699 -10.5 -9.5c-17.333 -16.667 -30.5 -32.667 -39.5 -48s-13.5 -32 -13.5 -50c0 -12 3 -21.5 9 -28.5s12.667 -12.167 20 -15.5c8.66699 -4 18.334 -6.33301 29.001 -7v-70zM421.999 311c0 32.667 -10.666 59.832 -31.999 81.499s-54 32.5 -98 32.5
c-44.667 0 -77.834 -10.667 -99.501 -32s-36.167 -48.666 -43.5 -81.999h273z" />
    <glyph glyph-name="Ecaron" unicode="&#x11a;" horiz-adv-x="580" 
d="M95 750h431v-90h-321v-230h291v-90h-291v-250h321v-90h-431v750zM273 795l-96 80v60h60l80 -67l74 67h60v-60l-88 -80h-90z" />
    <glyph glyph-name="ecaron" unicode="&#x11b;" horiz-adv-x="565" 
d="M244 610l-96 80v60h60l80 -67l74 67h60v-60l-88 -80h-90zM303 -10c-42.667 0 -80.167 6.5 -112.5 19.5s-59.333 31 -81 54s-38 50.5 -49 82.5s-16.5 67 -16.5 105c0 36 5.33301 69.667 16 101s26.5 58.666 47.5 81.999s46.833 41.833 77.5 55.5s66 20.5 106 20.5
s74.5 -5.5 103.5 -16.5s52.833 -26.333 71.5 -46s32.334 -43 41.001 -70s13 -56.167 13 -87.5c0 -8 -0.166992 -15.167 -0.5 -21.5s-0.833008 -12.166 -1.5 -17.499s-1.33398 -10.333 -2.00098 -15h-372c2.66699 -49.333 17.167 -88.333 43.5 -117s64.833 -43 115.5 -43
c28.667 0 52.167 3.16699 70.5 9.5s32.833 13.5 43.5 21.5c12 8.66699 21.333 18.667 28 30h65v-65c-10.667 -15.333 -25.667 -29 -45 -41c-16.667 -11.333 -38 -21 -64 -29s-58.667 -12 -98 -12zM422 311c0 32.667 -10.666 59.832 -31.999 81.499s-54 32.5 -98 32.5
c-44.667 0 -77.834 -10.667 -99.501 -32s-36.167 -48.666 -43.5 -81.999h273z" />
    <glyph glyph-name="Gcircumflex" unicode="&#x11c;" horiz-adv-x="770" 
d="M427 -10c-58.667 0 -111.499 10.334 -158.499 31.001s-86.833 48.667 -119.5 84s-57.667 76.5 -75 123.5s-26 96.833 -26 149.5s8.66699 102.167 26 148.5s42.333 86.833 75 121.5s72.5 62 119.5 82s99.833 30 158.5 30c53.333 0 97.333 -6.33301 132 -19
s62.334 -26.334 83.001 -41.001c24 -18 42.333 -38.333 55 -61v-70h-80c-8.66699 18.667 -21.334 35.667 -38.001 51c-14.667 13.333 -33.834 25 -57.501 35s-54.167 15 -91.5 15c-44 0 -83 -7.66699 -117 -23s-62.5 -36.333 -85.5 -63s-40.333 -57.667 -52 -93
s-17.5 -73 -17.5 -113c0 -40.667 5.83301 -79 17.5 -115s29 -67.5 52 -94.5s51.5 -48.333 85.5 -64s73 -23.5 117 -23.5c40 0 73.667 3.83301 101 11.5s49.333 16.167 66 25.5v182h-210v90h320v-314l-16.5 -13.5c-11 -9 -28 -18.833 -51 -29.5s-52.167 -20.5 -87.5 -29.5
s-77 -13.5 -125 -13.5zM418.001 862.001l-77 -67h-60v60l92 80h90l92 -80v-60h-60z" />
    <glyph glyph-name="gcircumflex" unicode="&#x11d;" horiz-adv-x="626" 
d="M283 -260c-41.333 0 -75.6689 5.66406 -103.002 16.9971s-49.333 23.666 -66 36.999c-20 16 -35.333 34.333 -46 55v65h65c7.33301 -16 17.666 -30 30.999 -42c12 -11.333 27.333 -21.166 46 -29.499s42.667 -12.5 72 -12.5c56.667 0 99.334 17.5 128.001 52.5
s43 83.833 43 146.5v49c-19.333 -27.333 -43.5 -48.833 -72.5 -64.5s-62.833 -23.5 -101.5 -23.5c-36.667 0 -69.5 6.83301 -98.5 20.5s-53.5 32.334 -73.5 56.001s-35.333 51.334 -46 83.001s-16 65.5 -16 101.5s5.33301 69.667 16 101s26 58.833 46 82.5
s44.5 42.334 73.5 56.001s61.833 20.5 98.5 20.5c38.667 0 72.5 -7.83301 101.5 -23.5s53.167 -37.167 72.5 -64.5l10 77h90v-470c0 -44.667 -6.16699 -85 -18.5 -121s-30.166 -66.5 -53.499 -91.5s-51.666 -44.167 -84.999 -57.5s-71 -20 -113 -20zM298.997 74.9971
c24 0 45.5 4.66699 64.5 14s35.167 22 48.5 38s23.5 34.667 30.5 56s10.5 44 10.5 68s-3.5 46.667 -10.5 68s-17.167 39.833 -30.5 55.5s-29.5 28.167 -48.5 37.5s-40.5 14 -64.5 14c-26 0 -48.667 -4.66699 -68 -14s-35.333 -21.833 -48 -37.5s-22.167 -34.167 -28.5 -55.5
s-9.5 -44 -9.5 -68s3.16699 -46.667 9.5 -68s15.833 -40 28.5 -56s28.667 -28.667 48 -38s42 -14 68 -14zM312.997 676.997l-77 -67h-60v60l92 80h90l92 -80v-60h-60z" />
    <glyph glyph-name="Gbreve" unicode="&#x11e;" horiz-adv-x="770" 
d="M427 -10c-58.667 0 -111.499 10.334 -158.499 31.001s-86.833 48.667 -119.5 84s-57.667 76.5 -75 123.5s-26 96.833 -26 149.5s8.66699 102.167 26 148.5s42.333 86.833 75 121.5s72.5 62 119.5 82s99.833 30 158.5 30c53.333 0 97.333 -6.33301 132 -19
s62.334 -26.334 83.001 -41.001c24 -18 42.333 -38.333 55 -61v-70h-80c-8.66699 18.667 -21.334 35.667 -38.001 51c-14.667 13.333 -33.834 25 -57.501 35s-54.167 15 -91.5 15c-44 0 -83 -7.66699 -117 -23s-62.5 -36.333 -85.5 -63s-40.333 -57.667 -52 -93
s-17.5 -73 -17.5 -113c0 -40.667 5.83301 -79 17.5 -115s29 -67.5 52 -94.5s51.5 -48.333 85.5 -64s73 -23.5 117 -23.5c40 0 73.667 3.83301 101 11.5s49.333 16.167 66 25.5v182h-210v90h320v-314l-16.5 -13.5c-11 -9 -28 -18.833 -51 -29.5s-52.167 -20.5 -87.5 -29.5
s-77 -13.5 -125 -13.5zM428.001 785.001c-28.667 0 -51.668 3.33105 -69.001 9.99805s-31 14.334 -41 23.001c-10.667 9.33301 -18.334 20 -23.001 32v70h70c2 -10 5.66699 -18.667 11 -26c4 -7.33301 10.167 -13.5 18.5 -18.5s19.5 -7.5 33.5 -7.5
c14.667 0 25.834 2.66699 33.501 8s13.5 11.333 17.5 18c4.66699 7.33301 7.33398 16 8.00098 26h70v-70c-4 -12 -11.333 -22.667 -22 -32c-10 -9.33301 -23.333 -17.166 -40 -23.499s-39 -9.5 -67 -9.5z" />
    <glyph glyph-name="gbreve" unicode="&#x11f;" horiz-adv-x="626" 
d="M283 -260c-41.333 0 -75.6689 5.66406 -103.002 16.9971s-49.333 23.666 -66 36.999c-20 16 -35.333 34.333 -46 55v65h65c7.33301 -16 17.666 -30 30.999 -42c12 -11.333 27.333 -21.166 46 -29.499s42.667 -12.5 72 -12.5c56.667 0 99.334 17.5 128.001 52.5
s43 83.833 43 146.5v49c-19.333 -27.333 -43.5 -48.833 -72.5 -64.5s-62.833 -23.5 -101.5 -23.5c-36.667 0 -69.5 6.83301 -98.5 20.5s-53.5 32.334 -73.5 56.001s-35.333 51.334 -46 83.001s-16 65.5 -16 101.5s5.33301 69.667 16 101s26 58.833 46 82.5
s44.5 42.334 73.5 56.001s61.833 20.5 98.5 20.5c38.667 0 72.5 -7.83301 101.5 -23.5s53.167 -37.167 72.5 -64.5l10 77h90v-470c0 -44.667 -6.16699 -85 -18.5 -121s-30.166 -66.5 -53.499 -91.5s-51.666 -44.167 -84.999 -57.5s-71 -20 -113 -20zM298.997 74.9971
c24 0 45.5 4.66699 64.5 14s35.167 22 48.5 38s23.5 34.667 30.5 56s10.5 44 10.5 68s-3.5 46.667 -10.5 68s-17.167 39.833 -30.5 55.5s-29.5 28.167 -48.5 37.5s-40.5 14 -64.5 14c-26 0 -48.667 -4.66699 -68 -14s-35.333 -21.833 -48 -37.5s-22.167 -34.167 -28.5 -55.5
s-9.5 -44 -9.5 -68s3.16699 -46.667 9.5 -68s15.833 -40 28.5 -56s28.667 -28.667 48 -38s42 -14 68 -14zM305.997 584.997c-28.667 0 -51.668 3.33105 -69.001 9.99805s-31 14.334 -41 23.001c-10.667 9.33301 -18.334 20 -23.001 32v70h70c2 -10 5.66699 -18.667 11 -26
c4 -7.33301 10.167 -13.5 18.5 -18.5s19.5 -7.5 33.5 -7.5c14.667 0 25.834 2.66699 33.501 8s13.5 11.333 17.5 18c4.66699 7.33301 7.33398 16 8.00098 26h70v-70c-4 -12 -11.333 -22.667 -22 -32c-10 -9.33301 -23.333 -17.166 -40 -23.499s-39 -9.5 -67 -9.5z" />
    <glyph glyph-name="Gdotaccent" unicode="&#x120;" horiz-adv-x="770" 
d="M427 -10c-58.667 0 -111.499 10.334 -158.499 31.001s-86.833 48.667 -119.5 84s-57.667 76.5 -75 123.5s-26 96.833 -26 149.5s8.66699 102.167 26 148.5s42.333 86.833 75 121.5s72.5 62 119.5 82s99.833 30 158.5 30c53.333 0 97.333 -6.33301 132 -19
s62.334 -26.334 83.001 -41.001c24 -18 42.333 -38.333 55 -61v-70h-80c-8.66699 18.667 -21.334 35.667 -38.001 51c-14.667 13.333 -33.834 25 -57.501 35s-54.167 15 -91.5 15c-44 0 -83 -7.66699 -117 -23s-62.5 -36.333 -85.5 -63s-40.333 -57.667 -52 -93
s-17.5 -73 -17.5 -113c0 -40.667 5.83301 -79 17.5 -115s29 -67.5 52 -94.5s51.5 -48.333 85.5 -64s73 -23.5 117 -23.5c40 0 73.667 3.83301 101 11.5s49.333 16.167 66 25.5v182h-210v90h320v-314l-16.5 -13.5c-11 -9 -28 -18.833 -51 -29.5s-52.167 -20.5 -87.5 -29.5
s-77 -13.5 -125 -13.5zM368.001 915.001h110v-110h-110v110z" />
    <glyph glyph-name="gdotaccent" unicode="&#x121;" horiz-adv-x="626" 
d="M283 -260c-41.333 0 -75.6689 5.66406 -103.002 16.9971s-49.333 23.666 -66 36.999c-20 16 -35.333 34.333 -46 55v65h65c7.33301 -16 17.666 -30 30.999 -42c12 -11.333 27.333 -21.166 46 -29.499s42.667 -12.5 72 -12.5c56.667 0 99.334 17.5 128.001 52.5
s43 83.833 43 146.5v49c-19.333 -27.333 -43.5 -48.833 -72.5 -64.5s-62.833 -23.5 -101.5 -23.5c-36.667 0 -69.5 6.83301 -98.5 20.5s-53.5 32.334 -73.5 56.001s-35.333 51.334 -46 83.001s-16 65.5 -16 101.5s5.33301 69.667 16 101s26 58.833 46 82.5
s44.5 42.334 73.5 56.001s61.833 20.5 98.5 20.5c38.667 0 72.5 -7.83301 101.5 -23.5s53.167 -37.167 72.5 -64.5l10 77h90v-470c0 -44.667 -6.16699 -85 -18.5 -121s-30.166 -66.5 -53.499 -91.5s-51.666 -44.167 -84.999 -57.5s-71 -20 -113 -20zM298.997 74.9971
c24 0 45.5 4.66699 64.5 14s35.167 22 48.5 38s23.5 34.667 30.5 56s10.5 44 10.5 68s-3.5 46.667 -10.5 68s-17.167 39.833 -30.5 55.5s-29.5 28.167 -48.5 37.5s-40.5 14 -64.5 14c-26 0 -48.667 -4.66699 -68 -14s-35.333 -21.833 -48 -37.5s-22.167 -34.167 -28.5 -55.5
s-9.5 -44 -9.5 -68s3.16699 -46.667 9.5 -68s15.833 -40 28.5 -56s28.667 -28.667 48 -38s42 -14 68 -14zM249.997 719.997h110v-110h-110v110z" />
    <glyph glyph-name="Gcommaaccent" unicode="&#x122;" horiz-adv-x="770" 
d="M427 -10c-58.667 0 -111.499 10.334 -158.499 31.001s-86.833 48.667 -119.5 84s-57.667 76.5 -75 123.5s-26 96.833 -26 149.5s8.66699 102.167 26 148.5s42.333 86.833 75 121.5s72.5 62 119.5 82s99.833 30 158.5 30c53.333 0 97.333 -6.33301 132 -19
s62.334 -26.334 83.001 -41.001c24 -18 42.333 -38.333 55 -61v-70h-80c-8.66699 18.667 -21.334 35.667 -38.001 51c-14.667 13.333 -33.834 25 -57.501 35s-54.167 15 -91.5 15c-44 0 -83 -7.66699 -117 -23s-62.5 -36.333 -85.5 -63s-40.333 -57.667 -52 -93
s-17.5 -73 -17.5 -113c0 -40.667 5.83301 -79 17.5 -115s29 -67.5 52 -94.5s51.5 -48.333 85.5 -64s73 -23.5 117 -23.5c40 0 73.667 3.83301 101 11.5s49.333 16.167 66 25.5v182h-210v90h320v-314l-16.5 -13.5c-11 -9 -28 -18.833 -51 -29.5s-52.167 -20.5 -87.5 -29.5
s-77 -13.5 -125 -13.5zM384.001 -51.999h95v-72l-40 -81h-55v153z" />
    <glyph glyph-name="gcommaaccent" unicode="&#x123;" horiz-adv-x="626" 
d="M283 -260c-41.333 0 -75.6689 5.66406 -103.002 16.9971s-49.333 23.666 -66 36.999c-20 16 -35.333 34.333 -46 55v65h65c7.33301 -16 17.666 -30 30.999 -42c12 -11.333 27.333 -21.166 46 -29.499s42.667 -12.5 72 -12.5c56.667 0 99.334 17.5 128.001 52.5
s43 83.833 43 146.5v49c-19.333 -27.333 -43.5 -48.833 -72.5 -64.5s-62.833 -23.5 -101.5 -23.5c-36.667 0 -69.5 6.83301 -98.5 20.5s-53.5 32.334 -73.5 56.001s-35.333 51.334 -46 83.001s-16 65.5 -16 101.5s5.33301 69.667 16 101s26 58.833 46 82.5
s44.5 42.334 73.5 56.001s61.833 20.5 98.5 20.5c38.667 0 72.5 -7.83301 101.5 -23.5s53.167 -37.167 72.5 -64.5l10 77h90v-470c0 -44.667 -6.16699 -85 -18.5 -121s-30.166 -66.5 -53.499 -91.5s-51.666 -44.167 -84.999 -57.5s-71 -20 -113 -20zM298.997 74.9971
c24 0 45.5 4.66699 64.5 14s35.167 22 48.5 38s23.5 34.667 30.5 56s10.5 44 10.5 68s-3.5 46.667 -10.5 68s-17.167 39.833 -30.5 55.5s-29.5 28.167 -48.5 37.5s-40.5 14 -64.5 14c-26 0 -48.667 -4.66699 -68 -14s-35.333 -21.833 -48 -37.5s-22.167 -34.167 -28.5 -55.5
s-9.5 -44 -9.5 -68s3.16699 -46.667 9.5 -68s15.833 -40 28.5 -56s28.667 -28.667 48 -38s42 -14 68 -14zM352.997 609.997h-95v72l40 81h55v-153z" />
    <glyph glyph-name="Hcircumflex" unicode="&#x124;" horiz-adv-x="770" 
d="M95 750h110v-320h360v320h110v-750h-110v340h-360v-340h-110v750zM386 862l-77 -67h-60v60l92 80h90l92 -80v-60h-60z" />
    <glyph glyph-name="hcircumflex" unicode="&#x125;" horiz-adv-x="583" 
d="M74 750h100.001v-313c6 8 13.667 16.333 23 25s20.166 16.5 32.499 23.5s26.333 12.833 42 17.5s33.167 7 52.5 7c34.667 0 64 -5.5 88 -16.5s43.5 -26.167 58.5 -45.5s26 -41.666 33 -66.999s10.5 -52.666 10.5 -81.999v-299h-100v293c0 40 -8.66699 72.167 -26 96.5
s-46.333 36.5 -87 36.5c-24 0 -44.167 -3.83301 -60.5 -11.5s-29.333 -17.834 -39 -30.501s-16.667 -26.834 -21 -42.501s-6.5 -31.5 -6.5 -47.5v-294h-100v750zM310.001 862l-77 -67h-60v60l92 80h90l92 -80v-60h-60z" />
    <glyph glyph-name="Hbar" unicode="&#x126;" horiz-adv-x="794" 
d="M217 0h-110v539h-90v90h90v121h110v-121h360v121h110v-121h90v-90h-90v-539h-110v340h-360v-340zM577 430v109h-360v-109h360z" />
    <glyph glyph-name="hbar" unicode="&#x127;" horiz-adv-x="582" 
d="M173 0h-99.999v580h-85v85h85v85h100v-85h142v-85h-142v-143c6 8 13.667 16.333 23 25s20.166 16.5 32.499 23.5s26.333 12.833 42 17.5s33.167 7 52.5 7c34.667 0 64 -5.5 88 -16.5s43.5 -26.167 58.5 -45.5s26 -41.666 33 -66.999s10.5 -52.666 10.5 -81.999v-299h-100
v293c0 40 -8.66699 72.167 -26 96.5s-46.333 36.5 -87 36.5c-24 0 -44.167 -3.83301 -60.5 -11.5s-29.333 -17.834 -39 -30.501s-16.667 -26.834 -21 -42.501s-6.5 -31.5 -6.5 -47.5v-294z" />
    <glyph glyph-name="Itilde" unicode="&#x128;" horiz-adv-x="300" 
d="M214 794c-13.333 0 -25 1.66699 -35 5s-19.167 6.83301 -27.5 10.5l-24 10.5c-7.66699 3.33301 -16.167 5 -25.5 5c-7.33301 0 -14.166 -1.83301 -20.499 -5.5s-10.833 -10.5 -13.5 -20.5h-70c0 35.333 8.5 62.166 25.5 80.499s40.5 27.5 70.5 27.5
c13.333 0 24.666 -1.66699 33.999 -5s17.666 -6.83301 24.999 -10.5l21 -10.5c6.66699 -3.33301 14.334 -5 23.001 -5c7.33301 0 14.333 1.33301 21 4s11 10 13 22h70c0 -35.333 -7 -62.166 -21 -80.499s-36 -27.5 -66 -27.5zM95 750h110v-750h-110v750z" />
    <glyph glyph-name="itilde" unicode="&#x129;" horiz-adv-x="248" 
d="M208 609c-13.333 0 -25 1.66699 -35 5s-19.167 6.83301 -27.5 10.5l-24 10.5c-7.66699 3.33301 -16.167 5 -25.5 5c-7.33301 0 -14.166 -1.83301 -20.499 -5.5s-10.833 -10.5 -13.5 -20.5h-70c0 35.333 8.5 62.166 25.5 80.499s40.5 27.5 70.5 27.5
c13.333 0 24.666 -1.66699 33.999 -5s17.666 -6.83301 24.999 -10.5l21 -10.5c6.66699 -3.33301 14.334 -5 23.001 -5c7.33301 0 14.333 1.33301 21 4s11 10 13 22h70c0 -35.333 -7 -62.166 -21 -80.499s-36 -27.5 -66 -27.5zM74 500h100v-500h-100v500z" />
    <glyph glyph-name="Imacron" unicode="&#x12a;" horiz-adv-x="300" 
d="M25 895h250v-90h-250v90zM95 750h110v-750h-110v750z" />
    <glyph glyph-name="imacron" unicode="&#x12b;" horiz-adv-x="248" 
d="M74 500h100v-500h-100v500zM-1 710h250v-90h-250v90z" />
    <glyph glyph-name="Ibreve" unicode="&#x12c;" horiz-adv-x="300" 
d="M152 785c-28.667 0 -51.668 3.33105 -69.001 9.99805s-31 14.334 -41 23.001c-10.667 9.33301 -18.334 20 -23.001 32v70h70c2 -10 5.66699 -18.667 11 -26c4 -7.33301 10.167 -13.5 18.5 -18.5s19.5 -7.5 33.5 -7.5c14.667 0 25.834 2.66699 33.501 8
s13.5 11.333 17.5 18c4.66699 7.33301 7.33398 16 8.00098 26h70v-70c-4 -12 -11.333 -22.667 -22 -32c-10 -9.33301 -23.333 -17.166 -40 -23.499s-39 -9.5 -67 -9.5zM94.999 749.998h110v-750h-110v750z" />
    <glyph glyph-name="ibreve" unicode="&#x12d;" horiz-adv-x="248" 
d="M126 585c-28.667 0 -51.668 3.33105 -69.001 9.99805s-31 14.334 -41 23.001c-10.667 9.33301 -18.334 20 -23.001 32v70h70c2 -10 5.66699 -18.667 11 -26c4 -7.33301 10.167 -13.5 18.5 -18.5s19.5 -7.5 33.5 -7.5c14.667 0 25.834 2.66699 33.501 8
s13.5 11.333 17.5 18c4.66699 7.33301 7.33398 16 8.00098 26h70v-70c-4 -12 -11.333 -22.667 -22 -32c-10 -9.33301 -23.333 -17.166 -40 -23.499s-39 -9.5 -67 -9.5zM73.999 499.998h100v-500h-100v500z" />
    <glyph glyph-name="Iogonek" unicode="&#x12e;" horiz-adv-x="300" 
d="M74 -78c0 18 5.16699 34.332 15.5 48.999s22.166 24.334 35.499 29.001h-30v750h110v-750c-8 -1.33301 -15.333 -4 -22 -8c-6 -3.33301 -11.167 -8.33301 -15.5 -15s-6.5 -16 -6.5 -28s3 -21.5 9 -28.5s12.667 -12.167 20 -15.5c8.66699 -4 18.334 -6.33301 29.001 -7
v-70h-70c-14 3.33301 -26.333 9 -37 17c-10.667 7.33301 -19.667 17 -27 29s-11 28 -11 48z" />
    <glyph glyph-name="iogonek" unicode="&#x12f;" horiz-adv-x="248" 
d="M69 720h110v-110h-110v110zM43 -78c0 18 5.16699 34.332 15.5 48.999s22.166 24.334 35.499 29.001h-20v500h100v-500c-8 -1.33301 -15.333 -4 -22 -8c-6 -3.33301 -11.167 -8.33301 -15.5 -15s-6.5 -16 -6.5 -28s3 -21.5 9 -28.5s12.667 -12.167 20 -15.5
c8.66699 -4 18.334 -6.33301 29.001 -7v-70h-70c-14 3.33301 -26.333 9 -37 17c-10.667 7.33301 -19.667 17 -27 29s-11 28 -11 48z" />
    <glyph glyph-name="Idotaccent" unicode="&#x130;" horiz-adv-x="300" 
d="M95 750h110v-750h-110v750zM95 915h110v-110h-110v110z" />
    <glyph glyph-name="dotlessi" unicode="&#x131;" horiz-adv-x="248" 
d="M74 500h100v-500h-100v500z" />
    <glyph glyph-name="IJ" unicode="&#x132;" horiz-adv-x="700" 
d="M95 750h110v-750h-110v750zM430 -10c-30.667 0 -55.999 3.66797 -75.999 11.001s-35.667 15.666 -47 24.999c-14 10.667 -24.667 22.667 -32 36v71h80c2.66699 -10 7 -18.667 13 -26c5.33301 -7.33301 12.5 -13.666 21.5 -18.999s20.833 -8 35.5 -8
c12 0 22.833 1.33301 32.5 4s17.667 8.16699 24 16.5s11.166 19.833 14.499 34.5s5 34 5 58v557h110v-556c0 -66.667 -14.167 -117.334 -42.5 -152.001s-74.5 -52 -138.5 -52z" />
    <glyph glyph-name="ij" unicode="&#x133;" horiz-adv-x="518" 
d="M74 500h100v-500h-100v500zM69 720h110v-110h-110v110zM295 -260c-20 0 -37.333 1.99902 -52 5.99902s-27 8.83301 -37 14.5s-18.167 11.834 -24.5 18.501s-10.833 13 -13.5 19v65h65c2 -6 5.33301 -11.667 10 -17c4.66699 -4 10.5 -7.66699 17.5 -11s16.167 -5 27.5 -5
c23.333 0 38.5 6.66699 45.5 20s10.5 34.333 10.5 63v587h100v-587c0 -54 -11 -96.333 -33 -127s-60.667 -46 -116 -46zM339 719.999h110v-110h-110v110z" />
    <glyph glyph-name="Jcircumflex" unicode="&#x134;" horiz-adv-x="448" 
d="M303 862l-77 -67h-60v60l92 80h90l92 -80v-60h-60zM178 -10c-30.667 0 -55.999 3.66797 -75.999 11.001s-35.667 15.666 -47 24.999c-14 10.667 -24.667 22.667 -32 36v71h80c2.66699 -10 7 -18.667 13 -26c5.33301 -7.33301 12.5 -13.666 21.5 -18.999
s20.833 -8 35.5 -8c12 0 22.833 1.33301 32.5 4s17.667 8.16699 24 16.5s11.166 19.833 14.499 34.5s5 34 5 58v557h110v-556c0 -66.667 -14.167 -117.334 -42.5 -152.001s-74.5 -52 -138.5 -52z" />
    <glyph glyph-name="jcircumflex" unicode="&#x135;" horiz-adv-x="248" 
d="M124 677l-77 -67h-60v60l92 80h90l92 -80v-60h-60zM25 -260c-20 0 -37.333 1.99902 -52 5.99902s-27 8.83301 -37 14.5s-18.167 11.834 -24.5 18.501s-10.833 13 -13.5 19v65h65c2 -6 5.33301 -11.667 10 -17c4.66699 -4 10.5 -7.66699 17.5 -11s16.167 -5 27.5 -5
c23.333 0 38.5 6.66699 45.5 20s10.5 34.333 10.5 63v587h100v-587c0 -54 -11 -96.333 -33 -127s-60.667 -46 -116 -46z" />
    <glyph glyph-name="Kcommaaccent" unicode="&#x136;" horiz-adv-x="649" 
d="M315 -52h95v-72l-40 -81h-55v153zM205 0h-110v750h110v-357l327 357h70v-70l-276 -296l299 -309v-75h-75l-345 359v-359z" />
    <glyph glyph-name="kcommaaccent" unicode="&#x137;" horiz-adv-x="512" 
d="M74 750h100v-475l224 225h65v-65l-175 -171l195 -194v-70h-70l-239 243v-243h-100v750zM233 -52h95v-72l-40 -81h-55v153z" />
    <glyph glyph-name="Lacute" unicode="&#x139;" horiz-adv-x="547" 
d="M95 750h110v-660h321v-90h-431v750zM103 865l92 80h90v-60l-92 -80h-90v60z" />
    <glyph glyph-name="lacute" unicode="&#x13a;" horiz-adv-x="248" 
d="M79 865l92 80h90v-60l-92 -80h-90v60zM74 750h100v-750h-100v750z" />
    <glyph glyph-name="Lcommaaccent" unicode="&#x13b;" horiz-adv-x="547" 
d="M95 750h110v-660h321v-90h-431v750zM287 -52h95v-72l-40 -81h-55v153z" />
    <glyph glyph-name="lcommaaccent" unicode="&#x13c;" horiz-adv-x="248" 
d="M80 -52h95v-72l-40 -81h-55v153zM74 750h100v-750h-100v750z" />
    <glyph glyph-name="Lcaron" unicode="&#x13d;" horiz-adv-x="556" 
d="M406 752h100v-80l-40 -101h-60v181zM95 750h110v-660h321v-90h-431v750z" />
    <glyph glyph-name="lcaron" unicode="&#x13e;" horiz-adv-x="260" 
d="M74 750h100v-750h-100v750zM224 750h100v-80l-40 -101h-60v181z" />
    <glyph glyph-name="Ldot" unicode="&#x13f;" horiz-adv-x="549" 
d="M366 418h104v-102h-104v102zM95 750h110v-660h321v-90h-431v750z" />
    <glyph glyph-name="ldot" unicode="&#x140;" horiz-adv-x="383" 
d="M264 360h104v-102h-104v102zM74 750h100v-750h-100v750z" />
    <glyph glyph-name="Lslash" unicode="&#x141;" horiz-adv-x="559" 
d="M538 0h-431v251l-90 -44v90l90 44v409h110v-355l101 49v-90l-101 -49v-215h321v-90z" />
    <glyph glyph-name="lslash" unicode="&#x142;" horiz-adv-x="327" 
d="M209 291v-291h-100v240l-90 -47v85l90 47v425h100v-374l90 47v-85z" />
    <glyph glyph-name="Nacute" unicode="&#x143;" horiz-adv-x="770" 
d="M95 750h100l380 -573v573h100v-750h-100l-380 565v-565h-100v750zM353 865l92 80h90v-60l-92 -80h-90v60z" />
    <glyph glyph-name="nacute" unicode="&#x144;" horiz-adv-x="583" 
d="M74 500l90.002 -0.000976562l7 -67c6 8.66699 13.667 17.5 23 26.5s20.166 17.333 32.499 25s26.666 13.834 42.999 18.501s34.5 7 54.5 7c34.667 0 64 -5.5 88 -16.5s43.5 -26.167 58.5 -45.5s26 -41.666 33 -66.999s10.5 -52.666 10.5 -81.999v-299h-100v293
c0 40 -8.66699 72.167 -26 96.5s-46.333 36.5 -87 36.5c-24 0 -44.167 -3.83301 -60.5 -11.5s-29.333 -17.834 -39 -30.501s-16.667 -26.834 -21 -42.501s-6.5 -31.5 -6.5 -47.5v-294h-100v500zM232.002 669.999l92 80h90v-60l-92 -80h-90v60z" />
    <glyph glyph-name="Ncommaaccent" unicode="&#x145;" horiz-adv-x="770" 
d="M95 750h100l380 -573v573h100v-750h-100l-380 565v-565h-100v750zM325 -52h95v-72l-40 -81h-55v153z" />
    <glyph glyph-name="ncommaaccent" unicode="&#x146;" horiz-adv-x="583" 
d="M74 500l90.002 -0.000976562l7 -67c6 8.66699 13.667 17.5 23 26.5s20.166 17.333 32.499 25s26.666 13.834 42.999 18.501s34.5 7 54.5 7c34.667 0 64 -5.5 88 -16.5s43.5 -26.167 58.5 -45.5s26 -41.666 33 -66.999s10.5 -52.666 10.5 -81.999v-299h-100v293
c0 40 -8.66699 72.167 -26 96.5s-46.333 36.5 -87 36.5c-24 0 -44.167 -3.83301 -60.5 -11.5s-29.333 -17.834 -39 -30.501s-16.667 -26.834 -21 -42.501s-6.5 -31.5 -6.5 -47.5v-294h-100v500zM247.002 -52.001h95v-72l-40 -81h-55v153z" />
    <glyph glyph-name="Ncaron" unicode="&#x147;" horiz-adv-x="770" 
d="M95 750h100l380 -573v573h100v-750h-100l-380 565v-565h-100v750zM343 795l-96 80v60h60l80 -67l74 67h60v-60l-88 -80h-90z" />
    <glyph glyph-name="ncaron" unicode="&#x148;" horiz-adv-x="583" 
d="M74 500l90.002 -0.000976562l7 -67c6 8.66699 13.667 17.5 23 26.5s20.166 17.333 32.499 25s26.666 13.834 42.999 18.501s34.5 7 54.5 7c34.667 0 64 -5.5 88 -16.5s43.5 -26.167 58.5 -45.5s26 -41.666 33 -66.999s10.5 -52.666 10.5 -81.999v-299h-100v293
c0 40 -8.66699 72.167 -26 96.5s-46.333 36.5 -87 36.5c-24 0 -44.167 -3.83301 -60.5 -11.5s-29.333 -17.834 -39 -30.501s-16.667 -26.834 -21 -42.501s-6.5 -31.5 -6.5 -47.5v-294h-100v500zM241.002 609.999l-96 80v60h60l80 -67l74 67h60v-60l-88 -80h-90z" />
    <glyph glyph-name="napostrophe" unicode="&#x149;" horiz-adv-x="583" 
d="M74 750h100v-80l-40 -101h-60v181zM74 500l90.002 -0.000976562l7 -67c6 8.66699 13.667 17.5 23 26.5s20.166 17.333 32.499 25s26.666 13.834 42.999 18.501s34.5 7 54.5 7c34.667 0 64 -5.5 88 -16.5s43.5 -26.167 58.5 -45.5s26 -41.666 33 -66.999
s10.5 -52.666 10.5 -81.999v-299h-100v293c0 40 -8.66699 72.167 -26 96.5s-46.333 36.5 -87 36.5c-24 0 -44.167 -3.83301 -60.5 -11.5s-29.333 -17.834 -39 -30.501s-16.667 -26.834 -21 -42.501s-6.5 -31.5 -6.5 -47.5v-294h-100v500z" />
    <glyph glyph-name="Eng" unicode="&#x14a;" horiz-adv-x="770" 
d="M675 750l0.000976562 -837c0 -54 -11 -96.333 -33 -127s-60.667 -46 -116 -46c-20 0 -38 2.5 -54 7.5s-30.167 11 -42.5 18s-22.333 14.333 -30 22s-12.834 14.5 -15.501 20.5v70h80c2 -8 5.66699 -15.333 11 -22c4.66699 -6 11 -11.167 19 -15.5s18.667 -6.5 32 -6.5
c19.333 0 32.333 6 39 18s10 32.333 10 61v87l-380 565v-565h-100v750h100l380 -573v573h100z" />
    <glyph glyph-name="eng" unicode="&#x14b;" horiz-adv-x="583" 
d="M324 510c34.667 0 64.0029 -5.50098 88.0029 -16.501s43.5 -26.167 58.5 -45.5s26 -41.666 33 -66.999s10.5 -52.666 10.5 -81.999v-356c0 -63.333 -15 -113 -45 -149s-80.333 -54 -151 -54v90c39.333 0 65.166 9 77.499 27s18.5 46.667 18.5 86v350
c0 40 -8.66699 72.167 -26 96.5s-46.333 36.5 -87 36.5c-24 0 -44.167 -3.83301 -60.5 -11.5s-29.333 -17.834 -39 -30.501s-16.667 -26.834 -21 -42.501s-6.5 -31.5 -6.5 -47.5v-294h-100v500h90l7 -67c6 8.66699 13.667 17.5 23 26.5s20.166 17.333 32.499 25
s26.666 13.834 42.999 18.501s34.5 7 54.5 7z" />
    <glyph glyph-name="Omacron" unicode="&#x14c;" horiz-adv-x="840" 
d="M420 -10c-56 0 -106.833 9.83301 -152.5 29.5s-84.667 46.667 -117 81s-57.5 75.166 -75.5 122.499s-27 99 -27 155c0 55.333 9 106.333 27 153s43.167 87 75.5 121s71.333 60.5 117 79.5s96.5 28.5 152.5 28.5s106.833 -9.5 152.5 -28.5s84.667 -45.5 117 -79.5
s57.5 -74.333 75.5 -121s27 -97.667 27 -153c0 -56 -9 -107.667 -27 -155s-43.167 -88.166 -75.5 -122.499s-71.333 -61.333 -117 -81s-96.5 -29.5 -152.5 -29.5zM420 80c40 0 76.167 7.33301 108.5 22s59.833 35.167 82.5 61.5s40.167 57.833 52.5 94.5
s18.5 76.667 18.5 120c0 42.667 -6.16699 81.834 -18.5 117.501s-29.833 66.5 -52.5 92.5s-50.167 46.167 -82.5 60.5s-68.5 21.5 -108.5 21.5s-76.167 -7.16699 -108.5 -21.5s-59.833 -34.5 -82.5 -60.5s-40.167 -56.833 -52.5 -92.5s-18.5 -74.834 -18.5 -117.501
c0 -43.333 6.16699 -83.333 18.5 -120s29.833 -68.167 52.5 -94.5s50.167 -46.833 82.5 -61.5s68.5 -22 108.5 -22zM287 895h250v-90h-250v90z" />
    <glyph glyph-name="omacron" unicode="&#x14d;" horiz-adv-x="594" 
d="M297 -10c-40 0 -75.667 6.83301 -107 20.5s-58 32.334 -80 56.001s-38.667 51.334 -50 83.001s-17 65.5 -17 101.5s5.66699 69.667 17 101s28 58.666 50 81.999s48.667 41.833 80 55.5s67 20.5 107 20.5s75.667 -6.83301 107 -20.5s57.833 -32.167 79.5 -55.5
s38.334 -50.666 50.001 -81.999s17.5 -65 17.5 -101s-5.83301 -69.833 -17.5 -101.5s-28.334 -59.334 -50.001 -83.001s-48.167 -42.334 -79.5 -56.001s-67 -20.5 -107 -20.5zM297 75c26 0 48.667 4.66699 68 14s35.333 22 48 38s22.167 34.667 28.5 56s9.5 44 9.5 68
s-3.16699 46.5 -9.5 67.5s-15.833 39.333 -28.5 55s-28.667 28.167 -48 37.5s-42 14 -68 14s-48.667 -4.66699 -68 -14s-35.333 -21.833 -48 -37.5s-22.167 -34 -28.5 -55s-9.5 -43.5 -9.5 -67.5s3.16699 -46.667 9.5 -68s15.833 -40 28.5 -56s28.667 -28.667 48 -38
s42 -14 68 -14zM177 710h250v-90h-250v90z" />
    <glyph glyph-name="Obreve" unicode="&#x14e;" horiz-adv-x="840" 
d="M420 -10c-56 0 -106.833 9.83301 -152.5 29.5s-84.667 46.667 -117 81s-57.5 75.166 -75.5 122.499s-27 99 -27 155c0 55.333 9 106.333 27 153s43.167 87 75.5 121s71.333 60.5 117 79.5s96.5 28.5 152.5 28.5s106.833 -9.5 152.5 -28.5s84.667 -45.5 117 -79.5
s57.5 -74.333 75.5 -121s27 -97.667 27 -153c0 -56 -9 -107.667 -27 -155s-43.167 -88.166 -75.5 -122.499s-71.333 -61.333 -117 -81s-96.5 -29.5 -152.5 -29.5zM420 80c40 0 76.167 7.33301 108.5 22s59.833 35.167 82.5 61.5s40.167 57.833 52.5 94.5
s18.5 76.667 18.5 120c0 42.667 -6.16699 81.834 -18.5 117.501s-29.833 66.5 -52.5 92.5s-50.167 46.167 -82.5 60.5s-68.5 21.5 -108.5 21.5s-76.167 -7.16699 -108.5 -21.5s-59.833 -34.5 -82.5 -60.5s-40.167 -56.833 -52.5 -92.5s-18.5 -74.834 -18.5 -117.501
c0 -43.333 6.16699 -83.333 18.5 -120s29.833 -68.167 52.5 -94.5s50.167 -46.833 82.5 -61.5s68.5 -22 108.5 -22zM415 785c-28.667 0 -51.668 3.33105 -69.001 9.99805s-31 14.334 -41 23.001c-10.667 9.33301 -18.334 20 -23.001 32v70h70c2 -10 5.66699 -18.667 11 -26
c4 -7.33301 10.167 -13.5 18.5 -18.5s19.5 -7.5 33.5 -7.5c14.667 0 25.834 2.66699 33.501 8s13.5 11.333 17.5 18c4.66699 7.33301 7.33398 16 8.00098 26h70v-70c-4 -12 -11.333 -22.667 -22 -32c-10 -9.33301 -23.333 -17.166 -40 -23.499s-39 -9.5 -67 -9.5z" />
    <glyph glyph-name="obreve" unicode="&#x14f;" horiz-adv-x="594" 
d="M297 -10c-40 0 -75.667 6.83301 -107 20.5s-58 32.334 -80 56.001s-38.667 51.334 -50 83.001s-17 65.5 -17 101.5s5.66699 69.667 17 101s28 58.666 50 81.999s48.667 41.833 80 55.5s67 20.5 107 20.5s75.667 -6.83301 107 -20.5s57.833 -32.167 79.5 -55.5
s38.334 -50.666 50.001 -81.999s17.5 -65 17.5 -101s-5.83301 -69.833 -17.5 -101.5s-28.334 -59.334 -50.001 -83.001s-48.167 -42.334 -79.5 -56.001s-67 -20.5 -107 -20.5zM297 75c26 0 48.667 4.66699 68 14s35.333 22 48 38s22.167 34.667 28.5 56s9.5 44 9.5 68
s-3.16699 46.5 -9.5 67.5s-15.833 39.333 -28.5 55s-28.667 28.167 -48 37.5s-42 14 -68 14s-48.667 -4.66699 -68 -14s-35.333 -21.833 -48 -37.5s-22.167 -34 -28.5 -55s-9.5 -43.5 -9.5 -67.5s3.16699 -46.667 9.5 -68s15.833 -40 28.5 -56s28.667 -28.667 48 -38
s42 -14 68 -14zM291 585c-28.667 0 -51.668 3.33105 -69.001 9.99805s-31 14.334 -41 23.001c-10.667 9.33301 -18.334 20 -23.001 32v70h70c2 -10 5.66699 -18.667 11 -26c4 -7.33301 10.167 -13.5 18.5 -18.5s19.5 -7.5 33.5 -7.5c14.667 0 25.834 2.66699 33.501 8
s13.5 11.333 17.5 18c4.66699 7.33301 7.33398 16 8.00098 26h70v-70c-4 -12 -11.333 -22.667 -22 -32c-10 -9.33301 -23.333 -17.166 -40 -23.499s-39 -9.5 -67 -9.5z" />
    <glyph glyph-name="Ohungarumlaut" unicode="&#x150;" horiz-adv-x="840" 
d="M420 -10c-56 0 -106.833 9.83301 -152.5 29.5s-84.667 46.667 -117 81s-57.5 75.166 -75.5 122.499s-27 99 -27 155c0 55.333 9 106.333 27 153s43.167 87 75.5 121s71.333 60.5 117 79.5s96.5 28.5 152.5 28.5s106.833 -9.5 152.5 -28.5s84.667 -45.5 117 -79.5
s57.5 -74.333 75.5 -121s27 -97.667 27 -153c0 -56 -9 -107.667 -27 -155s-43.167 -88.166 -75.5 -122.499s-71.333 -61.333 -117 -81s-96.5 -29.5 -152.5 -29.5zM420 80c40 0 76.167 7.33301 108.5 22s59.833 35.167 82.5 61.5s40.167 57.833 52.5 94.5
s18.5 76.667 18.5 120c0 42.667 -6.16699 81.834 -18.5 117.501s-29.833 66.5 -52.5 92.5s-50.167 46.167 -82.5 60.5s-68.5 21.5 -108.5 21.5s-76.167 -7.16699 -108.5 -21.5s-59.833 -34.5 -82.5 -60.5s-40.167 -56.833 -52.5 -92.5s-18.5 -74.834 -18.5 -117.501
c0 -43.333 6.16699 -83.333 18.5 -120s29.833 -68.167 52.5 -94.5s50.167 -46.833 82.5 -61.5s68.5 -22 108.5 -22zM294 861l92 80h70v-60l-92 -80h-70v60zM466 861l92 80h70v-60l-92 -80h-70v60z" />
    <glyph glyph-name="ohungarumlaut" unicode="&#x151;" horiz-adv-x="594" 
d="M179 670l92 80h70v-60l-92 -80h-70v60zM351 670l92 80h70v-60l-92 -80h-70v60zM297 -10c-40 0 -75.667 6.83301 -107 20.5s-58 32.334 -80 56.001s-38.667 51.334 -50 83.001s-17 65.5 -17 101.5s5.66699 69.667 17 101s28 58.666 50 81.999s48.667 41.833 80 55.5
s67 20.5 107 20.5s75.667 -6.83301 107 -20.5s57.833 -32.167 79.5 -55.5s38.334 -50.666 50.001 -81.999s17.5 -65 17.5 -101s-5.83301 -69.833 -17.5 -101.5s-28.334 -59.334 -50.001 -83.001s-48.167 -42.334 -79.5 -56.001s-67 -20.5 -107 -20.5zM297 75
c26 0 48.667 4.66699 68 14s35.333 22 48 38s22.167 34.667 28.5 56s9.5 44 9.5 68s-3.16699 46.5 -9.5 67.5s-15.833 39.333 -28.5 55s-28.667 28.167 -48 37.5s-42 14 -68 14s-48.667 -4.66699 -68 -14s-35.333 -21.833 -48 -37.5s-22.167 -34 -28.5 -55
s-9.5 -43.5 -9.5 -67.5s3.16699 -46.667 9.5 -68s15.833 -40 28.5 -56s28.667 -28.667 48 -38s42 -14 68 -14z" />
    <glyph glyph-name="OE" unicode="&#x152;" horiz-adv-x="1012" 
d="M527 0c-16.667 -4 -33.834 -6.66602 -51.501 -7.99902s-36.167 -2 -55.5 -2c-56 0 -106.833 9.83301 -152.5 29.5s-84.667 46.667 -117 81s-57.5 75.166 -75.5 122.499s-27 99 -27 155c0 55.333 9 106.333 27 153s43.167 87 75.5 121s71.333 60.5 117 79.5
s96.5 28.5 152.5 28.5c19.333 0 37.833 -0.666992 55.5 -2s34.834 -4 51.501 -8h431v-90h-321v-230h291v-90h-291v-250h321v-90h-431zM158 378.001c0 -43.333 6.16895 -83.3311 18.502 -119.998s29.833 -68.167 52.5 -94.5s50.167 -46.833 82.5 -61.5s68.5 -22 108.5 -22
c19.333 0 38.166 1.16699 56.499 3.5s35.166 7.16602 50.499 14.499v558c-16 6 -32.833 9.83301 -50.5 11.5s-36.5 2.5 -56.5 2.5c-40 0 -76.167 -7.16699 -108.5 -21.5s-59.833 -34.5 -82.5 -60.5s-40.167 -56.833 -52.5 -92.5s-18.5 -74.834 -18.5 -117.501z" />
    <glyph glyph-name="oe" unicode="&#x153;" horiz-adv-x="972" 
d="M710 -10c-49.333 0 -91.5 8.33105 -126.5 24.998s-63.167 40 -84.5 70c-22 -29.333 -50 -52.5 -84 -69.5s-73.333 -25.5 -118 -25.5c-40 0 -75.667 6.83301 -107 20.5s-58 32.334 -80 56.001s-38.667 51.334 -50 83.001s-17 65.5 -17 101.5s5.66699 69.667 17 101
s28 58.666 50 81.999s48.667 41.833 80 55.5s67 20.5 107 20.5c45.333 0 85 -8.5 119 -25.5s61.667 -40.167 83 -69.5c21.333 29.333 48.5 52.5 81.5 69.5s72.167 25.5 117.5 25.5c40 0 74.5 -5.5 103.5 -16.5s52.833 -26.333 71.5 -46s32.334 -43 41.001 -70
s13 -56.167 13 -87.5c0 -8 -0.166992 -15.167 -0.5 -21.5s-0.833008 -12.166 -1.5 -17.499s-1.33398 -10.333 -2.00098 -15h-372c2.66699 -49.333 17.167 -88.333 43.5 -117s64.833 -43 115.5 -43c28.667 0 52.167 3.16699 70.5 9.5s32.833 13.5 43.5 21.5
c12 8.66699 21.333 18.667 28 30h65v-65c-10.667 -15.333 -25.667 -29 -45 -41c-16.667 -11.333 -38 -21 -64 -29s-58.667 -12 -98 -12zM297 74.998c26 0 48.667 4.66699 68 14s35.333 22 48 38s22.167 34.667 28.5 56s9.5 44 9.5 68s-3.16699 46.5 -9.5 67.5
s-15.833 39.333 -28.5 55s-28.667 28.167 -48 37.5s-42 14 -68 14s-48.667 -4.66699 -68 -14s-35.333 -21.833 -48 -37.5s-22.167 -34 -28.5 -55s-9.5 -43.5 -9.5 -67.5s3.16699 -46.667 9.5 -68s15.833 -40 28.5 -56s28.667 -28.667 48 -38s42 -14 68 -14zM829 310.998
c0 32.667 -10.666 59.832 -31.999 81.499s-54 32.5 -98 32.5c-44.667 0 -77.834 -10.667 -99.501 -32s-36.167 -48.666 -43.5 -81.999h273z" />
    <glyph glyph-name="Racute" unicode="&#x154;" horiz-adv-x="648" 
d="M95 0v750.001h211c38.667 0 73.667 -5 105 -15s58 -24.333 80 -43s38.833 -41.167 50.5 -67.5s17.5 -55.5 17.5 -87.5c0 -52.667 -13.5 -96.834 -40.5 -132.501s-63.5 -61.167 -109.5 -76.5l206 -253v-75h-75l-241 305h-94v-305h-110zM305 395.001
c44.667 0 79.833 12.5 105.5 37.5s38.5 58.5 38.5 100.5c0 16 -3.16699 31.5 -9.5 46.5s-15.5 28 -27.5 39s-27 19.833 -45 26.5s-38.667 10 -62 10h-100v-260h100zM240.999 865.001l92 80h90v-60l-92 -80h-90v60z" />
    <glyph glyph-name="racute" unicode="&#x155;" horiz-adv-x="448" 
d="M74 500l90.001 0.00195312l7 -66c13.333 22.667 31.666 41 54.999 55s52.333 21 87 21c36.667 0 65.167 -8 85.5 -24s33.166 -34.333 38.499 -55v-65h-65l-3.5 9.5c-2.33301 6.33301 -6.66602 13.166 -12.999 20.499s-15.333 14.166 -27 20.499s-27.167 9.5 -46.5 9.5
c-36 0 -63 -12.833 -81 -38.5s-27 -58.167 -27 -97.5v-290h-100v500zM192.001 670.002l92 80h90v-60l-92 -80h-90v60z" />
    <glyph glyph-name="Rcommaaccent" unicode="&#x156;" horiz-adv-x="648" 
d="M95 0v750.001h211c38.667 0 73.667 -5 105 -15s58 -24.333 80 -43s38.833 -41.167 50.5 -67.5s17.5 -55.5 17.5 -87.5c0 -52.667 -13.5 -96.834 -40.5 -132.501s-63.5 -61.167 -109.5 -76.5l206 -253v-75h-75l-241 305h-94v-305h-110zM305 395.001
c44.667 0 79.833 12.5 105.5 37.5s38.5 58.5 38.5 100.5c0 16 -3.16699 31.5 -9.5 46.5s-15.5 28 -27.5 39s-27 19.833 -45 26.5s-38.667 10 -62 10h-100v-260h100zM320.999 -51.999h95v-72l-40 -81h-55v153z" />
    <glyph glyph-name="rcommaaccent" unicode="&#x157;" horiz-adv-x="448" 
d="M74 500l90.001 0.00195312l7 -66c13.333 22.667 31.666 41 54.999 55s52.333 21 87 21c36.667 0 65.167 -8 85.5 -24s33.166 -34.333 38.499 -55v-65h-65l-3.5 9.5c-2.33301 6.33301 -6.66602 13.166 -12.999 20.499s-15.333 14.166 -27 20.499s-27.167 9.5 -46.5 9.5
c-36 0 -63 -12.833 -81 -38.5s-27 -58.167 -27 -97.5v-290h-100v500zM80.001 -51.998h95v-72l-40 -81h-55v153z" />
    <glyph glyph-name="Rcaron" unicode="&#x158;" horiz-adv-x="648" 
d="M95 0v750.001h211c38.667 0 73.667 -5 105 -15s58 -24.333 80 -43s38.833 -41.167 50.5 -67.5s17.5 -55.5 17.5 -87.5c0 -52.667 -13.5 -96.834 -40.5 -132.501s-63.5 -61.167 -109.5 -76.5l206 -253v-75h-75l-241 305h-94v-305h-110zM305 395.001
c44.667 0 79.833 12.5 105.5 37.5s38.5 58.5 38.5 100.5c0 16 -3.16699 31.5 -9.5 46.5s-15.5 28 -27.5 39s-27 19.833 -45 26.5s-38.667 10 -62 10h-100v-260h100zM265.999 795.001l-96 80v60h60l80 -67l74 67h60v-60l-88 -80h-90z" />
    <glyph glyph-name="rcaron" unicode="&#x159;" horiz-adv-x="448" 
d="M74 500l90.001 0.00195312l7 -66c13.333 22.667 31.666 41 54.999 55s52.333 21 87 21c36.667 0 65.167 -8 85.5 -24s33.166 -34.333 38.499 -55v-65h-65l-3.5 9.5c-2.33301 6.33301 -6.66602 13.166 -12.999 20.499s-15.333 14.166 -27 20.499s-27.167 9.5 -46.5 9.5
c-36 0 -63 -12.833 -81 -38.5s-27 -58.167 -27 -97.5v-290h-100v500zM192.001 610.002l-96 80v60h60l80 -67l74 67h60v-60l-88 -80h-90z" />
    <glyph glyph-name="Sacute" unicode="&#x15a;" horiz-adv-x="594" 
d="M297 -10c-31.333 0 -60.166 3.33105 -86.499 9.99805s-49.833 15.667 -70.5 27s-38.334 24.333 -53.001 39s-26 30 -34 46v70h80c11.333 -28.667 30.833 -52.834 58.5 -72.501s63.5 -29.5 107.5 -29.5c41.333 0 75.333 10.5 102 31.5s40 49.833 40 86.5
c0 33.333 -10.333 59.333 -31 78s-53.667 34.667 -99 48l-53 16c-67.333 20 -116.833 47.333 -148.5 82s-47.5 78.667 -47.5 132c0 32 5.83301 60.667 17.5 86s28.167 46.833 49.5 64.5s46.666 31.334 75.999 41.001s62 14.5 98 14.5c60 0 107.5 -10.5 142.5 -31.5
s59.167 -48.5 72.5 -82.5v-70h-80c-8.66699 28 -24 50.667 -46 68s-54.333 26 -97 26s-74.667 -10.667 -96 -32s-32 -46.666 -32 -75.999c0 -30 10 -53.667 30 -71s50.667 -32.666 92 -45.999l70 -22c63.333 -20 110.5 -48 141.5 -84s46.5 -83 46.5 -141
c0 -32 -6.16699 -60.833 -18.5 -86.5s-29.666 -47.5 -51.999 -65.5s-48.833 -31.833 -79.5 -41.5s-64 -14.5 -100 -14.5zM250 864.998l92 80h90v-60l-92 -80h-90v60z" />
    <glyph glyph-name="sacute" unicode="&#x15b;" horiz-adv-x="474" 
d="M245 -10c-39.333 0 -71.834 4.50195 -97.501 13.502s-46.167 19.167 -61.5 30.5c-18 12.667 -31.667 27.334 -41 44.001v65h65c7.33301 -12.667 17 -24 29 -34c11.333 -9.33301 25.333 -17.333 42 -24s37.667 -10 63 -10c36 0 60.833 5.66699 74.5 17s20.5 26 20.5 44
c0 12 -2.83301 21.667 -8.5 29s-13.334 13.5 -23.001 18.5s-21 9.16699 -34 12.5s-26.833 6.66602 -41.5 9.99902l-55 12c-16 3.33301 -31.333 8.5 -46 15.5s-27.667 16 -39 27s-20.333 24.667 -27 41s-10 35.5 -10 57.5c0 19.333 3.83301 38.166 11.5 56.499
s19 34.5 34 48.5s33.5 25.167 55.5 33.5s47.667 12.5 77 12.5c26.667 0 49.834 -2.33301 69.501 -7s36.5 -10.834 50.5 -18.501s25.333 -16.334 34 -26.001s15.667 -19.167 21 -28.5v-65h-65c-5.33301 11.333 -12.666 21.333 -21.999 30c-8.66699 8 -20 15 -34 21
s-31.667 9 -53 9c-31.333 0 -53.333 -5.83301 -66 -17.5s-19 -26.167 -19 -43.5c0 -18 8 -32 24 -42s36 -17.667 60 -23l53 -12c18 -4 35.833 -9.16699 53.5 -15.5s33.334 -14.666 47.001 -24.999s24.834 -23.5 33.501 -39.5s13 -35.667 13 -59
c0 -22 -3.83301 -42.667 -11.5 -62s-19.334 -36 -35.001 -50s-35.334 -25.167 -59.001 -33.5s-51.167 -12.5 -82.5 -12.5zM177.999 670.002l92 80h90v-60l-92 -80h-90v60z" />
    <glyph glyph-name="Scircumflex" unicode="&#x15c;" horiz-adv-x="594" 
d="M297 -10c-31.333 0 -60.166 3.33105 -86.499 9.99805s-49.833 15.667 -70.5 27s-38.334 24.333 -53.001 39s-26 30 -34 46v70h80c11.333 -28.667 30.833 -52.834 58.5 -72.501s63.5 -29.5 107.5 -29.5c41.333 0 75.333 10.5 102 31.5s40 49.833 40 86.5
c0 33.333 -10.333 59.333 -31 78s-53.667 34.667 -99 48l-53 16c-67.333 20 -116.833 47.333 -148.5 82s-47.5 78.667 -47.5 132c0 32 5.83301 60.667 17.5 86s28.167 46.833 49.5 64.5s46.666 31.334 75.999 41.001s62 14.5 98 14.5c60 0 107.5 -10.5 142.5 -31.5
s59.167 -48.5 72.5 -82.5v-70h-80c-8.66699 28 -24 50.667 -46 68s-54.333 26 -97 26s-74.667 -10.667 -96 -32s-32 -46.666 -32 -75.999c0 -30 10 -53.667 30 -71s50.667 -32.666 92 -45.999l70 -22c63.333 -20 110.5 -48 141.5 -84s46.5 -83 46.5 -141
c0 -32 -6.16699 -60.833 -18.5 -86.5s-29.666 -47.5 -51.999 -65.5s-48.833 -31.833 -79.5 -41.5s-64 -14.5 -100 -14.5zM295 861.998l-77 -67h-60v60l92 80h90l92 -80v-60h-60z" />
    <glyph glyph-name="scircumflex" unicode="&#x15d;" horiz-adv-x="474" 
d="M245 -10c-39.333 0 -71.834 4.50195 -97.501 13.502s-46.167 19.167 -61.5 30.5c-18 12.667 -31.667 27.334 -41 44.001v65h65c7.33301 -12.667 17 -24 29 -34c11.333 -9.33301 25.333 -17.333 42 -24s37.667 -10 63 -10c36 0 60.833 5.66699 74.5 17s20.5 26 20.5 44
c0 12 -2.83301 21.667 -8.5 29s-13.334 13.5 -23.001 18.5s-21 9.16699 -34 12.5s-26.833 6.66602 -41.5 9.99902l-55 12c-16 3.33301 -31.333 8.5 -46 15.5s-27.667 16 -39 27s-20.333 24.667 -27 41s-10 35.5 -10 57.5c0 19.333 3.83301 38.166 11.5 56.499
s19 34.5 34 48.5s33.5 25.167 55.5 33.5s47.667 12.5 77 12.5c26.667 0 49.834 -2.33301 69.501 -7s36.5 -10.834 50.5 -18.501s25.333 -16.334 34 -26.001s15.667 -19.167 21 -28.5v-65h-65c-5.33301 11.333 -12.666 21.333 -21.999 30c-8.66699 8 -20 15 -34 21
s-31.667 9 -53 9c-31.333 0 -53.333 -5.83301 -66 -17.5s-19 -26.167 -19 -43.5c0 -18 8 -32 24 -42s36 -17.667 60 -23l53 -12c18 -4 35.833 -9.16699 53.5 -15.5s33.334 -14.666 47.001 -24.999s24.834 -23.5 33.501 -39.5s13 -35.667 13 -59
c0 -22 -3.83301 -42.667 -11.5 -62s-19.334 -36 -35.001 -50s-35.334 -25.167 -59.001 -33.5s-51.167 -12.5 -82.5 -12.5zM245.999 677.002l-77 -67h-60v60l92 80h90l92 -80v-60h-60z" />
    <glyph glyph-name="Scedilla" unicode="&#x15e;" horiz-adv-x="594" 
d="M400 -120c0 -20 -3.99902 -36.0029 -11.999 -48.0029s-17 -21.667 -27 -29c-11.333 -8 -24.333 -13.667 -39 -17h-70v70c13.333 0 26.333 2 39 6s19 13.667 19 29c0 14.667 -6.16699 24.334 -18.5 29.001s-24.166 7 -35.499 7v65c-52 5.33301 -95.333 19.5 -130 42.5
s-59 48.833 -73 77.5v70h80c11.333 -28.667 30.833 -52.834 58.5 -72.501s63.5 -29.5 107.5 -29.5c41.333 0 75.333 10.5 102 31.5s40 49.833 40 86.5c0 33.333 -10.333 59.333 -31 78s-53.667 34.667 -99 48l-53 16c-67.333 20 -116.833 47.333 -148.5 82
s-47.5 78.667 -47.5 132c0 32 5.83301 60.667 17.5 86s28.167 46.833 49.5 64.5s46.666 31.334 75.999 41.001s62 14.5 98 14.5c60 0 107.5 -10.5 142.5 -31.5s59.167 -48.5 72.5 -82.5v-70h-80c-8.66699 28 -24 50.667 -46 68s-54.333 26 -97 26s-74.667 -10.667 -96 -32
s-32 -46.666 -32 -75.999c0 -30 10 -53.667 30 -71s50.667 -32.666 92 -45.999l70 -22c63.333 -20 110.5 -48 141.5 -84s46.5 -83 46.5 -141c0 -28.667 -5.16699 -55 -15.5 -79s-24.833 -44.833 -43.5 -62.5s-40.834 -32 -66.501 -43s-54.167 -18.167 -85.5 -21.5v-32
c23.333 -5.33301 39.833 -15.5 49.5 -30.5s14.5 -31.5 14.5 -49.5z" />
    <glyph glyph-name="scedilla" unicode="&#x15f;" horiz-adv-x="474" 
d="M335 -119c0 -20 -4.00488 -35.9951 -12.0049 -47.9951s-17 -21.667 -27 -29c-11.333 -8 -24.333 -13.667 -39 -17h-70v70c13.333 0 26.333 2 39 6s19 13.667 19 29c0 14.667 -6.16699 24.334 -18.5 29.001s-24.166 7 -35.499 7v66c-28.667 4 -52.167 10.667 -70.5 20
s-33.166 18.666 -44.499 27.999c-13.333 11.333 -23.666 23.333 -30.999 36v65h65c7.33301 -12.667 17 -24 29 -34c11.333 -9.33301 25.333 -17.333 42 -24s37.667 -10 63 -10c36 0 60.833 5.66699 74.5 17s20.5 26 20.5 44c0 12 -2.83301 21.667 -8.5 29
s-13.334 13.5 -23.001 18.5s-21 9.16699 -34 12.5s-26.833 6.66602 -41.5 9.99902l-55 12c-16 3.33301 -31.333 8.5 -46 15.5s-27.667 16 -39 27s-20.333 24.667 -27 41s-10 35.5 -10 57.5c0 19.333 3.83301 38.166 11.5 56.499s19 34.5 34 48.5s33.5 25.167 55.5 33.5
s47.667 12.5 77 12.5c26.667 0 49.834 -2.33301 69.501 -7s36.5 -10.834 50.5 -18.501s25.333 -16.334 34 -26.001s15.667 -19.167 21 -28.5v-65h-65c-5.33301 11.333 -12.666 21.333 -21.999 30c-8.66699 8 -20 15 -34 21s-31.667 9 -53 9
c-31.333 0 -53.333 -5.83301 -66 -17.5s-19 -26.167 -19 -43.5c0 -18 8 -32 24 -42s36 -17.667 60 -23l53 -12c18 -4 35.833 -9.16699 53.5 -15.5s33.334 -14.666 47.001 -24.999s24.834 -23.5 33.501 -39.5s13 -35.667 13 -59c0 -40.667 -13.333 -75.834 -40 -105.501
s-67.334 -46.834 -122.001 -51.501v-30c23.333 -5.33301 39.833 -15.5 49.5 -30.5s14.5 -31.5 14.5 -49.5z" />
    <glyph glyph-name="Scaron" unicode="&#x160;" horiz-adv-x="594" 
d="M297 -10c-31.333 0 -60.166 3.33105 -86.499 9.99805s-49.833 15.667 -70.5 27s-38.334 24.333 -53.001 39s-26 30 -34 46v70h80c11.333 -28.667 30.833 -52.834 58.5 -72.501s63.5 -29.5 107.5 -29.5c41.333 0 75.333 10.5 102 31.5s40 49.833 40 86.5
c0 33.333 -10.333 59.333 -31 78s-53.667 34.667 -99 48l-53 16c-67.333 20 -116.833 47.333 -148.5 82s-47.5 78.667 -47.5 132c0 32 5.83301 60.667 17.5 86s28.167 46.833 49.5 64.5s46.666 31.334 75.999 41.001s62 14.5 98 14.5c60 0 107.5 -10.5 142.5 -31.5
s59.167 -48.5 72.5 -82.5v-70h-80c-8.66699 28 -24 50.667 -46 68s-54.333 26 -97 26s-74.667 -10.667 -96 -32s-32 -46.666 -32 -75.999c0 -30 10 -53.667 30 -71s50.667 -32.666 92 -45.999l70 -22c63.333 -20 110.5 -48 141.5 -84s46.5 -83 46.5 -141
c0 -32 -6.16699 -60.833 -18.5 -86.5s-29.666 -47.5 -51.999 -65.5s-48.833 -31.833 -79.5 -41.5s-64 -14.5 -100 -14.5zM254 794.998l-96 80v60h60l80 -67l74 67h60v-60l-88 -80h-90z" />
    <glyph glyph-name="scaron" unicode="&#x161;" horiz-adv-x="474" 
d="M245 -10c-39.333 0 -71.834 4.50195 -97.501 13.502s-46.167 19.167 -61.5 30.5c-18 12.667 -31.667 27.334 -41 44.001v65h65c7.33301 -12.667 17 -24 29 -34c11.333 -9.33301 25.333 -17.333 42 -24s37.667 -10 63 -10c36 0 60.833 5.66699 74.5 17s20.5 26 20.5 44
c0 12 -2.83301 21.667 -8.5 29s-13.334 13.5 -23.001 18.5s-21 9.16699 -34 12.5s-26.833 6.66602 -41.5 9.99902l-55 12c-16 3.33301 -31.333 8.5 -46 15.5s-27.667 16 -39 27s-20.333 24.667 -27 41s-10 35.5 -10 57.5c0 19.333 3.83301 38.166 11.5 56.499
s19 34.5 34 48.5s33.5 25.167 55.5 33.5s47.667 12.5 77 12.5c26.667 0 49.834 -2.33301 69.501 -7s36.5 -10.834 50.5 -18.501s25.333 -16.334 34 -26.001s15.667 -19.167 21 -28.5v-65h-65c-5.33301 11.333 -12.666 21.333 -21.999 30c-8.66699 8 -20 15 -34 21
s-31.667 9 -53 9c-31.333 0 -53.333 -5.83301 -66 -17.5s-19 -26.167 -19 -43.5c0 -18 8 -32 24 -42s36 -17.667 60 -23l53 -12c18 -4 35.833 -9.16699 53.5 -15.5s33.334 -14.666 47.001 -24.999s24.834 -23.5 33.501 -39.5s13 -35.667 13 -59
c0 -22 -3.83301 -42.667 -11.5 -62s-19.334 -36 -35.001 -50s-35.334 -25.167 -59.001 -33.5s-51.167 -12.5 -82.5 -12.5zM193.999 610.002l-96 80v60h60l80 -67l74 67h60v-60l-88 -80h-90z" />
    <glyph glyph-name="Tcommaaccent" unicode="&#x162;" horiz-adv-x="628" 
d="M259 660h-240v90h590v-90h-240v-660h-110v660zM271 -52h95v-72l-40 -81h-55v153z" />
    <glyph glyph-name="tcommaaccent" unicode="&#x163;" horiz-adv-x="432" 
d="M239 -52h95v-72l-40 -81h-55v153zM283 -10c-60.667 0 -105.998 15.002 -135.998 45.002s-45 74.333 -45 133v247h-81v85h85l6 125h90v-125h196v-85h-196v-237c0 -32 6 -57.167 18 -75.5s33.333 -27.5 64 -27.5c16 0 28.667 2.5 38 7.5s16.333 10.5 21 16.5
c5.33301 6.66699 8.66602 14.334 9.99902 23.001h65v-65c-4 -6.66699 -9.33301 -13.834 -16 -21.501s-15.334 -14.834 -26.001 -21.501s-23.667 -12.334 -39 -17.001s-33.333 -7 -54 -7z" />
    <glyph glyph-name="Tcaron" unicode="&#x164;" horiz-adv-x="628" 
d="M259 660h-240v90h590v-90h-240v-660h-110v660zM272 795l-96 80v60h60l80 -67l74 67h60v-60l-88 -80h-90z" />
    <glyph glyph-name="tcaron" unicode="&#x165;" horiz-adv-x="432" 
d="M278 750h100v-80l-40 -101h-60v181zM283 -10c-60.667 0 -105.998 15.002 -135.998 45.002s-45 74.333 -45 133v247h-81v85h85l6 125h90v-125h196v-85h-196v-237c0 -32 6 -57.167 18 -75.5s33.333 -27.5 64 -27.5c16 0 28.667 2.5 38 7.5s16.333 10.5 21 16.5
c5.33301 6.66699 8.66602 14.334 9.99902 23.001h65v-65c-4 -6.66699 -9.33301 -13.834 -16 -21.501s-15.334 -14.834 -26.001 -21.501s-23.667 -12.334 -39 -17.001s-33.333 -7 -54 -7z" />
    <glyph glyph-name="Tbar" unicode="&#x166;" horiz-adv-x="658" 
d="M384 339v-339h-110v339h-180v90h180v231h-240v90h590v-90h-240v-231h180v-90h-180z" />
    <glyph glyph-name="tbar" unicode="&#x167;" horiz-adv-x="438" 
d="M423 57c-4 -6.66699 -9.33105 -13.832 -15.998 -21.499s-15.334 -14.834 -26.001 -21.501s-23.667 -12.334 -39 -17.001s-33.333 -7 -54 -7c-60.667 0 -106 15 -136 45s-45 74.333 -45 133v68h-81v85h81v94h-81v85h85l6 125h90v-125h196v-85h-196v-94h196v-85h-196v-58
c0 -32 6 -57.167 18 -75.5s33.333 -27.5 64 -27.5c16 0 28.667 2.5 38 7.5s16.333 10.5 21 16.5c5.33301 6.66699 8.66602 14.334 9.99902 23.001h65v-65z" />
    <glyph glyph-name="Utilde" unicode="&#x168;" horiz-adv-x="754" 
d="M377 -10c-44 0 -83.832 7.33301 -119.499 22s-66.167 34.667 -91.5 60s-44.833 55 -58.5 89s-20.5 70.333 -20.5 109v480h110v-481c0 -26 4 -50.5 12 -73.5s19.833 -43 35.5 -60s34.667 -30.5 57 -40.5s47.5 -15 75.5 -15c30 0 56.667 5 80 15s43.166 23.5 59.499 40.5
s28.833 37 37.5 60s13 47.5 13 73.5v481h100v-480c0 -38.667 -6.83301 -75 -20.5 -109s-33.167 -63.667 -58.5 -89s-55.833 -45.333 -91.5 -60s-75.5 -22 -119.5 -22zM449.001 794c-13.333 0 -25 1.66699 -35 5s-19.167 6.83301 -27.5 10.5l-24 10.5
c-7.66699 3.33301 -16.167 5 -25.5 5c-7.33301 0 -14.166 -1.83301 -20.499 -5.5s-10.833 -10.5 -13.5 -20.5h-70c0 35.333 8.5 62.166 25.5 80.499s40.5 27.5 70.5 27.5c13.333 0 24.666 -1.66699 33.999 -5s17.666 -6.83301 24.999 -10.5l21 -10.5
c6.66699 -3.33301 14.334 -5 23.001 -5c7.33301 0 14.333 1.33301 21 4s11 10 13 22h70c0 -35.333 -7 -62.166 -21 -80.499s-36 -27.5 -66 -27.5z" />
    <glyph glyph-name="utilde" unicode="&#x169;" horiz-adv-x="583" 
d="M259 -10c-34.667 0 -64 5.49707 -88 16.4971s-43.5 26.167 -58.5 45.5s-26 41.833 -33 67.5s-10.5 52.834 -10.5 81.501v299h100v-293c0 -40 8.66699 -72.167 26 -96.5s46.333 -36.5 87 -36.5c24 0 44.167 3.83301 60.5 11.5s29.333 17.834 39 30.501
s16.667 26.834 21 42.501s6.5 31.5 6.5 47.5v294h100v-500h-90l-7 67c-6 -8.66699 -13.667 -17.5 -23 -26.5s-20.333 -17.167 -33 -24.5s-27 -13.5 -43 -18.5s-34 -7.5 -54 -7.5zM360 608.997c-13.333 0 -25 1.66699 -35 5s-19.167 6.83301 -27.5 10.5l-24 10.5
c-7.66699 3.33301 -16.167 5 -25.5 5c-7.33301 0 -14.166 -1.83301 -20.499 -5.5s-10.833 -10.5 -13.5 -20.5h-70c0 35.333 8.5 62.166 25.5 80.499s40.5 27.5 70.5 27.5c13.333 0 24.666 -1.66699 33.999 -5s17.666 -6.83301 24.999 -10.5l21 -10.5
c6.66699 -3.33301 14.334 -5 23.001 -5c7.33301 0 14.333 1.33301 21 4s11 10 13 22h70c0 -35.333 -7 -62.166 -21 -80.499s-36 -27.5 -66 -27.5z" />
    <glyph glyph-name="Umacron" unicode="&#x16a;" horiz-adv-x="754" 
d="M377 -10c-44 0 -83.832 7.33301 -119.499 22s-66.167 34.667 -91.5 60s-44.833 55 -58.5 89s-20.5 70.333 -20.5 109v480h110v-481c0 -26 4 -50.5 12 -73.5s19.833 -43 35.5 -60s34.667 -30.5 57 -40.5s47.5 -15 75.5 -15c30 0 56.667 5 80 15s43.166 23.5 59.499 40.5
s28.833 37 37.5 60s13 47.5 13 73.5v481h100v-480c0 -38.667 -6.83301 -75 -20.5 -109s-33.167 -63.667 -58.5 -89s-55.833 -45.333 -91.5 -60s-75.5 -22 -119.5 -22zM261.001 895h250v-90h-250v90z" />
    <glyph glyph-name="umacron" unicode="&#x16b;" horiz-adv-x="583" 
d="M259 -10c-34.667 0 -64 5.49707 -88 16.4971s-43.5 26.167 -58.5 45.5s-26 41.833 -33 67.5s-10.5 52.834 -10.5 81.501v299h100v-293c0 -40 8.66699 -72.167 26 -96.5s46.333 -36.5 87 -36.5c24 0 44.167 3.83301 60.5 11.5s29.333 17.834 39 30.501
s16.667 26.834 21 42.501s6.5 31.5 6.5 47.5v294h100v-500h-90l-7 67c-6 -8.66699 -13.667 -17.5 -23 -26.5s-20.333 -17.167 -33 -24.5s-27 -13.5 -43 -18.5s-34 -7.5 -54 -7.5zM161 709.997h250v-90h-250v90z" />
    <glyph glyph-name="Ubreve" unicode="&#x16c;" horiz-adv-x="754" 
d="M377 -10c-44 0 -83.832 7.33301 -119.499 22s-66.167 34.667 -91.5 60s-44.833 55 -58.5 89s-20.5 70.333 -20.5 109v480h110v-481c0 -26 4 -50.5 12 -73.5s19.833 -43 35.5 -60s34.667 -30.5 57 -40.5s47.5 -15 75.5 -15c30 0 56.667 5 80 15s43.166 23.5 59.499 40.5
s28.833 37 37.5 60s13 47.5 13 73.5v481h100v-480c0 -38.667 -6.83301 -75 -20.5 -109s-33.167 -63.667 -58.5 -89s-55.833 -45.333 -91.5 -60s-75.5 -22 -119.5 -22zM383.001 785c-28.667 0 -51.668 3.33105 -69.001 9.99805s-31 14.334 -41 23.001
c-10.667 9.33301 -18.334 20 -23.001 32v70h70c2 -10 5.66699 -18.667 11 -26c4 -7.33301 10.167 -13.5 18.5 -18.5s19.5 -7.5 33.5 -7.5c14.667 0 25.834 2.66699 33.501 8s13.5 11.333 17.5 18c4.66699 7.33301 7.33398 16 8.00098 26h70v-70
c-4 -12 -11.333 -22.667 -22 -32c-10 -9.33301 -23.333 -17.166 -40 -23.499s-39 -9.5 -67 -9.5z" />
    <glyph glyph-name="ubreve" unicode="&#x16d;" horiz-adv-x="583" 
d="M259 -10c-34.667 0 -64 5.49707 -88 16.4971s-43.5 26.167 -58.5 45.5s-26 41.833 -33 67.5s-10.5 52.834 -10.5 81.501v299h100v-293c0 -40 8.66699 -72.167 26 -96.5s46.333 -36.5 87 -36.5c24 0 44.167 3.83301 60.5 11.5s29.333 17.834 39 30.501
s16.667 26.834 21 42.501s6.5 31.5 6.5 47.5v294h100v-500h-90l-7 67c-6 -8.66699 -13.667 -17.5 -23 -26.5s-20.333 -17.167 -33 -24.5s-27 -13.5 -43 -18.5s-34 -7.5 -54 -7.5zM285 584.997c-28.667 0 -51.668 3.33105 -69.001 9.99805s-31 14.334 -41 23.001
c-10.667 9.33301 -18.334 20 -23.001 32v70h70c2 -10 5.66699 -18.667 11 -26c4 -7.33301 10.167 -13.5 18.5 -18.5s19.5 -7.5 33.5 -7.5c14.667 0 25.834 2.66699 33.501 8s13.5 11.333 17.5 18c4.66699 7.33301 7.33398 16 8.00098 26h70v-70
c-4 -12 -11.333 -22.667 -22 -32c-10 -9.33301 -23.333 -17.166 -40 -23.499s-39 -9.5 -67 -9.5z" />
    <glyph glyph-name="Uring" unicode="&#x16e;" horiz-adv-x="754" 
d="M382 783c-28 0 -51.333 8.66699 -70 26s-28 39.666 -28 66.999c0 26.667 9.33301 48.834 28 66.501s42 26.5 70 26.5s51.333 -8.83301 70 -26.5s28 -39.834 28 -66.501c0 -27.333 -9.33301 -49.666 -28 -66.999s-42 -26 -70 -26zM382 846c8 0 15 2.66699 21 8
s9 12.666 9 21.999s-3 16.666 -9 21.999s-13 8 -21 8s-15 -2.66699 -21 -8s-9 -12.666 -9 -21.999s3 -16.666 9 -21.999s13 -8 21 -8zM377 -10c-44 0 -83.832 7.33301 -119.499 22s-66.167 34.667 -91.5 60s-44.833 55 -58.5 89s-20.5 70.333 -20.5 109v480h110v-481
c0 -26 4 -50.5 12 -73.5s19.833 -43 35.5 -60s34.667 -30.5 57 -40.5s47.5 -15 75.5 -15c30 0 56.667 5 80 15s43.166 23.5 59.499 40.5s28.833 37 37.5 60s13 47.5 13 73.5v481h100v-480c0 -38.667 -6.83301 -75 -20.5 -109s-33.167 -63.667 -58.5 -89
s-55.833 -45.333 -91.5 -60s-75.5 -22 -119.5 -22z" />
    <glyph glyph-name="uring" unicode="&#x16f;" horiz-adv-x="583" 
d="M259 -10c-34.667 0 -64 5.49707 -88 16.4971s-43.5 26.167 -58.5 45.5s-26 41.833 -33 67.5s-10.5 52.834 -10.5 81.501v299h100v-293c0 -40 8.66699 -72.167 26 -96.5s46.333 -36.5 87 -36.5c24 0 44.167 3.83301 60.5 11.5s29.333 17.834 39 30.501
s16.667 26.834 21 42.501s6.5 31.5 6.5 47.5v294h100v-500h-90l-7 67c-6 -8.66699 -13.667 -17.5 -23 -26.5s-20.333 -17.167 -33 -24.5s-27 -13.5 -43 -18.5s-34 -7.5 -54 -7.5zM289 564.997c-28 0 -51.333 8.66699 -70 26s-28 39.666 -28 66.999
c0 26.667 9.33301 48.834 28 66.501s42 26.5 70 26.5s51.333 -8.83301 70 -26.5s28 -39.834 28 -66.501c0 -27.333 -9.33301 -49.666 -28 -66.999s-42 -26 -70 -26zM289 627.997c8 0 15 2.66699 21 8s9 12.666 9 21.999s-3 16.666 -9 21.999s-13 8 -21 8
s-15 -2.66699 -21 -8s-9 -12.666 -9 -21.999s3 -16.666 9 -21.999s13 -8 21 -8z" />
    <glyph glyph-name="Uhungarumlaut" unicode="&#x170;" horiz-adv-x="754" 
d="M377 -10c-44 0 -83.832 7.33301 -119.499 22s-66.167 34.667 -91.5 60s-44.833 55 -58.5 89s-20.5 70.333 -20.5 109v480h110v-481c0 -26 4 -50.5 12 -73.5s19.833 -43 35.5 -60s34.667 -30.5 57 -40.5s47.5 -15 75.5 -15c30 0 56.667 5 80 15s43.166 23.5 59.499 40.5
s28.833 37 37.5 60s13 47.5 13 73.5v481h100v-480c0 -38.667 -6.83301 -75 -20.5 -109s-33.167 -63.667 -58.5 -89s-55.833 -45.333 -91.5 -60s-75.5 -22 -119.5 -22zM253.001 865l92 80h70v-60l-92 -80h-70v60zM425.001 865l92 80h70v-60l-92 -80h-70v60z" />
    <glyph glyph-name="uhungarumlaut" unicode="&#x171;" horiz-adv-x="583" 
d="M259 -10c-34.667 0 -64 5.49707 -88 16.4971s-43.5 26.167 -58.5 45.5s-26 41.833 -33 67.5s-10.5 52.834 -10.5 81.501v299h100v-293c0 -40 8.66699 -72.167 26 -96.5s46.333 -36.5 87 -36.5c24 0 44.167 3.83301 60.5 11.5s29.333 17.834 39 30.501
s16.667 26.834 21 42.501s6.5 31.5 6.5 47.5v294h100v-500h-90l-7 67c-6 -8.66699 -13.667 -17.5 -23 -26.5s-20.333 -17.167 -33 -24.5s-27 -13.5 -43 -18.5s-34 -7.5 -54 -7.5zM166 669.997l92 80h70v-60l-92 -80h-70v60zM338 669.997l92 80h70v-60l-92 -80h-70v60z" />
    <glyph glyph-name="Uogonek" unicode="&#x172;" horiz-adv-x="754" 
d="M451 -172l-69.999 0.000976562c-14 3.33301 -26.333 9 -37 17c-10.667 7.33301 -19.667 17 -27 29s-11 28 -11 48c0 14.667 3.33301 28.167 10 40.5s15 22.166 25 29.499c-38.667 4 -73.667 14 -105 30s-58 36.5 -80 61.5s-39 53.333 -51 85s-18 65.5 -18 101.5v480h110
v-481c0 -26 4 -50.5 12 -73.5s19.833 -43 35.5 -60s34.667 -30.5 57 -40.5s47.5 -15 75.5 -15c30 0 56.667 5 80 15s43.166 23.5 59.499 40.5s28.833 37 37.5 60s13 47.5 13 73.5v481h100v-480c0 -32.667 -5 -63.834 -15 -93.501s-24.333 -56.5 -43 -80.5
s-41.334 -44.5 -68.001 -61.5s-56.667 -29.167 -90 -36.5c-17.333 -4 -31.333 -10 -42 -18s-16 -19.667 -16 -35c0 -11.333 3 -20.166 9 -26.499s12.667 -10.833 20 -13.5c8.66699 -4 18.334 -6.33301 29.001 -7v-70z" />
    <glyph glyph-name="uogonek" unicode="&#x173;" horiz-adv-x="583" 
d="M378 -78c0 18 5.16699 34.3291 15.5 48.9961s22.166 24.334 35.499 29.001h-10l-7 67c-6 -8.66699 -13.667 -17.5 -23 -26.5s-20.333 -17.167 -33 -24.5s-27 -13.5 -43 -18.5s-34 -7.5 -54 -7.5c-34.667 0 -64 5.5 -88 16.5s-43.5 26.167 -58.5 45.5s-26 41.833 -33 67.5
s-10.5 52.834 -10.5 81.501v299h100v-293c0 -40 8.66699 -72.167 26 -96.5s46.333 -36.5 87 -36.5c24 0 44.167 3.83301 60.5 11.5s29.333 17.834 39 30.501s16.667 26.834 21 42.501s6.5 31.5 6.5 47.5v294h100v-500c-8 -1.33301 -15.333 -4 -22 -8
c-6 -3.33301 -11.167 -8.33301 -15.5 -15s-6.5 -16 -6.5 -28s3 -21.5 9 -28.5s12.667 -12.167 20 -15.5c8.66699 -4 18.334 -6.33301 29.001 -7v-70h-70c-14 3.33301 -26.333 9 -37 17c-10.667 7.33301 -19.667 17 -27 29s-11 28 -11 48z" />
    <glyph glyph-name="Wcircumflex" unicode="&#x174;" horiz-adv-x="957" 
d="M478 548l-162 -548h-90l-199 670v80h85l165 -557l165 557h80l165 -557l165 557h80v-70l-201 -680h-90zM482 862l-77 -67h-60v60l92 80h90l92 -80v-60h-60z" />
    <glyph glyph-name="wcircumflex" unicode="&#x175;" horiz-adv-x="755" 
d="M374 346l-118 -346h-65l-164 430v70h70l135 -343l117 343h65l120 -340l131 340h65v-65l-169 -435h-65zM379 677l-77 -67h-60v60l92 80h90l92 -80v-60h-60z" />
    <glyph glyph-name="Ycircumflex" unicode="&#x176;" horiz-adv-x="641" 
d="M267 315l-256 360v75h75l244 -342l226 342h70v-70l-249 -366v-314h-110v315zM317 862l-77 -67h-60v60l92 80h90l92 -80v-60h-60z" />
    <glyph glyph-name="ycircumflex" unicode="&#x177;" horiz-adv-x="527" 
d="M67 -250v70l151 260l-192 350v70h70l176 -326l173 326h65v-65l-373 -685h-70zM274 677l-77 -67h-60v60l92 80h90l92 -80v-60h-60z" />
    <glyph glyph-name="Ydieresis" unicode="&#x178;" horiz-adv-x="641" 
d="M267 315l-256 360v75h75l244 -342l226 342h70v-70l-249 -366v-314h-110v315zM180 915h110v-110h-110v110zM360 915h110v-110h-110v110z" />
    <glyph glyph-name="Zacute" unicode="&#x179;" horiz-adv-x="611" 
d="M40 0v80l395 580h-390v90h521v-80l-395 -580h400v-90h-531zM256 865l92 80h90v-60l-92 -80h-90v60z" />
    <glyph glyph-name="zacute" unicode="&#x17a;" horiz-adv-x="485" 
d="M42 0v75l273 340h-268v85h391v-75l-273 -340h278v-85h-401zM199 670l92 80h90v-60l-92 -80h-90v60z" />
    <glyph glyph-name="Zdotaccent" unicode="&#x17b;" horiz-adv-x="611" 
d="M40 0v80l395 580h-390v90h521v-80l-395 -580h400v-90h-531zM247 915h110v-110h-110v110z" />
    <glyph glyph-name="zdotaccent" unicode="&#x17c;" horiz-adv-x="485" 
d="M42 0v75l273 340h-268v85h391v-75l-273 -340h278v-85h-401zM199 720h110v-110h-110v110z" />
    <glyph glyph-name="Zcaron" unicode="&#x17d;" horiz-adv-x="611" 
d="M40 0v80l395 580h-390v90h521v-80l-395 -580h400v-90h-531zM274 795l-96 80v60h60l80 -67l74 67h60v-60l-88 -80h-90z" />
    <glyph glyph-name="zcaron" unicode="&#x17e;" horiz-adv-x="485" 
d="M42 0v75l273 340h-268v85h391v-75l-273 -340h278v-85h-401zM209 610l-96 80v60h60l80 -67l74 67h60v-60l-88 -80h-90z" />
    <glyph glyph-name="florin" unicode="&#x192;" horiz-adv-x="593" 
d="M88 -176c-34.667 1.33301 -61.9971 7.83496 -81.9971 19.502s-33.667 24.167 -41 37.5v65h68c0 0.666992 0.666992 -0.666016 2 -3.99902s4 -7 8 -11s9.5 -7.66699 16.5 -11s16.167 -5.33301 27.5 -6c25.333 1.33301 43.333 9.66602 54 24.999
s18.334 35.666 23.001 60.999l63 365h-93v85h107l23 132c9.33301 55.333 27.166 98.833 53.499 130.5s67.166 47.5 122.499 47.5c34.667 0 62 -6 82 -18s33.667 -25 41 -39v-65h-68c-2 6 -5.33301 11.333 -10 16c-4 4.66699 -9.5 8.5 -16.5 11.5s-16.167 4.5 -27.5 4.5
c-25.333 0 -43.333 -7.66699 -54 -23s-18.334 -36.333 -23.001 -63l-23 -134h144v-85h-158l-63 -365c-8.66699 -53.333 -26.334 -95.833 -53.001 -127.5s-67.667 -47.834 -123 -48.501z" />
    <glyph glyph-name="Aringacute" unicode="&#x1fa;" horiz-adv-x="681" 
d="M295 1074l92 80h90v-60l-92 -80h-90v60zM17 0v70l281 680h85l279 -670v-80h-80l-81 200h-324l-80 -200h-80zM339 603l-126 -313h252zM338 785c-28 0 -51.333 8.66699 -70 26s-28 39.666 -28 66.999c0 26.667 9.33301 48.834 28 66.501s42 26.5 70 26.5
s51.333 -8.83301 70 -26.5s28 -39.834 28 -66.501c0 -27.333 -9.33301 -49.666 -28 -66.999s-42 -26 -70 -26zM338 848c8 0 15 2.66699 21 8s9 12.666 9 21.999s-3 16.666 -9 21.999s-13 8 -21 8s-15 -2.66699 -21 -8s-9 -12.666 -9 -21.999s3 -16.666 9 -21.999
s13 -8 21 -8z" />
    <glyph glyph-name="aringacute" unicode="&#x1fb;" horiz-adv-x="523" 
d="M207 -10c-28 0 -52.5 4 -73.5 12s-38.667 19 -53 33s-25 30.5 -32 49.5s-10.5 39.167 -10.5 60.5s3.83301 41 11.5 59s19.5 33.667 35.5 47s36.833 23.833 62.5 31.5s56.5 11.5 92.5 11.5c16 0 30.833 -0.666992 44.5 -2s25.834 -3 36.501 -5c12 -2 23 -4.33301 33 -7v31
c0 38 -8.33301 66.5 -25 85.5s-44.334 28.5 -83.001 28.5c-20.667 0 -38.167 -3.16699 -52.5 -9.5s-26.166 -13.166 -35.499 -20.499c-10 -9.33301 -18.333 -19.666 -25 -30.999h-65v65c10 15.333 23.333 29 40 41c15.333 10.667 34.166 20 56.499 28s50.5 12 84.5 12
c67.333 0 118.333 -16.833 153 -50.5s52 -83.834 52 -150.501v-309h-80l-12 72c-6 -8.66699 -13.667 -17.834 -23 -27.501s-20.333 -18.5 -33 -26.5s-27.167 -14.667 -43.5 -20s-34.833 -8 -55.5 -8zM223 71c20.667 0 39.002 3.33203 55.002 9.99902
s29.667 15.334 41 26.001s20 22.167 26 34.5s9 24.5 9 36.5v26c-9.33301 2.66699 -20 5 -32 7c-10.667 2 -22.834 3.66699 -36.501 5s-28.834 2 -45.501 2c-20 0 -36.667 -2 -50 -6s-24 -9.5 -32 -16.5s-13.667 -14.833 -17 -23.5s-5 -17.667 -5 -27
c0 -49.333 29 -74 87 -74zM264.002 565.999c-28 0 -51.333 8.66699 -70 26s-28 39.666 -28 66.999c0 26.667 9.33301 48.834 28 66.501s42 26.5 70 26.5s51.333 -8.83301 70 -26.5s28 -39.834 28 -66.501c0 -27.333 -9.33301 -49.666 -28 -66.999s-42 -26 -70 -26z
M264.002 628.999c8 0 15 2.66699 21 8s9 12.666 9 21.999s-3 16.666 -9 21.999s-13 8 -21 8s-15 -2.66699 -21 -8s-9 -12.666 -9 -21.999s3 -16.666 9 -21.999s13 -8 21 -8zM223.002 878.999l92 80h90v-60l-92 -80h-90v60z" />
    <glyph glyph-name="AEacute" unicode="&#x1fc;" horiz-adv-x="921" 
d="M407 750h460v-90h-321v-230h291v-90h-291v-250h321v-90h-431v200h-237l-113 -200h-80v70zM436 290v328l-186 -328h186zM589 865l92 80h90v-60l-92 -80h-90v60z" />
    <glyph glyph-name="aeacute" unicode="&#x1fd;" horiz-adv-x="895" 
d="M633 -10c-48.667 0 -90.667 8.16406 -126 24.4971s-63.666 39.5 -84.999 69.5c-11.333 -19.333 -24.333 -35 -39 -47s-30.5 -21.5 -47.5 -28.5s-34.5 -11.833 -52.5 -14.5s-35.667 -4 -53 -4c-32.667 0 -61 4 -85 12s-44 19 -60 33s-27.833 30.5 -35.5 49.5
s-11.5 39.167 -11.5 60.5s3.83301 41 11.5 59s20.167 33.667 37.5 47s39.666 23.833 66.999 31.5s61 11.5 101 11.5c17.333 0 33.166 -0.666992 47.499 -2s26.833 -3 37.5 -5c12.667 -2 24 -4.33301 34 -7v31c0 38 -11.667 66.5 -35 85.5s-54.333 28.5 -93 28.5
c-20.667 0 -38.167 -3.16699 -52.5 -9.5s-26.166 -13.166 -35.499 -20.499c-10 -9.33301 -18.333 -19.666 -25 -30.999h-65v65c10 15.333 23.333 29 40 41c15.333 10.667 34.166 20 56.499 28s50.5 12 84.5 12c42 0 78.833 -6.5 110.5 -19.5s57.167 -32.167 76.5 -57.5
c21.333 23.333 47.333 42 78 56s66.334 21 107.001 21c40 0 74.5 -5.5 103.5 -16.5s52.833 -26.333 71.5 -46s32.334 -43 41.001 -70s13 -56.167 13 -87.5c0 -8 -0.166992 -15.167 -0.5 -21.5s-0.833008 -12.166 -1.5 -17.499s-1.33398 -10.333 -2.00098 -15h-372
c2.66699 -49.333 17.167 -88.333 43.5 -117s64.833 -43 115.5 -43c28.667 0 52.167 3.16699 70.5 9.5s32.833 13.5 43.5 21.5c12 8.66699 21.333 18.667 28 30h65v-65c-10.667 -15.333 -25.667 -29 -45 -41c-16.667 -11.333 -38 -21 -64 -29s-58.667 -12 -98 -12z
M752 310.997c0 32.667 -10.666 59.832 -31.999 81.499s-54 32.5 -98 32.5c-44.667 0 -77.834 -10.667 -99.501 -32s-36.167 -48.666 -43.5 -81.999h273zM233.001 70.9951c47.333 0 82.666 11.668 105.999 35.001s35 50.666 35 81.999v16c-9.33301 2.66699 -20 5 -32 7
c-11.333 2 -24.166 3.66699 -38.499 5s-30.5 2 -48.5 2c-24 0 -43.667 -2 -59 -6s-27.5 -9.5 -36.5 -16.5s-15.167 -14.833 -18.5 -23.5s-5 -17.667 -5 -27c0 -25.333 9 -44 27 -56s41.333 -18 70 -18zM401.001 669.996l92 80h90v-60l-92 -80h-90v60z" />
    <glyph glyph-name="Oslashacute" unicode="&#x1fe;" horiz-adv-x="840" 
d="M420 -10c-34.667 0 -67.332 3.83398 -97.999 11.501s-59.334 18.5 -86.001 32.5l-52 -74h-110l89 127c-36.667 35.333 -65 77.666 -85 126.999s-30 104 -30 164c0 55.333 9 106.333 27 153s43.167 87 75.5 121s71.333 60.5 117 79.5s96.5 28.5 152.5 28.5
c35.333 0 68.5 -3.83301 99.5 -11.5s59.833 -18.834 86.5 -33.501l52 75h110l-90 -127c36 -34.667 64 -76.167 84 -124.5s30 -101.833 30 -160.5c0 -56 -9 -107.667 -27 -155s-43.167 -88.166 -75.5 -122.499s-71.333 -61.333 -117 -81s-96.5 -29.5 -152.5 -29.5z
M158.002 378.001c0 -42 5.50195 -80.332 16.502 -114.999s27.167 -65.334 48.5 -92.001l327 466c-18.667 10.667 -38.834 18.834 -60.501 24.501s-44.834 8.5 -69.501 8.5c-40 0 -76.167 -7.16699 -108.5 -21.5s-59.833 -34.5 -82.5 -60.5s-40.167 -56.833 -52.5 -92.5
s-18.5 -74.834 -18.5 -117.501zM420.004 80.002c40 0 76.167 7.33301 108.5 22s59.833 35.167 82.5 61.5s40.167 57.833 52.5 94.5s18.5 76.667 18.5 120c0 40 -5.5 77 -16.5 111s-26.5 63.667 -46.5 89l-328 -466c37.333 -21.333 80.333 -32 129 -32zM387.004 865.002
l92 80h90v-60l-92 -80h-90v60z" />
    <glyph glyph-name="oslashacute" unicode="&#x1ff;" horiz-adv-x="594" 
d="M297 -10c-42.667 0 -80.667 8.00195 -114 24.002l-50 -73h-100l83 120c-23.333 24 -41.333 52.167 -54 84.5s-19 67.5 -19 105.5c0 36 5.66699 69.667 17 101s28 58.666 50 81.999s48.667 41.833 80 55.5s67 20.5 107 20.5c42.667 0 80.334 -7.66699 113.001 -23l51 73
h100l-83 -120c23.333 -23.333 41.333 -51.166 54 -83.499s19 -67.5 19 -105.5c0 -36 -5.83301 -69.833 -17.5 -101.5s-28.334 -59.334 -50.001 -83.001s-48.167 -42.334 -79.5 -56.001s-67 -20.5 -107 -20.5zM143 251.002c0 -43.333 9.33301 -80.333 28 -111l189 274
c-18.667 7.33301 -39.667 11 -63 11c-26 0 -48.667 -4.66699 -68 -14s-35.333 -21.833 -48 -37.5s-22.167 -34 -28.5 -55s-9.5 -43.5 -9.5 -67.5zM297 75.002c26 0 48.667 4.66797 68 14.001s35.333 22 48 38s22.167 34.667 28.5 56s9.5 44 9.5 68
c0 20.667 -2.33301 40.167 -7 58.5s-11.667 35.166 -21 50.499l-189 -273c18 -8 39 -12 63 -12zM246 670.003l92 80h90v-60l-92 -80h-90v60z" />
    <glyph glyph-name="Scommaaccent" unicode="&#x218;" horiz-adv-x="594" 
d="M297 -10c-31.333 0 -60.166 3.33105 -86.499 9.99805s-49.833 15.667 -70.5 27s-38.334 24.333 -53.001 39s-26 30 -34 46v70h80c11.333 -28.667 30.833 -52.834 58.5 -72.501s63.5 -29.5 107.5 -29.5c41.333 0 75.333 10.5 102 31.5s40 49.833 40 86.5
c0 33.333 -10.333 59.333 -31 78s-53.667 34.667 -99 48l-53 16c-67.333 20 -116.833 47.333 -148.5 82s-47.5 78.667 -47.5 132c0 32 5.83301 60.667 17.5 86s28.167 46.833 49.5 64.5s46.666 31.334 75.999 41.001s62 14.5 98 14.5c60 0 107.5 -10.5 142.5 -31.5
s59.167 -48.5 72.5 -82.5v-70h-80c-8.66699 28 -24 50.667 -46 68s-54.333 26 -97 26s-74.667 -10.667 -96 -32s-32 -46.666 -32 -75.999c0 -30 10 -53.667 30 -71s50.667 -32.666 92 -45.999l70 -22c63.333 -20 110.5 -48 141.5 -84s46.5 -83 46.5 -141
c0 -32 -6.16699 -60.833 -18.5 -86.5s-29.666 -47.5 -51.999 -65.5s-48.833 -31.833 -79.5 -41.5s-64 -14.5 -100 -14.5zM259 -52.002h95v-72l-40 -81h-55v153z" />
    <glyph glyph-name="scommaaccent" unicode="&#x219;" horiz-adv-x="474" 
d="M245 -10c-39.333 0 -71.834 4.50195 -97.501 13.502s-46.167 19.167 -61.5 30.5c-18 12.667 -31.667 27.334 -41 44.001v65h65c7.33301 -12.667 17 -24 29 -34c11.333 -9.33301 25.333 -17.333 42 -24s37.667 -10 63 -10c36 0 60.833 5.66699 74.5 17s20.5 26 20.5 44
c0 12 -2.83301 21.667 -8.5 29s-13.334 13.5 -23.001 18.5s-21 9.16699 -34 12.5s-26.833 6.66602 -41.5 9.99902l-55 12c-16 3.33301 -31.333 8.5 -46 15.5s-27.667 16 -39 27s-20.333 24.667 -27 41s-10 35.5 -10 57.5c0 19.333 3.83301 38.166 11.5 56.499
s19 34.5 34 48.5s33.5 25.167 55.5 33.5s47.667 12.5 77 12.5c26.667 0 49.834 -2.33301 69.501 -7s36.5 -10.834 50.5 -18.501s25.333 -16.334 34 -26.001s15.667 -19.167 21 -28.5v-65h-65c-5.33301 11.333 -12.666 21.333 -21.999 30c-8.66699 8 -20 15 -34 21
s-31.667 9 -53 9c-31.333 0 -53.333 -5.83301 -66 -17.5s-19 -26.167 -19 -43.5c0 -18 8 -32 24 -42s36 -17.667 60 -23l53 -12c18 -4 35.833 -9.16699 53.5 -15.5s33.334 -14.666 47.001 -24.999s24.834 -23.5 33.501 -39.5s13 -35.667 13 -59
c0 -22 -3.83301 -42.667 -11.5 -62s-19.334 -36 -35.001 -50s-35.334 -25.167 -59.001 -33.5s-51.167 -12.5 -82.5 -12.5zM202.999 -51.998h95v-72l-40 -81h-55v153z" />
    <glyph glyph-name="uni0237" unicode="&#x237;" horiz-adv-x="248" 
d="M25 -260c-20 0 -37.333 1.99902 -52 5.99902s-27 8.83301 -37 14.5s-18.167 11.834 -24.5 18.501s-10.833 13 -13.5 19v65h65c2 -6 5.33301 -11.667 10 -17c4.66699 -4 10.5 -7.66699 17.5 -11s16.167 -5 27.5 -5c23.333 0 38.5 6.66699 45.5 20s10.5 34.333 10.5 63v587
h100v-587c0 -54 -11 -96.333 -33 -127s-60.667 -46 -116 -46z" />
    <glyph glyph-name="circumflex" unicode="&#x2c6;" horiz-adv-x="500" 
d="M212 677l-77 -67h-60v60l92 80h90l92 -80v-60h-60z" />
    <glyph glyph-name="caron" unicode="&#x2c7;" horiz-adv-x="424" 
d="M171 610l-96 80v60h60l80 -67l74 67h60v-60l-88 -80h-90z" />
    <glyph glyph-name="breve" unicode="&#x2d8;" horiz-adv-x="412" 
d="M208 585c-28.667 0 -51.668 3.33105 -69.001 9.99805s-31 14.334 -41 23.001c-10.667 9.33301 -18.334 20 -23.001 32v70h70c2 -10 5.66699 -18.667 11 -26c4 -7.33301 10.167 -13.5 18.5 -18.5s19.5 -7.5 33.5 -7.5c14.667 0 25.834 2.66699 33.501 8
s13.5 11.333 17.5 18c4.66699 7.33301 7.33398 16 8.00098 26h70v-70c-4 -12 -11.333 -22.667 -22 -32c-10 -9.33301 -23.333 -17.166 -40 -23.499s-39 -9.5 -67 -9.5z" />
    <glyph glyph-name="dotaccent" unicode="&#x2d9;" horiz-adv-x="260" 
d="M75 720h110v-110h-110v110z" />
    <glyph glyph-name="ring" unicode="&#x2da;" horiz-adv-x="500" 
d="M250 565c-28 0 -51.333 8.66699 -70 26s-28 39.666 -28 66.999c0 26.667 9.33301 48.834 28 66.501s42 26.5 70 26.5s51.333 -8.83301 70 -26.5s28 -39.834 28 -66.501c0 -27.333 -9.33301 -49.666 -28 -66.999s-42 -26 -70 -26zM250 628c8 0 15 2.66699 21 8
s9 12.666 9 21.999s-3 16.666 -9 21.999s-13 8 -21 8s-15 -2.66699 -21 -8s-9 -12.666 -9 -21.999s3 -16.666 9 -21.999s13 -8 21 -8z" />
    <glyph glyph-name="ogonek" unicode="&#x2db;" horiz-adv-x="295" 
d="M164 -172c-14 3.33301 -26.333 8.99902 -37 16.999c-10.667 7.33301 -19.667 17 -27 29s-11 28 -11 48c0 18 5.16699 34.333 15.5 49s22.166 24.334 35.499 29.001h80c-8 -1.33301 -15.333 -4 -22 -8c-6 -3.33301 -11.167 -8.33301 -15.5 -15s-6.5 -16 -6.5 -28
s3 -21.5 9 -28.5s12.667 -12.167 20 -15.5c8.66699 -4 18.334 -6.33301 29.001 -7v-70h-70z" />
    <glyph glyph-name="tilde" unicode="&#x2dc;" horiz-adv-x="453" 
d="M291 609c-13.333 0 -25 1.66699 -35 5s-19.167 6.83301 -27.5 10.5l-24 10.5c-7.66699 3.33301 -16.167 5 -25.5 5c-7.33301 0 -14.166 -1.83301 -20.499 -5.5s-10.833 -10.5 -13.5 -20.5h-70c0 35.333 8.5 62.166 25.5 80.499s40.5 27.5 70.5 27.5
c13.333 0 24.666 -1.66699 33.999 -5s17.666 -6.83301 24.999 -10.5l21 -10.5c6.66699 -3.33301 14.334 -5 23.001 -5c7.33301 0 14.333 1.33301 21 4s11 10 13 22h70c0 -35.333 -7 -62.166 -21 -80.499s-36 -27.5 -66 -27.5z" />
    <glyph glyph-name="hungarumlaut" unicode="&#x2dd;" horiz-adv-x="484" 
d="M75 670l92 80h70v-60l-92 -80h-70v60zM247 670l92 80h70v-60l-92 -80h-70v60z" />
    <glyph glyph-name="afii10023" unicode="&#x401;" horiz-adv-x="580" 
d="M95 750h431v-90h-321v-230h291v-90h-291v-250h321v-90h-431v750zM167 915h110v-110h-110v110zM347 915h110v-110h-110v110z" />
    <glyph glyph-name="afii10051" unicode="&#x402;" horiz-adv-x="839" 
d="M577 -10c-18 0 -34.5 1 -49.5 3s-29.167 4.33301 -42.5 7v87c13.333 -2 27 -3.66699 41 -5s28.667 -2 44 -2c37.333 0 67.5 13.5 90.5 40.5s34.5 66.5 34.5 118.5c0 51.333 -13.833 90.333 -41.5 117s-68.167 40 -121.5 40c-24 0 -46 -3.33301 -66 -10
s-37.167 -16 -51.5 -28s-25.5 -26.5 -33.5 -43.5s-12 -35.5 -12 -55.5v-259h-110v660h-240v90h590v-90h-240v-253c17.333 25.333 42 45.5 74 60.5s70 22.5 114 22.5c38.667 0 73.334 -5.83301 104.001 -17.5s56.667 -28.5 78 -50.5s37.666 -48.5 48.999 -79.5
s17 -65.5 17 -103.5c0 -36 -5.66699 -69.333 -17 -100s-27 -57 -47 -79s-44 -39.167 -72 -51.5s-58.667 -18.5 -92 -18.5z" />
    <glyph glyph-name="afii10052" unicode="&#x403;" horiz-adv-x="547" 
d="M256 865l92 80h90v-60l-92 -80h-90v60zM95 750h431v-90h-321v-660h-110v750z" />
    <glyph glyph-name="afii10053" unicode="&#x404;" horiz-adv-x="744" 
d="M697 116c-14.667 -23.333 -34.6621 -44.333 -59.9951 -63c-23.333 -17.333 -52.5 -32.166 -87.5 -44.499s-79.167 -18.5 -132.5 -18.5c-60.667 0 -114 10.167 -160 30.5s-84.5 48.166 -115.5 83.499s-54.333 76.5 -70 123.5s-23.5 97.167 -23.5 150.5
c0 54 8.83301 104.167 26.5 150.5s42.5 86.666 74.5 120.999s70.667 61.333 116 81s96 29.5 152 29.5c54 0 98.667 -6.33301 134 -19s63.666 -26.334 84.999 -41.001c24 -18 42.667 -38.333 56 -61v-70h-80c-8 18.667 -20.333 35.667 -37 51
c-14.667 13.333 -34.167 25 -58.5 35s-56.5 15 -96.5 15c-36.667 0 -69.834 -6 -99.501 -18s-55.5 -28.667 -77.5 -50s-40 -46.666 -54 -75.999s-23.333 -61.333 -28 -96h376v-90h-377c3.33301 -36.667 11.666 -70.667 24.999 -102s31 -58.666 53 -81.999
s48.333 -41.666 79 -54.999s65 -20 103 -20c38.667 0 70.667 5.5 96 16.5s45.666 23.167 60.999 36.5c17.333 15.333 30.666 32.666 39.999 51.999h80v-70z" />
    <glyph glyph-name="afii10054" unicode="&#x405;" horiz-adv-x="594" 
d="M297 -10c-31.333 0 -60.166 3.33105 -86.499 9.99805s-49.833 15.667 -70.5 27s-38.334 24.333 -53.001 39s-26 30 -34 46v70h80c11.333 -28.667 30.833 -52.834 58.5 -72.501s63.5 -29.5 107.5 -29.5c41.333 0 75.333 10.5 102 31.5s40 49.833 40 86.5
c0 33.333 -10.333 59.333 -31 78s-53.667 34.667 -99 48l-53 16c-67.333 20 -116.833 47.333 -148.5 82s-47.5 78.667 -47.5 132c0 32 5.83301 60.667 17.5 86s28.167 46.833 49.5 64.5s46.666 31.334 75.999 41.001s62 14.5 98 14.5c60 0 107.5 -10.5 142.5 -31.5
s59.167 -48.5 72.5 -82.5v-70h-80c-8.66699 28 -24 50.667 -46 68s-54.333 26 -97 26s-74.667 -10.667 -96 -32s-32 -46.666 -32 -75.999c0 -30 10 -53.667 30 -71s50.667 -32.666 92 -45.999l70 -22c63.333 -20 110.5 -48 141.5 -84s46.5 -83 46.5 -141
c0 -32 -6.16699 -60.833 -18.5 -86.5s-29.666 -47.5 -51.999 -65.5s-48.833 -31.833 -79.5 -41.5s-64 -14.5 -100 -14.5z" />
    <glyph glyph-name="afii10055" unicode="&#x406;" horiz-adv-x="300" 
d="M95 750h110v-750h-110v750z" />
    <glyph glyph-name="afii10056" unicode="&#x407;" horiz-adv-x="300" 
d="M5 915h110v-110h-110v110zM185 915h110v-110h-110v110zM95 750h110v-750h-110v750z" />
    <glyph glyph-name="afii10057" unicode="&#x408;" horiz-adv-x="448" 
d="M178 -10c-30.667 0 -55.999 3.66797 -75.999 11.001s-35.667 15.666 -47 24.999c-14 10.667 -24.667 22.667 -32 36v71h80c2.66699 -10 7 -18.667 13 -26c5.33301 -7.33301 12.5 -13.666 21.5 -18.999s20.833 -8 35.5 -8c12 0 22.833 1.33301 32.5 4
s17.667 8.16699 24 16.5s11.166 19.833 14.499 34.5s5 34 5 58v557h110v-556c0 -66.667 -14.167 -117.334 -42.5 -152.001s-74.5 -52 -138.5 -52z" />
    <glyph glyph-name="afii10058" unicode="&#x409;" horiz-adv-x="1026" 
d="M16 101l26 -0.000976562c17.333 0 32.5 5.33301 45.5 16s24 27.834 33 51.501s16.167 54.167 21.5 91.5s8.66602 83 9.99902 137l10 353h459v-275h111c40 0 76.333 -5.33301 109 -16s60.334 -26 83.001 -46s40.167 -44 52.5 -72s18.5 -59.333 18.5 -94
c0 -32 -5.5 -62.833 -16.5 -92.5s-27.5 -56 -49.5 -79s-49.333 -41.333 -82 -55s-71 -20.5 -115 -20.5h-221v660h-252l-7 -259c-2 -66 -6.5 -124 -13.5 -174s-18.167 -91.833 -33.5 -125.5s-35.333 -59 -60 -76s-55.667 -25.5 -93 -25.5h-36v101zM731 89.999
c48 0 85.667 14 113 42s41 65 41 111c0 18.667 -3.33301 36.667 -10 54s-16.5 32.5 -29.5 45.5s-29.167 23.333 -48.5 31s-41.333 11.5 -66 11.5h-110v-295h110z" />
    <glyph glyph-name="afii10059" unicode="&#x40a;" horiz-adv-x="1039" 
d="M205 0l-110 -0.000976562v750h110v-305h320v305h110v-305h111c80.667 0 144.667 -18.167 192 -54.5s71 -89.166 71 -158.499c0 -32 -5.5 -62 -16.5 -90s-27.5 -52.5 -49.5 -73.5s-49.333 -37.667 -82 -50s-71 -18.5 -115 -18.5h-221v355h-320v-355zM745 89.999
c48 0 85.667 11.5 113 34.5s41 57.5 41 103.5c0 38 -13.167 68.667 -39.5 92s-64.5 35 -114.5 35h-110v-265h110z" />
    <glyph glyph-name="afii10060" unicode="&#x40b;" horiz-adv-x="827" 
d="M259 660l-240 -0.000976562v90h590v-90h-240v-253c14 26.667 37 47.167 69 61.5s69 21.5 111 21.5c72.667 0 129.167 -21.167 169.5 -63.5s60.5 -101.833 60.5 -178.5v-248h-110v243c0 54.667 -12.833 93.834 -38.5 117.501s-60.5 35.5 -104.5 35.5
c-52 0 -91.167 -13.167 -117.5 -39.5s-39.5 -60.5 -39.5 -102.5v-254h-110v660z" />
    <glyph glyph-name="afii10061" unicode="&#x40c;" horiz-adv-x="649" 
d="M308 865l92 80h90v-60l-92 -80h-90v60zM205 0h-110v750h110v-357l327 357h70v-70l-276 -296l299 -309v-75h-75l-345 359v-359z" />
    <glyph glyph-name="afii10062" unicode="&#x40e;" horiz-adv-x="605" 
d="M169 0v70l85 154l-242 451v75h75l225 -419l212 419h70v-70l-355 -680h-70zM311 809c-30 0 -54.834 4.00098 -74.501 12.001s-35.167 17 -46.5 27c-14 10.667 -24.667 23.334 -32 38.001v66h70c2.66699 -14 7.66699 -26.333 15 -37c6 -10 14.333 -18.667 25 -26
s25 -11 43 -11c16.667 0 30.167 3.83301 40.5 11.5s18.833 16.167 25.5 25.5c7.33301 10.667 13 23 17 37h70v-66c-7.33301 -14.667 -17.666 -27.334 -30.999 -38.001c-12.667 -10.667 -28.667 -19.834 -48 -27.501s-44 -11.5 -74 -11.5z" />
    <glyph glyph-name="afii10145" unicode="&#x40f;" horiz-adv-x="760" 
d="M330 0h-235v750h110v-660h350v660h110v-750h-235v-150h-100v150z" />
    <glyph glyph-name="afii10017" unicode="&#x410;" horiz-adv-x="681" 
d="M17 0v70l281 680h85l279 -670v-80h-80l-81 200h-324l-80 -200h-80zM339 603l-126 -313h252z" />
    <glyph glyph-name="afii10018" unicode="&#x411;" horiz-adv-x="637" 
d="M95 750l450.999 0.00292969v-90h-341v-205h131c40 0 76.333 -4.83301 109 -14.5s60.334 -23.834 83.001 -42.501s40.167 -41.5 52.5 -68.5s18.5 -57.833 18.5 -92.5c0 -32 -5.5 -62.333 -16.5 -91s-27.5 -53.834 -49.5 -75.501s-49.333 -38.834 -82 -51.501
s-71 -19 -115 -19h-241v750zM334.999 90.0029c48 0 85.667 12.333 113 37s41 60 41 106c0 38 -13.167 69.5 -39.5 94.5s-64.5 37.5 -114.5 37.5h-130v-275h130z" />
    <glyph glyph-name="afii10019" unicode="&#x412;" horiz-adv-x="647" 
d="M95 750l241.001 -0.00488281c36 0 68.333 -4.66699 97 -14s53 -22.666 73 -39.999s35.5 -38.166 46.5 -62.499s16.5 -51.5 16.5 -81.5c0 -36.667 -8.33301 -68.167 -25 -94.5s-40.334 -46.166 -71.001 -59.499c40 -13.333 70.5 -35.166 91.5 -65.499
s31.5 -66.833 31.5 -109.5c0 -34 -5.83301 -64.667 -17.5 -92s-28.5 -50.666 -50.5 -69.999s-48.833 -34.333 -80.5 -45s-67.5 -16 -107.5 -16h-245v750zM328.001 432.995c42 0 74.333 10.499 97 31.499s34 48.833 34 83.5c0 15.333 -2.66699 29.833 -8 43.5
s-13.333 25.834 -24 36.501s-23.667 19 -39 25s-33 9 -53 9h-133v-229h126zM341.001 87.9941c23.333 0 44 3.50098 62 10.501s33.167 16.667 45.5 29s21.666 26.666 27.999 42.999s9.5 33.5 9.5 51.5c0 37.333 -11.667 67.5 -35 90.5s-59.666 34.5 -108.999 34.5h-140v-259
h139z" />
    <glyph glyph-name="afii10020" unicode="&#x413;" horiz-adv-x="547" 
d="M95 750h431v-90h-321v-660h-110v750z" />
    <glyph glyph-name="afii10021" unicode="&#x414;" horiz-adv-x="780" 
d="M8 90h59c16.667 20 31.667 45.667 45 77c12.667 28.667 24 63.5 34 104.5s16.333 91.833 19 152.5l14 326h469v-660h100v-240h-100v150h-540v-150h-100v240zM538 90v570h-264l-10 -236c-2.66699 -62.667 -8.66699 -115.167 -18 -157.5s-19 -76.833 -29 -103.5
c-11.333 -30.667 -24 -55 -38 -73h359z" />
    <glyph glyph-name="afii10022" unicode="&#x415;" horiz-adv-x="580" 
d="M95 750h431v-90h-321v-230h291v-90h-291v-250h321v-90h-431v750z" />
    <glyph glyph-name="afii10024" unicode="&#x416;" horiz-adv-x="961" 
d="M101 0h-75v75l277 307l-254 295v73h73l304 -355v355h110v-355l307 355h70v-70l-255 -293l278 -312v-75h-75l-325 358v-358h-110v358z" />
    <glyph glyph-name="afii10025" unicode="&#x417;" horiz-adv-x="585" 
d="M292 -10c-49.333 0 -89.832 6.00195 -121.499 18.002s-56.834 25.333 -75.501 40c-22 17.333 -39 36.666 -51 57.999v70h80c7.33301 -18 18 -33.667 32 -47c12.667 -13.333 29 -24.666 49 -33.999s46.333 -14 79 -14c47.333 0 82.833 12.667 106.5 38
s35.5 57.666 35.5 96.999s-12 70.666 -36 93.999s-65 35 -123 35h-73v90h67c44 0 77.167 11.5 99.5 34.5s33.5 52.833 33.5 89.5c0 33.333 -11.667 60.166 -35 80.499s-52.666 30.5 -87.999 30.5c-27.333 0 -49.5 -4.16699 -66.5 -12.5s-30.167 -17.5 -39.5 -27.5
c-12 -12 -20.667 -25.667 -26 -41h-80v70c11.333 18.667 26.666 35.667 45.999 51c18 13.333 40.333 25 67 35s60.667 15 102 15c33.333 0 64 -4.66699 92 -14s52.167 -22.833 72.5 -40.5s36.333 -38.834 48 -63.501s17.5 -52.667 17.5 -84
c0 -35.333 -9.5 -66.666 -28.5 -93.999s-45.5 -48 -79.5 -62c44 -11.333 78.333 -33 103 -65s37 -71 37 -117c0 -34 -5.66699 -65 -17 -93s-27.5 -52.167 -48.5 -72.5s-46.5 -36.166 -76.5 -47.499s-64 -17 -102 -17z" />
    <glyph glyph-name="afii10026" unicode="&#x418;" horiz-adv-x="790" 
d="M95 750h110v-589l380 589h110v-750h-110v581l-380 -581h-110v750z" />
    <glyph glyph-name="afii10027" unicode="&#x419;" horiz-adv-x="790" 
d="M95 750h110v-589l380 589h110v-750h-110v581l-380 -581h-110v750zM410 809c-30 0 -54.834 4.00098 -74.501 12.001s-35.167 17 -46.5 27c-14 10.667 -24.667 23.334 -32 38.001v66h70c2.66699 -14 7.66699 -26.333 15 -37c6 -10 14.333 -18.667 25 -26s25 -11 43 -11
c16.667 0 30.167 3.83301 40.5 11.5s18.833 16.167 25.5 25.5c7.33301 10.667 13 23 17 37h70v-66c-7.33301 -14.667 -17.666 -27.334 -30.999 -38.001c-12.667 -10.667 -28.667 -19.834 -48 -27.501s-44 -11.5 -74 -11.5z" />
    <glyph glyph-name="afii10028" unicode="&#x41a;" horiz-adv-x="649" 
d="M205 0h-110v750h110v-357l327 357h70v-70l-276 -296l299 -309v-75h-75l-345 359v-359z" />
    <glyph glyph-name="afii10029" unicode="&#x41b;" horiz-adv-x="716" 
d="M16 101l26.001 -0.000976562c17.333 0 32.5 5.33301 45.5 16s24 27.834 33 51.501s16.167 54.167 21.5 91.5s8.66602 83 9.99902 137l10 353h459v-750h-110v660h-252l-7 -259c-2 -66 -6.5 -124 -13.5 -174s-18.167 -91.833 -33.5 -125.5s-35.333 -59 -60 -76
s-55.667 -25.5 -93 -25.5h-36v101z" />
    <glyph glyph-name="afii10030" unicode="&#x41c;" horiz-adv-x="917" 
d="M195 616v-616h-100v750h138l229 -422l223 422h137v-750h-110v616l-221 -421h-75z" />
    <glyph glyph-name="afii10031" unicode="&#x41d;" horiz-adv-x="770" 
d="M95 750h110v-320h360v320h110v-750h-110v340h-360v-340h-110v750z" />
    <glyph glyph-name="afii10032" unicode="&#x41e;" horiz-adv-x="840" 
d="M420 -10c-56 0 -106.833 9.83301 -152.5 29.5s-84.667 46.667 -117 81s-57.5 75.166 -75.5 122.499s-27 99 -27 155c0 55.333 9 106.333 27 153s43.167 87 75.5 121s71.333 60.5 117 79.5s96.5 28.5 152.5 28.5s106.833 -9.5 152.5 -28.5s84.667 -45.5 117 -79.5
s57.5 -74.333 75.5 -121s27 -97.667 27 -153c0 -56 -9 -107.667 -27 -155s-43.167 -88.166 -75.5 -122.499s-71.333 -61.333 -117 -81s-96.5 -29.5 -152.5 -29.5zM420 80c40 0 76.167 7.33301 108.5 22s59.833 35.167 82.5 61.5s40.167 57.833 52.5 94.5
s18.5 76.667 18.5 120c0 42.667 -6.16699 81.834 -18.5 117.501s-29.833 66.5 -52.5 92.5s-50.167 46.167 -82.5 60.5s-68.5 21.5 -108.5 21.5s-76.167 -7.16699 -108.5 -21.5s-59.833 -34.5 -82.5 -60.5s-40.167 -56.833 -52.5 -92.5s-18.5 -74.834 -18.5 -117.501
c0 -43.333 6.16699 -83.333 18.5 -120s29.833 -68.167 52.5 -94.5s50.167 -46.833 82.5 -61.5s68.5 -22 108.5 -22z" />
    <glyph glyph-name="afii10033" unicode="&#x41f;" horiz-adv-x="760" 
d="M95 750h570v-750h-110v660h-350v-660h-110v750z" />
    </font>
</defs>
</svg>
