<?xml version="1.0" standalone="no"?>
<!DOCTYPE svg PUBLIC "-//W3C//DTD SVG 1.1//EN" "http://www.w3.org/Graphics/SVG/1.1/DTD/svg11.dtd" >
<svg>
<metadata>
Created by FontForge 20090914 at Tue Nov 12 16:13:42 2019
 By www-data
&#194;&#169;2014-16 Ilya Ruderman and Yury Ostromentsky, under exclusive license to CSTM Fonts. All rights reserved.
</metadata>
<defs>
<font id="Navigo-Bold" horiz-adv-x="1180" >
  <font-face 
    font-family="Navigo"
    font-weight="700"
    font-stretch="normal"
    units-per-em="1000"
    panose-1="2 7 5 3 7 7 6 4 3 3"
    ascent="750"
    descent="-250"
    x-height="505"
    cap-height="750"
    bbox="-135 -260.002 1513 1149"
    underline-thickness="50"
    underline-position="-125"
    unicode-range="U+000D-U+1F7CA"
  />
<missing-glyph horiz-adv-x="607" 
d="M78 750h451v-1000h-451v1000zM428 -149v798h-249v-798h249z" />
    <glyph glyph-name="fi" unicode="fi" horiz-adv-x="626" 
d="M111 382l-84.999 0.00195312v123h85v31c0 36 6 67.833 18 95.5s29 51 51 70s48 33.5 78 43.5s63 15 99 15c59.333 0 105.666 -11.5 138.999 -34.5s55.333 -50.833 66 -83.5v-67h-126c0 3.33301 -1 8.16602 -3 14.499s-6 12.666 -12 18.999s-14.333 11.833 -25 16.5
s-25 7 -43 7c-29.333 0 -51.833 -7.66699 -67.5 -23s-23.5 -39.333 -23.5 -72v-32h100v-123h-100v-382h-151v382zM412.001 505.002h150v-505h-150v505z" />
    <glyph glyph-name="fl" unicode="fl" horiz-adv-x="626" 
d="M262 0h-151v382h-85v123h85v26c0 72.667 22.167 129 66.5 169s105.833 60 184.5 60c42.667 0 81.667 -5 117 -15s63 -22.667 83 -38v-707h-150v624c-4 1.33301 -10.167 3 -18.5 5s-18.833 3 -31.5 3c-36 0 -61.667 -8 -77 -24s-23 -41.333 -23 -76v-27h100v-123h-100
v-382z" />
    <glyph glyph-name=".notdef" horiz-adv-x="607" 
d="M78 750h451v-1000h-451v1000zM428 -149v798h-249v-798h249z" />
    <glyph glyph-name=".null" horiz-adv-x="0" 
 />
    <glyph glyph-name="nonmarkingreturn" unicode="&#xd;" horiz-adv-x="250" 
 />
    <glyph glyph-name="space" unicode=" " horiz-adv-x="232" 
 />
    <glyph glyph-name="exclam" unicode="!" horiz-adv-x="312" 
d="M73 750h166l-10 -509h-146zM76 161h161v-161h-161v161z" />
    <glyph glyph-name="quotedbl" unicode="&#x22;" horiz-adv-x="467" 
d="M50 750h156l-20 -291h-115zM261 750h156l-21 -291h-115z" />
    <glyph glyph-name="numbersign" unicode="#" horiz-adv-x="688" 
d="M366 170h-96l-25 -170h-143l25 170h-88v125h107l20 140h-97v125h116l28 190h143l-28 -190h96l28 190h143l-28 -190h79v-125h-98l-20 -140h88v-125h-107l-25 -170h-143zM405 435h-96l-20 -140h96z" />
    <glyph glyph-name="dollar" unicode="$" horiz-adv-x="627" 
d="M594 218c0 -32.667 -5.6709 -62.4961 -17.0039 -89.4961s-27.5 -50.5 -48.5 -70.5s-46.333 -36 -76 -48s-62.5 -19.667 -98.5 -23l-5 -130h-105l5 132c-58.667 8.66699 -105.167 26.5 -139.5 53.5s-58.166 58.5 -71.499 94.5v75h130c7.33301 -20.667 17.833 -38 31.5 -52
s32.167 -24.333 55.5 -31l8 190l-9 2c-69.333 14 -122.166 38.333 -158.499 73s-54.5 82.334 -54.5 143.001c0 33.333 5.66699 63.5 17 90.5s27.333 50.167 48 69.5s45.834 34.666 75.501 45.999s62.5 18.333 98.5 21l5 112h105l-5 -117c50 -8 91 -24.333 123 -49
s52.333 -56 61 -94v-76h-131c-4.66699 17.333 -11.167 32.666 -19.5 45.999s-21.166 23.666 -38.499 30.999l-7 -176h1c68.667 -14.667 122.5 -39.834 161.5 -75.501s58.5 -84.834 58.5 -147.501zM196.996 546.004c0 -17.333 5 -32.668 15 -46.001s29 -24.666 57 -33.999
l6 160c-26 -4.66699 -45.5 -14 -58.5 -28s-19.5 -31.333 -19.5 -52zM437.996 209.002c0 20 -5.33301 37 -16 51s-29 26 -55 36l-7 -171c52 10 78 38 78 84z" />
    <glyph glyph-name="percent" unicode="%" horiz-adv-x="1079" 
d="M246 333c-32.667 0 -62.335 5.49902 -89.002 16.499s-49.5 26.333 -68.5 46s-33.5 42.667 -43.5 69s-15 54.5 -15 84.5c0 31.333 5.16699 60.166 15.5 86.499s24.833 49 43.5 68s41.334 34 68.001 45s56.334 16.5 89.001 16.5c32 0 61.333 -5.5 88 -16.5
s49.5 -26.167 68.5 -45.5s33.667 -42.166 44 -68.499s15.5 -54.833 15.5 -85.5s-5.16699 -59.167 -15.5 -85.5s-25 -49.166 -44 -68.499s-41.667 -34.5 -68 -45.5s-55.833 -16.5 -88.5 -16.5zM698.999 761.999h156l-482 -788h-156zM245.999 456.999c26 0 44.833 9 56.5 27
s17.5 39.667 17.5 65c0 26 -6 47.833 -18 65.5s-30.667 26.5 -56 26.5c-26 0 -45 -9 -57 -27s-18 -39.667 -18 -65s6 -47 18 -65s31 -27 57 -27zM831.999 -15.001c-32.667 0 -62.3311 5.49902 -88.998 16.499s-49.5 26.333 -68.5 46s-33.5 42.667 -43.5 69
s-15 54.5 -15 84.5c0 31.333 5.16699 60.166 15.5 86.499s25 49 44 68s41.667 34 68 45s55.833 16.5 88.5 16.5s62.167 -5.5 88.5 -16.5s49 -26.167 68 -45.5s33.667 -42.166 44 -68.499s15.5 -54.833 15.5 -85.5s-5.16699 -59.167 -15.5 -85.5
s-24.833 -49.166 -43.5 -68.499s-41.334 -34.5 -68.001 -45.5s-56.334 -16.5 -89.001 -16.5zM832.002 108.998c26 0 44.833 9 56.5 27s17.5 39.667 17.5 65s-6 47 -18 65s-30.667 27 -56 27s-44 -9 -56 -27s-18 -39.667 -18 -65s5.83301 -47 17.5 -65s30.5 -27 56.5 -27z
" />
    <glyph glyph-name="ampersand" unicode="&#x26;" horiz-adv-x="755" 
d="M525 53c-32 -22 -66.6621 -39 -103.995 -51s-77 -18 -119 -18c-42.667 0 -80.334 5.5 -113.001 16.5s-60.334 26.333 -83.001 46s-39.834 42.834 -51.501 69.501s-17.5 56 -17.5 88c0 33.333 5.83301 61.666 17.5 84.999s25.5 42.833 41.5 58.5s32 27.834 48 36.501
s28.333 14.667 37 18c-39.333 49.333 -59 103.666 -59 162.999c0 30 5.5 57.167 16.5 81.5s26.5 45.333 46.5 63s43.667 31.334 71 41.001s57.333 14.5 90 14.5c37.333 0 69.666 -5.33301 96.999 -16s50 -24.834 68 -42.501s31.5 -38 40.5 -61s13.5 -47.167 13.5 -72.5
c0 -22.667 -3.66699 -44.167 -11 -64.5s-17.333 -39.333 -30 -57s-27.334 -33.667 -44.001 -48s-34.667 -26.833 -54 -37.5l100 -100c16.667 32.667 27.667 68.667 33 108h159c-12 -80.667 -39.333 -152 -82 -214l92 -90v-70h-151zM277.005 562
c0 -18.667 4.83301 -36.5 14.5 -53.5s24.167 -35.5 43.5 -55.5c25.333 15.333 44.333 32.5 57 51.5s19 38.167 19 57.5c0 20.667 -6.16699 37.667 -18.5 51s-27.5 20 -45.5 20c-21.333 0 -38.333 -6.33301 -51 -19s-19 -30 -19 -52zM311.005 121
c21.333 0 42 3.16895 62 9.50195s37.333 15.166 52 26.499l-157 160c-4 -2 -9.83301 -5.33301 -17.5 -10s-15 -10.834 -22 -18.501s-13.167 -17 -18.5 -28s-8 -23.833 -8 -38.5c0 -30.667 9.16699 -55.167 27.5 -73.5s45.5 -27.5 81.5 -27.5z" />
    <glyph glyph-name="quotesingle" unicode="'" horiz-adv-x="256" 
d="M50 750h156l-20 -291h-115z" />
    <glyph glyph-name="parenleft" unicode="(" horiz-adv-x="384" 
d="M358 -230c-51.333 12.667 -97 33.3301 -137 61.9971s-73.5 64.334 -100.5 107.001s-47.5 91.667 -61.5 147s-21 116 -21 182s7 126.667 21 182s34.5 104.333 61.5 147s60.5 78.334 100.5 107.001s85.667 49.334 137 62.001v-126c-29.333 -10 -54.333 -27.333 -75 -52
s-37.667 -54 -51 -88s-23 -71 -29 -111s-9 -80.333 -9 -121s3 -81 9 -121s15.667 -77 29 -111s30.333 -63.333 51 -88s45.667 -42 75 -52v-126z" />
    <glyph glyph-name="parenright" unicode=")" horiz-adv-x="384" 
d="M26 -104c29.333 10 54.333 27.3369 75 52.0039s37.667 54 51 88s23.166 71 29.499 111s9.5 80.333 9.5 121s-3.16699 81 -9.5 121s-16.166 77 -29.499 111s-30.333 63.333 -51 88s-45.667 42 -75 52v126c52 -12.667 97.833 -33.334 137.5 -62.001
s73 -64.334 100 -107.001s47.5 -91.667 61.5 -147s21 -116 21 -182s-7 -126.667 -21 -182s-34.5 -104.333 -61.5 -147s-60.333 -78.334 -100 -107.001s-85.5 -49.334 -137.5 -62.001v126z" />
    <glyph glyph-name="asterisk" unicode="*" horiz-adv-x="523" 
d="M79 396l97 108l-143 31l41 128l131 -57l-14 144h136l-16 -146l138 59l40 -128l-143 -31l97 -108l-108 -80l-74 127l-74 -127z" />
    <glyph glyph-name="plus" unicode="+" horiz-adv-x="548" 
d="M339 259v-175h-131v175h-171v123h171v175h131v-175h172v-123h-172z" />
    <glyph glyph-name="comma" unicode="," horiz-adv-x="279" 
d="M59 161h161v-151l-61 -150h-100v301z" />
    <glyph glyph-name="hyphen" unicode="-" horiz-adv-x="403" 
d="M59 370h285v-123h-285v123z" />
    <glyph glyph-name="period" unicode="." horiz-adv-x="279" 
d="M59 161h161v-161h-161v161z" />
    <glyph glyph-name="slash" unicode="/" horiz-adv-x="601" 
d="M417 819h161l-394 -1069h-161z" />
    <glyph glyph-name="zero" unicode="0" horiz-adv-x="672" 
d="M336 -15c-44.667 0 -84.5 7.33203 -119.5 21.999s-64.5 34.667 -88.5 60s-42.333 54.833 -55 88.5s-19 69.834 -19 108.501v222c0 38.667 6.5 75 19.5 109s31.5 63.5 55.5 88.5s53.5 44.833 88.5 59.5s74.5 22 118.5 22c44.667 0 84.5 -7.16699 119.5 -21.5
s64.5 -34.166 88.5 -59.499s42.333 -55 55 -89s19 -70.333 19 -109v-222c0 -38.667 -6.5 -74.834 -19.5 -108.501s-31.5 -63.167 -55.5 -88.5s-53.5 -45.333 -88.5 -60s-74.5 -22 -118.5 -22zM336 125.999c19.333 0 36.668 3.66699 52.001 11s28.166 17.166 38.499 29.499
s18.166 27 23.499 44s8 34.833 8 53.5v222c0 38.667 -10.167 71.334 -30.5 98.001s-50.833 40 -91.5 40c-19.333 0 -36.5 -3.5 -51.5 -10.5s-27.667 -16.833 -38 -29.5s-18.166 -27.334 -23.499 -44.001s-8 -34.667 -8 -54v-222c0 -18.667 2.5 -36.5 7.5 -53.5
s12.5 -31.667 22.5 -44s22.667 -22.166 38 -29.499s33 -11 53 -11z" />
    <glyph glyph-name="one" unicode="1" horiz-adv-x="426" 
d="M175 577l-44 -37h-116v75l190 135h136v-750h-166v577z" />
    <glyph glyph-name="two" unicode="2" horiz-adv-x="587" 
d="M50 0l0.000976562 135.997l220 224c26.667 27.333 48.667 55.666 66 84.999s26 60 26 92c0 28.667 -8.33301 50.334 -25 65.001s-36.667 22 -60 22c-18.667 0 -34.334 -4 -47.001 -12s-22.834 -17.5 -30.501 -28.5s-13.167 -22.167 -16.5 -33.5s-5.33301 -20 -6 -26h-131
v75c2.66699 12.667 8.83398 28.334 18.501 47.001s24 36.834 43 54.501s43.333 32.834 73 45.501s65.5 19 107.5 19c34.667 0 66.667 -4.83301 96 -14.5s54.5 -23.5 75.5 -41.5s37.5 -39.667 49.5 -65s18 -54 18 -86c0 -28 -2.83301 -53.333 -8.5 -76
s-14.5 -44.667 -26.5 -66s-27 -42.833 -45 -64.5s-39.333 -45.5 -64 -71.5l-120 -129h279v-151h-492z" />
    <glyph glyph-name="three" unicode="3" horiz-adv-x="616" 
d="M304 -13c-42.667 0 -79.6719 6.33496 -111.005 19.002s-57.666 28.167 -78.999 46.5s-37.833 37.5 -49.5 57.5s-19.167 37 -22.5 51v75h131c2 -6 5.5 -15 10.5 -27s12.5 -23.833 22.5 -35.5s22.833 -22 38.5 -31s34.834 -13.5 57.501 -13.5
c34.667 0 60.834 9.33301 78.501 28s26.5 42 26.5 70s-9 50.5 -27 67.5s-48 25.5 -90 25.5h-82v126h70c34 0 59.5 8.5 76.5 25.5s25.5 39.167 25.5 66.5c0 26.667 -8.16699 47.667 -24.5 63s-38.166 23 -65.499 23c-20 0 -36.5 -3.83301 -49.5 -11.5
s-23.5 -16.667 -31.5 -27s-13.667 -20.833 -17 -31.5s-5.66602 -19 -6.99902 -25h-128v75c2.66699 12.667 9 28.167 19 46.5s24.5 36 43.5 53s43.167 31.5 72.5 43.5s64.666 18 105.999 18c36 0 69.167 -4.83301 99.5 -14.5s56.5 -23.334 78.5 -41.001
s39.167 -38.834 51.5 -63.501s18.5 -52.334 18.5 -83.001c0 -39.333 -9.66699 -73.833 -29 -103.5s-46.666 -51.167 -81.999 -64.5c42.667 -10 76.334 -30.333 101.001 -61s37 -69 37 -115c0 -34 -6.33301 -65.333 -19 -94s-30.834 -53.167 -54.501 -73.5
s-52 -36.166 -85 -47.499s-69.833 -17 -110.5 -17z" />
    <glyph glyph-name="four" unicode="4" horiz-adv-x="650" 
d="M519 150v-160h-156v160h-343v117l353 483h146v-471h96v-129h-96zM363 526l-177 -247h177v247z" />
    <glyph glyph-name="five" unicode="5" horiz-adv-x="590" 
d="M281 -13c-40 0 -74.6709 6.00098 -104.004 18.001s-54.166 26.833 -74.499 44.5s-36 36.167 -47 55.5s-18.167 36.333 -21.5 51v75h131c0.666992 -6 2.83398 -14.667 6.50098 -26s9.83398 -22.666 18.501 -33.999s20.167 -21.166 34.5 -29.499s32.833 -12.5 55.5 -12.5
c17.333 0 32.833 3.16699 46.5 9.5s25.167 15 34.5 26s16.333 23.667 21 38s7 29.166 7 44.499c0 33.333 -9.83301 61.166 -29.5 83.499s-47.5 33.5 -83.5 33.5c-16.667 0 -31 -1.66699 -43 -5s-22 -7 -30 -11c-8.66699 -4.66699 -16 -10 -22 -16l-110 42l37 376h399v-141
h-269l-15 -128c5.33301 1.33301 15.333 4 30 8s32.334 6 53.001 6c36.667 0 70.167 -5.5 100.5 -16.5s56.5 -27.167 78.5 -48.5s39.167 -47.333 51.5 -78s18.5 -65.667 18.5 -105c0 -38.667 -6.33301 -73.834 -19 -105.501s-31 -59 -55 -82s-52.833 -40.833 -86.5 -53.5
s-71.5 -19 -113.5 -19z" />
    <glyph glyph-name="six" unicode="6" horiz-adv-x="619" 
d="M316 -13c-44 0 -83.168 6.83301 -117.501 20.5s-63.333 32.167 -87 55.5s-41.667 50.666 -54 81.999s-18.5 64.333 -18.5 99c0 31.333 3.16699 60.666 9.5 87.999s16.5 55 30.5 83s32.167 57.833 54.5 89.5s49.166 66.834 80.499 105.501l123 150h137v-68l-75 -89
l-56.5 -65.5l-46.5 -52.5c6 2.66699 12.833 5 20.5 7s16.167 3 25.5 3c39.333 -1.33301 74.5 -8.33301 105.5 -21s57.333 -30 79 -52s38.334 -47.667 50.001 -77s17.5 -61.666 17.5 -96.999c0 -36 -6.33301 -70 -19 -102s-31 -59.667 -55 -83s-53.167 -41.833 -87.5 -55.5
s-73.166 -20.5 -116.499 -20.5zM316.999 128c37.333 0 65.999 11.167 85.999 33.5s30 50.166 30 83.499s-10 61.333 -30 84s-49 34 -87 34s-66.833 -11.333 -86.5 -34s-29.5 -50.667 -29.5 -84s9.83301 -61.166 29.5 -83.499s48.834 -33.5 87.501 -33.5z" />
    <glyph glyph-name="seven" unicode="7" horiz-adv-x="513" 
d="M99 65l100.5 251.5l120.5 287.5h-295v146h464v-136l-66.5 -159.5l-65.5 -161.5l-61.5 -157l-55.5 -146h-141v75z" />
    <glyph glyph-name="eight" unicode="8" horiz-adv-x="639" 
d="M319 -15c-43.333 0 -82.166 6.16797 -116.499 18.501s-63.333 29 -87 50s-41.667 45.667 -54 74s-18.5 58.5 -18.5 90.5c0 17.333 2.16699 34.833 6.5 52.5s11 34.667 20 51s20.667 31.5 35 45.5s31.5 25.667 51.5 35c-31.333 20 -53.333 44.333 -66 73s-19 57 -19 85
s5.5 54.5 16.5 79.5s27 46.833 48 65.5s47 33.5 78 44.5s66.167 16.5 105.5 16.5s74.333 -5.5 105 -16.5s56.5 -25.833 77.5 -44.5s37 -40.5 48 -65.5s16.5 -51.5 16.5 -79.5c0 -36 -7.83301 -67.333 -23.5 -94s-35.834 -48 -60.501 -64
c20.667 -8.66699 38.167 -20 52.5 -34s26 -29.333 35 -46s15.667 -33.834 20 -51.501s6.5 -35.167 6.5 -52.5c0 -32 -6.16699 -62.167 -18.5 -90.5s-30.333 -53 -54 -74s-52.667 -37.667 -87 -50s-73.5 -18.5 -117.5 -18.5zM319 460.001c30 0 52.333 8.83301 67 26.5
s22 38.834 22 63.501c0 23.333 -7.33301 43.333 -22 60s-37 25 -67 25s-52.333 -8.33301 -67 -25s-22 -36.667 -22 -60c0 -24.667 7.33301 -45.834 22 -63.501s37 -26.5 67 -26.5zM319 121.001c36 0 63 10 81 30s27 44.333 27 73c0 29.333 -9 54.166 -27 74.499
s-45 30.5 -81 30.5c-35.333 0 -62 -10.167 -80 -30.5s-27 -45.166 -27 -74.499c0 -28.667 9 -53 27 -73s44.667 -30 80 -30z" />
    <glyph glyph-name="nine" unicode="9" horiz-adv-x="618" 
d="M146 58l23.501 28.501l30 35.5l29.5 34.5c9.33301 11 16.333 19.5 21 25.5l37.5 44l31.5 38c-11.333 -4.66699 -23 -7 -35 -7c-40.667 1.33301 -77.167 8.33301 -109.5 21s-59.5 30 -81.5 52s-38.833 48.167 -50.5 78.5s-17.5 63.5 -17.5 99.5
c0 35.333 6.33301 68.5 19 99.5s31 58.167 55 81.5s53.167 41.833 87.5 55.5s72.833 20.5 115.5 20.5c44 0 83.167 -6.83301 117.5 -20.5s63.333 -32.167 87 -55.5s41.667 -50.5 54 -81.5s18.5 -64.167 18.5 -99.5c0 -29.333 -2.83301 -57 -8.5 -83s-14.167 -52 -25.5 -78
s-26 -52.667 -44 -80s-39.667 -57 -65 -89c-4.66699 -6.66699 -13.834 -18.334 -27.501 -35.001l-44 -54l-46 -56.5l-34.5 -42.5h-138v68zM302.001 389.001c38 0 66.834 11.3311 86.501 33.998s29.5 50.334 29.5 83.001c0 34 -9.83301 62.167 -29.5 84.5
s-48.834 33.5 -87.501 33.5c-37.333 0 -66 -11.167 -86 -33.5s-30 -50.166 -30 -83.499s10 -61.333 30 -84s49 -34 87 -34z" />
    <glyph glyph-name="colon" unicode=":" horiz-adv-x="279" 
d="M59 505h161v-161h-161v161zM59 161h161v-161h-161v161z" />
    <glyph glyph-name="semicolon" unicode=";" horiz-adv-x="279" 
d="M59 505h161v-161h-161v161zM59 161h161v-151l-61 -171h-100v322z" />
    <glyph glyph-name="less" unicode="&#x3c;" horiz-adv-x="492" 
d="M357 60l-318 202v106l318 202h68v-116l-226 -139l226 -140v-115h-68z" />
    <glyph glyph-name="equal" unicode="=" horiz-adv-x="588" 
d="M62 485h464v-123h-464v123zM62 265h464v-123h-464v123z" />
    <glyph glyph-name="greater" unicode="&#x3e;" horiz-adv-x="492" 
d="M67 60v115l227 140l-227 139v116h68l318 -202v-106l-318 -202h-68z" />
    <glyph glyph-name="question" unicode="?" horiz-adv-x="537" 
d="M178 241c-6 15.333 -8.99902 30.335 -8.99902 45.002c0 21.333 4.16699 39.666 12.5 54.999s18.666 29.166 30.999 41.499s25.833 23.666 40.5 33.999s28.167 21.5 40.5 33.5s22.666 25.5 30.999 40.5s12.5 32.833 12.5 53.5c0 23.333 -7.33301 42.5 -22 57.5
s-34.667 22.5 -60 22.5c-18.667 0 -33.834 -4 -45.501 -12s-21 -17.5 -28 -28.5s-11.833 -22.167 -14.5 -33.5s-4 -20 -4 -26h-131v75c2.66699 12.667 8.66699 28.334 18 47.001s23.333 36.834 42 54.501s42.334 32.834 71.001 45.501s63.334 19 104.001 19
c34 0 65.5 -4.83301 94.5 -14.5s54 -23.334 75 -41.001s37.333 -39 49 -64s17.5 -53.167 17.5 -84.5c0 -30.667 -4.5 -56.834 -13.5 -78.501s-20 -40.5 -33 -56.5s-27.333 -30 -43 -42l-43 -34c-13 -10.667 -24 -21.667 -33 -33s-13.5 -24.333 -13.5 -39
c0 -7.33301 1 -14.333 3 -21s3.66699 -12 5 -16h-154zM177.001 161.002h161v-161h-161v161z" />
    <glyph glyph-name="at" unicode="@" horiz-adv-x="1065" 
d="M496 -237c-66.667 0 -128 10.833 -184 32.5s-104.167 52.834 -144.5 93.501s-71.666 90.5 -93.999 149.5s-33.5 125.5 -33.5 199.5c0 68.667 11.5 133.334 34.5 194.001s56 113.5 99 158.5s95.833 80.667 158.5 107s133.334 39.5 212.001 39.5
c71.333 0 136.333 -10.333 195 -31s109 -49 151 -85s74.5 -78.833 97.5 -128.5s34.5 -103.5 34.5 -161.5c0 -54 -8 -101.667 -24 -143s-38.667 -76 -68 -104s-65 -49 -107 -63s-88.667 -21 -140 -21h-91l-5 74c-6.66699 -10 -14.5 -19.833 -23.5 -29.5
s-19.167 -18.5 -30.5 -26.5s-24.333 -14.5 -39 -19.5s-31.334 -7.5 -50.001 -7.5c-30.667 0 -57 6.16699 -79 18.5s-39.667 29.666 -53 51.999s-22.5 48.833 -27.5 79.5s-5.5 64 -1.5 100c4 33.333 12.167 64.333 24.5 93s28.666 53.5 48.999 74.5s44.333 37.333 72 49
s58.5 17.5 92.5 17.5c18 0 33.667 -1.83301 47 -5.5s24.666 -8 33.999 -13s17.166 -10.167 23.499 -15.5s10.833 -9.33301 13.5 -12l11 31h117l-38 -330c50 2 86.167 19.333 108.5 52s33.5 79 33.5 139c0 35.333 -6.33301 69.666 -19 102.999s-32.167 63.333 -58.5 90
s-60.333 48 -102 64s-91.5 24 -149.5 24c-54.667 0 -103.667 -9 -147 -27s-80.166 -43.167 -110.499 -75.5s-53.5 -70.833 -69.5 -115.5s-24 -93.667 -24 -147c0 -56 7.66699 -105.167 23 -147.5s36.5 -78 63.5 -107s58.833 -50.833 95.5 -65.5s76.334 -22 119.001 -22
c28 0 53 1.16699 75 3.5s42.333 5.5 61 9.5s36 8.66699 52 14s31.667 11 47 17v-129c-15.333 -7.33301 -30.833 -13.833 -46.5 -19.5s-32.5 -10.5 -50.5 -14.5s-37.833 -7.16699 -59.5 -9.5s-46.5 -3.5 -74.5 -3.5zM494 104c29.333 0 52.168 11.666 68.501 34.999
s26.5 53 30.5 89l13 116c-4 2 -11.667 6.66699 -23 14s-27 11 -47 11c-14.667 0 -28 -3.66699 -40 -11s-22.333 -17.166 -31 -29.499s-15.834 -26.333 -21.501 -42s-9.5 -32.167 -11.5 -49.5c-10.667 -88.667 10 -133 62 -133z" />
    <glyph glyph-name="A" unicode="A" horiz-adv-x="706" 
d="M13 0v70l255 680h169l254 -670v-80h-144l-58 159h-286l-57 -159h-133zM347 571l-98 -276h196z" />
    <glyph glyph-name="B" unicode="B" horiz-adv-x="687" 
d="M82 750l299.002 0.000976562c36.667 0 69.667 -4.66699 99 -14s54.166 -22.833 74.499 -40.5s36 -38.834 47 -63.501s16.5 -52.334 16.5 -83.001c0 -37.333 -8.83301 -69.666 -26.5 -96.999s-42.167 -47 -73.5 -59c40 -12.667 71.333 -34 94 -64s34 -65 34 -105
c0 -68.667 -22.833 -123.167 -68.5 -163.5s-109.834 -60.5 -192.501 -60.5h-303v750zM355.002 448.001c32 0 56.833 7.5 74.5 22.5s26.5 35.5 26.5 61.5s-8.5 46.833 -25.5 62.5s-40.833 23.5 -71.5 23.5h-118v-170h114zM368.002 132.001c38 0 66.668 9.5 86.001 28.5
s29 42.167 29 69.5c0 26.667 -9.33301 48.667 -28 66s-47.334 26 -86.001 26h-128v-190h127z" />
    <glyph glyph-name="C" unicode="C" horiz-adv-x="729" 
d="M409 -15c-57.333 0 -108.667 9.50391 -154 28.5039s-83.833 45.667 -115.5 80s-55.834 75.5 -72.501 123.5s-25 100.667 -25 158c0 58.667 8.83301 112 26.5 160s42.5 89 74.5 123s70.5 60.333 115.5 79s95.167 28 150.5 28c50 0 92.333 -5.83301 127 -17.5
s63.334 -25.667 86.001 -42s39.667 -33.5 51 -51.5s18.333 -33 21 -45v-76h-131c-1.33301 7.33301 -5 16.166 -11 26.499s-15 20.333 -27 30s-27.167 17.834 -45.5 24.501s-41.166 10 -68.499 10c-62.667 0 -112.167 -22 -148.5 -66s-54.5 -104.667 -54.5 -182
c0 -38 4.83301 -72.333 14.5 -103s23.167 -56.834 40.5 -78.501s38.666 -38.334 63.999 -50.001s53.333 -17.5 84 -17.5c26.667 0 49.5 3.66699 68.5 11s34.667 16 47 26s21.833 20.333 28.5 31s11 19.667 13 27h131v-76c-4 -14.667 -12.667 -31.334 -26 -50.001
s-31.833 -36.334 -55.5 -53.001s-52.667 -30.5 -87 -41.5s-74.833 -16.5 -121.5 -16.5z" />
    <glyph glyph-name="D" unicode="D" horiz-adv-x="760" 
d="M82 750l263 0.000976562c58 0 110 -9.83301 156 -29.5s85.167 -46.334 117.5 -80.001s57.166 -73 74.499 -118s26 -93.167 26 -144.5c0 -52 -8.66699 -101 -26 -147s-42.166 -86 -74.499 -120s-71.5 -61 -117.5 -81s-98 -30 -156 -30h-263v750zM342 141.001
c32.667 0 61.834 6.16504 87.501 18.498s47.167 29.333 64.5 51s30.666 46.834 39.999 75.501s14 59.334 14 92.001c0 32 -4.66699 62 -14 90s-22.666 52.5 -39.999 73.5s-38.833 37.5 -64.5 49.5s-54.834 18 -87.501 18h-94v-468h94z" />
    <glyph glyph-name="E" unicode="E" horiz-adv-x="603" 
d="M82 750h471v-141h-305v-159h270v-130h-270v-179h305v-141h-471v750z" />
    <glyph glyph-name="F" unicode="F" horiz-adv-x="582" 
d="M82 750h461v-141h-295v-169h265v-130h-265v-310h-166v750z" />
    <glyph glyph-name="G" unicode="G" horiz-adv-x="770" 
d="M428 -15c-60.667 0 -114.833 9.49902 -162.5 28.499s-88.167 45.833 -121.5 80.5s-58.833 75.834 -76.5 123.501s-26.5 100.167 -26.5 157.5c0 56.667 9 108.834 27 156.501s43.5 88.834 76.5 123.501s73.167 61.667 120.5 81s100.333 29 159 29
c47.333 0 88.166 -5.33301 122.499 -16s63.166 -23.834 86.499 -39.501s41.333 -32.334 54 -50.001s20.334 -33.834 23.001 -48.501v-75h-130c-2 6 -6.16699 13.833 -12.5 23.5s-15.666 19.334 -27.999 29.001s-28 18 -47 25s-41.5 10.5 -67.5 10.5
c-34.667 0 -65.5 -6.33301 -92.5 -19s-49.833 -30 -68.5 -52s-32.834 -48.167 -42.501 -78.5s-14.5 -63.166 -14.5 -98.499c0 -36 5 -69.167 15 -99.5s24.5 -56.5 43.5 -78.5s42.333 -39.333 70 -52s59.167 -19 94.5 -19c28.667 0 53.5 2.33301 74.5 7
s39.167 10.667 54.5 18v130h-155v128h310v-324c-5.33301 -8 -15.666 -17.833 -30.999 -29.5s-35.166 -22.834 -59.499 -33.501s-52.833 -19.667 -85.5 -27s-69.334 -11 -110.001 -11z" />
    <glyph glyph-name="H" unicode="H" horiz-adv-x="790" 
d="M82 750h166v-295h294v295h166v-750h-166v315h-294v-315h-166v750z" />
    <glyph glyph-name="I" unicode="I" horiz-adv-x="330" 
d="M82 750h166v-750h-166v750z" />
    <glyph glyph-name="J" unicode="J" horiz-adv-x="519" 
d="M224 -15c-36.667 0 -67.499 4.66602 -92.499 13.999s-45.5 20.666 -61.5 33.999s-27.667 27.333 -35 42s-12 27.334 -14 38.001v75h130c0 -6 1 -12.667 3 -20s5.5 -14.166 10.5 -20.499s11.333 -11.5 19 -15.5s17.5 -6 29.5 -6c21.333 0 37.5 6.5 48.5 19.5
s16.5 38.833 16.5 77.5v527h165v-521c0 -82 -18.333 -143.167 -55 -183.5s-91.334 -60.5 -164.001 -60.5z" />
    <glyph glyph-name="K" unicode="K" horiz-adv-x="694" 
d="M248 0h-166v750h166v-322l271 322h131v-75l-245 -285l273 -312v-78h-146l-284 326v-326z" />
    <glyph glyph-name="L" unicode="L" horiz-adv-x="569" 
d="M82 750h166v-609h300v-141h-466v750z" />
    <glyph glyph-name="M" unicode="M" horiz-adv-x="931" 
d="M238 512v-512h-156v750h204l182 -382l178 382h203v-750h-165v512l-168 -353h-111z" />
    <glyph glyph-name="N" unicode="N" horiz-adv-x="795" 
d="M82 750h156l319 -477v477h156v-750h-156l-319 469v-469h-156v750z" />
    <glyph glyph-name="O" unicode="O" horiz-adv-x="826" 
d="M413 -15c-56 0 -106.833 9.66699 -152.5 29s-84.667 46.333 -117 81s-57.5 76 -75.5 124s-27 101 -27 159c0 57.333 9 109.666 27 156.999s43.167 88 75.5 122s71.333 60.5 117 79.5s96.5 28.5 152.5 28.5s106.833 -9.5 152.5 -28.5s84.667 -45.5 117 -79.5
s57.5 -74.667 75.5 -122s27 -99.666 27 -156.999c0 -58 -9 -111 -27 -159s-43.167 -89.333 -75.5 -124s-71.333 -61.667 -117 -81s-96.5 -29 -152.5 -29zM413 126c31.333 0 59.666 6.16699 84.999 18.5s47 29.5 65 51.5s31.833 48.5 41.5 79.5s14.5 65.167 14.5 102.5
c0 36.667 -4.83301 70 -14.5 100s-23.5 55.833 -41.5 77.5s-39.667 38.5 -65 50.5s-53.666 18 -84.999 18s-59.666 -6 -84.999 -18s-47 -28.833 -65 -50.5s-31.833 -47.5 -41.5 -77.5s-14.5 -63.333 -14.5 -100c0 -37.333 4.83301 -71.5 14.5 -102.5s23.5 -57.5 41.5 -79.5
s39.667 -39.167 65 -51.5s53.666 -18.5 84.999 -18.5z" />
    <glyph glyph-name="P" unicode="P" horiz-adv-x="643" 
d="M82 750l241 -0.000976562c44 0 83.833 -5.83301 119.5 -17.5s66 -28.167 91 -49.5s44.333 -47.166 58 -77.499s20.5 -64.5 20.5 -102.5c0 -32.667 -6 -64.5 -18 -95.5s-30.167 -58.5 -54.5 -82.5s-54.5 -43.333 -90.5 -58s-78 -22 -126 -22h-75v-245h-166v750z
M322 382.999c38.667 0 69 10.833 91 32.5s33 50.5 33 86.5c0 32 -10.667 58.333 -32 79s-52 31 -92 31h-77v-229h77z" />
    <glyph glyph-name="Q" unicode="Q" horiz-adv-x="826" 
d="M748 -104l-121 -0.000976562l-84 110c-38.667 -14 -82 -21 -130 -21c-56 0 -106.833 9.66699 -152.5 29s-84.667 46.333 -117 81s-57.5 76 -75.5 124s-27 101 -27 159c0 57.333 9 109.666 27 156.999s43.167 88 75.5 122s71.333 60.5 117 79.5s96.5 28.5 152.5 28.5
s106.833 -9.5 152.5 -28.5s84.667 -45.5 117 -79.5s57.5 -74.667 75.5 -122s27 -99.666 27 -156.999c0 -62.667 -10.167 -119.167 -30.5 -169.5s-49.5 -93.166 -87.5 -128.499l81 -106v-78zM207 377.999c0 -37.333 4.83203 -71.499 14.499 -102.499s23.5 -57.5 41.5 -79.5
s39.667 -39.167 65 -51.5s53.666 -18.5 84.999 -18.5c12.667 0 25 1 37 3l-72 94v78h121l72 -95c32 45.333 48 102.666 48 171.999c0 36.667 -4.83301 70 -14.5 100s-23.5 55.833 -41.5 77.5s-39.667 38.5 -65 50.5s-53.666 18 -84.999 18s-59.666 -6 -84.999 -18
s-47 -28.833 -65 -50.5s-31.833 -47.5 -41.5 -77.5s-14.5 -63.333 -14.5 -100z" />
    <glyph glyph-name="R" unicode="R" horiz-adv-x="682" 
d="M82 0l0.000976562 750h246c43.333 0 82.5 -5.66699 117.5 -17s64.833 -27.333 89.5 -48s43.667 -45.667 57 -75s20 -62.333 20 -99c0 -46 -11.833 -86.833 -35.5 -122.5s-56.834 -63.5 -99.501 -83.5l173 -227v-78h-143l-192 264h-67v-264h-166zM327.001 398
c37.333 0 66.5 10 87.5 30s31.5 47 31.5 81c0 29.333 -10.333 53.333 -31 72s-50 28 -88 28h-82v-211h82z" />
    <glyph glyph-name="S" unicode="S" horiz-adv-x="646" 
d="M324 -15c-38.667 0 -73.3311 4.00098 -103.998 12.001s-57.334 19 -80.001 33s-41.667 30.167 -57 48.5s-27 37.833 -35 58.5v75h131c10 -28 27.167 -50.167 51.5 -66.5s56.5 -24.5 96.5 -24.5c35.333 0 63.666 7.66699 84.999 23s32 37 32 65
c0 24.667 -8.83301 44.334 -26.5 59.001s-45.5 26.334 -83.5 35.001l-69 13c-68.667 13.333 -121.334 38.333 -158.001 75s-55 85.334 -55 146.001c0 36 6.5 68.167 19.5 96.5s31.333 52.166 55 71.499s52.334 34.166 86.001 44.499s71.167 15.5 112.5 15.5
c69.333 0 126.333 -13.333 171 -40s72.334 -63 83.001 -109v-76h-130c-6.66699 25.333 -19.834 46.5 -39.501 63.5s-49.167 25.5 -88.5 25.5c-35.333 0 -62.166 -7.5 -80.499 -22.5s-27.5 -35.167 -27.5 -60.5c0 -20.667 7.66699 -37.834 23 -51.501s41 -24.5 77 -32.5
l72 -16c68.667 -14 122.5 -39.833 161.5 -77.5s58.5 -87.834 58.5 -150.501c0 -36 -6.83301 -68.333 -20.5 -97s-32.834 -53 -57.501 -73s-54.167 -35.5 -88.5 -46.5s-72.5 -16.5 -114.5 -16.5z" />
    <glyph glyph-name="T" unicode="T" horiz-adv-x="635" 
d="M234 609h-214v141h595v-141h-215v-609h-166v609z" />
    <glyph glyph-name="U" unicode="U" horiz-adv-x="759" 
d="M383 -15c-47.333 0 -90.0029 7.66699 -128.003 23s-70.5 36 -97.5 62s-47.667 56.667 -62 92s-21.5 73 -21.5 113v475h166v-476c0 -20.667 3.16699 -40 9.5 -58s15.5 -33.667 27.5 -47s26.833 -23.833 44.5 -31.5s37.834 -11.5 60.501 -11.5
c23.333 0 44.166 3.83301 62.499 11.5s33.833 18.167 46.5 31.5s22.167 29 28.5 47s9.5 37.333 9.5 58v476h156v-475c0 -40 -7.16699 -77.667 -21.5 -113s-34.666 -66 -60.999 -92s-58.166 -46.667 -95.499 -62s-78.666 -23 -123.999 -23z" />
    <glyph glyph-name="V" unicode="V" horiz-adv-x="709" 
d="M16 670v80h153l188 -546l193 546h146v-70l-251 -680h-181z" />
    <glyph glyph-name="W" unicode="W" horiz-adv-x="1000" 
d="M499 458l-127 -458h-169l-179 670v80h154l119 -515l137 515h141l133 -515l124 515h146v-70l-181 -680h-169z" />
    <glyph glyph-name="X" unicode="X" horiz-adv-x="690" 
d="M27 75l220 305l-209 292v78h146l173 -250l162 250h131v-75l-205 -290l219 -307v-78h-146l-181 264l-179 -264h-131v75z" />
    <glyph glyph-name="Y" unicode="Y" horiz-adv-x="662" 
d="M249 300l-242 372v78h146l190 -304l178 304h130v-75l-236 -376v-299h-166v300z" />
    <glyph glyph-name="Z" unicode="Z" horiz-adv-x="643" 
d="M41 0v131l356 478h-346v141h541v-131l-355 -478h366v-141h-562z" />
    <glyph glyph-name="bracketleft" unicode="[" horiz-adv-x="388" 
d="M78 750h281v-126h-125v-728h125v-126h-281v980z" />
    <glyph glyph-name="backslash" unicode="\" horiz-adv-x="601" 
d="M23 819h161l394 -1069h-161z" />
    <glyph glyph-name="bracketright" unicode="]" horiz-adv-x="387" 
d="M29 -104h125v728h-125v126h280v-980h-280v126z" />
    <glyph glyph-name="asciicircum" unicode="^" horiz-adv-x="538" 
d="M269 591l-109 -177h-116v65l172 271h106l172 -271v-65h-116z" />
    <glyph glyph-name="underscore" unicode="_" horiz-adv-x="530" 
d="M0 -105h530v-118h-530v118z" />
    <glyph glyph-name="grave" unicode="`" horiz-adv-x="332" 
d="M75 690v60h143l77 -90v-60h-123z" />
    <glyph glyph-name="a" unicode="a" horiz-adv-x="551" 
d="M197 -15c-28 0 -52.3281 4.16992 -72.9951 12.5029s-37.834 19.666 -51.501 33.999s-24 31 -31 50s-10.5 39.167 -10.5 60.5c0 48 17.667 86.167 53 114.5s90 42.5 164 42.5c13.333 0 25.666 -0.5 36.999 -1.5s21.333 -2.16699 30 -3.5c9.33301 -1.33301 18.333 -3 27 -5
v22c0 56 -27.667 84 -83 84c-16.667 0 -30.334 -2.33301 -41.001 -7s-19.334 -10 -26.001 -16c-8 -6.66699 -14.333 -14.334 -19 -23.001h-114v67c9.33301 19.333 23.333 36.666 42 51.999c16 14 36.833 26.167 62.5 36.5s58.5 15.5 98.5 15.5c154 0 231 -71.333 231 -214
v-306h-136l-10 64c-12.667 -20.667 -30.834 -39 -54.501 -55s-55.5 -24 -95.5 -24zM246.005 101.003c16 0 29.999 2.66699 41.999 8s22 12 30 20s14 16.833 18 26.5s6 18.834 6 27.501v22c-7.33301 1.33301 -15.333 2.66602 -24 3.99902c-8 1.33301 -17 2.33301 -27 3
s-21 1 -33 1c-30 0 -50.5 -5.5 -61.5 -16.5s-16.5 -24.5 -16.5 -40.5c0 -19.333 5.83301 -33.333 17.5 -42s27.834 -13 48.501 -13z" />
    <glyph glyph-name="b" unicode="b" horiz-adv-x="642" 
d="M378 -15c-38 0 -70.8311 7.83301 -98.498 23.5s-49.834 36.834 -66.501 63.501l-8 -72h-141v750h151v-313c17.333 26 39.833 46.333 67.5 61s60.167 22 97.5 22c35.333 0 66.833 -6.83301 94.5 -20.5s51.167 -32.334 70.5 -56.001s34.166 -51.5 44.499 -83.5
s15.5 -66.333 15.5 -103c0 -37.333 -5 -72.5 -15 -105.5s-24.833 -61.833 -44.5 -86.5s-43.5 -44.167 -71.5 -58.5s-60 -21.5 -96 -21.5zM334.002 121c39.333 0 69.166 12.6689 89.499 38.002s30.5 56.333 30.5 93c0 37.333 -10.167 68.666 -30.5 93.999s-50.5 38 -90.5 38
c-18 0 -34.167 -3.33301 -48.5 -10s-26.666 -15.834 -36.999 -27.501s-18.333 -25.5 -24 -41.5s-8.5 -33.333 -8.5 -52c0 -38 10.833 -69.5 32.5 -94.5s50.5 -37.5 86.5 -37.5z" />
    <glyph glyph-name="c" unicode="c" horiz-adv-x="545" 
d="M300 -15c-44 0 -82.501 7.00098 -115.501 21.001s-60.5 33 -82.5 57s-38.5 52.167 -49.5 84.5s-16.5 66.833 -16.5 103.5c0 37.333 6 72.333 18 105s29.333 61.167 52 85.5s50.334 43.666 83.001 57.999s69.667 21.5 111 21.5c43.333 0 78.333 -6.16699 105 -18.5
s47.667 -25.833 63 -40.5c17.333 -17.333 30.333 -37 39 -59v-67h-113c-3.33301 10 -9 19 -17 27c-7.33301 7.33301 -17 13.666 -29 18.999s-28 8 -48 8c-19.333 0 -36 -3.66699 -50 -11s-25.667 -17.333 -35 -30s-16.333 -27.334 -21 -44.001s-7 -34.667 -7 -54
c0 -18.667 2.33301 -36.167 7 -52.5s11.667 -30.666 21 -42.999s21 -22 35 -29s30.667 -10.5 50 -10.5c20.667 0 37.334 2.83301 50.001 8.5s22.334 11.834 29.001 18.501c7.33301 8 12.666 17 15.999 27h113v-67c-8.66699 -22 -22.334 -41.667 -41.001 -59
c-16 -16 -37.167 -29.833 -63.5 -41.5s-60.833 -17.5 -103.5 -17.5z" />
    <glyph glyph-name="d" unicode="d" horiz-adv-x="642" 
d="M262 -15c-35.333 0 -66.999 7.00195 -94.999 21.002s-51.667 33.167 -71 57.5s-34 52.666 -44 84.999s-15 66.833 -15 103.5c0 38 5.33301 73.333 16 106s26 61 46 85s44 42.833 72 56.5s59.333 20.5 94 20.5c36.667 0 68.5 -7.33301 95.5 -22s49.5 -35 67.5 -61v313h150
v-750h-140l-9 72c-16.667 -26.667 -39.334 -47.834 -68.001 -63.501s-61.667 -23.5 -99 -23.5zM308.001 121.002c36 0 65 12.498 87 37.498s33 56.5 33 94.5c0 18.667 -2.83301 36 -8.5 52s-13.834 29.833 -24.501 41.5s-23.334 20.834 -38.001 27.501s-31 10 -49 10
c-39.333 0 -69.166 -12.667 -89.499 -38s-30.5 -56.666 -30.5 -93.999c0 -36.667 10.333 -67.667 31 -93s50.334 -38 89.001 -38z" />
    <glyph glyph-name="e" unicode="e" horiz-adv-x="583" 
d="M308 -15c-45.333 0 -84.999 6.83594 -118.999 20.5029s-62.333 32.5 -85 56.5s-39.667 52.167 -51 84.5s-17 67.166 -17 104.499s5.83301 72.166 17.5 104.499s28.834 60.833 51.501 85.5s50.5 44 83.5 58s70.833 21 113.5 21s79.5 -6 110.5 -18s56.5 -28.667 76.5 -50
s34.667 -46.5 44 -75.5s14 -60.5 14 -94.5c0 -8.66699 -0.333008 -16.834 -1 -24.501s-1.33398 -14.5 -2.00098 -20.5c-1.33301 -6.66699 -2.66602 -13 -3.99902 -19h-352c4.66699 -34 17 -61.167 37 -81.5s48.667 -30.5 86 -30.5c22.667 0 41 2.33301 55 7s25 10 33 16
c9.33301 6.66699 16 14.334 20 23.001h118v-67c-10.667 -18.667 -26.334 -35.334 -47.001 -50.001c-18.667 -13.333 -42.334 -25 -71.001 -35s-65.667 -15 -111 -15zM402.001 309.003c0 24 -8.33301 45.167 -25 63.5s-42 27.5 -76 27.5c-33.333 0 -58.5 -8.5 -75.5 -25.5
s-28.5 -38.833 -34.5 -65.5h211z" />
    <glyph glyph-name="f" unicode="f" horiz-adv-x="438" 
d="M111 382h-85.001v123h85v56c0 61.333 17.833 109.833 53.5 145.5s85.834 53.5 150.501 53.5c44.667 0 80 -8.33301 106 -25s43.667 -38.667 53 -66v-68h-112c0 4 -3 10.167 -9 18.5s-18.333 12.5 -37 12.5c-36 0 -54 -23.333 -54 -70v-57h161v-123h-161v-382h-151v382z
" />
    <glyph glyph-name="g" unicode="g" horiz-adv-x="642" 
d="M305 -260c-48.667 0 -88.4971 6.83398 -119.497 20.501s-55.5 28.834 -73.5 45.501c-20.667 20 -36.334 42.333 -47.001 67v67h121c4.66699 -12.667 12 -24 22 -34c9.33301 -8.66699 21.333 -16.334 36 -23.001s33.667 -10 57 -10c44 0 76.167 13.5 96.5 40.5
s30.5 62.167 30.5 105.5v54c-17.333 -25.333 -40 -44.666 -68 -57.999s-60.667 -20 -98 -20c-34.667 0 -65.834 6.83301 -93.501 20.5s-51.334 32.334 -71.001 56.001s-34.667 51.167 -45 82.5s-15.5 64.666 -15.5 99.999c0 37.333 5.33301 72.166 16 104.499
s25.834 60.5 45.501 84.5s43.667 43 72 57s60.166 21 95.499 21c36.667 0 69 -8 97 -24s50.333 -37 67 -63l8 71h141v-482c0 -43.333 -6.5 -82.333 -19.5 -117s-31.5 -64.334 -55.5 -89.001s-52.833 -43.667 -86.5 -57s-71.167 -20 -112.5 -20zM309.003 125.001
c18 0 34.167 3.33105 48.5 9.99805s26.833 15.834 37.5 27.501s18.834 25.5 24.501 41.5s8.5 33.333 8.5 52c0 36.667 -11 67.334 -33 92.001s-51 37 -87 37c-38.667 0 -68.334 -12.5 -89.001 -37.5s-31 -55.5 -31 -91.5c0 -36.667 10.5 -67.667 31.5 -93
s50.833 -38 89.5 -38z" />
    <glyph glyph-name="h" unicode="h" horiz-adv-x="603" 
d="M64 750l151 -0.000976562v-307c6 9.33301 13.5 18.5 22.5 27.5s19.667 17.167 32 24.5s26.333 13.333 42 18s32.834 7 51.501 7c33.333 0 61.5 -5.5 84.5 -16.5s41.667 -26 56 -45s24.666 -41 30.999 -66s9.5 -51.167 9.5 -78.5v-314h-150v286c0 30 -6.33301 54 -19 72
s-34 27 -64 27c-18 0 -33.167 -3 -45.5 -9s-22.333 -13.667 -30 -23s-13 -20.166 -16 -32.499s-4.5 -24.5 -4.5 -36.5v-284h-151v750z" />
    <glyph glyph-name="i" unicode="i" horiz-adv-x="278" 
d="M64 505h150v-505h-150v505zM60 740h156v-140h-156v140z" />
    <glyph glyph-name="j" unicode="j" horiz-adv-x="276" 
d="M22 -260c-44.667 0 -79.668 8.83203 -105.001 26.499s-42.666 39.5 -51.999 65.5v72h113c0 -2.66699 0.666992 -6 2 -10s3.5 -8 6.5 -12s7.16699 -7.33301 12.5 -10s12 -4 20 -4c17.333 0 29 5.33301 35 16s9 28.334 9 53.001v568h150v-569
c0 -60 -15.833 -107.667 -47.5 -143s-79.5 -53 -143.5 -53zM59.999 739.999h156v-140h-156v140z" />
    <glyph glyph-name="k" unicode="k" horiz-adv-x="555" 
d="M64 750h151v-450l170 205h129v-67l-147 -174l167 -194v-70h-141l-178 218v-218h-151v750z" />
    <glyph glyph-name="l" unicode="l" horiz-adv-x="279" 
d="M64 750h151v-750h-151v750z" />
    <glyph glyph-name="m" unicode="m" horiz-adv-x="868" 
d="M64 505l140.001 -0.000976562l7 -64c11.333 19.333 27.666 37.333 48.999 54s49.333 25 84 25c37.333 0 67.5 -8.16699 90.5 -24.5s39.833 -37.166 50.5 -62.499c6 10.667 13.5 21.167 22.5 31.5s19.667 19.666 32 27.999s26.333 15 42 20s33.5 7.5 53.5 7.5
c31.333 0 58 -5.5 80 -16.5s40 -25.833 54 -44.5s24.167 -40.5 30.5 -65.5s9.5 -51.5 9.5 -79.5v-314h-150v295c0 27.333 -5.33301 49.166 -16 65.499s-29.334 24.5 -56.001 24.5c-14 0 -26 -2.66699 -36 -8s-18.167 -12.166 -24.5 -20.499s-10.833 -17.666 -13.5 -27.999
s-4 -20.833 -4 -31.5v-297h-145v299c0 26 -5.66699 46.833 -17 62.5s-29.666 23.5 -54.999 23.5c-14.667 0 -27 -2.83301 -37 -8.5s-18 -13 -24 -22s-10.333 -19.167 -13 -30.5s-4 -23 -4 -35v-289h-150v505z" />
    <glyph glyph-name="n" unicode="n" horiz-adv-x="603" 
d="M64 505l141.001 -0.000976562l7 -67c5.33301 9.33301 12.5 18.833 21.5 28.5s19.833 18.5 32.5 26.5s27 14.5 43 19.5s34 7.5 54 7.5c33.333 0 61.5 -5.5 84.5 -16.5s41.667 -26 56 -45s24.666 -41 30.999 -66s9.5 -51.167 9.5 -78.5v-314h-150v286
c0 30 -6.33301 54 -19 72s-34 27 -64 27c-18 0 -33.167 -3 -45.5 -9s-22.333 -13.667 -30 -23s-13 -20.166 -16 -32.499s-4.5 -24.5 -4.5 -36.5v-284h-151v505z" />
    <glyph glyph-name="o" unicode="o" horiz-adv-x="606" 
d="M303 -15c-42 0 -79.5 7 -112.5 21s-61 33.333 -84 58s-40.5 53.334 -52.5 86.001s-18 67.334 -18 104.001s6 71.167 18 103.5s29.5 60.5 52.5 84.5s51 43 84 57s70.5 21 112.5 21s79.5 -7 112.5 -21s61 -33 84 -57s40.5 -52.167 52.5 -84.5s18 -66.833 18 -103.5
s-6 -71.334 -18 -104.001s-29.5 -61.334 -52.5 -86.001s-51 -44 -84 -58s-70.5 -21 -112.5 -21zM303 116c20 0 37.167 3.66699 51.5 11s26.333 17.166 36 29.499s16.834 27 21.501 44s7 34.833 7 53.5s-2.33301 36.167 -7 52.5s-11.834 30.666 -21.501 42.999
s-21.667 22 -36 29s-31.5 10.5 -51.5 10.5s-37.167 -3.5 -51.5 -10.5s-26.333 -16.667 -36 -29s-16.834 -26.666 -21.501 -42.999s-7 -33.833 -7 -52.5s2.33301 -36.5 7 -53.5s11.834 -31.667 21.501 -44s21.667 -22.166 36 -29.499s31.5 -11 51.5 -11z" />
    <glyph glyph-name="p" unicode="p" horiz-adv-x="642" 
d="M64 505l141.002 -0.000976562l7 -72c16.667 26.667 39.5 47.834 68.5 63.501s62.167 23.5 99.5 23.5c36 0 67.833 -7 95.5 -21s51.167 -33 70.5 -57s34 -52.167 44 -84.5s15 -66.833 15 -103.5c0 -38 -5.16699 -73.333 -15.5 -106s-25.333 -61 -45 -85
s-43.334 -43 -71.001 -57s-58.834 -21 -93.501 -21c-36.667 0 -69 7.33301 -97 22s-50.667 35 -68 61v-318h-151v755zM334.002 120.999c40 0 70 12.667 90 38s30 57 30 95c0 36.667 -10 67.5 -30 92.5s-50 37.5 -90 37.5c-36 0 -64.833 -12.333 -86.5 -37
s-32.5 -55.667 -32.5 -93c0 -18.667 2.83301 -36.167 8.5 -52.5s13.667 -30.5 24 -42.5s22.833 -21.333 37.5 -28s31 -10 49 -10z" />
    <glyph glyph-name="q" unicode="q" horiz-adv-x="641" 
d="M428 68c-18 -26 -41.002 -46.3311 -69.002 -60.998s-60.333 -22 -97 -22c-34.667 0 -66 7 -94 21s-51.667 33.167 -71 57.5s-34.166 52.666 -44.499 84.999s-15.5 66.833 -15.5 103.5c0 37.333 5.33301 72.333 16 105s25.834 61 45.501 85s43.5 43 71.5 57
s59.667 21 95 21c36.667 0 69 -7.83301 97 -23.5s50.333 -36.834 67 -63.501l9 72h140v-755h-150v318zM307.998 121.002c18 0 34.3311 3.33301 48.998 10s27.334 16 38.001 28s18.834 26.167 24.501 42.5s8.5 33.833 8.5 52.5c0 37.333 -11 68.333 -33 93s-51 37 -87 37
c-39.333 0 -69.166 -12.5 -89.499 -37.5s-30.5 -55.833 -30.5 -92.5c0 -38 10.167 -69.667 30.5 -95s50.166 -38 89.499 -38z" />
    <glyph glyph-name="r" unicode="r" horiz-adv-x="481" 
d="M64 505h141.002l7 -66c11.333 21.333 28.166 40.166 50.499 56.499s50.5 24.5 84.5 24.5c39.333 0 69.333 -9.83301 90 -29.5s33 -45.5 37 -77.5v-72h-115l-2 7.5c-1.33301 5 -4.33301 10.667 -9 17s-11.334 12 -20.001 17s-20.334 7.5 -35.001 7.5
c-27.333 0 -47.166 -10.167 -59.499 -30.5s-18.5 -46.166 -18.5 -77.499v-282h-151v505z" />
    <glyph glyph-name="s" unicode="s" horiz-adv-x="508" 
d="M258 -15c-34.667 0 -64.998 3.66406 -90.998 10.9971s-48 16.166 -66 26.499s-32 21.333 -42 33s-16.667 21.5 -20 29.5v68h113c1.33301 -4 4.33301 -9.16699 9 -15.5s11.5 -12.666 20.5 -18.999s20 -11.833 33 -16.5s28.167 -7 45.5 -7c29.333 0 49.666 4.5 60.999 13.5
s17 20.5 17 34.5c0 16 -6.83301 27.667 -20.5 35s-32.5 13 -56.5 17l-64 8c-46 6 -82.667 20.833 -110 44.5s-41 59.167 -41 106.5c0 24 4.66699 46.167 14 66.5s23 37.833 41 52.5s39.667 26.167 65 34.5s54 12.5 86 12.5c58 0 103 -9.5 135 -28.5s53.333 -41.5 64 -67.5
v-68h-114c-0.666992 2.66699 -2.66699 7 -6 13s-8.5 12 -15.5 18s-16 11.333 -27 16s-24.167 7 -39.5 7c-24 0 -41.333 -4.5 -52 -13.5s-16 -20.5 -16 -34.5c0 -25.333 21.333 -41.666 64 -48.999l64 -9c24 -3.33301 46.167 -8.5 66.5 -15.5s37.666 -16.167 51.999 -27.5
s25.5 -25.666 33.5 -42.999s12 -38 12 -62c0 -24.667 -4.83301 -47.5 -14.5 -68.5s-23.667 -39.167 -42 -54.5s-40.833 -27.166 -67.5 -35.499s-57 -12.5 -91 -12.5z" />
    <glyph glyph-name="t" unicode="t" horiz-adv-x="475" 
d="M292 -15c-62.667 0 -110.83 17.1689 -144.497 51.502s-50.5 81.833 -50.5 142.5v203h-75v123h77l8 128h141v-128h200v-123h-200v-198c0 -49.333 18.667 -74 56 -74c10 0 18.167 1.5 24.5 4.5s11.166 6.66699 14.499 11s5.66602 8.66602 6.99902 12.999s2 7.83301 2 10.5
h108v-68c-10.667 -26.667 -29.334 -49.334 -56.001 -68.001s-64 -28 -112 -28z" />
    <glyph glyph-name="u" unicode="u" horiz-adv-x="599" 
d="M241 -15c-33.333 0 -61.6699 5.50098 -85.0029 16.501s-42.166 26 -56.499 45s-24.666 41 -30.999 66s-9.5 51.167 -9.5 78.5v314h151v-286c0 -30 6 -54 18 -72s32.667 -27 62 -27c18 0 33 3 45 9s21.667 13.667 29 23s12.5 20.166 15.5 32.499s4.5 24.5 4.5 36.5v284
h151v-505h-141l-7 67c-5.33301 -9.33301 -12.5 -18.833 -21.5 -28.5s-19.5 -18.5 -31.5 -26.5s-25.667 -14.5 -41 -19.5s-32.666 -7.5 -51.999 -7.5z" />
    <glyph glyph-name="v" unicode="v" horiz-adv-x="550" 
d="M207 0l-188 435v70h136l126 -307l124 307h128v-67l-190 -438h-136z" />
    <glyph glyph-name="w" unicode="w" horiz-adv-x="800" 
d="M396 291l-86 -291h-136l-151 435v70h136l93 -301l91 301h124l94 -300l90 300h128v-67l-155 -438h-136z" />
    <glyph glyph-name="x" unicode="x" horiz-adv-x="559" 
d="M31 68l158 189l-155 178v70h138l114 -146l113 146h126v-67l-156 -183l159 -185v-70h-138l-118 151l-115 -151h-126v68z" />
    <glyph glyph-name="y" unicode="y" horiz-adv-x="556" 
d="M76 -250v70l126 226l-182 389v70h136l129 -296l134 296h125v-67l-340 -688h-128z" />
    <glyph glyph-name="z" unicode="z" horiz-adv-x="503" 
d="M41 0v113l236 269h-231v123h411v-113l-236 -269h241v-123h-421z" />
    <glyph glyph-name="braceleft" unicode="{" horiz-adv-x="412" 
d="M384 -232c-89.333 0 -156.833 20 -202.5 60s-68.5 99.667 -68.5 179v47c0 31.333 -2.16699 56.333 -6.5 75s-10.833 33 -19.5 43s-19.5 16.5 -32.5 19.5s-28.167 4.5 -45.5 4.5v126c17.333 0 32.5 1.5 45.5 4.5s23.833 9.5 32.5 19.5s15.167 24.333 19.5 43
s6.5 43.667 6.5 75v47c0 79.333 22.833 139 68.5 179s113.167 60 202.5 60v-126c-39.333 0 -68.333 -8.5 -87 -25.5s-28 -46.167 -28 -87.5v-47c0 -34.667 -3.33301 -64 -10 -88s-15 -43.833 -25 -59.5s-21 -28 -33 -37s-23.667 -15.833 -35 -20.5
c11.333 -4.66699 23 -11.5 35 -20.5s23 -21.333 33 -37s18.333 -35.5 25 -59.5s10 -53.333 10 -88v-47c0 -41.333 9.33301 -70.5 28 -87.5s47.667 -25.5 87 -25.5v-126z" />
    <glyph glyph-name="bar" unicode="|" horiz-adv-x="307" 
d="M73 -178v925l80 72l81 -72v-925l-82 -72z" />
    <glyph glyph-name="braceright" unicode="}" horiz-adv-x="413" 
d="M28 -106c40 0 69.167 8.5 87.5 25.5s27.5 46.167 27.5 87.5v47c0 34.667 3.33301 64 10 88s15 43.833 25 59.5s21 28 33 37s23.667 15.833 35 20.5c-11.333 4.66699 -23 11.5 -35 20.5s-23 21.333 -33 37s-18.333 35.5 -25 59.5s-10 53.333 -10 88v47
c0 41.333 -9.16699 70.5 -27.5 87.5s-47.5 25.5 -87.5 25.5v126c89.333 0 156.833 -20 202.5 -60s68.5 -99.667 68.5 -179v-47c0 -31.333 2.16699 -56.333 6.5 -75s10.833 -33 19.5 -43s19.5 -16.5 32.5 -19.5s28.5 -4.5 46.5 -4.5v-126c-18 0 -33.5 -1.5 -46.5 -4.5
s-23.833 -9.5 -32.5 -19.5s-15.167 -24.333 -19.5 -43s-6.5 -43.667 -6.5 -75v-47c0 -79.333 -22.833 -139 -68.5 -179s-113.167 -60 -202.5 -60v126z" />
    <glyph glyph-name="asciitilde" unicode="~" horiz-adv-x="579" 
d="M387 214c-20 0 -37.1631 3.33301 -51.4961 10s-27.5 13.834 -39.5 21.501l-34.5 21.5c-11 6.66699 -23.167 10 -36.5 10c-12.667 0 -22.334 -5.83301 -29.001 -17.5s-11 -25.167 -13 -40.5h-121c-0.666992 62 12 109.167 38 141.5s59.333 48.5 100 48.5
c21.333 0 39.166 -3.16699 53.499 -9.5s27.166 -13.5 38.499 -21.5s22.333 -15.167 33 -21.5s22.667 -9.5 36 -9.5c11.333 0 20.166 5.33301 26.499 16s11.5 26 15.5 46h120c1.33301 -64.667 -10.5 -113.334 -35.5 -146.001s-58.5 -49 -100.5 -49z" />
    <glyph glyph-name="uni00A0" unicode="&#xa0;" horiz-adv-x="232" 
 />
    <glyph glyph-name="exclamdown" unicode="&#xa1;" horiz-adv-x="310" 
d="M82 369h146l10 -509h-166zM75 610h161v-161h-161v161z" />
    <glyph glyph-name="cent" unicode="&#xa2;" horiz-adv-x="564" 
d="M526 103c-8.66699 -20 -21.3359 -38.3311 -38.0029 -54.998c-16 -15.333 -36.333 -29 -61 -41s-57 -19 -97 -21l-7 -129h-94l7 135c-34 6.66699 -63.5 18 -88.5 34s-46 35.5 -63 58.5s-29.667 48.667 -38 77s-12.5 58.166 -12.5 89.499c0 34 5.16699 66 15.5 96
s25.166 57 44.499 81s43.333 43.833 72 59.5s61 25.834 97 30.501l7 131h94l-7 -131c34.667 -4.66699 62.834 -13.334 84.501 -26.001s38.834 -25.667 51.501 -39c14.667 -15.333 25.334 -32 32.001 -50v-67h-108c-2 7.33301 -6 14.666 -12 21.999
c-4.66699 6 -11.167 12 -19.5 18s-19.833 10.667 -34.5 14l-15 -277c18 2.66699 32.333 7 43 13s19 12.333 25 19c6.66699 8 11.334 16.333 14.001 25h108v-67zM179.998 251.002c0 -26.667 5.16797 -51.166 15.501 -73.499s26.166 -39.5 47.499 -51.5l13 260
c-26 -10.667 -45.167 -28.334 -57.5 -53.001s-18.5 -52 -18.5 -82z" />
    <glyph glyph-name="sterling" unicode="&#xa3;" horiz-adv-x="615" 
d="M567 0l-516.003 -0.000976562v130c30 12.667 54.333 32.334 73 59.001s29.334 59.334 32.001 98.001v12h-104v115h76c-7.33301 17.333 -13.666 36.5 -18.999 57.5s-8 46.167 -8 75.5c0 33.333 5.66699 63.5 17 90.5s27.5 50 48.5 69s46.333 33.5 76 43.5s62.5 15 98.5 15
c47.333 0 85.5 -7.33301 114.5 -22s51.833 -30.667 68.5 -48c19.333 -21.333 33.666 -45 42.999 -71v-70h-121c-3.33301 14.667 -8.66602 27.667 -15.999 39c-7.33301 10.667 -17.166 19.834 -29.499 27.501s-28.833 11.5 -49.5 11.5c-29.333 0 -52.333 -8.16699 -69 -24.5
s-25 -38.833 -25 -67.5c0 -30.667 3 -55.167 9 -73.5s12.333 -35.833 19 -52.5h187v-115h-165v-12c-2 -36.667 -10.5 -68.834 -25.5 -96.501s-35.5 -47.834 -61.5 -60.501h347v-130z" />
    <glyph glyph-name="yen" unicode="&#xa5;" horiz-adv-x="707" 
d="M438 94v-94h-165v94h-170v110h170v60h-170v110h130l-202 298v78h146l190 -291l177 291h131v-75l-197 -301h130v-110h-170v-60h170v-110h-170z" />
    <glyph glyph-name="brokenbar" unicode="&#xa6;" horiz-adv-x="305" 
d="M72 747l80 72l81 -72v-350h-161v350zM72 -178v362h161v-362l-82 -72z" />
    <glyph glyph-name="section" unicode="&#xa7;" horiz-adv-x="594" 
d="M295 -124c-39.333 0 -73.1709 4.83496 -101.504 14.502s-51.833 21.334 -70.5 35.001s-33 28 -43 43s-16 27.833 -18 38.5v75h131c0 -4 1.66699 -9.5 5 -16.5s8.83301 -14.167 16.5 -21.5s18.167 -13.666 31.5 -18.999s30 -8 50 -8c28 0 49.667 5.16699 65 15.5
s23 25.166 23 44.499c0 18 -6.16699 31.333 -18.5 40s-35.166 16.667 -68.499 24l-74 14c-54.667 10.667 -97 29 -127 55s-45 62 -45 108c0 24.667 4.83301 47 14.5 67s23.834 35.667 42.501 47c-16 15.333 -28.667 33.5 -38 54.5s-14 46.5 -14 76.5
c0 31.333 5.83301 59.5 17.5 84.5s28.334 46.167 50.001 63.5s47.5 30.666 77.5 39.999s63 14 99 14c39.333 0 73.166 -4.83301 101.499 -14.5s51.833 -21.334 70.5 -35.001s32.834 -28 42.501 -43s15.5 -27.833 17.5 -38.5v-75h-131c0 4 -1.66699 9.5 -5 16.5
s-8.83301 14.167 -16.5 21.5s-18 13.666 -31 18.999s-29.167 8 -48.5 8c-27.333 0 -49.166 -5.16699 -65.499 -15.5s-24.5 -25.166 -24.5 -44.499c0 -18 6.33301 -31.333 19 -40s35.334 -16.667 68.001 -24l74 -14c54.667 -10.667 97 -29.5 127 -56.5s45 -62.5 45 -106.5
c0 -24.667 -4.83301 -47 -14.5 -67s-23.834 -35.667 -42.501 -47c16 -15.333 28.667 -33.666 38 -54.999s14 -47 14 -77c0 -30.667 -5.66699 -58.334 -17 -83.001s-27.5 -45.834 -48.5 -63.501s-46.5 -31.167 -76.5 -40.5s-63.667 -14 -101 -14zM369.995 263.002
c14.667 8 22 20.3311 22 36.998c0 15.333 -6.5 27.833 -19.5 37.5s-37.167 18.5 -72.5 26.5l-38 9l-37 5c-14.667 -7.33301 -22 -19.666 -22 -36.999c0 -15.333 6.16699 -27.666 18.5 -36.999s35.5 -18 69.5 -26l6 -1.5l13.5 -3.5l13.5 -3.5l6 -1.5z" />
    <glyph glyph-name="dieresis" unicode="&#xa8;" horiz-adv-x="440" 
d="M55 740h145v-140h-145v140zM260 740h146v-140h-146v140z" />
    <glyph glyph-name="copyright" unicode="&#xa9;" horiz-adv-x="1016" 
d="M508 -209c-66.667 0 -128.667 12.167 -186 36.5s-107 57.5 -149 99.5s-74.833 91 -98.5 147s-35.5 116 -35.5 180c0 63.333 11.833 123 35.5 179s56.5 105 98.5 147s91.667 75.167 149 99.5s119.333 36.5 186 36.5c67.333 0 129.666 -12.167 186.999 -36.5
s106.833 -57.5 148.5 -99.5s74.334 -91 98.001 -147s35.5 -115.667 35.5 -179c0 -64 -11.833 -124 -35.5 -180s-56.334 -105 -98.001 -147s-91.167 -75.167 -148.5 -99.5s-119.666 -36.5 -186.999 -36.5zM508 -88c48.667 0 93.834 9 135.501 27s77.667 42.5 108 73.5
s54 67.333 71 109s25.5 85.834 25.5 132.501s-8.5 90.667 -25.5 132s-40.667 77.5 -71 108.5s-66.333 55.5 -108 73.5s-86.834 27 -135.501 27c-48 0 -92.667 -9 -134 -27s-77.166 -42.5 -107.499 -73.5s-54.166 -67.167 -71.499 -108.5s-26 -85.333 -26 -132
s8.66699 -90.834 26 -132.501s41.166 -78 71.499 -109s66.166 -55.5 107.499 -73.5s86 -27 134 -27zM513 -5c-42.667 0 -79.832 6.83105 -111.499 20.498s-58 32 -79 55s-36.833 50.167 -47.5 81.5s-16 64.333 -16 99c0 35.333 5.66699 68.833 17 100.5s28 59.167 50 82.5
s48.667 41.833 80 55.5s67 20.5 107 20.5c42 0 76.167 -5.66699 102.5 -17s47.166 -23.666 62.499 -36.999c17.333 -16 30.333 -34.333 39 -55v-66h-111c-3.33301 10 -9 19 -17 27c-6.66699 6.66699 -16 12.667 -28 18s-28 8 -48 8c-18.667 0 -35 -3.66699 -49 -11
s-25.667 -17.166 -35 -29.499s-16.166 -26.833 -20.499 -43.5s-6.5 -34.334 -6.5 -53.001c0 -36.667 9 -68 27 -94s46 -39 84 -39c20.667 0 37.167 2.83301 49.5 8.5s21.833 11.834 28.5 18.501c7.33301 7.33301 12.666 16 15.999 26h111v-66
c-8.66699 -20.667 -22 -39 -40 -55c-16 -14.667 -37 -27.5 -63 -38.5s-60 -16.5 -102 -16.5z" />
    <glyph glyph-name="ordfeminine" unicode="&#xaa;" horiz-adv-x="502" 
d="M185 300c-24 0 -45.165 3.49805 -63.498 10.498s-33.666 16.667 -45.999 29s-21.5 26.833 -27.5 43.5s-9 34.334 -9 53.001c0 40.667 15.5 74 46.5 100s78.833 39 143.5 39c11.333 0 21.666 -0.333008 30.999 -1s17.666 -1.66699 24.999 -3
c8 -1.33301 15.333 -2.66602 22 -3.99902v14c0 46.667 -23 70 -69 70c-14 0 -25.667 -2 -35 -6s-16.666 -8.66699 -21.999 -14c-6.66699 -6 -11.667 -12.667 -15 -20h-102v61c8.66699 16.667 20.667 31.667 36 45c14.667 12 33.167 22.333 55.5 31s50.833 13 85.5 13
c133.333 0 200 -61 200 -183v-265h-120l-9 55c-10.667 -17.333 -25.834 -33 -45.501 -47s-46.834 -21 -81.501 -21zM227.002 401.998c25.333 0 44.999 7.50098 58.999 22.501s21 30.5 21 46.5v16c-5.33301 1.33301 -11.666 2.66602 -18.999 3.99902
c-6 0.666992 -13.167 1.33398 -21.5 2.00098s-17.833 1 -28.5 1c-23.333 0 -40.333 -4.33301 -51 -13s-16 -20.334 -16 -35.001c0 -13.333 5 -24 15 -32s23.667 -12 41 -12z" />
    <glyph glyph-name="guillemotleft" unicode="&#xab;" horiz-adv-x="649" 
d="M215 50l-191 220l191 220h119v-65l-138 -155l138 -155v-65h-119zM481 50l-191 220l191 220h118v-65l-137 -155l137 -155v-65h-118z" />
    <glyph glyph-name="uni00AD" unicode="&#xad;" horiz-adv-x="403" 
d="M59 370h285v-123h-285v123z" />
    <glyph glyph-name="registered" unicode="&#xae;" horiz-adv-x="706" 
d="M353 136c-42 0 -81.833 8.16699 -119.5 24.5s-70.5 38.833 -98.5 67.5s-50.167 62.334 -66.5 101.001s-24.5 80.334 -24.5 125.001s8.16699 86.334 24.5 125.001s38.5 72.334 66.5 101.001s60.833 51.167 98.5 67.5s77.5 24.5 119.5 24.5s81.833 -8.16699 119.5 -24.5
s70.5 -38.833 98.5 -67.5s50.167 -62.334 66.5 -101.001s24.5 -80.334 24.5 -125.001s-8.16699 -86.334 -24.5 -125.001s-38.5 -72.334 -66.5 -101.001s-60.833 -51.167 -98.5 -67.5s-77.5 -24.5 -119.5 -24.5zM353 228c31.333 0 60 5.83301 86 17.5
s48.5 27.834 67.5 48.501s33.833 44.667 44.5 72s16 56.666 16 87.999s-5.33301 60.666 -16 87.999s-25.5 51.333 -44.5 72s-41.5 36.834 -67.5 48.501s-54.667 17.5 -86 17.5c-30.667 0 -59.167 -5.83301 -85.5 -17.5s-49 -27.834 -68 -48.501s-33.833 -44.667 -44.5 -72
s-16 -56.666 -16 -87.999s5.33301 -60.666 16 -87.999s25.5 -51.333 44.5 -72s41.667 -36.834 68 -48.501s54.833 -17.5 85.5 -17.5zM321 304l-83.001 -0.000976562v308h109c38.667 0 69 -9 91 -27s33 -41.667 33 -71c0 -18 -4.66699 -33.667 -14 -47
s-22.666 -24.666 -39.999 -33.999l70 -93v-36h-69l-79 108h-18v-108zM342.999 474.999c14 0 25 3.33301 33 10s12 15.667 12 27c0 10.667 -4 19.167 -12 25.5s-19 9.5 -33 9.5h-23v-72h23z" />
    <glyph glyph-name="macron" unicode="&#xaf;" horiz-adv-x="444" 
d="M75 726h286v-116h-286v116z" />
    <glyph glyph-name="degree" unicode="&#xb0;" horiz-adv-x="447" 
d="M224 396c-27.333 0 -52.666 4.83301 -75.999 14.5s-43.5 23 -60.5 40s-30.333 36.667 -40 59s-14.5 46.166 -14.5 71.499s4.83301 49.166 14.5 71.499s23 42 40 59s37.167 30.333 60.5 40s48.666 14.5 75.999 14.5s52.5 -4.83301 75.5 -14.5s43 -23 60 -40
s30.333 -36.667 40 -59s14.5 -46.166 14.5 -71.499s-4.83301 -49.166 -14.5 -71.499s-23 -42 -40 -59s-37 -30.333 -60 -40s-48.167 -14.5 -75.5 -14.5zM224 511c19.333 0 34.833 6.83301 46.5 20.5s17.5 30.167 17.5 49.5s-5.83301 35.833 -17.5 49.5
s-27.167 20.5 -46.5 20.5c-20 0 -35.833 -6.83301 -47.5 -20.5s-17.5 -30.167 -17.5 -49.5s5.83301 -35.833 17.5 -49.5s27.5 -20.5 47.5 -20.5z" />
    <glyph glyph-name="plusminus" unicode="&#xb1;" horiz-adv-x="593" 
d="M362 355v-155h-131v155h-172v123h172v154h131v-154h172v-123h-172zM64 145h470v-123h-470v123z" />
    <glyph glyph-name="acute" unicode="&#xb4;" horiz-adv-x="360" 
d="M72 660l77 90h144v-60l-98 -90h-123v60z" />
    <glyph glyph-name="paragraph" unicode="&#xb6;" horiz-adv-x="712" 
d="M272 326l-19.999 -0.000976562c-32.667 0 -62.834 4.83301 -90.501 14.5s-51.167 23.5 -70.5 41.5s-34.5 40 -45.5 66s-16.5 55.667 -16.5 89c0 31.333 4.66699 60 14 86s23.833 48.333 43.5 67s44.5 33.334 74.5 44.001s65.333 16 106 16h351v-876h-136v735h-75v-735
h-135v452z" />
    <glyph glyph-name="periodcentered" unicode="&#xb7;" horiz-adv-x="273" 
d="M59 411h155v-153h-155v153z" />
    <glyph glyph-name="cedilla" unicode="&#xb8;" horiz-adv-x="500" 
d="M179 -144c19.333 0 35.501 2.33008 48.501 6.99707s19.5 14.334 19.5 29.001c0 14 -6.83301 23.333 -20.5 28s-28.167 7 -43.5 7v73h121v-40c25.333 -4 45.666 -13 60.999 -27s23 -32.667 23 -56c0 -19.333 -3.83301 -35.166 -11.5 -47.499s-17.5 -22.333 -29.5 -30
s-25.333 -13.167 -40 -16.5s-29 -5.66602 -43 -6.99902h-85v80z" />
    <glyph glyph-name="ordmasculine" unicode="&#xba;" horiz-adv-x="529" 
d="M265 302c-36.667 0 -69.334 6 -98.001 18s-52.834 28.5 -72.501 49.5s-34.667 45.5 -45 73.5s-15.5 57.667 -15.5 89s5.16699 60.833 15.5 88.5s25.333 51.834 45 72.501s43.834 37 72.501 49s61.334 18 98.001 18c36 0 68.167 -6 96.5 -18s52.5 -28.333 72.5 -49
s35.167 -44.834 45.5 -72.501s15.5 -57.167 15.5 -88.5s-5.16699 -61 -15.5 -89s-25.5 -52.5 -45.5 -73.5s-44.167 -37.5 -72.5 -49.5s-60.5 -18 -96.5 -18zM265 416c34 0 58.667 11.167 74 33.5s23 49.833 23 82.5s-7.66699 60 -23 82s-40 33 -74 33
c-34.667 0 -59.667 -11 -75 -33s-23 -49.333 -23 -82s7.66699 -60.167 23 -82.5s40.333 -33.5 75 -33.5z" />
    <glyph glyph-name="guillemotright" unicode="&#xbb;" horiz-adv-x="648" 
d="M50 50v65l137 155l-137 155v65h118l191 -220l-191 -220h-118zM315 50v65l138 155l-138 155v65h118l191 -220l-191 -220h-118z" />
    <glyph glyph-name="onequarter" unicode="&#xbc;" horiz-adv-x="1018" 
d="M654 790h151l-469 -830h-151zM147 290v315l-22 -19h-96v65l148 109h106v-470h-136zM920 76v-98h-131v98h-216v78l212 294h135v-275h63v-97h-63zM789 292l-81 -119h81v119z" />
    <glyph glyph-name="onehalf" unicode="&#xbd;" horiz-adv-x="1031" 
d="M654 790h151l-469 -830h-151zM147 605l-22 -19h-96v65l148 109h106v-470h-136v315zM638 0v96l154 119c17.333 15.333 30.5 29.333 39.5 42s13.5 26.667 13.5 42c0 31.333 -16.667 47 -50 47c-10.667 0 -19.667 -2 -27 -6s-13.166 -8.83301 -17.499 -14.5
s-7.33301 -11.167 -9 -16.5s-2.83398 -9.33301 -3.50098 -12h-98v52c2 9.33301 6.33301 20.5 13 33.5s16.5 25.167 29.5 36.5s29.5 21 49.5 29s44 12 72 12c53.333 0 95.333 -12.333 126 -37s46 -58 46 -100c0 -35.333 -8.33301 -65.833 -25 -91.5s-42 -52.167 -76 -79.5
l-39 -37h156v-115h-354z" />
    <glyph glyph-name="threequarters" unicode="&#xbe;" horiz-adv-x="1080" 
d="M721 790h151l-469 -830h-151zM222 285c-30 0 -56.332 3.66406 -78.999 10.9971s-41.5 16.5 -56.5 27.5s-26.5 22.5 -34.5 34.5s-13 22.333 -15 31v55h107l6 -14.5c2.66699 -6.33301 6.83398 -12.5 12.501 -18.5s13 -11.333 22 -16s20.167 -7 33.5 -7
c20 0 34.667 4.66699 44 14s14 21 14 35c0 12.667 -4.66699 23.334 -14 32.001s-26.666 13 -51.999 13h-50v93h48c17.333 0 30.166 4.16699 38.499 12.5s12.5 18.5 12.5 30.5c0 28.667 -17.333 43 -52 43c-11.333 0 -20.5 -1.83301 -27.5 -5.5s-12.667 -8.16699 -17 -13.5
s-7.33301 -10.666 -9 -15.999s-2.83398 -9.66602 -3.50098 -12.999h-106v56c1.33301 8 5.66602 17.333 12.999 28s18 20.834 32 30.501s31.667 18 53 25s47 10.5 77 10.5c24 0 46.5 -2.66699 67.5 -8s39.333 -13.166 55 -23.499s28 -23.333 37 -39
s13.5 -33.834 13.5 -54.501c0 -24.667 -6 -45.667 -18 -63s-28.667 -30.333 -50 -39c28 -6.66699 49.167 -19.334 63.5 -38.001s21.5 -42 21.5 -70c0 -42 -16.667 -76.333 -50 -103s-79 -40 -137 -40zM987.001 75.9971v-98h-131v98h-216v78l212 294h135v-275h62v-97h-62z
M856.001 291.997l-81 -119h81v119z" />
    <glyph glyph-name="questiondown" unicode="&#xbf;" horiz-adv-x="536" 
d="M359 369c6 -14.667 8.99609 -29.6689 8.99609 -45.002c0 -21.333 -4.16699 -39.666 -12.5 -54.999s-18.666 -29.166 -30.999 -41.499s-25.833 -23.666 -40.5 -33.999s-28.167 -21.5 -40.5 -33.5s-22.666 -25.5 -30.999 -40.5s-12.5 -32.833 -12.5 -53.5
c0 -23.333 7.33301 -42.5 22 -57.5s34.667 -22.5 60 -22.5c18.667 0 33.834 4.16699 45.501 12.5s21 18 28 29s11.833 22 14.5 33s4 19.5 4 25.5h131v-75c-2.66699 -12.667 -8.66699 -28.334 -18 -47.001s-23.166 -36.834 -41.499 -54.501s-41.833 -32.834 -70.5 -45.501
s-63.667 -19 -105 -19c-34 0 -65.333 4.83301 -94 14.5s-53.5 23.334 -74.5 41.001s-37.5 39.167 -49.5 64.5s-18 53.333 -18 84s4.5 56.834 13.5 78.501s20 40.5 33 56.5s27.333 30 43 42l43 34c13 10.667 24 21.667 33 33s13.5 24.333 13.5 39c0 7.33301 -1 14.333 -3 21
s-3.66699 12 -5 16h154zM359.996 448.998h-161v161h161v-161z" />
    <glyph glyph-name="Agrave" unicode="&#xc0;" horiz-adv-x="706" 
d="M13 0v70l255 680h169l254 -670v-80h-144l-58 159h-286l-57 -159h-133zM347 571l-98 -276h196zM198 885v60h156l72 -80v-60h-136z" />
    <glyph glyph-name="Aacute" unicode="&#xc1;" horiz-adv-x="706" 
d="M13 0v70l255 680h169l254 -670v-80h-144l-58 159h-286l-57 -159h-133zM347 571l-98 -276h196zM279 865l72 80h156v-60l-92 -80h-136v60z" />
    <glyph glyph-name="Acircumflex" unicode="&#xc2;" horiz-adv-x="706" 
d="M13 0v70l255 680h169l254 -670v-80h-144l-58 159h-286l-57 -159h-133zM347 571l-98 -276h196zM351 858l-56 -58h-116v60l92 80h160l92 -80v-60h-116z" />
    <glyph glyph-name="Atilde" unicode="&#xc3;" horiz-adv-x="706" 
d="M13 0v70l255 680h169l254 -670v-80h-144l-58 159h-286l-57 -159h-133zM347 571l-98 -276h196zM425 792c-14 0 -26.168 1.5 -36.501 4.5s-20 6.5 -29 10.5s-17.667 7.5 -26 10.5s-17.166 4.5 -26.499 4.5c-19.333 0 -31 -8.33301 -35 -25h-100
c-2.66699 40.667 5.33301 73.667 24 99s46 38 82 38c14 0 26 -1.5 36 -4.5s19.167 -6.5 27.5 -10.5s16.333 -7.5 24 -10.5s16.167 -4.5 25.5 -4.5c7.33301 0 14.333 1.66699 21 5s11 10 13 20h100c2.66699 -41.333 -3.83301 -74.5 -19.5 -99.5s-42.5 -37.5 -80.5 -37.5z" />
    <glyph glyph-name="Adieresis" unicode="&#xc4;" horiz-adv-x="706" 
d="M13 0v70l255 680h169l254 -670v-80h-144l-58 159h-286l-57 -159h-133zM347 571l-98 -276h196zM175 935h150v-135h-150v135zM380 935h151v-135h-151v135z" />
    <glyph glyph-name="Aring" unicode="&#xc5;" horiz-adv-x="706" 
d="M13 0v70l255 680h169l254 -670v-80h-144l-58 159h-286l-57 -159h-133zM347 571l-98 -276h196zM350 785c-47.333 0 -82.166 8.66699 -104.499 26s-33.5 39.666 -33.5 66.999c0 26.667 11.167 48.834 33.5 66.501s57.166 26.5 104.499 26.5
c48 0 83.167 -8.83301 105.5 -26.5s33.5 -39.834 33.5 -66.501c0 -27.333 -11.167 -49.666 -33.5 -66.999s-57.5 -26 -105.5 -26zM350 851c10.667 0 20 2.33301 28 7s12 11.334 12 20.001s-4 15.334 -12 20.001s-17.333 7 -28 7s-20 -2.33301 -28 -7
s-12 -11.334 -12 -20.001s4 -15.334 12 -20.001s17.333 -7 28 -7z" />
    <glyph glyph-name="AE" unicode="&#xc6;" horiz-adv-x="978" 
d="M388 750h540v-141h-305v-159h270v-130h-270v-179h305v-141h-471v154h-238l-86 -154h-126v75zM457 290v296l-163 -296h163z" />
    <glyph glyph-name="Ccedilla" unicode="&#xc7;" horiz-adv-x="729" 
d="M549 -123c0 -19.333 -3.83203 -35.168 -11.499 -47.501s-17.5 -22.333 -29.5 -30s-25.333 -13.167 -40 -16.5s-29 -5.66602 -43 -6.99902h-85v80c19.333 0 35.5 2.33301 48.5 7s19.5 14.334 19.5 29.001c0 14 -6.83301 23.333 -20.5 28s-28.167 7 -43.5 7v63
c-48 6.66699 -90.667 20.834 -128 42.501s-68.833 49.167 -94.5 82.5s-45.334 72 -59.001 116s-20.5 92 -20.5 144c0 58.667 8.83301 112 26.5 160s42.5 89 74.5 123s70.5 60.333 115.5 79s95.167 28 150.5 28c50 0 92.333 -5.83301 127 -17.5s63.334 -25.667 86.001 -42
s39.667 -33.5 51 -51.5s18.333 -33 21 -45v-76h-131c-1.33301 7.33301 -5 16.166 -11 26.499s-15 20.333 -27 30s-27.167 17.834 -45.5 24.501s-41.166 10 -68.499 10c-62.667 0 -112.167 -22 -148.5 -66s-54.5 -104.667 -54.5 -182c0 -38 4.83301 -72.333 14.5 -103
s23.167 -56.834 40.5 -78.501s38.666 -38.334 63.999 -50.001s53.333 -17.5 84 -17.5c26.667 0 49.5 3.66699 68.5 11s34.667 16 47 26s21.833 20.333 28.5 31s11 19.667 13 27h131v-76c-3.33301 -13.333 -10.5 -28.333 -21.5 -45s-26 -32.5 -45 -47.5
s-42.333 -28.5 -70 -40.5s-60.167 -20.333 -97.5 -25v-28c25.333 -4 45.666 -13 60.999 -27s23 -32.667 23 -56z" />
    <glyph glyph-name="Egrave" unicode="&#xc8;" horiz-adv-x="603" 
d="M82 750h471v-141h-305v-159h270v-130h-270v-179h305v-141h-471v750zM180 885v60h156l72 -80v-60h-136z" />
    <glyph glyph-name="Eacute" unicode="&#xc9;" horiz-adv-x="603" 
d="M82 750h471v-141h-305v-159h270v-130h-270v-179h305v-141h-471v750zM254 865l72 80h156v-60l-92 -80h-136v60z" />
    <glyph glyph-name="Ecircumflex" unicode="&#xca;" horiz-adv-x="603" 
d="M82 750h471v-141h-305v-159h270v-130h-270v-179h305v-141h-471v750zM318 858l-56 -58h-116v60l92 80h160l92 -80v-60h-116z" />
    <glyph glyph-name="Edieresis" unicode="&#xcb;" horiz-adv-x="603" 
d="M82 750h471v-141h-305v-159h270v-130h-270v-179h305v-141h-471v750zM141 935h150v-135h-150v135zM346 935h151v-135h-151v135z" />
    <glyph glyph-name="Igrave" unicode="&#xcc;" horiz-adv-x="330" 
d="M82 750h166v-750h-166v750zM8 885v60h156l72 -80v-60h-136z" />
    <glyph glyph-name="Iacute" unicode="&#xcd;" horiz-adv-x="330" 
d="M82 750h166v-750h-166v750zM96 865l72 80h156v-60l-92 -80h-136v60z" />
    <glyph glyph-name="Icircumflex" unicode="&#xce;" horiz-adv-x="330" 
d="M164 858l-56 -58h-116v60l92 80h160l92 -80v-60h-116zM82 750h166v-750h-166v750z" />
    <glyph glyph-name="Idieresis" unicode="&#xcf;" horiz-adv-x="330" 
d="M-13 935h150v-135h-150v135zM192 935h151v-135h-151v135zM82 750h166v-750h-166v750z" />
    <glyph glyph-name="Eth" unicode="&#xd0;" horiz-adv-x="773" 
d="M732 378c0 -52 -8.66699 -100.999 -26 -146.999s-42.166 -86 -74.499 -120s-71.5 -61 -117.5 -81s-98 -30 -156 -30h-263v315h-80v126h80v309h263c58 0 110 -9.83301 156 -29.5s85.167 -46.334 117.5 -80.001s57.166 -73 74.499 -118s26 -93.167 26 -144.5zM355 141.001
c32.667 0 61.834 6.16504 87.501 18.498s47.167 29.333 64.5 51s30.666 46.834 39.999 75.501s14 59.334 14 92.001c0 32 -4.66699 62 -14 90s-22.666 52.5 -39.999 73.5s-38.833 37.5 -64.5 49.5s-54.834 18 -87.501 18h-94v-168h89v-126h-89v-174h94z" />
    <glyph glyph-name="Ntilde" unicode="&#xd1;" horiz-adv-x="795" 
d="M82 750h156l319 -477v477h156v-750h-156l-319 469v-469h-156v750zM490 792c-14 0 -26.168 1.5 -36.501 4.5s-20 6.5 -29 10.5s-17.667 7.5 -26 10.5s-17.166 4.5 -26.499 4.5c-19.333 0 -31 -8.33301 -35 -25h-100c-2.66699 40.667 5.33301 73.667 24 99s46 38 82 38
c14 0 26 -1.5 36 -4.5s19.167 -6.5 27.5 -10.5s16.333 -7.5 24 -10.5s16.167 -4.5 25.5 -4.5c7.33301 0 14.333 1.66699 21 5s11 10 13 20h100c2.66699 -41.333 -3.83301 -74.5 -19.5 -99.5s-42.5 -37.5 -80.5 -37.5z" />
    <glyph glyph-name="Ograve" unicode="&#xd2;" horiz-adv-x="826" 
d="M413 -15c-56 0 -106.833 9.66699 -152.5 29s-84.667 46.333 -117 81s-57.5 76 -75.5 124s-27 101 -27 159c0 57.333 9 109.666 27 156.999s43.167 88 75.5 122s71.333 60.5 117 79.5s96.5 28.5 152.5 28.5s106.833 -9.5 152.5 -28.5s84.667 -45.5 117 -79.5
s57.5 -74.667 75.5 -122s27 -99.666 27 -156.999c0 -58 -9 -111 -27 -159s-43.167 -89.333 -75.5 -124s-71.333 -61.667 -117 -81s-96.5 -29 -152.5 -29zM413 126c31.333 0 59.666 6.16699 84.999 18.5s47 29.5 65 51.5s31.833 48.5 41.5 79.5s14.5 65.167 14.5 102.5
c0 36.667 -4.83301 70 -14.5 100s-23.5 55.833 -41.5 77.5s-39.667 38.5 -65 50.5s-53.666 18 -84.999 18s-59.666 -6 -84.999 -18s-47 -28.833 -65 -50.5s-31.833 -47.5 -41.5 -77.5s-14.5 -63.333 -14.5 -100c0 -37.333 4.83301 -71.5 14.5 -102.5s23.5 -57.5 41.5 -79.5
s39.667 -39.167 65 -51.5s53.666 -18.5 84.999 -18.5zM249 885v60h156l72 -80v-60h-136z" />
    <glyph glyph-name="Oacute" unicode="&#xd3;" horiz-adv-x="826" 
d="M413 -15c-56 0 -106.833 9.66699 -152.5 29s-84.667 46.333 -117 81s-57.5 76 -75.5 124s-27 101 -27 159c0 57.333 9 109.666 27 156.999s43.167 88 75.5 122s71.333 60.5 117 79.5s96.5 28.5 152.5 28.5s106.833 -9.5 152.5 -28.5s84.667 -45.5 117 -79.5
s57.5 -74.667 75.5 -122s27 -99.666 27 -156.999c0 -58 -9 -111 -27 -159s-43.167 -89.333 -75.5 -124s-71.333 -61.667 -117 -81s-96.5 -29 -152.5 -29zM413 126c31.333 0 59.666 6.16699 84.999 18.5s47 29.5 65 51.5s31.833 48.5 41.5 79.5s14.5 65.167 14.5 102.5
c0 36.667 -4.83301 70 -14.5 100s-23.5 55.833 -41.5 77.5s-39.667 38.5 -65 50.5s-53.666 18 -84.999 18s-59.666 -6 -84.999 -18s-47 -28.833 -65 -50.5s-31.833 -47.5 -41.5 -77.5s-14.5 -63.333 -14.5 -100c0 -37.333 4.83301 -71.5 14.5 -102.5s23.5 -57.5 41.5 -79.5
s39.667 -39.167 65 -51.5s53.666 -18.5 84.999 -18.5zM349 865l72 80h156v-60l-92 -80h-136v60z" />
    <glyph glyph-name="Ocircumflex" unicode="&#xd4;" horiz-adv-x="826" 
d="M413 -15c-56 0 -106.833 9.66699 -152.5 29s-84.667 46.333 -117 81s-57.5 76 -75.5 124s-27 101 -27 159c0 57.333 9 109.666 27 156.999s43.167 88 75.5 122s71.333 60.5 117 79.5s96.5 28.5 152.5 28.5s106.833 -9.5 152.5 -28.5s84.667 -45.5 117 -79.5
s57.5 -74.667 75.5 -122s27 -99.666 27 -156.999c0 -58 -9 -111 -27 -159s-43.167 -89.333 -75.5 -124s-71.333 -61.667 -117 -81s-96.5 -29 -152.5 -29zM413 126c31.333 0 59.666 6.16699 84.999 18.5s47 29.5 65 51.5s31.833 48.5 41.5 79.5s14.5 65.167 14.5 102.5
c0 36.667 -4.83301 70 -14.5 100s-23.5 55.833 -41.5 77.5s-39.667 38.5 -65 50.5s-53.666 18 -84.999 18s-59.666 -6 -84.999 -18s-47 -28.833 -65 -50.5s-31.833 -47.5 -41.5 -77.5s-14.5 -63.333 -14.5 -100c0 -37.333 4.83301 -71.5 14.5 -102.5s23.5 -57.5 41.5 -79.5
s39.667 -39.167 65 -51.5s53.666 -18.5 84.999 -18.5zM413 858l-56 -58h-116v60l92 80h160l92 -80v-60h-116z" />
    <glyph glyph-name="Otilde" unicode="&#xd5;" horiz-adv-x="826" 
d="M413 -15c-56 0 -106.833 9.66699 -152.5 29s-84.667 46.333 -117 81s-57.5 76 -75.5 124s-27 101 -27 159c0 57.333 9 109.666 27 156.999s43.167 88 75.5 122s71.333 60.5 117 79.5s96.5 28.5 152.5 28.5s106.833 -9.5 152.5 -28.5s84.667 -45.5 117 -79.5
s57.5 -74.667 75.5 -122s27 -99.666 27 -156.999c0 -58 -9 -111 -27 -159s-43.167 -89.333 -75.5 -124s-71.333 -61.667 -117 -81s-96.5 -29 -152.5 -29zM413 126c31.333 0 59.666 6.16699 84.999 18.5s47 29.5 65 51.5s31.833 48.5 41.5 79.5s14.5 65.167 14.5 102.5
c0 36.667 -4.83301 70 -14.5 100s-23.5 55.833 -41.5 77.5s-39.667 38.5 -65 50.5s-53.666 18 -84.999 18s-59.666 -6 -84.999 -18s-47 -28.833 -65 -50.5s-31.833 -47.5 -41.5 -77.5s-14.5 -63.333 -14.5 -100c0 -37.333 4.83301 -71.5 14.5 -102.5s23.5 -57.5 41.5 -79.5
s39.667 -39.167 65 -51.5s53.666 -18.5 84.999 -18.5zM486 792c-14 0 -26.168 1.5 -36.501 4.5s-20 6.5 -29 10.5s-17.667 7.5 -26 10.5s-17.166 4.5 -26.499 4.5c-19.333 0 -31 -8.33301 -35 -25h-100c-2.66699 40.667 5.33301 73.667 24 99s46 38 82 38
c14 0 26 -1.5 36 -4.5s19.167 -6.5 27.5 -10.5s16.333 -7.5 24 -10.5s16.167 -4.5 25.5 -4.5c7.33301 0 14.333 1.66699 21 5s11 10 13 20h100c2.66699 -41.333 -3.83301 -74.5 -19.5 -99.5s-42.5 -37.5 -80.5 -37.5z" />
    <glyph glyph-name="Odieresis" unicode="&#xd6;" horiz-adv-x="826" 
d="M413 -15c-56 0 -106.833 9.66699 -152.5 29s-84.667 46.333 -117 81s-57.5 76 -75.5 124s-27 101 -27 159c0 57.333 9 109.666 27 156.999s43.167 88 75.5 122s71.333 60.5 117 79.5s96.5 28.5 152.5 28.5s106.833 -9.5 152.5 -28.5s84.667 -45.5 117 -79.5
s57.5 -74.667 75.5 -122s27 -99.666 27 -156.999c0 -58 -9 -111 -27 -159s-43.167 -89.333 -75.5 -124s-71.333 -61.667 -117 -81s-96.5 -29 -152.5 -29zM413 126c31.333 0 59.666 6.16699 84.999 18.5s47 29.5 65 51.5s31.833 48.5 41.5 79.5s14.5 65.167 14.5 102.5
c0 36.667 -4.83301 70 -14.5 100s-23.5 55.833 -41.5 77.5s-39.667 38.5 -65 50.5s-53.666 18 -84.999 18s-59.666 -6 -84.999 -18s-47 -28.833 -65 -50.5s-31.833 -47.5 -41.5 -77.5s-14.5 -63.333 -14.5 -100c0 -37.333 4.83301 -71.5 14.5 -102.5s23.5 -57.5 41.5 -79.5
s39.667 -39.167 65 -51.5s53.666 -18.5 84.999 -18.5zM233 935h150v-135h-150v135zM438 935h151v-135h-151v135z" />
    <glyph glyph-name="multiply" unicode="&#xd7;" horiz-adv-x="569" 
d="M285 213l-156 -150l-87 93l150 146l-152 149l87 93l158 -153l157 153l88 -93l-153 -149l150 -146l-87 -93z" />
    <glyph glyph-name="Oslash" unicode="&#xd8;" horiz-adv-x="826" 
d="M413 -15c-58.667 0 -112.667 11.333 -162 34l-39 -59h-156l89 133c-33.333 35.333 -59 77 -77 125s-27 101.333 -27 160c0 57.333 9 109.666 27 156.999s43.167 88 75.5 122s71.333 60.5 117 79.5s96.5 28.5 152.5 28.5c59.333 0 113.333 -11.333 162 -34l39 59h156
l-89 -132c33.333 -34.667 59 -75.667 77 -123s27 -99.666 27 -156.999c0 -58 -9 -111 -27 -159s-43.167 -89.333 -75.5 -124s-71.333 -61.667 -117 -81s-96.5 -29 -152.5 -29zM202 378c0 -56 12.333 -104 37 -144l256 377c-24 12 -51.333 18 -82 18
c-32 0 -61 -6.16699 -87 -18.5s-48.167 -29.5 -66.5 -51.5s-32.5 -48.333 -42.5 -79s-15 -64.667 -15 -102zM413 121c32 0 61 6.16699 87 18.5s48.167 29.833 66.5 52.5s32.5 49.834 42.5 81.501s15 66.5 15 104.5c0 27.333 -3 52.666 -9 75.999s-14.667 44.333 -26 63
l-258 -379c24.667 -11.333 52 -17 82 -17z" />
    <glyph glyph-name="Ugrave" unicode="&#xd9;" horiz-adv-x="759" 
d="M383 -15c-47.333 0 -90.0029 7.66699 -128.003 23s-70.5 36 -97.5 62s-47.667 56.667 -62 92s-21.5 73 -21.5 113v475h166v-476c0 -20.667 3.16699 -40 9.5 -58s15.5 -33.667 27.5 -47s26.833 -23.833 44.5 -31.5s37.834 -11.5 60.501 -11.5
c23.333 0 44.166 3.83301 62.499 11.5s33.833 18.167 46.5 31.5s22.167 29 28.5 47s9.5 37.333 9.5 58v476h156v-475c0 -40 -7.16699 -77.667 -21.5 -113s-34.666 -66 -60.999 -92s-58.166 -46.667 -95.499 -62s-78.666 -23 -123.999 -23zM226.997 885v60h156l72 -80v-60
h-136z" />
    <glyph glyph-name="Uacute" unicode="&#xda;" horiz-adv-x="759" 
d="M383 -15c-47.333 0 -90.0029 7.66699 -128.003 23s-70.5 36 -97.5 62s-47.667 56.667 -62 92s-21.5 73 -21.5 113v475h166v-476c0 -20.667 3.16699 -40 9.5 -58s15.5 -33.667 27.5 -47s26.833 -23.833 44.5 -31.5s37.834 -11.5 60.501 -11.5
c23.333 0 44.166 3.83301 62.499 11.5s33.833 18.167 46.5 31.5s22.167 29 28.5 47s9.5 37.333 9.5 58v476h156v-475c0 -40 -7.16699 -77.667 -21.5 -113s-34.666 -66 -60.999 -92s-58.166 -46.667 -95.499 -62s-78.666 -23 -123.999 -23zM311.997 865l72 80h156v-60
l-92 -80h-136v60z" />
    <glyph glyph-name="Ucircumflex" unicode="&#xdb;" horiz-adv-x="759" 
d="M383 -15c-47.333 0 -90.0029 7.66699 -128.003 23s-70.5 36 -97.5 62s-47.667 56.667 -62 92s-21.5 73 -21.5 113v475h166v-476c0 -20.667 3.16699 -40 9.5 -58s15.5 -33.667 27.5 -47s26.833 -23.833 44.5 -31.5s37.834 -11.5 60.501 -11.5
c23.333 0 44.166 3.83301 62.499 11.5s33.833 18.167 46.5 31.5s22.167 29 28.5 47s9.5 37.333 9.5 58v476h156v-475c0 -40 -7.16699 -77.667 -21.5 -113s-34.666 -66 -60.999 -92s-58.166 -46.667 -95.499 -62s-78.666 -23 -123.999 -23zM381.997 858l-56 -58h-116v60
l92 80h160l92 -80v-60h-116z" />
    <glyph glyph-name="Udieresis" unicode="&#xdc;" horiz-adv-x="759" 
d="M383 -15c-47.333 0 -90.0029 7.66699 -128.003 23s-70.5 36 -97.5 62s-47.667 56.667 -62 92s-21.5 73 -21.5 113v475h166v-476c0 -20.667 3.16699 -40 9.5 -58s15.5 -33.667 27.5 -47s26.833 -23.833 44.5 -31.5s37.834 -11.5 60.501 -11.5
c23.333 0 44.166 3.83301 62.499 11.5s33.833 18.167 46.5 31.5s22.167 29 28.5 47s9.5 37.333 9.5 58v476h156v-475c0 -40 -7.16699 -77.667 -21.5 -113s-34.666 -66 -60.999 -92s-58.166 -46.667 -95.499 -62s-78.666 -23 -123.999 -23zM204.997 935h150v-135h-150v135z
M409.997 935h151v-135h-151v135z" />
    <glyph glyph-name="Yacute" unicode="&#xdd;" horiz-adv-x="662" 
d="M249 300l-242 372v78h146l190 -304l178 304h130v-75l-236 -376v-299h-166v300zM263 865l72 80h156v-60l-92 -80h-136v60z" />
    <glyph glyph-name="Thorn" unicode="&#xde;" horiz-adv-x="646" 
d="M82 750h166v-85c62 -0.666992 116.167 -8.16699 162.5 -22.5s84.833 -34 115.5 -59s53.667 -55 69 -90s23 -74.167 23 -117.5c0 -42.667 -7.66699 -81.5 -23 -116.5s-38.333 -65 -69 -90s-69.167 -44.333 -115.5 -58s-100.5 -21.167 -162.5 -22.5v-89h-166v750zM243 224
c74.667 2 128.167 16.167 160.5 42.5s48.5 62.833 48.5 109.5c0 48 -16.167 85 -48.5 111s-85.833 40 -160.5 42v-305z" />
    <glyph glyph-name="germandbls" unicode="&#xdf;" horiz-adv-x="617" 
d="M366 -15c-25.333 0 -45.8359 2.16895 -61.5029 6.50195s-26.5 7.16602 -32.5 8.49902v123c6 -1.33301 14.833 -3.66602 26.5 -6.99902s25.5 -5 41.5 -5c30.667 0 52.834 8.66699 66.501 26s20.5 38.666 20.5 63.999c0 35.333 -12 62.166 -36 80.499s-61 28.833 -111 31.5
v120c35.333 4.66699 61.833 17.834 79.5 39.501s26.5 47.5 26.5 77.5c0 23.333 -6.66699 43.166 -20 59.499s-35.333 24.5 -66 24.5c-29.333 0 -50.833 -9.5 -64.5 -28.5s-20.5 -44.5 -20.5 -76.5v-529h-151v528c0 72.667 21.167 129.5 63.5 170.5
s101.166 61.5 176.499 61.5c35.333 0 67.5 -4.33301 96.5 -13s54 -21.667 75 -39s37.333 -38.5 49 -63.5s17.5 -54.167 17.5 -87.5c0 -36 -9.66699 -69 -29 -99s-45.666 -53.333 -78.999 -70c46 -12 82.167 -34.667 108.5 -68s39.5 -73.333 39.5 -120
c0 -26.667 -3.83301 -52.834 -11.5 -78.501s-20.167 -48.667 -37.5 -69s-39.666 -36.666 -66.999 -48.999s-60.666 -18.5 -99.999 -18.5z" />
    <glyph glyph-name="agrave" unicode="&#xe0;" horiz-adv-x="551" 
d="M197 -15c-28 0 -52.3281 4.16992 -72.9951 12.5029s-37.834 19.666 -51.501 33.999s-24 31 -31 50s-10.5 39.167 -10.5 60.5c0 48 17.667 86.167 53 114.5s90 42.5 164 42.5c13.333 0 25.666 -0.5 36.999 -1.5s21.333 -2.16699 30 -3.5c9.33301 -1.33301 18.333 -3 27 -5
v22c0 56 -27.667 84 -83 84c-16.667 0 -30.334 -2.33301 -41.001 -7s-19.334 -10 -26.001 -16c-8 -6.66699 -14.333 -14.334 -19 -23.001h-114v67c9.33301 19.333 23.333 36.666 42 51.999c16 14 36.833 26.167 62.5 36.5s58.5 15.5 98.5 15.5c154 0 231 -71.333 231 -214
v-306h-136l-10 64c-12.667 -20.667 -30.834 -39 -54.501 -55s-55.5 -24 -95.5 -24zM246.005 101.003c16 0 29.999 2.66699 41.999 8s22 12 30 20s14 16.833 18 26.5s6 18.834 6 27.501v22c-7.33301 1.33301 -15.333 2.66602 -24 3.99902c-8 1.33301 -17 2.33301 -27 3
s-21 1 -33 1c-30 0 -50.5 -5.5 -61.5 -16.5s-16.5 -24.5 -16.5 -40.5c0 -19.333 5.83301 -33.333 17.5 -42s27.834 -13 48.501 -13zM134.004 690.003v60h143l77 -90v-60h-123z" />
    <glyph glyph-name="aacute" unicode="&#xe1;" horiz-adv-x="551" 
d="M197 -15c-28 0 -52.3281 4.16992 -72.9951 12.5029s-37.834 19.666 -51.501 33.999s-24 31 -31 50s-10.5 39.167 -10.5 60.5c0 48 17.667 86.167 53 114.5s90 42.5 164 42.5c13.333 0 25.666 -0.5 36.999 -1.5s21.333 -2.16699 30 -3.5c9.33301 -1.33301 18.333 -3 27 -5
v22c0 56 -27.667 84 -83 84c-16.667 0 -30.334 -2.33301 -41.001 -7s-19.334 -10 -26.001 -16c-8 -6.66699 -14.333 -14.334 -19 -23.001h-114v67c9.33301 19.333 23.333 36.666 42 51.999c16 14 36.833 26.167 62.5 36.5s58.5 15.5 98.5 15.5c154 0 231 -71.333 231 -214
v-306h-136l-10 64c-12.667 -20.667 -30.834 -39 -54.501 -55s-55.5 -24 -95.5 -24zM246.005 101.003c16 0 29.999 2.66699 41.999 8s22 12 30 20s14 16.833 18 26.5s6 18.834 6 27.501v22c-7.33301 1.33301 -15.333 2.66602 -24 3.99902c-8 1.33301 -17 2.33301 -27 3
s-21 1 -33 1c-30 0 -50.5 -5.5 -61.5 -16.5s-16.5 -24.5 -16.5 -40.5c0 -19.333 5.83301 -33.333 17.5 -42s27.834 -13 48.501 -13zM216.004 660.003l77 90h144v-60l-98 -90h-123v60z" />
    <glyph glyph-name="acircumflex" unicode="&#xe2;" horiz-adv-x="551" 
d="M197 -15c-28 0 -52.3281 4.16992 -72.9951 12.5029s-37.834 19.666 -51.501 33.999s-24 31 -31 50s-10.5 39.167 -10.5 60.5c0 48 17.667 86.167 53 114.5s90 42.5 164 42.5c13.333 0 25.666 -0.5 36.999 -1.5s21.333 -2.16699 30 -3.5c9.33301 -1.33301 18.333 -3 27 -5
v22c0 56 -27.667 84 -83 84c-16.667 0 -30.334 -2.33301 -41.001 -7s-19.334 -10 -26.001 -16c-8 -6.66699 -14.333 -14.334 -19 -23.001h-114v67c9.33301 19.333 23.333 36.666 42 51.999c16 14 36.833 26.167 62.5 36.5s58.5 15.5 98.5 15.5c154 0 231 -71.333 231 -214
v-306h-136l-10 64c-12.667 -20.667 -30.834 -39 -54.501 -55s-55.5 -24 -95.5 -24zM246.005 101.003c16 0 29.999 2.66699 41.999 8s22 12 30 20s14 16.833 18 26.5s6 18.834 6 27.501v22c-7.33301 1.33301 -15.333 2.66602 -24 3.99902c-8 1.33301 -17 2.33301 -27 3
s-21 1 -33 1c-30 0 -50.5 -5.5 -61.5 -16.5s-16.5 -24.5 -16.5 -40.5c0 -19.333 5.83301 -33.333 17.5 -42s27.834 -13 48.501 -13zM280.004 673.003l-61 -73h-106v60l92 90h150l92 -90v-60h-106z" />
    <glyph glyph-name="atilde" unicode="&#xe3;" horiz-adv-x="551" 
d="M197 -15c-28 0 -52.3281 4.16992 -72.9951 12.5029s-37.834 19.666 -51.501 33.999s-24 31 -31 50s-10.5 39.167 -10.5 60.5c0 48 17.667 86.167 53 114.5s90 42.5 164 42.5c13.333 0 25.666 -0.5 36.999 -1.5s21.333 -2.16699 30 -3.5c9.33301 -1.33301 18.333 -3 27 -5
v22c0 56 -27.667 84 -83 84c-16.667 0 -30.334 -2.33301 -41.001 -7s-19.334 -10 -26.001 -16c-8 -6.66699 -14.333 -14.334 -19 -23.001h-114v67c9.33301 19.333 23.333 36.666 42 51.999c16 14 36.833 26.167 62.5 36.5s58.5 15.5 98.5 15.5c154 0 231 -71.333 231 -214
v-306h-136l-10 64c-12.667 -20.667 -30.834 -39 -54.501 -55s-55.5 -24 -95.5 -24zM246.005 101.003c16 0 29.999 2.66699 41.999 8s22 12 30 20s14 16.833 18 26.5s6 18.834 6 27.501v22c-7.33301 1.33301 -15.333 2.66602 -24 3.99902c-8 1.33301 -17 2.33301 -27 3
s-21 1 -33 1c-30 0 -50.5 -5.5 -61.5 -16.5s-16.5 -24.5 -16.5 -40.5c0 -19.333 5.83301 -33.333 17.5 -42s27.834 -13 48.501 -13zM361.004 599.003c-16 0 -29.333 1.83301 -40 5.5s-20.334 7.66699 -29.001 12l-25 12c-8 3.66699 -17.667 5.5 -29 5.5
c-18 0 -29.667 -10 -35 -30h-95c-2.66699 40.667 5.33301 73.667 24 99s46 38 82 38c16 0 29.167 -1.83301 39.5 -5.5s19.5 -7.5 27.5 -11.5l23.5 -11.5c7.66699 -3.66699 16.834 -5.5 27.501 -5.5c7.33301 0 14.333 2 21 6s11 11.667 13 23h95
c2.66699 -40.667 -3.83301 -73.667 -19.5 -99s-42.5 -38 -80.5 -38z" />
    <glyph glyph-name="adieresis" unicode="&#xe4;" horiz-adv-x="551" 
d="M197 -15c-28 0 -52.3281 4.16992 -72.9951 12.5029s-37.834 19.666 -51.501 33.999s-24 31 -31 50s-10.5 39.167 -10.5 60.5c0 48 17.667 86.167 53 114.5s90 42.5 164 42.5c13.333 0 25.666 -0.5 36.999 -1.5s21.333 -2.16699 30 -3.5c9.33301 -1.33301 18.333 -3 27 -5
v22c0 56 -27.667 84 -83 84c-16.667 0 -30.334 -2.33301 -41.001 -7s-19.334 -10 -26.001 -16c-8 -6.66699 -14.333 -14.334 -19 -23.001h-114v67c9.33301 19.333 23.333 36.666 42 51.999c16 14 36.833 26.167 62.5 36.5s58.5 15.5 98.5 15.5c154 0 231 -71.333 231 -214
v-306h-136l-10 64c-12.667 -20.667 -30.834 -39 -54.501 -55s-55.5 -24 -95.5 -24zM246.005 101.003c16 0 29.999 2.66699 41.999 8s22 12 30 20s14 16.833 18 26.5s6 18.834 6 27.501v22c-7.33301 1.33301 -15.333 2.66602 -24 3.99902c-8 1.33301 -17 2.33301 -27 3
s-21 1 -33 1c-30 0 -50.5 -5.5 -61.5 -16.5s-16.5 -24.5 -16.5 -40.5c0 -19.333 5.83301 -33.333 17.5 -42s27.834 -13 48.501 -13zM105.004 740.003h145v-140h-145v140zM310.004 740.003h146v-140h-146v140z" />
    <glyph glyph-name="aring" unicode="&#xe5;" horiz-adv-x="551" 
d="M197 -15c-28 0 -52.3281 4.16992 -72.9951 12.5029s-37.834 19.666 -51.501 33.999s-24 31 -31 50s-10.5 39.167 -10.5 60.5c0 48 17.667 86.167 53 114.5s90 42.5 164 42.5c13.333 0 25.666 -0.5 36.999 -1.5s21.333 -2.16699 30 -3.5c9.33301 -1.33301 18.333 -3 27 -5
v22c0 56 -27.667 84 -83 84c-16.667 0 -30.334 -2.33301 -41.001 -7s-19.334 -10 -26.001 -16c-8 -6.66699 -14.333 -14.334 -19 -23.001h-114v67c9.33301 19.333 23.333 36.666 42 51.999c16 14 36.833 26.167 62.5 36.5s58.5 15.5 98.5 15.5c154 0 231 -71.333 231 -214
v-306h-136l-10 64c-12.667 -20.667 -30.834 -39 -54.501 -55s-55.5 -24 -95.5 -24zM246.005 101.003c16 0 29.999 2.66699 41.999 8s22 12 30 20s14 16.833 18 26.5s6 18.834 6 27.501v22c-7.33301 1.33301 -15.333 2.66602 -24 3.99902c-8 1.33301 -17 2.33301 -27 3
s-21 1 -33 1c-30 0 -50.5 -5.5 -61.5 -16.5s-16.5 -24.5 -16.5 -40.5c0 -19.333 5.83301 -33.333 17.5 -42s27.834 -13 48.501 -13zM283.004 568.003c-46 0 -79.667 9.16699 -101 27.5s-32 41.166 -32 68.499c0 26.667 10.667 49.334 32 68.001s55 28 101 28
s79.833 -9.33301 101.5 -28s32.5 -41.334 32.5 -68.001c0 -27.333 -10.833 -50.166 -32.5 -68.499s-55.5 -27.5 -101.5 -27.5zM283.004 634.003c9.33301 0 17.5 2.66699 24.5 8s10.5 12.666 10.5 21.999s-3.5 16.666 -10.5 21.999s-15.167 8 -24.5 8
s-17.5 -2.66699 -24.5 -8s-10.5 -12.666 -10.5 -21.999s3.5 -16.666 10.5 -21.999s15.167 -8 24.5 -8z" />
    <glyph glyph-name="ae" unicode="&#xe6;" horiz-adv-x="897" 
d="M622 -15c-44.667 0 -83.3281 7.50293 -115.995 22.5029s-59.334 35.833 -80.001 62.5c-23.333 -31.333 -52 -53.333 -86 -66s-72 -19 -114 -19c-30.667 0 -58.167 4 -82.5 12s-45 19 -62 33s-29.833 30.5 -38.5 49.5s-13 39.833 -13 62.5c0 48 18.167 86.667 54.5 116
s93.166 44 170.499 44c13.333 0 25.833 -0.5 37.5 -1.5s21.834 -2.16699 30.501 -3.5c10 -1.33301 19.333 -3 28 -5v19c0 28 -8.33301 49 -25 63s-39 21 -67 21c-16.667 0 -30.5 -2.33301 -41.5 -7s-19.833 -10 -26.5 -16c-8 -6.66699 -14.333 -14.334 -19 -23.001h-113v67
c9.33301 19.333 23 36.666 41 51.999c16.667 14 37.667 26.167 63 36.5s58 15.5 98 15.5c41.333 0 77.166 -6.33301 107.499 -19s55.166 -30.667 74.499 -54c20.667 22 45.667 39.667 75 53s63 20 101 20c42 0 78.167 -6 108.5 -18s55.5 -28.667 75.5 -50
s34.667 -46.5 44 -75.5s14 -60.5 14 -94.5c0 -8.66699 -0.333008 -16.834 -1 -24.501s-1.33398 -14.5 -2.00098 -20.5c-1.33301 -6.66699 -2.66602 -13 -3.99902 -19h-352c4 -34 16.167 -61.167 36.5 -81.5s48.833 -30.5 85.5 -30.5c22.667 0 41 2.33301 55 7s25 10 33 16
c9.33301 6.66699 16.333 14.334 21 23.001h118v-67c-10.667 -18.667 -26.334 -35.334 -47.001 -50.001c-18.667 -13.333 -42.334 -25 -71.001 -35s-65.667 -15 -111 -15zM716.006 309.003c0 24 -8.33105 45.167 -24.998 63.5s-42.334 27.5 -77.001 27.5
c-33.333 0 -58.333 -8.5 -75 -25.5s-28.334 -38.833 -35.001 -65.5h212zM250.008 96.0029c32.667 0 57.667 9.00195 75 27.002s26 38 26 60v14c-7.33301 1.33301 -15.333 2.66602 -24 3.99902c-8 1.33301 -17.167 2.33301 -27.5 3s-21.833 1 -34.5 1
c-34 0 -56.833 -5.83301 -68.5 -17.5s-17.5 -24.167 -17.5 -37.5c0 -18.667 6.5 -32.334 19.5 -41.001s30.167 -13 51.5 -13z" />
    <glyph glyph-name="ccedilla" unicode="&#xe7;" horiz-adv-x="545" 
d="M441 -123c0 -19.333 -3.83398 -35.168 -11.501 -47.501s-17.5 -22.333 -29.5 -30s-25.333 -13.167 -40 -16.5s-29 -5.66602 -43 -6.99902h-85v80c19.333 0 35.5 2.33301 48.5 7s19.5 14.334 19.5 29.001c0 14 -6.83301 23.333 -20.5 28s-28.167 7 -43.5 7v64
c-33.333 6 -62.5 17 -87.5 33s-45.833 35.5 -62.5 58.5s-29.167 48.833 -37.5 77.5s-12.5 59 -12.5 91c0 37.333 6 72.333 18 105s29.333 61.167 52 85.5s50.334 43.666 83.001 57.999s69.667 21.5 111 21.5c43.333 0 78.333 -6.16699 105 -18.5s47.667 -25.833 63 -40.5
c17.333 -17.333 30.333 -37 39 -59v-67h-113c-3.33301 10 -9 19 -17 27c-7.33301 7.33301 -17 13.666 -29 18.999s-28 8 -48 8c-19.333 0 -36 -3.66699 -50 -11s-25.667 -17.333 -35 -30s-16.333 -27.334 -21 -44.001s-7 -34.667 -7 -54c0 -18.667 2.33301 -36.167 7 -52.5
s11.667 -30.666 21 -42.999s21 -22 35 -29s30.667 -10.5 50 -10.5c20.667 0 37.334 2.83301 50.001 8.5s22.334 11.834 29.001 18.501c7.33301 8 12.666 17 15.999 27h113v-67c-6.66699 -17.333 -16.667 -33.333 -30 -48c-12 -14 -27.5 -27 -46.5 -39
s-43.833 -20.667 -74.5 -26v-30c25.333 -4 45.666 -13 60.999 -27s23 -32.667 23 -56z" />
    <glyph glyph-name="egrave" unicode="&#xe8;" horiz-adv-x="583" 
d="M308 -15c-45.333 0 -84.999 6.83594 -118.999 20.5029s-62.333 32.5 -85 56.5s-39.667 52.167 -51 84.5s-17 67.166 -17 104.499s5.83301 72.166 17.5 104.499s28.834 60.833 51.501 85.5s50.5 44 83.5 58s70.833 21 113.5 21s79.5 -6 110.5 -18s56.5 -28.667 76.5 -50
s34.667 -46.5 44 -75.5s14 -60.5 14 -94.5c0 -8.66699 -0.333008 -16.834 -1 -24.501s-1.33398 -14.5 -2.00098 -20.5c-1.33301 -6.66699 -2.66602 -13 -3.99902 -19h-352c4.66699 -34 17 -61.167 37 -81.5s48.667 -30.5 86 -30.5c22.667 0 41 2.33301 55 7s25 10 33 16
c9.33301 6.66699 16 14.334 20 23.001h118v-67c-10.667 -18.667 -26.334 -35.334 -47.001 -50.001c-18.667 -13.333 -42.334 -25 -71.001 -35s-65.667 -15 -111 -15zM402.001 309.003c0 24 -8.33301 45.167 -25 63.5s-42 27.5 -76 27.5c-33.333 0 -58.5 -8.5 -75.5 -25.5
s-28.5 -38.833 -34.5 -65.5h211zM133.001 690.003v60h143l77 -90v-60h-123z" />
    <glyph glyph-name="eacute" unicode="&#xe9;" horiz-adv-x="583" 
d="M308 -15c-45.333 0 -84.999 6.83594 -118.999 20.5029s-62.333 32.5 -85 56.5s-39.667 52.167 -51 84.5s-17 67.166 -17 104.499s5.83301 72.166 17.5 104.499s28.834 60.833 51.501 85.5s50.5 44 83.5 58s70.833 21 113.5 21s79.5 -6 110.5 -18s56.5 -28.667 76.5 -50
s34.667 -46.5 44 -75.5s14 -60.5 14 -94.5c0 -8.66699 -0.333008 -16.834 -1 -24.501s-1.33398 -14.5 -2.00098 -20.5c-1.33301 -6.66699 -2.66602 -13 -3.99902 -19h-352c4.66699 -34 17 -61.167 37 -81.5s48.667 -30.5 86 -30.5c22.667 0 41 2.33301 55 7s25 10 33 16
c9.33301 6.66699 16 14.334 20 23.001h118v-67c-10.667 -18.667 -26.334 -35.334 -47.001 -50.001c-18.667 -13.333 -42.334 -25 -71.001 -35s-65.667 -15 -111 -15zM402.001 309.003c0 24 -8.33301 45.167 -25 63.5s-42 27.5 -76 27.5c-33.333 0 -58.5 -8.5 -75.5 -25.5
s-28.5 -38.833 -34.5 -65.5h211zM233.001 660.003l77 90h144v-60l-98 -90h-123v60z" />
    <glyph glyph-name="ecircumflex" unicode="&#xea;" horiz-adv-x="583" 
d="M308 -15c-45.333 0 -84.999 6.83594 -118.999 20.5029s-62.333 32.5 -85 56.5s-39.667 52.167 -51 84.5s-17 67.166 -17 104.499s5.83301 72.166 17.5 104.499s28.834 60.833 51.501 85.5s50.5 44 83.5 58s70.833 21 113.5 21s79.5 -6 110.5 -18s56.5 -28.667 76.5 -50
s34.667 -46.5 44 -75.5s14 -60.5 14 -94.5c0 -8.66699 -0.333008 -16.834 -1 -24.501s-1.33398 -14.5 -2.00098 -20.5c-1.33301 -6.66699 -2.66602 -13 -3.99902 -19h-352c4.66699 -34 17 -61.167 37 -81.5s48.667 -30.5 86 -30.5c22.667 0 41 2.33301 55 7s25 10 33 16
c9.33301 6.66699 16 14.334 20 23.001h118v-67c-10.667 -18.667 -26.334 -35.334 -47.001 -50.001c-18.667 -13.333 -42.334 -25 -71.001 -35s-65.667 -15 -111 -15zM402.001 309.003c0 24 -8.33301 45.167 -25 63.5s-42 27.5 -76 27.5c-33.333 0 -58.5 -8.5 -75.5 -25.5
s-28.5 -38.833 -34.5 -65.5h211zM302.001 673.003l-61 -73h-106v60l92 90h150l92 -90v-60h-106z" />
    <glyph glyph-name="edieresis" unicode="&#xeb;" horiz-adv-x="583" 
d="M308 -15c-45.333 0 -84.999 6.83594 -118.999 20.5029s-62.333 32.5 -85 56.5s-39.667 52.167 -51 84.5s-17 67.166 -17 104.499s5.83301 72.166 17.5 104.499s28.834 60.833 51.501 85.5s50.5 44 83.5 58s70.833 21 113.5 21s79.5 -6 110.5 -18s56.5 -28.667 76.5 -50
s34.667 -46.5 44 -75.5s14 -60.5 14 -94.5c0 -8.66699 -0.333008 -16.834 -1 -24.501s-1.33398 -14.5 -2.00098 -20.5c-1.33301 -6.66699 -2.66602 -13 -3.99902 -19h-352c4.66699 -34 17 -61.167 37 -81.5s48.667 -30.5 86 -30.5c22.667 0 41 2.33301 55 7s25 10 33 16
c9.33301 6.66699 16 14.334 20 23.001h118v-67c-10.667 -18.667 -26.334 -35.334 -47.001 -50.001c-18.667 -13.333 -42.334 -25 -71.001 -35s-65.667 -15 -111 -15zM402.001 309.003c0 24 -8.33301 45.167 -25 63.5s-42 27.5 -76 27.5c-33.333 0 -58.5 -8.5 -75.5 -25.5
s-28.5 -38.833 -34.5 -65.5h211zM126.001 740.003h145v-140h-145v140zM331.001 740.003h146v-140h-146v140z" />
    <glyph glyph-name="igrave" unicode="&#xec;" horiz-adv-x="277" 
d="M63 505h150v-505h-150v505zM-8 690v60h143l77 -90v-60h-123z" />
    <glyph glyph-name="iacute" unicode="&#xed;" horiz-adv-x="277" 
d="M64 505h150v-505h-150v505zM64 660l77 90h144v-60l-98 -90h-123v60z" />
    <glyph glyph-name="icircumflex" unicode="&#xee;" horiz-adv-x="276" 
d="M63 505h150v-505h-150v505zM138 673l-61 -73h-106v60l92 90h150l92 -90v-60h-106z" />
    <glyph glyph-name="idieresis" unicode="&#xef;" horiz-adv-x="276" 
d="M63 505h150v-505h-150v505zM-38 740h145v-140h-145v140zM167 740h146v-140h-146v140z" />
    <glyph glyph-name="eth" unicode="&#xf0;" horiz-adv-x="613" 
d="M303 -15c-42 0 -79.668 6.66699 -113.001 20s-61.333 31.666 -84 54.999s-40 50.833 -52 82.5s-18 65.5 -18 101.5s5.5 69.667 16.5 101s26.833 58.5 47.5 81.5s45.834 41 75.501 54s62.834 19.5 99.501 19.5c50 0 90.333 -12 121 -36c-9.33301 20.667 -20.333 40 -33 58
s-27 35 -43 51l-155 -64v95l73 30c-36.667 22 -76.667 38 -120 48v68h114c23.333 -6 46.666 -14 69.999 -24s46.333 -22.333 69 -37l141 58v-95l-63 -27c36 -37.333 65 -82.666 87 -135.999s33 -117 33 -191c0 -100 -23 -177.167 -69 -231.5s-111.667 -81.5 -197 -81.5z
M302.999 116c20 0 37.166 3.49805 51.499 10.498s26.333 16.333 36 28s16.834 25.334 21.501 41.001s7 32.5 7 50.5c0 34.667 -9.33301 63.834 -28 87.501s-48 35.5 -88 35.5s-69.333 -11.833 -88 -35.5s-28 -53.5 -28 -89.5c0 -37.333 9.33301 -68 28 -92s48 -36 88 -36z
" />
    <glyph glyph-name="ntilde" unicode="&#xf1;" horiz-adv-x="603" 
d="M64 505l141.001 -0.000976562l7 -67c5.33301 9.33301 12.5 18.833 21.5 28.5s19.833 18.5 32.5 26.5s27 14.5 43 19.5s34 7.5 54 7.5c33.333 0 61.5 -5.5 84.5 -16.5s41.667 -26 56 -45s24.666 -41 30.999 -66s9.5 -51.167 9.5 -78.5v-314h-150v286
c0 30 -6.33301 54 -19 72s-34 27 -64 27c-18 0 -33.167 -3 -45.5 -9s-22.333 -13.667 -30 -23s-13 -20.166 -16 -32.499s-4.5 -24.5 -4.5 -36.5v-284h-151v505zM374.001 598.999c-16 0 -29.333 1.83301 -40 5.5s-20.334 7.66699 -29.001 12l-25 12
c-8 3.66699 -17.667 5.5 -29 5.5c-18 0 -29.667 -10 -35 -30h-95c-2.66699 40.667 5.33301 73.667 24 99s46 38 82 38c16 0 29.167 -1.83301 39.5 -5.5s19.5 -7.5 27.5 -11.5l23.5 -11.5c7.66699 -3.66699 16.834 -5.5 27.501 -5.5c7.33301 0 14.333 2 21 6s11 11.667 13 23
h95c2.66699 -40.667 -3.83301 -73.667 -19.5 -99s-42.5 -38 -80.5 -38z" />
    <glyph glyph-name="ograve" unicode="&#xf2;" horiz-adv-x="606" 
d="M303 -15c-42 0 -79.5 7 -112.5 21s-61 33.333 -84 58s-40.5 53.334 -52.5 86.001s-18 67.334 -18 104.001s6 71.167 18 103.5s29.5 60.5 52.5 84.5s51 43 84 57s70.5 21 112.5 21s79.5 -7 112.5 -21s61 -33 84 -57s40.5 -52.167 52.5 -84.5s18 -66.833 18 -103.5
s-6 -71.334 -18 -104.001s-29.5 -61.334 -52.5 -86.001s-51 -44 -84 -58s-70.5 -21 -112.5 -21zM303 116c20 0 37.167 3.66699 51.5 11s26.333 17.166 36 29.499s16.834 27 21.501 44s7 34.833 7 53.5s-2.33301 36.167 -7 52.5s-11.834 30.666 -21.501 42.999
s-21.667 22 -36 29s-31.5 10.5 -51.5 10.5s-37.167 -3.5 -51.5 -10.5s-26.333 -16.667 -36 -29s-16.834 -26.666 -21.501 -42.999s-7 -33.833 -7 -52.5s2.33301 -36.5 7 -53.5s11.834 -31.667 21.501 -44s21.667 -22.166 36 -29.499s31.5 -11 51.5 -11zM145 690v60h143
l77 -90v-60h-123z" />
    <glyph glyph-name="oacute" unicode="&#xf3;" horiz-adv-x="606" 
d="M231 660l77 90h144v-60l-98 -90h-123v60zM303 -15c-42 0 -79.5 7 -112.5 21s-61 33.333 -84 58s-40.5 53.334 -52.5 86.001s-18 67.334 -18 104.001s6 71.167 18 103.5s29.5 60.5 52.5 84.5s51 43 84 57s70.5 21 112.5 21s79.5 -7 112.5 -21s61 -33 84 -57
s40.5 -52.167 52.5 -84.5s18 -66.833 18 -103.5s-6 -71.334 -18 -104.001s-29.5 -61.334 -52.5 -86.001s-51 -44 -84 -58s-70.5 -21 -112.5 -21zM303 116c20 0 37.167 3.66699 51.5 11s26.333 17.166 36 29.499s16.834 27 21.501 44s7 34.833 7 53.5
s-2.33301 36.167 -7 52.5s-11.834 30.666 -21.501 42.999s-21.667 22 -36 29s-31.5 10.5 -51.5 10.5s-37.167 -3.5 -51.5 -10.5s-26.333 -16.667 -36 -29s-16.834 -26.666 -21.501 -42.999s-7 -33.833 -7 -52.5s2.33301 -36.5 7 -53.5s11.834 -31.667 21.501 -44
s21.667 -22.166 36 -29.499s31.5 -11 51.5 -11z" />
    <glyph glyph-name="ocircumflex" unicode="&#xf4;" horiz-adv-x="606" 
d="M297 673l-61 -73h-106v60l92 90h150l92 -90v-60h-106zM303 -15c-42 0 -79.5 7 -112.5 21s-61 33.333 -84 58s-40.5 53.334 -52.5 86.001s-18 67.334 -18 104.001s6 71.167 18 103.5s29.5 60.5 52.5 84.5s51 43 84 57s70.5 21 112.5 21s79.5 -7 112.5 -21s61 -33 84 -57
s40.5 -52.167 52.5 -84.5s18 -66.833 18 -103.5s-6 -71.334 -18 -104.001s-29.5 -61.334 -52.5 -86.001s-51 -44 -84 -58s-70.5 -21 -112.5 -21zM303 116c20 0 37.167 3.66699 51.5 11s26.333 17.166 36 29.499s16.834 27 21.501 44s7 34.833 7 53.5
s-2.33301 36.167 -7 52.5s-11.834 30.666 -21.501 42.999s-21.667 22 -36 29s-31.5 10.5 -51.5 10.5s-37.167 -3.5 -51.5 -10.5s-26.333 -16.667 -36 -29s-16.834 -26.666 -21.501 -42.999s-7 -33.833 -7 -52.5s2.33301 -36.5 7 -53.5s11.834 -31.667 21.501 -44
s21.667 -22.166 36 -29.499s31.5 -11 51.5 -11z" />
    <glyph glyph-name="otilde" unicode="&#xf5;" horiz-adv-x="606" 
d="M379 599c-16 0 -29.333 1.83301 -40 5.5s-20.334 7.66699 -29.001 12l-25 12c-8 3.66699 -17.667 5.5 -29 5.5c-18 0 -29.667 -10 -35 -30h-95c-2.66699 40.667 5.33301 73.667 24 99s46 38 82 38c16 0 29.167 -1.83301 39.5 -5.5s19.5 -7.5 27.5 -11.5l23.5 -11.5
c7.66699 -3.66699 16.834 -5.5 27.501 -5.5c7.33301 0 14.333 2 21 6s11 11.667 13 23h95c2.66699 -40.667 -3.83301 -73.667 -19.5 -99s-42.5 -38 -80.5 -38zM303 -15c-42 0 -79.5 7 -112.5 21s-61 33.333 -84 58s-40.5 53.334 -52.5 86.001s-18 67.334 -18 104.001
s6 71.167 18 103.5s29.5 60.5 52.5 84.5s51 43 84 57s70.5 21 112.5 21s79.5 -7 112.5 -21s61 -33 84 -57s40.5 -52.167 52.5 -84.5s18 -66.833 18 -103.5s-6 -71.334 -18 -104.001s-29.5 -61.334 -52.5 -86.001s-51 -44 -84 -58s-70.5 -21 -112.5 -21zM303 116
c20 0 37.167 3.66699 51.5 11s26.333 17.166 36 29.499s16.834 27 21.501 44s7 34.833 7 53.5s-2.33301 36.167 -7 52.5s-11.834 30.666 -21.501 42.999s-21.667 22 -36 29s-31.5 10.5 -51.5 10.5s-37.167 -3.5 -51.5 -10.5s-26.333 -16.667 -36 -29
s-16.834 -26.666 -21.501 -42.999s-7 -33.833 -7 -52.5s2.33301 -36.5 7 -53.5s11.834 -31.667 21.501 -44s21.667 -22.166 36 -29.499s31.5 -11 51.5 -11z" />
    <glyph glyph-name="odieresis" unicode="&#xf6;" horiz-adv-x="606" 
d="M129 740h145v-140h-145v140zM334 740h146v-140h-146v140zM303 -15c-42 0 -79.5 7 -112.5 21s-61 33.333 -84 58s-40.5 53.334 -52.5 86.001s-18 67.334 -18 104.001s6 71.167 18 103.5s29.5 60.5 52.5 84.5s51 43 84 57s70.5 21 112.5 21s79.5 -7 112.5 -21
s61 -33 84 -57s40.5 -52.167 52.5 -84.5s18 -66.833 18 -103.5s-6 -71.334 -18 -104.001s-29.5 -61.334 -52.5 -86.001s-51 -44 -84 -58s-70.5 -21 -112.5 -21zM303 116c20 0 37.167 3.66699 51.5 11s26.333 17.166 36 29.499s16.834 27 21.501 44s7 34.833 7 53.5
s-2.33301 36.167 -7 52.5s-11.834 30.666 -21.501 42.999s-21.667 22 -36 29s-31.5 10.5 -51.5 10.5s-37.167 -3.5 -51.5 -10.5s-26.333 -16.667 -36 -29s-16.834 -26.666 -21.501 -42.999s-7 -33.833 -7 -52.5s2.33301 -36.5 7 -53.5s11.834 -31.667 21.501 -44
s21.667 -22.166 36 -29.499s31.5 -11 51.5 -11z" />
    <glyph glyph-name="divide" unicode="&#xf7;" horiz-adv-x="577" 
d="M208 625h161v-161h-161v161zM41 391h495v-123h-495v123zM208 195h161v-161h-161v161z" />
    <glyph glyph-name="oslash" unicode="&#xf8;" horiz-adv-x="606" 
d="M303 -15c-40.667 0 -77.666 7.00098 -110.999 21.001l-44 -65h-110l77 114c-25.333 25.333 -44.833 54.833 -58.5 88.5s-20.5 70.5 -20.5 110.5c0 36.667 6 71.167 18 103.5s29.5 60.5 52.5 84.5s51 43 84 57s70.5 21 112.5 21s79.333 -7 112 -21l41 61h110l-74 -110
c25.333 -24.667 44.666 -53.667 57.999 -87s20 -69.666 20 -108.999c0 -36.667 -6 -71.334 -18 -104.001s-29.5 -61.334 -52.5 -86.001s-51 -44 -84 -58s-70.5 -21 -112.5 -21zM181.001 255.001c0 -14.667 0.999023 -28.333 2.99902 -41s6.33301 -24.667 13 -36l143 210
c-10.667 4 -23 6 -37 6c-20 0 -37.667 -3.66699 -53 -11s-28.166 -17.333 -38.499 -30s-18 -27.5 -23 -44.5s-7.5 -34.833 -7.5 -53.5zM303 108.002c20 0 37.667 3.83105 53 11.498s28 18.334 38 32.001s17.667 29.334 23 47.001s8 36.5 8 56.5c0 13.333 -1.33301 26 -4 38
s-6.66699 22.667 -12 32l-144 -211c11.333 -4 24 -6 38 -6z" />
    <glyph glyph-name="ugrave" unicode="&#xf9;" horiz-adv-x="599" 
d="M241 -15c-33.333 0 -61.6699 5.50098 -85.0029 16.501s-42.166 26 -56.499 45s-24.666 41 -30.999 66s-9.5 51.167 -9.5 78.5v314h151v-286c0 -30 6 -54 18 -72s32.667 -27 62 -27c18 0 33 3 45 9s21.667 13.667 29 23s12.5 20.166 15.5 32.499s4.5 24.5 4.5 36.5v284
h151v-505h-141l-7 67c-5.33301 -9.33301 -12.5 -18.833 -21.5 -28.5s-19.5 -18.5 -31.5 -26.5s-25.667 -14.5 -41 -19.5s-32.666 -7.5 -51.999 -7.5zM135.996 690.001v60h143l77 -90v-60h-123z" />
    <glyph glyph-name="uacute" unicode="&#xfa;" horiz-adv-x="599" 
d="M241 -15c-33.333 0 -61.6699 5.50098 -85.0029 16.501s-42.166 26 -56.499 45s-24.666 41 -30.999 66s-9.5 51.167 -9.5 78.5v314h151v-286c0 -30 6 -54 18 -72s32.667 -27 62 -27c18 0 33 3 45 9s21.667 13.667 29 23s12.5 20.166 15.5 32.499s4.5 24.5 4.5 36.5v284
h151v-505h-141l-7 67c-5.33301 -9.33301 -12.5 -18.833 -21.5 -28.5s-19.5 -18.5 -31.5 -26.5s-25.667 -14.5 -41 -19.5s-32.666 -7.5 -51.999 -7.5zM231.996 660.001l77 90h144v-60l-98 -90h-123v60z" />
    <glyph glyph-name="ucircumflex" unicode="&#xfb;" horiz-adv-x="599" 
d="M295 673l-61 -73h-106v60l92 90h150l92 -90v-60h-106zM241 -15c-33.333 0 -61.6699 5.50098 -85.0029 16.501s-42.166 26 -56.499 45s-24.666 41 -30.999 66s-9.5 51.167 -9.5 78.5v314h151v-286c0 -30 6 -54 18 -72s32.667 -27 62 -27c18 0 33 3 45 9
s21.667 13.667 29 23s12.5 20.166 15.5 32.499s4.5 24.5 4.5 36.5v284h151v-505h-141l-7 67c-5.33301 -9.33301 -12.5 -18.833 -21.5 -28.5s-19.5 -18.5 -31.5 -26.5s-25.667 -14.5 -41 -19.5s-32.666 -7.5 -51.999 -7.5z" />
    <glyph glyph-name="udieresis" unicode="&#xfc;" horiz-adv-x="599" 
d="M121 740h145v-140h-145v140zM326 740h146v-140h-146v140zM241 -15c-33.333 0 -61.6699 5.50098 -85.0029 16.501s-42.166 26 -56.499 45s-24.666 41 -30.999 66s-9.5 51.167 -9.5 78.5v314h151v-286c0 -30 6 -54 18 -72s32.667 -27 62 -27c18 0 33 3 45 9
s21.667 13.667 29 23s12.5 20.166 15.5 32.499s4.5 24.5 4.5 36.5v284h151v-505h-141l-7 67c-5.33301 -9.33301 -12.5 -18.833 -21.5 -28.5s-19.5 -18.5 -31.5 -26.5s-25.667 -14.5 -41 -19.5s-32.666 -7.5 -51.999 -7.5z" />
    <glyph glyph-name="yacute" unicode="&#xfd;" horiz-adv-x="556" 
d="M226 660l77 90h144v-60l-98 -90h-123v60zM76 -250v70l126 226l-182 389v70h136l129 -296l134 296h125v-67l-340 -688h-128z" />
    <glyph glyph-name="thorn" unicode="&#xfe;" horiz-adv-x="642" 
d="M64 750l151.001 -0.000976562l-2 -317c16.667 26.667 39.334 47.834 68.001 63.501s61.667 23.5 99 23.5c36 0 67.833 -7 95.5 -21s51.167 -33 70.5 -57s34 -52.167 44 -84.5s15 -66.833 15 -103.5c0 -38 -5.16699 -73.333 -15.5 -106s-25.333 -61 -45 -85
s-43.334 -43 -71.001 -57s-58.834 -21 -93.501 -21c-36.667 0 -69 7.33301 -97 22s-50.667 35 -68 61v-318h-151v1000zM334.001 120.999c40 0 70 12.667 90 38s30 57 30 95c0 36.667 -10 67.5 -30 92.5s-50 37.5 -90 37.5c-36 0 -64.833 -12.333 -86.5 -37
s-32.5 -55.667 -32.5 -93c0 -18.667 2.83301 -36.167 8.5 -52.5s13.667 -30.5 24 -42.5s22.833 -21.333 37.5 -28s31 -10 49 -10z" />
    <glyph glyph-name="ydieresis" unicode="&#xff;" horiz-adv-x="556" 
d="M110 740h145v-140h-145v140zM315 740h146v-140h-146v140zM76 -250v70l126 226l-182 389v70h136l129 -296l134 296h125v-67l-340 -688h-128z" />
    <glyph glyph-name="Amacron" unicode="&#x100;" horiz-adv-x="706" 
d="M13 0v70l255 680h169l254 -670v-80h-144l-58 159h-286l-57 -159h-133zM347 571l-98 -276h196zM199 915h306v-110h-306v110z" />
    <glyph glyph-name="amacron" unicode="&#x101;" horiz-adv-x="551" 
d="M197 -15c-28 0 -52.3281 4.16992 -72.9951 12.5029s-37.834 19.666 -51.501 33.999s-24 31 -31 50s-10.5 39.167 -10.5 60.5c0 48 17.667 86.167 53 114.5s90 42.5 164 42.5c13.333 0 25.666 -0.5 36.999 -1.5s21.333 -2.16699 30 -3.5c9.33301 -1.33301 18.333 -3 27 -5
v22c0 56 -27.667 84 -83 84c-16.667 0 -30.334 -2.33301 -41.001 -7s-19.334 -10 -26.001 -16c-8 -6.66699 -14.333 -14.334 -19 -23.001h-114v67c9.33301 19.333 23.333 36.666 42 51.999c16 14 36.833 26.167 62.5 36.5s58.5 15.5 98.5 15.5c154 0 231 -71.333 231 -214
v-306h-136l-10 64c-12.667 -20.667 -30.834 -39 -54.501 -55s-55.5 -24 -95.5 -24zM246.005 101.003c16 0 29.999 2.66699 41.999 8s22 12 30 20s14 16.833 18 26.5s6 18.834 6 27.501v22c-7.33301 1.33301 -15.333 2.66602 -24 3.99902c-8 1.33301 -17 2.33301 -27 3
s-21 1 -33 1c-30 0 -50.5 -5.5 -61.5 -16.5s-16.5 -24.5 -16.5 -40.5c0 -19.333 5.83301 -33.333 17.5 -42s27.834 -13 48.501 -13zM142.004 726.003h286v-116h-286v116z" />
    <glyph glyph-name="Abreve" unicode="&#x102;" horiz-adv-x="706" 
d="M13 0v70l255 680h169l254 -670v-80h-144l-58 159h-286l-57 -159h-133zM347 571l-98 -276h196zM351 790c-32.667 0 -58.8311 3.50098 -78.498 10.501s-35.167 14.833 -46.5 23.5c-12.667 10 -22 21.333 -28 34v75h80c2.66699 -8 7.33398 -15 14.001 -21
c5.33301 -6 12.666 -11 21.999 -15s21.666 -6 36.999 -6s27.666 2.16699 36.999 6.5s16.333 9.16602 21 14.499c5.33301 6 9 13 11 21h80v-75c-5.33301 -12.667 -14.333 -24 -27 -34c-11.333 -9.33301 -26.5 -17.333 -45.5 -24s-44.5 -10 -76.5 -10z" />
    <glyph glyph-name="abreve" unicode="&#x103;" horiz-adv-x="551" 
d="M197 -15c-28 0 -52.3281 4.16992 -72.9951 12.5029s-37.834 19.666 -51.501 33.999s-24 31 -31 50s-10.5 39.167 -10.5 60.5c0 48 17.667 86.167 53 114.5s90 42.5 164 42.5c13.333 0 25.666 -0.5 36.999 -1.5s21.333 -2.16699 30 -3.5c9.33301 -1.33301 18.333 -3 27 -5
v22c0 56 -27.667 84 -83 84c-16.667 0 -30.334 -2.33301 -41.001 -7s-19.334 -10 -26.001 -16c-8 -6.66699 -14.333 -14.334 -19 -23.001h-114v67c9.33301 19.333 23.333 36.666 42 51.999c16 14 36.833 26.167 62.5 36.5s58.5 15.5 98.5 15.5c154 0 231 -71.333 231 -214
v-306h-136l-10 64c-12.667 -20.667 -30.834 -39 -54.501 -55s-55.5 -24 -95.5 -24zM246.005 101.003c16 0 29.999 2.66699 41.999 8s22 12 30 20s14 16.833 18 26.5s6 18.834 6 27.501v22c-7.33301 1.33301 -15.333 2.66602 -24 3.99902c-8 1.33301 -17 2.33301 -27 3
s-21 1 -33 1c-30 0 -50.5 -5.5 -61.5 -16.5s-16.5 -24.5 -16.5 -40.5c0 -19.333 5.83301 -33.333 17.5 -42s27.834 -13 48.501 -13zM271.004 588.003c-30.667 0 -55.8311 3.66895 -75.498 11.002s-35.5 15.666 -47.5 24.999c-13.333 10.667 -23.333 22.667 -30 36v75h80
c4 -8 9.33301 -15 16 -21c5.33301 -6 12.666 -11 21.999 -15s21 -6 35 -6c14.667 0 26.334 2.16699 35.001 6.5s15.667 9.16602 21 14.499c6 6 10.333 13 13 21h80v-75c-6.66699 -13.333 -16.334 -25.333 -29.001 -36c-12 -10 -27.333 -18.5 -46 -25.5
s-43.334 -10.5 -74.001 -10.5z" />
    <glyph glyph-name="Aogonek" unicode="&#x104;" horiz-adv-x="706" 
d="M501 -91c0 23.333 7.66699 43.332 23 59.999s35.666 27 60.999 31h-38l-58 159h-286l-57 -159h-133v70l255 680h169l254 -670v-80c-6 -1.33301 -12.5 -3 -19.5 -5s-13.167 -5 -18.5 -9s-9.83301 -9.16699 -13.5 -15.5s-5.5 -14.5 -5.5 -24.5c0 -12 2.66699 -21.5 8 -28.5
s11.833 -12.333 19.5 -16s15.667 -6 24 -7s15.5 -1.5 21.5 -1.5v-85h-80c-12.667 0.666992 -26.5 2.66699 -41.5 6s-28.667 8.83301 -41 16.5s-22.666 17.834 -30.999 30.501s-12.5 28.667 -12.5 48zM347 570.999l-98 -276h196z" />
    <glyph glyph-name="aogonek" unicode="&#x105;" horiz-adv-x="551" 
d="M303 -91c0 23.333 7.67188 43.335 23.0049 60.002s35.666 27 60.999 31h-30l-10 64c-12.667 -20.667 -30.834 -39 -54.501 -55s-55.5 -24 -95.5 -24c-28 0 -52.333 4.16699 -73 12.5s-37.834 19.666 -51.501 33.999s-24 31 -31 50s-10.5 39.167 -10.5 60.5
c0 48 17.667 86.167 53 114.5s90 42.5 164 42.5c13.333 0 25.666 -0.5 36.999 -1.5s21.333 -2.16699 30 -3.5c9.33301 -1.33301 18.333 -3 27 -5v22c0 56 -27.667 84 -83 84c-16.667 0 -30.334 -2.33301 -41.001 -7s-19.334 -10 -26.001 -16
c-8 -6.66699 -14.333 -14.334 -19 -23.001h-114v67c9.33301 19.333 23.333 36.666 42 51.999c16 14 36.833 26.167 62.5 36.5s58.5 15.5 98.5 15.5c154 0 231 -71.333 231 -214v-306c-6 -1.33301 -12.5 -3 -19.5 -5s-13.167 -5 -18.5 -9s-9.83301 -9.16699 -13.5 -15.5
s-5.5 -14.5 -5.5 -24.5c0 -12 2.66699 -21.5 8 -28.5s11.833 -12.333 19.5 -16s15.667 -6 24 -7s15.5 -1.5 21.5 -1.5v-85h-80c-12.667 0.666992 -26.5 2.66699 -41.5 6s-28.667 8.83301 -41 16.5s-22.666 17.834 -30.999 30.501s-12.5 28.667 -12.5 48zM246.005 101.002
c16 0 29.999 2.66699 41.999 8s22 12 30 20s14 16.833 18 26.5s6 18.834 6 27.501v22c-7.33301 1.33301 -15.333 2.66602 -24 3.99902c-8 1.33301 -17 2.33301 -27 3s-21 1 -33 1c-30 0 -50.5 -5.5 -61.5 -16.5s-16.5 -24.5 -16.5 -40.5c0 -19.333 5.83301 -33.333 17.5 -42
s27.834 -13 48.501 -13z" />
    <glyph glyph-name="Cacute" unicode="&#x106;" horiz-adv-x="729" 
d="M409 -15c-57.333 0 -108.667 9.50391 -154 28.5039s-83.833 45.667 -115.5 80s-55.834 75.5 -72.501 123.5s-25 100.667 -25 158c0 58.667 8.83301 112 26.5 160s42.5 89 74.5 123s70.5 60.333 115.5 79s95.167 28 150.5 28c50 0 92.333 -5.83301 127 -17.5
s63.334 -25.667 86.001 -42s39.667 -33.5 51 -51.5s18.333 -33 21 -45v-76h-131c-1.33301 7.33301 -5 16.166 -11 26.499s-15 20.333 -27 30s-27.167 17.834 -45.5 24.501s-41.166 10 -68.499 10c-62.667 0 -112.167 -22 -148.5 -66s-54.5 -104.667 -54.5 -182
c0 -38 4.83301 -72.333 14.5 -103s23.167 -56.834 40.5 -78.501s38.666 -38.334 63.999 -50.001s53.333 -17.5 84 -17.5c26.667 0 49.5 3.66699 68.5 11s34.667 16 47 26s21.833 20.333 28.5 31s11 19.667 13 27h131v-76c-4 -14.667 -12.667 -31.334 -26 -50.001
s-31.833 -36.334 -55.5 -53.001s-52.667 -30.5 -87 -41.5s-74.833 -16.5 -121.5 -16.5zM340.999 865.004l72 80h156v-60l-92 -80h-136v60z" />
    <glyph glyph-name="cacute" unicode="&#x107;" horiz-adv-x="545" 
d="M300 -15c-44 0 -82.501 7.00098 -115.501 21.001s-60.5 33 -82.5 57s-38.5 52.167 -49.5 84.5s-16.5 66.833 -16.5 103.5c0 37.333 6 72.333 18 105s29.333 61.167 52 85.5s50.334 43.666 83.001 57.999s69.667 21.5 111 21.5c43.333 0 78.333 -6.16699 105 -18.5
s47.667 -25.833 63 -40.5c17.333 -17.333 30.333 -37 39 -59v-67h-113c-3.33301 10 -9 19 -17 27c-7.33301 7.33301 -17 13.666 -29 18.999s-28 8 -48 8c-19.333 0 -36 -3.66699 -50 -11s-25.667 -17.333 -35 -30s-16.333 -27.334 -21 -44.001s-7 -34.667 -7 -54
c0 -18.667 2.33301 -36.167 7 -52.5s11.667 -30.666 21 -42.999s21 -22 35 -29s30.667 -10.5 50 -10.5c20.667 0 37.334 2.83301 50.001 8.5s22.334 11.834 29.001 18.501c7.33301 8 12.666 17 15.999 27h113v-67c-8.66699 -22 -22.334 -41.667 -41.001 -59
c-16 -16 -37.167 -29.833 -63.5 -41.5s-60.833 -17.5 -103.5 -17.5zM224.999 660.001l77 90h144v-60l-98 -90h-123v60z" />
    <glyph glyph-name="Ccircumflex" unicode="&#x108;" horiz-adv-x="729" 
d="M409 -15c-57.333 0 -108.667 9.50391 -154 28.5039s-83.833 45.667 -115.5 80s-55.834 75.5 -72.501 123.5s-25 100.667 -25 158c0 58.667 8.83301 112 26.5 160s42.5 89 74.5 123s70.5 60.333 115.5 79s95.167 28 150.5 28c50 0 92.333 -5.83301 127 -17.5
s63.334 -25.667 86.001 -42s39.667 -33.5 51 -51.5s18.333 -33 21 -45v-76h-131c-1.33301 7.33301 -5 16.166 -11 26.499s-15 20.333 -27 30s-27.167 17.834 -45.5 24.501s-41.166 10 -68.499 10c-62.667 0 -112.167 -22 -148.5 -66s-54.5 -104.667 -54.5 -182
c0 -38 4.83301 -72.333 14.5 -103s23.167 -56.834 40.5 -78.501s38.666 -38.334 63.999 -50.001s53.333 -17.5 84 -17.5c26.667 0 49.5 3.66699 68.5 11s34.667 16 47 26s21.833 20.333 28.5 31s11 19.667 13 27h131v-76c-4 -14.667 -12.667 -31.334 -26 -50.001
s-31.833 -36.334 -55.5 -53.001s-52.667 -30.5 -87 -41.5s-74.833 -16.5 -121.5 -16.5zM404.999 858.004l-56 -58h-116v60l92 80h160l92 -80v-60h-116z" />
    <glyph glyph-name="ccircumflex" unicode="&#x109;" horiz-adv-x="545" 
d="M300 -15c-44 0 -82.501 7.00098 -115.501 21.001s-60.5 33 -82.5 57s-38.5 52.167 -49.5 84.5s-16.5 66.833 -16.5 103.5c0 37.333 6 72.333 18 105s29.333 61.167 52 85.5s50.334 43.666 83.001 57.999s69.667 21.5 111 21.5c43.333 0 78.333 -6.16699 105 -18.5
s47.667 -25.833 63 -40.5c17.333 -17.333 30.333 -37 39 -59v-67h-113c-3.33301 10 -9 19 -17 27c-7.33301 7.33301 -17 13.666 -29 18.999s-28 8 -48 8c-19.333 0 -36 -3.66699 -50 -11s-25.667 -17.333 -35 -30s-16.333 -27.334 -21 -44.001s-7 -34.667 -7 -54
c0 -18.667 2.33301 -36.167 7 -52.5s11.667 -30.666 21 -42.999s21 -22 35 -29s30.667 -10.5 50 -10.5c20.667 0 37.334 2.83301 50.001 8.5s22.334 11.834 29.001 18.501c7.33301 8 12.666 17 15.999 27h113v-67c-8.66699 -22 -22.334 -41.667 -41.001 -59
c-16 -16 -37.167 -29.833 -63.5 -41.5s-60.833 -17.5 -103.5 -17.5zM293.999 673.001l-61 -73h-106v60l92 90h150l92 -90v-60h-106z" />
    <glyph glyph-name="Cdotaccent" unicode="&#x10a;" horiz-adv-x="729" 
d="M409 -15c-57.333 0 -108.667 9.50391 -154 28.5039s-83.833 45.667 -115.5 80s-55.834 75.5 -72.501 123.5s-25 100.667 -25 158c0 58.667 8.83301 112 26.5 160s42.5 89 74.5 123s70.5 60.333 115.5 79s95.167 28 150.5 28c50 0 92.333 -5.83301 127 -17.5
s63.334 -25.667 86.001 -42s39.667 -33.5 51 -51.5s18.333 -33 21 -45v-76h-131c-1.33301 7.33301 -5 16.166 -11 26.499s-15 20.333 -27 30s-27.167 17.834 -45.5 24.501s-41.166 10 -68.499 10c-62.667 0 -112.167 -22 -148.5 -66s-54.5 -104.667 -54.5 -182
c0 -38 4.83301 -72.333 14.5 -103s23.167 -56.834 40.5 -78.501s38.666 -38.334 63.999 -50.001s53.333 -17.5 84 -17.5c26.667 0 49.5 3.66699 68.5 11s34.667 16 47 26s21.833 20.333 28.5 31s11 19.667 13 27h131v-76c-4 -14.667 -12.667 -31.334 -26 -50.001
s-31.833 -36.334 -55.5 -53.001s-52.667 -30.5 -87 -41.5s-74.833 -16.5 -121.5 -16.5zM323.999 945.004h166v-135h-166v135z" />
    <glyph glyph-name="cdotaccent" unicode="&#x10b;" horiz-adv-x="545" 
d="M300 -15c-44 0 -82.501 7.00098 -115.501 21.001s-60.5 33 -82.5 57s-38.5 52.167 -49.5 84.5s-16.5 66.833 -16.5 103.5c0 37.333 6 72.333 18 105s29.333 61.167 52 85.5s50.334 43.666 83.001 57.999s69.667 21.5 111 21.5c43.333 0 78.333 -6.16699 105 -18.5
s47.667 -25.833 63 -40.5c17.333 -17.333 30.333 -37 39 -59v-67h-113c-3.33301 10 -9 19 -17 27c-7.33301 7.33301 -17 13.666 -29 18.999s-28 8 -48 8c-19.333 0 -36 -3.66699 -50 -11s-25.667 -17.333 -35 -30s-16.333 -27.334 -21 -44.001s-7 -34.667 -7 -54
c0 -18.667 2.33301 -36.167 7 -52.5s11.667 -30.666 21 -42.999s21 -22 35 -29s30.667 -10.5 50 -10.5c20.667 0 37.334 2.83301 50.001 8.5s22.334 11.834 29.001 18.501c7.33301 8 12.666 17 15.999 27h113v-67c-8.66699 -22 -22.334 -41.667 -41.001 -59
c-16 -16 -37.167 -29.833 -63.5 -41.5s-60.833 -17.5 -103.5 -17.5zM213.999 740.001h156v-140h-156v140z" />
    <glyph glyph-name="Ccaron" unicode="&#x10c;" horiz-adv-x="729" 
d="M409 -15c-57.333 0 -108.667 9.50391 -154 28.5039s-83.833 45.667 -115.5 80s-55.834 75.5 -72.501 123.5s-25 100.667 -25 158c0 58.667 8.83301 112 26.5 160s42.5 89 74.5 123s70.5 60.333 115.5 79s95.167 28 150.5 28c50 0 92.333 -5.83301 127 -17.5
s63.334 -25.667 86.001 -42s39.667 -33.5 51 -51.5s18.333 -33 21 -45v-76h-131c-1.33301 7.33301 -5 16.166 -11 26.499s-15 20.333 -27 30s-27.167 17.834 -45.5 24.501s-41.166 10 -68.499 10c-62.667 0 -112.167 -22 -148.5 -66s-54.5 -104.667 -54.5 -182
c0 -38 4.83301 -72.333 14.5 -103s23.167 -56.834 40.5 -78.501s38.666 -38.334 63.999 -50.001s53.333 -17.5 84 -17.5c26.667 0 49.5 3.66699 68.5 11s34.667 16 47 26s21.833 20.333 28.5 31s11 19.667 13 27h131v-76c-4 -14.667 -12.667 -31.334 -26 -50.001
s-31.833 -36.334 -55.5 -53.001s-52.667 -30.5 -87 -41.5s-74.833 -16.5 -121.5 -16.5zM323.999 800.004l-94 80v60h116l58 -58l54 58h116v-60l-90 -80h-160z" />
    <glyph glyph-name="ccaron" unicode="&#x10d;" horiz-adv-x="545" 
d="M300 -15c-44 0 -82.501 7.00098 -115.501 21.001s-60.5 33 -82.5 57s-38.5 52.167 -49.5 84.5s-16.5 66.833 -16.5 103.5c0 37.333 6 72.333 18 105s29.333 61.167 52 85.5s50.334 43.666 83.001 57.999s69.667 21.5 111 21.5c43.333 0 78.333 -6.16699 105 -18.5
s47.667 -25.833 63 -40.5c17.333 -17.333 30.333 -37 39 -59v-67h-113c-3.33301 10 -9 19 -17 27c-7.33301 7.33301 -17 13.666 -29 18.999s-28 8 -48 8c-19.333 0 -36 -3.66699 -50 -11s-25.667 -17.333 -35 -30s-16.333 -27.334 -21 -44.001s-7 -34.667 -7 -54
c0 -18.667 2.33301 -36.167 7 -52.5s11.667 -30.666 21 -42.999s21 -22 35 -29s30.667 -10.5 50 -10.5c20.667 0 37.334 2.83301 50.001 8.5s22.334 11.834 29.001 18.501c7.33301 8 12.666 17 15.999 27h113v-67c-8.66699 -22 -22.334 -41.667 -41.001 -59
c-16 -16 -37.167 -29.833 -63.5 -41.5s-60.833 -17.5 -103.5 -17.5zM216.999 600.001l-94 90v60h106l63 -73l59 73h106v-60l-90 -90h-150z" />
    <glyph glyph-name="Dcaron" unicode="&#x10e;" horiz-adv-x="760" 
d="M82 750l263 0.000976562c58 0 110 -9.83301 156 -29.5s85.167 -46.334 117.5 -80.001s57.166 -73 74.499 -118s26 -93.167 26 -144.5c0 -52 -8.66699 -101 -26 -147s-42.166 -86 -74.499 -120s-71.5 -61 -117.5 -81s-98 -30 -156 -30h-263v750zM342 141.001
c32.667 0 61.834 6.16504 87.501 18.498s47.167 29.333 64.5 51s30.666 46.834 39.999 75.501s14 59.334 14 92.001c0 32 -4.66699 62 -14 90s-22.666 52.5 -39.999 73.5s-38.833 37.5 -64.5 49.5s-54.834 18 -87.501 18h-94v-468h94zM268 799.999l-94 80v60h116l58 -58
l54 58h116v-60l-90 -80h-160z" />
    <glyph glyph-name="dcaron" unicode="&#x10f;" horiz-adv-x="653" 
d="M262 -15c-35.333 0 -66.999 7.00195 -94.999 21.002s-51.667 33.167 -71 57.5s-34 52.666 -44 84.999s-15 66.833 -15 103.5c0 38 5.33301 73.333 16 106s26 61 46 85s44 42.833 72 56.5s59.333 20.5 94 20.5c36.667 0 68.5 -7.33301 95.5 -22s49.5 -35 67.5 -61v313h150
v-750h-140l-9 72c-16.667 -26.667 -39.334 -47.834 -68.001 -63.501s-61.667 -23.5 -99 -23.5zM308.001 121.002c36 0 65 12.498 87 37.498s33 56.5 33 94.5c0 18.667 -2.83301 36 -8.5 52s-13.834 29.833 -24.501 41.5s-23.334 20.834 -38.001 27.501s-31 10 -49 10
c-39.333 0 -69.166 -12.667 -89.499 -38s-30.5 -56.666 -30.5 -93.999c0 -36.667 10.333 -67.667 31 -93s50.334 -38 89.001 -38zM623.001 750h146v-90l-45 -101h-96z" />
    <glyph glyph-name="Dcroat" unicode="&#x110;" horiz-adv-x="773" 
d="M732 378c0 -52 -8.66699 -100.999 -26 -146.999s-42.166 -86 -74.499 -120s-71.5 -61 -117.5 -81s-98 -30 -156 -30h-263v315h-80v126h80v309h263c58 0 110 -9.83301 156 -29.5s85.167 -46.334 117.5 -80.001s57.166 -73 74.499 -118s26 -93.167 26 -144.5zM355 141.001
c32.667 0 61.834 6.16504 87.501 18.498s47.167 29.333 64.5 51s30.666 46.834 39.999 75.501s14 59.334 14 92.001c0 32 -4.66699 62 -14 90s-22.666 52.5 -39.999 73.5s-38.833 37.5 -64.5 49.5s-54.834 18 -87.501 18h-94v-168h89v-126h-89v-174h94z" />
    <glyph glyph-name="dcroat" unicode="&#x111;" horiz-adv-x="641" 
d="M429 72c-16.667 -26.667 -39.333 -47.832 -68 -63.499s-61.667 -23.5 -99 -23.5c-35.333 0 -67 7 -95 21s-51.667 33.167 -71 57.5s-34 52.666 -44 84.999s-15 66.833 -15 103.5c0 38 5.33301 73.333 16 106s26 61 46 85s44 42.833 72 56.5s59.333 20.5 94 20.5
c36.667 0 68.5 -7.33301 95.5 -22s49.5 -35 67.5 -61v133h-131v108h131v72h150v-72h73v-108h-73v-570h-140zM308.001 121.002c36 0 65 12.498 87 37.498s33 56.5 33 94.5c0 18.667 -2.83301 36 -8.5 52s-13.834 29.833 -24.501 41.5s-23.334 20.834 -38.001 27.501
s-31 10 -49 10c-39.333 0 -69.166 -12.667 -89.499 -38s-30.5 -56.666 -30.5 -93.999c0 -36.667 10.333 -67.667 31 -93s50.334 -38 89.001 -38z" />
    <glyph glyph-name="Emacron" unicode="&#x112;" horiz-adv-x="603" 
d="M82 750h471v-141h-305v-159h270v-130h-270v-179h305v-141h-471v750zM168 915h306v-110h-306v110z" />
    <glyph glyph-name="emacron" unicode="&#x113;" horiz-adv-x="583" 
d="M308 -15c-45.333 0 -84.999 6.83594 -118.999 20.5029s-62.333 32.5 -85 56.5s-39.667 52.167 -51 84.5s-17 67.166 -17 104.499s5.83301 72.166 17.5 104.499s28.834 60.833 51.501 85.5s50.5 44 83.5 58s70.833 21 113.5 21s79.5 -6 110.5 -18s56.5 -28.667 76.5 -50
s34.667 -46.5 44 -75.5s14 -60.5 14 -94.5c0 -8.66699 -0.333008 -16.834 -1 -24.501s-1.33398 -14.5 -2.00098 -20.5c-1.33301 -6.66699 -2.66602 -13 -3.99902 -19h-352c4.66699 -34 17 -61.167 37 -81.5s48.667 -30.5 86 -30.5c22.667 0 41 2.33301 55 7s25 10 33 16
c9.33301 6.66699 16 14.334 20 23.001h118v-67c-10.667 -18.667 -26.334 -35.334 -47.001 -50.001c-18.667 -13.333 -42.334 -25 -71.001 -35s-65.667 -15 -111 -15zM402.001 309.003c0 24 -8.33301 45.167 -25 63.5s-42 27.5 -76 27.5c-33.333 0 -58.5 -8.5 -75.5 -25.5
s-28.5 -38.833 -34.5 -65.5h211zM157.001 726.003h286v-116h-286v116z" />
    <glyph glyph-name="Ebreve" unicode="&#x114;" horiz-adv-x="603" 
d="M82 750h471v-141h-305v-159h270v-130h-270v-179h305v-141h-471v750zM319 790c-32.667 0 -58.8311 3.50098 -78.498 10.501s-35.167 14.833 -46.5 23.5c-12.667 10 -22 21.333 -28 34v75h80c2.66699 -8 7.33398 -15 14.001 -21c5.33301 -6 12.666 -11 21.999 -15
s21.666 -6 36.999 -6s27.666 2.16699 36.999 6.5s16.333 9.16602 21 14.499c5.33301 6 9 13 11 21h80v-75c-5.33301 -12.667 -14.333 -24 -27 -34c-11.333 -9.33301 -26.5 -17.333 -45.5 -24s-44.5 -10 -76.5 -10z" />
    <glyph glyph-name="ebreve" unicode="&#x115;" horiz-adv-x="583" 
d="M308 -15c-45.333 0 -84.999 6.83594 -118.999 20.5029s-62.333 32.5 -85 56.5s-39.667 52.167 -51 84.5s-17 67.166 -17 104.499s5.83301 72.166 17.5 104.499s28.834 60.833 51.501 85.5s50.5 44 83.5 58s70.833 21 113.5 21s79.5 -6 110.5 -18s56.5 -28.667 76.5 -50
s34.667 -46.5 44 -75.5s14 -60.5 14 -94.5c0 -8.66699 -0.333008 -16.834 -1 -24.501s-1.33398 -14.5 -2.00098 -20.5c-1.33301 -6.66699 -2.66602 -13 -3.99902 -19h-352c4.66699 -34 17 -61.167 37 -81.5s48.667 -30.5 86 -30.5c22.667 0 41 2.33301 55 7s25 10 33 16
c9.33301 6.66699 16 14.334 20 23.001h118v-67c-10.667 -18.667 -26.334 -35.334 -47.001 -50.001c-18.667 -13.333 -42.334 -25 -71.001 -35s-65.667 -15 -111 -15zM402.001 309.003c0 24 -8.33301 45.167 -25 63.5s-42 27.5 -76 27.5c-33.333 0 -58.5 -8.5 -75.5 -25.5
s-28.5 -38.833 -34.5 -65.5h211zM302.001 588.003c-30.667 0 -55.8311 3.66895 -75.498 11.002s-35.5 15.666 -47.5 24.999c-13.333 10.667 -23.333 22.667 -30 36v75h80c4 -8 9.33301 -15 16 -21c5.33301 -6 12.666 -11 21.999 -15s21 -6 35 -6
c14.667 0 26.334 2.16699 35.001 6.5s15.667 9.16602 21 14.499c6 6 10.333 13 13 21h80v-75c-6.66699 -13.333 -16.334 -25.333 -29.001 -36c-12 -10 -27.333 -18.5 -46 -25.5s-43.334 -10.5 -74.001 -10.5z" />
    <glyph glyph-name="Edotaccent" unicode="&#x116;" horiz-adv-x="603" 
d="M82 750h471v-141h-305v-159h270v-130h-270v-179h305v-141h-471v750zM240 935h166v-135h-166v135z" />
    <glyph glyph-name="edotaccent" unicode="&#x117;" horiz-adv-x="583" 
d="M308 -15c-45.333 0 -84.999 6.83594 -118.999 20.5029s-62.333 32.5 -85 56.5s-39.667 52.167 -51 84.5s-17 67.166 -17 104.499s5.83301 72.166 17.5 104.499s28.834 60.833 51.501 85.5s50.5 44 83.5 58s70.833 21 113.5 21s79.5 -6 110.5 -18s56.5 -28.667 76.5 -50
s34.667 -46.5 44 -75.5s14 -60.5 14 -94.5c0 -8.66699 -0.333008 -16.834 -1 -24.501s-1.33398 -14.5 -2.00098 -20.5c-1.33301 -6.66699 -2.66602 -13 -3.99902 -19h-352c4.66699 -34 17 -61.167 37 -81.5s48.667 -30.5 86 -30.5c22.667 0 41 2.33301 55 7s25 10 33 16
c9.33301 6.66699 16 14.334 20 23.001h118v-67c-10.667 -18.667 -26.334 -35.334 -47.001 -50.001c-18.667 -13.333 -42.334 -25 -71.001 -35s-65.667 -15 -111 -15zM402.001 309.003c0 24 -8.33301 45.167 -25 63.5s-42 27.5 -76 27.5c-33.333 0 -58.5 -8.5 -75.5 -25.5
s-28.5 -38.833 -34.5 -65.5h211zM223.001 740.003h156v-140h-156v140z" />
    <glyph glyph-name="Eogonek" unicode="&#x118;" horiz-adv-x="603" 
d="M364 -91c0 23.333 7.66699 43.332 23 59.999s35.666 27 60.999 31h-366v750h471v-141h-305v-159h270v-130h-270v-179h305v-141h1c-6 -1.33301 -12.5 -3 -19.5 -5s-13.167 -5 -18.5 -9s-9.83301 -9.16699 -13.5 -15.5s-5.5 -14.5 -5.5 -24.5c0 -12 2.66699 -21.5 8 -28.5
s11.833 -12.333 19.5 -16s15.667 -6 24 -7s15.5 -1.5 21.5 -1.5v-85h-80c-12.667 0.666992 -26.5 2.66699 -41.5 6s-28.667 8.83301 -41 16.5s-22.666 17.834 -30.999 30.501s-12.5 28.667 -12.5 48z" />
    <glyph glyph-name="eogonek" unicode="&#x119;" horiz-adv-x="583" 
d="M518 -192l-80.0029 0.00292969c-13.333 0.666992 -27.333 2.66699 -42 6s-28.334 8.83301 -41.001 16.5s-23 17.834 -31 30.501s-12 28.667 -12 48c0 33.333 16.667 59.666 50 78.999c-16.667 -2 -34.667 -3 -54 -3c-45.333 0 -85 6.83301 -119 20.5
s-62.333 32.5 -85 56.5s-39.667 52.167 -51 84.5s-17 67.166 -17 104.499s5.83301 72.166 17.5 104.499s28.834 60.833 51.501 85.5s50.5 44 83.5 58s70.833 21 113.5 21s79.5 -6 110.5 -18s56.5 -28.667 76.5 -50s34.667 -46.5 44 -75.5s14 -60.5 14 -94.5
c0 -8.66699 -0.333008 -16.834 -1 -24.501s-1.33398 -14.5 -2.00098 -20.5c-1.33301 -6.66699 -2.66602 -13 -3.99902 -19h-352c4.66699 -34 17 -61.167 37 -81.5s48.667 -30.5 86 -30.5c22.667 0 41 2.33301 55 7s25 10 33 16c9.33301 6.66699 16 14.334 20 23.001h118v-67
c-2.66699 -4.66699 -5.66699 -9.33398 -9 -14.001s-7.66602 -9.5 -12.999 -14.5s-11.666 -10.5 -18.999 -16.5c-15.333 -14.667 -27.666 -30.167 -36.999 -46.5s-14 -34.833 -14 -55.5c0 -11.333 2.66699 -20.5 8 -27.5s11.833 -12.5 19.5 -16.5s15.667 -6.83301 24 -8.5
s15.5 -2.5 21.5 -2.5v-75zM401.997 309.003c0 24 -8.33301 45.167 -25 63.5s-42 27.5 -76 27.5c-33.333 0 -58.5 -8.5 -75.5 -25.5s-28.5 -38.833 -34.5 -65.5h211z" />
    <glyph glyph-name="Ecaron" unicode="&#x11a;" horiz-adv-x="603" 
d="M82 750h471v-141h-305v-159h270v-130h-270v-179h305v-141h-471v750zM246 800l-94 80v60h116l58 -58l54 58h116v-60l-90 -80h-160z" />
    <glyph glyph-name="ecaron" unicode="&#x11b;" horiz-adv-x="583" 
d="M226 600l-94 90v60h106l63 -73l59 73h106v-60l-90 -90h-150zM308 -15c-45.333 0 -84.999 6.83594 -118.999 20.5029s-62.333 32.5 -85 56.5s-39.667 52.167 -51 84.5s-17 67.166 -17 104.499s5.83301 72.166 17.5 104.499s28.834 60.833 51.501 85.5s50.5 44 83.5 58
s70.833 21 113.5 21s79.5 -6 110.5 -18s56.5 -28.667 76.5 -50s34.667 -46.5 44 -75.5s14 -60.5 14 -94.5c0 -8.66699 -0.333008 -16.834 -1 -24.501s-1.33398 -14.5 -2.00098 -20.5c-1.33301 -6.66699 -2.66602 -13 -3.99902 -19h-352c4.66699 -34 17 -61.167 37 -81.5
s48.667 -30.5 86 -30.5c22.667 0 41 2.33301 55 7s25 10 33 16c9.33301 6.66699 16 14.334 20 23.001h118v-67c-10.667 -18.667 -26.334 -35.334 -47.001 -50.001c-18.667 -13.333 -42.334 -25 -71.001 -35s-65.667 -15 -111 -15zM402.001 309.003
c0 24 -8.33301 45.167 -25 63.5s-42 27.5 -76 27.5c-33.333 0 -58.5 -8.5 -75.5 -25.5s-28.5 -38.833 -34.5 -65.5h211z" />
    <glyph glyph-name="Gcircumflex" unicode="&#x11c;" horiz-adv-x="770" 
d="M428 -15c-60.667 0 -114.833 9.49902 -162.5 28.499s-88.167 45.833 -121.5 80.5s-58.833 75.834 -76.5 123.501s-26.5 100.167 -26.5 157.5c0 56.667 9 108.834 27 156.501s43.5 88.834 76.5 123.501s73.167 61.667 120.5 81s100.333 29 159 29
c47.333 0 88.166 -5.33301 122.499 -16s63.166 -23.834 86.499 -39.501s41.333 -32.334 54 -50.001s20.334 -33.834 23.001 -48.501v-75h-130c-2 6 -6.16699 13.833 -12.5 23.5s-15.666 19.334 -27.999 29.001s-28 18 -47 25s-41.5 10.5 -67.5 10.5
c-34.667 0 -65.5 -6.33301 -92.5 -19s-49.833 -30 -68.5 -52s-32.834 -48.167 -42.501 -78.5s-14.5 -63.166 -14.5 -98.499c0 -36 5 -69.167 15 -99.5s24.5 -56.5 43.5 -78.5s42.333 -39.333 70 -52s59.167 -19 94.5 -19c28.667 0 53.5 2.33301 74.5 7
s39.167 10.667 54.5 18v130h-155v128h310v-324c-5.33301 -8 -15.666 -17.833 -30.999 -29.5s-35.166 -22.834 -59.499 -33.501s-52.833 -19.667 -85.5 -27s-69.334 -11 -110.001 -11zM412.001 857.999l-56 -58h-116v60l92 80h160l92 -80v-60h-116z" />
    <glyph glyph-name="gcircumflex" unicode="&#x11d;" horiz-adv-x="642" 
d="M305 -260c-48.667 0 -88.4971 6.83398 -119.497 20.501s-55.5 28.834 -73.5 45.501c-20.667 20 -36.334 42.333 -47.001 67v67h121c4.66699 -12.667 12 -24 22 -34c9.33301 -8.66699 21.333 -16.334 36 -23.001s33.667 -10 57 -10c44 0 76.167 13.5 96.5 40.5
s30.5 62.167 30.5 105.5v54c-17.333 -25.333 -40 -44.666 -68 -57.999s-60.667 -20 -98 -20c-34.667 0 -65.834 6.83301 -93.501 20.5s-51.334 32.334 -71.001 56.001s-34.667 51.167 -45 82.5s-15.5 64.666 -15.5 99.999c0 37.333 5.33301 72.166 16 104.499
s25.834 60.5 45.501 84.5s43.667 43 72 57s60.166 21 95.499 21c36.667 0 69 -8 97 -24s50.333 -37 67 -63l8 71h141v-482c0 -43.333 -6.5 -82.333 -19.5 -117s-31.5 -64.334 -55.5 -89.001s-52.833 -43.667 -86.5 -57s-71.167 -20 -112.5 -20zM309.003 125.001
c18 0 34.167 3.33105 48.5 9.99805s26.833 15.834 37.5 27.501s18.834 25.5 24.501 41.5s8.5 33.333 8.5 52c0 36.667 -11 67.334 -33 92.001s-51 37 -87 37c-38.667 0 -68.334 -12.5 -89.001 -37.5s-31 -55.5 -31 -91.5c0 -36.667 10.5 -67.667 31.5 -93
s50.833 -38 89.5 -38zM330.003 672.999l-61 -73h-106v60l92 90h150l92 -90v-60h-106z" />
    <glyph glyph-name="Gbreve" unicode="&#x11e;" horiz-adv-x="770" 
d="M428 -15c-60.667 0 -114.833 9.49902 -162.5 28.499s-88.167 45.833 -121.5 80.5s-58.833 75.834 -76.5 123.501s-26.5 100.167 -26.5 157.5c0 56.667 9 108.834 27 156.501s43.5 88.834 76.5 123.501s73.167 61.667 120.5 81s100.333 29 159 29
c47.333 0 88.166 -5.33301 122.499 -16s63.166 -23.834 86.499 -39.501s41.333 -32.334 54 -50.001s20.334 -33.834 23.001 -48.501v-75h-130c-2 6 -6.16699 13.833 -12.5 23.5s-15.666 19.334 -27.999 29.001s-28 18 -47 25s-41.5 10.5 -67.5 10.5
c-34.667 0 -65.5 -6.33301 -92.5 -19s-49.833 -30 -68.5 -52s-32.834 -48.167 -42.501 -78.5s-14.5 -63.166 -14.5 -98.499c0 -36 5 -69.167 15 -99.5s24.5 -56.5 43.5 -78.5s42.333 -39.333 70 -52s59.167 -19 94.5 -19c28.667 0 53.5 2.33301 74.5 7
s39.167 10.667 54.5 18v130h-155v128h310v-324c-5.33301 -8 -15.666 -17.833 -30.999 -29.5s-35.166 -22.834 -59.499 -33.501s-52.833 -19.667 -85.5 -27s-69.334 -11 -110.001 -11zM419.001 789.999c-32.667 0 -58.8311 3.50098 -78.498 10.501s-35.167 14.833 -46.5 23.5
c-12.667 10 -22 21.333 -28 34v75h80c2.66699 -8 7.33398 -15 14.001 -21c5.33301 -6 12.666 -11 21.999 -15s21.666 -6 36.999 -6s27.666 2.16699 36.999 6.5s16.333 9.16602 21 14.499c5.33301 6 9 13 11 21h80v-75c-5.33301 -12.667 -14.333 -24 -27 -34
c-11.333 -9.33301 -26.5 -17.333 -45.5 -24s-44.5 -10 -76.5 -10z" />
    <glyph glyph-name="gbreve" unicode="&#x11f;" horiz-adv-x="642" 
d="M305 -260c-48.667 0 -88.4971 6.83398 -119.497 20.501s-55.5 28.834 -73.5 45.501c-20.667 20 -36.334 42.333 -47.001 67v67h121c4.66699 -12.667 12 -24 22 -34c9.33301 -8.66699 21.333 -16.334 36 -23.001s33.667 -10 57 -10c44 0 76.167 13.5 96.5 40.5
s30.5 62.167 30.5 105.5v54c-17.333 -25.333 -40 -44.666 -68 -57.999s-60.667 -20 -98 -20c-34.667 0 -65.834 6.83301 -93.501 20.5s-51.334 32.334 -71.001 56.001s-34.667 51.167 -45 82.5s-15.5 64.666 -15.5 99.999c0 37.333 5.33301 72.166 16 104.499
s25.834 60.5 45.501 84.5s43.667 43 72 57s60.166 21 95.499 21c36.667 0 69 -8 97 -24s50.333 -37 67 -63l8 71h141v-482c0 -43.333 -6.5 -82.333 -19.5 -117s-31.5 -64.334 -55.5 -89.001s-52.833 -43.667 -86.5 -57s-71.167 -20 -112.5 -20zM309.003 125.001
c18 0 34.167 3.33105 48.5 9.99805s26.833 15.834 37.5 27.501s18.834 25.5 24.501 41.5s8.5 33.333 8.5 52c0 36.667 -11 67.334 -33 92.001s-51 37 -87 37c-38.667 0 -68.334 -12.5 -89.001 -37.5s-31 -55.5 -31 -91.5c0 -36.667 10.5 -67.667 31.5 -93
s50.833 -38 89.5 -38zM326.003 587.999c-30.667 0 -55.8311 3.66895 -75.498 11.002s-35.5 15.666 -47.5 24.999c-13.333 10.667 -23.333 22.667 -30 36v75h80c4 -8 9.33301 -15 16 -21c5.33301 -6 12.666 -11 21.999 -15s21 -6 35 -6c14.667 0 26.334 2.16699 35.001 6.5
s15.667 9.16602 21 14.499c6 6 10.333 13 13 21h80v-75c-6.66699 -13.333 -16.334 -25.333 -29.001 -36c-12 -10 -27.333 -18.5 -46 -25.5s-43.334 -10.5 -74.001 -10.5z" />
    <glyph glyph-name="Gdotaccent" unicode="&#x120;" horiz-adv-x="770" 
d="M428 -15c-60.667 0 -114.833 9.49902 -162.5 28.499s-88.167 45.833 -121.5 80.5s-58.833 75.834 -76.5 123.501s-26.5 100.167 -26.5 157.5c0 56.667 9 108.834 27 156.501s43.5 88.834 76.5 123.501s73.167 61.667 120.5 81s100.333 29 159 29
c47.333 0 88.166 -5.33301 122.499 -16s63.166 -23.834 86.499 -39.501s41.333 -32.334 54 -50.001s20.334 -33.834 23.001 -48.501v-75h-130c-2 6 -6.16699 13.833 -12.5 23.5s-15.666 19.334 -27.999 29.001s-28 18 -47 25s-41.5 10.5 -67.5 10.5
c-34.667 0 -65.5 -6.33301 -92.5 -19s-49.833 -30 -68.5 -52s-32.834 -48.167 -42.501 -78.5s-14.5 -63.166 -14.5 -98.499c0 -36 5 -69.167 15 -99.5s24.5 -56.5 43.5 -78.5s42.333 -39.333 70 -52s59.167 -19 94.5 -19c28.667 0 53.5 2.33301 74.5 7
s39.167 10.667 54.5 18v130h-155v128h310v-324c-5.33301 -8 -15.666 -17.833 -30.999 -29.5s-35.166 -22.834 -59.499 -33.501s-52.833 -19.667 -85.5 -27s-69.334 -11 -110.001 -11zM335.001 934.999h166v-135h-166v135z" />
    <glyph glyph-name="gdotaccent" unicode="&#x121;" horiz-adv-x="642" 
d="M305 -260c-48.667 0 -88.4971 6.83398 -119.497 20.501s-55.5 28.834 -73.5 45.501c-20.667 20 -36.334 42.333 -47.001 67v67h121c4.66699 -12.667 12 -24 22 -34c9.33301 -8.66699 21.333 -16.334 36 -23.001s33.667 -10 57 -10c44 0 76.167 13.5 96.5 40.5
s30.5 62.167 30.5 105.5v54c-17.333 -25.333 -40 -44.666 -68 -57.999s-60.667 -20 -98 -20c-34.667 0 -65.834 6.83301 -93.501 20.5s-51.334 32.334 -71.001 56.001s-34.667 51.167 -45 82.5s-15.5 64.666 -15.5 99.999c0 37.333 5.33301 72.166 16 104.499
s25.834 60.5 45.501 84.5s43.667 43 72 57s60.166 21 95.499 21c36.667 0 69 -8 97 -24s50.333 -37 67 -63l8 71h141v-482c0 -43.333 -6.5 -82.333 -19.5 -117s-31.5 -64.334 -55.5 -89.001s-52.833 -43.667 -86.5 -57s-71.167 -20 -112.5 -20zM309.003 125.001
c18 0 34.167 3.33105 48.5 9.99805s26.833 15.834 37.5 27.501s18.834 25.5 24.501 41.5s8.5 33.333 8.5 52c0 36.667 -11 67.334 -33 92.001s-51 37 -87 37c-38.667 0 -68.334 -12.5 -89.001 -37.5s-31 -55.5 -31 -91.5c0 -36.667 10.5 -67.667 31.5 -93
s50.833 -38 89.5 -38zM255.003 739.999h156v-140h-156v140z" />
    <glyph glyph-name="Gcommaaccent" unicode="&#x122;" horiz-adv-x="770" 
d="M428 -15c-60.667 0 -114.833 9.49902 -162.5 28.499s-88.167 45.833 -121.5 80.5s-58.833 75.834 -76.5 123.501s-26.5 100.167 -26.5 157.5c0 56.667 9 108.834 27 156.501s43.5 88.834 76.5 123.501s73.167 61.667 120.5 81s100.333 29 159 29
c47.333 0 88.166 -5.33301 122.499 -16s63.166 -23.834 86.499 -39.501s41.333 -32.334 54 -50.001s20.334 -33.834 23.001 -48.501v-75h-130c-2 6 -6.16699 13.833 -12.5 23.5s-15.666 19.334 -27.999 29.001s-28 18 -47 25s-41.5 10.5 -67.5 10.5
c-34.667 0 -65.5 -6.33301 -92.5 -19s-49.833 -30 -68.5 -52s-32.834 -48.167 -42.501 -78.5s-14.5 -63.166 -14.5 -98.499c0 -36 5 -69.167 15 -99.5s24.5 -56.5 43.5 -78.5s42.333 -39.333 70 -52s59.167 -19 94.5 -19c28.667 0 53.5 2.33301 74.5 7
s39.167 10.667 54.5 18v130h-155v128h310v-324c-5.33301 -8 -15.666 -17.833 -30.999 -29.5s-35.166 -22.834 -59.499 -33.501s-52.833 -19.667 -85.5 -27s-69.334 -11 -110.001 -11zM356.001 -52.001h156v-72l-55 -81h-96z" />
    <glyph glyph-name="gcommaaccent" unicode="&#x123;" horiz-adv-x="642" 
d="M305 -260c-48.667 0 -88.4971 6.83398 -119.497 20.501s-55.5 28.834 -73.5 45.501c-20.667 20 -36.334 42.333 -47.001 67v67h121c4.66699 -12.667 12 -24 22 -34c9.33301 -8.66699 21.333 -16.334 36 -23.001s33.667 -10 57 -10c44 0 76.167 13.5 96.5 40.5
s30.5 62.167 30.5 105.5v54c-17.333 -25.333 -40 -44.666 -68 -57.999s-60.667 -20 -98 -20c-34.667 0 -65.834 6.83301 -93.501 20.5s-51.334 32.334 -71.001 56.001s-34.667 51.167 -45 82.5s-15.5 64.666 -15.5 99.999c0 37.333 5.33301 72.166 16 104.499
s25.834 60.5 45.501 84.5s43.667 43 72 57s60.166 21 95.499 21c36.667 0 69 -8 97 -24s50.333 -37 67 -63l8 71h141v-482c0 -43.333 -6.5 -82.333 -19.5 -117s-31.5 -64.334 -55.5 -89.001s-52.833 -43.667 -86.5 -57s-71.167 -20 -112.5 -20zM309.003 125.001
c18 0 34.167 3.33105 48.5 9.99805s26.833 15.834 37.5 27.501s18.834 25.5 24.501 41.5s8.5 33.333 8.5 52c0 36.667 -11 67.334 -33 92.001s-51 37 -87 37c-38.667 0 -68.334 -12.5 -89.001 -37.5s-31 -55.5 -31 -91.5c0 -36.667 10.5 -67.667 31.5 -93
s50.833 -38 89.5 -38zM404.003 609.999h-156v72l55 81h96z" />
    <glyph glyph-name="Hcircumflex" unicode="&#x124;" horiz-adv-x="790" 
d="M82 750h166v-295h294v295h166v-750h-166v315h-294v-315h-166v750zM395 858l-56 -58h-116v60l92 80h160l92 -80v-60h-116z" />
    <glyph glyph-name="hcircumflex" unicode="&#x125;" horiz-adv-x="603" 
d="M64 750l151 -0.000976562v-307c6 9.33301 13.5 18.5 22.5 27.5s19.667 17.167 32 24.5s26.333 13.333 42 18s32.834 7 51.501 7c33.333 0 61.5 -5.5 84.5 -16.5s41.667 -26 56 -45s24.666 -41 30.999 -66s9.5 -51.167 9.5 -78.5v-314h-150v286c0 30 -6.33301 54 -19 72
s-34 27 -64 27c-18 0 -33.167 -3 -45.5 -9s-22.333 -13.667 -30 -23s-13 -20.166 -16 -32.499s-4.5 -24.5 -4.5 -36.5v-284h-151v750zM304 857.999l-56 -58h-116v60l92 80h160l92 -80v-60h-116z" />
    <glyph glyph-name="Hbar" unicode="&#x126;" horiz-adv-x="817" 
d="M262 0h-166v542h-80v115h80v93h166v-93h294v93h166v-93h79v-115h-79v-542h-166v315h-294v-315zM556 455v87h-294v-87h294z" />
    <glyph glyph-name="hbar" unicode="&#x127;" horiz-adv-x="602" 
d="M214 0l-151 -0.000976562v570h-73v108h73v72h151v-72h145v-108h-145v-127c6 9.33301 13.5 18.5 22.5 27.5s19.667 17.167 32 24.5s26.333 13.333 42 18s32.834 7 51.501 7c33.333 0 61.5 -5.5 84.5 -16.5s41.667 -26 56 -45s24.666 -41 30.999 -66s9.5 -51.167 9.5 -78.5
v-314h-150v286c0 30 -6.33301 54 -19 72s-34 27 -64 27c-18 0 -33.167 -3 -45.5 -9s-22.333 -13.667 -30 -23s-13 -20.166 -16 -32.499s-4.5 -24.5 -4.5 -36.5v-284z" />
    <glyph glyph-name="Itilde" unicode="&#x128;" horiz-adv-x="330" 
d="M242 792c-14 0 -26.168 1.5 -36.501 4.5s-20 6.5 -29 10.5s-17.667 7.5 -26 10.5s-17.166 4.5 -26.499 4.5c-19.333 0 -31 -8.33301 -35 -25h-100c-2.66699 40.667 5.33301 73.667 24 99s46 38 82 38c14 0 26 -1.5 36 -4.5s19.167 -6.5 27.5 -10.5s16.333 -7.5 24 -10.5
s16.167 -4.5 25.5 -4.5c7.33301 0 14.333 1.66699 21 5s11 10 13 20h100c2.66699 -41.333 -3.83301 -74.5 -19.5 -99.5s-42.5 -37.5 -80.5 -37.5zM82.999 750h166v-750h-166v750z" />
    <glyph glyph-name="itilde" unicode="&#x129;" horiz-adv-x="276" 
d="M64 505h150v-505h-150v505zM216 599c-16 0 -29.333 1.83301 -40 5.5s-20.334 7.66699 -29.001 12l-25 12c-8 3.66699 -17.667 5.5 -29 5.5c-18 0 -29.667 -10 -35 -30h-95c-2.66699 40.667 5.33301 73.667 24 99s46 38 82 38c16 0 29.167 -1.83301 39.5 -5.5
s19.5 -7.5 27.5 -11.5l23.5 -11.5c7.66699 -3.66699 16.834 -5.5 27.501 -5.5c7.33301 0 14.333 2 21 6s11 11.667 13 23h95c2.66699 -40.667 -3.83301 -73.667 -19.5 -99s-42.5 -38 -80.5 -38z" />
    <glyph glyph-name="Imacron" unicode="&#x12a;" horiz-adv-x="330" 
d="M12 915h306v-110h-306v110zM82 750h166v-750h-166v750z" />
    <glyph glyph-name="imacron" unicode="&#x12b;" horiz-adv-x="276" 
d="M63 505h150v-505h-150v505zM-5 726h286v-116h-286v116z" />
    <glyph glyph-name="Ibreve" unicode="&#x12c;" horiz-adv-x="330" 
d="M166 790c-32.667 0 -58.8311 3.50098 -78.498 10.501s-35.167 14.833 -46.5 23.5c-12.667 10 -22 21.333 -28 34v75h80c2.66699 -8 7.33398 -15 14.001 -21c5.33301 -6 12.666 -11 21.999 -15s21.666 -6 36.999 -6s27.666 2.16699 36.999 6.5s16.333 9.16602 21 14.499
c5.33301 6 9 13 11 21h80v-75c-5.33301 -12.667 -14.333 -24 -27 -34c-11.333 -9.33301 -26.5 -17.333 -45.5 -24s-44.5 -10 -76.5 -10zM82.0029 750.001h166v-750h-166v750z" />
    <glyph glyph-name="ibreve" unicode="&#x12d;" horiz-adv-x="276" 
d="M63 505h150v-505h-150v505zM140 588c-30.667 0 -55.8311 3.66895 -75.498 11.002s-35.5 15.666 -47.5 24.999c-13.333 10.667 -23.333 22.667 -30 36v75h80c4 -8 9.33301 -15 16 -21c5.33301 -6 12.666 -11 21.999 -15s21 -6 35 -6c14.667 0 26.334 2.16699 35.001 6.5
s15.667 9.16602 21 14.499c6 6 10.333 13 13 21h80v-75c-6.66699 -13.333 -16.334 -25.333 -29.001 -36c-12 -10 -27.333 -18.5 -46 -25.5s-43.334 -10.5 -74.001 -10.5z" />
    <glyph glyph-name="Iogonek" unicode="&#x12e;" horiz-adv-x="330" 
d="M58 -91c0 23.333 7.66699 43.332 23 59.999s35.666 27 60.999 31h-60v750h166v-750c-6 -1.33301 -12.5 -3 -19.5 -5s-13.167 -5 -18.5 -9s-9.83301 -9.16699 -13.5 -15.5s-5.5 -14.5 -5.5 -24.5c0 -12 2.66699 -21.5 8 -28.5s11.833 -12.333 19.5 -16s15.667 -6 24 -7
s15.5 -1.5 21.5 -1.5v-85h-80c-12.667 0.666992 -26.5 2.66699 -41.5 6s-28.667 8.83301 -41 16.5s-22.666 17.834 -30.999 30.501s-12.5 28.667 -12.5 48z" />
    <glyph glyph-name="iogonek" unicode="&#x12f;" horiz-adv-x="278" 
d="M60 740h156v-140h-156v140zM19 -91c0 23.333 7.66699 43.332 23 59.999s35.666 27 60.999 31h-39v505h150v-505h-5c-6 -1.33301 -12.5 -3 -19.5 -5s-13.167 -5 -18.5 -9s-9.83301 -9.16699 -13.5 -15.5s-5.5 -14.5 -5.5 -24.5c0 -12 2.66699 -21.5 8 -28.5
s11.833 -12.333 19.5 -16s15.667 -6 24 -7s15.5 -1.5 21.5 -1.5v-85h-80c-12.667 0.666992 -26.5 2.66699 -41.5 6s-28.667 8.83301 -41 16.5s-22.666 17.834 -30.999 30.501s-12.5 28.667 -12.5 48z" />
    <glyph glyph-name="Idotaccent" unicode="&#x130;" horiz-adv-x="330" 
d="M82 935h166v-135h-166v135zM82 750h166v-750h-166v750z" />
    <glyph glyph-name="dotlessi" unicode="&#x131;" horiz-adv-x="278" 
d="M64 505h150v-505h-150v505z" />
    <glyph glyph-name="IJ" unicode="&#x132;" horiz-adv-x="796" 
d="M82 750h166v-750h-166v750zM501 -15c-36.667 0 -67.499 4.66602 -92.499 13.999s-45.5 20.666 -61.5 33.999s-27.667 27.333 -35 42s-12 27.334 -14 38.001v75h130c0 -6 1 -12.667 3 -20s5.5 -14.166 10.5 -20.499s11.333 -11.5 19 -15.5s17.5 -6 29.5 -6
c21.333 0 37.5 6.5 48.5 19.5s16.5 38.833 16.5 77.5v527h165v-521c0 -82 -18.333 -143.167 -55 -183.5s-91.334 -60.5 -164.001 -60.5z" />
    <glyph glyph-name="ij" unicode="&#x133;" horiz-adv-x="542" 
d="M64 505h150v-505h-150v505zM60 740h156v-140h-156v140zM287 -260c-44.667 0 -79.668 8.83203 -105.001 26.499s-42.666 39.5 -51.999 65.5v72h113c0 -2.66699 0.666992 -6 2 -10s3.5 -8 6.5 -12s7.16699 -7.33301 12.5 -10s12 -4 20 -4c17.333 0 29 5.33301 35 16
s9 28.334 9 53.001v568h150v-569c0 -60 -15.833 -107.667 -47.5 -143s-79.5 -53 -143.5 -53zM324.999 739.999h156v-140h-156v140z" />
    <glyph glyph-name="Jcircumflex" unicode="&#x134;" horiz-adv-x="519" 
d="M224 -15c-36.667 0 -67.499 4.66602 -92.499 13.999s-45.5 20.666 -61.5 33.999s-27.667 27.333 -35 42s-12 27.334 -14 38.001v75h130c0 -6 1 -12.667 3 -20s5.5 -14.166 10.5 -20.499s11.333 -11.5 19 -15.5s17.5 -6 29.5 -6c21.333 0 37.5 6.5 48.5 19.5
s16.5 38.833 16.5 77.5v527h165v-521c0 -82 -18.333 -143.167 -55 -183.5s-91.334 -60.5 -164.001 -60.5zM359.001 857.999l-56 -58h-116v60l92 80h160l92 -80v-60h-116z" />
    <glyph glyph-name="jcircumflex" unicode="&#x135;" horiz-adv-x="276" 
d="M22 -260c-44.667 0 -79.668 8.83203 -105.001 26.499s-42.666 39.5 -51.999 65.5v72h113c0 -2.66699 0.666992 -6 2 -10s3.5 -8 6.5 -12s7.16699 -7.33301 12.5 -10s12 -4 20 -4c17.333 0 29 5.33301 35 16s9 28.334 9 53.001v568h150v-569
c0 -60 -15.833 -107.667 -47.5 -143s-79.5 -53 -143.5 -53zM137.999 672.999l-61 -73h-106v60l92 90h150l92 -90v-60h-106z" />
    <glyph glyph-name="Kcommaaccent" unicode="&#x136;" horiz-adv-x="694" 
d="M302 -52h156v-72l-55 -81h-96zM248 0h-166v750h166v-322l271 322h131v-75l-245 -285l273 -312v-78h-146l-284 326v-326z" />
    <glyph glyph-name="kcommaaccent" unicode="&#x137;" horiz-adv-x="555" 
d="M64 750h151v-450l170 205h129v-67l-147 -174l167 -194v-70h-141l-178 218v-218h-151v750zM220 -52h156v-72l-55 -81h-96z" />
    <glyph glyph-name="Lacute" unicode="&#x139;" horiz-adv-x="569" 
d="M82 750h166v-609h300v-141h-466v750zM86 865l72 80h156v-60l-92 -80h-136v60z" />
    <glyph glyph-name="lacute" unicode="&#x13a;" horiz-adv-x="279" 
d="M64 750h151v-750h-151v750zM61 865l68 80h149v-60l-87 -80h-130v60z" />
    <glyph glyph-name="Lcommaaccent" unicode="&#x13b;" horiz-adv-x="569" 
d="M82 750h166v-609h300v-141h-466v750zM255 -52h156v-72l-55 -81h-96z" />
    <glyph glyph-name="lcommaaccent" unicode="&#x13c;" horiz-adv-x="279" 
d="M64 750h151v-750h-151v750zM61 -52h150v-72l-53 -81h-92z" />
    <glyph glyph-name="Lcaron" unicode="&#x13d;" horiz-adv-x="581" 
d="M82 750h166v-609h300v-141h-466v750zM393 750h146v-90l-45 -101h-96z" />
    <glyph glyph-name="lcaron" unicode="&#x13e;" horiz-adv-x="290" 
d="M64 750h151v-750h-151v750zM254 750h146v-90l-45 -101h-96z" />
    <glyph glyph-name="Ldot" unicode="&#x13f;" horiz-adv-x="578" 
d="M375 469h155v-153h-155v153zM82 750h166v-609h300v-141h-466v750z" />
    <glyph glyph-name="ldot" unicode="&#x140;" horiz-adv-x="440" 
d="M64 750h151v-750h-151v750zM283 411h155v-153h-155v153z" />
    <glyph glyph-name="Lslash" unicode="&#x141;" horiz-adv-x="591" 
d="M570 0h-466v251l-80 -34v141l80 34v358h166v-289l105 44v-141l-105 -44v-179h300v-141z" />
    <glyph glyph-name="lslash" unicode="&#x142;" horiz-adv-x="375" 
d="M260 302v-302h-151v229l-75 -36v131l75 36v390h151v-317l75 36v-131z" />
    <glyph glyph-name="Nacute" unicode="&#x143;" horiz-adv-x="795" 
d="M82 750h156l319 -477v477h156v-750h-156l-319 469v-469h-156v750zM325 865l72 80h156v-60l-92 -80h-136v60z" />
    <glyph glyph-name="nacute" unicode="&#x144;" horiz-adv-x="603" 
d="M64 505l141.001 -0.000976562l7 -67c5.33301 9.33301 12.5 18.833 21.5 28.5s19.833 18.5 32.5 26.5s27 14.5 43 19.5s34 7.5 54 7.5c33.333 0 61.5 -5.5 84.5 -16.5s41.667 -26 56 -45s24.666 -41 30.999 -66s9.5 -51.167 9.5 -78.5v-314h-150v286
c0 30 -6.33301 54 -19 72s-34 27 -64 27c-18 0 -33.167 -3 -45.5 -9s-22.333 -13.667 -30 -23s-13 -20.166 -16 -32.499s-4.5 -24.5 -4.5 -36.5v-284h-151v505zM216.001 659.999l77 90h144v-60l-98 -90h-123v60z" />
    <glyph glyph-name="Ncommaaccent" unicode="&#x145;" horiz-adv-x="795" 
d="M82 750h156l319 -477v477h156v-750h-156l-319 469v-469h-156v750zM312 -52h156v-72l-55 -81h-96z" />
    <glyph glyph-name="ncommaaccent" unicode="&#x146;" horiz-adv-x="603" 
d="M64 505l141.001 -0.000976562l7 -67c5.33301 9.33301 12.5 18.833 21.5 28.5s19.833 18.5 32.5 26.5s27 14.5 43 19.5s34 7.5 54 7.5c33.333 0 61.5 -5.5 84.5 -16.5s41.667 -26 56 -45s24.666 -41 30.999 -66s9.5 -51.167 9.5 -78.5v-314h-150v286
c0 30 -6.33301 54 -19 72s-34 27 -64 27c-18 0 -33.167 -3 -45.5 -9s-22.333 -13.667 -30 -23s-13 -20.166 -16 -32.499s-4.5 -24.5 -4.5 -36.5v-284h-151v505zM224.001 -52.001h156v-72l-55 -81h-96z" />
    <glyph glyph-name="Ncaron" unicode="&#x147;" horiz-adv-x="795" 
d="M82 750h156l319 -477v477h156v-750h-156l-319 469v-469h-156v750zM315 800l-94 80v60h116l58 -58l54 58h116v-60l-90 -80h-160z" />
    <glyph glyph-name="ncaron" unicode="&#x148;" horiz-adv-x="603" 
d="M64 505l141.001 -0.000976562l7 -67c5.33301 9.33301 12.5 18.833 21.5 28.5s19.833 18.5 32.5 26.5s27 14.5 43 19.5s34 7.5 54 7.5c33.333 0 61.5 -5.5 84.5 -16.5s41.667 -26 56 -45s24.666 -41 30.999 -66s9.5 -51.167 9.5 -78.5v-314h-150v286
c0 30 -6.33301 54 -19 72s-34 27 -64 27c-18 0 -33.167 -3 -45.5 -9s-22.333 -13.667 -30 -23s-13 -20.166 -16 -32.499s-4.5 -24.5 -4.5 -36.5v-284h-151v505zM212.001 599.999l-94 90v60h106l63 -73l59 73h106v-60l-90 -90h-150z" />
    <glyph glyph-name="napostrophe" unicode="&#x149;" horiz-adv-x="601" 
d="M55 750h146v-90l-45 -101h-96zM63 505l141.001 -0.000976562l7 -67c5.33301 9.33301 12.5 18.833 21.5 28.5s19.833 18.5 32.5 26.5s27 14.5 43 19.5s34 7.5 54 7.5c33.333 0 61.5 -5.5 84.5 -16.5s41.667 -26 56 -45s24.666 -41 30.999 -66s9.5 -51.167 9.5 -78.5v-314
h-150v286c0 30 -6.33301 54 -19 72s-34 27 -64 27c-18 0 -33.167 -3 -45.5 -9s-22.333 -13.667 -30 -23s-13 -20.166 -16 -32.499s-4.5 -24.5 -4.5 -36.5v-284h-151v505z" />
    <glyph glyph-name="Eng" unicode="&#x14a;" horiz-adv-x="795" 
d="M713 750v-786.002c0 -74.667 -16 -130.667 -48 -168s-81.333 -56 -148 -56c-28 0 -52.5 3.66699 -73.5 11s-38.833 16.5 -53.5 27.5s-26.334 22.833 -35.001 35.5s-14.667 24.334 -18 35.001v70h131c0 -2.66699 0.833008 -6.16699 2.5 -10.5
s4.33398 -8.66602 8.00098 -12.999s8.66699 -8.16602 15 -11.499s13.833 -5 22.5 -5c15.333 0 26 4.66699 32 14s9 23.666 9 42.999v64l-319 469v-469h-156v750h156l319 -477v477h156z" />
    <glyph glyph-name="eng" unicode="&#x14b;" horiz-adv-x="603" 
d="M363 520c33.333 0 61.5 -5.49707 84.5 -16.4971s41.667 -26 56 -45s24.666 -41 30.999 -66s9.5 -51.167 9.5 -78.5v-348c0 -34.667 -4.16699 -65.834 -12.5 -93.501s-21.666 -51.334 -39.999 -71.001s-42 -34.834 -71 -45.501s-64.167 -16 -105.5 -16v128
c30.667 0 51.5 7.66699 62.5 23s16.5 40.666 16.5 75.999v319c0 30 -6.33301 54 -19 72s-34 27 -64 27c-18 0 -33.167 -3 -45.5 -9s-22.333 -13.667 -30 -23s-13 -20.166 -16 -32.499s-4.5 -24.5 -4.5 -36.5v-284h-151v505h141l7 -67c5.33301 9.33301 12.5 18.833 21.5 28.5
s19.833 18.5 32.5 26.5s27 14.5 43 19.5s34 7.5 54 7.5z" />
    <glyph glyph-name="Omacron" unicode="&#x14c;" horiz-adv-x="826" 
d="M413 -15c-56 0 -106.833 9.66699 -152.5 29s-84.667 46.333 -117 81s-57.5 76 -75.5 124s-27 101 -27 159c0 57.333 9 109.666 27 156.999s43.167 88 75.5 122s71.333 60.5 117 79.5s96.5 28.5 152.5 28.5s106.833 -9.5 152.5 -28.5s84.667 -45.5 117 -79.5
s57.5 -74.667 75.5 -122s27 -99.666 27 -156.999c0 -58 -9 -111 -27 -159s-43.167 -89.333 -75.5 -124s-71.333 -61.667 -117 -81s-96.5 -29 -152.5 -29zM413 126c31.333 0 59.666 6.16699 84.999 18.5s47 29.5 65 51.5s31.833 48.5 41.5 79.5s14.5 65.167 14.5 102.5
c0 36.667 -4.83301 70 -14.5 100s-23.5 55.833 -41.5 77.5s-39.667 38.5 -65 50.5s-53.666 18 -84.999 18s-59.666 -6 -84.999 -18s-47 -28.833 -65 -50.5s-31.833 -47.5 -41.5 -77.5s-14.5 -63.333 -14.5 -100c0 -37.333 4.83301 -71.5 14.5 -102.5s23.5 -57.5 41.5 -79.5
s39.667 -39.167 65 -51.5s53.666 -18.5 84.999 -18.5zM257 915h306v-110h-306v110z" />
    <glyph glyph-name="omacron" unicode="&#x14d;" horiz-adv-x="606" 
d="M303 -15c-42 0 -79.5 7 -112.5 21s-61 33.333 -84 58s-40.5 53.334 -52.5 86.001s-18 67.334 -18 104.001s6 71.167 18 103.5s29.5 60.5 52.5 84.5s51 43 84 57s70.5 21 112.5 21s79.5 -7 112.5 -21s61 -33 84 -57s40.5 -52.167 52.5 -84.5s18 -66.833 18 -103.5
s-6 -71.334 -18 -104.001s-29.5 -61.334 -52.5 -86.001s-51 -44 -84 -58s-70.5 -21 -112.5 -21zM303 116c20 0 37.167 3.66699 51.5 11s26.333 17.166 36 29.499s16.834 27 21.501 44s7 34.833 7 53.5s-2.33301 36.167 -7 52.5s-11.834 30.666 -21.501 42.999
s-21.667 22 -36 29s-31.5 10.5 -51.5 10.5s-37.167 -3.5 -51.5 -10.5s-26.333 -16.667 -36 -29s-16.834 -26.666 -21.501 -42.999s-7 -33.833 -7 -52.5s2.33301 -36.5 7 -53.5s11.834 -31.667 21.501 -44s21.667 -22.166 36 -29.499s31.5 -11 51.5 -11zM163 726h286v-116
h-286v116z" />
    <glyph glyph-name="Obreve" unicode="&#x14e;" horiz-adv-x="826" 
d="M413 -15c-56 0 -106.833 9.66699 -152.5 29s-84.667 46.333 -117 81s-57.5 76 -75.5 124s-27 101 -27 159c0 57.333 9 109.666 27 156.999s43.167 88 75.5 122s71.333 60.5 117 79.5s96.5 28.5 152.5 28.5s106.833 -9.5 152.5 -28.5s84.667 -45.5 117 -79.5
s57.5 -74.667 75.5 -122s27 -99.666 27 -156.999c0 -58 -9 -111 -27 -159s-43.167 -89.333 -75.5 -124s-71.333 -61.667 -117 -81s-96.5 -29 -152.5 -29zM413 126c31.333 0 59.666 6.16699 84.999 18.5s47 29.5 65 51.5s31.833 48.5 41.5 79.5s14.5 65.167 14.5 102.5
c0 36.667 -4.83301 70 -14.5 100s-23.5 55.833 -41.5 77.5s-39.667 38.5 -65 50.5s-53.666 18 -84.999 18s-59.666 -6 -84.999 -18s-47 -28.833 -65 -50.5s-31.833 -47.5 -41.5 -77.5s-14.5 -63.333 -14.5 -100c0 -37.333 4.83301 -71.5 14.5 -102.5s23.5 -57.5 41.5 -79.5
s39.667 -39.167 65 -51.5s53.666 -18.5 84.999 -18.5zM411 790c-32.667 0 -58.8311 3.50098 -78.498 10.501s-35.167 14.833 -46.5 23.5c-12.667 10 -22 21.333 -28 34v75h80c2.66699 -8 7.33398 -15 14.001 -21c5.33301 -6 12.666 -11 21.999 -15s21.666 -6 36.999 -6
s27.666 2.16699 36.999 6.5s16.333 9.16602 21 14.499c5.33301 6 9 13 11 21h80v-75c-5.33301 -12.667 -14.333 -24 -27 -34c-11.333 -9.33301 -26.5 -17.333 -45.5 -24s-44.5 -10 -76.5 -10z" />
    <glyph glyph-name="obreve" unicode="&#x14f;" horiz-adv-x="606" 
d="M303 -15c-42 0 -79.5 7 -112.5 21s-61 33.333 -84 58s-40.5 53.334 -52.5 86.001s-18 67.334 -18 104.001s6 71.167 18 103.5s29.5 60.5 52.5 84.5s51 43 84 57s70.5 21 112.5 21s79.5 -7 112.5 -21s61 -33 84 -57s40.5 -52.167 52.5 -84.5s18 -66.833 18 -103.5
s-6 -71.334 -18 -104.001s-29.5 -61.334 -52.5 -86.001s-51 -44 -84 -58s-70.5 -21 -112.5 -21zM303 116c20 0 37.167 3.66699 51.5 11s26.333 17.166 36 29.499s16.834 27 21.501 44s7 34.833 7 53.5s-2.33301 36.167 -7 52.5s-11.834 30.666 -21.501 42.999
s-21.667 22 -36 29s-31.5 10.5 -51.5 10.5s-37.167 -3.5 -51.5 -10.5s-26.333 -16.667 -36 -29s-16.834 -26.666 -21.501 -42.999s-7 -33.833 -7 -52.5s2.33301 -36.5 7 -53.5s11.834 -31.667 21.501 -44s21.667 -22.166 36 -29.499s31.5 -11 51.5 -11zM301 588
c-30.667 0 -55.8311 3.66895 -75.498 11.002s-35.5 15.666 -47.5 24.999c-13.333 10.667 -23.333 22.667 -30 36v75h80c4 -8 9.33301 -15 16 -21c5.33301 -6 12.666 -11 21.999 -15s21 -6 35 -6c14.667 0 26.334 2.16699 35.001 6.5s15.667 9.16602 21 14.499
c6 6 10.333 13 13 21h80v-75c-6.66699 -13.333 -16.334 -25.333 -29.001 -36c-12 -10 -27.333 -18.5 -46 -25.5s-43.334 -10.5 -74.001 -10.5z" />
    <glyph glyph-name="Ohungarumlaut" unicode="&#x150;" horiz-adv-x="826" 
d="M413 -15c-56 0 -106.833 9.66699 -152.5 29s-84.667 46.333 -117 81s-57.5 76 -75.5 124s-27 101 -27 159c0 57.333 9 109.666 27 156.999s43.167 88 75.5 122s71.333 60.5 117 79.5s96.5 28.5 152.5 28.5s106.833 -9.5 152.5 -28.5s84.667 -45.5 117 -79.5
s57.5 -74.667 75.5 -122s27 -99.666 27 -156.999c0 -58 -9 -111 -27 -159s-43.167 -89.333 -75.5 -124s-71.333 -61.667 -117 -81s-96.5 -29 -152.5 -29zM413 126c31.333 0 59.666 6.16699 84.999 18.5s47 29.5 65 51.5s31.833 48.5 41.5 79.5s14.5 65.167 14.5 102.5
c0 36.667 -4.83301 70 -14.5 100s-23.5 55.833 -41.5 77.5s-39.667 38.5 -65 50.5s-53.666 18 -84.999 18s-59.666 -6 -84.999 -18s-47 -28.833 -65 -50.5s-31.833 -47.5 -41.5 -77.5s-14.5 -63.333 -14.5 -100c0 -37.333 4.83301 -71.5 14.5 -102.5s23.5 -57.5 41.5 -79.5
s39.667 -39.167 65 -51.5s53.666 -18.5 84.999 -18.5zM247 863l55 80h141l-14 -60l-62 -80h-120v60zM444 863l72 80h141v-60l-92 -80h-121v60z" />
    <glyph glyph-name="ohungarumlaut" unicode="&#x151;" horiz-adv-x="606" 
d="M150 660l55 90h136l-13 -65l-63 -85h-115v60zM342 660l72 90h131v-60l-92 -90h-111v60zM303 -15c-42 0 -79.5 7 -112.5 21s-61 33.333 -84 58s-40.5 53.334 -52.5 86.001s-18 67.334 -18 104.001s6 71.167 18 103.5s29.5 60.5 52.5 84.5s51 43 84 57s70.5 21 112.5 21
s79.5 -7 112.5 -21s61 -33 84 -57s40.5 -52.167 52.5 -84.5s18 -66.833 18 -103.5s-6 -71.334 -18 -104.001s-29.5 -61.334 -52.5 -86.001s-51 -44 -84 -58s-70.5 -21 -112.5 -21zM303 116c20 0 37.167 3.66699 51.5 11s26.333 17.166 36 29.499s16.834 27 21.501 44
s7 34.833 7 53.5s-2.33301 36.167 -7 52.5s-11.834 30.666 -21.501 42.999s-21.667 22 -36 29s-31.5 10.5 -51.5 10.5s-37.167 -3.5 -51.5 -10.5s-26.333 -16.667 -36 -29s-16.834 -26.666 -21.501 -42.999s-7 -33.833 -7 -52.5s2.33301 -36.5 7 -53.5
s11.834 -31.667 21.501 -44s21.667 -22.166 36 -29.499s31.5 -11 51.5 -11z" />
    <glyph glyph-name="OE" unicode="&#x152;" horiz-adv-x="1031" 
d="M520 0c-16.667 -4 -33.834 -6.66699 -51.501 -8s-36.167 -2 -55.5 -2c-56 0 -106.833 9.66699 -152.5 29s-84.667 46.333 -117 81s-57.5 75.5 -75.5 122.5s-27 98.167 -27 153.5s9 106.5 27 153.5s43.167 87.5 75.5 121.5s71.333 60.667 117 80s96.5 29 152.5 29
c19.333 0 37.833 -0.666992 55.5 -2s34.834 -4 51.501 -8h461v-141h-305v-159h270v-130h-270v-179h305v-141h-461zM202 376c0 -36 5 -69 15 -99s24.167 -55.833 42.5 -77.5s40.5 -38.5 66.5 -50.5s55 -18 87 -18c17.333 0 34.166 1 50.499 3s31.833 5.66699 46.5 11v463
c-14.667 4.66699 -30.167 7.66699 -46.5 9s-33.166 2 -50.499 2c-32 0 -61 -6 -87 -18s-48.167 -28.667 -66.5 -50s-32.5 -46.833 -42.5 -76.5s-15 -62.5 -15 -98.5z" />
    <glyph glyph-name="oe" unicode="&#x153;" horiz-adv-x="966" 
d="M691 -15c-46 0 -85.667 7.66602 -119 22.999s-60.666 36.333 -81.999 63c-21.333 -26.667 -47.666 -47.667 -78.999 -63s-67.333 -23 -108 -23c-42 0 -79.5 7 -112.5 21s-61 33.333 -84 58s-40.5 53.334 -52.5 86.001s-18 67.334 -18 104.001s6 71.167 18 103.5
s29.5 60.5 52.5 84.5s51 43 84 57s70.5 21 112.5 21c41.333 0 77.833 -7.83301 109.5 -23.5s58.167 -37.167 79.5 -64.5c21.333 27.333 48.166 48.833 80.499 64.5s69.833 23.5 112.5 23.5s79.5 -6 110.5 -18s56.5 -28.667 76.5 -50s34.667 -46.5 44 -75.5
s14 -60.5 14 -94.5c0 -8.66699 -0.333008 -16.834 -1 -24.501s-1.33398 -14.5 -2.00098 -20.5c-1.33301 -6.66699 -2.66602 -13 -3.99902 -19h-352c4.66699 -34 17 -61.167 37 -81.5s48.667 -30.5 86 -30.5c22.667 0 41 2.33301 55 7s25 10 33 16
c9.33301 6.66699 16 14.334 20 23.001h119v-67c-10.667 -18.667 -26.334 -35.334 -47.001 -50.001c-18.667 -13.333 -42.5 -25 -71.5 -35s-66.167 -15 -111.5 -15zM785 308.999c0 24 -8.33301 45.167 -25 63.5s-42 27.5 -76 27.5c-33.333 0 -58.5 -8.5 -75.5 -25.5
s-28.5 -38.833 -34.5 -65.5h211zM303 115.999c20 0 37.167 3.66699 51.5 11s26.333 17.166 36 29.499s16.834 27 21.501 44s7 34.833 7 53.5s-2.33301 36.167 -7 52.5s-11.834 30.666 -21.501 42.999s-21.667 22 -36 29s-31.5 10.5 -51.5 10.5s-37.167 -3.5 -51.5 -10.5
s-26.333 -16.667 -36 -29s-16.834 -26.666 -21.501 -42.999s-7 -33.833 -7 -52.5s2.33301 -36.5 7 -53.5s11.834 -31.667 21.501 -44s21.667 -22.166 36 -29.499s31.5 -11 51.5 -11z" />
    <glyph glyph-name="Racute" unicode="&#x154;" horiz-adv-x="682" 
d="M82 0l0.000976562 750h246c43.333 0 82.5 -5.66699 117.5 -17s64.833 -27.333 89.5 -48s43.667 -45.667 57 -75s20 -62.333 20 -99c0 -46 -11.833 -86.833 -35.5 -122.5s-56.834 -63.5 -99.501 -83.5l173 -227v-78h-143l-192 264h-67v-264h-166zM327.001 398
c37.333 0 66.5 10 87.5 30s31.5 47 31.5 81c0 29.333 -10.333 53.333 -31 72s-50 28 -88 28h-82v-211h82zM238.001 865l72 80h156v-60l-92 -80h-136v60z" />
    <glyph glyph-name="racute" unicode="&#x155;" horiz-adv-x="481" 
d="M64 505h141.002l7 -66c11.333 21.333 28.166 40.166 50.499 56.499s50.5 24.5 84.5 24.5c39.333 0 69.333 -9.83301 90 -29.5s33 -45.5 37 -77.5v-72h-115l-2 7.5c-1.33301 5 -4.33301 10.667 -9 17s-11.334 12 -20.001 17s-20.334 7.5 -35.001 7.5
c-27.333 0 -47.166 -10.167 -59.499 -30.5s-18.5 -46.166 -18.5 -77.499v-282h-151v505zM206.002 660l77 90h144v-60l-98 -90h-123v60z" />
    <glyph glyph-name="Rcommaaccent" unicode="&#x156;" horiz-adv-x="682" 
d="M82 0l0.000976562 750h246c43.333 0 82.5 -5.66699 117.5 -17s64.833 -27.333 89.5 -48s43.667 -45.667 57 -75s20 -62.333 20 -99c0 -46 -11.833 -86.833 -35.5 -122.5s-56.834 -63.5 -99.501 -83.5l173 -227v-78h-143l-192 264h-67v-264h-166zM327.001 398
c37.333 0 66.5 10 87.5 30s31.5 47 31.5 81c0 29.333 -10.333 53.333 -31 72s-50 28 -88 28h-82v-211h82zM298.001 -52h156v-72l-55 -81h-96z" />
    <glyph glyph-name="rcommaaccent" unicode="&#x157;" horiz-adv-x="481" 
d="M64 505h141.002l7 -66c11.333 21.333 28.166 40.166 50.499 56.499s50.5 24.5 84.5 24.5c39.333 0 69.333 -9.83301 90 -29.5s33 -45.5 37 -77.5v-72h-115l-2 7.5c-1.33301 5 -4.33301 10.667 -9 17s-11.334 12 -20.001 17s-20.334 7.5 -35.001 7.5
c-27.333 0 -47.166 -10.167 -59.499 -30.5s-18.5 -46.166 -18.5 -77.499v-282h-151v505zM66.002 -52h150v-72l-53 -81h-92z" />
    <glyph glyph-name="Rcaron" unicode="&#x158;" horiz-adv-x="682" 
d="M82 0l0.000976562 750h246c43.333 0 82.5 -5.66699 117.5 -17s64.833 -27.333 89.5 -48s43.667 -45.667 57 -75s20 -62.333 20 -99c0 -46 -11.833 -86.833 -35.5 -122.5s-56.834 -63.5 -99.501 -83.5l173 -227v-78h-143l-192 264h-67v-264h-166zM327.001 398
c37.333 0 66.5 10 87.5 30s31.5 47 31.5 81c0 29.333 -10.333 53.333 -31 72s-50 28 -88 28h-82v-211h82zM243.001 800l-94 80v60h116l58 -58l54 58h116v-60l-90 -80h-160z" />
    <glyph glyph-name="rcaron" unicode="&#x159;" horiz-adv-x="481" 
d="M64 505h141.002l7 -66c11.333 21.333 28.166 40.166 50.499 56.499s50.5 24.5 84.5 24.5c39.333 0 69.333 -9.83301 90 -29.5s33 -45.5 37 -77.5v-72h-115l-2 7.5c-1.33301 5 -4.33301 10.667 -9 17s-11.334 12 -20.001 17s-20.334 7.5 -35.001 7.5
c-27.333 0 -47.166 -10.167 -59.499 -30.5s-18.5 -46.166 -18.5 -77.499v-282h-151v505zM184.002 600l-94 90v60h106l63 -73l59 73h106v-60l-90 -90h-150z" />
    <glyph glyph-name="Sacute" unicode="&#x15a;" horiz-adv-x="646" 
d="M324 -15c-38.667 0 -73.3311 4.00098 -103.998 12.001s-57.334 19 -80.001 33s-41.667 30.167 -57 48.5s-27 37.833 -35 58.5v75h131c10 -28 27.167 -50.167 51.5 -66.5s56.5 -24.5 96.5 -24.5c35.333 0 63.666 7.66699 84.999 23s32 37 32 65
c0 24.667 -8.83301 44.334 -26.5 59.001s-45.5 26.334 -83.5 35.001l-69 13c-68.667 13.333 -121.334 38.333 -158.001 75s-55 85.334 -55 146.001c0 36 6.5 68.167 19.5 96.5s31.333 52.166 55 71.499s52.334 34.166 86.001 44.499s71.167 15.5 112.5 15.5
c69.333 0 126.333 -13.333 171 -40s72.334 -63 83.001 -109v-76h-130c-6.66699 25.333 -19.834 46.5 -39.501 63.5s-49.167 25.5 -88.5 25.5c-35.333 0 -62.166 -7.5 -80.499 -22.5s-27.5 -35.167 -27.5 -60.5c0 -20.667 7.66699 -37.834 23 -51.501s41 -24.5 77 -32.5
l72 -16c68.667 -14 122.5 -39.833 161.5 -77.5s58.5 -87.834 58.5 -150.501c0 -36 -6.83301 -68.333 -20.5 -97s-32.834 -53 -57.501 -73s-54.167 -35.5 -88.5 -46.5s-72.5 -16.5 -114.5 -16.5zM251.003 865.001l72 80h156v-60l-92 -80h-136v60z" />
    <glyph glyph-name="sacute" unicode="&#x15b;" horiz-adv-x="508" 
d="M258 -15c-34.667 0 -64.998 3.66406 -90.998 10.9971s-48 16.166 -66 26.499s-32 21.333 -42 33s-16.667 21.5 -20 29.5v68h113c1.33301 -4 4.33301 -9.16699 9 -15.5s11.5 -12.666 20.5 -18.999s20 -11.833 33 -16.5s28.167 -7 45.5 -7c29.333 0 49.666 4.5 60.999 13.5
s17 20.5 17 34.5c0 16 -6.83301 27.667 -20.5 35s-32.5 13 -56.5 17l-64 8c-46 6 -82.667 20.833 -110 44.5s-41 59.167 -41 106.5c0 24 4.66699 46.167 14 66.5s23 37.833 41 52.5s39.667 26.167 65 34.5s54 12.5 86 12.5c58 0 103 -9.5 135 -28.5s53.333 -41.5 64 -67.5
v-68h-114c-0.666992 2.66699 -2.66699 7 -6 13s-8.5 12 -15.5 18s-16 11.333 -27 16s-24.167 7 -39.5 7c-24 0 -41.333 -4.5 -52 -13.5s-16 -20.5 -16 -34.5c0 -25.333 21.333 -41.666 64 -48.999l64 -9c24 -3.33301 46.167 -8.5 66.5 -15.5s37.666 -16.167 51.999 -27.5
s25.5 -25.666 33.5 -42.999s12 -38 12 -62c0 -24.667 -4.83301 -47.5 -14.5 -68.5s-23.667 -39.167 -42 -54.5s-40.833 -27.166 -67.5 -35.499s-57 -12.5 -91 -12.5zM182.002 659.997l77 90h144v-60l-98 -90h-123v60z" />
    <glyph glyph-name="Scircumflex" unicode="&#x15c;" horiz-adv-x="646" 
d="M324 -15c-38.667 0 -73.3311 4.00098 -103.998 12.001s-57.334 19 -80.001 33s-41.667 30.167 -57 48.5s-27 37.833 -35 58.5v75h131c10 -28 27.167 -50.167 51.5 -66.5s56.5 -24.5 96.5 -24.5c35.333 0 63.666 7.66699 84.999 23s32 37 32 65
c0 24.667 -8.83301 44.334 -26.5 59.001s-45.5 26.334 -83.5 35.001l-69 13c-68.667 13.333 -121.334 38.333 -158.001 75s-55 85.334 -55 146.001c0 36 6.5 68.167 19.5 96.5s31.333 52.166 55 71.499s52.334 34.166 86.001 44.499s71.167 15.5 112.5 15.5
c69.333 0 126.333 -13.333 171 -40s72.334 -63 83.001 -109v-76h-130c-6.66699 25.333 -19.834 46.5 -39.501 63.5s-49.167 25.5 -88.5 25.5c-35.333 0 -62.166 -7.5 -80.499 -22.5s-27.5 -35.167 -27.5 -60.5c0 -20.667 7.66699 -37.834 23 -51.501s41 -24.5 77 -32.5
l72 -16c68.667 -14 122.5 -39.833 161.5 -77.5s58.5 -87.834 58.5 -150.501c0 -36 -6.83301 -68.333 -20.5 -97s-32.834 -53 -57.501 -73s-54.167 -35.5 -88.5 -46.5s-72.5 -16.5 -114.5 -16.5zM323.003 858.001l-56 -58h-116v60l92 80h160l92 -80v-60h-116z" />
    <glyph glyph-name="scircumflex" unicode="&#x15d;" horiz-adv-x="508" 
d="M258 -15c-34.667 0 -64.998 3.66406 -90.998 10.9971s-48 16.166 -66 26.499s-32 21.333 -42 33s-16.667 21.5 -20 29.5v68h113c1.33301 -4 4.33301 -9.16699 9 -15.5s11.5 -12.666 20.5 -18.999s20 -11.833 33 -16.5s28.167 -7 45.5 -7c29.333 0 49.666 4.5 60.999 13.5
s17 20.5 17 34.5c0 16 -6.83301 27.667 -20.5 35s-32.5 13 -56.5 17l-64 8c-46 6 -82.667 20.833 -110 44.5s-41 59.167 -41 106.5c0 24 4.66699 46.167 14 66.5s23 37.833 41 52.5s39.667 26.167 65 34.5s54 12.5 86 12.5c58 0 103 -9.5 135 -28.5s53.333 -41.5 64 -67.5
v-68h-114c-0.666992 2.66699 -2.66699 7 -6 13s-8.5 12 -15.5 18s-16 11.333 -27 16s-24.167 7 -39.5 7c-24 0 -41.333 -4.5 -52 -13.5s-16 -20.5 -16 -34.5c0 -25.333 21.333 -41.666 64 -48.999l64 -9c24 -3.33301 46.167 -8.5 66.5 -15.5s37.666 -16.167 51.999 -27.5
s25.5 -25.666 33.5 -42.999s12 -38 12 -62c0 -24.667 -4.83301 -47.5 -14.5 -68.5s-23.667 -39.167 -42 -54.5s-40.833 -27.166 -67.5 -35.499s-57 -12.5 -91 -12.5zM258.002 672.997l-61 -73h-106v60l92 90h150l92 -90v-60h-106z" />
    <glyph glyph-name="Scedilla" unicode="&#x15e;" horiz-adv-x="646" 
d="M462 -123c0 -19.333 -3.83398 -35.166 -11.501 -47.499s-17.5 -22.333 -29.5 -30s-25.333 -13.167 -40 -16.5s-29 -5.66602 -43 -6.99902h-85v80c19.333 0 35.5 2.33301 48.5 7s19.5 14.334 19.5 29.001c0 14 -6.83301 23.333 -20.5 28s-28.167 7 -43.5 7v63
c-57.333 8.66699 -103.166 26.5 -137.499 53.5s-58.166 58.167 -71.499 93.5v75h131c10 -28 27.167 -50.167 51.5 -66.5s56.5 -24.5 96.5 -24.5c35.333 0 63.666 7.66699 84.999 23s32 37 32 65c0 24.667 -8.83301 44.334 -26.5 59.001s-45.5 26.334 -83.5 35.001l-69 13
c-68.667 13.333 -121.334 38.333 -158.001 75s-55 85.334 -55 146.001c0 36 6.5 68.167 19.5 96.5s31.333 52.166 55 71.499s52.334 34.166 86.001 44.499s71.167 15.5 112.5 15.5c69.333 0 126.333 -13.333 171 -40s72.334 -63 83.001 -109v-76h-130
c-6.66699 25.333 -19.834 46.5 -39.501 63.5s-49.167 25.5 -88.5 25.5c-35.333 0 -62.166 -7.5 -80.499 -22.5s-27.5 -35.167 -27.5 -60.5c0 -20.667 7.66699 -37.834 23 -51.501s41 -24.5 77 -32.5l72 -16c68.667 -14 122.5 -39.833 161.5 -77.5
s58.5 -87.834 58.5 -150.501c0 -32 -5.33301 -61 -16 -87s-26 -48.833 -46 -68.5s-44 -35.834 -72 -48.501s-59 -21.334 -93 -26.001v-28c25.333 -4 45.666 -13 60.999 -27s23 -32.667 23 -56z" />
    <glyph glyph-name="scedilla" unicode="&#x15f;" horiz-adv-x="508" 
d="M398 -122c0 -19.333 -3.8291 -35.1719 -11.4961 -47.5049s-17.5 -22.333 -29.5 -30s-25.333 -13.167 -40 -16.5s-29 -5.66602 -43 -6.99902h-85v80c19.333 0 35.5 2.33301 48.5 7s19.5 14.334 19.5 29.001c0 14 -6.83301 23.333 -20.5 28s-28.167 7 -43.5 7v62
c-24 4 -45 10 -63 18s-33.333 16.5 -46 25.5s-22.667 18.167 -30 27.5s-12.333 17.333 -15 24v68h113c1.33301 -4 4.33301 -9.16699 9 -15.5s11.5 -12.666 20.5 -18.999s20 -11.833 33 -16.5s28.167 -7 45.5 -7c29.333 0 49.666 4.5 60.999 13.5s17 20.5 17 34.5
c0 16 -6.83301 27.667 -20.5 35s-32.5 13 -56.5 17l-64 8c-46 6 -82.667 20.833 -110 44.5s-41 59.167 -41 106.5c0 24 4.66699 46.167 14 66.5s23 37.833 41 52.5s39.667 26.167 65 34.5s54 12.5 86 12.5c58 0 103 -9.5 135 -28.5s53.333 -41.5 64 -67.5v-68h-114
c-0.666992 2.66699 -2.66699 7 -6 13s-8.5 12 -15.5 18s-16 11.333 -27 16s-24.167 7 -39.5 7c-24 0 -41.333 -4.5 -52 -13.5s-16 -20.5 -16 -34.5c0 -25.333 21.333 -41.666 64 -48.999l64 -9c24 -3.33301 46.167 -8.5 66.5 -15.5s37.666 -16.167 51.999 -27.5
s25.5 -25.666 33.5 -42.999s12 -38 12 -62c0 -42.667 -13.833 -79 -41.5 -109s-66.834 -49.333 -117.501 -58v-28c25.333 -4 45.666 -13 60.999 -27s23 -32.667 23 -56z" />
    <glyph glyph-name="Scaron" unicode="&#x160;" horiz-adv-x="646" 
d="M324 -15c-38.667 0 -73.3311 4.00098 -103.998 12.001s-57.334 19 -80.001 33s-41.667 30.167 -57 48.5s-27 37.833 -35 58.5v75h131c10 -28 27.167 -50.167 51.5 -66.5s56.5 -24.5 96.5 -24.5c35.333 0 63.666 7.66699 84.999 23s32 37 32 65
c0 24.667 -8.83301 44.334 -26.5 59.001s-45.5 26.334 -83.5 35.001l-69 13c-68.667 13.333 -121.334 38.333 -158.001 75s-55 85.334 -55 146.001c0 36 6.5 68.167 19.5 96.5s31.333 52.166 55 71.499s52.334 34.166 86.001 44.499s71.167 15.5 112.5 15.5
c69.333 0 126.333 -13.333 171 -40s72.334 -63 83.001 -109v-76h-130c-6.66699 25.333 -19.834 46.5 -39.501 63.5s-49.167 25.5 -88.5 25.5c-35.333 0 -62.166 -7.5 -80.499 -22.5s-27.5 -35.167 -27.5 -60.5c0 -20.667 7.66699 -37.834 23 -51.501s41 -24.5 77 -32.5
l72 -16c68.667 -14 122.5 -39.833 161.5 -77.5s58.5 -87.834 58.5 -150.501c0 -36 -6.83301 -68.333 -20.5 -97s-32.834 -53 -57.501 -73s-54.167 -35.5 -88.5 -46.5s-72.5 -16.5 -114.5 -16.5zM248.003 800.001l-94 80v60h116l58 -58l54 58h116v-60l-90 -80h-160z" />
    <glyph glyph-name="scaron" unicode="&#x161;" horiz-adv-x="508" 
d="M258 -15c-34.667 0 -64.998 3.66406 -90.998 10.9971s-48 16.166 -66 26.499s-32 21.333 -42 33s-16.667 21.5 -20 29.5v68h113c1.33301 -4 4.33301 -9.16699 9 -15.5s11.5 -12.666 20.5 -18.999s20 -11.833 33 -16.5s28.167 -7 45.5 -7c29.333 0 49.666 4.5 60.999 13.5
s17 20.5 17 34.5c0 16 -6.83301 27.667 -20.5 35s-32.5 13 -56.5 17l-64 8c-46 6 -82.667 20.833 -110 44.5s-41 59.167 -41 106.5c0 24 4.66699 46.167 14 66.5s23 37.833 41 52.5s39.667 26.167 65 34.5s54 12.5 86 12.5c58 0 103 -9.5 135 -28.5s53.333 -41.5 64 -67.5
v-68h-114c-0.666992 2.66699 -2.66699 7 -6 13s-8.5 12 -15.5 18s-16 11.333 -27 16s-24.167 7 -39.5 7c-24 0 -41.333 -4.5 -52 -13.5s-16 -20.5 -16 -34.5c0 -25.333 21.333 -41.666 64 -48.999l64 -9c24 -3.33301 46.167 -8.5 66.5 -15.5s37.666 -16.167 51.999 -27.5
s25.5 -25.666 33.5 -42.999s12 -38 12 -62c0 -24.667 -4.83301 -47.5 -14.5 -68.5s-23.667 -39.167 -42 -54.5s-40.833 -27.166 -67.5 -35.499s-57 -12.5 -91 -12.5zM180.002 599.997l-94 90v60h106l63 -73l59 73h106v-60l-90 -90h-150z" />
    <glyph glyph-name="Tcommaaccent" unicode="&#x162;" horiz-adv-x="635" 
d="M234 609h-214v141h595v-141h-215v-609h-166v609zM241 -52h156v-72l-55 -81h-96z" />
    <glyph glyph-name="tcommaaccent" unicode="&#x163;" horiz-adv-x="475" 
d="M214 -52h156v-72l-55 -81h-96zM292 -15c-62.667 0 -110.83 17.1689 -144.497 51.502s-50.5 81.833 -50.5 142.5v203h-75v123h77l8 128h141v-128h200v-123h-200v-198c0 -49.333 18.667 -74 56 -74c10 0 18.167 1.5 24.5 4.5s11.166 6.66699 14.499 11
s5.66602 8.66602 6.99902 12.999s2 7.83301 2 10.5h108v-68c-10.667 -26.667 -29.334 -49.334 -56.001 -68.001s-64 -28 -112 -28z" />
    <glyph glyph-name="Tcaron" unicode="&#x164;" horiz-adv-x="635" 
d="M234 609h-214v141h595v-141h-215v-609h-166v609zM239 800l-94 80v60h116l58 -58l54 58h116v-60l-90 -80h-160z" />
    <glyph glyph-name="tcaron" unicode="&#x165;" horiz-adv-x="475" 
d="M328 750h146v-90l-45 -101h-96zM292 -15c-62.667 0 -110.83 17.1689 -144.497 51.502s-50.5 81.833 -50.5 142.5v203h-75v123h77l8 128h141v-128h200v-123h-200v-198c0 -49.333 18.667 -74 56 -74c10 0 18.167 1.5 24.5 4.5s11.166 6.66699 14.499 11
s5.66602 8.66602 6.99902 12.999s2 7.83301 2 10.5h108v-68c-10.667 -26.667 -29.334 -49.334 -56.001 -68.001s-64 -28 -112 -28z" />
    <glyph glyph-name="Tbar" unicode="&#x166;" horiz-adv-x="655" 
d="M410 303v-303h-166v303h-149v126h149v180h-214v141h595v-141h-215v-180h149v-126h-149z" />
    <glyph glyph-name="tbar" unicode="&#x167;" horiz-adv-x="478" 
d="M462 81c-10.667 -26.667 -29.3301 -49.332 -55.9971 -67.999s-64 -28 -112 -28c-62.667 0 -110.834 17.167 -144.501 51.5s-50.5 81.833 -50.5 142.5v49h-75v92h75v62h-75v123h77l8 128h141v-128h200v-123h-200v-62h200v-92h-200v-44c0 -49.333 18.667 -74 56 -74
c10 0 18.167 1.5 24.5 4.5s11.166 6.66699 14.499 11s5.66602 8.66602 6.99902 12.999s2 7.83301 2 10.5h108v-68z" />
    <glyph glyph-name="Utilde" unicode="&#x168;" horiz-adv-x="759" 
d="M383 -15c-47.333 0 -90.0029 7.66699 -128.003 23s-70.5 36 -97.5 62s-47.667 56.667 -62 92s-21.5 73 -21.5 113v475h166v-476c0 -20.667 3.16699 -40 9.5 -58s15.5 -33.667 27.5 -47s26.833 -23.833 44.5 -31.5s37.834 -11.5 60.501 -11.5
c23.333 0 44.166 3.83301 62.499 11.5s33.833 18.167 46.5 31.5s22.167 29 28.5 47s9.5 37.333 9.5 58v476h156v-475c0 -40 -7.16699 -77.667 -21.5 -113s-34.666 -66 -60.999 -92s-58.166 -46.667 -95.499 -62s-78.666 -23 -123.999 -23zM459.997 792
c-14 0 -26.168 1.5 -36.501 4.5s-20 6.5 -29 10.5s-17.667 7.5 -26 10.5s-17.166 4.5 -26.499 4.5c-19.333 0 -31 -8.33301 -35 -25h-100c-2.66699 40.667 5.33301 73.667 24 99s46 38 82 38c14 0 26 -1.5 36 -4.5s19.167 -6.5 27.5 -10.5s16.333 -7.5 24 -10.5
s16.167 -4.5 25.5 -4.5c7.33301 0 14.333 1.66699 21 5s11 10 13 20h100c2.66699 -41.333 -3.83301 -74.5 -19.5 -99.5s-42.5 -37.5 -80.5 -37.5z" />
    <glyph glyph-name="utilde" unicode="&#x169;" horiz-adv-x="599" 
d="M241 -15c-33.333 0 -61.6699 5.50098 -85.0029 16.501s-42.166 26 -56.499 45s-24.666 41 -30.999 66s-9.5 51.167 -9.5 78.5v314h151v-286c0 -30 6 -54 18 -72s32.667 -27 62 -27c18 0 33 3 45 9s21.667 13.667 29 23s12.5 20.166 15.5 32.499s4.5 24.5 4.5 36.5v284
h151v-505h-141l-7 67c-5.33301 -9.33301 -12.5 -18.833 -21.5 -28.5s-19.5 -18.5 -31.5 -26.5s-25.667 -14.5 -41 -19.5s-32.666 -7.5 -51.999 -7.5zM376.996 599.001c-16 0 -29.333 1.83301 -40 5.5s-20.334 7.66699 -29.001 12l-25 12c-8 3.66699 -17.667 5.5 -29 5.5
c-18 0 -29.667 -10 -35 -30h-95c-2.66699 40.667 5.33301 73.667 24 99s46 38 82 38c16 0 29.167 -1.83301 39.5 -5.5s19.5 -7.5 27.5 -11.5l23.5 -11.5c7.66699 -3.66699 16.834 -5.5 27.501 -5.5c7.33301 0 14.333 2 21 6s11 11.667 13 23h95
c2.66699 -40.667 -3.83301 -73.667 -19.5 -99s-42.5 -38 -80.5 -38z" />
    <glyph glyph-name="Umacron" unicode="&#x16a;" horiz-adv-x="759" 
d="M383 -15c-47.333 0 -90.0029 7.66699 -128.003 23s-70.5 36 -97.5 62s-47.667 56.667 -62 92s-21.5 73 -21.5 113v475h166v-476c0 -20.667 3.16699 -40 9.5 -58s15.5 -33.667 27.5 -47s26.833 -23.833 44.5 -31.5s37.834 -11.5 60.501 -11.5
c23.333 0 44.166 3.83301 62.499 11.5s33.833 18.167 46.5 31.5s22.167 29 28.5 47s9.5 37.333 9.5 58v476h156v-475c0 -40 -7.16699 -77.667 -21.5 -113s-34.666 -66 -60.999 -92s-58.166 -46.667 -95.499 -62s-78.666 -23 -123.999 -23zM231.997 915h306v-110h-306v110z
" />
    <glyph glyph-name="umacron" unicode="&#x16b;" horiz-adv-x="599" 
d="M241 -15c-33.333 0 -61.6699 5.50098 -85.0029 16.501s-42.166 26 -56.499 45s-24.666 41 -30.999 66s-9.5 51.167 -9.5 78.5v314h151v-286c0 -30 6 -54 18 -72s32.667 -27 62 -27c18 0 33 3 45 9s21.667 13.667 29 23s12.5 20.166 15.5 32.499s4.5 24.5 4.5 36.5v284
h151v-505h-141l-7 67c-5.33301 -9.33301 -12.5 -18.833 -21.5 -28.5s-19.5 -18.5 -31.5 -26.5s-25.667 -14.5 -41 -19.5s-32.666 -7.5 -51.999 -7.5zM153.996 726.001h286v-116h-286v116z" />
    <glyph glyph-name="Ubreve" unicode="&#x16c;" horiz-adv-x="759" 
d="M383 -15c-47.333 0 -90.0029 7.66699 -128.003 23s-70.5 36 -97.5 62s-47.667 56.667 -62 92s-21.5 73 -21.5 113v475h166v-476c0 -20.667 3.16699 -40 9.5 -58s15.5 -33.667 27.5 -47s26.833 -23.833 44.5 -31.5s37.834 -11.5 60.501 -11.5
c23.333 0 44.166 3.83301 62.499 11.5s33.833 18.167 46.5 31.5s22.167 29 28.5 47s9.5 37.333 9.5 58v476h156v-475c0 -40 -7.16699 -77.667 -21.5 -113s-34.666 -66 -60.999 -92s-58.166 -46.667 -95.499 -62s-78.666 -23 -123.999 -23zM383.997 790
c-32.667 0 -58.8311 3.50098 -78.498 10.501s-35.167 14.833 -46.5 23.5c-12.667 10 -22 21.333 -28 34v75h80c2.66699 -8 7.33398 -15 14.001 -21c5.33301 -6 12.666 -11 21.999 -15s21.666 -6 36.999 -6s27.666 2.16699 36.999 6.5s16.333 9.16602 21 14.499
c5.33301 6 9 13 11 21h80v-75c-5.33301 -12.667 -14.333 -24 -27 -34c-11.333 -9.33301 -26.5 -17.333 -45.5 -24s-44.5 -10 -76.5 -10z" />
    <glyph glyph-name="ubreve" unicode="&#x16d;" horiz-adv-x="599" 
d="M241 -15c-33.333 0 -61.6699 5.50098 -85.0029 16.501s-42.166 26 -56.499 45s-24.666 41 -30.999 66s-9.5 51.167 -9.5 78.5v314h151v-286c0 -30 6 -54 18 -72s32.667 -27 62 -27c18 0 33 3 45 9s21.667 13.667 29 23s12.5 20.166 15.5 32.499s4.5 24.5 4.5 36.5v284
h151v-505h-141l-7 67c-5.33301 -9.33301 -12.5 -18.833 -21.5 -28.5s-19.5 -18.5 -31.5 -26.5s-25.667 -14.5 -41 -19.5s-32.666 -7.5 -51.999 -7.5zM295.996 588.001c-30.667 0 -55.8311 3.66895 -75.498 11.002s-35.5 15.666 -47.5 24.999
c-13.333 10.667 -23.333 22.667 -30 36v75h80c4 -8 9.33301 -15 16 -21c5.33301 -6 12.666 -11 21.999 -15s21 -6 35 -6c14.667 0 26.334 2.16699 35.001 6.5s15.667 9.16602 21 14.499c6 6 10.333 13 13 21h80v-75c-6.66699 -13.333 -16.334 -25.333 -29.001 -36
c-12 -10 -27.333 -18.5 -46 -25.5s-43.334 -10.5 -74.001 -10.5z" />
    <glyph glyph-name="Uring" unicode="&#x16e;" horiz-adv-x="759" 
d="M382 783c-47.333 0 -82.166 8.66699 -104.499 26s-33.5 39.666 -33.5 66.999c0 26.667 11.167 48.834 33.5 66.501s57.166 26.5 104.499 26.5c48 0 83.167 -8.83301 105.5 -26.5s33.5 -39.834 33.5 -66.501c0 -27.333 -11.167 -49.666 -33.5 -66.999
s-57.5 -26 -105.5 -26zM382 849c10.667 0 20 2.33301 28 7s12 11.334 12 20.001s-4 15.334 -12 20.001s-17.333 7 -28 7s-20 -2.33301 -28 -7s-12 -11.334 -12 -20.001s4 -15.334 12 -20.001s17.333 -7 28 -7zM383 -15c-47.333 0 -90.0029 7.66699 -128.003 23
s-70.5 36 -97.5 62s-47.667 56.667 -62 92s-21.5 73 -21.5 113v475h166v-476c0 -20.667 3.16699 -40 9.5 -58s15.5 -33.667 27.5 -47s26.833 -23.833 44.5 -31.5s37.834 -11.5 60.501 -11.5c23.333 0 44.166 3.83301 62.499 11.5s33.833 18.167 46.5 31.5s22.167 29 28.5 47
s9.5 37.333 9.5 58v476h156v-475c0 -40 -7.16699 -77.667 -21.5 -113s-34.666 -66 -60.999 -92s-58.166 -46.667 -95.499 -62s-78.666 -23 -123.999 -23z" />
    <glyph glyph-name="uring" unicode="&#x16f;" horiz-adv-x="599" 
d="M241 -15c-33.333 0 -61.6699 5.50098 -85.0029 16.501s-42.166 26 -56.499 45s-24.666 41 -30.999 66s-9.5 51.167 -9.5 78.5v314h151v-286c0 -30 6 -54 18 -72s32.667 -27 62 -27c18 0 33 3 45 9s21.667 13.667 29 23s12.5 20.166 15.5 32.499s4.5 24.5 4.5 36.5v284
h151v-505h-141l-7 67c-5.33301 -9.33301 -12.5 -18.833 -21.5 -28.5s-19.5 -18.5 -31.5 -26.5s-25.667 -14.5 -41 -19.5s-32.666 -7.5 -51.999 -7.5zM294.996 567.001c-46 0 -79.667 9.16699 -101 27.5s-32 41.166 -32 68.499c0 26.667 10.667 49.334 32 68.001
s55 28 101 28s79.833 -9.33301 101.5 -28s32.5 -41.334 32.5 -68.001c0 -27.333 -10.833 -50.166 -32.5 -68.499s-55.5 -27.5 -101.5 -27.5zM294.996 633.001c9.33301 0 17.5 2.66699 24.5 8s10.5 12.666 10.5 21.999s-3.5 16.666 -10.5 21.999s-15.167 8 -24.5 8
s-17.5 -2.66699 -24.5 -8s-10.5 -12.666 -10.5 -21.999s3.5 -16.666 10.5 -21.999s15.167 -8 24.5 -8z" />
    <glyph glyph-name="Uhungarumlaut" unicode="&#x170;" horiz-adv-x="759" 
d="M383 -15c-47.333 0 -90.0029 7.66699 -128.003 23s-70.5 36 -97.5 62s-47.667 56.667 -62 92s-21.5 73 -21.5 113v475h166v-476c0 -20.667 3.16699 -40 9.5 -58s15.5 -33.667 27.5 -47s26.833 -23.833 44.5 -31.5s37.834 -11.5 60.501 -11.5
c23.333 0 44.166 3.83301 62.499 11.5s33.833 18.167 46.5 31.5s22.167 29 28.5 47s9.5 37.333 9.5 58v476h156v-475c0 -40 -7.16699 -77.667 -21.5 -113s-34.666 -66 -60.999 -92s-58.166 -46.667 -95.499 -62s-78.666 -23 -123.999 -23zM214.997 865l55 80h141l-14 -60
l-62 -80h-120v60zM411.997 865l72 80h141v-60l-92 -80h-121v60z" />
    <glyph glyph-name="uhungarumlaut" unicode="&#x171;" horiz-adv-x="599" 
d="M241 -15c-33.333 0 -61.6699 5.50098 -85.0029 16.501s-42.166 26 -56.499 45s-24.666 41 -30.999 66s-9.5 51.167 -9.5 78.5v314h151v-286c0 -30 6 -54 18 -72s32.667 -27 62 -27c18 0 33 3 45 9s21.667 13.667 29 23s12.5 20.166 15.5 32.499s4.5 24.5 4.5 36.5v284
h151v-505h-141l-7 67c-5.33301 -9.33301 -12.5 -18.833 -21.5 -28.5s-19.5 -18.5 -31.5 -26.5s-25.667 -14.5 -41 -19.5s-32.666 -7.5 -51.999 -7.5zM146.996 660.001l55 90h136l-13 -65l-63 -85h-115v60zM338.996 660.001l72 90h131v-60l-92 -90h-111v60z" />
    <glyph glyph-name="Uogonek" unicode="&#x172;" horiz-adv-x="759" 
d="M489 -192l-80.002 -0.000976562c-12.667 0.666992 -26.5 2.66699 -41.5 6s-28.667 8.83301 -41 16.5s-22.666 17.834 -30.999 30.501s-12.5 28.667 -12.5 48c0 18 5 33.833 15 47.5s23.667 23.834 41 30.501c-40.667 4.66699 -77.334 15.5 -110.001 32.5
s-60.5 38.167 -83.5 63.5s-40.667 54.5 -53 87.5s-18.5 67.833 -18.5 104.5v475h166v-476c0 -20.667 3.16699 -40 9.5 -58s15.5 -33.667 27.5 -47s26.833 -23.833 44.5 -31.5s37.834 -11.5 60.501 -11.5c23.333 0 44.166 3.83301 62.499 11.5s33.833 18.167 46.5 31.5
s22.167 29 28.5 47s9.5 37.333 9.5 58v476h156v-475c0 -34 -5.16699 -66.167 -15.5 -96.5s-25.166 -57.833 -44.499 -82.5s-42.666 -45.834 -69.999 -63.501s-58 -30.5 -92 -38.5c-15.333 -5.33301 -27 -11.833 -35 -19.5s-12 -18.5 -12 -32.5
c0 -10.667 2.66699 -19.167 8 -25.5s11.833 -11.333 19.5 -15s15.667 -6 24 -7s15.5 -1.5 21.5 -1.5v-85z" />
    <glyph glyph-name="uogonek" unicode="&#x173;" horiz-adv-x="599" 
d="M345 -91c0 23.333 7.66309 43.333 22.9961 60s35.666 27 60.999 31h-35l-7 67c-5.33301 -9.33301 -12.5 -18.833 -21.5 -28.5s-19.5 -18.5 -31.5 -26.5s-25.667 -14.5 -41 -19.5s-32.666 -7.5 -51.999 -7.5c-33.333 0 -61.666 5.5 -84.999 16.5s-42.166 26 -56.499 45
s-24.666 41 -30.999 66s-9.5 51.167 -9.5 78.5v314h151v-286c0 -30 6 -54 18 -72s32.667 -27 62 -27c18 0 33 3 45 9s21.667 13.667 29 23s12.5 20.166 15.5 32.499s4.5 24.5 4.5 36.5v284h151v-505c-6 -1.33301 -12.5 -3 -19.5 -5s-13.167 -5 -18.5 -9
s-9.83301 -9.16699 -13.5 -15.5s-5.5 -14.5 -5.5 -24.5c0 -12 2.66699 -21.5 8 -28.5s11.833 -12.333 19.5 -16s15.667 -6 24 -7s15.5 -1.5 21.5 -1.5v-85h-80c-12.667 0.666992 -26.5 2.66699 -41.5 6s-28.667 8.83301 -41 16.5s-22.666 17.834 -30.999 30.501
s-12.5 28.667 -12.5 48z" />
    <glyph glyph-name="Wcircumflex" unicode="&#x174;" horiz-adv-x="1000" 
d="M499 458l-127 -458h-169l-179 670v80h154l119 -515l137 515h141l133 -515l124 515h146v-70l-181 -680h-169zM504 858l-56 -58h-116v60l92 80h160l92 -80v-60h-116z" />
    <glyph glyph-name="wcircumflex" unicode="&#x175;" horiz-adv-x="800" 
d="M396 291l-86 -291h-136l-151 435v70h136l93 -301l91 301h124l94 -300l90 300h128v-67l-155 -438h-136zM408 673l-61 -73h-106v60l92 90h150l92 -90v-60h-106z" />
    <glyph glyph-name="Ycircumflex" unicode="&#x176;" horiz-adv-x="662" 
d="M249 300l-242 372v78h146l190 -304l178 304h130v-75l-236 -376v-299h-166v300zM332 858l-56 -58h-116v60l92 80h160l92 -80v-60h-116z" />
    <glyph glyph-name="ycircumflex" unicode="&#x177;" horiz-adv-x="556" 
d="M76 -250v70l126 226l-182 389v70h136l129 -296l134 296h125v-67l-340 -688h-128zM288 673l-61 -73h-106v60l92 90h150l92 -90v-60h-106z" />
    <glyph glyph-name="Ydieresis" unicode="&#x178;" horiz-adv-x="662" 
d="M249 300l-242 372v78h146l190 -304l178 304h130v-75l-236 -376v-299h-166v300zM157 935h150v-135h-150v135zM362 935h151v-135h-151v135z" />
    <glyph glyph-name="Zacute" unicode="&#x179;" horiz-adv-x="643" 
d="M41 0v131l356 478h-346v141h541v-131l-355 -478h366v-141h-562zM247 865l72 80h156v-60l-92 -80h-136v60z" />
    <glyph glyph-name="zacute" unicode="&#x17a;" horiz-adv-x="503" 
d="M41 0v113l236 269h-231v123h411v-113l-236 -269h241v-123h-421zM186 660l77 90h144v-60l-98 -90h-123v60z" />
    <glyph glyph-name="Zdotaccent" unicode="&#x17b;" horiz-adv-x="643" 
d="M41 0v131l356 478h-346v141h541v-131l-355 -478h366v-141h-562zM237 935h166v-135h-166v135z" />
    <glyph glyph-name="zdotaccent" unicode="&#x17c;" horiz-adv-x="503" 
d="M41 0v113l236 269h-231v123h411v-113l-236 -269h241v-123h-421zM180 740h156v-140h-156v140z" />
    <glyph glyph-name="Zcaron" unicode="&#x17d;" horiz-adv-x="643" 
d="M41 0v131l356 478h-346v141h541v-131l-355 -478h366v-141h-562zM250 800l-94 80v60h116l58 -58l54 58h116v-60l-90 -80h-160z" />
    <glyph glyph-name="zcaron" unicode="&#x17e;" horiz-adv-x="503" 
d="M41 0v113l236 269h-231v123h411v-113l-236 -269h241v-123h-421zM182 600l-94 90v60h106l63 -73l59 73h106v-60l-90 -90h-150z" />
    <glyph glyph-name="florin" unicode="&#x192;" horiz-adv-x="718" 
d="M145 -185c-44.667 0.666992 -80.1689 9.3291 -106.502 25.9961s-44.166 38.334 -53.499 65.001v67h113c0 -3.33301 3 -9.16602 9 -17.499s18 -12.833 36 -13.5c21.333 0.666992 36.333 7.16699 45 19.5s15 29.5 19 51.5l57 319h-84v123h106l19 106
c5.33301 30 13.166 57.167 23.499 81.5s24 45.333 41 63s37.667 31.167 62 40.5s53.5 14 87.5 14c44.667 0 80 -8.33301 106 -25s43.667 -38.667 53 -66v-68h-112c0 4 -3 10.167 -9 18.5s-18.333 12.5 -37 12.5c-21.333 0 -36.333 -6 -45 -18s-15 -29.333 -19 -52l-19 -107
h140v-123h-162l-57 -319c-5.33301 -29.333 -13.166 -56.166 -23.499 -80.499s-24 -45.166 -41 -62.499s-37.667 -30.833 -62 -40.5s-53.166 -14.5 -86.499 -14.5z" />
    <glyph glyph-name="Aringacute" unicode="&#x1fa;" horiz-adv-x="706" 
d="M284 1069l72 80h156v-60l-92 -80h-136v60zM13 0v70l255 680h169l254 -670v-80h-144l-58 159h-286l-57 -159h-133zM347 571l-98 -276h196zM350 785c-47.333 0 -82.166 8.66699 -104.499 26s-33.5 39.666 -33.5 66.999c0 26.667 11.167 48.834 33.5 66.501
s57.166 26.5 104.499 26.5c48 0 83.167 -8.83301 105.5 -26.5s33.5 -39.834 33.5 -66.501c0 -27.333 -11.167 -49.666 -33.5 -66.999s-57.5 -26 -105.5 -26zM350 851c10.667 0 20 2.33301 28 7s12 11.334 12 20.001s-4 15.334 -12 20.001s-17.333 7 -28 7
s-20 -2.33301 -28 -7s-12 -11.334 -12 -20.001s4 -15.334 12 -20.001s17.333 -7 28 -7z" />
    <glyph glyph-name="aringacute" unicode="&#x1fb;" horiz-adv-x="551" 
d="M197 -15c-28 0 -52.3281 4.16992 -72.9951 12.5029s-37.834 19.666 -51.501 33.999s-24 31 -31 50s-10.5 39.167 -10.5 60.5c0 48 17.667 86.167 53 114.5s90 42.5 164 42.5c13.333 0 25.666 -0.5 36.999 -1.5s21.333 -2.16699 30 -3.5c9.33301 -1.33301 18.333 -3 27 -5
v22c0 56 -27.667 84 -83 84c-16.667 0 -30.334 -2.33301 -41.001 -7s-19.334 -10 -26.001 -16c-8 -6.66699 -14.333 -14.334 -19 -23.001h-114v67c9.33301 19.333 23.333 36.666 42 51.999c16 14 36.833 26.167 62.5 36.5s58.5 15.5 98.5 15.5c154 0 231 -71.333 231 -214
v-306h-136l-10 64c-12.667 -20.667 -30.834 -39 -54.501 -55s-55.5 -24 -95.5 -24zM246.005 101.003c16 0 29.999 2.66699 41.999 8s22 12 30 20s14 16.833 18 26.5s6 18.834 6 27.501v22c-7.33301 1.33301 -15.333 2.66602 -24 3.99902c-8 1.33301 -17 2.33301 -27 3
s-21 1 -33 1c-30 0 -50.5 -5.5 -61.5 -16.5s-16.5 -24.5 -16.5 -40.5c0 -19.333 5.83301 -33.333 17.5 -42s27.834 -13 48.501 -13zM283.004 568.003c-46 0 -79.667 9.16699 -101 27.5s-32 41.166 -32 68.499c0 26.667 10.667 49.334 32 68.001s55 28 101 28
s79.833 -9.33301 101.5 -28s32.5 -41.334 32.5 -68.001c0 -27.333 -10.833 -50.166 -32.5 -68.499s-55.5 -27.5 -101.5 -27.5zM283.004 634.003c9.33301 0 17.5 2.66699 24.5 8s10.5 12.666 10.5 21.999s-3.5 16.666 -10.5 21.999s-15.167 8 -24.5 8
s-17.5 -2.66699 -24.5 -8s-10.5 -12.666 -10.5 -21.999s3.5 -16.666 10.5 -21.999s15.167 -8 24.5 -8zM215.004 869.003l72 80h156v-60l-92 -80h-136v60z" />
    <glyph glyph-name="AEacute" unicode="&#x1fc;" horiz-adv-x="978" 
d="M388 750h540v-141h-305v-159h270v-130h-270v-179h305v-141h-471v154h-238l-86 -154h-126v75zM457 290v296l-163 -296h163zM593 865l72 80h156v-60l-92 -80h-136v60z" />
    <glyph glyph-name="aeacute" unicode="&#x1fd;" horiz-adv-x="897" 
d="M622 -15c-44.667 0 -83.3281 7.50293 -115.995 22.5029s-59.334 35.833 -80.001 62.5c-23.333 -31.333 -52 -53.333 -86 -66s-72 -19 -114 -19c-30.667 0 -58.167 4 -82.5 12s-45 19 -62 33s-29.833 30.5 -38.5 49.5s-13 39.833 -13 62.5c0 48 18.167 86.667 54.5 116
s93.166 44 170.499 44c13.333 0 25.833 -0.5 37.5 -1.5s21.834 -2.16699 30.501 -3.5c10 -1.33301 19.333 -3 28 -5v19c0 28 -8.33301 49 -25 63s-39 21 -67 21c-16.667 0 -30.5 -2.33301 -41.5 -7s-19.833 -10 -26.5 -16c-8 -6.66699 -14.333 -14.334 -19 -23.001h-113v67
c9.33301 19.333 23 36.666 41 51.999c16.667 14 37.667 26.167 63 36.5s58 15.5 98 15.5c41.333 0 77.166 -6.33301 107.499 -19s55.166 -30.667 74.499 -54c20.667 22 45.667 39.667 75 53s63 20 101 20c42 0 78.167 -6 108.5 -18s55.5 -28.667 75.5 -50
s34.667 -46.5 44 -75.5s14 -60.5 14 -94.5c0 -8.66699 -0.333008 -16.834 -1 -24.501s-1.33398 -14.5 -2.00098 -20.5c-1.33301 -6.66699 -2.66602 -13 -3.99902 -19h-352c4 -34 16.167 -61.167 36.5 -81.5s48.833 -30.5 85.5 -30.5c22.667 0 41 2.33301 55 7s25 10 33 16
c9.33301 6.66699 16.333 14.334 21 23.001h118v-67c-10.667 -18.667 -26.334 -35.334 -47.001 -50.001c-18.667 -13.333 -42.334 -25 -71.001 -35s-65.667 -15 -111 -15zM716.006 309.003c0 24 -8.33105 45.167 -24.998 63.5s-42.334 27.5 -77.001 27.5
c-33.333 0 -58.333 -8.5 -75 -25.5s-28.334 -38.833 -35.001 -65.5h212zM250.008 96.0029c32.667 0 57.667 9.00195 75 27.002s26 38 26 60v14c-7.33301 1.33301 -15.333 2.66602 -24 3.99902c-8 1.33301 -17.167 2.33301 -27.5 3s-21.833 1 -34.5 1
c-34 0 -56.833 -5.83301 -68.5 -17.5s-17.5 -24.167 -17.5 -37.5c0 -18.667 6.5 -32.334 19.5 -41.001s30.167 -13 51.5 -13zM394.008 660.005l77 90h144v-60l-98 -90h-123v60z" />
    <glyph glyph-name="Oslashacute" unicode="&#x1fe;" horiz-adv-x="826" 
d="M413 -15c-58.667 0 -112.667 11.333 -162 34l-39 -59h-156l89 133c-33.333 35.333 -59 77 -77 125s-27 101.333 -27 160c0 57.333 9 109.666 27 156.999s43.167 88 75.5 122s71.333 60.5 117 79.5s96.5 28.5 152.5 28.5c59.333 0 113.333 -11.333 162 -34l39 59h156
l-89 -132c33.333 -34.667 59 -75.667 77 -123s27 -99.666 27 -156.999c0 -58 -9 -111 -27 -159s-43.167 -89.333 -75.5 -124s-71.333 -61.667 -117 -81s-96.5 -29 -152.5 -29zM202 378c0 -56 12.333 -104 37 -144l256 377c-24 12 -51.333 18 -82 18
c-32 0 -61 -6.16699 -87 -18.5s-48.167 -29.5 -66.5 -51.5s-32.5 -48.333 -42.5 -79s-15 -64.667 -15 -102zM413 121c32 0 61 6.16699 87 18.5s48.167 29.833 66.5 52.5s32.5 49.834 42.5 81.501s15 66.5 15 104.5c0 27.333 -3 52.666 -9 75.999s-14.667 44.333 -26 63
l-258 -379c24.667 -11.333 52 -17 82 -17zM354 865l72 80h156v-60l-92 -80h-136v60z" />
    <glyph glyph-name="oslashacute" unicode="&#x1ff;" horiz-adv-x="606" 
d="M303 -15c-40.667 0 -77.666 7.00098 -110.999 21.001l-44 -65h-110l77 114c-25.333 25.333 -44.833 54.833 -58.5 88.5s-20.5 70.5 -20.5 110.5c0 36.667 6 71.167 18 103.5s29.5 60.5 52.5 84.5s51 43 84 57s70.5 21 112.5 21s79.333 -7 112 -21l41 61h110l-74 -110
c25.333 -24.667 44.666 -53.667 57.999 -87s20 -69.666 20 -108.999c0 -36.667 -6 -71.334 -18 -104.001s-29.5 -61.334 -52.5 -86.001s-51 -44 -84 -58s-70.5 -21 -112.5 -21zM181.001 255.001c0 -14.667 0.999023 -28.333 2.99902 -41s6.33301 -24.667 13 -36l143 210
c-10.667 4 -23 6 -37 6c-20 0 -37.667 -3.66699 -53 -11s-28.166 -17.333 -38.499 -30s-18 -27.5 -23 -44.5s-7.5 -34.833 -7.5 -53.5zM303 108.002c20 0 37.667 3.83105 53 11.498s28 18.334 38 32.001s17.667 29.334 23 47.001s8 36.5 8 56.5c0 13.333 -1.33301 26 -4 38
s-6.66699 22.667 -12 32l-144 -211c11.333 -4 24 -6 38 -6zM238 660l77 90h144v-60l-98 -90h-123v60z" />
    <glyph glyph-name="Scommaaccent" unicode="&#x218;" horiz-adv-x="646" 
d="M324 -15c-38.667 0 -73.3311 4.00098 -103.998 12.001s-57.334 19 -80.001 33s-41.667 30.167 -57 48.5s-27 37.833 -35 58.5v75h131c10 -28 27.167 -50.167 51.5 -66.5s56.5 -24.5 96.5 -24.5c35.333 0 63.666 7.66699 84.999 23s32 37 32 65
c0 24.667 -8.83301 44.334 -26.5 59.001s-45.5 26.334 -83.5 35.001l-69 13c-68.667 13.333 -121.334 38.333 -158.001 75s-55 85.334 -55 146.001c0 36 6.5 68.167 19.5 96.5s31.333 52.166 55 71.499s52.334 34.166 86.001 44.499s71.167 15.5 112.5 15.5
c69.333 0 126.333 -13.333 171 -40s72.334 -63 83.001 -109v-76h-130c-6.66699 25.333 -19.834 46.5 -39.501 63.5s-49.167 25.5 -88.5 25.5c-35.333 0 -62.166 -7.5 -80.499 -22.5s-27.5 -35.167 -27.5 -60.5c0 -20.667 7.66699 -37.834 23 -51.501s41 -24.5 77 -32.5
l72 -16c68.667 -14 122.5 -39.833 161.5 -77.5s58.5 -87.834 58.5 -150.501c0 -36 -6.83301 -68.333 -20.5 -97s-32.834 -53 -57.501 -73s-54.167 -35.5 -88.5 -46.5s-72.5 -16.5 -114.5 -16.5zM255.003 -51.999h156v-72l-55 -81h-96z" />
    <glyph glyph-name="scommaaccent" unicode="&#x219;" horiz-adv-x="508" 
d="M258 -15c-34.667 0 -64.998 3.66406 -90.998 10.9971s-48 16.166 -66 26.499s-32 21.333 -42 33s-16.667 21.5 -20 29.5v68h113c1.33301 -4 4.33301 -9.16699 9 -15.5s11.5 -12.666 20.5 -18.999s20 -11.833 33 -16.5s28.167 -7 45.5 -7c29.333 0 49.666 4.5 60.999 13.5
s17 20.5 17 34.5c0 16 -6.83301 27.667 -20.5 35s-32.5 13 -56.5 17l-64 8c-46 6 -82.667 20.833 -110 44.5s-41 59.167 -41 106.5c0 24 4.66699 46.167 14 66.5s23 37.833 41 52.5s39.667 26.167 65 34.5s54 12.5 86 12.5c58 0 103 -9.5 135 -28.5s53.333 -41.5 64 -67.5
v-68h-114c-0.666992 2.66699 -2.66699 7 -6 13s-8.5 12 -15.5 18s-16 11.333 -27 16s-24.167 7 -39.5 7c-24 0 -41.333 -4.5 -52 -13.5s-16 -20.5 -16 -34.5c0 -25.333 21.333 -41.666 64 -48.999l64 -9c24 -3.33301 46.167 -8.5 66.5 -15.5s37.666 -16.167 51.999 -27.5
s25.5 -25.666 33.5 -42.999s12 -38 12 -62c0 -24.667 -4.83301 -47.5 -14.5 -68.5s-23.667 -39.167 -42 -54.5s-40.833 -27.166 -67.5 -35.499s-57 -12.5 -91 -12.5zM185.002 -52.0029h156v-72l-55 -81h-96z" />
    <glyph glyph-name="uni0237" unicode="&#x237;" horiz-adv-x="278" 
d="M23 -260c-44.667 0 -79.668 8.83203 -105.001 26.499s-42.666 39.5 -51.999 65.5v72h113c0 -2.66699 0.666992 -6 2 -10s3.5 -8 6.5 -12s7.16699 -7.33301 12.5 -10s12 -4 20 -4c17.333 0 29 5.33301 35 16s9 28.334 9 53.001v568h150v-569
c0 -60 -15.833 -107.667 -47.5 -143s-79.5 -53 -143.5 -53z" />
    <glyph glyph-name="circumflex" unicode="&#x2c6;" horiz-adv-x="500" 
d="M214 673l-61 -73h-106v60l92 90h150l92 -90v-60h-106z" />
    <glyph glyph-name="caron" unicode="&#x2c7;" horiz-adv-x="424" 
d="M141 600l-94 90v60h106l63 -73l59 73h106v-60l-90 -90h-150z" />
    <glyph glyph-name="breve" unicode="&#x2d8;" horiz-adv-x="412" 
d="M218 588c-30.667 0 -55.8311 3.66895 -75.498 11.002s-35.5 15.666 -47.5 24.999c-13.333 10.667 -23.333 22.667 -30 36v75h80c4 -8 9.33301 -15 16 -21c5.33301 -6 12.666 -11 21.999 -15s21 -6 35 -6c14.667 0 26.334 2.16699 35.001 6.5s15.667 9.16602 21 14.499
c6 6 10.333 13 13 21h80v-75c-6.66699 -13.333 -16.334 -25.333 -29.001 -36c-12 -10 -27.333 -18.5 -46 -25.5s-43.334 -10.5 -74.001 -10.5z" />
    <glyph glyph-name="dotaccent" unicode="&#x2d9;" horiz-adv-x="260" 
d="M75 740h156v-140h-156v140z" />
    <glyph glyph-name="ring" unicode="&#x2da;" horiz-adv-x="500" 
d="M226 567c-46 0 -79.667 9.16699 -101 27.5s-32 41.166 -32 68.499c0 26.667 10.667 49.334 32 68.001s55 28 101 28s79.833 -9.33301 101.5 -28s32.5 -41.334 32.5 -68.001c0 -27.333 -10.833 -50.166 -32.5 -68.499s-55.5 -27.5 -101.5 -27.5zM226 633
c9.33301 0 17.5 2.66699 24.5 8s10.5 12.666 10.5 21.999s-3.5 16.666 -10.5 21.999s-15.167 8 -24.5 8s-17.5 -2.66699 -24.5 -8s-10.5 -12.666 -10.5 -21.999s3.5 -16.666 10.5 -21.999s15.167 -8 24.5 -8z" />
    <glyph glyph-name="ogonek" unicode="&#x2db;" horiz-adv-x="295" 
d="M174 -192c-12.667 0.666992 -26.5 2.66602 -41.5 5.99902s-28.667 8.83301 -41 16.5s-22.666 17.834 -30.999 30.501s-12.5 28.667 -12.5 48c0 23.333 7.66699 43.333 23 60s35.666 27 60.999 31h106c-6 -1.33301 -12.5 -3 -19.5 -5s-13.167 -5 -18.5 -9
s-9.83301 -9.16699 -13.5 -15.5s-5.5 -14.5 -5.5 -24.5c0 -12 2.66699 -21.5 8 -28.5s11.833 -12.333 19.5 -16s15.667 -6 24 -7s15.5 -1.5 21.5 -1.5v-85h-80z" />
    <glyph glyph-name="tilde" unicode="&#x2dc;" horiz-adv-x="452" 
d="M323 599c-16 0 -29.333 1.83301 -40 5.5s-20.334 7.66699 -29.001 12l-25 12c-8 3.66699 -17.667 5.5 -29 5.5c-18 0 -29.667 -10 -35 -30h-95c-2.66699 40.667 5.33301 73.667 24 99s46 38 82 38c16 0 29.167 -1.83301 39.5 -5.5s19.5 -7.5 27.5 -11.5l23.5 -11.5
c7.66699 -3.66699 16.834 -5.5 27.501 -5.5c7.33301 0 14.333 2 21 6s11 11.667 13 23h95c2.66699 -40.667 -3.83301 -73.667 -19.5 -99s-42.5 -38 -80.5 -38z" />
    <glyph glyph-name="hungarumlaut" unicode="&#x2dd;" horiz-adv-x="484" 
d="M46 660l55 90h136l-13 -65l-63 -85h-115v60zM238 660l72 90h131v-60l-92 -90h-111v60z" />
    <glyph glyph-name="afii10023" unicode="&#x401;" horiz-adv-x="603" 
d="M82 750h471v-141h-305v-159h270v-130h-270v-179h305v-141h-471v750zM141 935h150v-135h-150v135zM346 935h151v-135h-151v135z" />
    <glyph glyph-name="afii10051" unicode="&#x402;" horiz-adv-x="836" 
d="M582 -10c-19.333 0 -36.333 1 -51 3s-27.667 4.33301 -39 7v135c6.66699 -1.33301 16 -2.83301 28 -4.5s25 -2.5 39 -2.5c28 0 49.833 9.5 65.5 28.5s23.5 45.833 23.5 80.5c0 36 -10 63 -30 81s-48 27 -84 27c-42 0 -74.833 -11 -98.5 -33s-35.5 -49.333 -35.5 -82v-230
h-166v609h-214v141h595v-141h-215v-193c16 21.333 38.5 39 67.5 53s64.167 21 105.5 21c38 0 71.833 -6.16699 101.5 -18.5s54.834 -29.5 75.501 -51.5s36.5 -48.333 47.5 -79s16.5 -64 16.5 -100c0 -36.667 -5.5 -70.334 -16.5 -101.001s-26.667 -57.167 -47 -79.5
s-44.833 -39.666 -73.5 -51.999s-60.334 -18.5 -95.001 -18.5z" />
    <glyph glyph-name="afii10052" unicode="&#x403;" horiz-adv-x="559" 
d="M252 865l72 80h156v-60l-92 -80h-136v60zM82 750h456v-141h-290v-609h-166v750z" />
    <glyph glyph-name="afii10053" unicode="&#x404;" horiz-adv-x="739" 
d="M699 146c-2.66699 -14 -11 -30.332 -25 -48.999s-33 -36.167 -57 -52.5s-53.333 -30.333 -88 -42s-74.334 -17.5 -119.001 -17.5c-58.667 0 -111 9.5 -157 28.5s-84.5 45.667 -115.5 80s-54.667 75.5 -71 123.5s-24.5 100.667 -24.5 158s8.83301 110 26.5 158
s42.5 89.167 74.5 123.5s70.667 61 116 80s95.666 28.5 150.999 28.5c50 0 92.333 -5.83301 127 -17.5s63.334 -25.667 86.001 -42s39.5 -33.333 50.5 -51s17.833 -32.834 20.5 -45.501v-76h-131c-1.33301 6.66699 -5 15.167 -11 25.5s-15 20.333 -27 30
s-27.167 18 -45.5 25s-41.166 10.5 -68.499 10.5c-53.333 0 -97.5 -15.667 -132.5 -47s-56.167 -75 -63.5 -131h305v-131h-306c6 -58.667 26.667 -104.667 62 -138s80.333 -50 135 -50c26.667 0 49.5 3.66699 68.5 11s34.667 16.166 47 26.499s21.833 20.833 28.5 31.5
s11 19.334 13 26.001h131v-76z" />
    <glyph glyph-name="afii10054" unicode="&#x405;" horiz-adv-x="646" 
d="M324 -15c-38.667 0 -73.3311 4.00098 -103.998 12.001s-57.334 19 -80.001 33s-41.667 30.167 -57 48.5s-27 37.833 -35 58.5v75h131c10 -28 27.167 -50.167 51.5 -66.5s56.5 -24.5 96.5 -24.5c35.333 0 63.666 7.66699 84.999 23s32 37 32 65
c0 24.667 -8.83301 44.334 -26.5 59.001s-45.5 26.334 -83.5 35.001l-69 13c-68.667 13.333 -121.334 38.333 -158.001 75s-55 85.334 -55 146.001c0 36 6.5 68.167 19.5 96.5s31.333 52.166 55 71.499s52.334 34.166 86.001 44.499s71.167 15.5 112.5 15.5
c69.333 0 126.333 -13.333 171 -40s72.334 -63 83.001 -109v-76h-130c-6.66699 25.333 -19.834 46.5 -39.501 63.5s-49.167 25.5 -88.5 25.5c-35.333 0 -62.166 -7.5 -80.499 -22.5s-27.5 -35.167 -27.5 -60.5c0 -20.667 7.66699 -37.834 23 -51.501s41 -24.5 77 -32.5
l72 -16c68.667 -14 122.5 -39.833 161.5 -77.5s58.5 -87.834 58.5 -150.501c0 -36 -6.83301 -68.333 -20.5 -97s-32.834 -53 -57.501 -73s-54.167 -35.5 -88.5 -46.5s-72.5 -16.5 -114.5 -16.5z" />
    <glyph glyph-name="afii10055" unicode="&#x406;" horiz-adv-x="330" 
d="M82 750h166v-750h-166v750z" />
    <glyph glyph-name="afii10056" unicode="&#x407;" horiz-adv-x="330" 
d="M-13 935h150v-135h-150v135zM192 935h151v-135h-151v135zM82 750h166v-750h-166v750z" />
    <glyph glyph-name="afii10057" unicode="&#x408;" horiz-adv-x="519" 
d="M224 -15c-36.667 0 -67.499 4.66602 -92.499 13.999s-45.5 20.666 -61.5 33.999s-27.667 27.333 -35 42s-12 27.334 -14 38.001v75h130c0 -6 1 -12.667 3 -20s5.5 -14.166 10.5 -20.499s11.333 -11.5 19 -15.5s17.5 -6 29.5 -6c21.333 0 37.5 6.5 48.5 19.5
s16.5 38.833 16.5 77.5v527h165v-521c0 -82 -18.333 -143.167 -55 -183.5s-91.334 -60.5 -164.001 -60.5z" />
    <glyph glyph-name="afii10058" unicode="&#x409;" horiz-adv-x="1044" 
d="M19 152l25.9971 -0.00195312c32 0 55.333 19.833 70 59.5s23 101.167 25 184.5l7 354h502v-245h81c46 0 86.833 -6.5 122.5 -19.5s65.834 -30.667 90.501 -53s43.334 -48.5 56.001 -78.5s19 -62 19 -96c0 -35.333 -6.16699 -68.666 -18.5 -99.999
s-30.666 -58.666 -54.999 -81.999s-54.5 -41.833 -90.5 -55.5s-77.333 -20.5 -124 -20.5h-247v609h-188l-4 -218c-1.33301 -61.333 -5.83301 -116.166 -13.5 -164.499s-20 -89.333 -37 -123s-39.333 -59.334 -67 -77.001s-62.167 -26.5 -103.5 -26.5h-51v152z
M728.997 137.998c38 0 67.999 10.499 89.999 31.499s33 49.833 33 86.5c0 30.667 -10.667 56.834 -32 78.501s-51.666 32.5 -90.999 32.5h-83v-229h83z" />
    <glyph glyph-name="afii10059" unicode="&#x40a;" horiz-adv-x="1081" 
d="M248 0h-165.999v750h166v-280h269v280h166v-280h90c45.333 0 85.666 -5.83301 120.999 -17.5s65 -27.667 89 -48s42.333 -44.5 55 -72.5s19 -58.333 19 -91c0 -34 -6.16699 -65.667 -18.5 -95s-30.5 -54.833 -54.5 -76.5s-53.667 -38.667 -89 -51s-76 -18.5 -122 -18.5
h-256v330h-269v-330zM772.001 138c37.333 0 66.5 8.33301 87.5 25s31.5 41.667 31.5 75c0 28 -10.333 50.667 -31 68s-50 26 -88 26h-92v-194h92z" />
    <glyph glyph-name="afii10060" unicode="&#x40b;" horiz-adv-x="841" 
d="M234 609l-213.999 -0.000976562v141h595v-141h-215v-193c14 21.333 35.667 39 65 53s64.666 21 105.999 21c70.667 0 126.5 -21.833 167.5 -65.5s61.5 -106.5 61.5 -188.5v-236h-166v222c0 40 -9.83301 70.5 -29.5 91.5s-47.834 31.5 -84.501 31.5
c-39.333 0 -69.166 -11.167 -89.499 -33.5s-30.5 -50.166 -30.5 -83.499v-228h-166v609z" />
    <glyph glyph-name="afii10061" unicode="&#x40c;" horiz-adv-x="694" 
d="M305 865l72 80h156v-60l-92 -80h-136v60zM248 0h-166v750h166v-322l271 322h131v-75l-245 -285l273 -312v-78h-146l-284 326v-326z" />
    <glyph glyph-name="afii10062" unicode="&#x40e;" horiz-adv-x="656" 
d="M163 0v75l88 154l-239 443v78h146l185 -350l175 350h131v-75l-355 -675h-131zM343 804c-28 0 -52.165 3 -72.498 9s-37.5 13.167 -51.5 21.5s-25 17 -33 26s-13.333 16.167 -16 21.5v66h116c0 -3.33301 0.833008 -8.16602 2.5 -14.499s4.66699 -12.833 9 -19.5
s10.333 -12.334 18 -17.001s16.834 -7 27.501 -7c10 0 18.667 2.33301 26 7s13.166 10.334 17.499 17.001s7.66602 13.167 9.99902 19.5s3.5 11.166 3.5 14.499h116v-66c-2.66699 -5.33301 -7.83398 -12.5 -15.501 -21.5s-18.5 -17.667 -32.5 -26s-31.333 -15.5 -52 -21.5
s-45 -9 -73 -9z" />
    <glyph glyph-name="afii10145" unicode="&#x40f;" horiz-adv-x="780" 
d="M314 0h-232v750h166v-609h284v609h166v-750h-233v-150h-151v150z" />
    <glyph glyph-name="afii10017" unicode="&#x410;" horiz-adv-x="706" 
d="M13 0v70l255 680h169l254 -670v-80h-144l-58 159h-286l-57 -159h-133zM347 571l-98 -276h196z" />
    <glyph glyph-name="afii10018" unicode="&#x411;" horiz-adv-x="662" 
d="M82 750h490.001v-141h-324v-139h100c45.333 0 85.666 -5.83301 120.999 -17.5s65 -27.667 89 -48s42.333 -44.333 55 -72s19 -57.5 19 -89.5c0 -34 -6.16699 -65.667 -18.5 -95s-30.5 -55 -54.5 -77s-53.667 -39.333 -89 -52s-76 -19 -122 -19h-266v750zM347.001 138
c36.667 0 65.667 8.99902 87 26.999s32 44 32 78c0 28.667 -10.333 52.334 -31 71.001s-50 28 -88 28h-102v-204h102z" />
    <glyph glyph-name="afii10019" unicode="&#x412;" horiz-adv-x="687" 
d="M82 750l299.002 0.000976562c36.667 0 69.667 -4.66699 99 -14s54.166 -22.833 74.499 -40.5s36 -38.834 47 -63.501s16.5 -52.334 16.5 -83.001c0 -37.333 -8.83301 -69.666 -26.5 -96.999s-42.167 -47 -73.5 -59c40 -12.667 71.333 -34 94 -64s34 -65 34 -105
c0 -68.667 -22.833 -123.167 -68.5 -163.5s-109.834 -60.5 -192.501 -60.5h-303v750zM355.002 448.001c32 0 56.833 7.5 74.5 22.5s26.5 35.5 26.5 61.5s-8.5 46.833 -25.5 62.5s-40.833 23.5 -71.5 23.5h-118v-170h114zM368.002 132.001c38 0 66.668 9.5 86.001 28.5
s29 42.167 29 69.5c0 26.667 -9.33301 48.667 -28 66s-47.334 26 -86.001 26h-128v-190h127z" />
    <glyph glyph-name="afii10020" unicode="&#x413;" horiz-adv-x="559" 
d="M82 750h456v-141h-290v-609h-166v750z" />
    <glyph glyph-name="afii10021" unicode="&#x414;" horiz-adv-x="816" 
d="M11 141l61 0.000976562c4.66699 4 11.334 12.667 20.001 26s17.5 31.833 26.5 55.5s17.167 52.667 24.5 87s11.666 74.166 12.999 119.499l9 321h522v-609h105v-291h-151v150h-479v-150h-151v291zM521 141.001v468h-209l-6 -188c-2 -44.667 -5.83301 -83.5 -11.5 -116.5
s-12 -60.667 -19 -83s-13.833 -40 -20.5 -53s-12 -22.167 -16 -27.5h282z" />
    <glyph glyph-name="afii10022" unicode="&#x415;" horiz-adv-x="603" 
d="M82 750h471v-141h-305v-159h270v-130h-270v-179h305v-141h-471v750z" />
    <glyph glyph-name="afii10024" unicode="&#x416;" horiz-adv-x="1011" 
d="M166 0h-143v78l245 307l-228 288v77h135l250 -321v321h161v-321l251 321h131v-75l-226 -283l249 -314v-78h-146l-259 326v-326h-161v326z" />
    <glyph glyph-name="afii10025" unicode="&#x417;" horiz-adv-x="626" 
d="M311 -15c-45.333 0 -84.5 5.50195 -117.5 16.502s-60.5 24.5 -82.5 40.5s-39 33.167 -51 51.5s-19.333 34.5 -22 48.5v75h131c1.33301 -7.33301 4.5 -16.5 9.5 -27.5s12.833 -21.5 23.5 -31.5s24.5 -18.5 41.5 -25.5s37.833 -10.5 62.5 -10.5c38 0 67 9.33301 87 28
s30 43 30 73c0 28.667 -9.5 52 -28.5 70s-50.167 27 -93.5 27h-90v126h78c36 0 62.833 9.16699 80.5 27.5s26.5 41.166 26.5 68.499c0 26.667 -9.83301 47.834 -29.5 63.501s-43.5 23.5 -71.5 23.5c-20.667 0 -38.167 -3 -52.5 -9s-25.833 -13.333 -34.5 -22
s-15.167 -18 -19.5 -28s-6.83301 -19 -7.5 -27h-131v75c2.66699 12.667 9.16699 27.5 19.5 44.5s25.5 33 45.5 48s45.333 27.833 76 38.5s68 16 112 16c37.333 0 71.5 -4.66699 102.5 -14s57.667 -22.833 80 -40.5s39.666 -39.334 51.999 -65.001s18.5 -54.834 18.5 -87.501
c0 -36 -9.33301 -68.333 -28 -97s-45 -50 -79 -64c42.667 -11.333 75.834 -32.5 99.501 -63.5s35.5 -68.833 35.5 -113.5c0 -34.667 -6 -66.5 -18 -95.5s-29.667 -53.833 -53 -74.5s-52 -36.667 -86 -48s-72.667 -17 -116 -17z" />
    <glyph glyph-name="afii10026" unicode="&#x418;" horiz-adv-x="804" 
d="M82 750h166v-498l309 498h165v-750h-165v494l-309 -494h-166v750z" />
    <glyph glyph-name="afii10027" unicode="&#x419;" horiz-adv-x="804" 
d="M82 750h166v-498l309 498h165v-750h-165v494l-309 -494h-166v750zM406 804c-28 0 -52.165 3 -72.498 9s-37.5 13.167 -51.5 21.5s-25 17 -33 26s-13.333 16.167 -16 21.5v66h116c0 -3.33301 0.833008 -8.16602 2.5 -14.499s4.66699 -12.833 9 -19.5
s10.333 -12.334 18 -17.001s16.834 -7 27.501 -7c10 0 18.667 2.33301 26 7s13.166 10.334 17.499 17.001s7.66602 13.167 9.99902 19.5s3.5 11.166 3.5 14.499h116v-66c-2.66699 -5.33301 -7.83398 -12.5 -15.501 -21.5s-18.5 -17.667 -32.5 -26s-31.333 -15.5 -52 -21.5
s-45 -9 -73 -9z" />
    <glyph glyph-name="afii10028" unicode="&#x41a;" horiz-adv-x="694" 
d="M248 0h-166v750h166v-322l271 322h131v-75l-245 -285l273 -312v-78h-146l-284 326v-326z" />
    <glyph glyph-name="afii10029" unicode="&#x41b;" horiz-adv-x="736" 
d="M19 152h26c32 0 55.333 19.833 70 59.5s23 101.167 25 184.5l7 354h507v-750h-166v609h-193l-4 -218c-1.33301 -61.333 -5.83301 -116.166 -13.5 -164.499s-20 -89.333 -37 -123s-39.333 -59.334 -67 -77.001s-62.167 -26.5 -103.5 -26.5h-51v152z" />
    <glyph glyph-name="afii10030" unicode="&#x41c;" horiz-adv-x="931" 
d="M238 512v-512h-156v750h204l182 -382l178 382h203v-750h-165v512l-168 -353h-111z" />
    <glyph glyph-name="afii10031" unicode="&#x41d;" horiz-adv-x="790" 
d="M82 750h166v-295h294v295h166v-750h-166v315h-294v-315h-166v750z" />
    <glyph glyph-name="afii10032" unicode="&#x41e;" horiz-adv-x="826" 
d="M413 -15c-56 0 -106.833 9.66699 -152.5 29s-84.667 46.333 -117 81s-57.5 76 -75.5 124s-27 101 -27 159c0 57.333 9 109.666 27 156.999s43.167 88 75.5 122s71.333 60.5 117 79.5s96.5 28.5 152.5 28.5s106.833 -9.5 152.5 -28.5s84.667 -45.5 117 -79.5
s57.5 -74.667 75.5 -122s27 -99.666 27 -156.999c0 -58 -9 -111 -27 -159s-43.167 -89.333 -75.5 -124s-71.333 -61.667 -117 -81s-96.5 -29 -152.5 -29zM413 126c31.333 0 59.666 6.16699 84.999 18.5s47 29.5 65 51.5s31.833 48.5 41.5 79.5s14.5 65.167 14.5 102.5
c0 36.667 -4.83301 70 -14.5 100s-23.5 55.833 -41.5 77.5s-39.667 38.5 -65 50.5s-53.666 18 -84.999 18s-59.666 -6 -84.999 -18s-47 -28.833 -65 -50.5s-31.833 -47.5 -41.5 -77.5s-14.5 -63.333 -14.5 -100c0 -37.333 4.83301 -71.5 14.5 -102.5s23.5 -57.5 41.5 -79.5
s39.667 -39.167 65 -51.5s53.666 -18.5 84.999 -18.5z" />
    <glyph glyph-name="afii10033" unicode="&#x41f;" horiz-adv-x="780" 
d="M82 750h616v-750h-166v609h-284v-609h-166v750z" />
    <glyph glyph-name="afii10034" unicode="&#x420;" horiz-adv-x="643" 
d="M82 750l241 -0.000976562c44 0 83.833 -5.83301 119.5 -17.5s66 -28.167 91 -49.5s44.333 -47.166 58 -77.499s20.5 -64.5 20.5 -102.5c0 -32.667 -6 -64.5 -18 -95.5s-30.167 -58.5 -54.5 -82.5s-54.5 -43.333 -90.5 -58s-78 -22 -126 -22h-75v-245h-166v750z
M322 382.999c38.667 0 69 10.833 91 32.5s33 50.5 33 86.5c0 32 -10.667 58.333 -32 79s-52 31 -92 31h-77v-229h77z" />
    <glyph glyph-name="afii10035" unicode="&#x421;" horiz-adv-x="729" 
d="M409 -15c-57.333 0 -108.667 9.50391 -154 28.5039s-83.833 45.667 -115.5 80s-55.834 75.5 -72.501 123.5s-25 100.667 -25 158c0 58.667 8.83301 112 26.5 160s42.5 89 74.5 123s70.5 60.333 115.5 79s95.167 28 150.5 28c50 0 92.333 -5.83301 127 -17.5
s63.334 -25.667 86.001 -42s39.667 -33.5 51 -51.5s18.333 -33 21 -45v-76h-131c-1.33301 7.33301 -5 16.166 -11 26.499s-15 20.333 -27 30s-27.167 17.834 -45.5 24.501s-41.166 10 -68.499 10c-62.667 0 -112.167 -22 -148.5 -66s-54.5 -104.667 -54.5 -182
c0 -38 4.83301 -72.333 14.5 -103s23.167 -56.834 40.5 -78.501s38.666 -38.334 63.999 -50.001s53.333 -17.5 84 -17.5c26.667 0 49.5 3.66699 68.5 11s34.667 16 47 26s21.833 20.333 28.5 31s11 19.667 13 27h131v-76c-4 -14.667 -12.667 -31.334 -26 -50.001
s-31.833 -36.334 -55.5 -53.001s-52.667 -30.5 -87 -41.5s-74.833 -16.5 -121.5 -16.5z" />
    <glyph glyph-name="afii10036" unicode="&#x422;" horiz-adv-x="635" 
d="M234 609h-214v141h595v-141h-215v-609h-166v609z" />
    <glyph glyph-name="afii10037" unicode="&#x423;" horiz-adv-x="656" 
d="M163 0v75l88 154l-239 443v78h146l185 -350l175 350h131v-75l-355 -675h-131z" />
    <glyph glyph-name="afii10038" unicode="&#x424;" horiz-adv-x="892" 
d="M363 69c-50 1.33301 -95.167 10.165 -135.5 26.498s-75 38.5 -104 66.5s-51.333 60.5 -67 97.5s-23.5 76.5 -23.5 118.5c0 41.333 7.83301 80.5 23.5 117.5s38 69.333 67 97s63.667 49.834 104 66.501s85.5 25.334 135.5 26.001v75h166v-75
c50 -0.666992 95.167 -9.33398 135.5 -26.001s75 -39 104 -67s51.333 -60.5 67 -97.5s23.5 -76.5 23.5 -118.5c0 -41.333 -7.83301 -80.5 -23.5 -117.5s-38 -69.333 -67 -97s-63.667 -49.667 -104 -66s-85.5 -25.166 -135.5 -26.499v-79h-166v79zM363 551.999
c-26.667 -0.666992 -50.5 -5.83203 -71.5 -15.499s-38.5 -22.334 -52.5 -38.001s-24.667 -33.834 -32 -54.501s-11 -42.667 -11 -66s3.66699 -45.5 11 -66.5s18 -39.333 32 -55s31.5 -28.167 52.5 -37.5s44.833 -14.666 71.5 -15.999v349zM529 202.001
c27.333 1.33301 51.333 6.66406 72 15.9971s38 21.833 52 37.5s24.667 33.834 32 54.501s11 42.667 11 66s-3.66699 45.5 -11 66.5s-18 39.333 -32 55s-31.333 28.334 -52 38.001s-44.667 14.834 -72 15.501v-349z" />
    <glyph glyph-name="afii10039" unicode="&#x425;" horiz-adv-x="690" 
d="M27 75l220 305l-209 292v78h146l173 -250l162 250h131v-75l-205 -290l219 -307v-78h-146l-181 264l-179 -264h-131v75z" />
    <glyph glyph-name="afii10040" unicode="&#x426;" horiz-adv-x="829" 
d="M652 0h-570v750h166v-609h284v609h166v-609h105v-291h-151v150z" />
    <glyph glyph-name="afii10041" unicode="&#x427;" horiz-adv-x="715" 
d="M467 274h-117.001c-100.667 0 -177.167 22.5 -229.5 67.5s-78.5 118.833 -78.5 221.5v187h166v-187c0 -52 11.333 -90.167 34 -114.5s59.334 -36.5 110.001 -36.5h115v338h166v-750h-166v274z" />
    <glyph glyph-name="afii10042" unicode="&#x428;" horiz-adv-x="1050" 
d="M82 750h166v-609h194v609h166v-609h194v609h166v-750h-886v750z" />
    <glyph glyph-name="afii10043" unicode="&#x429;" horiz-adv-x="1099" 
d="M922 0h-840v750h166v-609h194v609h166v-609h194v609h166v-609h105v-291h-151v150z" />
    <glyph glyph-name="afii10044" unicode="&#x42a;" horiz-adv-x="746" 
d="M180 0l-0.00292969 608.998h-160v141h326v-245h86c46 0 86.833 -6.5 122.5 -19.5s65.834 -30.667 90.501 -53s43.334 -48.5 56.001 -78.5s19 -62 19 -96c0 -35.333 -6.16699 -68.666 -18.5 -99.999s-30.666 -58.666 -54.999 -81.999s-54.5 -41.833 -90.5 -55.5
s-77.333 -20.5 -124 -20.5h-252zM430.997 137.998c38 0 67.999 10.499 89.999 31.499s33 49.833 33 86.5c0 30.667 -10.667 56.834 -32 78.501s-51.666 32.5 -90.999 32.5h-88v-229h88z" />
    <glyph glyph-name="afii10045" unicode="&#x42b;" horiz-adv-x="939" 
d="M82 750l166 -0.00195312v-245h85c46 0 87 -6.5 123 -19.5s66.333 -30.667 91 -53s43.334 -48.5 56.001 -78.5s19 -62 19 -96c0 -35.333 -6.16699 -68.666 -18.5 -99.999s-30.833 -58.666 -55.5 -81.999s-54.834 -41.833 -90.501 -55.5s-77.167 -20.5 -124.5 -20.5h-251
v750zM691 749.998h166v-750h-166v750zM332 137.998c38.667 0 69 10.499 91 31.499s33 49.833 33 86.5c0 30.667 -10.667 56.834 -32 78.501s-52 32.5 -92 32.5h-87v-229h87z" />
    <glyph glyph-name="afii10046" unicode="&#x42c;" horiz-adv-x="648" 
d="M82 750l166 -0.00195312v-245h85c46 0 87 -6.5 123 -19.5s66.333 -30.667 91 -53s43.334 -48.5 56.001 -78.5s19 -62 19 -96c0 -35.333 -6.16699 -68.666 -18.5 -99.999s-30.833 -58.666 -55.5 -81.999s-54.834 -41.833 -90.501 -55.5s-77.167 -20.5 -124.5 -20.5h-251
v750zM332 137.998c38.667 0 69 10.499 91 31.499s33 49.833 33 86.5c0 30.667 -10.667 56.834 -32 78.501s-52 32.5 -92 32.5h-87v-229h87z" />
    <glyph glyph-name="afii10047" unicode="&#x42d;" horiz-adv-x="737" 
d="M338 -15c-45.333 0 -85.4971 5.16309 -120.497 15.4961s-65 23.5 -90 39.5s-44.833 33.5 -59.5 52.5s-24.334 36.833 -29.001 53.5v76h130c2 -6 6.5 -14.333 13.5 -25s17.167 -21.167 30.5 -31.5s30.166 -19.333 50.499 -27s44.833 -11.5 73.5 -11.5
c58.667 0 103.167 17 133.5 51s48.5 79.667 54.5 137h-293v131h293c-6 54 -24.167 97.167 -54.5 129.5s-73.833 48.5 -130.5 48.5c-28 0 -52 -3.66699 -72 -11s-36.5 -15.833 -49.5 -25.5s-22.833 -19.667 -29.5 -30s-10.667 -18.5 -12 -24.5h-131v76
c2.66699 11.333 10.167 25.833 22.5 43.5s30.333 34.834 54 51.501s53.5 31 89.5 43s78.667 18 128 18c56 0 106 -9.5 150 -28.5s81.167 -45.667 111.5 -80s53.5 -75.166 69.5 -122.499s24 -99.666 24 -156.999c0 -58 -7.83301 -111 -23.5 -159
s-38.834 -89.167 -69.501 -123.5s-68 -61.166 -112 -80.499s-94.667 -29 -152 -29z" />
    </font>
</defs>
</svg>
