<?xml version="1.0" standalone="no"?>
<!DOCTYPE svg PUBLIC "-//W3C//DTD SVG 1.1//EN" "http://www.w3.org/Graphics/SVG/1.1/DTD/svg11.dtd" >
<svg>
<metadata>
Created by FontForge 20090914 at Tue Nov 12 16:14:03 2019
 By www-data
&#194;&#169;2014-16 Ilya Ruderman and Yury Ostromentsky, under exclusive license to CSTM Fonts. All rights reserved.
</metadata>
<defs>
<font id="Navigo-Light" horiz-adv-x="1180" >
  <font-face 
    font-family="Navigo Light"
    font-weight="300"
    font-stretch="normal"
    units-per-em="1000"
    panose-1="2 7 5 3 7 7 6 4 3 3"
    ascent="750"
    descent="-250"
    x-height="496.999"
    cap-height="750"
    bbox="-98 -263 1442 1153"
    underline-thickness="50"
    underline-position="-125"
    unicode-range="U+000D-U+1F7CA"
  />
<missing-glyph horiz-adv-x="588" 
d="M94 750h400v-1000h-400v1000zM444 -200v900h-300v-900h300z" />
    <glyph glyph-name="fi" unicode="fi" horiz-adv-x="549" 
d="M111 429l-89.998 0.000976562v68h90v65c0 34 5.16699 63.5 15.5 88.5s24.166 45.5 41.499 61.5s37.833 28 61.5 36s48.834 12 75.501 12c24.667 0 46.5 -2.83301 65.5 -8.5s35.333 -13.167 49 -22.5s24.834 -20 33.501 -32s14.667 -24.333 18 -37v-51h-70
c-0.666992 6.66699 -2.83398 14.667 -6.50098 24s-9.33398 18.166 -17.001 26.499s-17.834 15.333 -30.501 21s-28.667 8.5 -48 8.5c-31.333 0 -57.333 -10.167 -78 -30.5s-31 -51.833 -31 -94.5v-67h133v-68h-133v-429h-79v429zM392.002 497.001h79v-497h-79v497z" />
    <glyph glyph-name="fl" unicode="fl" horiz-adv-x="549" 
d="M190 0l-79 -0.000976562v429h-90v68h90v62c0 35.333 5 65.5 15 90.5s24 45.833 42 62.5s39.5 28.834 64.5 36.501s52.167 11.5 81.5 11.5c33.333 0 64 -4 92 -12s49.667 -17.333 65 -28v-720h-79v669c-5.33301 4 -14.5 8.33301 -27.5 13s-29.833 7 -50.5 7
c-38 0 -68.167 -9.83301 -90.5 -29.5s-33.5 -52.5 -33.5 -98.5v-64h133v-68h-133v-429z" />
    <glyph glyph-name=".notdef" horiz-adv-x="588" 
d="M94 750h400v-1000h-400v1000zM444 -200v900h-300v-900h300z" />
    <glyph glyph-name=".null" horiz-adv-x="0" 
 />
    <glyph glyph-name="nonmarkingreturn" unicode="&#xd;" horiz-adv-x="250" 
 />
    <glyph glyph-name="space" unicode=" " horiz-adv-x="260" 
 />
    <glyph glyph-name="exclam" unicode="!" horiz-adv-x="270" 
d="M90 750h88l-9 -538h-70zM85 100h100v-100h-100v100z" />
    <glyph glyph-name="quotedbl" unicode="&#x22;" horiz-adv-x="375" 
d="M65 750h88l-10 -240h-69zM223 750h88l-10 -240h-69z" />
    <glyph glyph-name="numbersign" unicode="#" horiz-adv-x="613" 
d="M351 193h-140l-28 -193h-78l28 193h-91v72h103l28 198h-101v72h113l31 215h78l-32 -215h140l32 215h78l-32 -215h89v-72h-100l-29 -198h99v-72h-110l-28 -193h-78zM391 463h-140l-29 -198h140z" />
    <glyph glyph-name="dollar" unicode="$" horiz-adv-x="567" 
d="M528 196c0 -30.667 -5.50391 -58.332 -16.5039 -82.999s-26.5 -45.834 -46.5 -63.501s-43.833 -31.667 -71.5 -42s-58.167 -16.166 -91.5 -17.499l-7 -133h-71l8 137c-52 7.33301 -93.667 23.666 -125 48.999s-53.666 53 -66.999 83v56h63
c10.667 -29.333 26.834 -54.166 48.501 -74.499s49.834 -34.166 84.501 -41.499l16 284h-2c-70 19.333 -120.667 46.166 -152 80.499s-47 77.833 -47 130.5c0 28 5.16699 53.833 15.5 77.5s25 44.334 44 62.001s42.333 31.667 70 42s58.834 16.166 93.501 17.499l7 116h70
l-7 -120c44.667 -7.33301 80 -22.166 106 -44.499s43.667 -49.5 53 -81.5v-56h-63c-5.33301 22.667 -15.333 44.167 -30 64.5s-38 34.833 -70 43.5l-14 -266l9 -3c63.333 -18.667 111.333 -44.834 144 -78.501s49 -79.834 49 -138.501zM133.996 567.002
c0 -35.333 10.833 -62.5 32.5 -81.5s51.5 -35.167 89.5 -48.5l15 252c-46 -2.66699 -80.333 -15.5 -103 -38.5s-34 -50.833 -34 -83.5zM443.996 196.002c0 30.667 -8.66895 56.668 -26.002 78.001s-49.666 39.666 -96.999 54.999l-15 -267
c40.667 3.33301 73.834 16 99.501 38s38.5 54 38.5 96z" />
    <glyph glyph-name="percent" unicode="%" horiz-adv-x="1022" 
d="M700 762h87l-471 -788h-87zM236 344c-30 0 -57.332 5.16602 -81.999 15.499s-45.667 24.666 -63 42.999s-30.833 40.333 -40.5 66s-14.5 53.5 -14.5 83.5c0 30.667 5 58.834 15 84.501s23.833 47.667 41.5 66s38.667 32.5 63 42.5s51.166 15 80.499 15
s56.333 -5.16699 81 -15.5s46 -24.666 64 -42.999s32.167 -40.166 42.5 -65.499s15.5 -53.333 15.5 -84s-5 -58.834 -15 -84.501s-24 -47.667 -42 -66s-39.333 -32.5 -64 -42.5s-52 -15 -82 -15zM236.001 418.999c20 0 37.333 3.66699 52 11s26.834 17 36.501 29
s16.667 26 21 42s6.5 33 6.5 51s-2.33301 35.167 -7 51.5s-11.834 30.5 -21.501 42.5s-21.667 21.5 -36 28.5s-31.5 10.5 -51.5 10.5c-19.333 0 -36.166 -3.66699 -50.499 -11s-26.166 -17 -35.499 -29s-16.333 -26 -21 -42s-7 -33 -7 -51s2.16699 -35 6.5 -51
s11.166 -30 20.499 -42s21.166 -21.667 35.499 -29s31.5 -11 51.5 -11zM783.001 -11.001c-30 0 -57.332 5.16602 -81.999 15.499s-45.834 24.666 -63.501 42.999s-31.334 40.333 -41.001 66s-14.5 53.5 -14.5 83.5c0 30.667 5 58.834 15 84.501s23.833 47.667 41.5 66
s38.834 32.5 63.501 42.5s51.667 15 81 15s56.333 -5.16699 81 -15.5s46 -24.666 64 -42.999s32.167 -40.166 42.5 -65.499s15.5 -53.333 15.5 -84s-5 -58.834 -15 -84.501s-24 -47.667 -42 -66s-39.333 -32.5 -64 -42.5s-52 -15 -82 -15zM783.002 62.998
c20 0 37.334 3.66699 52.001 11s26.667 17 36 29s16.333 26.167 21 42.5s7 33.5 7 51.5s-2.33301 35.167 -7 51.5s-11.834 30.5 -21.501 42.5s-21.834 21.5 -36.501 28.5s-31.667 10.5 -51 10.5c-20 0 -37.167 -3.66699 -51.5 -11s-26.166 -17 -35.499 -29
s-16.333 -26 -21 -42s-7 -33 -7 -51s2.16699 -35.167 6.5 -51.5s11.333 -30.5 21 -42.5s21.667 -21.667 36 -29s31.5 -11 51.5 -11z" />
    <glyph glyph-name="ampersand" unicode="&#x26;" horiz-adv-x="699" 
d="M521 85c-30 -30 -64.499 -53.5 -103.499 -70.5s-82.167 -25.5 -129.5 -25.5c-38 0 -72 5.33301 -102 16s-55.333 25.334 -76 44.001s-36.5 40.834 -47.5 66.501s-16.5 53.834 -16.5 84.501c0 32 5.66699 59.5 17 82.5s25.166 42.667 41.499 59s33.833 29.666 52.5 39.999
s35 18.5 49 24.5c-28 33.333 -47.167 63 -57.5 89s-15.5 53.667 -15.5 83c0 26 4.83301 50 14.5 72s23 41.167 40 57.5s37.333 29.166 61 38.499s49.5 14 77.5 14c30 0 56.667 -4.5 80 -13.5s42.833 -21.333 58.5 -37s27.667 -34.167 36 -55.5s12.5 -44.333 12.5 -69
c0 -48 -15 -88.5 -45 -121.5s-70 -61.833 -120 -86.5l24 -24.5l52 -53.5l56.5 -57.5c18.333 -18.333 31.166 -30.5 38.499 -36.5c12 24 21.833 49.667 29.5 77s12.834 54.666 15.501 81.999h78c-4 -40 -11.5 -78 -22.5 -114s-26.167 -69.333 -45.5 -100l96 -94v-56h-63z
M220.001 583c0 -28 6 -53.6699 18 -77.0029s33 -50.333 63 -81c44.667 22.667 77.167 47.334 97.5 74.001s30.5 54.667 30.5 84c0 30.667 -9.16699 55.834 -27.5 75.501s-43.5 29.5 -75.5 29.5s-57.667 -9.66699 -77 -29s-29 -44.666 -29 -75.999zM292.001 59.9971
c38 0 71.6689 7.33301 101.002 22s54.666 33.667 75.999 57l-27.5 26.5l-43.5 42.5l-49.5 50l-47 47.5l-35.5 36l-15 15.5c-10.667 -4.66699 -22.834 -10.667 -36.501 -18s-26.667 -17 -39 -29s-22.833 -26.5 -31.5 -43.5s-13 -37.167 -13 -60.5
c0 -42 13.833 -76.833 41.5 -104.5s67.5 -41.5 119.5 -41.5z" />
    <glyph glyph-name="quotesingle" unicode="'" horiz-adv-x="217" 
d="M65 750h88l-10 -240h-69z" />
    <glyph glyph-name="parenleft" unicode="(" horiz-adv-x="367" 
d="M348 -230c-48 12.667 -90.667 33.501 -128 62.501s-68.833 64.833 -94.5 107.5s-45 91.667 -58 147s-19.5 115.666 -19.5 180.999s6.5 125.666 19.5 180.999s32.333 104.333 58 147s57.167 78.5 94.5 107.5s80 49.833 128 62.5v-71
c-32 -12.667 -61.167 -32.334 -87.5 -59.001s-48.833 -58.667 -67.5 -96s-33.167 -79.166 -43.5 -125.499s-15.5 -95.166 -15.5 -146.499s5.33301 -100.333 16 -147s25.5 -88.667 44.5 -126s41.5 -69.333 67.5 -96s54.667 -46 86 -58v-71z" />
    <glyph glyph-name="parenright" unicode=")" horiz-adv-x="367" 
d="M19 -159c32 12.667 61.167 32.334 87.5 59.001s48.833 58.667 67.5 96s33.167 79.166 43.5 125.499s15.5 95.166 15.5 146.499s-5.16699 100.166 -15.5 146.499s-24.833 88.166 -43.5 125.499s-41.167 69.333 -67.5 96s-55.5 46.334 -87.5 59.001v71
c48 -12.667 90.667 -33.5 128 -62.5s68.833 -64.833 94.5 -107.5s45 -91.667 58 -147s19.5 -115.666 19.5 -180.999s-6.5 -125.666 -19.5 -180.999s-32.333 -104.333 -58 -147s-57.167 -78.5 -94.5 -107.5s-80 -49.833 -128 -62.5v71z" />
    <glyph glyph-name="asterisk" unicode="*" horiz-adv-x="483" 
d="M95 420l96 118l-145 34l25 77l137 -49l-9 150h84l-10 -150l141 49l23 -77l-144 -34l97 -117l-66 -50l-82 129l-79 -129z" />
    <glyph glyph-name="plus" unicode="+" horiz-adv-x="516" 
d="M293 314v-189h-72v189h-176v68h176v187h72v-187h178v-68h-178z" />
    <glyph glyph-name="comma" unicode="," horiz-adv-x="234" 
d="M68 100h98v-83l-43 -138h-55v221z" />
    <glyph glyph-name="hyphen" unicode="-" horiz-adv-x="406" 
d="M68 358h270v-68h-270v68z" />
    <glyph glyph-name="period" unicode="." horiz-adv-x="237" 
d="M68 100h101v-100h-101v100z" />
    <glyph glyph-name="slash" unicode="/" horiz-adv-x="537" 
d="M422 819h87l-394 -1069h-87z" />
    <glyph glyph-name="zero" unicode="0" horiz-adv-x="634" 
d="M317 -10c-41.333 0 -77.666 7.16699 -108.999 21.5s-57.5 34 -78.5 59s-36.833 54 -47.5 87s-16 68.5 -16 106.5v222c0 38 5.5 73.667 16.5 107s27 62.333 48 87s47.167 44.167 78.5 58.5s67.333 21.5 108 21.5c41.333 0 77.666 -7 108.999 -21s57.5 -33.5 78.5 -58.5
s36.833 -54.167 47.5 -87.5s16 -69 16 -107v-222c0 -38 -5.5 -73.5 -16.5 -106.5s-27 -62 -48 -87s-47.167 -44.667 -78.5 -59s-67.333 -21.5 -108 -21.5zM317 61c49.333 0 89.166 17.667 119.499 53s45.5 84.666 45.5 147.999v226c0 64 -14.833 113.5 -44.5 148.5
s-69.834 52.5 -120.501 52.5c-49.333 0 -89.166 -17.5 -119.499 -52.5s-45.5 -84.5 -45.5 -148.5v-226c0 -63.333 14.833 -112.666 44.5 -147.999s69.834 -53 120.501 -53z" />
    <glyph glyph-name="one" unicode="1" horiz-adv-x="378" 
d="M183 647l-107 -89h-54v54l171 138h77v-750h-87v647z" />
    <glyph glyph-name="two" unicode="2" horiz-adv-x="545" 
d="M54 0l-0.000976562 71.001l218 248c36 40 65 79.167 87 117.5s33 79.5 33 123.5c0 42 -12.667 74 -38 96s-57.666 33 -96.999 33c-26 0 -48 -5.33301 -66 -16s-32.5 -23.334 -43.5 -38.001s-19.167 -29.5 -24.5 -44.5s-8.66602 -26.833 -9.99902 -35.5h-62v56
c0 3.33301 3.16699 12.833 9.5 28.5s17.333 32.5 33 50.5s37 34.167 64 48.5s61.5 21.5 103.5 21.5c32 0 61.333 -4.5 88 -13.5s49.334 -22 68.001 -39s33.167 -37.833 43.5 -62.5s15.5 -52.667 15.5 -84c0 -28.667 -3.33301 -55.167 -10 -79.5
s-16.334 -47.833 -29.001 -70.5s-27.834 -45.167 -45.501 -67.5l-58.5 -70.5l-169 -193h335v-80h-445z" />
    <glyph glyph-name="three" unicode="3" horiz-adv-x="580" 
d="M285 -7c-44 0 -80.8291 6.99805 -110.496 20.998s-53.667 30.167 -72 48.5s-31.5 36.666 -39.5 54.999s-12.667 31.5 -14 39.5v56h65c1.33301 -10 5 -23.333 11 -40s15.667 -33 29 -49s30.666 -29.833 51.999 -41.5s47.666 -17.5 78.999 -17.5
c46.667 0 84.167 13.5 112.5 40.5s42.5 62.5 42.5 106.5c0 20 -3.16699 38.833 -9.5 56.5s-16.333 32.834 -30 45.501s-31.167 22.667 -52.5 30s-47.333 11 -78 11h-76v72h70c46 0 81.5 13.167 106.5 39.5s37.5 59.5 37.5 99.5c0 36 -11.5 65.5 -34.5 88.5
s-55.5 34.5 -97.5 34.5c-27.333 0 -50 -5.16699 -68 -15.5s-32.5 -22.5 -43.5 -36.5s-18.833 -28 -23.5 -42s-7.66699 -25 -9 -33h-60v56c1.33301 6.66699 5.66602 17.834 12.999 33.501s19 31.5 35 47.5s36.833 30.167 62.5 42.5s56.834 18.5 93.501 18.5
c34 0 64.5 -4.66699 91.5 -14s50 -22.166 69 -38.499s33.5 -35.833 43.5 -58.5s15 -47.667 15 -75c0 -42 -10.333 -78 -31 -108s-49.667 -52.333 -87 -67c45.333 -11.333 81.666 -32.833 108.999 -64.5s41 -72.167 41 -121.5c0 -32.667 -5.83301 -62.5 -17.5 -89.5
s-28 -50.167 -49 -69.5s-46.333 -34.333 -76 -45s-62.834 -16 -99.501 -16z" />
    <glyph glyph-name="four" unicode="4" horiz-adv-x="606" 
d="M467 186v-196h-86v196h-360v58l373 506h73v-493h101v-71h-101zM381 620l-267 -363h267v363z" />
    <glyph glyph-name="five" unicode="5" horiz-adv-x="561" 
d="M270 -7c-42.667 0 -78.3389 7.16699 -107.006 21.5s-51.667 30.5 -69 48.5s-29.666 35.5 -36.999 52.5s-11.666 28.5 -12.999 34.5v56h63c0.666992 -7.33301 3.83398 -18.833 9.50098 -34.5s14.834 -31.334 27.501 -47.001s29.167 -29.5 49.5 -41.5s45.5 -18 75.5 -18
c25.333 0 47.833 4.33301 67.5 13s36.334 20.834 50.001 36.501s24.167 34.167 31.5 55.5s11 44.333 11 69c0 50.667 -14.5 91.5 -43.5 122.5s-67.833 46.5 -116.5 46.5c-18.667 0 -35.5 -1.83301 -50.5 -5.5s-27.833 -8 -38.5 -13s-19.334 -10.167 -26.001 -15.5
s-11.667 -10 -15 -14l-60 19l42 371h353v-80h-287l-27 -225c6 6.66699 20.5 14 43.5 22s48.833 12 77.5 12c31.333 0 61.333 -5 90 -15s53.667 -25 75 -45s38.333 -45 51 -75s19 -65 19 -105c0 -36 -5.66699 -69.167 -17 -99.5s-27.666 -56.333 -48.999 -78
s-47.166 -38.5 -77.499 -50.5s-64.5 -18 -102.5 -18z" />
    <glyph glyph-name="six" unicode="6" horiz-adv-x="584" 
d="M300 -7c-40 0 -75.502 6.33203 -106.502 18.999s-57.333 29.834 -79 51.501s-38.167 47.167 -49.5 76.5s-17 60.333 -17 93c0 30.667 3.16699 59.167 9.5 85.5s17.333 54.333 33 84s36.834 63.334 63.501 101.001s60.667 82.834 102 135.501l94 121h59v-53l-85 -110
c-23.333 -31.333 -47.333 -61.833 -72 -91.5l-60 -73.5c15.333 13.333 33.5 23.5 54.5 30.5s42.5 10.5 64.5 10.5c38 0 71.833 -6.33301 101.5 -19s54.834 -29.834 75.501 -51.501s36.5 -47 47.5 -76s16.5 -60.167 16.5 -93.5s-5.66699 -64.5 -17 -93.5
s-27.833 -54.333 -49.5 -76s-48 -38.834 -79 -51.501s-66.5 -19 -106.5 -19zM299.998 63.999c26 0 49.334 4.16699 70.001 12.5s38.167 20 52.5 35s25.166 32.833 32.499 53.5s11 43.334 11 68.001c0 50 -14 90.667 -42 122s-69 47 -123 47
c-26 0 -49.333 -4.16699 -70 -12.5s-38.167 -20 -52.5 -35s-25.333 -32.833 -33 -53.5s-11.5 -43.334 -11.5 -68.001c0 -50 14.333 -90.667 43 -122s69.667 -47 123 -47z" />
    <glyph glyph-name="seven" unicode="7" horiz-adv-x="479" 
d="M111 49l53 139.5l61.5 154l68 163l71.5 166.5h-343v78h435v-68l-77.5 -175.5l-75 -178l-69.5 -174l-61 -164.5h-63v59z" />
    <glyph glyph-name="eight" unicode="8" horiz-adv-x="594" 
d="M297 -10c-38.667 0 -73.1689 5.83301 -103.502 17.5s-55.833 27.5 -76.5 47.5s-36.5 43.667 -47.5 71s-16.5 56.666 -16.5 87.999c0 17.333 2.16699 35 6.5 53s11.333 35.5 21 52.5s22.334 32.667 38.001 47s34.834 25.833 57.501 34.5c-36 20 -60.667 44.833 -74 74.5
s-20 59.167 -20 88.5c0 27.333 4.66699 52.833 14 76.5s23.166 44.5 41.499 62.5s40.833 32.167 67.5 42.5s57.334 15.5 92.001 15.5c34 0 64.167 -5.16699 90.5 -15.5s48.5 -24.5 66.5 -42.5s31.833 -38.833 41.5 -62.5s14.5 -49.167 14.5 -76.5
c0 -36.667 -8.16699 -69 -24.5 -97s-39.5 -50 -69.5 -66c23.333 -8.66699 43 -20.167 59 -34.5s28.833 -30 38.5 -47s16.667 -34.5 21 -52.5s6.5 -35.667 6.5 -53c0 -31.333 -5.5 -60.666 -16.5 -87.999s-26.833 -51 -47.5 -71s-46.167 -35.833 -76.5 -47.5
s-64.833 -17.5 -103.5 -17.5zM296.998 432c22.667 0 42.168 3.5 58.501 10.5s30 16.5 41 28.5s19.167 26 24.5 42s8 33 8 51c0 16.667 -2.66699 32.5 -8 47.5s-13.5 28.333 -24.5 40s-24.667 21 -41 28s-35.833 10.5 -58.5 10.5s-42.334 -3.5 -59.001 -10.5
s-30.5 -16.333 -41.5 -28s-19.167 -25 -24.5 -40s-8 -30.833 -8 -47.5c0 -18 2.66699 -35 8 -51s13.333 -30 24 -42s24.5 -21.5 41.5 -28.5s36.833 -10.5 59.5 -10.5zM296.999 65c51.333 0 90 14.167 116 42.5s39 63.833 39 106.5c0 20 -3.16699 39 -9.5 57
s-16 33.667 -29 47s-29.167 24 -48.5 32s-42 12 -68 12s-48.667 -4 -68 -12s-35.5 -18.667 -48.5 -32s-22.667 -29 -29 -47s-9.5 -37 -9.5 -57c0 -42.667 13 -78.167 39 -106.5s64.667 -42.5 116 -42.5z" />
    <glyph glyph-name="nine" unicode="9" horiz-adv-x="585" 
d="M170 43l29.9961 37.001l37 44l35.5 42.5l26.5 32.5c18.667 21.333 36.167 42.5 52.5 63.5s29.5 40.167 39.5 57.5c-15.333 -14.667 -32.5 -25 -51.5 -31s-37.5 -9 -55.5 -9c-41.333 0 -77.666 6.33301 -108.999 19s-57.666 29.834 -78.999 51.501
s-37.333 47.167 -48 76.5s-16 60.666 -16 93.999s5.83301 64.5 17.5 93.5s28.334 54.333 50.001 76s48 38.667 79 51s66.167 18.5 105.5 18.5c40.667 0 76.667 -6.16699 108 -18.5s57.833 -29.333 79.5 -51s38 -46.834 49 -75.501s16.5 -59.667 16.5 -93
c0 -30 -2.83301 -58.167 -8.5 -84.5s-15 -52.833 -28 -79.5s-29.667 -55 -50 -85s-45.166 -63.667 -74.499 -101c-6.66699 -9.33301 -16.167 -21.5 -28.5 -36.5l-39.5 -48l-42 -51l-38 -46.5h-58v53zM283.996 351.001c26 0 49.167 4.16797 69.5 12.501s37.666 20 51.999 35
s25.333 33 33 54s11.5 43.833 11.5 68.5c0 50 -14 90.5 -42 121.5s-69.333 46.5 -124 46.5c-26 0 -49.167 -4.16699 -69.5 -12.5s-37.666 -19.833 -51.999 -34.5s-25.166 -32.334 -32.499 -53.001s-11 -43 -11 -67c0 -50 14.167 -91 42.5 -123s69.166 -48 122.499 -48z" />
    <glyph glyph-name="colon" unicode=":" horiz-adv-x="237" 
d="M68 500h101v-100h-101v100zM68 100h101v-100h-101v100z" />
    <glyph glyph-name="semicolon" unicode=";" horiz-adv-x="239" 
d="M69 500h101v-100h-101v100zM69 100h98v-83l-43 -138h-55v221z" />
    <glyph glyph-name="less" unicode="&#x3c;" horiz-adv-x="495" 
d="M365 90l-317 210v59l317 211h53v-51l-288 -189l288 -188v-52h-53z" />
    <glyph glyph-name="equal" unicode="=" horiz-adv-x="579" 
d="M72 449h435v-68h-435v68zM72 254h435v-67h-435v67z" />
    <glyph glyph-name="greater" unicode="&#x3e;" horiz-adv-x="494" 
d="M77 90v51l288 189l-288 188v52h52l318 -210v-59l-318 -211h-52z" />
    <glyph glyph-name="question" unicode="?" horiz-adv-x="503" 
d="M183 212c-6 15.333 -9 30.3301 -9 44.9971c0 22 5 41 15 57s22.5 30.833 37.5 44.5s31.167 26.834 48.5 39.501s33.5 27 48.5 43s27.5 33.833 37.5 53.5s15 43.5 15 71.5c0 35.333 -11.833 64.666 -35.5 87.999s-55.834 35 -96.501 35
c-32.667 0 -58.5 -6.83301 -77.5 -20.5s-33.5 -28.5 -43.5 -44.5c-12 -19.333 -20 -41.333 -24 -66h-62v56c8 27.333 21 51.666 39 72.999c9.33301 12.667 19 22.834 29 30.501s21.833 14.667 35.5 21s29.167 11.5 46.5 15.5s37 6 59 6c33.333 0 63.333 -4.66699 90 -14
s49.334 -22.5 68.001 -39.5s33 -37.333 43 -61s15 -50.167 15 -79.5c0 -32 -5.16699 -59.667 -15.5 -83s-23 -43.666 -38 -60.999s-31.5 -32.5 -49.5 -45.5s-34.5 -25.667 -49.5 -38s-27.667 -25.166 -38 -38.499s-15.5 -28.666 -15.5 -45.999
c0 -14.667 2.66699 -28.667 8 -42h-81zM177 99.9971h100v-100h-100v100z" />
    <glyph glyph-name="at" unicode="@" horiz-adv-x="984" 
d="M464 -207c-60 0 -115.169 9.49805 -165.502 28.498s-94 47 -131 84s-65.833 82.833 -86.5 137.5s-31 117.667 -31 189c0 66 10.667 127.833 32 185.5s52 108 92 151s88.667 76.833 146 101.5s122 37 194 37c63.333 0 120.666 -9.5 171.999 -28.5s95 -45.5 131 -79.5
s63.833 -74.333 83.5 -121s29.5 -97.667 29.5 -153s-7.33301 -103.5 -22 -144.5s-35.667 -74.833 -63 -101.5s-60.5 -46.5 -99.5 -59.5s-83.167 -19.5 -132.5 -19.5h-50l4 82c-6.66699 -11.333 -14.5 -22.5 -23.5 -33.5s-19.167 -20.667 -30.5 -29s-24 -15.166 -38 -20.499
s-29.667 -8 -47 -8c-28 0 -52.333 6 -73 18s-37.334 28.833 -50.001 50.5s-21.334 47.167 -26.001 76.5s-5 61.333 -1 96c4 35.333 11.833 67.833 23.5 97.5s27.167 55.334 46.5 77.001s42.333 38.5 69 50.5s56.667 18 90 18c18.667 0 34.5 -2.16699 47.5 -6.5
s23.833 -9.16602 32.5 -14.499c10.667 -6 19.334 -13 26.001 -21l12 27h56l-44 -390c66.667 0 118.334 20.667 155.001 62s55 105.666 55 192.999c0 40 -6.5 78.5 -19.5 115.5s-33.333 69.667 -61 98s-62.667 51 -105 68s-92.5 25.5 -150.5 25.5
c-56 0 -107.333 -9.5 -154 -28.5s-86.5 -46 -119.5 -81s-58.667 -77.167 -77 -126.5s-27.5 -104.333 -27.5 -165c0 -62 8.66699 -116 26 -162s41 -84 71 -114s65.167 -52.333 105.5 -67s83.5 -22 129.5 -22c29.333 0 55.333 1.33301 78 4s43.334 6 62.001 10
s35.667 8.66699 51 14l44 16v-70c-15.333 -7.33301 -30.833 -13.833 -46.5 -19.5s-32.667 -10.5 -51 -14.5s-38.666 -7.16699 -60.999 -9.5s-48.166 -3.5 -77.499 -3.5zM447.998 56.998c18 0 34.167 4.16699 48.5 12.5s26.833 19.833 37.5 34.5s19.334 31.667 26.001 51
s11 40.333 13 63l18 160c-5.33301 6.66699 -12.333 12.667 -21 18c-7.33301 4.66699 -16.333 8.66699 -27 12s-23.667 5 -39 5c-20.667 0 -39.5 -5 -56.5 -15s-31.667 -23.333 -44 -40s-22.166 -35.667 -29.499 -57s-12.333 -43.333 -15 -66
c-6.66699 -58.667 -2.33398 -103 12.999 -133s40.666 -45 75.999 -45z" />
    <glyph glyph-name="A" unicode="A" horiz-adv-x="662" 
d="M17 0v56l279 694h69l277 -686v-64h-63l-85 217h-330l-85 -217h-62zM329 636l-137 -349h273z" />
    <glyph glyph-name="B" unicode="B" horiz-adv-x="637" 
d="M99 750h224c36 0 68.333 -4.5 97 -13.5s53 -22 73 -39s35.5 -37.5 46.5 -61.5s16.5 -51 16.5 -81c0 -37.333 -8.83301 -69.833 -26.5 -97.5s-45.167 -48.834 -82.5 -63.501c44 -13.333 77.833 -35.166 101.5 -65.499s35.5 -67.5 35.5 -111.5
c0 -68 -22.667 -121.167 -68 -159.5s-108.333 -57.5 -189 -57.5h-228v750zM315 422c48 0 85.668 11.167 113.001 33.5s41 54.5 41 96.5c0 37.333 -13.333 68 -40 92s-62.334 36 -107.001 36h-138v-258h131zM328.001 70c52 0 93.333 13.168 124 39.501s46 61.833 46 106.5
c0 43.333 -15.333 77.166 -46 101.499s-71.667 36.5 -123 36.5h-145v-284h144z" />
    <glyph glyph-name="C" unicode="C" horiz-adv-x="735" 
d="M415 -10c-59.333 0 -111.831 10.1641 -157.498 30.4971s-83.834 48 -114.501 83s-53.834 76 -69.501 123s-23.5 97.5 -23.5 151.5c0 54.667 8.5 105.334 25.5 152.001s41.333 87 73 121s70 60.667 115 80s95.5 29 151.5 29c54 0 98.667 -6.66699 134 -20
s63.666 -28 84.999 -44c24.667 -19.333 43.667 -41 57 -65v-56h-63c-9.33301 21.333 -23 40.333 -41 57c-16.667 15.333 -38.334 28.666 -65.001 39.999s-61.667 17 -105 17c-44.667 0 -84.5 -8 -119.5 -24s-64.5 -38 -88.5 -66s-42.167 -61 -54.5 -99
s-18.5 -78.667 -18.5 -122c0 -44.667 6.5 -86.167 19.5 -124.5s31.667 -71.666 56 -99.999s53.833 -50.666 88.5 -66.999s73.667 -24.5 117 -24.5c42.667 0 77.834 6.16699 105.501 18.5s49.5 25.833 65.5 40.5c19.333 17.333 34.333 37 45 59h63v-56
c-14.667 -25.333 -35 -47.666 -61 -66.999c-22.667 -18 -51.667 -33.667 -87 -47s-79.666 -20 -132.999 -20z" />
    <glyph glyph-name="D" unicode="D" horiz-adv-x="752" 
d="M99 750l224 0.000976562c58.667 0 111.334 -9.83301 158.001 -29.5s86.334 -46.334 119.001 -80.001s57.834 -73 75.501 -118s26.5 -93.167 26.5 -144.5c0 -52 -8.83301 -101 -26.5 -147s-42.834 -86 -75.501 -120s-72.334 -61 -119.001 -81s-99.334 -30 -158.001 -30
h-224v750zM320 71.001c44 0 84.167 7.83301 120.5 23.5s67.5 37.167 93.5 64.5s46.167 59.666 60.5 96.999s21.5 78 21.5 122c0 42.667 -7.16699 82.334 -21.5 119.001s-34.5 68.5 -60.5 95.5s-57.167 48.167 -93.5 63.5s-76.5 23 -120.5 23h-134v-608h134z" />
    <glyph glyph-name="E" unicode="E" horiz-adv-x="574" 
d="M99 750h422v-71h-335v-257h302v-71h-302v-280h335v-71h-422v750z" />
    <glyph glyph-name="F" unicode="F" horiz-adv-x="564" 
d="M99 750h419v-71h-332v-266h302v-71h-302v-342h-87v750z" />
    <glyph glyph-name="G" unicode="G" horiz-adv-x="773" 
d="M425 -10c-58.667 0 -111.168 10.1689 -157.501 30.502s-85.666 48 -117.999 83s-57 76.167 -74 123.5s-25.5 97.666 -25.5 150.999s8.5 103.333 25.5 150s41.667 87.167 74 121.5s71.666 61.333 117.999 81s98.833 29.5 157.5 29.5c54 0 98.667 -6.66699 134 -20
s63.333 -28 84 -44c24.667 -19.333 43.667 -41 57 -65v-56h-62c-10 21.333 -24 40.333 -42 57c-17.333 15.333 -39.333 28.666 -66 39.999s-61 17 -103 17c-47.333 0 -89.166 -8.16699 -125.499 -24.5s-66.666 -38.666 -90.999 -66.999s-42.833 -61.333 -55.5 -99
s-19 -77.834 -19 -120.501c0 -44 6.5 -85.167 19.5 -123.5s32 -71.833 57 -100.5s55.5 -51.167 91.5 -67.5s77 -24.5 123 -24.5c26 0 49.5 2.33301 70.5 7s39.5 10.167 55.5 16.5s29.667 13.333 41 21s20.666 14.5 27.999 20.5v186h-214v71h301v-289l-15.5 -16.5
c-10.333 -11 -27 -23 -50 -36s-52.333 -25 -88 -36s-79.167 -16.5 -130.5 -16.5z" />
    <glyph glyph-name="H" unicode="H" horiz-adv-x="763" 
d="M99 750h87v-330h391v330h87v-750h-87v349h-391v-349h-87v750z" />
    <glyph glyph-name="I" unicode="I" horiz-adv-x="285" 
d="M99 750h87v-750h-87v750z" />
    <glyph glyph-name="J" unicode="J" horiz-adv-x="437" 
d="M174 -10c-26.667 0 -49.499 3.49902 -68.499 10.499s-34.5 15.333 -46.5 25s-20.833 19.334 -26.5 29.001s-8.5 16.834 -8.5 21.501v57h63c0 -4.66699 1.5 -11.167 4.5 -19.5s7.83301 -16.333 14.5 -24s15.5 -14.334 26.5 -20.001s23.833 -8.5 38.5 -8.5
c29.333 0 51.166 8.5 65.499 25.5s21.5 48.833 21.5 95.5v568h86v-567c0 -62.667 -13.333 -110.5 -40 -143.5s-70 -49.5 -130 -49.5z" />
    <glyph glyph-name="K" unicode="K" horiz-adv-x="632" 
d="M186 0h-87v750h87v-357l353 357h55v-55l-316 -313l334 -323v-59h-59l-367 359v-359z" />
    <glyph glyph-name="L" unicode="L" horiz-adv-x="538" 
d="M99 750h87v-679h332v-71h-419v750z" />
    <glyph glyph-name="M" unicode="M" horiz-adv-x="908" 
d="M178 636v-636h-79v750h105l253 -453l248 453h104v-750h-86v638l-243 -447h-59z" />
    <glyph glyph-name="N" unicode="N" horiz-adv-x="761" 
d="M99 750h79l405 -610v610h79v-750h-79l-405 605v-605h-79v750z" />
    <glyph glyph-name="O" unicode="O" horiz-adv-x="834" 
d="M417 -10c-56 0 -106.5 9.83301 -151.5 29.5s-83.5 46.667 -115.5 81s-56.667 75.166 -74 122.499s-26 99 -26 155c0 55.333 8.66699 106.333 26 153s42 87 74 121s70.5 60.5 115.5 79.5s95.5 28.5 151.5 28.5s106.5 -9.5 151.5 -28.5s83.5 -45.5 115.5 -79.5
s56.667 -74.333 74 -121s26 -97.667 26 -153c0 -56 -8.66699 -107.667 -26 -155s-42 -88.166 -74 -122.499s-70.5 -61.333 -115.5 -81s-95.5 -29.5 -151.5 -29.5zM417 61c43.333 0 82.333 8 117 24s64.167 38 88.5 66s43 61.333 56 100s19.5 81 19.5 127
c0 44.667 -6.5 86 -19.5 124s-31.667 70.833 -56 98.5s-53.833 49.334 -88.5 65.001s-73.667 23.5 -117 23.5s-82.333 -7.83301 -117 -23.5s-64.167 -37.334 -88.5 -65.001s-43 -60.5 -56 -98.5s-19.5 -79.333 -19.5 -124c0 -46 6.5 -88.333 19.5 -127s31.667 -72 56 -100
s53.833 -50 88.5 -66s73.667 -24 117 -24z" />
    <glyph glyph-name="P" unicode="P" horiz-adv-x="593" 
d="M99 750l194.999 0.00195312c40 0 76.333 -5.16699 109 -15.5s60.334 -25.333 83.001 -45s40.167 -43.334 52.5 -71.001s18.5 -58.834 18.5 -93.501c0 -32 -5.5 -62.667 -16.5 -92s-27.5 -55 -49.5 -77s-49.333 -39.667 -82 -53s-71 -20 -115 -20h-108v-283h-87v750z
M292.999 354.002c57.333 0 101.332 15.832 131.999 47.499s46 71.834 46 120.501c0 20.667 -3.66699 40.5 -11 59.5s-18.5 35.667 -33.5 50s-33.667 25.833 -56 34.5s-48.166 13 -77.499 13h-107v-325h107z" />
    <glyph glyph-name="Q" unicode="Q" horiz-adv-x="834" 
d="M761 -109l-59 0.000976562l-117 136c-50.667 -24.667 -106.667 -37 -168 -37c-56 0 -106.5 9.83301 -151.5 29.5s-83.5 46.667 -115.5 81s-56.667 75.166 -74 122.499s-26 99 -26 155c0 55.333 8.66699 106.333 26 153s42 87 74 121s70.5 60.5 115.5 79.5
s95.5 28.5 151.5 28.5s106.5 -9.5 151.5 -28.5s83.5 -45.5 115.5 -79.5s56.667 -74.333 74 -121s26 -97.667 26 -153c0 -64 -11.167 -122.167 -33.5 -174.5s-53.833 -95.833 -94.5 -130.5l105 -123v-59zM136 378.001c0 -46 6.5 -88.332 19.5 -126.999s31.667 -72 56 -100
s53.833 -50 88.5 -66s73.667 -24 117 -24c22 0 42.833 2.16699 62.5 6.5s38.167 10.166 55.5 17.499l-99 116v59h59l110 -128c30 28.667 53 64 69 106s24 88.667 24 140c0 44.667 -6.5 86 -19.5 124s-31.667 70.833 -56 98.5s-53.833 49.334 -88.5 65.001
s-73.667 23.5 -117 23.5s-82.333 -7.83301 -117 -23.5s-64.167 -37.334 -88.5 -65.001s-43 -60.5 -56 -98.5s-19.5 -79.333 -19.5 -124z" />
    <glyph glyph-name="R" unicode="R" horiz-adv-x="635" 
d="M99 0v750.001h199c79.333 0 141.333 -18.833 186 -56.5s67 -88.834 67 -153.501c0 -51.333 -14 -95.333 -42 -132s-69 -61.667 -123 -75l215 -274v-59h-60l-243 315h-112v-315h-87zM303 388.001c27.333 0 51 3.83203 71 11.499s36.667 18.334 50 32.001
s23.333 29.5 30 47.5s10 37.333 10 58c0 16 -3 32.333 -9 49s-15.5 31.5 -28.5 44.5s-29.667 23.667 -50 32s-44.833 12.5 -73.5 12.5h-117v-287h117z" />
    <glyph glyph-name="S" unicode="S" horiz-adv-x="590" 
d="M299 -10c-34 0 -64.5029 3.83789 -91.5029 11.5049s-50.667 17.834 -71 30.501s-37.5 27.167 -51.5 43.5s-24.667 33.166 -32 50.499v56h63c13.333 -36 35 -65.167 65 -87.5s70 -33.5 120 -33.5c22 0 42.5 3 61.5 9s35.5 14.833 49.5 26.5s25 25.834 33 42.501
s12 35.667 12 57c0 33.333 -10.667 61.166 -32 83.499s-60.666 41.5 -117.999 57.5l-45 13c-70 19.333 -120.5 46.166 -151.5 80.499s-46.5 77.833 -46.5 130.5c0 29.333 5.5 56.166 16.5 80.499s26.667 45.166 47 62.499s45.166 31 74.499 41s62.333 15 99 15
c62.667 0 111.334 -12.167 146.001 -36.5s57.334 -55.5 68.001 -93.5v-56h-62c-3.33301 14 -8.5 28 -15.5 42s-16.667 26.333 -29 37s-27.666 19.334 -45.999 26.001s-40.5 10 -66.5 10c-24.667 0 -46.334 -3.33301 -65.001 -10s-34.167 -15.5 -46.5 -26.5
s-21.666 -24 -27.999 -39s-9.5 -30.5 -9.5 -46.5c0 -38 12.667 -66.833 38 -86.5s60 -36.167 104 -49.5l58 -18c63.333 -18.667 111.5 -44.834 144.5 -78.501s49.5 -79.834 49.5 -138.501c0 -32 -6 -60.667 -18 -86s-28.667 -46.833 -50 -64.5
s-46.833 -31.334 -76.5 -41.001s-62.167 -14.5 -97.5 -14.5z" />
    <glyph glyph-name="T" unicode="T" horiz-adv-x="623" 
d="M269 679h-251v71h587v-71h-250v-679h-86v679z" />
    <glyph glyph-name="U" unicode="U" horiz-adv-x="742" 
d="M371 -10c-42.667 0 -81.334 7.16699 -116.001 21.5s-64.167 34 -88.5 59s-43 54.5 -56 88.5s-19.5 71 -19.5 111v480h86v-481c0 -30 4.33301 -57.667 13 -83s21.334 -47.333 38.001 -66s37 -33.167 61 -43.5s51.333 -15.5 82 -15.5c32 0 60.5 5.16699 85.5 15.5
s46 24.833 63 43.5s30 40.667 39 66s13.5 53 13.5 83v481h79v-480c0 -40 -6.5 -77 -19.5 -111s-31.5 -63.5 -55.5 -88.5s-53.333 -44.667 -88 -59s-73.667 -21.5 -117 -21.5z" />
    <glyph glyph-name="V" unicode="V" horiz-adv-x="679" 
d="M18 687v63h67l257 -639l258 639h63v-55l-285 -695h-76z" />
    <glyph glyph-name="W" unicode="W" horiz-adv-x="961" 
d="M480 591l-175 -591h-73l-206 687v63h66l181 -602l179 602h63l178 -602l181 602h62v-55l-208 -695h-73z" />
    <glyph glyph-name="X" unicode="X" horiz-adv-x="647" 
d="M32 55l241 327l-231 309v59h59l226 -304l223 304h54v-55l-231 -311l242 -325v-59h-59l-236 320l-234 -320h-54v55z" />
    <glyph glyph-name="Y" unicode="Y" horiz-adv-x="628" 
d="M272 311l-262 380v59h60l252 -366l235 366h55v-55l-253 -385v-310h-87v311z" />
    <glyph glyph-name="Z" unicode="Z" horiz-adv-x="598" 
d="M38 0v63l415 616h-410v71h512v-63l-415 -616h420v-71h-522z" />
    <glyph glyph-name="bracketleft" unicode="[" horiz-adv-x="355" 
d="M93 750h238v-71h-151v-838h151v-71h-238v980z" />
    <glyph glyph-name="backslash" unicode="\" horiz-adv-x="537" 
d="M28 819h87l394 -1069h-87z" />
    <glyph glyph-name="bracketright" unicode="]" horiz-adv-x="355" 
d="M24 -159h151v838h-151v71h238v-980h-238v71z" />
    <glyph glyph-name="asciicircum" unicode="^" horiz-adv-x="522" 
d="M261 668l-150 -243h-53v52l172 273h62l172 -273v-52h-53z" />
    <glyph glyph-name="underscore" unicode="_" horiz-adv-x="524" 
d="M0 -126h524v-67h-524v67z" />
    <glyph glyph-name="grave" unicode="`" horiz-adv-x="315" 
d="M75 701v49h70l95 -91v-49h-70z" />
    <glyph glyph-name="a" unicode="a" horiz-adv-x="516" 
d="M210 -10c-28.667 0 -53.667 3.99902 -75 11.999s-39 18.833 -53 32.5s-24.5 29.667 -31.5 48s-10.5 38.166 -10.5 59.499s3.83301 40.833 11.5 58.5s19.5 33.167 35.5 46.5s36.833 23.666 62.5 30.999s56.5 11 92.5 11c17.333 0 33.333 -0.666992 48 -2
s27.667 -2.66602 39 -3.99902c12.667 -2 24.334 -4.33301 35.001 -7v35c0 42 -9.33301 73.833 -28 95.5s-49 32.5 -91 32.5c-24.667 0 -45 -3.66699 -61 -11s-28.667 -15.666 -38 -24.999c-10.667 -10.667 -19 -22.667 -25 -36h-52v53c9.33301 16 22 30.667 38 44
c14 11.333 32.167 21.333 54.5 30s50.833 13 85.5 13c64.667 0 113.5 -16.667 146.5 -50s49.5 -82.666 49.5 -147.999v-309h-63l-9 87c-12.667 -24.667 -32.334 -47 -59.001 -67s-60.667 -30 -102 -30zM222 54.999c23.333 0 43.833 3.99805 61.5 11.998s32.5 18.333 44.5 31
s21 26.834 27 42.501s9 30.834 9 45.501v29c-10 2.66699 -21.333 5 -34 7c-11.333 1.33301 -24.333 2.66602 -39 3.99902s-31 2 -49 2c-24.667 0 -45 -2.33301 -61 -7s-28.667 -11 -38 -19s-16 -17.167 -20 -27.5s-6 -21.166 -6 -32.499c0 -58 35 -87 105 -87z" />
    <glyph glyph-name="b" unicode="b" horiz-adv-x="615" 
d="M336 -10c-38 0 -72.667 8.33301 -104 25s-56.666 41 -75.999 73l-9 -88h-70v750h79v-342c17.333 28.667 41.166 52.334 71.499 71.001s66.5 28 108.5 28c36 0 68.333 -6.66699 97 -20s53.167 -31.666 73.5 -54.999s36 -50.5 47 -81.5s16.5 -64.167 16.5 -99.5
c0 -36 -5.5 -69.833 -16.5 -101.5s-26.5 -59.334 -46.5 -83.001s-44.5 -42.334 -73.5 -56.001s-61.5 -20.5 -97.5 -20.5zM322 58c26 0 49.498 4.83301 70.498 14.5s38.833 23 53.5 40s25.834 37.333 33.501 61s11.5 49.5 11.5 77.5c0 26 -3.66699 50.333 -11 73
s-18.166 42.5 -32.499 59.5s-32 30.5 -53 40.5s-45.167 15 -72.5 15c-26 0 -49.333 -4.83301 -70 -14.5s-38.167 -23 -52.5 -40s-25.166 -37 -32.499 -60s-11 -47.5 -11 -73.5c0 -32 4.66699 -60 14 -84s21.666 -44.167 36.999 -60.5s33 -28.5 53 -36.5s40.667 -12 62 -12z
" />
    <glyph glyph-name="c" unicode="c" horiz-adv-x="530" 
d="M293 -10c-40 0 -75.333 6.83594 -106 20.5029s-56.5 32.167 -77.5 55.5s-37 50.666 -48 81.999s-16.5 65 -16.5 101c0 35.333 5.66699 68.833 17 100.5s27.833 59.167 49.5 82.5s47.834 41.833 78.501 55.5s65 20.5 103 20.5c39.333 0 71.333 -5.33301 96 -16
s44 -22.334 58 -35.001c16.667 -14.667 29 -31.667 37 -51v-52h-53c-5.33301 16 -13.666 30.333 -24.999 43c-10.667 12 -24.834 22.167 -42.501 30.5s-41.167 12.5 -70.5 12.5c-28 0 -52.667 -5.16699 -74 -15.5s-39 -24.333 -53 -42s-24.5 -38 -31.5 -61
s-10.5 -47.167 -10.5 -72.5s3.5 -49.5 10.5 -72.5s17.5 -43.333 31.5 -61s31.667 -31.667 53 -42s46 -15.5 74 -15.5c30.667 0 55.167 4.5 73.5 13.5s32.166 18.833 41.499 29.5c11.333 12.667 19.333 27 24 43h53v-53c-8.66699 -18.667 -21.334 -35.334 -38.001 -50.001
c-15.333 -14 -35.166 -26 -59.499 -36s-55.833 -15 -94.5 -15z" />
    <glyph glyph-name="d" unicode="d" horiz-adv-x="616" 
d="M279 -10c-35.333 0 -67.499 6.66699 -96.499 20s-53.667 31.666 -74 54.999s-36 50.833 -47 82.5s-16.5 65.5 -16.5 101.5c0 36.667 5.66699 70.834 17 102.501s27.166 59 47.499 82s45 41 74 54s60.833 19.5 95.5 19.5c38 0 72.833 -8 104.5 -24s56.834 -41 75.501 -75
v342h79v-750h-70l-10 88c-40.667 -65.333 -100.334 -98 -179.001 -98zM293.001 58c22.667 0 44.166 4.33496 64.499 13.002s38 21.167 53 37.5s26.833 36.333 35.5 60s13 50.5 13 80.5c0 26.667 -3.83301 51.5 -11.5 74.5s-18.5 43 -32.5 60s-31.333 30.5 -52 40.5
s-44 15 -70 15c-26.667 0 -50.5 -5 -71.5 -15s-38.833 -23.5 -53.5 -40.5s-25.667 -37 -33 -60s-11 -47.833 -11 -74.5c0 -28.667 4.16699 -54.834 12.5 -78.501s20 -43.834 35 -60.501s32.833 -29.5 53.5 -38.5s43.334 -13.5 68.001 -13.5z" />
    <glyph glyph-name="e" unicode="e" horiz-adv-x="558" 
d="M297 -10c-40.667 0 -76.499 6.16504 -107.499 18.498s-57.167 29.833 -78.5 52.5s-37.5 50 -48.5 82s-16.5 67.333 -16.5 106c0 34.667 5.16699 67.667 15.5 99s25.666 58.666 45.999 81.999s45.5 42 75.5 56s65 21 105 21c38 0 71.167 -5.66699 99.5 -17
s51.833 -26.666 70.5 -45.999s32.5 -42.333 41.5 -69s13.5 -55.667 13.5 -87c0 -8 -0.166992 -15 -0.5 -21s-0.5 -11.333 -0.5 -16c-0.666992 -4.66699 -1.33398 -9 -2.00098 -13h-385c2.66699 -57.333 18.834 -101.666 48.501 -132.999s70.834 -47 123.501 -47
c27.333 0 50.333 3.16699 69 9.5s34 13.833 46 22.5s21 17.5 27 26.5s9.66699 15.833 11 20.5h52v-52c-0.666992 -2.66699 -4.83398 -9.16699 -12.501 -19.5s-19.5 -21.166 -35.5 -32.499s-36.833 -21.333 -62.5 -30s-57.167 -13 -94.5 -13zM436.001 297.998
c0 43.333 -12.5 77.668 -37.5 103.001s-61.5 38 -109.5 38s-85 -12.833 -111 -38.5s-42.333 -59.834 -49 -102.501h307z" />
    <glyph glyph-name="f" unicode="f" horiz-adv-x="364" 
d="M111 429h-90v68h90v90c0 58 15 101.333 45 130s68 43 114 43c35.333 0 63.166 -6.66699 83.499 -20s34.166 -28.666 41.499 -45.999v-53h-55c-2 9.33301 -8.16699 19.666 -18.5 30.999s-27.166 17 -50.499 17s-42.666 -7.66699 -57.999 -23s-23 -41 -23 -77v-92h161v-68
h-161v-429h-79v429z" />
    <glyph glyph-name="g" unicode="g" horiz-adv-x="616" 
d="M282 -260c-40 0 -73.668 5.66602 -101.001 16.999s-49.333 24.166 -66 38.499s-28.667 28 -36 41s-11.666 21.5 -12.999 25.5v52h53c2 -6.66699 6.16699 -15.667 12.5 -27s15.833 -22.666 28.5 -33.999s29 -21.166 49 -29.499s44.333 -12.5 73 -12.5
c58 0 102.167 18.167 132.5 54.5s45.5 90.833 45.5 163.5v63c-19.333 -34 -44.666 -59.5 -75.999 -76.5s-66 -25.5 -104 -25.5c-35.333 0 -67.5 6.66699 -96.5 20s-53.667 31.666 -74 54.999s-36 50.833 -47 82.5s-16.5 65.5 -16.5 101.5
c0 36.667 5.66699 70.834 17 102.501s27.166 59 47.499 82s45 41.167 74 54.5s60.833 20 95.5 20c38.667 0 73.5 -8.66699 104.5 -26s56.167 -42 75.5 -74l9 89h70v-467c0 -93.333 -22.5 -165 -67.5 -215s-108.167 -75 -189.5 -75zM292.999 57.999
c23.333 0 44.998 4.33496 64.998 13.002s37.667 21.167 53 37.5s27.333 36.333 36 60s13 50.5 13 80.5c0 26.667 -3.83301 51.5 -11.5 74.5s-18.5 43.167 -32.5 60.5s-31.333 31 -52 41s-44 15 -70 15c-26.667 0 -50.5 -5 -71.5 -15s-38.833 -23.667 -53.5 -41
s-25.667 -37.5 -33 -60.5s-11 -47.833 -11 -74.5c0 -28.667 4.16699 -54.834 12.5 -78.501s19.833 -43.834 34.5 -60.501s32.334 -29.5 53.001 -38.5s43.334 -13.5 68.001 -13.5z" />
    <glyph glyph-name="h" unicode="h" horiz-adv-x="572" 
d="M77 750h79.001v-330c12 22 31 42 57 60s59.333 27 100 27c34 0 62.833 -5.33301 86.5 -16s43 -25.5 58 -44.5s25.833 -41.5 32.5 -67.5s10 -54.333 10 -85v-294h-79v285c0 48 -9.33301 85.833 -28 113.5s-51 41.5 -97 41.5c-24 0 -44.833 -4 -62.5 -12
s-32.334 -19 -44.001 -33s-20.167 -30.333 -25.5 -49s-8 -38.667 -8 -60v-286h-79v750z" />
    <glyph glyph-name="i" unicode="i" horiz-adv-x="235" 
d="M78 497h79v-497h-79v497zM70 720h94v-93h-94v93z" />
    <glyph glyph-name="j" unicode="j" horiz-adv-x="235" 
d="M22 -260c-18.667 0 -34.998 2 -48.998 6s-25.833 9 -35.5 15s-17.334 12.5 -23.001 19.5s-9.83398 13.833 -12.501 20.5v53h52c0.666992 -3.33301 2.16699 -7.33301 4.5 -12s5.83301 -9.33398 10.5 -14.001s11 -8.66699 19 -12s17.667 -5 29 -5
c23.333 0 39.333 7.16699 48 21.5s13 36.5 13 66.5v598h79v-598c0 -51.333 -10.5 -90.666 -31.5 -117.999s-55.5 -41 -103.5 -41zM71.002 720h94v-93h-94v93z" />
    <glyph glyph-name="k" unicode="k" horiz-adv-x="492" 
d="M77 750h79v-480l243 227h51v-52l-202 -183l221 -206v-56h-56l-257 246v-246h-79v750z" />
    <glyph glyph-name="l" unicode="l" horiz-adv-x="235" 
d="M78 750h79v-750h-79v750z" />
    <glyph glyph-name="m" unicode="m" horiz-adv-x="825" 
d="M78 497h70.002l6 -73c11.333 22 28.333 41.333 51 58s51.334 25 86.001 25c38 0 68.333 -8 91 -24s40 -37.667 52 -65c13.333 23.333 32.166 44 56.499 62s56.5 27 96.5 27c29.333 0 54.5 -5 75.5 -15s38.167 -23.667 51.5 -41s23 -38 29 -62s9 -49.667 9 -77v-312h-79
v307c0 40 -7.83301 72.167 -23.5 96.5s-42.5 36.5 -80.5 36.5s-66.5 -12.5 -85.5 -37.5s-28.5 -55.833 -28.5 -92.5v-310h-79v306c0 40.667 -8 73.167 -24 97.5s-42.333 36.5 -79 36.5c-19.333 0 -36.333 -3.83301 -51 -11.5s-26.834 -18 -36.501 -31
s-16.834 -28 -21.501 -45s-7 -35.167 -7 -54.5v-298h-79v497z" />
    <glyph glyph-name="n" unicode="n" horiz-adv-x="573" 
d="M78 497h70.0049l6 -84c5.33301 12 12.666 23.5 21.999 34.5s20.666 21 33.999 30s28.666 16.167 45.999 21.5s36.666 8 57.999 8c34 0 62.833 -5.33301 86.5 -16s43 -25.5 58 -44.5s25.833 -41.5 32.5 -67.5s10 -54.333 10 -85v-294h-79v285
c0 48 -9.33301 85.833 -28 113.5s-51 41.5 -97 41.5c-24 0 -44.833 -4 -62.5 -12s-32.334 -19 -44.001 -33s-20.167 -30.333 -25.5 -49s-8 -38.667 -8 -60v-286h-79v497z" />
    <glyph glyph-name="o" unicode="o" horiz-adv-x="586" 
d="M293 -10c-38 0 -72.333 6.83301 -103 20.5s-56.834 32.167 -78.501 55.5s-38.167 50.666 -49.5 81.999s-17 65 -17 101s5.66699 69.667 17 101s27.833 58.666 49.5 81.999s47.834 41.666 78.501 54.999s65 20 103 20s72.333 -6.66699 103 -20
s56.834 -31.666 78.501 -54.999s38.167 -50.666 49.5 -81.999s17 -65 17 -101s-5.66699 -69.667 -17 -101s-27.833 -58.666 -49.5 -81.999s-47.834 -41.833 -78.501 -55.5s-65 -20.5 -103 -20.5zM293 58c28 0 52.667 5.16895 74 15.502s39 24.333 53 42s24.5 38 31.5 61
s10.5 47.167 10.5 72.5s-3.5 49.5 -10.5 72.5s-17.5 43.167 -31.5 60.5s-31.667 31.166 -53 41.499s-46 15.5 -74 15.5s-52.667 -5.16699 -74 -15.5s-39 -24.333 -53 -42s-24.5 -37.834 -31.5 -60.501s-10.5 -46.667 -10.5 -72s3.5 -49.5 10.5 -72.5s17.5 -43.333 31.5 -61
s31.667 -31.667 53 -42s46 -15.5 74 -15.5z" />
    <glyph glyph-name="p" unicode="p" horiz-adv-x="616" 
d="M78 497l69.999 0.000976562l8 -90c17.333 29.333 41.333 53.333 72 72s67 28 109 28c36 0 68.333 -6.66699 97 -20s53.167 -31.666 73.5 -54.999s36 -50.5 47 -81.5s16.5 -64.167 16.5 -99.5c0 -36 -5.5 -69.833 -16.5 -101.5s-26.5 -59.334 -46.5 -83.001
s-44.5 -42.334 -73.5 -56.001s-61.5 -20.5 -97.5 -20.5c-38 0 -72.667 8.33301 -104 25s-56.666 41 -75.999 73v-338h-79v747zM322.999 58.001c26 0 49.498 4.83301 70.498 14.5s38.833 23 53.5 40s25.834 37.333 33.501 61s11.5 49.5 11.5 77.5
c0 26 -3.66699 50.333 -11 73s-18.166 42.5 -32.499 59.5s-32 30.5 -53 40.5s-45.167 15 -72.5 15c-26 0 -49.333 -4.83301 -70 -14.5s-38.167 -23 -52.5 -40s-25.166 -37 -32.499 -60s-11 -47.5 -11 -73.5c0 -32 4.66699 -60 14 -84s21.666 -44.167 36.999 -60.5
s33 -28.5 53 -36.5s40.667 -12 62 -12z" />
    <glyph glyph-name="q" unicode="q" horiz-adv-x="616" 
d="M460 92c-19.333 -35.333 -45.002 -61.166 -77.002 -77.499s-66.333 -24.5 -103 -24.5c-35.333 0 -67.5 6.66699 -96.5 20s-53.667 31.666 -74 54.999s-36 50.833 -47 82.5s-16.5 65.5 -16.5 101.5c0 36.667 5.5 70.834 16.5 102.501s26.833 59 47.5 82
s45.334 41 74.001 54s60.667 19.5 96 19.5c38 0 72.833 -8.33301 104.5 -25s56.834 -41.334 75.501 -74.001l9 89h70v-747h-79v342zM293.998 58c22.667 0 44.166 4.33496 64.499 13.002s38 21.167 53 37.5s26.833 36.333 35.5 60s13 50.5 13 80.5
c0 26.667 -3.83301 51.5 -11.5 74.5s-18.5 43 -32.5 60s-31.333 30.5 -52 40.5s-44 15 -70 15c-27.333 0 -51.5 -5 -72.5 -15s-38.667 -23.5 -53 -40.5s-25.166 -37 -32.499 -60s-11 -47.833 -11 -74.5c0 -28.667 4.16699 -54.834 12.5 -78.501s19.833 -43.834 34.5 -60.501
s32.5 -29.5 53.5 -38.5s43.833 -13.5 68.5 -13.5z" />
    <glyph glyph-name="r" unicode="r" horiz-adv-x="435" 
d="M78 497h69.999l6 -72c12.667 24.667 30.5 44.5 53.5 59.5s51.833 22.5 86.5 22.5c36.667 0 66 -8.5 88 -25.5s35.667 -39.167 41 -66.5v-52h-52c-1.33301 6.66699 -3.83301 14.5 -7.5 23.5s-9.33398 17.5 -17.001 25.5s-17.5 14.667 -29.5 20s-27 8 -45 8
c-20.667 0 -38.167 -4 -52.5 -12s-26.166 -18.667 -35.499 -32s-16.166 -29 -20.499 -47s-6.5 -36.667 -6.5 -56v-293h-79v497z" />
    <glyph glyph-name="s" unicode="s" horiz-adv-x="470" 
d="M245 -10c-34.667 0 -63.999 3.99805 -87.999 11.998s-43.833 17.333 -59.5 28s-27.5 21.334 -35.5 32.001s-13 19 -15 25v53h53c2 -6 6 -13.5 12 -22.5s14.833 -18 26.5 -27s26.167 -16.667 43.5 -23s38 -9.5 62 -9.5c38 0 65.5 6.66699 82.5 20s25.5 30.666 25.5 51.999
c0 13.333 -2.83301 24.333 -8.5 33s-13.5 16 -23.5 22s-21.833 11 -35.5 15s-28.5 7.66699 -44.5 11l-57 13c-16.667 4 -32.5 9.16699 -47.5 15.5s-28.167 15 -39.5 26s-20.5 24.333 -27.5 40s-10.5 34.5 -10.5 56.5c0 19.333 3.83301 37.833 11.5 55.5s19 33.167 34 46.5
s33.333 23.833 55 31.5s46.5 11.5 74.5 11.5c51.333 0 90.833 -9 118.5 -27s46.167 -38.667 55.5 -62v-53h-53c-1.33301 6 -4.33301 13.167 -9 21.5s-11.834 16.333 -21.501 24s-21.667 14.334 -36 20.001s-32.166 8.5 -53.499 8.5c-34.667 0 -60.167 -7 -76.5 -21
s-24.5 -31.667 -24.5 -53c0 -22 8.5 -38.667 25.5 -50s39.5 -20.333 67.5 -27l53 -12c18 -4 35.833 -9.16699 53.5 -15.5s33.5 -14.833 47.5 -25.5s25.167 -23.667 33.5 -39s12.5 -34.333 12.5 -57c0 -20.667 -3.66699 -40.167 -11 -58.5s-18.5 -34.166 -33.5 -47.499
s-33.833 -23.833 -56.5 -31.5s-49.334 -11.5 -80.001 -11.5z" />
    <glyph glyph-name="t" unicode="t" horiz-adv-x="413" 
d="M270 -10c-54 0 -95.667 14.332 -125 42.999s-44 71.334 -44 128.001v268h-81v68h85l5 128h70v-128h196v-68h-196v-258c0 -35.333 6.83301 -63 20.5 -83s37.167 -30 70.5 -30c16.667 0 30 2.66699 40 8s17.833 11.5 23.5 18.5s9.5 14 11.5 21s3.33301 12.5 4 16.5h52v-52
c-3.33301 -8.66699 -8.33301 -17.667 -15 -27s-15.167 -18 -25.5 -26s-23 -14.5 -38 -19.5s-32.833 -7.5 -53.5 -7.5z" />
    <glyph glyph-name="u" unicode="u" horiz-adv-x="573" 
d="M262 -10c-32.667 0 -60.8301 4.99805 -84.4971 14.998s-43.334 24.333 -59.001 43s-27.334 40.834 -35.001 66.501s-11.5 54.167 -11.5 85.5v297h79v-288c0 -49.333 10.5 -87 31.5 -113s52.833 -39 95.5 -39c45.333 0 79.833 14.167 103.5 42.5s35.5 64.5 35.5 108.5v289
h78v-497h-69l-6 80c-13.333 -23.333 -32.833 -44.166 -58.5 -62.499s-58.834 -27.5 -99.501 -27.5z" />
    <glyph glyph-name="v" unicode="v" horiz-adv-x="512" 
d="M230 0l-206 441v56h56l179 -389l178 389h52v-52l-205 -445h-54z" />
    <glyph glyph-name="w" unicode="w" horiz-adv-x="742" 
d="M369 379l-126 -379h-56l-158 441v56h56l136 -376l126 376h55l128 -373l134 373h51v-52l-162 -445h-55z" />
    <glyph glyph-name="x" unicode="x" horiz-adv-x="507" 
d="M38 51l169 200l-166 191v55h55l160 -195l159 195h51v-51l-166 -195l169 -196v-55h-55l-163 199l-162 -199h-51v51z" />
    <glyph glyph-name="y" unicode="y" horiz-adv-x="512" 
d="M77 -250v55l144 265l-196 372v55h55l184 -352l180 352h51v-52l-363 -695h-55z" />
    <glyph glyph-name="z" unicode="z" horiz-adv-x="473" 
d="M41 0v59l289 370h-284v68h381v-59l-289 -370h294v-68h-391z" />
    <glyph glyph-name="braceleft" unicode="{" horiz-adv-x="397" 
d="M372 -232c-88.667 0 -152.167 18.8311 -190.5 56.498s-57.5 95.167 -57.5 172.5v56c0 38 -2.33301 68.167 -7 90.5s-11.5 39.333 -20.5 51s-20.333 19.334 -34 23.001s-29.834 5.5 -48.501 5.5v72c18.667 0 34.834 1.83301 48.501 5.5s25 11.334 34 23.001
s15.833 28.667 20.5 51s7 52.5 7 90.5v56c0 78 20 135.667 60 173s104.667 56 194 56v-70c-59.333 0 -102 -11.167 -128 -33.5s-39 -60.5 -39 -114.5v-58c0 -36 -2.66699 -66.667 -8 -92s-12.333 -46.333 -21 -63s-18.834 -29.667 -30.501 -39s-23.5 -16.333 -35.5 -21
c12 -4.66699 23.833 -11.5 35.5 -20.5s21.834 -21.667 30.501 -38s15.667 -37 21 -62s8 -55.5 8 -91.5v-58c0 -55.333 12.5 -94.333 37.5 -117s66.167 -34 123.5 -34v-70z" />
    <glyph glyph-name="bar" unicode="|" horiz-adv-x="269" 
d="M91 -208v985l43 42l44 -42v-985l-44 -42z" />
    <glyph glyph-name="braceright" unicode="}" horiz-adv-x="397" 
d="M19 -162c59.333 0 102 11.1689 128 33.502s39 60.5 39 114.5v58c0 36 2.66699 66.667 8 92s12.333 46.333 21 63s18.834 29.667 30.501 39s23.5 16.333 35.5 21c-12 4.66699 -23.833 11.5 -35.5 20.5s-21.834 21.667 -30.501 38s-15.667 37 -21 62s-8 55.5 -8 91.5v58
c0 55.333 -12.5 94.333 -37.5 117s-66.167 34 -123.5 34v70c89.333 0 153 -18.833 191 -56.5s57 -95.167 57 -172.5v-56c0 -38 2.33301 -68.167 7 -90.5s11.5 -39.333 20.5 -51s20.333 -19.334 34 -23.001s29.834 -5.5 48.501 -5.5v-72
c-18.667 0 -34.834 -1.83301 -48.501 -5.5s-25 -11.334 -34 -23.001s-15.833 -28.667 -20.5 -51s-7 -52.5 -7 -90.5v-56c0 -78 -20 -135.667 -60 -173s-104.667 -56 -194 -56v70z" />
    <glyph glyph-name="asciitilde" unicode="~" horiz-adv-x="589" 
d="M389 218c-20.667 0 -38.834 4.99805 -54.501 14.998s-30 21.167 -43 33.5s-25.667 23.5 -38 33.5s-25.833 15 -40.5 15c-18 0 -31.833 -8.66699 -41.5 -26s-16.167 -39.666 -19.5 -66.999h-78c2.66699 33.333 8.33398 61 17.001 83s19.167 39.5 31.5 52.5
s26.333 22.333 42 28s31.5 8.5 47.5 8.5c22 0 41 -5 57 -15s30.5 -21.167 43.5 -33.5s25.5 -23.5 37.5 -33.5s25 -15 39 -15c17.333 0 29.5 8.66699 36.5 26s13.167 43 18.5 77h77c-2 -35.333 -7 -64.666 -15 -87.999s-18 -42 -30 -56s-25.5 -23.833 -40.5 -29.5
s-30.5 -8.5 -46.5 -8.5z" />
    <glyph glyph-name="uni00A0" unicode="&#xa0;" horiz-adv-x="261" 
 />
    <glyph glyph-name="exclamdown" unicode="&#xa1;" horiz-adv-x="264" 
d="M96 398h70l9 -538h-88zM82 610h100v-100h-100v100z" />
    <glyph glyph-name="cent" unicode="&#xa2;" horiz-adv-x="534" 
d="M487 91c-8.66699 -18.667 -21.001 -35.332 -37.001 -49.999c-14.667 -14 -33.834 -26 -57.501 -36s-54.167 -15 -91.5 -15l-8 -133h-70l9 140c-30 6.66699 -56.5 17.667 -79.5 33s-42.333 34.166 -58 56.499s-27.5 47.333 -35.5 75s-12 56.834 -12 87.501
c0 33.333 5 64.666 15 93.999s24.5 55.5 43.5 78.5s41.833 42 68.5 57s57 24.167 91 27.5l9 140h69l-9 -140c30.667 -4 55.834 -11.333 75.501 -22s35.167 -22 46.5 -34c13.333 -13.333 23.333 -28 30 -44v-52h-53c-4 12.667 -10.333 24.667 -19 36
c-8 10 -18.667 19.333 -32 28s-30.666 15 -51.999 19l-24 -379c28 1.33301 50.333 6.5 67 15.5s29.667 18.833 39 29.5c10.667 12 18 25.667 22 41h53v-53zM125.999 249.002c0 -42 9.16797 -79.666 27.501 -112.999s46.166 -56.333 83.499 -69l23 370
c-22 -4 -41.5 -11.833 -58.5 -23.5s-31 -26 -42 -43s-19.333 -35.833 -25 -56.5s-8.5 -42.334 -8.5 -65.001z" />
    <glyph glyph-name="sterling" unicode="&#xa3;" horiz-adv-x="590" 
d="M538 0l-479.997 -0.000976562v76c36 22.667 63.167 51 81.5 85s27.5 75 27.5 123c0 5.33301 -0.166992 10.5 -0.5 15.5s-0.833008 10.167 -1.5 15.5h-109v71h90c-8.66699 23.333 -16.834 48 -24.501 74s-11.5 57.667 -11.5 95c0 32.667 5.5 61.667 16.5 87
s26.167 46.833 45.5 64.5s42.333 31 69 40s55.334 13.5 86.001 13.5c43.333 0 78.166 -7.5 104.499 -22.5s47.166 -31.167 62.499 -48.5c17.333 -21.333 30 -45.333 38 -72v-55h-62c-4.66699 24 -12.667 45.333 -24 64c-10.667 16.667 -25.167 31.334 -43.5 44.001
s-42.833 19 -73.5 19c-38.667 0 -70.5 -11.5 -95.5 -34.5s-37.5 -56.167 -37.5 -99.5c0 -20 1.33301 -37.833 4 -53.5s5.83398 -30 9.50098 -43s7.66699 -25.333 12 -37s8.16602 -23.5 11.499 -35.5h213v-71h-198c0.666992 -5.33301 1 -10.5 1 -15.5v-15.5
c0 -44 -8.33301 -84 -25 -120s-40.334 -64.667 -71.001 -86h385v-78z" />
    <glyph glyph-name="yen" unicode="&#xa5;" horiz-adv-x="673" 
d="M384 133v-133h-87v133h-185v71h185v71h-185v71h162l-239 345v59h59l252 -363l237 363h54v-55l-230 -349h158v-71h-181v-71h181v-71h-181z" />
    <glyph glyph-name="brokenbar" unicode="&#xa6;" horiz-adv-x="268" 
d="M90 777l44 42l44 -42v-384h-88v384zM90 -208v393h88v-393l-45 -42z" />
    <glyph glyph-name="section" unicode="&#xa7;" horiz-adv-x="568" 
d="M286 -120c-41.333 0 -75.833 5.00098 -103.5 15.001s-49.834 21.5 -66.501 34.5s-28.667 25.833 -36 38.5s-11.333 21.667 -12 27v56h63c0 -4 2.16699 -11.5 6.5 -22.5s12.333 -22.167 24 -33.5s27.5 -21.5 47.5 -30.5s45.667 -13.5 77 -13.5c44 0 78.333 9 103 27
s37 42.667 37 74c0 15.333 -2 28.5 -6 39.5s-11.167 20.667 -21.5 29s-24.333 16.166 -42 23.499s-40.167 15 -67.5 23l-72 21c-48.667 13.333 -86.667 32.166 -114 56.499s-41 58.166 -41 101.499c0 23.333 4.83301 44.333 14.5 63s24.5 33.667 44.5 45
c-19.333 14 -34 31.167 -44 51.5s-15 45.833 -15 76.5c0 27.333 5.33301 52 16 74s25.834 40.667 45.501 56s43 27.166 70 35.499s56.833 12.5 89.5 12.5c45.333 0 81.833 -6 109.5 -18s49.5 -25 65.5 -39c18.667 -17.333 32 -36.666 40 -57.999v-56h-62
c-5.33301 18.667 -14.333 35.334 -27 50.001c-11.333 13.333 -26.833 25 -46.5 35s-46.167 15 -79.5 15c-44 0 -78.333 -9.33301 -103 -28s-37 -44 -37 -76c0 -13.333 2 -25.166 6 -35.499s11.167 -19.833 21.5 -28.5s24.333 -17 42 -25s40.5 -16 68.5 -24l68 -20
c54 -16 93.833 -35.833 119.5 -59.5s38.5 -56.5 38.5 -98.5c0 -49.333 -19.667 -85.333 -59 -108c18 -13.333 32.333 -30.5 43 -51.5s16 -47.5 16 -79.5c0 -52 -19.667 -94.167 -59 -126.5s-93.333 -48.5 -162 -48.5zM344 233.001c4.66699 -2 10.166 -3.83301 16.499 -5.5
s11.5 -3.5 15.5 -5.5c15.333 6.66699 26.5 15.667 33.5 27s10.5 24 10.5 38c0 11.333 -1.66699 21.333 -5 30s-9.66602 17 -18.999 25s-22.5 15.667 -39.5 23s-39.167 15 -66.5 23l-66 19l-16.5 6c-5.66699 2 -10.5 4 -14.5 6c-29.333 -14 -44 -35.667 -44 -65
c0 -10.667 1.66699 -20.5 5 -29.5s9.5 -17.5 18.5 -25.5s21.5 -15.833 37.5 -23.5s36.667 -15.167 62 -22.5z" />
    <glyph glyph-name="dieresis" unicode="&#xa8;" horiz-adv-x="377" 
d="M52 720h94v-93h-94v93zM236 720h93v-93h-93v93z" />
    <glyph glyph-name="copyright" unicode="&#xa9;" horiz-adv-x="1032" 
d="M516 -209c-66.667 0 -128.667 12.167 -186 36.5s-107 57.5 -149 99.5s-74.833 91.167 -98.5 147.5s-35.5 116.166 -35.5 179.499s11.833 123 35.5 179s56.5 105 98.5 147s91.667 75.167 149 99.5s119.333 36.5 186 36.5c67.333 0 129.666 -12.167 186.999 -36.5
s106.833 -57.5 148.5 -99.5s74.334 -91 98.001 -147s35.5 -115.667 35.5 -179s-11.833 -123.166 -35.5 -179.499s-56.334 -105.5 -98.001 -147.5s-91.167 -75.167 -148.5 -99.5s-119.666 -36.5 -186.999 -36.5zM516 -137c56 0 107.667 10.167 155 30.5
s88.5 48.166 123.5 83.499s62.333 76.833 82 124.5s29.5 98.5 29.5 152.5s-9.83301 104.833 -29.5 152.5s-47 89.167 -82 124.5s-76.167 63.166 -123.5 83.499s-99 30.5 -155 30.5c-55.333 0 -106.833 -10.167 -154.5 -30.5s-88.834 -48.166 -123.501 -83.499
s-61.834 -76.833 -81.501 -124.5s-29.5 -98.5 -29.5 -152.5s9.83301 -104.833 29.5 -152.5s46.834 -89.167 81.501 -124.5s75.834 -63.166 123.501 -83.499s99.167 -30.5 154.5 -30.5zM521 -10c-42 0 -78.666 6.83105 -109.999 20.498s-57.666 32.334 -78.999 56.001
s-37.333 51.334 -48 83.001s-16 65.5 -16 101.5c0 36.667 5.66699 70.834 17 102.501s27.833 59.167 49.5 82.5s48 41.666 79 54.999s66.5 20 106.5 20c39.333 0 71.333 -4.83301 96 -14.5s44.334 -20.167 59.001 -31.5c16.667 -14 29 -29.667 37 -47v-53h-52
c-5.33301 14.667 -14 27.667 -26 39c-11.333 10 -25.833 18.833 -43.5 26.5s-41.167 11.5 -70.5 11.5c-28.667 0 -53.834 -5 -75.501 -15s-39.5 -23.667 -53.5 -41s-24.5 -37.666 -31.5 -60.999s-10.5 -48 -10.5 -74c0 -26.667 3.66699 -51.834 11 -75.501
s18.333 -44 33 -61s32.667 -30.5 54 -40.5s46 -15 74 -15c30 0 54.167 4 72.5 12s32.5 17 42.5 27c12 11.333 20.667 24.333 26 39h52v-53c-8.66699 -17.333 -21.334 -33 -38.001 -47c-15.333 -12.667 -35.333 -23.667 -60 -33s-56.334 -14 -95.001 -14z" />
    <glyph glyph-name="ordfeminine" unicode="&#xaa;" horiz-adv-x="473" 
d="M195 304c-48 0 -84.1689 12.5029 -108.502 37.5029s-36.5 56.833 -36.5 95.5c0 18.667 3.33301 36.167 10 52.5s17.334 30.666 32.001 42.999s33.167 22.166 55.5 29.499s49.166 11 80.499 11c14 0 26.833 -0.666992 38.5 -2s22.167 -2.66602 31.5 -3.99902
c10 -2 19.333 -4.33301 28 -7v34c0 33.333 -8.16699 58.833 -24.5 76.5s-40.833 26.5 -73.5 26.5c-22 0 -39.667 -3.5 -53 -10.5s-23.666 -14.833 -30.999 -23.5c-8.66699 -10.667 -15 -22.334 -19 -35.001h-51v51c8 15.333 19 29 33 41c12.667 11.333 28.834 21 48.501 29
s44.834 12 75.501 12c52 0 93.167 -12.833 123.5 -38.5s45.5 -68.167 45.5 -127.5v-282h-59l-9 69c-10.667 -18.667 -26.834 -36.334 -48.501 -53.001s-51.167 -25 -88.5 -25zM207.998 365.003c18 0 34.334 3 49.001 9s27 14 37 24s17.833 21.333 23.5 34s8.5 26 8.5 40v30
c-8 2 -17 4 -27 6c-9.33301 1.33301 -19.833 2.66602 -31.5 3.99902s-24.834 2 -39.501 2c-34 0 -60 -6.66699 -78 -20s-27 -32.666 -27 -57.999c0 -21.333 7.16699 -38.5 21.5 -51.5s35.5 -19.5 63.5 -19.5z" />
    <glyph glyph-name="guillemotleft" unicode="&#xab;" horiz-adv-x="557" 
d="M231 60l-191 210l191 210h52v-51l-147 -158l147 -159v-52h-52zM445 60l-191 210l191 210h52v-51l-147 -158l147 -159v-52h-52z" />
    <glyph glyph-name="uni00AD" unicode="&#xad;" horiz-adv-x="406" 
d="M68 358h270v-68h-270v68z" />
    <glyph glyph-name="registered" unicode="&#xae;" horiz-adv-x="704" 
d="M352 148c-40.667 0 -79.167 8 -115.5 24s-68 37.667 -95 65s-48.333 59.666 -64 96.999s-23.5 77.333 -23.5 120s7.83301 82.667 23.5 120s37 69.666 64 96.999s58.667 49 95 65s74.833 24 115.5 24s79.167 -8 115.5 -24s68 -37.667 95 -65s48.333 -59.666 64 -96.999
s23.5 -77.333 23.5 -120s-7.83301 -82.667 -23.5 -120s-37 -69.666 -64 -96.999s-58.667 -49 -95 -65s-74.833 -24 -115.5 -24zM352 198c34.667 0 66.834 6.83301 96.501 20.5s55.167 32 76.5 55s38.166 50.167 50.499 81.5s18.5 64.333 18.5 99
c0 35.333 -6.16699 68.5 -18.5 99.5s-29.166 58 -50.499 81s-46.833 41.333 -76.5 55s-61.834 20.5 -96.501 20.5s-67 -6.83301 -97 -20.5s-55.667 -32 -77 -55s-38.166 -50 -50.499 -81s-18.5 -64.167 -18.5 -99.5c0 -34.667 6.16699 -67.667 18.5 -99
s29.166 -58.5 50.499 -81.5s47 -41.333 77 -55s62.333 -20.5 97 -20.5zM305 300l-54.999 -0.000976562v313h97c36 0 63.167 -8.66699 81.5 -26s27.5 -38.666 27.5 -63.999c0 -21.333 -5.33301 -39 -16 -53s-25.334 -24.667 -44.001 -32l81 -103v-35h-35l-101 126h-36v-126z
M341.001 468.999c18.667 0 33.332 5.16699 43.999 15.5s16 22.5 16 36.5c0 13.333 -5.16699 25 -15.5 35s-25.166 15 -44.499 15h-36v-102h36z" />
    <glyph glyph-name="macron" unicode="&#xaf;" horiz-adv-x="387" 
d="M75 707h237v-71h-237v71z" />
    <glyph glyph-name="degree" unicode="&#xb0;" horiz-adv-x="444" 
d="M222 414c-25.333 0 -48.833 4.5 -70.5 13.5s-40.334 21.333 -56.001 37s-28 34 -37 55s-13.5 43.5 -13.5 67.5s4.5 46.5 13.5 67.5s21.333 39.333 37 55s34.334 28 56.001 37s45.167 13.5 70.5 13.5c26 0 49.833 -4.5 71.5 -13.5s40.334 -21.333 56.001 -37
s27.834 -34 36.501 -55s13 -43.5 13 -67.5s-4.33301 -46.5 -13 -67.5s-20.834 -39.333 -36.501 -55s-34.334 -28 -56.001 -37s-45.5 -13.5 -71.5 -13.5zM222 481c31.333 0 55.666 10.5 72.999 31.5s26 45.833 26 74.5c0 14 -2.33301 27.333 -7 40
s-11.167 23.834 -19.5 33.501s-18.666 17.334 -30.999 23.001s-26.166 8.5 -41.499 8.5c-14.667 0 -28.167 -2.83301 -40.5 -8.5s-22.833 -13.334 -31.5 -23.001s-15.334 -20.834 -20.001 -33.501s-7 -26 -7 -40c0 -28.667 9 -53.5 27 -74.5s42 -31.5 72 -31.5z" />
    <glyph glyph-name="plusminus" unicode="&#xb1;" horiz-adv-x="574" 
d="M323 383v-178h-73v178h-176v68h176v178h73v-178h177v-68h-177zM74 128h426v-67h-426v67z" />
    <glyph glyph-name="acute" unicode="&#xb4;" horiz-adv-x="315" 
d="M75 659l95 91h70v-49l-95 -91h-70v49z" />
    <glyph glyph-name="paragraph" unicode="&#xb6;" horiz-adv-x="618" 
d="M261 367h-20.001c-30.667 0 -58.667 4.33301 -84 13s-47.166 21 -65.499 37s-32.5 35.833 -42.5 59.5s-15 50.5 -15 80.5c0 28 4.33301 53.833 13 77.5s22.167 44 40.5 61s41.5 30.333 69.5 40s61 14.5 99 14.5h247v-846h-73v775h-96v-775h-73v463z" />
    <glyph glyph-name="periodcentered" unicode="&#xb7;" horiz-adv-x="226" 
d="M68 343h90v-88h-90v88z" />
    <glyph glyph-name="cedilla" unicode="&#xb8;" horiz-adv-x="424" 
d="M146 -147c17.333 0 32.333 2.50098 45 7.50098s19 15.167 19 30.5s-6.16699 25.666 -18.5 30.999s-26.166 8 -41.499 8v70h65v-40c23.333 -4 40.166 -13 50.499 -27s15.5 -30.667 15.5 -50c0 -16.667 -3.33301 -30.5 -10 -41.5s-14.5 -19.833 -23.5 -26.5
s-17.833 -11.5 -26.5 -14.5s-15 -4.83301 -19 -5.5h-56v58z" />
    <glyph glyph-name="ordmasculine" unicode="&#xba;" horiz-adv-x="524" 
d="M262 303c-34.667 0 -65.334 6 -92.001 18s-49.334 28.5 -68.001 49.5s-32.834 45.5 -42.501 73.5s-14.5 57.667 -14.5 89s4.83301 60.833 14.5 88.5s23.834 51.834 42.501 72.501s41.334 37 68.001 49s57.334 18 92.001 18c34 0 64.5 -6 91.5 -18s49.667 -28.333 68 -49
s32.5 -44.834 42.5 -72.501s15 -57.167 15 -88.5s-5 -61 -15 -89s-24.167 -52.5 -42.5 -73.5s-41 -37.5 -68 -49.5s-57.5 -18 -91.5 -18zM262 368c48 0 83.833 15.167 107.5 45.5s35.5 70.166 35.5 119.499c0 48 -11.833 87.167 -35.5 117.5s-59.5 45.5 -107.5 45.5
s-83.833 -15.167 -107.5 -45.5s-35.5 -69.5 -35.5 -117.5c0 -49.333 11.833 -89.166 35.5 -119.499s59.5 -45.5 107.5 -45.5z" />
    <glyph glyph-name="guillemotright" unicode="&#xbb;" horiz-adv-x="556" 
d="M60 60v51l147 158l-147 159v52h52l191 -210l-191 -210h-52zM274 60v51l147 158l-147 159v52h52l191 -210l-191 -210h-52z" />
    <glyph glyph-name="onequarter" unicode="&#xbc;" horiz-adv-x="871" 
d="M617 790h79l-469 -830h-79zM150 300v369l-74 -62h-42v42l125 101h64v-450h-73zM768 87v-112h-72v112h-217v36l203 304h86v-279h64v-61h-64zM696 340l-129 -192h129v192z" />
    <glyph glyph-name="onehalf" unicode="&#xbd;" horiz-adv-x="909" 
d="M617 790h79l-469 -830h-79zM150 669l-74 -62h-42v42l125 101h64v-450h-73v369zM571 -25l-0.000976562 53.998l130 122c31.333 29.333 53.166 54.833 65.499 76.5s18.5 44.167 18.5 67.5s-6.5 41.833 -19.5 55.5s-31.833 20.5 -56.5 20.5
c-17.333 0 -31.333 -3.16699 -42 -9.5s-19.167 -13.666 -25.5 -21.999s-10.666 -16.833 -12.999 -25.5s-3.83301 -15 -4.5 -19h-49v49c0.666992 1.33301 2.83398 6.5 6.50098 15.5s10.5 18.833 20.5 29.5s23.833 20.334 41.5 29.001s40.834 13 69.501 13
c43.333 0 77.666 -11.333 102.999 -34s38 -54 38 -94c0 -34 -8.33301 -65 -25 -93s-42.667 -58.333 -78 -91l-83 -78h197v-66h-294z" />
    <glyph glyph-name="threequarters" unicode="&#xbe;" horiz-adv-x="955" 
d="M704 790h80l-469 -830h-80zM202 296c-30.667 0 -55.998 4.17188 -75.998 12.5049s-36 17.833 -48 28.5s-20.5 21 -25.5 31s-7.83301 16.667 -8.5 20v49h49c0.666992 -4.66699 2.83398 -11.5 6.50098 -20.5s9.33398 -18 17.001 -27s18 -16.667 31 -23s29.5 -9.5 49.5 -9.5
c28 0 49.667 6.5 65 19.5s23 30.833 23 53.5c0 8.66699 -1.33301 17.167 -4 25.5s-7.66699 16 -15 23s-17 12.667 -29 17s-27.667 6.5 -47 6.5h-47v60h50c27.333 0 45.833 7.5 55.5 22.5s14.5 30.833 14.5 47.5c0 20.667 -6.66699 36.5 -20 47.5s-31.666 16.5 -54.999 16.5
c-18 0 -32.5 -2.83301 -43.5 -8.5s-19.667 -12.334 -26 -20.001s-10.833 -15.5 -13.5 -23.5s-4.33398 -14.333 -5.00098 -19h-49v49c0.666992 4 3.5 10.5 8.5 19.5s13.167 18.167 24.5 27.5s26.166 17.5 44.499 24.5s41.166 10.5 68.499 10.5
c19.333 0 37.166 -2.16699 53.499 -6.5s30.666 -11.333 42.999 -21s22 -21.834 29 -36.501s10.5 -32.334 10.5 -53.001c0 -24.667 -6 -45.834 -18 -63.501s-30.333 -30.834 -55 -39.501c32 -5.33301 55.667 -17.833 71 -37.5s23 -43.5 23 -71.5
c0 -37.333 -13 -68.5 -39 -93.5s-63.667 -37.5 -113 -37.5zM855.002 87.0049v-112h-72v112h-217v36l203 304h86v-279h64v-61h-64zM783.002 340.005l-129 -192h129v192z" />
    <glyph glyph-name="questiondown" unicode="&#xbf;" horiz-adv-x="503" 
d="M320 398c6 -14.667 9 -29.666 9 -44.999c0 -21.333 -5 -40 -15 -56s-22.5 -30.833 -37.5 -44.5s-31.167 -27 -48.5 -40s-33.5 -27.333 -48.5 -43s-27.5 -33.667 -37.5 -54s-15 -44.166 -15 -71.499c0 -35.333 11.833 -64.666 35.5 -87.999s55.834 -35 96.501 -35
c32.667 0 58.5 6.83301 77.5 20.5s33.5 28.5 43.5 44.5c12 19.333 20 41.333 24 66h62v-56c-8 -27.333 -21 -51.666 -39 -72.999c-9.33301 -12.667 -19 -22.834 -29 -30.501s-21.833 -14.667 -35.5 -21s-29.167 -11.5 -46.5 -15.5s-37 -6 -59 -6
c-33.333 0 -63.333 4.66699 -90 14s-49.334 22.5 -68.001 39.5s-33 37.5 -43 61.5s-15 50.333 -15 79c0 32 5.16699 59.667 15.5 83s23 43.666 38 60.999s31.5 32.5 49.5 45.5s34.5 25.667 49.5 38s27.667 25.166 38 38.499s15.5 28.666 15.5 45.999
c0 14.667 -2.66699 28.667 -8 42h81zM326 510.001h-100v100h100v-100z" />
    <glyph glyph-name="Agrave" unicode="&#xc0;" horiz-adv-x="662" 
d="M17 0v56l279 694h69l277 -686v-64h-63l-85 217h-330l-85 -217h-62zM329 636l-137 -349h273zM191 896v49h70l101 -91v-49h-70z" />
    <glyph glyph-name="Aacute" unicode="&#xc1;" horiz-adv-x="662" 
d="M17 0v56l279 694h69l277 -686v-64h-63l-85 217h-330l-85 -217h-62zM329 636l-137 -349h273zM295 854l102 91h69v-49l-101 -91h-70v49z" />
    <glyph glyph-name="Acircumflex" unicode="&#xc2;" horiz-adv-x="662" 
d="M17 0v56l279 694h69l277 -686v-64h-63l-85 217h-330l-85 -217h-62zM329 636l-137 -349h273zM329 877l-82 -73h-49v49l95 85h71l95 -85v-49h-49z" />
    <glyph glyph-name="Atilde" unicode="&#xc3;" horiz-adv-x="662" 
d="M17 0v56l279 694h69l277 -686v-64h-63l-85 217h-330l-85 -217h-62zM329 636l-137 -349h273zM394 807c-14 0 -26.001 2.16895 -36.001 6.50195s-19 9 -27 14s-15.833 9.66699 -23.5 14s-16.5 6.5 -26.5 6.5c-8.66699 0 -16.667 -2.83301 -24 -8.5
s-11.666 -14.834 -12.999 -27.501h-58c0 32 7.83301 56.833 23.5 74.5s37.5 26.5 65.5 26.5c14.667 0 26.667 -2.16699 36 -6.5s17.666 -9 24.999 -14l21 -14c6.66699 -4.33301 14.667 -6.5 24 -6.5c8.66699 0 16.334 2.16699 23.001 6.5s10.667 14.166 12 29.499h57
c0 -67.333 -26.333 -101 -79 -101z" />
    <glyph glyph-name="Adieresis" unicode="&#xc4;" horiz-adv-x="662" 
d="M17 0v56l279 694h69l277 -686v-64h-63l-85 217h-330l-85 -217h-62zM329 636l-137 -349h273zM189 914h94v-94h-94v94zM378 914h95v-94h-95v94z" />
    <glyph glyph-name="Aring" unicode="&#xc5;" horiz-adv-x="662" 
d="M17 0v56l279 694h69l277 -686v-64h-63l-85 217h-330l-85 -217h-62zM329 636l-137 -349h273zM328 792c-26.667 0 -48.667 8.16699 -66 24.5s-26 37.166 -26 62.499s8.66699 46.166 26 62.499s39.333 24.5 66 24.5c26 0 47.833 -8.16699 65.5 -24.5
s26.5 -37.166 26.5 -62.499s-8.83301 -46.166 -26.5 -62.499s-39.5 -24.5 -65.5 -24.5zM328 845c9.33301 0 17.5 2.83301 24.5 8.5s10.5 14.167 10.5 25.5c0 10.667 -3.5 19 -10.5 25s-15.167 9 -24.5 9s-17.5 -3 -24.5 -9s-10.5 -14.333 -10.5 -25
c0 -11.333 3.5 -19.833 10.5 -25.5s15.167 -8.5 24.5 -8.5z" />
    <glyph glyph-name="AE" unicode="&#xc6;" horiz-adv-x="915" 
d="M417 750h445v-71h-335v-257h302v-71h-302v-280h335v-71h-422v217h-249l-125 -217h-62v55zM440 288v361l-208 -361h208z" />
    <glyph glyph-name="Ccedilla" unicode="&#xc7;" horiz-adv-x="735" 
d="M508 -117c0 -16.667 -3.33203 -30.5029 -9.99902 -41.5029s-14.5 -19.833 -23.5 -26.5s-17.833 -11.5 -26.5 -14.5s-15 -4.83301 -19 -5.5h-56v58c17.333 0 32.333 2.5 45 7.5s19 15.167 19 30.5s-6.16699 25.666 -18.5 30.999s-26.166 8 -41.499 8v62
c-53.333 4 -100.333 16.833 -141 38.5s-74.834 49.834 -102.501 84.501s-48.5 74.5 -62.5 119.5s-21 92.833 -21 143.5c0 54.667 8.5 105.334 25.5 152.001s41.333 87 73 121s70 60.667 115 80s95.5 29 151.5 29c54 0 98.667 -6.66699 134 -20s63.666 -28 84.999 -44
c24.667 -19.333 43.667 -41 57 -65v-56h-63c-9.33301 21.333 -23 40.333 -41 57c-16.667 15.333 -38.334 28.666 -65.001 39.999s-61.667 17 -105 17c-44.667 0 -84.5 -8 -119.5 -24s-64.5 -38 -88.5 -66s-42.167 -61 -54.5 -99s-18.5 -78.667 -18.5 -122
c0 -44.667 6.5 -86.167 19.5 -124.5s31.667 -71.666 56 -99.999s53.833 -50.666 88.5 -66.999s73.667 -24.5 117 -24.5c42.667 0 77.834 6.16699 105.501 18.5s49.5 25.833 65.5 40.5c19.333 17.333 34.333 37 45 59h63v-56c-13.333 -23.333 -31.666 -44.333 -54.999 -63
c-20.667 -17.333 -47 -32.666 -79 -45.999s-72 -21.333 -120 -24v-31c23.333 -4 40.166 -13 50.499 -27s15.5 -30.667 15.5 -50z" />
    <glyph glyph-name="Egrave" unicode="&#xc8;" horiz-adv-x="574" 
d="M99 750h422v-71h-335v-257h302v-71h-302v-280h335v-71h-422v750zM193 896v49h70l101 -91v-49h-70z" />
    <glyph glyph-name="Eacute" unicode="&#xc9;" horiz-adv-x="574" 
d="M99 750h422v-71h-335v-257h302v-71h-302v-280h335v-71h-422v750zM274 854l102 91h69v-49l-101 -91h-70v49z" />
    <glyph glyph-name="Ecircumflex" unicode="&#xca;" horiz-adv-x="574" 
d="M99 750h422v-71h-335v-257h302v-71h-302v-280h335v-71h-422v750zM309 877l-82 -73h-49v49l95 85h71l95 -85v-49h-49z" />
    <glyph glyph-name="Edieresis" unicode="&#xcb;" horiz-adv-x="574" 
d="M99 750h422v-71h-335v-257h302v-71h-302v-280h335v-71h-422v750zM167 914h94v-94h-94v94zM356 914h95v-94h-95v94z" />
    <glyph glyph-name="Igrave" unicode="&#xcc;" horiz-adv-x="285" 
d="M99 750h87v-750h-87v750zM7 896v49h70l101 -91v-49h-70z" />
    <glyph glyph-name="Iacute" unicode="&#xcd;" horiz-adv-x="285" 
d="M99 750h87v-750h-87v750zM107 854l102 91h69v-49l-101 -91h-70v49z" />
    <glyph glyph-name="Icircumflex" unicode="&#xce;" horiz-adv-x="285" 
d="M143 877l-82 -73h-49v49l95 85h71l95 -85v-49h-49zM99 750h87v-750h-87v750z" />
    <glyph glyph-name="Idieresis" unicode="&#xcf;" horiz-adv-x="285" 
d="M1 914h94v-94h-94v94zM190 914h95v-94h-95v94zM99 750h87v-750h-87v750z" />
    <glyph glyph-name="Eth" unicode="&#xd0;" horiz-adv-x="757" 
d="M708 378c0 -52 -8.83301 -100.999 -26.5 -146.999s-42.834 -86 -75.501 -120s-72.334 -61 -119.001 -81s-99.334 -30 -158.001 -30h-224v349h-89v71h89v330h224c58.667 0 111.334 -9.83301 158.001 -29.5s86.334 -46.334 119.001 -80.001s57.834 -73 75.501 -118
s26.5 -93.167 26.5 -144.5zM326 71.001c44 0 84.167 7.83301 120.5 23.5s67.5 37.167 93.5 64.5s46.167 59.666 60.5 96.999s21.5 78 21.5 122c0 42.667 -7.16699 82.334 -21.5 119.001s-34.5 68.5 -60.5 95.5s-57.167 48.167 -93.5 63.5s-76.5 23 -120.5 23h-134v-259h104
v-71h-104v-278h134z" />
    <glyph glyph-name="Ntilde" unicode="&#xd1;" horiz-adv-x="761" 
d="M99 750h79l405 -610v610h79v-750h-79l-405 605v-605h-79v750zM460 807c-14 0 -26.001 2.16895 -36.001 6.50195s-19 9 -27 14s-15.833 9.66699 -23.5 14s-16.5 6.5 -26.5 6.5c-8.66699 0 -16.667 -2.83301 -24 -8.5s-11.666 -14.834 -12.999 -27.501h-58
c0 32 7.83301 56.833 23.5 74.5s37.5 26.5 65.5 26.5c14.667 0 26.667 -2.16699 36 -6.5s17.666 -9 24.999 -14l21 -14c6.66699 -4.33301 14.667 -6.5 24 -6.5c8.66699 0 16.334 2.16699 23.001 6.5s10.667 14.166 12 29.499h57c0 -67.333 -26.333 -101 -79 -101z" />
    <glyph glyph-name="Ograve" unicode="&#xd2;" horiz-adv-x="834" 
d="M417 -10c-56 0 -106.5 9.83301 -151.5 29.5s-83.5 46.667 -115.5 81s-56.667 75.166 -74 122.499s-26 99 -26 155c0 55.333 8.66699 106.333 26 153s42 87 74 121s70.5 60.5 115.5 79.5s95.5 28.5 151.5 28.5s106.5 -9.5 151.5 -28.5s83.5 -45.5 115.5 -79.5
s56.667 -74.333 74 -121s26 -97.667 26 -153c0 -56 -8.66699 -107.667 -26 -155s-42 -88.166 -74 -122.499s-70.5 -61.333 -115.5 -81s-95.5 -29.5 -151.5 -29.5zM417 61c43.333 0 82.333 8 117 24s64.167 38 88.5 66s43 61.333 56 100s19.5 81 19.5 127
c0 44.667 -6.5 86 -19.5 124s-31.667 70.833 -56 98.5s-53.833 49.334 -88.5 65.001s-73.667 23.5 -117 23.5s-82.333 -7.83301 -117 -23.5s-64.167 -37.334 -88.5 -65.001s-43 -60.5 -56 -98.5s-19.5 -79.333 -19.5 -124c0 -46 6.5 -88.333 19.5 -127s31.667 -72 56 -100
s53.833 -50 88.5 -66s73.667 -24 117 -24zM277 896v49h70l101 -91v-49h-70z" />
    <glyph glyph-name="Oacute" unicode="&#xd3;" horiz-adv-x="834" 
d="M417 -10c-56 0 -106.5 9.83301 -151.5 29.5s-83.5 46.667 -115.5 81s-56.667 75.166 -74 122.499s-26 99 -26 155c0 55.333 8.66699 106.333 26 153s42 87 74 121s70.5 60.5 115.5 79.5s95.5 28.5 151.5 28.5s106.5 -9.5 151.5 -28.5s83.5 -45.5 115.5 -79.5
s56.667 -74.333 74 -121s26 -97.667 26 -153c0 -56 -8.66699 -107.667 -26 -155s-42 -88.166 -74 -122.499s-70.5 -61.333 -115.5 -81s-95.5 -29.5 -151.5 -29.5zM417 61c43.333 0 82.333 8 117 24s64.167 38 88.5 66s43 61.333 56 100s19.5 81 19.5 127
c0 44.667 -6.5 86 -19.5 124s-31.667 70.833 -56 98.5s-53.833 49.334 -88.5 65.001s-73.667 23.5 -117 23.5s-82.333 -7.83301 -117 -23.5s-64.167 -37.334 -88.5 -65.001s-43 -60.5 -56 -98.5s-19.5 -79.333 -19.5 -124c0 -46 6.5 -88.333 19.5 -127s31.667 -72 56 -100
s53.833 -50 88.5 -66s73.667 -24 117 -24zM375 854l102 91h69v-49l-101 -91h-70v49z" />
    <glyph glyph-name="Ocircumflex" unicode="&#xd4;" horiz-adv-x="834" 
d="M417 -10c-56 0 -106.5 9.83301 -151.5 29.5s-83.5 46.667 -115.5 81s-56.667 75.166 -74 122.499s-26 99 -26 155c0 55.333 8.66699 106.333 26 153s42 87 74 121s70.5 60.5 115.5 79.5s95.5 28.5 151.5 28.5s106.5 -9.5 151.5 -28.5s83.5 -45.5 115.5 -79.5
s56.667 -74.333 74 -121s26 -97.667 26 -153c0 -56 -8.66699 -107.667 -26 -155s-42 -88.166 -74 -122.499s-70.5 -61.333 -115.5 -81s-95.5 -29.5 -151.5 -29.5zM417 61c43.333 0 82.333 8 117 24s64.167 38 88.5 66s43 61.333 56 100s19.5 81 19.5 127
c0 44.667 -6.5 86 -19.5 124s-31.667 70.833 -56 98.5s-53.833 49.334 -88.5 65.001s-73.667 23.5 -117 23.5s-82.333 -7.83301 -117 -23.5s-64.167 -37.334 -88.5 -65.001s-43 -60.5 -56 -98.5s-19.5 -79.333 -19.5 -124c0 -46 6.5 -88.333 19.5 -127s31.667 -72 56 -100
s53.833 -50 88.5 -66s73.667 -24 117 -24zM418 877l-82 -73h-49v49l95 85h71l95 -85v-49h-49z" />
    <glyph glyph-name="Otilde" unicode="&#xd5;" horiz-adv-x="834" 
d="M417 -10c-56 0 -106.5 9.83301 -151.5 29.5s-83.5 46.667 -115.5 81s-56.667 75.166 -74 122.499s-26 99 -26 155c0 55.333 8.66699 106.333 26 153s42 87 74 121s70.5 60.5 115.5 79.5s95.5 28.5 151.5 28.5s106.5 -9.5 151.5 -28.5s83.5 -45.5 115.5 -79.5
s56.667 -74.333 74 -121s26 -97.667 26 -153c0 -56 -8.66699 -107.667 -26 -155s-42 -88.166 -74 -122.499s-70.5 -61.333 -115.5 -81s-95.5 -29.5 -151.5 -29.5zM417 61c43.333 0 82.333 8 117 24s64.167 38 88.5 66s43 61.333 56 100s19.5 81 19.5 127
c0 44.667 -6.5 86 -19.5 124s-31.667 70.833 -56 98.5s-53.833 49.334 -88.5 65.001s-73.667 23.5 -117 23.5s-82.333 -7.83301 -117 -23.5s-64.167 -37.334 -88.5 -65.001s-43 -60.5 -56 -98.5s-19.5 -79.333 -19.5 -124c0 -46 6.5 -88.333 19.5 -127s31.667 -72 56 -100
s53.833 -50 88.5 -66s73.667 -24 117 -24zM481 807c-14 0 -26.001 2.16895 -36.001 6.50195s-19 9 -27 14s-15.833 9.66699 -23.5 14s-16.5 6.5 -26.5 6.5c-8.66699 0 -16.667 -2.83301 -24 -8.5s-11.666 -14.834 -12.999 -27.501h-58c0 32 7.83301 56.833 23.5 74.5
s37.5 26.5 65.5 26.5c14.667 0 26.667 -2.16699 36 -6.5s17.666 -9 24.999 -14l21 -14c6.66699 -4.33301 14.667 -6.5 24 -6.5c8.66699 0 16.334 2.16699 23.001 6.5s10.667 14.166 12 29.499h57c0 -67.333 -26.333 -101 -79 -101z" />
    <glyph glyph-name="Odieresis" unicode="&#xd6;" horiz-adv-x="834" 
d="M417 -10c-56 0 -106.5 9.83301 -151.5 29.5s-83.5 46.667 -115.5 81s-56.667 75.166 -74 122.499s-26 99 -26 155c0 55.333 8.66699 106.333 26 153s42 87 74 121s70.5 60.5 115.5 79.5s95.5 28.5 151.5 28.5s106.5 -9.5 151.5 -28.5s83.5 -45.5 115.5 -79.5
s56.667 -74.333 74 -121s26 -97.667 26 -153c0 -56 -8.66699 -107.667 -26 -155s-42 -88.166 -74 -122.499s-70.5 -61.333 -115.5 -81s-95.5 -29.5 -151.5 -29.5zM417 61c43.333 0 82.333 8 117 24s64.167 38 88.5 66s43 61.333 56 100s19.5 81 19.5 127
c0 44.667 -6.5 86 -19.5 124s-31.667 70.833 -56 98.5s-53.833 49.334 -88.5 65.001s-73.667 23.5 -117 23.5s-82.333 -7.83301 -117 -23.5s-64.167 -37.334 -88.5 -65.001s-43 -60.5 -56 -98.5s-19.5 -79.333 -19.5 -124c0 -46 6.5 -88.333 19.5 -127s31.667 -72 56 -100
s53.833 -50 88.5 -66s73.667 -24 117 -24zM275 914h94v-94h-94v94zM464 914h95v-94h-95v94z" />
    <glyph glyph-name="multiply" unicode="&#xd7;" horiz-adv-x="531" 
d="M265 268l-157 -158l-50 50l158 156l-160 159l49 50l160 -160l160 160l50 -50l-161 -159l158 -156l-49 -50z" />
    <glyph glyph-name="Oslash" unicode="&#xd8;" horiz-adv-x="834" 
d="M417 -10c-37.333 0 -71.999 4.5 -103.999 13.5s-61.667 21.5 -89 37.5l-58 -81h-88l88 124c-37.333 35.333 -66 78 -86 128s-30 105.333 -30 166c0 55.333 8.66699 106.333 26 153s42 87 74 121s70.5 60.5 115.5 79.5s95.5 28.5 151.5 28.5
c38 0 73.167 -4.33301 105.5 -13s62.166 -21.334 89.499 -38.001l58 81h88l-89 -124c36.667 -34.667 65 -76.5 85 -125.5s30 -103.167 30 -162.5c0 -56 -8.66699 -107.667 -26 -155s-42 -88.166 -74 -122.499s-70.5 -61.333 -115.5 -81s-95.5 -29.5 -151.5 -29.5z
M136.001 378c0 -47.333 6.83203 -89.999 20.499 -127.999s32.834 -71.333 57.501 -100l353 496c-20.667 13.333 -43.5 23.833 -68.5 31.5s-52.167 11.5 -81.5 11.5c-43.333 0 -82.333 -7.83301 -117 -23.5s-64.167 -37.334 -88.5 -65.001s-43 -60.5 -56 -98.5
s-19.5 -79.333 -19.5 -124zM417 61.001c43.333 0 82.333 8 117 24s64.167 38 88.5 66s43 61.333 56 100s19.5 81 19.5 127s-6.66699 87.5 -20 124.5s-32 69.5 -56 97.5l-354 -496c20.667 -13.333 43.5 -23.833 68.5 -31.5s51.833 -11.5 80.5 -11.5z" />
    <glyph glyph-name="Ugrave" unicode="&#xd9;" horiz-adv-x="742" 
d="M371 -10c-42.667 0 -81.334 7.16699 -116.001 21.5s-64.167 34 -88.5 59s-43 54.5 -56 88.5s-19.5 71 -19.5 111v480h86v-481c0 -30 4.33301 -57.667 13 -83s21.334 -47.333 38.001 -66s37 -33.167 61 -43.5s51.333 -15.5 82 -15.5c32 0 60.5 5.16699 85.5 15.5
s46 24.833 63 43.5s30 40.667 39 66s13.5 53 13.5 83v481h79v-480c0 -40 -6.5 -77 -19.5 -111s-31.5 -63.5 -55.5 -88.5s-53.333 -44.667 -88 -59s-73.667 -21.5 -117 -21.5zM245 896v49h70l101 -91v-49h-70z" />
    <glyph glyph-name="Uacute" unicode="&#xda;" horiz-adv-x="742" 
d="M371 -10c-42.667 0 -81.334 7.16699 -116.001 21.5s-64.167 34 -88.5 59s-43 54.5 -56 88.5s-19.5 71 -19.5 111v480h86v-481c0 -30 4.33301 -57.667 13 -83s21.334 -47.333 38.001 -66s37 -33.167 61 -43.5s51.333 -15.5 82 -15.5c32 0 60.5 5.16699 85.5 15.5
s46 24.833 63 43.5s30 40.667 39 66s13.5 53 13.5 83v481h79v-480c0 -40 -6.5 -77 -19.5 -111s-31.5 -63.5 -55.5 -88.5s-53.333 -44.667 -88 -59s-73.667 -21.5 -117 -21.5zM336 854l102 91h69v-49l-101 -91h-70v49z" />
    <glyph glyph-name="Ucircumflex" unicode="&#xdb;" horiz-adv-x="742" 
d="M371 -10c-42.667 0 -81.334 7.16699 -116.001 21.5s-64.167 34 -88.5 59s-43 54.5 -56 88.5s-19.5 71 -19.5 111v480h86v-481c0 -30 4.33301 -57.667 13 -83s21.334 -47.333 38.001 -66s37 -33.167 61 -43.5s51.333 -15.5 82 -15.5c32 0 60.5 5.16699 85.5 15.5
s46 24.833 63 43.5s30 40.667 39 66s13.5 53 13.5 83v481h79v-480c0 -40 -6.5 -77 -19.5 -111s-31.5 -63.5 -55.5 -88.5s-53.333 -44.667 -88 -59s-73.667 -21.5 -117 -21.5zM374 877l-82 -73h-49v49l95 85h71l95 -85v-49h-49z" />
    <glyph glyph-name="Udieresis" unicode="&#xdc;" horiz-adv-x="742" 
d="M371 -10c-42.667 0 -81.334 7.16699 -116.001 21.5s-64.167 34 -88.5 59s-43 54.5 -56 88.5s-19.5 71 -19.5 111v480h86v-481c0 -30 4.33301 -57.667 13 -83s21.334 -47.333 38.001 -66s37 -33.167 61 -43.5s51.333 -15.5 82 -15.5c32 0 60.5 5.16699 85.5 15.5
s46 24.833 63 43.5s30 40.667 39 66s13.5 53 13.5 83v481h79v-480c0 -40 -6.5 -77 -19.5 -111s-31.5 -63.5 -55.5 -88.5s-53.333 -44.667 -88 -59s-73.667 -21.5 -117 -21.5zM232 914h94v-94h-94v94zM421 914h95v-94h-95v94z" />
    <glyph glyph-name="Yacute" unicode="&#xdd;" horiz-adv-x="628" 
d="M272 311l-262 380v59h60l252 -366l235 366h55v-55l-253 -385v-310h-87v311zM274 854l102 91h69v-49l-101 -91h-70v49z" />
    <glyph glyph-name="Thorn" unicode="&#xde;" horiz-adv-x="599" 
d="M99 750l86.998 -0.00195312v-106c124.667 -1.33301 219.334 -25.5 284.001 -72.5s97 -112.167 97 -195.5s-32.167 -148.166 -96.5 -194.499s-159.166 -70.166 -284.499 -71.499v-110h-87v750zM185.998 180.998c95.333 2 168.167 18.332 218.5 48.999
s75.5 79.334 75.5 146.001c0 64 -24 112.167 -72 144.5s-122 49.5 -222 51.5v-391z" />
    <glyph glyph-name="germandbls" unicode="&#xdf;" horiz-adv-x="578" 
d="M329 -10c-20 0 -36.333 0.998047 -49 2.99805s-25.334 4.33301 -38.001 7v66c12.667 -2.66699 25.334 -4.66699 38.001 -6s25.667 -2 39 -2c44 0 77 11.333 99 34s33 55.667 33 99c0 18.667 -3.33301 36.834 -10 54.501s-17.834 33.334 -33.501 47.001
s-36.167 25 -61.5 34s-57 14.167 -95 15.5v72c53.333 6 92.833 23.667 118.5 53s38.5 64.333 38.5 105c0 34 -10.5 62 -31.5 84s-52.833 33 -95.5 33c-42 0 -73.333 -13.167 -94 -39.5s-31 -62.833 -31 -109.5v-540h-79v538c0 72.667 18.333 127.834 55 165.501
s87.667 56.5 153 56.5c64 0 114.333 -16.333 151 -49s55 -78.667 55 -138c0 -44 -11.5 -82 -34.5 -114s-54.167 -55 -93.5 -69c54 -13.333 96 -37.333 126 -72s45 -78 45 -130c0 -25.333 -3.66699 -49.833 -11 -73.5s-19.166 -44.834 -35.499 -63.501
s-37.5 -33.5 -63.5 -44.5s-57.667 -16.5 -95 -16.5z" />
    <glyph glyph-name="agrave" unicode="&#xe0;" horiz-adv-x="516" 
d="M210 -10c-28.667 0 -53.667 3.99902 -75 11.999s-39 18.833 -53 32.5s-24.5 29.667 -31.5 48s-10.5 38.166 -10.5 59.499s3.83301 40.833 11.5 58.5s19.5 33.167 35.5 46.5s36.833 23.666 62.5 30.999s56.5 11 92.5 11c17.333 0 33.333 -0.666992 48 -2
s27.667 -2.66602 39 -3.99902c12.667 -2 24.334 -4.33301 35.001 -7v35c0 42 -9.33301 73.833 -28 95.5s-49 32.5 -91 32.5c-24.667 0 -45 -3.66699 -61 -11s-28.667 -15.666 -38 -24.999c-10.667 -10.667 -19 -22.667 -25 -36h-52v53c9.33301 16 22 30.667 38 44
c14 11.333 32.167 21.333 54.5 30s50.833 13 85.5 13c64.667 0 113.5 -16.667 146.5 -50s49.5 -82.666 49.5 -147.999v-309h-63l-9 87c-12.667 -24.667 -32.334 -47 -59.001 -67s-60.667 -30 -102 -30zM222 54.999c23.333 0 43.833 3.99805 61.5 11.998s32.5 18.333 44.5 31
s21 26.834 27 42.501s9 30.834 9 45.501v29c-10 2.66699 -21.333 5 -34 7c-11.333 1.33301 -24.333 2.66602 -39 3.99902s-31 2 -49 2c-24.667 0 -45 -2.33301 -61 -7s-28.667 -11 -38 -19s-16 -17.167 -20 -27.5s-6 -21.166 -6 -32.499c0 -58 35 -87 105 -87zM129 700.997
v49h70l95 -91v-49h-70z" />
    <glyph glyph-name="aacute" unicode="&#xe1;" horiz-adv-x="516" 
d="M210 -10c-28.667 0 -53.667 3.99902 -75 11.999s-39 18.833 -53 32.5s-24.5 29.667 -31.5 48s-10.5 38.166 -10.5 59.499s3.83301 40.833 11.5 58.5s19.5 33.167 35.5 46.5s36.833 23.666 62.5 30.999s56.5 11 92.5 11c17.333 0 33.333 -0.666992 48 -2
s27.667 -2.66602 39 -3.99902c12.667 -2 24.334 -4.33301 35.001 -7v35c0 42 -9.33301 73.833 -28 95.5s-49 32.5 -91 32.5c-24.667 0 -45 -3.66699 -61 -11s-28.667 -15.666 -38 -24.999c-10.667 -10.667 -19 -22.667 -25 -36h-52v53c9.33301 16 22 30.667 38 44
c14 11.333 32.167 21.333 54.5 30s50.833 13 85.5 13c64.667 0 113.5 -16.667 146.5 -50s49.5 -82.666 49.5 -147.999v-309h-63l-9 87c-12.667 -24.667 -32.334 -47 -59.001 -67s-60.667 -30 -102 -30zM222 54.999c23.333 0 43.833 3.99805 61.5 11.998s32.5 18.333 44.5 31
s21 26.834 27 42.501s9 30.834 9 45.501v29c-10 2.66699 -21.333 5 -34 7c-11.333 1.33301 -24.333 2.66602 -39 3.99902s-31 2 -49 2c-24.667 0 -45 -2.33301 -61 -7s-28.667 -11 -38 -19s-16 -17.167 -20 -27.5s-6 -21.166 -6 -32.499c0 -58 35 -87 105 -87zM212 658.997
l95 91h70v-49l-95 -91h-70v49z" />
    <glyph glyph-name="acircumflex" unicode="&#xe2;" horiz-adv-x="516" 
d="M210 -10c-28.667 0 -53.667 3.99902 -75 11.999s-39 18.833 -53 32.5s-24.5 29.667 -31.5 48s-10.5 38.166 -10.5 59.499s3.83301 40.833 11.5 58.5s19.5 33.167 35.5 46.5s36.833 23.666 62.5 30.999s56.5 11 92.5 11c17.333 0 33.333 -0.666992 48 -2
s27.667 -2.66602 39 -3.99902c12.667 -2 24.334 -4.33301 35.001 -7v35c0 42 -9.33301 73.833 -28 95.5s-49 32.5 -91 32.5c-24.667 0 -45 -3.66699 -61 -11s-28.667 -15.666 -38 -24.999c-10.667 -10.667 -19 -22.667 -25 -36h-52v53c9.33301 16 22 30.667 38 44
c14 11.333 32.167 21.333 54.5 30s50.833 13 85.5 13c64.667 0 113.5 -16.667 146.5 -50s49.5 -82.666 49.5 -147.999v-309h-63l-9 87c-12.667 -24.667 -32.334 -47 -59.001 -67s-60.667 -30 -102 -30zM222 54.999c23.333 0 43.833 3.99805 61.5 11.998s32.5 18.333 44.5 31
s21 26.834 27 42.501s9 30.834 9 45.501v29c-10 2.66699 -21.333 5 -34 7c-11.333 1.33301 -24.333 2.66602 -39 3.99902s-31 2 -49 2c-24.667 0 -45 -2.33301 -61 -7s-28.667 -11 -38 -19s-16 -17.167 -20 -27.5s-6 -21.166 -6 -32.499c0 -58 35 -87 105 -87zM256 688.997
l-82 -79h-49v49l95 91h71l95 -91v-49h-49z" />
    <glyph glyph-name="atilde" unicode="&#xe3;" horiz-adv-x="516" 
d="M210 -10c-28.667 0 -53.667 3.99902 -75 11.999s-39 18.833 -53 32.5s-24.5 29.667 -31.5 48s-10.5 38.166 -10.5 59.499s3.83301 40.833 11.5 58.5s19.5 33.167 35.5 46.5s36.833 23.666 62.5 30.999s56.5 11 92.5 11c17.333 0 33.333 -0.666992 48 -2
s27.667 -2.66602 39 -3.99902c12.667 -2 24.334 -4.33301 35.001 -7v35c0 42 -9.33301 73.833 -28 95.5s-49 32.5 -91 32.5c-24.667 0 -45 -3.66699 -61 -11s-28.667 -15.666 -38 -24.999c-10.667 -10.667 -19 -22.667 -25 -36h-52v53c9.33301 16 22 30.667 38 44
c14 11.333 32.167 21.333 54.5 30s50.833 13 85.5 13c64.667 0 113.5 -16.667 146.5 -50s49.5 -82.666 49.5 -147.999v-309h-63l-9 87c-12.667 -24.667 -32.334 -47 -59.001 -67s-60.667 -30 -102 -30zM222 54.999c23.333 0 43.833 3.99805 61.5 11.998s32.5 18.333 44.5 31
s21 26.834 27 42.501s9 30.834 9 45.501v29c-10 2.66699 -21.333 5 -34 7c-11.333 1.33301 -24.333 2.66602 -39 3.99902s-31 2 -49 2c-24.667 0 -45 -2.33301 -61 -7s-28.667 -11 -38 -19s-16 -17.167 -20 -27.5s-6 -21.166 -6 -32.499c0 -58 35 -87 105 -87zM322 617.997
c-14 0 -26.002 2.16602 -36.002 6.49902s-19 9 -27 14s-15.833 9.66699 -23.5 14s-16.5 6.5 -26.5 6.5c-8.66699 0 -16.667 -2.66699 -24 -8s-12 -14.666 -14 -27.999h-57c0 32 7.66699 57 23 75s37 27 65 27c14.667 0 26.834 -2.16699 36.501 -6.5s18.167 -9 25.5 -14
l21 -14c6.66699 -4.33301 14.667 -6.5 24 -6.5c8.66699 0 16.334 2.16699 23.001 6.5s10.667 14.166 12 29.499h57c0 -33.333 -6.33301 -58.666 -19 -75.999s-32.667 -26 -60 -26z" />
    <glyph glyph-name="adieresis" unicode="&#xe4;" horiz-adv-x="516" 
d="M210 -10c-28.667 0 -53.667 3.99902 -75 11.999s-39 18.833 -53 32.5s-24.5 29.667 -31.5 48s-10.5 38.166 -10.5 59.499s3.83301 40.833 11.5 58.5s19.5 33.167 35.5 46.5s36.833 23.666 62.5 30.999s56.5 11 92.5 11c17.333 0 33.333 -0.666992 48 -2
s27.667 -2.66602 39 -3.99902c12.667 -2 24.334 -4.33301 35.001 -7v35c0 42 -9.33301 73.833 -28 95.5s-49 32.5 -91 32.5c-24.667 0 -45 -3.66699 -61 -11s-28.667 -15.666 -38 -24.999c-10.667 -10.667 -19 -22.667 -25 -36h-52v53c9.33301 16 22 30.667 38 44
c14 11.333 32.167 21.333 54.5 30s50.833 13 85.5 13c64.667 0 113.5 -16.667 146.5 -50s49.5 -82.666 49.5 -147.999v-309h-63l-9 87c-12.667 -24.667 -32.334 -47 -59.001 -67s-60.667 -30 -102 -30zM222 54.999c23.333 0 43.833 3.99805 61.5 11.998s32.5 18.333 44.5 31
s21 26.834 27 42.501s9 30.834 9 45.501v29c-10 2.66699 -21.333 5 -34 7c-11.333 1.33301 -24.333 2.66602 -39 3.99902s-31 2 -49 2c-24.667 0 -45 -2.33301 -61 -7s-28.667 -11 -38 -19s-16 -17.167 -20 -27.5s-6 -21.166 -6 -32.499c0 -58 35 -87 105 -87zM118 719.997
h94v-93h-94v93zM302 719.997h93v-93h-93v93z" />
    <glyph glyph-name="aring" unicode="&#xe5;" horiz-adv-x="516" 
d="M210 -10c-28.667 0 -53.667 3.99902 -75 11.999s-39 18.833 -53 32.5s-24.5 29.667 -31.5 48s-10.5 38.166 -10.5 59.499s3.83301 40.833 11.5 58.5s19.5 33.167 35.5 46.5s36.833 23.666 62.5 30.999s56.5 11 92.5 11c17.333 0 33.333 -0.666992 48 -2
s27.667 -2.66602 39 -3.99902c12.667 -2 24.334 -4.33301 35.001 -7v35c0 42 -9.33301 73.833 -28 95.5s-49 32.5 -91 32.5c-24.667 0 -45 -3.66699 -61 -11s-28.667 -15.666 -38 -24.999c-10.667 -10.667 -19 -22.667 -25 -36h-52v53c9.33301 16 22 30.667 38 44
c14 11.333 32.167 21.333 54.5 30s50.833 13 85.5 13c64.667 0 113.5 -16.667 146.5 -50s49.5 -82.666 49.5 -147.999v-309h-63l-9 87c-12.667 -24.667 -32.334 -47 -59.001 -67s-60.667 -30 -102 -30zM222 54.999c23.333 0 43.833 3.99805 61.5 11.998s32.5 18.333 44.5 31
s21 26.834 27 42.501s9 30.834 9 45.501v29c-10 2.66699 -21.333 5 -34 7c-11.333 1.33301 -24.333 2.66602 -39 3.99902s-31 2 -49 2c-24.667 0 -45 -2.33301 -61 -7s-28.667 -11 -38 -19s-16 -17.167 -20 -27.5s-6 -21.166 -6 -32.499c0 -58 35 -87 105 -87zM259 580.997
c-26.667 0 -48.667 8.16699 -66 24.5s-26 37.166 -26 62.499s8.66699 46.166 26 62.499s39.333 24.5 66 24.5c26 0 47.667 -8.16699 65 -24.5s26 -37.166 26 -62.499s-8.66699 -46.166 -26 -62.499s-39 -24.5 -65 -24.5zM259 633.997c9.33301 0 17.333 2.83301 24 8.5
s10 14.167 10 25.5c0 10.667 -3.33301 19 -10 25s-14.667 9 -24 9s-17.5 -3 -24.5 -9s-10.5 -14.333 -10.5 -25c0 -11.333 3.5 -19.833 10.5 -25.5s15.167 -8.5 24.5 -8.5z" />
    <glyph glyph-name="ae" unicode="&#xe6;" horiz-adv-x="893" 
d="M635 -10c-49.333 0 -91.8281 9.66309 -127.495 28.9961s-63.167 46.666 -82.5 81.999c-10.667 -22 -23.834 -40 -39.501 -54s-32.334 -25.333 -50.001 -34s-36 -14.667 -55 -18s-37.833 -5 -56.5 -5c-31.333 0 -58.5 3.83301 -81.5 11.5s-42.167 18.334 -57.5 32.001
s-26.833 29.667 -34.5 48s-11.5 38.166 -11.5 59.499s4 40.833 12 58.5s20.667 33 38 46s39.666 23.167 66.999 30.5s60.333 11 99 11c12 0 25.5 -0.5 40.5 -1.5s29.5 -2.16699 43.5 -3.5c15.333 -1.33301 31.333 -3 48 -5v34c0 42 -12.167 73.833 -36.5 95.5
s-57.5 32.5 -99.5 32.5c-26 0 -47.333 -3.66699 -64 -11s-30 -15.666 -40 -24.999c-12 -10.667 -21 -22.667 -27 -36h-52v53c9.33301 16 22.333 30.667 39 44c15.333 11.333 34.666 21.333 57.999 30s53 13 89 13c43.333 0 80.833 -7.66699 112.5 -23
s55.5 -38.666 71.5 -69.999c20 28 45.5 50.5 76.5 67.5s68.167 25.5 111.5 25.5c37.333 0 70 -5.66699 98 -17s51.167 -26.666 69.5 -45.999s32 -42.333 41 -69s13.5 -55.667 13.5 -87c0 -8 -0.166992 -15 -0.5 -21s-0.833008 -11.333 -1.5 -16s-1.33398 -9 -2.00098 -13
h-378c2.66699 -57.333 18.667 -101.666 48 -132.999s69.666 -47 120.999 -47c26 0 48.167 3.16699 66.5 9.5s33.5 13.833 45.5 22.5s21 17.5 27 26.5s9.66699 15.833 11 20.5h52v-52c-1.33301 -2.66699 -5.66602 -9.16699 -12.999 -19.5s-19 -21.166 -35 -32.499
s-36.5 -21.333 -61.5 -30s-55.833 -13 -92.5 -13zM770.005 297.996c0 43.333 -12.332 77.668 -36.999 103.001s-60 38 -106 38c-47.333 0 -83.833 -12.833 -109.5 -38.5s-41.834 -59.834 -48.501 -102.501h301zM226.006 54.998c26 0 49 3.83203 69 11.499
s36.833 17.834 50.5 30.501s24 27.334 31 44.001s10.5 34 10.5 52v23c-16 2 -32 3.66699 -48 5c-14 0.666992 -28.5 1.5 -43.5 2.5s-28.5 1.5 -40.5 1.5c-26.667 0 -49 -2.33301 -67 -7s-32.333 -10.834 -43 -18.501s-18.167 -16.5 -22.5 -26.5s-6.5 -20.667 -6.5 -32
c0 -29.333 9.83301 -51 29.5 -65s46.5 -21 80.5 -21z" />
    <glyph glyph-name="ccedilla" unicode="&#xe7;" horiz-adv-x="530" 
d="M386 -117c0 -16.667 -3.33301 -30.498 -10 -41.498s-14.5 -19.833 -23.5 -26.5s-17.833 -11.5 -26.5 -14.5s-15 -4.83301 -19 -5.5h-56v58c17.333 0 32.333 2.5 45 7.5s19 15.167 19 30.5s-6.16699 25.666 -18.5 30.999s-26.166 8 -41.499 8v62c-34 4 -64 13.5 -90 28.5
s-48 34 -66 57s-31.5 49.167 -40.5 78.5s-13.5 60.333 -13.5 93c0 35.333 5.66699 68.833 17 100.5s27.833 59.167 49.5 82.5s47.834 41.833 78.501 55.5s65 20.5 103 20.5c39.333 0 71.333 -5.33301 96 -16s44 -22.334 58 -35.001c16.667 -14.667 29 -31.667 37 -51v-52
h-53c-5.33301 16 -13.666 30.333 -24.999 43c-10.667 12 -24.834 22.167 -42.501 30.5s-41.167 12.5 -70.5 12.5c-28 0 -52.667 -5.16699 -74 -15.5s-39 -24.333 -53 -42s-24.5 -38 -31.5 -61s-10.5 -47.167 -10.5 -72.5s3.5 -49.5 10.5 -72.5s17.5 -43.333 31.5 -61
s31.667 -31.667 53 -42s46 -15.5 74 -15.5c30.667 0 55.167 4.5 73.5 13.5s32.166 18.833 41.499 29.5c11.333 12.667 19.333 27 24 43h53v-53c-7.33301 -16.667 -18.333 -32 -33 -46c-13.333 -12.667 -30.333 -24.167 -51 -34.5s-47.667 -16.833 -81 -19.5v-31
c23.333 -4 40.166 -13 50.499 -27s15.5 -30.667 15.5 -50z" />
    <glyph glyph-name="egrave" unicode="&#xe8;" horiz-adv-x="558" 
d="M297 -10c-40.667 0 -76.499 6.16504 -107.499 18.498s-57.167 29.833 -78.5 52.5s-37.5 50 -48.5 82s-16.5 67.333 -16.5 106c0 34.667 5.16699 67.667 15.5 99s25.666 58.666 45.999 81.999s45.5 42 75.5 56s65 21 105 21c38 0 71.167 -5.66699 99.5 -17
s51.833 -26.666 70.5 -45.999s32.5 -42.333 41.5 -69s13.5 -55.667 13.5 -87c0 -8 -0.166992 -15 -0.5 -21s-0.5 -11.333 -0.5 -16c-0.666992 -4.66699 -1.33398 -9 -2.00098 -13h-385c2.66699 -57.333 18.834 -101.666 48.501 -132.999s70.834 -47 123.501 -47
c27.333 0 50.333 3.16699 69 9.5s34 13.833 46 22.5s21 17.5 27 26.5s9.66699 15.833 11 20.5h52v-52c-0.666992 -2.66699 -4.83398 -9.16699 -12.501 -19.5s-19.5 -21.166 -35.5 -32.499s-36.833 -21.333 -62.5 -30s-57.167 -13 -94.5 -13zM436.001 297.998
c0 43.333 -12.5 77.668 -37.5 103.001s-61.5 38 -109.5 38s-85 -12.833 -111 -38.5s-42.333 -59.834 -49 -102.501h307zM153.001 701v49h70l95 -91v-49h-70z" />
    <glyph glyph-name="eacute" unicode="&#xe9;" horiz-adv-x="558" 
d="M297 -10c-40.667 0 -76.499 6.16504 -107.499 18.498s-57.167 29.833 -78.5 52.5s-37.5 50 -48.5 82s-16.5 67.333 -16.5 106c0 34.667 5.16699 67.667 15.5 99s25.666 58.666 45.999 81.999s45.5 42 75.5 56s65 21 105 21c38 0 71.167 -5.66699 99.5 -17
s51.833 -26.666 70.5 -45.999s32.5 -42.333 41.5 -69s13.5 -55.667 13.5 -87c0 -8 -0.166992 -15 -0.5 -21s-0.5 -11.333 -0.5 -16c-0.666992 -4.66699 -1.33398 -9 -2.00098 -13h-385c2.66699 -57.333 18.834 -101.666 48.501 -132.999s70.834 -47 123.501 -47
c27.333 0 50.333 3.16699 69 9.5s34 13.833 46 22.5s21 17.5 27 26.5s9.66699 15.833 11 20.5h52v-52c-0.666992 -2.66699 -4.83398 -9.16699 -12.501 -19.5s-19.5 -21.166 -35.5 -32.499s-36.833 -21.333 -62.5 -30s-57.167 -13 -94.5 -13zM436.001 297.998
c0 43.333 -12.5 77.668 -37.5 103.001s-61.5 38 -109.5 38s-85 -12.833 -111 -38.5s-42.333 -59.834 -49 -102.501h307zM242.001 659l95 91h70v-49l-95 -91h-70v49z" />
    <glyph glyph-name="ecircumflex" unicode="&#xea;" horiz-adv-x="558" 
d="M297 -10c-40.667 0 -76.499 6.16504 -107.499 18.498s-57.167 29.833 -78.5 52.5s-37.5 50 -48.5 82s-16.5 67.333 -16.5 106c0 34.667 5.16699 67.667 15.5 99s25.666 58.666 45.999 81.999s45.5 42 75.5 56s65 21 105 21c38 0 71.167 -5.66699 99.5 -17
s51.833 -26.666 70.5 -45.999s32.5 -42.333 41.5 -69s13.5 -55.667 13.5 -87c0 -8 -0.166992 -15 -0.5 -21s-0.5 -11.333 -0.5 -16c-0.666992 -4.66699 -1.33398 -9 -2.00098 -13h-385c2.66699 -57.333 18.834 -101.666 48.501 -132.999s70.834 -47 123.501 -47
c27.333 0 50.333 3.16699 69 9.5s34 13.833 46 22.5s21 17.5 27 26.5s9.66699 15.833 11 20.5h52v-52c-0.666992 -2.66699 -4.83398 -9.16699 -12.501 -19.5s-19.5 -21.166 -35.5 -32.499s-36.833 -21.333 -62.5 -30s-57.167 -13 -94.5 -13zM436.001 297.998
c0 43.333 -12.5 77.668 -37.5 103.001s-61.5 38 -109.5 38s-85 -12.833 -111 -38.5s-42.333 -59.834 -49 -102.501h307zM290.001 689l-82 -79h-49v49l95 91h71l95 -91v-49h-49z" />
    <glyph glyph-name="edieresis" unicode="&#xeb;" horiz-adv-x="558" 
d="M297 -10c-40.667 0 -76.499 6.16504 -107.499 18.498s-57.167 29.833 -78.5 52.5s-37.5 50 -48.5 82s-16.5 67.333 -16.5 106c0 34.667 5.16699 67.667 15.5 99s25.666 58.666 45.999 81.999s45.5 42 75.5 56s65 21 105 21c38 0 71.167 -5.66699 99.5 -17
s51.833 -26.666 70.5 -45.999s32.5 -42.333 41.5 -69s13.5 -55.667 13.5 -87c0 -8 -0.166992 -15 -0.5 -21s-0.5 -11.333 -0.5 -16c-0.666992 -4.66699 -1.33398 -9 -2.00098 -13h-385c2.66699 -57.333 18.834 -101.666 48.501 -132.999s70.834 -47 123.501 -47
c27.333 0 50.333 3.16699 69 9.5s34 13.833 46 22.5s21 17.5 27 26.5s9.66699 15.833 11 20.5h52v-52c-0.666992 -2.66699 -4.83398 -9.16699 -12.501 -19.5s-19.5 -21.166 -35.5 -32.499s-36.833 -21.333 -62.5 -30s-57.167 -13 -94.5 -13zM436.001 297.998
c0 43.333 -12.5 77.668 -37.5 103.001s-61.5 38 -109.5 38s-85 -12.833 -111 -38.5s-42.333 -59.834 -49 -102.501h307zM147.001 720h94v-93h-94v93zM331.001 720h93v-93h-93v93z" />
    <glyph glyph-name="igrave" unicode="&#xec;" horiz-adv-x="235" 
d="M78 497h79v-497h-79v497zM-10 701v49h70l95 -91v-49h-70z" />
    <glyph glyph-name="iacute" unicode="&#xed;" horiz-adv-x="235" 
d="M78 497h79v-497h-79v497zM81 659l95 91h70v-49l-95 -91h-70v49z" />
    <glyph glyph-name="icircumflex" unicode="&#xee;" horiz-adv-x="235" 
d="M78 497h79v-497h-79v497zM117 689l-82 -79h-49v49l95 91h71l95 -91v-49h-49z" />
    <glyph glyph-name="idieresis" unicode="&#xef;" horiz-adv-x="235" 
d="M78 497h79v-497h-79v497zM-22 720h94v-93h-94v93zM162 720h93v-93h-93v93z" />
    <glyph glyph-name="eth" unicode="&#xf0;" horiz-adv-x="600" 
d="M294 -10c-38.667 0 -73.499 6.33008 -104.499 18.9971s-57 30.334 -78 53.001s-37.167 49.167 -48.5 79.5s-17 63.5 -17 99.5s5.5 69.167 16.5 99.5s27 56.5 48 78.5s46.5 39.333 76.5 52s64 19 102 19c32.667 0 63.667 -5 93 -15s53.333 -30 72 -60
c-16 78 -49.667 140.667 -101 188l-150 -74v61l100 50c-42.667 28 -93.334 47.333 -152.001 58v52h52c30 -6.66699 59.667 -16.167 89 -28.5s57 -28.166 83 -47.499l124 60v-61l-79 -39c36 -36.667 65.167 -82.667 87.5 -138s33.5 -122.666 33.5 -201.999
c0 -98.667 -21.167 -174 -63.5 -226s-103.5 -78 -183.5 -78zM294.001 57.9971c29.333 0 54.5 5.16699 75.5 15.5s38.333 24.166 52 41.499s23.834 37.333 30.501 60s10 46 10 70s-3.33301 46.833 -10 68.5s-16.834 40.5 -30.501 56.5s-31.167 28.667 -52.5 38s-47 14 -77 14
c-28 0 -52.5 -4.66699 -73.5 -14s-38.5 -22.166 -52.5 -38.499s-24.333 -35.5 -31 -57.5s-10 -45.667 -10 -71c0 -26 3.33301 -50 10 -72s17 -41.333 31 -58s31.667 -29.667 53 -39s46.333 -14 75 -14z" />
    <glyph glyph-name="ntilde" unicode="&#xf1;" horiz-adv-x="573" 
d="M78 497h70.0049l6 -84c5.33301 12 12.666 23.5 21.999 34.5s20.666 21 33.999 30s28.666 16.167 45.999 21.5s36.666 8 57.999 8c34 0 62.833 -5.33301 86.5 -16s43 -25.5 58 -44.5s25.833 -41.5 32.5 -67.5s10 -54.333 10 -85v-294h-79v285
c0 48 -9.33301 85.833 -28 113.5s-51 41.5 -97 41.5c-24 0 -44.833 -4 -62.5 -12s-32.334 -19 -44.001 -33s-20.167 -30.333 -25.5 -49s-8 -38.667 -8 -60v-286h-79v497zM353.005 618c-14 0 -26.002 2.16602 -36.002 6.49902s-19 9 -27 14s-15.833 9.66699 -23.5 14
s-16.5 6.5 -26.5 6.5c-8.66699 0 -16.667 -2.66699 -24 -8s-12 -14.666 -14 -27.999h-57c0 32 7.66699 57 23 75s37 27 65 27c14.667 0 26.834 -2.16699 36.501 -6.5s18.167 -9 25.5 -14l21 -14c6.66699 -4.33301 14.667 -6.5 24 -6.5c8.66699 0 16.334 2.16699 23.001 6.5
s10.667 14.166 12 29.499h57c0 -33.333 -6.33301 -58.666 -19 -75.999s-32.667 -26 -60 -26z" />
    <glyph glyph-name="ograve" unicode="&#xf2;" horiz-adv-x="586" 
d="M293 -10c-38 0 -72.333 6.83301 -103 20.5s-56.834 32.167 -78.501 55.5s-38.167 50.666 -49.5 81.999s-17 65 -17 101s5.66699 69.667 17 101s27.833 58.666 49.5 81.999s47.834 41.666 78.501 54.999s65 20 103 20s72.333 -6.66699 103 -20
s56.834 -31.666 78.501 -54.999s38.167 -50.666 49.5 -81.999s17 -65 17 -101s-5.66699 -69.667 -17 -101s-27.833 -58.666 -49.5 -81.999s-47.834 -41.833 -78.501 -55.5s-65 -20.5 -103 -20.5zM293 58c28 0 52.667 5.16895 74 15.502s39 24.333 53 42s24.5 38 31.5 61
s10.5 47.167 10.5 72.5s-3.5 49.5 -10.5 72.5s-17.5 43.167 -31.5 60.5s-31.667 31.166 -53 41.499s-46 15.5 -74 15.5s-52.667 -5.16699 -74 -15.5s-39 -24.333 -53 -42s-24.5 -37.834 -31.5 -60.501s-10.5 -46.667 -10.5 -72s3.5 -49.5 10.5 -72.5s17.5 -43.333 31.5 -61
s31.667 -31.667 53 -42s46 -15.5 74 -15.5zM160 701.002v49h70l95 -91v-49h-70z" />
    <glyph glyph-name="oacute" unicode="&#xf3;" horiz-adv-x="586" 
d="M252 659l95 91h70v-49l-95 -91h-70v49zM293 -10c-38 0 -72.333 6.83301 -103 20.5s-56.834 32.167 -78.501 55.5s-38.167 50.666 -49.5 81.999s-17 65 -17 101s5.66699 69.667 17 101s27.833 58.666 49.5 81.999s47.834 41.666 78.501 54.999s65 20 103 20
s72.333 -6.66699 103 -20s56.834 -31.666 78.501 -54.999s38.167 -50.666 49.5 -81.999s17 -65 17 -101s-5.66699 -69.667 -17 -101s-27.833 -58.666 -49.5 -81.999s-47.834 -41.833 -78.501 -55.5s-65 -20.5 -103 -20.5zM293 58c28 0 52.667 5.16895 74 15.502
s39 24.333 53 42s24.5 38 31.5 61s10.5 47.167 10.5 72.5s-3.5 49.5 -10.5 72.5s-17.5 43.167 -31.5 60.5s-31.667 31.166 -53 41.499s-46 15.5 -74 15.5s-52.667 -5.16699 -74 -15.5s-39 -24.333 -53 -42s-24.5 -37.834 -31.5 -60.501s-10.5 -46.667 -10.5 -72
s3.5 -49.5 10.5 -72.5s17.5 -43.333 31.5 -61s31.667 -31.667 53 -42s46 -15.5 74 -15.5z" />
    <glyph glyph-name="ocircumflex" unicode="&#xf4;" horiz-adv-x="586" 
d="M292 689l-82 -79h-49v49l95 91h71l95 -91v-49h-49zM293 -10c-38 0 -72.333 6.83301 -103 20.5s-56.834 32.167 -78.501 55.5s-38.167 50.666 -49.5 81.999s-17 65 -17 101s5.66699 69.667 17 101s27.833 58.666 49.5 81.999s47.834 41.666 78.501 54.999s65 20 103 20
s72.333 -6.66699 103 -20s56.834 -31.666 78.501 -54.999s38.167 -50.666 49.5 -81.999s17 -65 17 -101s-5.66699 -69.667 -17 -101s-27.833 -58.666 -49.5 -81.999s-47.834 -41.833 -78.501 -55.5s-65 -20.5 -103 -20.5zM293 58c28 0 52.667 5.16895 74 15.502
s39 24.333 53 42s24.5 38 31.5 61s10.5 47.167 10.5 72.5s-3.5 49.5 -10.5 72.5s-17.5 43.167 -31.5 60.5s-31.667 31.166 -53 41.499s-46 15.5 -74 15.5s-52.667 -5.16699 -74 -15.5s-39 -24.333 -53 -42s-24.5 -37.834 -31.5 -60.501s-10.5 -46.667 -10.5 -72
s3.5 -49.5 10.5 -72.5s17.5 -43.333 31.5 -61s31.667 -31.667 53 -42s46 -15.5 74 -15.5z" />
    <glyph glyph-name="otilde" unicode="&#xf5;" horiz-adv-x="586" 
d="M356 618c-14 0 -26.002 2.16602 -36.002 6.49902s-19 9 -27 14s-15.833 9.66699 -23.5 14s-16.5 6.5 -26.5 6.5c-8.66699 0 -16.667 -2.66699 -24 -8s-12 -14.666 -14 -27.999h-57c0 32 7.66699 57 23 75s37 27 65 27c14.667 0 26.834 -2.16699 36.501 -6.5
s18.167 -9 25.5 -14l21 -14c6.66699 -4.33301 14.667 -6.5 24 -6.5c8.66699 0 16.334 2.16699 23.001 6.5s10.667 14.166 12 29.499h57c0 -33.333 -6.33301 -58.666 -19 -75.999s-32.667 -26 -60 -26zM292.998 -10.001c-38 0 -72.333 6.83301 -103 20.5
s-56.834 32.167 -78.501 55.5s-38.167 50.666 -49.5 81.999s-17 65 -17 101s5.66699 69.667 17 101s27.833 58.666 49.5 81.999s47.834 41.666 78.501 54.999s65 20 103 20s72.333 -6.66699 103 -20s56.834 -31.666 78.501 -54.999s38.167 -50.666 49.5 -81.999
s17 -65 17 -101s-5.66699 -69.667 -17 -101s-27.833 -58.666 -49.5 -81.999s-47.834 -41.833 -78.501 -55.5s-65 -20.5 -103 -20.5zM292.998 57.999c28 0 52.667 5.16895 74 15.502s39 24.333 53 42s24.5 38 31.5 61s10.5 47.167 10.5 72.5s-3.5 49.5 -10.5 72.5
s-17.5 43.167 -31.5 60.5s-31.667 31.166 -53 41.499s-46 15.5 -74 15.5s-52.667 -5.16699 -74 -15.5s-39 -24.333 -53 -42s-24.5 -37.834 -31.5 -60.501s-10.5 -46.667 -10.5 -72s3.5 -49.5 10.5 -72.5s17.5 -43.333 31.5 -61s31.667 -31.667 53 -42s46 -15.5 74 -15.5z
" />
    <glyph glyph-name="odieresis" unicode="&#xf6;" horiz-adv-x="586" 
d="M156 720h94v-93h-94v93zM340 720h93v-93h-93v93zM293 -10c-38 0 -72.333 6.83301 -103 20.5s-56.834 32.167 -78.501 55.5s-38.167 50.666 -49.5 81.999s-17 65 -17 101s5.66699 69.667 17 101s27.833 58.666 49.5 81.999s47.834 41.666 78.501 54.999s65 20 103 20
s72.333 -6.66699 103 -20s56.834 -31.666 78.501 -54.999s38.167 -50.666 49.5 -81.999s17 -65 17 -101s-5.66699 -69.667 -17 -101s-27.833 -58.666 -49.5 -81.999s-47.834 -41.833 -78.501 -55.5s-65 -20.5 -103 -20.5zM293 58c28 0 52.667 5.16895 74 15.502
s39 24.333 53 42s24.5 38 31.5 61s10.5 47.167 10.5 72.5s-3.5 49.5 -10.5 72.5s-17.5 43.167 -31.5 60.5s-31.667 31.166 -53 41.499s-46 15.5 -74 15.5s-52.667 -5.16699 -74 -15.5s-39 -24.333 -53 -42s-24.5 -37.834 -31.5 -60.501s-10.5 -46.667 -10.5 -72
s3.5 -49.5 10.5 -72.5s17.5 -43.333 31.5 -61s31.667 -31.667 53 -42s46 -15.5 74 -15.5z" />
    <glyph glyph-name="divide" unicode="&#xf7;" horiz-adv-x="572" 
d="M236 605h100v-100h-100v100zM73 382h426v-68h-426v68zM236 190h100v-100h-100v100z" />
    <glyph glyph-name="oslash" unicode="&#xf8;" horiz-adv-x="586" 
d="M293 -10c-45.333 0 -85.333 9.66895 -120 29.002l-54 -78h-80l81 116c-24 24 -42.5 52.5 -55.5 85.5s-19.5 68.5 -19.5 106.5c0 36 5.66699 69.667 17 101s27.833 58.666 49.5 81.999s47.834 41.666 78.501 54.999s65 20 103 20c46 0 85.667 -9.66699 119 -29l55 79h80
l-81 -117c24 -23.333 42.5 -51.333 55.5 -84s19.5 -68.334 19.5 -107.001c0 -36 -5.66699 -69.667 -17 -101s-27.833 -58.666 -49.5 -81.999s-47.834 -41.833 -78.501 -55.5s-65 -20.5 -103 -20.5zM124 249.002c0 -24.667 3.16699 -47.999 9.5 -69.999
s16.166 -41.667 29.499 -59l209 300c-23.333 12.667 -49.666 19 -78.999 19c-28 0 -52.667 -5.16699 -74 -15.5s-39 -24.333 -53 -42s-24.5 -37.834 -31.5 -60.501s-10.5 -46.667 -10.5 -72zM293 58.0029c28 0 52.668 5.16699 74.001 15.5s39 24.333 53 42s24.5 38 31.5 61
s10.5 47.167 10.5 72.5c0 24 -3.33301 47 -10 69s-16.667 41.667 -30 59l-208 -300c23.333 -12.667 49.666 -19 78.999 -19z" />
    <glyph glyph-name="ugrave" unicode="&#xf9;" horiz-adv-x="573" 
d="M262 -10c-32.667 0 -60.8301 4.99805 -84.4971 14.998s-43.334 24.333 -59.001 43s-27.334 40.834 -35.001 66.501s-11.5 54.167 -11.5 85.5v297h79v-288c0 -49.333 10.5 -87 31.5 -113s52.833 -39 95.5 -39c45.333 0 79.833 14.167 103.5 42.5s35.5 64.5 35.5 108.5v289
h78v-497h-69l-6 80c-13.333 -23.333 -32.833 -44.166 -58.5 -62.499s-58.834 -27.5 -99.501 -27.5zM150.004 705.998v49h70l95 -91v-49h-70z" />
    <glyph glyph-name="uacute" unicode="&#xfa;" horiz-adv-x="573" 
d="M262 -10c-32.667 0 -60.8301 4.99805 -84.4971 14.998s-43.334 24.333 -59.001 43s-27.334 40.834 -35.001 66.501s-11.5 54.167 -11.5 85.5v297h79v-288c0 -49.333 10.5 -87 31.5 -113s52.833 -39 95.5 -39c45.333 0 79.833 14.167 103.5 42.5s35.5 64.5 35.5 108.5v289
h78v-497h-69l-6 80c-13.333 -23.333 -32.833 -44.166 -58.5 -62.499s-58.834 -27.5 -99.501 -27.5zM242.004 658.998l95 91h70v-49l-95 -91h-70v49z" />
    <glyph glyph-name="ucircumflex" unicode="&#xfb;" horiz-adv-x="573" 
d="M283 689l-82 -79h-49v49l95 91h71l95 -91v-49h-49zM262 -10c-32.667 0 -60.8301 4.99805 -84.4971 14.998s-43.334 24.333 -59.001 43s-27.334 40.834 -35.001 66.501s-11.5 54.167 -11.5 85.5v297h79v-288c0 -49.333 10.5 -87 31.5 -113s52.833 -39 95.5 -39
c45.333 0 79.833 14.167 103.5 42.5s35.5 64.5 35.5 108.5v289h78v-497h-69l-6 80c-13.333 -23.333 -32.833 -44.166 -58.5 -62.499s-58.834 -27.5 -99.501 -27.5z" />
    <glyph glyph-name="udieresis" unicode="&#xfc;" horiz-adv-x="573" 
d="M145 720h94v-93h-94v93zM329 720h93v-93h-93v93zM262 -10c-32.667 0 -60.8301 4.99805 -84.4971 14.998s-43.334 24.333 -59.001 43s-27.334 40.834 -35.001 66.501s-11.5 54.167 -11.5 85.5v297h79v-288c0 -49.333 10.5 -87 31.5 -113s52.833 -39 95.5 -39
c45.333 0 79.833 14.167 103.5 42.5s35.5 64.5 35.5 108.5v289h78v-497h-69l-6 80c-13.333 -23.333 -32.833 -44.166 -58.5 -62.499s-58.834 -27.5 -99.501 -27.5z" />
    <glyph glyph-name="yacute" unicode="&#xfd;" horiz-adv-x="512" 
d="M227 659l95 91h70v-49l-95 -91h-70v49zM77 -250v55l144 265l-196 372v55h55l184 -352l180 352h51v-52l-363 -695h-55z" />
    <glyph glyph-name="thorn" unicode="&#xfe;" horiz-adv-x="615" 
d="M77 750l79 0.000976562v-344c17.333 30.667 41.166 55.167 71.499 73.5s66.5 27.5 108.5 27.5c36 0 68.333 -6.66699 97 -20s53.167 -31.666 73.5 -54.999s36 -50.5 47 -81.5s16.5 -64.167 16.5 -99.5c0 -36 -5.5 -69.833 -16.5 -101.5s-26.5 -59.334 -46.5 -83.001
s-44.5 -42.334 -73.5 -56.001s-61.5 -20.5 -97.5 -20.5c-38 0 -72.667 8.33301 -104 25s-56.666 41 -75.999 73v-338h-79v1000zM322 58.001c26 0 49.498 4.83301 70.498 14.5s38.833 23 53.5 40s25.834 37.333 33.501 61s11.5 49.5 11.5 77.5c0 26 -3.66699 50.333 -11 73
s-18.166 42.5 -32.499 59.5s-32 30.5 -53 40.5s-45.167 15 -72.5 15c-26 0 -49.333 -4.83301 -70 -14.5s-38.167 -23 -52.5 -40s-25.166 -37 -32.499 -60s-11 -47.5 -11 -73.5c0 -32 4.66699 -60 14 -84s21.666 -44.167 36.999 -60.5s33 -28.5 53 -36.5s40.667 -12 62 -12z
" />
    <glyph glyph-name="ydieresis" unicode="&#xff;" horiz-adv-x="512" 
d="M124 720h94v-93h-94v93zM308 720h93v-93h-93v93zM77 -250v55l144 265l-196 372v55h55l184 -352l180 352h51v-52l-363 -695h-55z" />
    <glyph glyph-name="Amacron" unicode="&#x100;" horiz-adv-x="662" 
d="M17 0v56l279 694h69l277 -686v-64h-63l-85 217h-330l-85 -217h-62zM329 636l-137 -349h273zM207 897h247v-73h-247v73z" />
    <glyph glyph-name="amacron" unicode="&#x101;" horiz-adv-x="516" 
d="M210 -10c-28.667 0 -53.667 3.99902 -75 11.999s-39 18.833 -53 32.5s-24.5 29.667 -31.5 48s-10.5 38.166 -10.5 59.499s3.83301 40.833 11.5 58.5s19.5 33.167 35.5 46.5s36.833 23.666 62.5 30.999s56.5 11 92.5 11c17.333 0 33.333 -0.666992 48 -2
s27.667 -2.66602 39 -3.99902c12.667 -2 24.334 -4.33301 35.001 -7v35c0 42 -9.33301 73.833 -28 95.5s-49 32.5 -91 32.5c-24.667 0 -45 -3.66699 -61 -11s-28.667 -15.666 -38 -24.999c-10.667 -10.667 -19 -22.667 -25 -36h-52v53c9.33301 16 22 30.667 38 44
c14 11.333 32.167 21.333 54.5 30s50.833 13 85.5 13c64.667 0 113.5 -16.667 146.5 -50s49.5 -82.666 49.5 -147.999v-309h-63l-9 87c-12.667 -24.667 -32.334 -47 -59.001 -67s-60.667 -30 -102 -30zM222 54.999c23.333 0 43.833 3.99805 61.5 11.998s32.5 18.333 44.5 31
s21 26.834 27 42.501s9 30.834 9 45.501v29c-10 2.66699 -21.333 5 -34 7c-11.333 1.33301 -24.333 2.66602 -39 3.99902s-31 2 -49 2c-24.667 0 -45 -2.33301 -61 -7s-28.667 -11 -38 -19s-16 -17.167 -20 -27.5s-6 -21.166 -6 -32.499c0 -58 35 -87 105 -87zM138 706.997
h237v-71h-237v71z" />
    <glyph glyph-name="Abreve" unicode="&#x102;" horiz-adv-x="662" 
d="M17 0v56l279 694h69l277 -686v-64h-63l-85 217h-330l-85 -217h-62zM329 636l-137 -349h273zM329 802c-28.667 0 -51.5 3.50098 -68.5 10.501s-29.833 14.833 -38.5 23.5c-11.333 10 -19 21.333 -23 34v58h58c2 -11.333 5.66699 -21 11 -29
c5.33301 -8.66699 12.666 -15.834 21.999 -21.501s22.333 -8.5 39 -8.5c17.333 0 30.5 3 39.5 9s15.833 13 20.5 21s7.33398 17.667 8.00098 29h58v-58c-4 -12.667 -11.333 -24 -22 -34c-9.33301 -9.33301 -22 -17.333 -38 -24s-38 -10 -66 -10z" />
    <glyph glyph-name="abreve" unicode="&#x103;" horiz-adv-x="516" 
d="M210 -10c-28.667 0 -53.667 3.99902 -75 11.999s-39 18.833 -53 32.5s-24.5 29.667 -31.5 48s-10.5 38.166 -10.5 59.499s3.83301 40.833 11.5 58.5s19.5 33.167 35.5 46.5s36.833 23.666 62.5 30.999s56.5 11 92.5 11c17.333 0 33.333 -0.666992 48 -2
s27.667 -2.66602 39 -3.99902c12.667 -2 24.334 -4.33301 35.001 -7v35c0 42 -9.33301 73.833 -28 95.5s-49 32.5 -91 32.5c-24.667 0 -45 -3.66699 -61 -11s-28.667 -15.666 -38 -24.999c-10.667 -10.667 -19 -22.667 -25 -36h-52v53c9.33301 16 22 30.667 38 44
c14 11.333 32.167 21.333 54.5 30s50.833 13 85.5 13c64.667 0 113.5 -16.667 146.5 -50s49.5 -82.666 49.5 -147.999v-309h-63l-9 87c-12.667 -24.667 -32.334 -47 -59.001 -67s-60.667 -30 -102 -30zM222 54.999c23.333 0 43.833 3.99805 61.5 11.998s32.5 18.333 44.5 31
s21 26.834 27 42.501s9 30.834 9 45.501v29c-10 2.66699 -21.333 5 -34 7c-11.333 1.33301 -24.333 2.66602 -39 3.99902s-31 2 -49 2c-24.667 0 -45 -2.33301 -61 -7s-28.667 -11 -38 -19s-16 -17.167 -20 -27.5s-6 -21.166 -6 -32.499c0 -58 35 -87 105 -87zM249 590.997
c-28.667 0 -51.502 3.66797 -68.502 11.001s-30.167 15.666 -39.5 24.999c-10.667 10.667 -18 22.667 -22 36v57h57c1.33301 -11.333 5 -21.666 11 -30.999c4.66699 -8.66699 11.834 -16 21.501 -22s23.167 -9 40.5 -9s30.666 3.16699 39.999 9.5s16 13.5 20 21.5
c4.66699 9.33301 7.33398 19.666 8.00098 30.999h58v-57c-4 -13.333 -11 -25.333 -21 -36c-9.33301 -10 -22.166 -18.5 -38.499 -25.5s-38.5 -10.5 -66.5 -10.5z" />
    <glyph glyph-name="Aogonek" unicode="&#x104;" horiz-adv-x="662" 
d="M531 -75c0 17.333 4.66797 32.832 14.001 46.499s20.666 23.167 33.999 28.5l-85 217h-330l-85 -217h-62v56l279 694h69l277 -686v-64c-7.33301 -2 -14 -5 -20 -9s-11 -9.5 -15 -16.5s-6 -16.167 -6 -27.5c0 -10.667 2.5 -19.167 7.5 -25.5s10.667 -11.333 17 -15
s12.5 -6 18.5 -7s10 -1.5 12 -1.5v-57h-58c-12.667 3.33301 -23.667 8.33301 -33 15s-17.333 15.334 -24 26.001s-10 25 -10 43zM329.001 635.999l-137 -349h273z" />
    <glyph glyph-name="aogonek" unicode="&#x105;" horiz-adv-x="516" 
d="M332 -75c0 17.333 4.66797 32.8311 14.001 46.498s20.666 23.167 33.999 28.5l-9 87c-12.667 -24.667 -32.334 -47 -59.001 -67s-60.667 -30 -102 -30c-28.667 0 -53.667 4 -75 12s-39 18.833 -53 32.5s-24.5 29.667 -31.5 48s-10.5 38.166 -10.5 59.499
s3.83301 40.833 11.5 58.5s19.5 33.167 35.5 46.5s36.833 23.666 62.5 30.999s56.5 11 92.5 11c17.333 0 33.333 -0.666992 48 -2s27.667 -2.66602 39 -3.99902c12.667 -2 24.334 -4.33301 35.001 -7v35c0 42 -9.33301 73.833 -28 95.5s-49 32.5 -91 32.5
c-24.667 0 -45 -3.66699 -61 -11s-28.667 -15.666 -38 -24.999c-10.667 -10.667 -19 -22.667 -25 -36h-52v53c9.33301 16 22 30.667 38 44c14 11.333 32.167 21.333 54.5 30s50.833 13 85.5 13c64.667 0 113.5 -16.667 146.5 -50s49.5 -82.666 49.5 -147.999v-309
c-7.33301 -2 -14 -5 -20 -9s-11 -9.5 -15 -16.5s-6 -16.167 -6 -27.5c0 -10.667 2.5 -19.167 7.5 -25.5s10.667 -11.333 17 -15s12.5 -6 18.5 -7s10 -1.5 12 -1.5v-57h-58c-12.667 3.33301 -23.667 8.33301 -33 15s-17.333 15.334 -24 26.001s-10 25 -10 43zM222.001 54.998
c23.333 0 43.833 3.99805 61.5 11.998s32.5 18.333 44.5 31s21 26.834 27 42.501s9 30.834 9 45.501v29c-10 2.66699 -21.333 5 -34 7c-11.333 1.33301 -24.333 2.66602 -39 3.99902s-31 2 -49 2c-24.667 0 -45 -2.33301 -61 -7s-28.667 -11 -38 -19s-16 -17.167 -20 -27.5
s-6 -21.166 -6 -32.499c0 -58 35 -87 105 -87z" />
    <glyph glyph-name="Cacute" unicode="&#x106;" horiz-adv-x="735" 
d="M415 -10c-59.333 0 -111.831 10.1641 -157.498 30.4971s-83.834 48 -114.501 83s-53.834 76 -69.501 123s-23.5 97.5 -23.5 151.5c0 54.667 8.5 105.334 25.5 152.001s41.333 87 73 121s70 60.667 115 80s95.5 29 151.5 29c54 0 98.667 -6.66699 134 -20
s63.666 -28 84.999 -44c24.667 -19.333 43.667 -41 57 -65v-56h-63c-9.33301 21.333 -23 40.333 -41 57c-16.667 15.333 -38.334 28.666 -65.001 39.999s-61.667 17 -105 17c-44.667 0 -84.5 -8 -119.5 -24s-64.5 -38 -88.5 -66s-42.167 -61 -54.5 -99
s-18.5 -78.667 -18.5 -122c0 -44.667 6.5 -86.167 19.5 -124.5s31.667 -71.666 56 -99.999s53.833 -50.666 88.5 -66.999s73.667 -24.5 117 -24.5c42.667 0 77.834 6.16699 105.501 18.5s49.5 25.833 65.5 40.5c19.333 17.333 34.333 37 45 59h63v-56
c-14.667 -25.333 -35 -47.666 -61 -66.999c-22.667 -18 -51.667 -33.667 -87 -47s-79.666 -20 -132.999 -20zM380.002 853.997l102 91h69v-49l-101 -91h-70v49z" />
    <glyph glyph-name="cacute" unicode="&#x107;" horiz-adv-x="530" 
d="M293 -10c-40 0 -75.333 6.83594 -106 20.5029s-56.5 32.167 -77.5 55.5s-37 50.666 -48 81.999s-16.5 65 -16.5 101c0 35.333 5.66699 68.833 17 100.5s27.833 59.167 49.5 82.5s47.834 41.833 78.501 55.5s65 20.5 103 20.5c39.333 0 71.333 -5.33301 96 -16
s44 -22.334 58 -35.001c16.667 -14.667 29 -31.667 37 -51v-52h-53c-5.33301 16 -13.666 30.333 -24.999 43c-10.667 12 -24.834 22.167 -42.501 30.5s-41.167 12.5 -70.5 12.5c-28 0 -52.667 -5.16699 -74 -15.5s-39 -24.333 -53 -42s-24.5 -38 -31.5 -61
s-10.5 -47.167 -10.5 -72.5s3.5 -49.5 10.5 -72.5s17.5 -43.333 31.5 -61s31.667 -31.667 53 -42s46 -15.5 74 -15.5c30.667 0 55.167 4.5 73.5 13.5s32.166 18.833 41.499 29.5c11.333 12.667 19.333 27 24 43h53v-53c-8.66699 -18.667 -21.334 -35.334 -38.001 -50.001
c-15.333 -14 -35.166 -26 -59.499 -36s-55.833 -15 -94.5 -15zM246 659.003l95 91h70v-49l-95 -91h-70v49z" />
    <glyph glyph-name="Ccircumflex" unicode="&#x108;" horiz-adv-x="735" 
d="M415 -10c-59.333 0 -111.831 10.1641 -157.498 30.4971s-83.834 48 -114.501 83s-53.834 76 -69.501 123s-23.5 97.5 -23.5 151.5c0 54.667 8.5 105.334 25.5 152.001s41.333 87 73 121s70 60.667 115 80s95.5 29 151.5 29c54 0 98.667 -6.66699 134 -20
s63.666 -28 84.999 -44c24.667 -19.333 43.667 -41 57 -65v-56h-63c-9.33301 21.333 -23 40.333 -41 57c-16.667 15.333 -38.334 28.666 -65.001 39.999s-61.667 17 -105 17c-44.667 0 -84.5 -8 -119.5 -24s-64.5 -38 -88.5 -66s-42.167 -61 -54.5 -99
s-18.5 -78.667 -18.5 -122c0 -44.667 6.5 -86.167 19.5 -124.5s31.667 -71.666 56 -99.999s53.833 -50.666 88.5 -66.999s73.667 -24.5 117 -24.5c42.667 0 77.834 6.16699 105.501 18.5s49.5 25.833 65.5 40.5c19.333 17.333 34.333 37 45 59h63v-56
c-14.667 -25.333 -35 -47.666 -61 -66.999c-22.667 -18 -51.667 -33.667 -87 -47s-79.666 -20 -132.999 -20zM418.002 876.997l-82 -73h-49v49l95 85h71l95 -85v-49h-49z" />
    <glyph glyph-name="ccircumflex" unicode="&#x109;" horiz-adv-x="530" 
d="M293 -10c-40 0 -75.333 6.83594 -106 20.5029s-56.5 32.167 -77.5 55.5s-37 50.666 -48 81.999s-16.5 65 -16.5 101c0 35.333 5.66699 68.833 17 100.5s27.833 59.167 49.5 82.5s47.834 41.833 78.501 55.5s65 20.5 103 20.5c39.333 0 71.333 -5.33301 96 -16
s44 -22.334 58 -35.001c16.667 -14.667 29 -31.667 37 -51v-52h-53c-5.33301 16 -13.666 30.333 -24.999 43c-10.667 12 -24.834 22.167 -42.501 30.5s-41.167 12.5 -70.5 12.5c-28 0 -52.667 -5.16699 -74 -15.5s-39 -24.333 -53 -42s-24.5 -38 -31.5 -61
s-10.5 -47.167 -10.5 -72.5s3.5 -49.5 10.5 -72.5s17.5 -43.333 31.5 -61s31.667 -31.667 53 -42s46 -15.5 74 -15.5c30.667 0 55.167 4.5 73.5 13.5s32.166 18.833 41.499 29.5c11.333 12.667 19.333 27 24 43h53v-53c-8.66699 -18.667 -21.334 -35.334 -38.001 -50.001
c-15.333 -14 -35.166 -26 -59.499 -36s-55.833 -15 -94.5 -15zM286 689.003l-82 -79h-49v49l95 91h71l95 -91v-49h-49z" />
    <glyph glyph-name="Cdotaccent" unicode="&#x10a;" horiz-adv-x="735" 
d="M415 -10c-59.333 0 -111.831 10.1641 -157.498 30.4971s-83.834 48 -114.501 83s-53.834 76 -69.501 123s-23.5 97.5 -23.5 151.5c0 54.667 8.5 105.334 25.5 152.001s41.333 87 73 121s70 60.667 115 80s95.5 29 151.5 29c54 0 98.667 -6.66699 134 -20
s63.666 -28 84.999 -44c24.667 -19.333 43.667 -41 57 -65v-56h-63c-9.33301 21.333 -23 40.333 -41 57c-16.667 15.333 -38.334 28.666 -65.001 39.999s-61.667 17 -105 17c-44.667 0 -84.5 -8 -119.5 -24s-64.5 -38 -88.5 -66s-42.167 -61 -54.5 -99
s-18.5 -78.667 -18.5 -122c0 -44.667 6.5 -86.167 19.5 -124.5s31.667 -71.666 56 -99.999s53.833 -50.666 88.5 -66.999s73.667 -24.5 117 -24.5c42.667 0 77.834 6.16699 105.501 18.5s49.5 25.833 65.5 40.5c19.333 17.333 34.333 37 45 59h63v-56
c-14.667 -25.333 -35 -47.666 -61 -66.999c-22.667 -18 -51.667 -33.667 -87 -47s-79.666 -20 -132.999 -20zM365.002 920.997h94v-94h-94v94z" />
    <glyph glyph-name="cdotaccent" unicode="&#x10b;" horiz-adv-x="530" 
d="M293 -10c-40 0 -75.333 6.83594 -106 20.5029s-56.5 32.167 -77.5 55.5s-37 50.666 -48 81.999s-16.5 65 -16.5 101c0 35.333 5.66699 68.833 17 100.5s27.833 59.167 49.5 82.5s47.834 41.833 78.501 55.5s65 20.5 103 20.5c39.333 0 71.333 -5.33301 96 -16
s44 -22.334 58 -35.001c16.667 -14.667 29 -31.667 37 -51v-52h-53c-5.33301 16 -13.666 30.333 -24.999 43c-10.667 12 -24.834 22.167 -42.501 30.5s-41.167 12.5 -70.5 12.5c-28 0 -52.667 -5.16699 -74 -15.5s-39 -24.333 -53 -42s-24.5 -38 -31.5 -61
s-10.5 -47.167 -10.5 -72.5s3.5 -49.5 10.5 -72.5s17.5 -43.333 31.5 -61s31.667 -31.667 53 -42s46 -15.5 74 -15.5c30.667 0 55.167 4.5 73.5 13.5s32.166 18.833 41.499 29.5c11.333 12.667 19.333 27 24 43h53v-53c-8.66699 -18.667 -21.334 -35.334 -38.001 -50.001
c-15.333 -14 -35.166 -26 -59.499 -36s-55.833 -15 -94.5 -15zM243 720.003h94v-93h-94v93z" />
    <glyph glyph-name="Ccaron" unicode="&#x10c;" horiz-adv-x="735" 
d="M415 -10c-59.333 0 -111.831 10.1641 -157.498 30.4971s-83.834 48 -114.501 83s-53.834 76 -69.501 123s-23.5 97.5 -23.5 151.5c0 54.667 8.5 105.334 25.5 152.001s41.333 87 73 121s70 60.667 115 80s95.5 29 151.5 29c54 0 98.667 -6.66699 134 -20
s63.666 -28 84.999 -44c24.667 -19.333 43.667 -41 57 -65v-56h-63c-9.33301 21.333 -23 40.333 -41 57c-16.667 15.333 -38.334 28.666 -65.001 39.999s-61.667 17 -105 17c-44.667 0 -84.5 -8 -119.5 -24s-64.5 -38 -88.5 -66s-42.167 -61 -54.5 -99
s-18.5 -78.667 -18.5 -122c0 -44.667 6.5 -86.167 19.5 -124.5s31.667 -71.666 56 -99.999s53.833 -50.666 88.5 -66.999s73.667 -24.5 117 -24.5c42.667 0 77.834 6.16699 105.501 18.5s49.5 25.833 65.5 40.5c19.333 17.333 34.333 37 45 59h63v-56
c-14.667 -25.333 -35 -47.666 -61 -66.999c-22.667 -18 -51.667 -33.667 -87 -47s-79.666 -20 -132.999 -20zM382.002 803.997l-98 85v49h49l84 -73l80 73h49v-49l-93 -85h-71z" />
    <glyph glyph-name="ccaron" unicode="&#x10d;" horiz-adv-x="530" 
d="M293 -10c-40 0 -75.333 6.83594 -106 20.5029s-56.5 32.167 -77.5 55.5s-37 50.666 -48 81.999s-16.5 65 -16.5 101c0 35.333 5.66699 68.833 17 100.5s27.833 59.167 49.5 82.5s47.834 41.833 78.501 55.5s65 20.5 103 20.5c39.333 0 71.333 -5.33301 96 -16
s44 -22.334 58 -35.001c16.667 -14.667 29 -31.667 37 -51v-52h-53c-5.33301 16 -13.666 30.333 -24.999 43c-10.667 12 -24.834 22.167 -42.501 30.5s-41.167 12.5 -70.5 12.5c-28 0 -52.667 -5.16699 -74 -15.5s-39 -24.333 -53 -42s-24.5 -38 -31.5 -61
s-10.5 -47.167 -10.5 -72.5s3.5 -49.5 10.5 -72.5s17.5 -43.333 31.5 -61s31.667 -31.667 53 -42s46 -15.5 74 -15.5c30.667 0 55.167 4.5 73.5 13.5s32.166 18.833 41.499 29.5c11.333 12.667 19.333 27 24 43h53v-53c-8.66699 -18.667 -21.334 -35.334 -38.001 -50.001
c-15.333 -14 -35.166 -26 -59.499 -36s-55.833 -15 -94.5 -15zM247 610.003l-98 91v49h49l84 -79l79 79h49v-49l-92 -91h-71z" />
    <glyph glyph-name="Dcaron" unicode="&#x10e;" horiz-adv-x="752" 
d="M99 750l224 0.000976562c58.667 0 111.334 -9.83301 158.001 -29.5s86.334 -46.334 119.001 -80.001s57.834 -73 75.501 -118s26.5 -93.167 26.5 -144.5c0 -52 -8.83301 -101 -26.5 -147s-42.834 -86 -75.501 -120s-72.334 -61 -119.001 -81s-99.334 -30 -158.001 -30
h-224v750zM320 71.001c44 0 84.167 7.83301 120.5 23.5s67.5 37.167 93.5 64.5s46.167 59.666 60.5 96.999s21.5 78 21.5 122c0 42.667 -7.16699 82.334 -21.5 119.001s-34.5 68.5 -60.5 95.5s-57.167 48.167 -93.5 63.5s-76.5 23 -120.5 23h-134v-608h134zM294 804.001
l-98 85v49h49l84 -73l80 73h49v-49l-93 -85h-71z" />
    <glyph glyph-name="dcaron" unicode="&#x10f;" horiz-adv-x="624" 
d="M279 -10c-35.333 0 -67.499 6.66699 -96.499 20s-53.667 31.666 -74 54.999s-36 50.833 -47 82.5s-16.5 65.5 -16.5 101.5c0 36.667 5.66699 70.834 17 102.501s27.166 59 47.499 82s45 41 74 54s60.833 19.5 95.5 19.5c38 0 72.833 -8 104.5 -24s56.834 -41 75.501 -75
v342h79v-750h-70l-10 88c-40.667 -65.333 -100.334 -98 -179.001 -98zM293.001 58c22.667 0 44.166 4.33496 64.499 13.002s38 21.167 53 37.5s26.833 36.333 35.5 60s13 50.5 13 80.5c0 26.667 -3.83301 51.5 -11.5 74.5s-18.5 43 -32.5 60s-31.333 30.5 -52 40.5
s-44 15 -70 15c-26.667 0 -50.5 -5 -71.5 -15s-38.833 -23.5 -53.5 -40.5s-25.667 -37 -33 -60s-11 -47.833 -11 -74.5c0 -28.667 4.16699 -54.834 12.5 -78.501s20 -43.834 35 -60.501s32.833 -29.5 53.5 -38.5s43.334 -13.5 68.001 -13.5zM592 750.002h82v-71l-33 -95h-49
v166z" />
    <glyph glyph-name="Dcroat" unicode="&#x110;" horiz-adv-x="757" 
d="M708 378c0 -52 -8.83301 -100.999 -26.5 -146.999s-42.834 -86 -75.501 -120s-72.334 -61 -119.001 -81s-99.334 -30 -158.001 -30h-224v349h-89v71h89v330h224c58.667 0 111.334 -9.83301 158.001 -29.5s86.334 -46.334 119.001 -80.001s57.834 -73 75.501 -118
s26.5 -93.167 26.5 -144.5zM326 71.001c44 0 84.167 7.83301 120.5 23.5s67.5 37.167 93.5 64.5s46.167 59.666 60.5 96.999s21.5 78 21.5 122c0 42.667 -7.16699 82.334 -21.5 119.001s-34.5 68.5 -60.5 95.5s-57.167 48.167 -93.5 63.5s-76.5 23 -120.5 23h-134v-259h104
v-71h-104v-278h134z" />
    <glyph glyph-name="dcroat" unicode="&#x111;" horiz-adv-x="616" 
d="M458 88c-40.667 -65.333 -100.333 -98 -179 -98c-35.333 0 -67.5 6.66699 -96.5 20s-53.667 31.666 -74 54.999s-36 50.833 -47 82.5s-16.5 65.5 -16.5 101.5c0 36.667 5.66699 70.834 17 102.501s27.166 59 47.499 82s45 41 74 54s60.833 19.5 95.5 19.5
c38 0 72.833 -8 104.5 -24s56.834 -41 75.501 -75v192h-138v68h138v82h79v-82h85v-68h-85v-600h-70zM293.001 58c22.667 0 44.166 4.33496 64.499 13.002s38 21.167 53 37.5s26.833 36.333 35.5 60s13 50.5 13 80.5c0 26.667 -3.83301 51.5 -11.5 74.5s-18.5 43 -32.5 60
s-31.333 30.5 -52 40.5s-44 15 -70 15c-26.667 0 -50.5 -5 -71.5 -15s-38.833 -23.5 -53.5 -40.5s-25.667 -37 -33 -60s-11 -47.833 -11 -74.5c0 -28.667 4.16699 -54.834 12.5 -78.501s20 -43.834 35 -60.501s32.833 -29.5 53.5 -38.5s43.334 -13.5 68.001 -13.5z" />
    <glyph glyph-name="Emacron" unicode="&#x112;" horiz-adv-x="574" 
d="M99 750h422v-71h-335v-257h302v-71h-302v-280h335v-71h-422v750zM186 897h247v-73h-247v73z" />
    <glyph glyph-name="emacron" unicode="&#x113;" horiz-adv-x="558" 
d="M297 -10c-40.667 0 -76.499 6.16504 -107.499 18.498s-57.167 29.833 -78.5 52.5s-37.5 50 -48.5 82s-16.5 67.333 -16.5 106c0 34.667 5.16699 67.667 15.5 99s25.666 58.666 45.999 81.999s45.5 42 75.5 56s65 21 105 21c38 0 71.167 -5.66699 99.5 -17
s51.833 -26.666 70.5 -45.999s32.5 -42.333 41.5 -69s13.5 -55.667 13.5 -87c0 -8 -0.166992 -15 -0.5 -21s-0.5 -11.333 -0.5 -16c-0.666992 -4.66699 -1.33398 -9 -2.00098 -13h-385c2.66699 -57.333 18.834 -101.666 48.501 -132.999s70.834 -47 123.501 -47
c27.333 0 50.333 3.16699 69 9.5s34 13.833 46 22.5s21 17.5 27 26.5s9.66699 15.833 11 20.5h52v-52c-0.666992 -2.66699 -4.83398 -9.16699 -12.501 -19.5s-19.5 -21.166 -35.5 -32.499s-36.833 -21.333 -62.5 -30s-57.167 -13 -94.5 -13zM436.001 297.998
c0 43.333 -12.5 77.668 -37.5 103.001s-61.5 38 -109.5 38s-85 -12.833 -111 -38.5s-42.333 -59.834 -49 -102.501h307zM165.001 707h237v-71h-237v71z" />
    <glyph glyph-name="Ebreve" unicode="&#x114;" horiz-adv-x="574" 
d="M99 750h422v-71h-335v-257h302v-71h-302v-280h335v-71h-422v750zM312 802c-28.667 0 -51.5 3.50098 -68.5 10.501s-29.833 14.833 -38.5 23.5c-11.333 10 -19 21.333 -23 34v58h58c2 -11.333 5.66699 -21 11 -29c5.33301 -8.66699 12.666 -15.834 21.999 -21.501
s22.333 -8.5 39 -8.5c17.333 0 30.5 3 39.5 9s15.833 13 20.5 21s7.33398 17.667 8.00098 29h58v-58c-4 -12.667 -11.333 -24 -22 -34c-9.33301 -9.33301 -22 -17.333 -38 -24s-38 -10 -66 -10z" />
    <glyph glyph-name="ebreve" unicode="&#x115;" horiz-adv-x="558" 
d="M297 -10c-40.667 0 -76.499 6.16504 -107.499 18.498s-57.167 29.833 -78.5 52.5s-37.5 50 -48.5 82s-16.5 67.333 -16.5 106c0 34.667 5.16699 67.667 15.5 99s25.666 58.666 45.999 81.999s45.5 42 75.5 56s65 21 105 21c38 0 71.167 -5.66699 99.5 -17
s51.833 -26.666 70.5 -45.999s32.5 -42.333 41.5 -69s13.5 -55.667 13.5 -87c0 -8 -0.166992 -15 -0.5 -21s-0.5 -11.333 -0.5 -16c-0.666992 -4.66699 -1.33398 -9 -2.00098 -13h-385c2.66699 -57.333 18.834 -101.666 48.501 -132.999s70.834 -47 123.501 -47
c27.333 0 50.333 3.16699 69 9.5s34 13.833 46 22.5s21 17.5 27 26.5s9.66699 15.833 11 20.5h52v-52c-0.666992 -2.66699 -4.83398 -9.16699 -12.501 -19.5s-19.5 -21.166 -35.5 -32.499s-36.833 -21.333 -62.5 -30s-57.167 -13 -94.5 -13zM436.001 297.998
c0 43.333 -12.5 77.668 -37.5 103.001s-61.5 38 -109.5 38s-85 -12.833 -111 -38.5s-42.333 -59.834 -49 -102.501h307zM286.001 591c-28.667 0 -51.502 3.66797 -68.502 11.001s-30.167 15.666 -39.5 24.999c-10.667 10.667 -18 22.667 -22 36v57h57
c1.33301 -11.333 5 -21.666 11 -30.999c4.66699 -8.66699 11.834 -16 21.501 -22s23.167 -9 40.5 -9s30.666 3.16699 39.999 9.5s16 13.5 20 21.5c4.66699 9.33301 7.33398 19.666 8.00098 30.999h58v-57c-4 -13.333 -11 -25.333 -21 -36
c-9.33301 -10 -22.166 -18.5 -38.499 -25.5s-38.5 -10.5 -66.5 -10.5z" />
    <glyph glyph-name="Edotaccent" unicode="&#x116;" horiz-adv-x="574" 
d="M99 750h422v-71h-335v-257h302v-71h-302v-280h335v-71h-422v750zM267 914h94v-94h-94v94z" />
    <glyph glyph-name="edotaccent" unicode="&#x117;" horiz-adv-x="558" 
d="M297 -10c-40.667 0 -76.499 6.16504 -107.499 18.498s-57.167 29.833 -78.5 52.5s-37.5 50 -48.5 82s-16.5 67.333 -16.5 106c0 34.667 5.16699 67.667 15.5 99s25.666 58.666 45.999 81.999s45.5 42 75.5 56s65 21 105 21c38 0 71.167 -5.66699 99.5 -17
s51.833 -26.666 70.5 -45.999s32.5 -42.333 41.5 -69s13.5 -55.667 13.5 -87c0 -8 -0.166992 -15 -0.5 -21s-0.5 -11.333 -0.5 -16c-0.666992 -4.66699 -1.33398 -9 -2.00098 -13h-385c2.66699 -57.333 18.834 -101.666 48.501 -132.999s70.834 -47 123.501 -47
c27.333 0 50.333 3.16699 69 9.5s34 13.833 46 22.5s21 17.5 27 26.5s9.66699 15.833 11 20.5h52v-52c-0.666992 -2.66699 -4.83398 -9.16699 -12.501 -19.5s-19.5 -21.166 -35.5 -32.499s-36.833 -21.333 -62.5 -30s-57.167 -13 -94.5 -13zM436.001 297.998
c0 43.333 -12.5 77.668 -37.5 103.001s-61.5 38 -109.5 38s-85 -12.833 -111 -38.5s-42.333 -59.834 -49 -102.501h307zM239.001 720h94v-93h-94v93z" />
    <glyph glyph-name="Eogonek" unicode="&#x118;" horiz-adv-x="574" 
d="M410 -75c0 17.333 4.66797 32.832 14.001 46.499s20.666 23.167 33.999 28.5h-359v750h422v-71h-335v-257h302v-71h-302v-280h335v-71c-7.33301 -2 -14 -5 -20 -9s-11 -9.5 -15 -16.5s-6 -16.167 -6 -27.5c0 -10.667 2.5 -19.167 7.5 -25.5s10.667 -11.333 17 -15
s12.5 -6 18.5 -7s10 -1.5 12 -1.5v-57h-58c-12.667 3.33301 -23.667 8.33301 -33 15s-17.333 15.334 -24 26.001s-10 25 -10 43z" />
    <glyph glyph-name="eogonek" unicode="&#x119;" horiz-adv-x="559" 
d="M491 -159l-57 -0.0078125c-14 2.66699 -26.333 7.33398 -37 14.001c-10 6.66699 -18.667 15.334 -26 26.001s-11 25.334 -11 44.001c0 12.667 2.16699 25.334 6.5 38.001s12.166 26 23.499 40c-13.333 -4 -27.5 -7.16699 -42.5 -9.5s-31.833 -3.5 -50.5 -3.5
c-40.667 0 -76.5 6.16699 -107.5 18.5s-57.167 29.833 -78.5 52.5s-37.5 50 -48.5 82s-16.5 67.333 -16.5 106c0 34.667 5.16699 67.667 15.5 99s25.666 58.666 45.999 81.999s45.5 42 75.5 56s65 21 105 21c38 0 71.167 -5.66699 99.5 -17s51.833 -26.666 70.5 -45.999
s32.5 -42.333 41.5 -69s13.5 -55.667 13.5 -87c0 -8 -0.166992 -15 -0.5 -21s-0.5 -11.333 -0.5 -16c-0.666992 -4.66699 -1.33398 -9 -2.00098 -13h-385c2.66699 -57.333 18.834 -101.666 48.501 -132.999s70.834 -47 123.501 -47c27.333 0 50.333 3.16699 69 9.5
s34 13.833 46 22.5s21 17.5 27 26.5s9.66699 15.833 11 20.5h52v-52c-0.666992 -2 -2.66699 -5.66699 -6 -11s-8.66602 -11.666 -15.999 -18.999c-17.333 -21.333 -30 -40.166 -38 -56.499s-12 -33.166 -12 -50.499c0 -11.333 2.5 -20.333 7.5 -27s11 -11.667 18 -15
s13.833 -5.5 20.5 -6.5s11.667 -1.5 15 -1.5v-57zM436 297.992c0 43.333 -12.5 77.668 -37.5 103.001s-61.5 38 -109.5 38s-85 -12.833 -111 -38.5s-42.333 -59.834 -49 -102.501h307z" />
    <glyph glyph-name="Ecaron" unicode="&#x11a;" horiz-adv-x="574" 
d="M99 750h422v-71h-335v-257h302v-71h-302v-280h335v-71h-422v750zM279 804l-98 85v49h49l84 -73l80 73h49v-49l-93 -85h-71z" />
    <glyph glyph-name="ecaron" unicode="&#x11b;" horiz-adv-x="558" 
d="M251 610l-98 91v49h49l84 -79l79 79h49v-49l-92 -91h-71zM297 -10c-40.667 0 -76.499 6.16504 -107.499 18.498s-57.167 29.833 -78.5 52.5s-37.5 50 -48.5 82s-16.5 67.333 -16.5 106c0 34.667 5.16699 67.667 15.5 99s25.666 58.666 45.999 81.999s45.5 42 75.5 56
s65 21 105 21c38 0 71.167 -5.66699 99.5 -17s51.833 -26.666 70.5 -45.999s32.5 -42.333 41.5 -69s13.5 -55.667 13.5 -87c0 -8 -0.166992 -15 -0.5 -21s-0.5 -11.333 -0.5 -16c-0.666992 -4.66699 -1.33398 -9 -2.00098 -13h-385
c2.66699 -57.333 18.834 -101.666 48.501 -132.999s70.834 -47 123.501 -47c27.333 0 50.333 3.16699 69 9.5s34 13.833 46 22.5s21 17.5 27 26.5s9.66699 15.833 11 20.5h52v-52c-0.666992 -2.66699 -4.83398 -9.16699 -12.501 -19.5s-19.5 -21.166 -35.5 -32.499
s-36.833 -21.333 -62.5 -30s-57.167 -13 -94.5 -13zM436.001 297.998c0 43.333 -12.5 77.668 -37.5 103.001s-61.5 38 -109.5 38s-85 -12.833 -111 -38.5s-42.333 -59.834 -49 -102.501h307z" />
    <glyph glyph-name="Gcircumflex" unicode="&#x11c;" horiz-adv-x="773" 
d="M425 -10c-58.667 0 -111.168 10.1689 -157.501 30.502s-85.666 48 -117.999 83s-57 76.167 -74 123.5s-25.5 97.666 -25.5 150.999s8.5 103.333 25.5 150s41.667 87.167 74 121.5s71.666 61.333 117.999 81s98.833 29.5 157.5 29.5c54 0 98.667 -6.66699 134 -20
s63.333 -28 84 -44c24.667 -19.333 43.667 -41 57 -65v-56h-62c-10 21.333 -24 40.333 -42 57c-17.333 15.333 -39.333 28.666 -66 39.999s-61 17 -103 17c-47.333 0 -89.166 -8.16699 -125.499 -24.5s-66.666 -38.666 -90.999 -66.999s-42.833 -61.333 -55.5 -99
s-19 -77.834 -19 -120.501c0 -44 6.5 -85.167 19.5 -123.5s32 -71.833 57 -100.5s55.5 -51.167 91.5 -67.5s77 -24.5 123 -24.5c26 0 49.5 2.33301 70.5 7s39.5 10.167 55.5 16.5s29.667 13.333 41 21s20.666 14.5 27.999 20.5v186h-214v71h301v-289l-15.5 -16.5
c-10.333 -11 -27 -23 -50 -36s-52.333 -25 -88 -36s-79.167 -16.5 -130.5 -16.5zM418.999 877.002l-82 -73h-49v49l95 85h71l95 -85v-49h-49z" />
    <glyph glyph-name="gcircumflex" unicode="&#x11d;" horiz-adv-x="616" 
d="M282 -260c-40 0 -73.668 5.66602 -101.001 16.999s-49.333 24.166 -66 38.499s-28.667 28 -36 41s-11.666 21.5 -12.999 25.5v52h53c2 -6.66699 6.16699 -15.667 12.5 -27s15.833 -22.666 28.5 -33.999s29 -21.166 49 -29.499s44.333 -12.5 73 -12.5
c58 0 102.167 18.167 132.5 54.5s45.5 90.833 45.5 163.5v63c-19.333 -34 -44.666 -59.5 -75.999 -76.5s-66 -25.5 -104 -25.5c-35.333 0 -67.5 6.66699 -96.5 20s-53.667 31.666 -74 54.999s-36 50.833 -47 82.5s-16.5 65.5 -16.5 101.5
c0 36.667 5.66699 70.834 17 102.501s27.166 59 47.499 82s45 41.167 74 54.5s60.833 20 95.5 20c38.667 0 73.5 -8.66699 104.5 -26s56.167 -42 75.5 -74l9 89h70v-467c0 -93.333 -22.5 -165 -67.5 -215s-108.167 -75 -189.5 -75zM292.999 57.999
c23.333 0 44.998 4.33496 64.998 13.002s37.667 21.167 53 37.5s27.333 36.333 36 60s13 50.5 13 80.5c0 26.667 -3.83301 51.5 -11.5 74.5s-18.5 43.167 -32.5 60.5s-31.333 31 -52 41s-44 15 -70 15c-26.667 0 -50.5 -5 -71.5 -15s-38.833 -23.667 -53.5 -41
s-25.667 -37.5 -33 -60.5s-11 -47.833 -11 -74.5c0 -28.667 4.16699 -54.834 12.5 -78.501s19.833 -43.834 34.5 -60.501s32.334 -29.5 53.001 -38.5s43.334 -13.5 68.001 -13.5zM305.997 689.001l-82 -79h-49v49l95 91h71l95 -91v-49h-49z" />
    <glyph glyph-name="Gbreve" unicode="&#x11e;" horiz-adv-x="773" 
d="M425 -10c-58.667 0 -111.168 10.1689 -157.501 30.502s-85.666 48 -117.999 83s-57 76.167 -74 123.5s-25.5 97.666 -25.5 150.999s8.5 103.333 25.5 150s41.667 87.167 74 121.5s71.666 61.333 117.999 81s98.833 29.5 157.5 29.5c54 0 98.667 -6.66699 134 -20
s63.333 -28 84 -44c24.667 -19.333 43.667 -41 57 -65v-56h-62c-10 21.333 -24 40.333 -42 57c-17.333 15.333 -39.333 28.666 -66 39.999s-61 17 -103 17c-47.333 0 -89.166 -8.16699 -125.499 -24.5s-66.666 -38.666 -90.999 -66.999s-42.833 -61.333 -55.5 -99
s-19 -77.834 -19 -120.501c0 -44 6.5 -85.167 19.5 -123.5s32 -71.833 57 -100.5s55.5 -51.167 91.5 -67.5s77 -24.5 123 -24.5c26 0 49.5 2.33301 70.5 7s39.5 10.167 55.5 16.5s29.667 13.333 41 21s20.666 14.5 27.999 20.5v186h-214v71h301v-289l-15.5 -16.5
c-10.333 -11 -27 -23 -50 -36s-52.333 -25 -88 -36s-79.167 -16.5 -130.5 -16.5zM424.999 802.002c-28.667 0 -51.5 3.50098 -68.5 10.501s-29.833 14.833 -38.5 23.5c-11.333 10 -19 21.333 -23 34v58h58c2 -11.333 5.66699 -21 11 -29
c5.33301 -8.66699 12.666 -15.834 21.999 -21.501s22.333 -8.5 39 -8.5c17.333 0 30.5 3 39.5 9s15.833 13 20.5 21s7.33398 17.667 8.00098 29h58v-58c-4 -12.667 -11.333 -24 -22 -34c-9.33301 -9.33301 -22 -17.333 -38 -24s-38 -10 -66 -10z" />
    <glyph glyph-name="gbreve" unicode="&#x11f;" horiz-adv-x="616" 
d="M282 -260c-40 0 -73.668 5.66602 -101.001 16.999s-49.333 24.166 -66 38.499s-28.667 28 -36 41s-11.666 21.5 -12.999 25.5v52h53c2 -6.66699 6.16699 -15.667 12.5 -27s15.833 -22.666 28.5 -33.999s29 -21.166 49 -29.499s44.333 -12.5 73 -12.5
c58 0 102.167 18.167 132.5 54.5s45.5 90.833 45.5 163.5v63c-19.333 -34 -44.666 -59.5 -75.999 -76.5s-66 -25.5 -104 -25.5c-35.333 0 -67.5 6.66699 -96.5 20s-53.667 31.666 -74 54.999s-36 50.833 -47 82.5s-16.5 65.5 -16.5 101.5
c0 36.667 5.66699 70.834 17 102.501s27.166 59 47.499 82s45 41.167 74 54.5s60.833 20 95.5 20c38.667 0 73.5 -8.66699 104.5 -26s56.167 -42 75.5 -74l9 89h70v-467c0 -93.333 -22.5 -165 -67.5 -215s-108.167 -75 -189.5 -75zM292.999 57.999
c23.333 0 44.998 4.33496 64.998 13.002s37.667 21.167 53 37.5s27.333 36.333 36 60s13 50.5 13 80.5c0 26.667 -3.83301 51.5 -11.5 74.5s-18.5 43.167 -32.5 60.5s-31.333 31 -52 41s-44 15 -70 15c-26.667 0 -50.5 -5 -71.5 -15s-38.833 -23.667 -53.5 -41
s-25.667 -37.5 -33 -60.5s-11 -47.833 -11 -74.5c0 -28.667 4.16699 -54.834 12.5 -78.501s19.833 -43.834 34.5 -60.501s32.334 -29.5 53.001 -38.5s43.334 -13.5 68.001 -13.5zM300.997 591.001c-28.667 0 -51.502 3.66797 -68.502 11.001s-30.167 15.666 -39.5 24.999
c-10.667 10.667 -18 22.667 -22 36v57h57c1.33301 -11.333 5 -21.666 11 -30.999c4.66699 -8.66699 11.834 -16 21.501 -22s23.167 -9 40.5 -9s30.666 3.16699 39.999 9.5s16 13.5 20 21.5c4.66699 9.33301 7.33398 19.666 8.00098 30.999h58v-57
c-4 -13.333 -11 -25.333 -21 -36c-9.33301 -10 -22.166 -18.5 -38.499 -25.5s-38.5 -10.5 -66.5 -10.5z" />
    <glyph glyph-name="Gdotaccent" unicode="&#x120;" horiz-adv-x="773" 
d="M425 -10c-58.667 0 -111.168 10.1689 -157.501 30.502s-85.666 48 -117.999 83s-57 76.167 -74 123.5s-25.5 97.666 -25.5 150.999s8.5 103.333 25.5 150s41.667 87.167 74 121.5s71.666 61.333 117.999 81s98.833 29.5 157.5 29.5c54 0 98.667 -6.66699 134 -20
s63.333 -28 84 -44c24.667 -19.333 43.667 -41 57 -65v-56h-62c-10 21.333 -24 40.333 -42 57c-17.333 15.333 -39.333 28.666 -66 39.999s-61 17 -103 17c-47.333 0 -89.166 -8.16699 -125.499 -24.5s-66.666 -38.666 -90.999 -66.999s-42.833 -61.333 -55.5 -99
s-19 -77.834 -19 -120.501c0 -44 6.5 -85.167 19.5 -123.5s32 -71.833 57 -100.5s55.5 -51.167 91.5 -67.5s77 -24.5 123 -24.5c26 0 49.5 2.33301 70.5 7s39.5 10.167 55.5 16.5s29.667 13.333 41 21s20.666 14.5 27.999 20.5v186h-214v71h301v-289l-15.5 -16.5
c-10.333 -11 -27 -23 -50 -36s-52.333 -25 -88 -36s-79.167 -16.5 -130.5 -16.5zM374.999 914.002h94v-94h-94v94z" />
    <glyph glyph-name="gdotaccent" unicode="&#x121;" horiz-adv-x="616" 
d="M282 -260c-40 0 -73.668 5.66602 -101.001 16.999s-49.333 24.166 -66 38.499s-28.667 28 -36 41s-11.666 21.5 -12.999 25.5v52h53c2 -6.66699 6.16699 -15.667 12.5 -27s15.833 -22.666 28.5 -33.999s29 -21.166 49 -29.499s44.333 -12.5 73 -12.5
c58 0 102.167 18.167 132.5 54.5s45.5 90.833 45.5 163.5v63c-19.333 -34 -44.666 -59.5 -75.999 -76.5s-66 -25.5 -104 -25.5c-35.333 0 -67.5 6.66699 -96.5 20s-53.667 31.666 -74 54.999s-36 50.833 -47 82.5s-16.5 65.5 -16.5 101.5
c0 36.667 5.66699 70.834 17 102.501s27.166 59 47.499 82s45 41.167 74 54.5s60.833 20 95.5 20c38.667 0 73.5 -8.66699 104.5 -26s56.167 -42 75.5 -74l9 89h70v-467c0 -93.333 -22.5 -165 -67.5 -215s-108.167 -75 -189.5 -75zM292.999 57.999
c23.333 0 44.998 4.33496 64.998 13.002s37.667 21.167 53 37.5s27.333 36.333 36 60s13 50.5 13 80.5c0 26.667 -3.83301 51.5 -11.5 74.5s-18.5 43.167 -32.5 60.5s-31.333 31 -52 41s-44 15 -70 15c-26.667 0 -50.5 -5 -71.5 -15s-38.833 -23.667 -53.5 -41
s-25.667 -37.5 -33 -60.5s-11 -47.833 -11 -74.5c0 -28.667 4.16699 -54.834 12.5 -78.501s19.833 -43.834 34.5 -60.501s32.334 -29.5 53.001 -38.5s43.334 -13.5 68.001 -13.5zM254.997 720.001h94v-93h-94v93z" />
    <glyph glyph-name="Gcommaaccent" unicode="&#x122;" horiz-adv-x="773" 
d="M425 -10c-58.667 0 -111.168 10.1689 -157.501 30.502s-85.666 48 -117.999 83s-57 76.167 -74 123.5s-25.5 97.666 -25.5 150.999s8.5 103.333 25.5 150s41.667 87.167 74 121.5s71.666 61.333 117.999 81s98.833 29.5 157.5 29.5c54 0 98.667 -6.66699 134 -20
s63.333 -28 84 -44c24.667 -19.333 43.667 -41 57 -65v-56h-62c-10 21.333 -24 40.333 -42 57c-17.333 15.333 -39.333 28.666 -66 39.999s-61 17 -103 17c-47.333 0 -89.166 -8.16699 -125.499 -24.5s-66.666 -38.666 -90.999 -66.999s-42.833 -61.333 -55.5 -99
s-19 -77.834 -19 -120.501c0 -44 6.5 -85.167 19.5 -123.5s32 -71.833 57 -100.5s55.5 -51.167 91.5 -67.5s77 -24.5 123 -24.5c26 0 49.5 2.33301 70.5 7s39.5 10.167 55.5 16.5s29.667 13.333 41 21s20.666 14.5 27.999 20.5v186h-214v71h301v-289l-15.5 -16.5
c-10.333 -11 -27 -23 -50 -36s-52.333 -25 -88 -36s-79.167 -16.5 -130.5 -16.5zM390.999 -51.998h78v-66l-33 -81h-45v147z" />
    <glyph glyph-name="gcommaaccent" unicode="&#x123;" horiz-adv-x="616" 
d="M282 -260c-40 0 -73.668 5.66602 -101.001 16.999s-49.333 24.166 -66 38.499s-28.667 28 -36 41s-11.666 21.5 -12.999 25.5v52h53c2 -6.66699 6.16699 -15.667 12.5 -27s15.833 -22.666 28.5 -33.999s29 -21.166 49 -29.499s44.333 -12.5 73 -12.5
c58 0 102.167 18.167 132.5 54.5s45.5 90.833 45.5 163.5v63c-19.333 -34 -44.666 -59.5 -75.999 -76.5s-66 -25.5 -104 -25.5c-35.333 0 -67.5 6.66699 -96.5 20s-53.667 31.666 -74 54.999s-36 50.833 -47 82.5s-16.5 65.5 -16.5 101.5
c0 36.667 5.66699 70.834 17 102.501s27.166 59 47.499 82s45 41.167 74 54.5s60.833 20 95.5 20c38.667 0 73.5 -8.66699 104.5 -26s56.167 -42 75.5 -74l9 89h70v-467c0 -93.333 -22.5 -165 -67.5 -215s-108.167 -75 -189.5 -75zM292.999 57.999
c23.333 0 44.998 4.33496 64.998 13.002s37.667 21.167 53 37.5s27.333 36.333 36 60s13 50.5 13 80.5c0 26.667 -3.83301 51.5 -11.5 74.5s-18.5 43.167 -32.5 60.5s-31.333 31 -52 41s-44 15 -70 15c-26.667 0 -50.5 -5 -71.5 -15s-38.833 -23.667 -53.5 -41
s-25.667 -37.5 -33 -60.5s-11 -47.833 -11 -74.5c0 -28.667 4.16699 -54.834 12.5 -78.501s19.833 -43.834 34.5 -60.501s32.334 -29.5 53.001 -38.5s43.334 -13.5 68.001 -13.5zM339.997 610.001h-78v66l33 81h45v-147z" />
    <glyph glyph-name="Hcircumflex" unicode="&#x124;" horiz-adv-x="763" 
d="M99 750h87v-330h391v330h87v-750h-87v349h-391v-349h-87v750zM384 877l-82 -73h-49v49l95 85h71l95 -85v-49h-49z" />
    <glyph glyph-name="hcircumflex" unicode="&#x125;" horiz-adv-x="572" 
d="M77 750h79.001v-330c12 22 31 42 57 60s59.333 27 100 27c34 0 62.833 -5.33301 86.5 -16s43 -25.5 58 -44.5s25.833 -41.5 32.5 -67.5s10 -54.333 10 -85v-294h-79v285c0 48 -9.33301 85.833 -28 113.5s-51 41.5 -97 41.5c-24 0 -44.833 -4 -62.5 -12
s-32.334 -19 -44.001 -33s-20.167 -30.333 -25.5 -49s-8 -38.667 -8 -60v-286h-79v750zM295.001 876l-82 -73h-49v49l95 85h71l95 -85v-49h-49z" />
    <glyph glyph-name="Hbar" unicode="&#x126;" horiz-adv-x="775" 
d="M194 0h-87v548h-90v71h90v131h87v-131h391v131h87v-131h83v-71h-83v-548h-87v349h-391v-349zM585 420v128h-391v-128h391z" />
    <glyph glyph-name="hbar" unicode="&#x127;" horiz-adv-x="572" 
d="M156 0h-78.999v600h-85v68h85v82h79v-82h138v-68h-138v-180c12 22 31 42 57 60s59.333 27 100 27c34 0 62.833 -5.33301 86.5 -16s43 -25.5 58 -44.5s25.833 -41.5 32.5 -67.5s10 -54.333 10 -85v-294h-79v285c0 48 -9.33301 85.833 -28 113.5s-51 41.5 -97 41.5
c-24 0 -44.833 -4 -62.5 -12s-32.334 -19 -44.001 -33s-20.167 -30.333 -25.5 -49s-8 -38.667 -8 -60v-286z" />
    <glyph glyph-name="Itilde" unicode="&#x128;" horiz-adv-x="285" 
d="M207 807c-14 0 -26.001 2.16895 -36.001 6.50195s-19 9 -27 14s-15.833 9.66699 -23.5 14s-16.5 6.5 -26.5 6.5c-8.66699 0 -16.667 -2.83301 -24 -8.5s-11.666 -14.834 -12.999 -27.501h-58c0 32 7.83301 56.833 23.5 74.5s37.5 26.5 65.5 26.5
c14.667 0 26.667 -2.16699 36 -6.5s17.666 -9 24.999 -14l21 -14c6.66699 -4.33301 14.667 -6.5 24 -6.5c8.66699 0 16.334 2.16699 23.001 6.5s10.667 14.166 12 29.499h57c0 -67.333 -26.333 -101 -79 -101zM98.999 750.002h87v-750h-87v750z" />
    <glyph glyph-name="itilde" unicode="&#x129;" horiz-adv-x="235" 
d="M78 497h79v-497h-79v497zM195 618c-14 0 -26.002 2.16602 -36.002 6.49902s-19 9 -27 14s-15.833 9.66699 -23.5 14s-16.5 6.5 -26.5 6.5c-8.66699 0 -16.667 -2.66699 -24 -8s-12 -14.666 -14 -27.999h-57c0 32 7.66699 57 23 75s37 27 65 27
c14.667 0 26.834 -2.16699 36.501 -6.5s18.167 -9 25.5 -14l21 -14c6.66699 -4.33301 14.667 -6.5 24 -6.5c8.66699 0 16.334 2.16699 23.001 6.5s10.667 14.166 12 29.499h57c0 -33.333 -6.33301 -58.666 -19 -75.999s-32.667 -26 -60 -26z" />
    <glyph glyph-name="Imacron" unicode="&#x12a;" horiz-adv-x="285" 
d="M19 897h247v-73h-247v73zM99 750h87v-750h-87v750z" />
    <glyph glyph-name="imacron" unicode="&#x12b;" horiz-adv-x="235" 
d="M78 497h79v-497h-79v497zM-2 707h237v-71h-237v71z" />
    <glyph glyph-name="Ibreve" unicode="&#x12c;" horiz-adv-x="285" 
d="M145 802c-28.667 0 -51.5 3.50098 -68.5 10.501s-29.833 14.833 -38.5 23.5c-11.333 10 -19 21.333 -23 34v58h58c2 -11.333 5.66699 -21 11 -29c5.33301 -8.66699 12.666 -15.834 21.999 -21.501s22.333 -8.5 39 -8.5c17.333 0 30.5 3 39.5 9s15.833 13 20.5 21
s7.33398 17.667 8.00098 29h58v-58c-4 -12.667 -11.333 -24 -22 -34c-9.33301 -9.33301 -22 -17.333 -38 -24s-38 -10 -66 -10zM99 750.001h87v-750h-87v750z" />
    <glyph glyph-name="ibreve" unicode="&#x12d;" horiz-adv-x="235" 
d="M78 497h79v-497h-79v497zM119 591c-28.667 0 -51.502 3.66797 -68.502 11.001s-30.167 15.666 -39.5 24.999c-10.667 10.667 -18 22.667 -22 36v57h57c1.33301 -11.333 5 -21.666 11 -30.999c4.66699 -8.66699 11.834 -16 21.501 -22s23.167 -9 40.5 -9
s30.666 3.16699 39.999 9.5s16 13.5 20 21.5c4.66699 9.33301 7.33398 19.666 8.00098 30.999h58v-57c-4 -13.333 -11 -25.333 -21 -36c-9.33301 -10 -22.166 -18.5 -38.499 -25.5s-38.5 -10.5 -66.5 -10.5z" />
    <glyph glyph-name="Iogonek" unicode="&#x12e;" horiz-adv-x="285" 
d="M75 -75c0 17.333 4.66797 32.832 14.001 46.499s20.666 23.167 33.999 28.5h-24v750h87v-750c-7.33301 -2 -14 -5 -20 -9s-11 -9.5 -15 -16.5s-6 -16.167 -6 -27.5c0 -10.667 2.5 -19.167 7.5 -25.5s10.667 -11.333 17 -15s12.5 -6 18.5 -7s10 -1.5 12 -1.5v-57h-58
c-12.667 3.33301 -23.667 8.33301 -33 15s-17.333 15.334 -24 26.001s-10 25 -10 43z" />
    <glyph glyph-name="iogonek" unicode="&#x12f;" horiz-adv-x="235" 
d="M70 720h94v-93h-94v93zM46 -75c0 17.333 4.66797 32.832 14.001 46.499s20.666 23.167 33.999 28.5h-16v497h79v-497c-7.33301 -2 -14 -5 -20 -9s-11 -9.5 -15 -16.5s-6 -16.167 -6 -27.5c0 -10.667 2.5 -19.167 7.5 -25.5s10.667 -11.333 17 -15s12.5 -6 18.5 -7
s10 -1.5 12 -1.5v-57h-58c-12.667 3.33301 -23.667 8.33301 -33 15s-17.333 15.334 -24 26.001s-10 25 -10 43z" />
    <glyph glyph-name="Idotaccent" unicode="&#x130;" horiz-adv-x="285" 
d="M96 914h94v-94h-94v94zM99 750h87v-750h-87v750z" />
    <glyph glyph-name="dotlessi" unicode="&#x131;" horiz-adv-x="235" 
d="M78 497h79v-497h-79v497z" />
    <glyph glyph-name="IJ" unicode="&#x132;" horiz-adv-x="680" 
d="M99 750h87v-750h-87v750zM417 -10c-26.667 0 -49.499 3.49902 -68.499 10.499s-34.5 15.333 -46.5 25s-20.833 19.334 -26.5 29.001s-8.5 16.834 -8.5 21.501v57h63c0 -4.66699 1.5 -11.167 4.5 -19.5s7.83301 -16.333 14.5 -24s15.5 -14.334 26.5 -20.001
s23.833 -8.5 38.5 -8.5c29.333 0 51.166 8.5 65.499 25.5s21.5 48.833 21.5 95.5v568h86v-567c0 -62.667 -13.333 -110.5 -40 -143.5s-70 -49.5 -130 -49.5z" />
    <glyph glyph-name="ij" unicode="&#x133;" horiz-adv-x="486" 
d="M78 497h79v-497h-79v497zM70 720h94v-93h-94v93zM273 -260c-18.667 0 -34.998 2 -48.998 6s-25.833 9 -35.5 15s-17.334 12.5 -23.001 19.5s-9.83398 13.833 -12.501 20.5v53h52c0.666992 -3.33301 2.16699 -7.33301 4.5 -12s5.83301 -9.33398 10.5 -14.001
s11 -8.66699 19 -12s17.667 -5 29 -5c23.333 0 39.333 7.16699 48 21.5s13 36.5 13 66.5v598h79v-598c0 -51.333 -10.5 -90.666 -31.5 -117.999s-55.5 -41 -103.5 -41zM322.002 720h94v-93h-94v93z" />
    <glyph glyph-name="Jcircumflex" unicode="&#x134;" horiz-adv-x="437" 
d="M174 -10c-26.667 0 -49.499 3.49902 -68.499 10.499s-34.5 15.333 -46.5 25s-20.833 19.334 -26.5 29.001s-8.5 16.834 -8.5 21.501v57h63c0 -4.66699 1.5 -11.167 4.5 -19.5s7.83301 -16.333 14.5 -24s15.5 -14.334 26.5 -20.001s23.833 -8.5 38.5 -8.5
c29.333 0 51.166 8.5 65.499 25.5s21.5 48.833 21.5 95.5v568h86v-567c0 -62.667 -13.333 -110.5 -40 -143.5s-70 -49.5 -130 -49.5zM300.001 876.999l-82 -73h-49v49l95 85h71l95 -85v-49h-49z" />
    <glyph glyph-name="jcircumflex" unicode="&#x135;" horiz-adv-x="235" 
d="M22 -260c-18.667 0 -34.998 2 -48.998 6s-25.833 9 -35.5 15s-17.334 12.5 -23.001 19.5s-9.83398 13.833 -12.501 20.5v53h52c0.666992 -3.33301 2.16699 -7.33301 4.5 -12s5.83301 -9.33398 10.5 -14.001s11 -8.66699 19 -12s17.667 -5 29 -5
c23.333 0 39.333 7.16699 48 21.5s13 36.5 13 66.5v598h79v-598c0 -51.333 -10.5 -90.666 -31.5 -117.999s-55.5 -41 -103.5 -41zM118.002 689l-82 -79h-49v49l95 91h71l95 -91v-49h-49z" />
    <glyph glyph-name="Kcommaaccent" unicode="&#x136;" horiz-adv-x="632" 
d="M314 -52h78v-66l-33 -81h-45v147zM186 0h-87v750h87v-357l353 357h55v-55l-316 -313l334 -323v-59h-59l-367 359v-359z" />
    <glyph glyph-name="kcommaaccent" unicode="&#x137;" horiz-adv-x="492" 
d="M77 750h79v-480l243 227h51v-52l-202 -183l221 -206v-56h-56l-257 246v-246h-79v750zM230 -52h78v-66l-33 -81h-45v147z" />
    <glyph glyph-name="Lacute" unicode="&#x139;" horiz-adv-x="538" 
d="M99 750h87v-679h332v-71h-419v750zM107 854l102 91h69v-49l-101 -91h-70v49z" />
    <glyph glyph-name="lacute" unicode="&#x13a;" horiz-adv-x="235" 
d="M78 750h79v-750h-79v750zM83 862l102 91h69v-49l-101 -91h-70v49z" />
    <glyph glyph-name="Lcommaaccent" unicode="&#x13b;" horiz-adv-x="538" 
d="M99 750h87v-679h332v-71h-419v750zM288 -52h78v-66l-33 -81h-45v147z" />
    <glyph glyph-name="lcommaaccent" unicode="&#x13c;" horiz-adv-x="235" 
d="M78 750h79v-750h-79v750zM81 -52h78v-66l-33 -81h-45v147z" />
    <glyph glyph-name="Lcaron" unicode="&#x13d;" horiz-adv-x="547" 
d="M99 750h87v-679h332v-71h-419v750zM412 750h82v-71l-33 -95h-49v166z" />
    <glyph glyph-name="lcaron" unicode="&#x13e;" horiz-adv-x="243" 
d="M78 750h79v-750h-79v750zM210 750h82v-71l-33 -95h-49v166z" />
    <glyph glyph-name="Ldot" unicode="&#x13f;" horiz-adv-x="541" 
d="M369 401h90v-88h-90v88zM99 750h87v-679h332v-71h-419v750z" />
    <glyph glyph-name="ldot" unicode="&#x140;" horiz-adv-x="377" 
d="M78 750h79v-750h-79v750zM261 343h90v-88h-90v88z" />
    <glyph glyph-name="Lslash" unicode="&#x141;" horiz-adv-x="546" 
d="M526 0h-419v266l-90 -42v71l90 42v413h87v-372l111 52v-71l-111 -52v-236h332v-71z" />
    <glyph glyph-name="lslash" unicode="&#x142;" horiz-adv-x="297" 
d="M185 293v-293h-79v253l-90 -47v69l90 47v428h79v-388l90 47v-69z" />
    <glyph glyph-name="Nacute" unicode="&#x143;" horiz-adv-x="761" 
d="M99 750h79l405 -610v610h79v-750h-79l-405 605v-605h-79v750zM345 854l102 91h69v-49l-101 -91h-70v49z" />
    <glyph glyph-name="nacute" unicode="&#x144;" horiz-adv-x="573" 
d="M78 497h70.0049l6 -84c5.33301 12 12.666 23.5 21.999 34.5s20.666 21 33.999 30s28.666 16.167 45.999 21.5s36.666 8 57.999 8c34 0 62.833 -5.33301 86.5 -16s43 -25.5 58 -44.5s25.833 -41.5 32.5 -67.5s10 -54.333 10 -85v-294h-79v285
c0 48 -9.33301 85.833 -28 113.5s-51 41.5 -97 41.5c-24 0 -44.833 -4 -62.5 -12s-32.334 -19 -44.001 -33s-20.167 -30.333 -25.5 -49s-8 -38.667 -8 -60v-286h-79v497zM242.005 659l95 91h70v-49l-95 -91h-70v49z" />
    <glyph glyph-name="Ncommaaccent" unicode="&#x145;" horiz-adv-x="761" 
d="M99 750h79l405 -610v610h79v-750h-79l-405 605v-605h-79v750zM333 -52h78v-66l-33 -81h-45v147z" />
    <glyph glyph-name="ncommaaccent" unicode="&#x146;" horiz-adv-x="573" 
d="M78 497h70.0049l6 -84c5.33301 12 12.666 23.5 21.999 34.5s20.666 21 33.999 30s28.666 16.167 45.999 21.5s36.666 8 57.999 8c34 0 62.833 -5.33301 86.5 -16s43 -25.5 58 -44.5s25.833 -41.5 32.5 -67.5s10 -54.333 10 -85v-294h-79v285
c0 48 -9.33301 85.833 -28 113.5s-51 41.5 -97 41.5c-24 0 -44.833 -4 -62.5 -12s-32.334 -19 -44.001 -33s-20.167 -30.333 -25.5 -49s-8 -38.667 -8 -60v-286h-79v497zM250.005 -52h78v-66l-33 -81h-45v147z" />
    <glyph glyph-name="Ncaron" unicode="&#x147;" horiz-adv-x="761" 
d="M99 750h79l405 -610v610h79v-750h-79l-405 605v-605h-79v750zM352 804l-98 85v49h49l84 -73l80 73h49v-49l-93 -85h-71z" />
    <glyph glyph-name="ncaron" unicode="&#x148;" horiz-adv-x="573" 
d="M78 497h70.0049l6 -84c5.33301 12 12.666 23.5 21.999 34.5s20.666 21 33.999 30s28.666 16.167 45.999 21.5s36.666 8 57.999 8c34 0 62.833 -5.33301 86.5 -16s43 -25.5 58 -44.5s25.833 -41.5 32.5 -67.5s10 -54.333 10 -85v-294h-79v285
c0 48 -9.33301 85.833 -28 113.5s-51 41.5 -97 41.5c-24 0 -44.833 -4 -62.5 -12s-32.334 -19 -44.001 -33s-20.167 -30.333 -25.5 -49s-8 -38.667 -8 -60v-286h-79v497zM248.005 610l-98 91v49h49l84 -79l79 79h49v-49l-92 -91h-71z" />
    <glyph glyph-name="napostrophe" unicode="&#x149;" horiz-adv-x="573" 
d="M79 750h82v-71l-33 -95h-49v166zM78 497h70.0049l6 -84c5.33301 12 12.666 23.5 21.999 34.5s20.666 21 33.999 30s28.666 16.167 45.999 21.5s36.666 8 57.999 8c34 0 62.833 -5.33301 86.5 -16s43 -25.5 58 -44.5s25.833 -41.5 32.5 -67.5s10 -54.333 10 -85v-294h-79
v285c0 48 -9.33301 85.833 -28 113.5s-51 41.5 -97 41.5c-24 0 -44.833 -4 -62.5 -12s-32.334 -19 -44.001 -33s-20.167 -30.333 -25.5 -49s-8 -38.667 -8 -60v-286h-79v497z" />
    <glyph glyph-name="Eng" unicode="&#x14a;" horiz-adv-x="761" 
d="M662 750v-851.002c0 -51.333 -10.5 -90.666 -31.5 -117.999s-55.5 -41 -103.5 -41c-18.667 0 -35.5 2.5 -50.5 7.5s-28 11 -39 18s-19.833 14.5 -26.5 22.5s-11.334 15.333 -14.001 22v55h62c0.666992 -3.33301 2.16699 -7.83301 4.5 -13.5s6 -11.167 11 -16.5
s11.833 -10.166 20.5 -14.499s19.334 -6.5 32.001 -6.5c20.667 0 35.167 6.5 43.5 19.5s12.5 34.5 12.5 64.5v102l-405 605v-605h-79v750h79l405 -610v610h79z" />
    <glyph glyph-name="eng" unicode="&#x14b;" horiz-adv-x="573" 
d="M314 507c34 0 62.8379 -5.33203 86.5049 -15.999s43 -25.5 58 -44.5s25.833 -41.5 32.5 -67.5s10 -54.333 10 -85v-365c0 -60.667 -14 -107.334 -42 -140.001s-73 -49 -135 -49v71c37.333 0 63 9.66699 77 29s21 49 21 89v356c0 48 -9.33301 85.833 -28 113.5
s-51 41.5 -97 41.5c-24 0 -44.833 -4 -62.5 -12s-32.334 -19 -44.001 -33s-20.167 -30.333 -25.5 -49s-8 -38.667 -8 -60v-286h-79v497h70l6 -84c5.33301 12 12.666 23.5 21.999 34.5s20.666 21 33.999 30s28.666 16.167 45.999 21.5s36.666 8 57.999 8z" />
    <glyph glyph-name="Omacron" unicode="&#x14c;" horiz-adv-x="834" 
d="M417 -10c-56 0 -106.5 9.83301 -151.5 29.5s-83.5 46.667 -115.5 81s-56.667 75.166 -74 122.499s-26 99 -26 155c0 55.333 8.66699 106.333 26 153s42 87 74 121s70.5 60.5 115.5 79.5s95.5 28.5 151.5 28.5s106.5 -9.5 151.5 -28.5s83.5 -45.5 115.5 -79.5
s56.667 -74.333 74 -121s26 -97.667 26 -153c0 -56 -8.66699 -107.667 -26 -155s-42 -88.166 -74 -122.499s-70.5 -61.333 -115.5 -81s-95.5 -29.5 -151.5 -29.5zM417 61c43.333 0 82.333 8 117 24s64.167 38 88.5 66s43 61.333 56 100s19.5 81 19.5 127
c0 44.667 -6.5 86 -19.5 124s-31.667 70.833 -56 98.5s-53.833 49.334 -88.5 65.001s-73.667 23.5 -117 23.5s-82.333 -7.83301 -117 -23.5s-64.167 -37.334 -88.5 -65.001s-43 -60.5 -56 -98.5s-19.5 -79.333 -19.5 -124c0 -46 6.5 -88.333 19.5 -127s31.667 -72 56 -100
s53.833 -50 88.5 -66s73.667 -24 117 -24zM294 897h247v-73h-247v73z" />
    <glyph glyph-name="omacron" unicode="&#x14d;" horiz-adv-x="586" 
d="M293 -10c-38 0 -72.333 6.83301 -103 20.5s-56.834 32.167 -78.501 55.5s-38.167 50.666 -49.5 81.999s-17 65 -17 101s5.66699 69.667 17 101s27.833 58.666 49.5 81.999s47.834 41.666 78.501 54.999s65 20 103 20s72.333 -6.66699 103 -20
s56.834 -31.666 78.501 -54.999s38.167 -50.666 49.5 -81.999s17 -65 17 -101s-5.66699 -69.667 -17 -101s-27.833 -58.666 -49.5 -81.999s-47.834 -41.833 -78.501 -55.5s-65 -20.5 -103 -20.5zM293 58c28 0 52.667 5.16895 74 15.502s39 24.333 53 42s24.5 38 31.5 61
s10.5 47.167 10.5 72.5s-3.5 49.5 -10.5 72.5s-17.5 43.167 -31.5 60.5s-31.667 31.166 -53 41.499s-46 15.5 -74 15.5s-52.667 -5.16699 -74 -15.5s-39 -24.333 -53 -42s-24.5 -37.834 -31.5 -60.501s-10.5 -46.667 -10.5 -72s3.5 -49.5 10.5 -72.5s17.5 -43.333 31.5 -61
s31.667 -31.667 53 -42s46 -15.5 74 -15.5zM177 707.002h237v-71h-237v71z" />
    <glyph glyph-name="Obreve" unicode="&#x14e;" horiz-adv-x="834" 
d="M417 -10c-56 0 -106.5 9.83301 -151.5 29.5s-83.5 46.667 -115.5 81s-56.667 75.166 -74 122.499s-26 99 -26 155c0 55.333 8.66699 106.333 26 153s42 87 74 121s70.5 60.5 115.5 79.5s95.5 28.5 151.5 28.5s106.5 -9.5 151.5 -28.5s83.5 -45.5 115.5 -79.5
s56.667 -74.333 74 -121s26 -97.667 26 -153c0 -56 -8.66699 -107.667 -26 -155s-42 -88.166 -74 -122.499s-70.5 -61.333 -115.5 -81s-95.5 -29.5 -151.5 -29.5zM417 61c43.333 0 82.333 8 117 24s64.167 38 88.5 66s43 61.333 56 100s19.5 81 19.5 127
c0 44.667 -6.5 86 -19.5 124s-31.667 70.833 -56 98.5s-53.833 49.334 -88.5 65.001s-73.667 23.5 -117 23.5s-82.333 -7.83301 -117 -23.5s-64.167 -37.334 -88.5 -65.001s-43 -60.5 -56 -98.5s-19.5 -79.333 -19.5 -124c0 -46 6.5 -88.333 19.5 -127s31.667 -72 56 -100
s53.833 -50 88.5 -66s73.667 -24 117 -24zM419 802c-28.667 0 -51.5 3.50098 -68.5 10.501s-29.833 14.833 -38.5 23.5c-11.333 10 -19 21.333 -23 34v58h58c2 -11.333 5.66699 -21 11 -29c5.33301 -8.66699 12.666 -15.834 21.999 -21.501s22.333 -8.5 39 -8.5
c17.333 0 30.5 3 39.5 9s15.833 13 20.5 21s7.33398 17.667 8.00098 29h58v-58c-4 -12.667 -11.333 -24 -22 -34c-9.33301 -9.33301 -22 -17.333 -38 -24s-38 -10 -66 -10z" />
    <glyph glyph-name="obreve" unicode="&#x14f;" horiz-adv-x="586" 
d="M293 -10c-38 0 -72.333 6.83301 -103 20.5s-56.834 32.167 -78.501 55.5s-38.167 50.666 -49.5 81.999s-17 65 -17 101s5.66699 69.667 17 101s27.833 58.666 49.5 81.999s47.834 41.666 78.501 54.999s65 20 103 20s72.333 -6.66699 103 -20
s56.834 -31.666 78.501 -54.999s38.167 -50.666 49.5 -81.999s17 -65 17 -101s-5.66699 -69.667 -17 -101s-27.833 -58.666 -49.5 -81.999s-47.834 -41.833 -78.501 -55.5s-65 -20.5 -103 -20.5zM293 58c28 0 52.667 5.16895 74 15.502s39 24.333 53 42s24.5 38 31.5 61
s10.5 47.167 10.5 72.5s-3.5 49.5 -10.5 72.5s-17.5 43.167 -31.5 60.5s-31.667 31.166 -53 41.499s-46 15.5 -74 15.5s-52.667 -5.16699 -74 -15.5s-39 -24.333 -53 -42s-24.5 -37.834 -31.5 -60.501s-10.5 -46.667 -10.5 -72s3.5 -49.5 10.5 -72.5s17.5 -43.333 31.5 -61
s31.667 -31.667 53 -42s46 -15.5 74 -15.5zM288 591.002c-28.667 0 -51.502 3.66797 -68.502 11.001s-30.167 15.666 -39.5 24.999c-10.667 10.667 -18 22.667 -22 36v57h57c1.33301 -11.333 5 -21.666 11 -30.999c4.66699 -8.66699 11.834 -16 21.501 -22
s23.167 -9 40.5 -9s30.666 3.16699 39.999 9.5s16 13.5 20 21.5c4.66699 9.33301 7.33398 19.666 8.00098 30.999h58v-57c-4 -13.333 -11 -25.333 -21 -36c-9.33301 -10 -22.166 -18.5 -38.499 -25.5s-38.5 -10.5 -66.5 -10.5z" />
    <glyph glyph-name="Ohungarumlaut" unicode="&#x150;" horiz-adv-x="834" 
d="M417 -10c-56 0 -106.5 9.83301 -151.5 29.5s-83.5 46.667 -115.5 81s-56.667 75.166 -74 122.499s-26 99 -26 155c0 55.333 8.66699 106.333 26 153s42 87 74 121s70.5 60.5 115.5 79.5s95.5 28.5 151.5 28.5s106.5 -9.5 151.5 -28.5s83.5 -45.5 115.5 -79.5
s56.667 -74.333 74 -121s26 -97.667 26 -153c0 -56 -8.66699 -107.667 -26 -155s-42 -88.166 -74 -122.499s-70.5 -61.333 -115.5 -81s-95.5 -29.5 -151.5 -29.5zM417 61c43.333 0 82.333 8 117 24s64.167 38 88.5 66s43 61.333 56 100s19.5 81 19.5 127
c0 44.667 -6.5 86 -19.5 124s-31.667 70.833 -56 98.5s-53.833 49.334 -88.5 65.001s-73.667 23.5 -117 23.5s-82.333 -7.83301 -117 -23.5s-64.167 -37.334 -88.5 -65.001s-43 -60.5 -56 -98.5s-19.5 -79.333 -19.5 -124c0 -46 6.5 -88.333 19.5 -127s31.667 -72 56 -100
s53.833 -50 88.5 -66s73.667 -24 117 -24zM300 851l102 91h55v-49l-101 -91h-56v49zM472 851l102 91h55v-49l-101 -91h-56v49z" />
    <glyph glyph-name="ohungarumlaut" unicode="&#x151;" horiz-adv-x="586" 
d="M185 659l97 91h56v-49l-97 -91h-56v49zM351 659l96 91h56v-49l-96 -91h-56v49zM293 -10c-38 0 -72.333 6.83301 -103 20.5s-56.834 32.167 -78.501 55.5s-38.167 50.666 -49.5 81.999s-17 65 -17 101s5.66699 69.667 17 101s27.833 58.666 49.5 81.999
s47.834 41.666 78.501 54.999s65 20 103 20s72.333 -6.66699 103 -20s56.834 -31.666 78.501 -54.999s38.167 -50.666 49.5 -81.999s17 -65 17 -101s-5.66699 -69.667 -17 -101s-27.833 -58.666 -49.5 -81.999s-47.834 -41.833 -78.501 -55.5s-65 -20.5 -103 -20.5zM293 58
c28 0 52.667 5.16895 74 15.502s39 24.333 53 42s24.5 38 31.5 61s10.5 47.167 10.5 72.5s-3.5 49.5 -10.5 72.5s-17.5 43.167 -31.5 60.5s-31.667 31.166 -53 41.499s-46 15.5 -74 15.5s-52.667 -5.16699 -74 -15.5s-39 -24.333 -53 -42s-24.5 -37.834 -31.5 -60.501
s-10.5 -46.667 -10.5 -72s3.5 -49.5 10.5 -72.5s17.5 -43.333 31.5 -61s31.667 -31.667 53 -42s46 -15.5 74 -15.5z" />
    <glyph glyph-name="OE" unicode="&#x152;" horiz-adv-x="1000" 
d="M526 0c-16.667 -3.33301 -34.332 -5.83203 -52.999 -7.49902s-37.334 -2.5 -56.001 -2.5c-56 0 -106.5 9.83301 -151.5 29.5s-83.5 46.667 -115.5 81s-56.667 75.166 -74 122.499s-26 99 -26 155c0 55.333 8.66699 106.333 26 153s42 87 74 121s70.5 60.5 115.5 79.5
s95.5 28.5 151.5 28.5c18 0 36.5 -0.666992 55.5 -2s36.833 -4 53.5 -8h421v-71h-335v-257h302v-71h-302v-280h335v-71h-421zM136.002 378.001c0 -46 6.5 -88.332 19.5 -126.999s31.667 -72 56 -100s53.833 -50 88.5 -66s73.667 -24 117 -24
c18.667 0 37.334 1.16699 56.001 3.5s36 6.5 52 12.5v599c-16 5.33301 -33.333 8.83301 -52 10.5s-37.334 2.5 -56.001 2.5c-43.333 0 -82.333 -7.83301 -117 -23.5s-64.167 -37.334 -88.5 -65.001s-43 -60.5 -56 -98.5s-19.5 -79.333 -19.5 -124z" />
    <glyph glyph-name="oe" unicode="&#x153;" horiz-adv-x="975" 
d="M713 -10c-51.333 0 -95.001 10.002 -131.001 30.002s-63.667 48 -83 84c-20 -34.667 -47.5 -62.334 -82.5 -83.001s-76.167 -31 -123.5 -31c-38 0 -72.333 6.83301 -103 20.5s-56.834 32.167 -78.501 55.5s-38.167 50.666 -49.5 81.999s-17 65 -17 101
s5.66699 69.667 17 101s27.833 58.666 49.5 81.999s47.834 41.666 78.501 54.999s65 20 103 20c48 0 89.5 -10.333 124.5 -31s62.5 -48.334 82.5 -83.001c19.333 34 45.833 61.5 79.5 82.5s75.167 31.5 124.5 31.5c38 0 71.167 -5.66699 99.5 -17
s51.833 -26.666 70.5 -45.999s32.5 -42.333 41.5 -69s13.5 -55.667 13.5 -87c0 -8 -0.166992 -15 -0.5 -21s-0.5 -11.333 -0.5 -16c-0.666992 -4.66699 -1.33398 -9 -2.00098 -13h-385c2.66699 -57.333 18.834 -101.666 48.501 -132.999s70.834 -47 123.501 -47
c27.333 0 50.333 3.16699 69 9.5s34 13.833 46 22.5s21 17.5 27 26.5s9.66699 15.833 11 20.5h53v-52c-1.33301 -2.66699 -5.83301 -9.16699 -13.5 -19.5s-19.5 -21.166 -35.5 -32.499s-36.833 -21.333 -62.5 -30s-57.167 -13 -94.5 -13zM292.999 58.002
c28 0 52.667 5.16895 74 15.502s39 24.333 53 42s24.5 38 31.5 61s10.5 47.167 10.5 72.5s-3.5 49.5 -10.5 72.5s-17.5 43.167 -31.5 60.5s-31.667 31.166 -53 41.499s-46 15.5 -74 15.5s-52.667 -5.16699 -74 -15.5s-39 -24.333 -53 -42s-24.5 -37.834 -31.5 -60.501
s-10.5 -46.667 -10.5 -72s3.5 -49.5 10.5 -72.5s17.5 -43.333 31.5 -61s31.667 -31.667 53 -42s46 -15.5 74 -15.5zM851.999 298.004c0 43.333 -12.5 77.668 -37.5 103.001s-61.5 38 -109.5 38s-85 -12.833 -111 -38.5s-42.333 -59.834 -49 -102.501h307z" />
    <glyph glyph-name="Racute" unicode="&#x154;" horiz-adv-x="635" 
d="M99 0v750.001h199c79.333 0 141.333 -18.833 186 -56.5s67 -88.834 67 -153.501c0 -51.333 -14 -95.333 -42 -132s-69 -61.667 -123 -75l215 -274v-59h-60l-243 315h-112v-315h-87zM303 388.001c27.333 0 51 3.83203 71 11.499s36.667 18.334 50 32.001
s23.333 29.5 30 47.5s10 37.333 10 58c0 16 -3 32.333 -9 49s-15.5 31.5 -28.5 44.5s-29.667 23.667 -50 32s-44.833 12.5 -73.5 12.5h-117v-287h117zM253 854l102 91h69v-49l-101 -91h-70v49z" />
    <glyph glyph-name="racute" unicode="&#x155;" horiz-adv-x="435" 
d="M78 497h69.999l6 -72c12.667 24.667 30.5 44.5 53.5 59.5s51.833 22.5 86.5 22.5c36.667 0 66 -8.5 88 -25.5s35.667 -39.167 41 -66.5v-52h-52c-1.33301 6.66699 -3.83301 14.5 -7.5 23.5s-9.33398 17.5 -17.001 25.5s-17.5 14.667 -29.5 20s-27 8 -45 8
c-20.667 0 -38.167 -4 -52.5 -12s-26.166 -18.667 -35.499 -32s-16.166 -29 -20.499 -47s-6.5 -36.667 -6.5 -56v-293h-79v497zM198.999 659l95 91h70v-49l-95 -91h-70v49z" />
    <glyph glyph-name="Rcommaaccent" unicode="&#x156;" horiz-adv-x="635" 
d="M99 0v750.001h199c79.333 0 141.333 -18.833 186 -56.5s67 -88.834 67 -153.501c0 -51.333 -14 -95.333 -42 -132s-69 -61.667 -123 -75l215 -274v-59h-60l-243 315h-112v-315h-87zM303 388.001c27.333 0 51 3.83203 71 11.499s36.667 18.334 50 32.001
s23.333 29.5 30 47.5s10 37.333 10 58c0 16 -3 32.333 -9 49s-15.5 31.5 -28.5 44.5s-29.667 23.667 -50 32s-44.833 12.5 -73.5 12.5h-117v-287h117zM313 -52h78v-66l-33 -81h-45v147z" />
    <glyph glyph-name="rcommaaccent" unicode="&#x157;" horiz-adv-x="435" 
d="M78 497h69.999l6 -72c12.667 24.667 30.5 44.5 53.5 59.5s51.833 22.5 86.5 22.5c36.667 0 66 -8.5 88 -25.5s35.667 -39.167 41 -66.5v-52h-52c-1.33301 6.66699 -3.83301 14.5 -7.5 23.5s-9.33398 17.5 -17.001 25.5s-17.5 14.667 -29.5 20s-27 8 -45 8
c-20.667 0 -38.167 -4 -52.5 -12s-26.166 -18.667 -35.499 -32s-16.166 -29 -20.499 -47s-6.5 -36.667 -6.5 -56v-293h-79v497zM80.999 -52h78v-66l-33 -81h-45v147z" />
    <glyph glyph-name="Rcaron" unicode="&#x158;" horiz-adv-x="635" 
d="M99 0v750.001h199c79.333 0 141.333 -18.833 186 -56.5s67 -88.834 67 -153.501c0 -51.333 -14 -95.333 -42 -132s-69 -61.667 -123 -75l215 -274v-59h-60l-243 315h-112v-315h-87zM303 388.001c27.333 0 51 3.83203 71 11.499s36.667 18.334 50 32.001
s23.333 29.5 30 47.5s10 37.333 10 58c0 16 -3 32.333 -9 49s-15.5 31.5 -28.5 44.5s-29.667 23.667 -50 32s-44.833 12.5 -73.5 12.5h-117v-287h117zM266 804l-98 85v49h49l84 -73l80 73h49v-49l-93 -85h-71z" />
    <glyph glyph-name="rcaron" unicode="&#x159;" horiz-adv-x="435" 
d="M78 497h69.999l6 -72c12.667 24.667 30.5 44.5 53.5 59.5s51.833 22.5 86.5 22.5c36.667 0 66 -8.5 88 -25.5s35.667 -39.167 41 -66.5v-52h-52c-1.33301 6.66699 -3.83301 14.5 -7.5 23.5s-9.33398 17.5 -17.001 25.5s-17.5 14.667 -29.5 20s-27 8 -45 8
c-20.667 0 -38.167 -4 -52.5 -12s-26.166 -18.667 -35.499 -32s-16.166 -29 -20.499 -47s-6.5 -36.667 -6.5 -56v-293h-79v497zM197.999 610l-98 91v49h49l84 -79l79 79h49v-49l-92 -91h-71z" />
    <glyph glyph-name="Sacute" unicode="&#x15a;" horiz-adv-x="590" 
d="M299 -10c-34 0 -64.5029 3.83789 -91.5029 11.5049s-50.667 17.834 -71 30.501s-37.5 27.167 -51.5 43.5s-24.667 33.166 -32 50.499v56h63c13.333 -36 35 -65.167 65 -87.5s70 -33.5 120 -33.5c22 0 42.5 3 61.5 9s35.5 14.833 49.5 26.5s25 25.834 33 42.501
s12 35.667 12 57c0 33.333 -10.667 61.166 -32 83.499s-60.666 41.5 -117.999 57.5l-45 13c-70 19.333 -120.5 46.166 -151.5 80.499s-46.5 77.833 -46.5 130.5c0 29.333 5.5 56.166 16.5 80.499s26.667 45.166 47 62.499s45.166 31 74.499 41s62.333 15 99 15
c62.667 0 111.334 -12.167 146.001 -36.5s57.334 -55.5 68.001 -93.5v-56h-62c-3.33301 14 -8.5 28 -15.5 42s-16.667 26.333 -29 37s-27.666 19.334 -45.999 26.001s-40.5 10 -66.5 10c-24.667 0 -46.334 -3.33301 -65.001 -10s-34.167 -15.5 -46.5 -26.5
s-21.666 -24 -27.999 -39s-9.5 -30.5 -9.5 -46.5c0 -38 12.667 -66.833 38 -86.5s60 -36.167 104 -49.5l58 -18c63.333 -18.667 111.5 -44.834 144.5 -78.501s49.5 -79.834 49.5 -138.501c0 -32 -6 -60.667 -18 -86s-28.667 -46.833 -50 -64.5
s-46.833 -31.334 -76.5 -41.001s-62.167 -14.5 -97.5 -14.5zM256.997 854.005l102 91h69v-49l-101 -91h-70v49z" />
    <glyph glyph-name="sacute" unicode="&#x15b;" horiz-adv-x="470" 
d="M245 -10c-34.667 0 -63.999 3.99805 -87.999 11.998s-43.833 17.333 -59.5 28s-27.5 21.334 -35.5 32.001s-13 19 -15 25v53h53c2 -6 6 -13.5 12 -22.5s14.833 -18 26.5 -27s26.167 -16.667 43.5 -23s38 -9.5 62 -9.5c38 0 65.5 6.66699 82.5 20s25.5 30.666 25.5 51.999
c0 13.333 -2.83301 24.333 -8.5 33s-13.5 16 -23.5 22s-21.833 11 -35.5 15s-28.5 7.66699 -44.5 11l-57 13c-16.667 4 -32.5 9.16699 -47.5 15.5s-28.167 15 -39.5 26s-20.5 24.333 -27.5 40s-10.5 34.5 -10.5 56.5c0 19.333 3.83301 37.833 11.5 55.5s19 33.167 34 46.5
s33.333 23.833 55 31.5s46.5 11.5 74.5 11.5c51.333 0 90.833 -9 118.5 -27s46.167 -38.667 55.5 -62v-53h-53c-1.33301 6 -4.33301 13.167 -9 21.5s-11.834 16.333 -21.501 24s-21.667 14.334 -36 20.001s-32.166 8.5 -53.499 8.5c-34.667 0 -60.167 -7 -76.5 -21
s-24.5 -31.667 -24.5 -53c0 -22 8.5 -38.667 25.5 -50s39.5 -20.333 67.5 -27l53 -12c18 -4 35.833 -9.16699 53.5 -15.5s33.5 -14.833 47.5 -25.5s25.167 -23.667 33.5 -39s12.5 -34.333 12.5 -57c0 -20.667 -3.66699 -40.167 -11 -58.5s-18.5 -34.166 -33.5 -47.499
s-33.833 -23.833 -56.5 -31.5s-49.334 -11.5 -80.001 -11.5zM194.001 658.998l95 91h70v-49l-95 -91h-70v49z" />
    <glyph glyph-name="Scircumflex" unicode="&#x15c;" horiz-adv-x="590" 
d="M299 -10c-34 0 -64.5029 3.83789 -91.5029 11.5049s-50.667 17.834 -71 30.501s-37.5 27.167 -51.5 43.5s-24.667 33.166 -32 50.499v56h63c13.333 -36 35 -65.167 65 -87.5s70 -33.5 120 -33.5c22 0 42.5 3 61.5 9s35.5 14.833 49.5 26.5s25 25.834 33 42.501
s12 35.667 12 57c0 33.333 -10.667 61.166 -32 83.499s-60.666 41.5 -117.999 57.5l-45 13c-70 19.333 -120.5 46.166 -151.5 80.499s-46.5 77.833 -46.5 130.5c0 29.333 5.5 56.166 16.5 80.499s26.667 45.166 47 62.499s45.166 31 74.499 41s62.333 15 99 15
c62.667 0 111.334 -12.167 146.001 -36.5s57.334 -55.5 68.001 -93.5v-56h-62c-3.33301 14 -8.5 28 -15.5 42s-16.667 26.333 -29 37s-27.666 19.334 -45.999 26.001s-40.5 10 -66.5 10c-24.667 0 -46.334 -3.33301 -65.001 -10s-34.167 -15.5 -46.5 -26.5
s-21.666 -24 -27.999 -39s-9.5 -30.5 -9.5 -46.5c0 -38 12.667 -66.833 38 -86.5s60 -36.167 104 -49.5l58 -18c63.333 -18.667 111.5 -44.834 144.5 -78.501s49.5 -79.834 49.5 -138.501c0 -32 -6 -60.667 -18 -86s-28.667 -46.833 -50 -64.5
s-46.833 -31.334 -76.5 -41.001s-62.167 -14.5 -97.5 -14.5zM296.997 877.005l-82 -73h-49v49l95 85h71l95 -85v-49h-49z" />
    <glyph glyph-name="scircumflex" unicode="&#x15d;" horiz-adv-x="470" 
d="M245 -10c-34.667 0 -63.999 3.99805 -87.999 11.998s-43.833 17.333 -59.5 28s-27.5 21.334 -35.5 32.001s-13 19 -15 25v53h53c2 -6 6 -13.5 12 -22.5s14.833 -18 26.5 -27s26.167 -16.667 43.5 -23s38 -9.5 62 -9.5c38 0 65.5 6.66699 82.5 20s25.5 30.666 25.5 51.999
c0 13.333 -2.83301 24.333 -8.5 33s-13.5 16 -23.5 22s-21.833 11 -35.5 15s-28.5 7.66699 -44.5 11l-57 13c-16.667 4 -32.5 9.16699 -47.5 15.5s-28.167 15 -39.5 26s-20.5 24.333 -27.5 40s-10.5 34.5 -10.5 56.5c0 19.333 3.83301 37.833 11.5 55.5s19 33.167 34 46.5
s33.333 23.833 55 31.5s46.5 11.5 74.5 11.5c51.333 0 90.833 -9 118.5 -27s46.167 -38.667 55.5 -62v-53h-53c-1.33301 6 -4.33301 13.167 -9 21.5s-11.834 16.333 -21.501 24s-21.667 14.334 -36 20.001s-32.166 8.5 -53.499 8.5c-34.667 0 -60.167 -7 -76.5 -21
s-24.5 -31.667 -24.5 -53c0 -22 8.5 -38.667 25.5 -50s39.5 -20.333 67.5 -27l53 -12c18 -4 35.833 -9.16699 53.5 -15.5s33.5 -14.833 47.5 -25.5s25.167 -23.667 33.5 -39s12.5 -34.333 12.5 -57c0 -20.667 -3.66699 -40.167 -11 -58.5s-18.5 -34.166 -33.5 -47.499
s-33.833 -23.833 -56.5 -31.5s-49.334 -11.5 -80.001 -11.5zM245.001 688.998l-82 -79h-49v49l95 91h71l95 -91v-49h-49z" />
    <glyph glyph-name="Scedilla" unicode="&#x15e;" horiz-adv-x="590" 
d="M392 -117c0 -16.667 -3.33594 -30.4932 -10.0029 -41.4932s-14.5 -19.833 -23.5 -26.5s-17.833 -11.5 -26.5 -14.5s-15 -4.83301 -19 -5.5h-56v58c17.333 0 32.333 2.5 45 7.5s19 15.167 19 30.5s-6.16699 25.666 -18.5 30.999s-26.166 8 -41.499 8v62
c-28 2.66699 -53.333 8.16699 -76 16.5s-42.667 18.666 -60 30.999s-32 25.833 -44 40.5s-21.333 30 -28 46v56h63c13.333 -36 35 -65.167 65 -87.5s70 -33.5 120 -33.5c22 0 42.5 3 61.5 9s35.5 14.833 49.5 26.5s25 25.834 33 42.501s12 35.667 12 57
c0 33.333 -10.667 61.166 -32 83.499s-60.666 41.5 -117.999 57.5l-45 13c-70 19.333 -120.5 46.166 -151.5 80.499s-46.5 77.833 -46.5 130.5c0 29.333 5.5 56.166 16.5 80.499s26.667 45.166 47 62.499s45.166 31 74.499 41s62.333 15 99 15
c62.667 0 111.334 -12.167 146.001 -36.5s57.334 -55.5 68.001 -93.5v-56h-62c-3.33301 14 -8.5 28 -15.5 42s-16.667 26.333 -29 37s-27.666 19.334 -45.999 26.001s-40.5 10 -66.5 10c-24.667 0 -46.334 -3.33301 -65.001 -10s-34.167 -15.5 -46.5 -26.5
s-21.666 -24 -27.999 -39s-9.5 -30.5 -9.5 -46.5c0 -38 12.667 -66.833 38 -86.5s60 -36.167 104 -49.5l58 -18c63.333 -18.667 111.5 -44.834 144.5 -78.501s49.5 -79.834 49.5 -138.501c0 -30 -5.16699 -57 -15.5 -81s-25 -44.833 -44 -62.5s-41.667 -31.834 -68 -42.501
s-55.5 -17 -87.5 -19v-31c23.333 -4 40.166 -13 50.499 -27s15.5 -30.667 15.5 -50z" />
    <glyph glyph-name="scedilla" unicode="&#x15f;" horiz-adv-x="470" 
d="M331 -116c0 -16.667 -3.33301 -30.499 -10 -41.499s-14.5 -19.833 -23.5 -26.5s-17.833 -11.5 -26.5 -14.5s-15 -4.83301 -19 -5.5h-56v58c17.333 0 32.333 2.5 45 7.5s19 15.167 19 30.5s-6.16699 25.666 -18.5 30.999s-26.166 8 -41.499 8v62
c-26 3.33301 -48.333 9.16602 -67 17.499s-34 17.333 -46 27s-21.167 19.167 -27.5 28.5s-10.5 16.333 -12.5 21v53h53c2 -6 6 -13.5 12 -22.5s14.833 -18 26.5 -27s26.167 -16.667 43.5 -23s38 -9.5 62 -9.5c38 0 65.5 6.66699 82.5 20s25.5 30.666 25.5 51.999
c0 13.333 -2.83301 24.333 -8.5 33s-13.5 16 -23.5 22s-21.833 11 -35.5 15s-28.5 7.66699 -44.5 11l-57 13c-16.667 4 -32.5 9.16699 -47.5 15.5s-28.167 15 -39.5 26s-20.5 24.333 -27.5 40s-10.5 34.5 -10.5 56.5c0 19.333 3.83301 37.833 11.5 55.5s19 33.167 34 46.5
s33.333 23.833 55 31.5s46.5 11.5 74.5 11.5c51.333 0 90.833 -9 118.5 -27s46.167 -38.667 55.5 -62v-53h-53c-1.33301 6 -4.33301 13.167 -9 21.5s-11.834 16.333 -21.501 24s-21.667 14.334 -36 20.001s-32.166 8.5 -53.499 8.5c-34.667 0 -60.167 -7 -76.5 -21
s-24.5 -31.667 -24.5 -53c0 -22 8.5 -38.667 25.5 -50s39.5 -20.333 67.5 -27l53 -12c18 -4 35.833 -9.16699 53.5 -15.5s33.5 -14.833 47.5 -25.5s25.167 -23.667 33.5 -39s12.5 -34.333 12.5 -57c0 -39.333 -13.333 -73.166 -40 -101.499s-67 -43.833 -121 -46.5v-30
c23.333 -4 40.166 -13 50.499 -27s15.5 -30.667 15.5 -50z" />
    <glyph glyph-name="Scaron" unicode="&#x160;" horiz-adv-x="590" 
d="M299 -10c-34 0 -64.5029 3.83789 -91.5029 11.5049s-50.667 17.834 -71 30.501s-37.5 27.167 -51.5 43.5s-24.667 33.166 -32 50.499v56h63c13.333 -36 35 -65.167 65 -87.5s70 -33.5 120 -33.5c22 0 42.5 3 61.5 9s35.5 14.833 49.5 26.5s25 25.834 33 42.501
s12 35.667 12 57c0 33.333 -10.667 61.166 -32 83.499s-60.666 41.5 -117.999 57.5l-45 13c-70 19.333 -120.5 46.166 -151.5 80.499s-46.5 77.833 -46.5 130.5c0 29.333 5.5 56.166 16.5 80.499s26.667 45.166 47 62.499s45.166 31 74.499 41s62.333 15 99 15
c62.667 0 111.334 -12.167 146.001 -36.5s57.334 -55.5 68.001 -93.5v-56h-62c-3.33301 14 -8.5 28 -15.5 42s-16.667 26.333 -29 37s-27.666 19.334 -45.999 26.001s-40.5 10 -66.5 10c-24.667 0 -46.334 -3.33301 -65.001 -10s-34.167 -15.5 -46.5 -26.5
s-21.666 -24 -27.999 -39s-9.5 -30.5 -9.5 -46.5c0 -38 12.667 -66.833 38 -86.5s60 -36.167 104 -49.5l58 -18c63.333 -18.667 111.5 -44.834 144.5 -78.501s49.5 -79.834 49.5 -138.501c0 -32 -6 -60.667 -18 -86s-28.667 -46.833 -50 -64.5
s-46.833 -31.334 -76.5 -41.001s-62.167 -14.5 -97.5 -14.5zM261.997 804.005l-98 85v49h49l84 -73l80 73h49v-49l-93 -85h-71z" />
    <glyph glyph-name="scaron" unicode="&#x161;" horiz-adv-x="470" 
d="M245 -10c-34.667 0 -63.999 3.99805 -87.999 11.998s-43.833 17.333 -59.5 28s-27.5 21.334 -35.5 32.001s-13 19 -15 25v53h53c2 -6 6 -13.5 12 -22.5s14.833 -18 26.5 -27s26.167 -16.667 43.5 -23s38 -9.5 62 -9.5c38 0 65.5 6.66699 82.5 20s25.5 30.666 25.5 51.999
c0 13.333 -2.83301 24.333 -8.5 33s-13.5 16 -23.5 22s-21.833 11 -35.5 15s-28.5 7.66699 -44.5 11l-57 13c-16.667 4 -32.5 9.16699 -47.5 15.5s-28.167 15 -39.5 26s-20.5 24.333 -27.5 40s-10.5 34.5 -10.5 56.5c0 19.333 3.83301 37.833 11.5 55.5s19 33.167 34 46.5
s33.333 23.833 55 31.5s46.5 11.5 74.5 11.5c51.333 0 90.833 -9 118.5 -27s46.167 -38.667 55.5 -62v-53h-53c-1.33301 6 -4.33301 13.167 -9 21.5s-11.834 16.333 -21.501 24s-21.667 14.334 -36 20.001s-32.166 8.5 -53.499 8.5c-34.667 0 -60.167 -7 -76.5 -21
s-24.5 -31.667 -24.5 -53c0 -22 8.5 -38.667 25.5 -50s39.5 -20.333 67.5 -27l53 -12c18 -4 35.833 -9.16699 53.5 -15.5s33.5 -14.833 47.5 -25.5s25.167 -23.667 33.5 -39s12.5 -34.333 12.5 -57c0 -20.667 -3.66699 -40.167 -11 -58.5s-18.5 -34.166 -33.5 -47.499
s-33.833 -23.833 -56.5 -31.5s-49.334 -11.5 -80.001 -11.5zM204.001 609.998l-98 91v49h49l84 -79l79 79h49v-49l-92 -91h-71z" />
    <glyph glyph-name="Tcommaaccent" unicode="&#x162;" horiz-adv-x="623" 
d="M269 679h-251v71h587v-71h-250v-679h-86v679zM273 -52h78v-66l-33 -81h-45v147z" />
    <glyph glyph-name="tcommaaccent" unicode="&#x163;" horiz-adv-x="413" 
d="M228 -52h78v-66l-33 -81h-45v147zM270 -10c-54 0 -95.667 14.332 -125 42.999s-44 71.334 -44 128.001v268h-81v68h85l5 128h70v-128h196v-68h-196v-258c0 -35.333 6.83301 -63 20.5 -83s37.167 -30 70.5 -30c16.667 0 30 2.66699 40 8s17.833 11.5 23.5 18.5
s9.5 14 11.5 21s3.33301 12.5 4 16.5h52v-52c-3.33301 -8.66699 -8.33301 -17.667 -15 -27s-15.167 -18 -25.5 -26s-23 -14.5 -38 -19.5s-32.833 -7.5 -53.5 -7.5z" />
    <glyph glyph-name="Tcaron" unicode="&#x164;" horiz-adv-x="623" 
d="M269 679h-251v71h587v-71h-250v-679h-86v679zM278 804l-98 85v49h49l84 -73l80 73h49v-49l-93 -85h-71z" />
    <glyph glyph-name="tcaron" unicode="&#x165;" horiz-adv-x="413" 
d="M268 750h82v-71l-33 -95h-49v166zM270 -10c-54 0 -95.667 14.332 -125 42.999s-44 71.334 -44 128.001v268h-81v68h85l5 128h70v-128h196v-68h-196v-258c0 -35.333 6.83301 -63 20.5 -83s37.167 -30 70.5 -30c16.667 0 30 2.66699 40 8s17.833 11.5 23.5 18.5
s9.5 14 11.5 21s3.33301 12.5 4 16.5h52v-52c-3.33301 -8.66699 -8.33301 -17.667 -15 -27s-15.167 -18 -25.5 -26s-23 -14.5 -38 -19.5s-32.833 -7.5 -53.5 -7.5z" />
    <glyph glyph-name="Tbar" unicode="&#x166;" horiz-adv-x="657" 
d="M372 348v-348h-86v348h-191v71h191v260h-251v71h587v-71h-250v-260h190v-71h-190z" />
    <glyph glyph-name="tbar" unicode="&#x167;" horiz-adv-x="420" 
d="M408 70c-3.33301 -8.66699 -8.33301 -17.668 -15 -27.001s-15.167 -18 -25.5 -26s-23 -14.5 -38 -19.5s-32.833 -7.5 -53.5 -7.5c-54 0 -95.667 14.333 -125 43s-44 71.334 -44 128.001v85h-81v68h81v115h-81v68h85l5 128h70v-128h196v-68h-196v-115h196v-68h-196v-75
c0 -35.333 6.83301 -63 20.5 -83s37.167 -30 70.5 -30c16.667 0 30 2.66699 40 8s17.833 11.5 23.5 18.5s9.5 14 11.5 21s3.33301 12.5 4 16.5h52v-52z" />
    <glyph glyph-name="Utilde" unicode="&#x168;" horiz-adv-x="742" 
d="M371 -10c-42.667 0 -81.334 7.16699 -116.001 21.5s-64.167 34 -88.5 59s-43 54.5 -56 88.5s-19.5 71 -19.5 111v480h86v-481c0 -30 4.33301 -57.667 13 -83s21.334 -47.333 38.001 -66s37 -33.167 61 -43.5s51.333 -15.5 82 -15.5c32 0 60.5 5.16699 85.5 15.5
s46 24.833 63 43.5s30 40.667 39 66s13.5 53 13.5 83v481h79v-480c0 -40 -6.5 -77 -19.5 -111s-31.5 -63.5 -55.5 -88.5s-53.333 -44.667 -88 -59s-73.667 -21.5 -117 -21.5zM442 807c-14 0 -26.001 2.16895 -36.001 6.50195s-19 9 -27 14s-15.833 9.66699 -23.5 14
s-16.5 6.5 -26.5 6.5c-8.66699 0 -16.667 -2.83301 -24 -8.5s-11.666 -14.834 -12.999 -27.501h-58c0 32 7.83301 56.833 23.5 74.5s37.5 26.5 65.5 26.5c14.667 0 26.667 -2.16699 36 -6.5s17.666 -9 24.999 -14l21 -14c6.66699 -4.33301 14.667 -6.5 24 -6.5
c8.66699 0 16.334 2.16699 23.001 6.5s10.667 14.166 12 29.499h57c0 -67.333 -26.333 -101 -79 -101z" />
    <glyph glyph-name="utilde" unicode="&#x169;" horiz-adv-x="573" 
d="M262 -10c-32.667 0 -60.8301 4.99805 -84.4971 14.998s-43.334 24.333 -59.001 43s-27.334 40.834 -35.001 66.501s-11.5 54.167 -11.5 85.5v297h79v-288c0 -49.333 10.5 -87 31.5 -113s52.833 -39 95.5 -39c45.333 0 79.833 14.167 103.5 42.5s35.5 64.5 35.5 108.5v289
h78v-497h-69l-6 80c-13.333 -23.333 -32.833 -44.166 -58.5 -62.499s-58.834 -27.5 -99.501 -27.5zM355.004 617.998c-14 0 -26.002 2.16602 -36.002 6.49902s-19 9 -27 14s-15.833 9.66699 -23.5 14s-16.5 6.5 -26.5 6.5c-8.66699 0 -16.667 -2.66699 -24 -8
s-12 -14.666 -14 -27.999h-57c0 32 7.66699 57 23 75s37 27 65 27c14.667 0 26.834 -2.16699 36.501 -6.5s18.167 -9 25.5 -14l21 -14c6.66699 -4.33301 14.667 -6.5 24 -6.5c8.66699 0 16.334 2.16699 23.001 6.5s10.667 14.166 12 29.499h57
c0 -33.333 -6.33301 -58.666 -19 -75.999s-32.667 -26 -60 -26z" />
    <glyph glyph-name="Umacron" unicode="&#x16a;" horiz-adv-x="742" 
d="M371 -10c-42.667 0 -81.334 7.16699 -116.001 21.5s-64.167 34 -88.5 59s-43 54.5 -56 88.5s-19.5 71 -19.5 111v480h86v-481c0 -30 4.33301 -57.667 13 -83s21.334 -47.333 38.001 -66s37 -33.167 61 -43.5s51.333 -15.5 82 -15.5c32 0 60.5 5.16699 85.5 15.5
s46 24.833 63 43.5s30 40.667 39 66s13.5 53 13.5 83v481h79v-480c0 -40 -6.5 -77 -19.5 -111s-31.5 -63.5 -55.5 -88.5s-53.333 -44.667 -88 -59s-73.667 -21.5 -117 -21.5zM248 897h247v-73h-247v73z" />
    <glyph glyph-name="umacron" unicode="&#x16b;" horiz-adv-x="573" 
d="M262 -10c-32.667 0 -60.8301 4.99805 -84.4971 14.998s-43.334 24.333 -59.001 43s-27.334 40.834 -35.001 66.501s-11.5 54.167 -11.5 85.5v297h79v-288c0 -49.333 10.5 -87 31.5 -113s52.833 -39 95.5 -39c45.333 0 79.833 14.167 103.5 42.5s35.5 64.5 35.5 108.5v289
h78v-497h-69l-6 80c-13.333 -23.333 -32.833 -44.166 -58.5 -62.499s-58.834 -27.5 -99.501 -27.5zM164.004 706.998h237v-71h-237v71z" />
    <glyph glyph-name="Ubreve" unicode="&#x16c;" horiz-adv-x="742" 
d="M371 -10c-42.667 0 -81.334 7.16699 -116.001 21.5s-64.167 34 -88.5 59s-43 54.5 -56 88.5s-19.5 71 -19.5 111v480h86v-481c0 -30 4.33301 -57.667 13 -83s21.334 -47.333 38.001 -66s37 -33.167 61 -43.5s51.333 -15.5 82 -15.5c32 0 60.5 5.16699 85.5 15.5
s46 24.833 63 43.5s30 40.667 39 66s13.5 53 13.5 83v481h79v-480c0 -40 -6.5 -77 -19.5 -111s-31.5 -63.5 -55.5 -88.5s-53.333 -44.667 -88 -59s-73.667 -21.5 -117 -21.5zM374 802c-28.667 0 -51.5 3.50098 -68.5 10.501s-29.833 14.833 -38.5 23.5
c-11.333 10 -19 21.333 -23 34v58h58c2 -11.333 5.66699 -21 11 -29c5.33301 -8.66699 12.666 -15.834 21.999 -21.501s22.333 -8.5 39 -8.5c17.333 0 30.5 3 39.5 9s15.833 13 20.5 21s7.33398 17.667 8.00098 29h58v-58c-4 -12.667 -11.333 -24 -22 -34
c-9.33301 -9.33301 -22 -17.333 -38 -24s-38 -10 -66 -10z" />
    <glyph glyph-name="ubreve" unicode="&#x16d;" horiz-adv-x="573" 
d="M262 -10c-32.667 0 -60.8301 4.99805 -84.4971 14.998s-43.334 24.333 -59.001 43s-27.334 40.834 -35.001 66.501s-11.5 54.167 -11.5 85.5v297h79v-288c0 -49.333 10.5 -87 31.5 -113s52.833 -39 95.5 -39c45.333 0 79.833 14.167 103.5 42.5s35.5 64.5 35.5 108.5v289
h78v-497h-69l-6 80c-13.333 -23.333 -32.833 -44.166 -58.5 -62.499s-58.834 -27.5 -99.501 -27.5zM283.004 590.998c-28.667 0 -51.502 3.66797 -68.502 11.001s-30.167 15.666 -39.5 24.999c-10.667 10.667 -18 22.667 -22 36v57h57c1.33301 -11.333 5 -21.666 11 -30.999
c4.66699 -8.66699 11.834 -16 21.501 -22s23.167 -9 40.5 -9s30.666 3.16699 39.999 9.5s16 13.5 20 21.5c4.66699 9.33301 7.33398 19.666 8.00098 30.999h58v-57c-4 -13.333 -11 -25.333 -21 -36c-9.33301 -10 -22.166 -18.5 -38.499 -25.5s-38.5 -10.5 -66.5 -10.5z" />
    <glyph glyph-name="Uring" unicode="&#x16e;" horiz-adv-x="742" 
d="M371 790c-26.667 0 -48.667 8.16699 -66 24.5s-26 37.166 -26 62.499s8.66699 46.166 26 62.499s39.333 24.5 66 24.5c26 0 47.833 -8.16699 65.5 -24.5s26.5 -37.166 26.5 -62.499s-8.83301 -46.166 -26.5 -62.499s-39.5 -24.5 -65.5 -24.5zM371 843
c9.33301 0 17.5 2.83301 24.5 8.5s10.5 14.167 10.5 25.5c0 10.667 -3.5 19 -10.5 25s-15.167 9 -24.5 9s-17.5 -3 -24.5 -9s-10.5 -14.333 -10.5 -25c0 -11.333 3.5 -19.833 10.5 -25.5s15.167 -8.5 24.5 -8.5zM371 -10c-42.667 0 -81.334 7.16699 -116.001 21.5
s-64.167 34 -88.5 59s-43 54.5 -56 88.5s-19.5 71 -19.5 111v480h86v-481c0 -30 4.33301 -57.667 13 -83s21.334 -47.333 38.001 -66s37 -33.167 61 -43.5s51.333 -15.5 82 -15.5c32 0 60.5 5.16699 85.5 15.5s46 24.833 63 43.5s30 40.667 39 66s13.5 53 13.5 83v481h79
v-480c0 -40 -6.5 -77 -19.5 -111s-31.5 -63.5 -55.5 -88.5s-53.333 -44.667 -88 -59s-73.667 -21.5 -117 -21.5z" />
    <glyph glyph-name="uring" unicode="&#x16f;" horiz-adv-x="573" 
d="M262 -10c-32.667 0 -60.8301 4.99805 -84.4971 14.998s-43.334 24.333 -59.001 43s-27.334 40.834 -35.001 66.501s-11.5 54.167 -11.5 85.5v297h79v-288c0 -49.333 10.5 -87 31.5 -113s52.833 -39 95.5 -39c45.333 0 79.833 14.167 103.5 42.5s35.5 64.5 35.5 108.5v289
h78v-497h-69l-6 80c-13.333 -23.333 -32.833 -44.166 -58.5 -62.499s-58.834 -27.5 -99.501 -27.5zM286.004 579.998c-26.667 0 -48.667 8.16699 -66 24.5s-26 37.166 -26 62.499s8.66699 46.166 26 62.499s39.333 24.5 66 24.5c26 0 47.667 -8.16699 65 -24.5
s26 -37.166 26 -62.499s-8.66699 -46.166 -26 -62.499s-39 -24.5 -65 -24.5zM286.004 632.998c9.33301 0 17.333 2.83301 24 8.5s10 14.167 10 25.5c0 10.667 -3.33301 19 -10 25s-14.667 9 -24 9s-17.5 -3 -24.5 -9s-10.5 -14.333 -10.5 -25
c0 -11.333 3.5 -19.833 10.5 -25.5s15.167 -8.5 24.5 -8.5z" />
    <glyph glyph-name="Uhungarumlaut" unicode="&#x170;" horiz-adv-x="742" 
d="M371 -10c-42.667 0 -81.334 7.16699 -116.001 21.5s-64.167 34 -88.5 59s-43 54.5 -56 88.5s-19.5 71 -19.5 111v480h86v-481c0 -30 4.33301 -57.667 13 -83s21.334 -47.333 38.001 -66s37 -33.167 61 -43.5s51.333 -15.5 82 -15.5c32 0 60.5 5.16699 85.5 15.5
s46 24.833 63 43.5s30 40.667 39 66s13.5 53 13.5 83v481h79v-480c0 -40 -6.5 -77 -19.5 -111s-31.5 -63.5 -55.5 -88.5s-53.333 -44.667 -88 -59s-73.667 -21.5 -117 -21.5zM254 854l102 91h55v-49l-101 -91h-56v49zM426 854l102 91h55v-49l-101 -91h-56v49z" />
    <glyph glyph-name="uhungarumlaut" unicode="&#x171;" horiz-adv-x="573" 
d="M262 -10c-32.667 0 -60.8301 4.99805 -84.4971 14.998s-43.334 24.333 -59.001 43s-27.334 40.834 -35.001 66.501s-11.5 54.167 -11.5 85.5v297h79v-288c0 -49.333 10.5 -87 31.5 -113s52.833 -39 95.5 -39c45.333 0 79.833 14.167 103.5 42.5s35.5 64.5 35.5 108.5v289
h78v-497h-69l-6 80c-13.333 -23.333 -32.833 -44.166 -58.5 -62.499s-58.834 -27.5 -99.501 -27.5zM174.004 658.998l97 91h56v-49l-97 -91h-56v49zM340.004 658.998l96 91h56v-49l-96 -91h-56v49z" />
    <glyph glyph-name="Uogonek" unicode="&#x172;" horiz-adv-x="740" 
d="M438 -159l-58 -0.000976562c-12.667 3.33301 -23.667 8.33301 -33 15s-17.333 15.334 -24 26.001s-10 25 -10 43c0 13.333 3 25.833 9 37.5s14.333 21.167 25 28.5c-40 2.66699 -75.833 11.5 -107.5 26.5s-58.5 34.833 -80.5 59.5s-39 53.5 -51 86.5s-18 68.5 -18 106.5
v480h86v-481c0 -30 4.33301 -57.667 13 -83s21.334 -47.333 38.001 -66s37 -33.167 61 -43.5s51.333 -15.5 82 -15.5c32 0 60.5 5.16699 85.5 15.5s46 24.833 63 43.5s30 40.667 39 66s13.5 53 13.5 83v481h79v-480c0 -34 -4.66699 -66 -14 -96s-22.833 -56.833 -40.5 -80.5
s-39.334 -43.667 -65.001 -60s-54.5 -28.166 -86.5 -35.499c-19.333 -4.66699 -34.333 -10.834 -45 -18.501s-16 -19.5 -16 -35.5c0 -10 2.5 -18 7.5 -24s10.667 -10.667 17 -14s12.5 -5.5 18.5 -6.5s10 -1.5 12 -1.5v-57z" />
    <glyph glyph-name="uogonek" unicode="&#x173;" horiz-adv-x="573" 
d="M385 -75c0 17.333 4.67188 32.8301 14.0049 46.4971s20.666 23.167 33.999 28.5h-7l-6 80c-13.333 -23.333 -32.833 -44.166 -58.5 -62.499s-58.834 -27.5 -99.501 -27.5c-32.667 0 -60.834 5 -84.501 15s-43.334 24.333 -59.001 43s-27.334 40.834 -35.001 66.501
s-11.5 54.167 -11.5 85.5v297h79v-288c0 -49.333 10.5 -87 31.5 -113s52.833 -39 95.5 -39c45.333 0 79.833 14.167 103.5 42.5s35.5 64.5 35.5 108.5v289h78v-497h1c-7.33301 -2 -14 -5 -20 -9s-11 -9.5 -15 -16.5s-6 -16.167 -6 -27.5c0 -10.667 2.5 -19.167 7.5 -25.5
s10.667 -11.333 17 -15s12.5 -6 18.5 -7s10 -1.5 12 -1.5v-57h-58c-12.667 3.33301 -23.667 8.33301 -33 15s-17.333 15.334 -24 26.001s-10 25 -10 43z" />
    <glyph glyph-name="Wcircumflex" unicode="&#x174;" horiz-adv-x="961" 
d="M480 591l-175 -591h-73l-206 687v63h66l181 -602l179 602h63l178 -602l181 602h62v-55l-208 -695h-73zM483 877l-82 -73h-49v49l95 85h71l95 -85v-49h-49z" />
    <glyph glyph-name="wcircumflex" unicode="&#x175;" horiz-adv-x="742" 
d="M369 379l-126 -379h-56l-158 441v56h56l136 -376l126 376h55l128 -373l134 373h51v-52l-162 -445h-55zM380 689l-82 -79h-49v49l95 91h71l95 -91v-49h-49z" />
    <glyph glyph-name="Ycircumflex" unicode="&#x176;" horiz-adv-x="628" 
d="M272 311l-262 380v59h60l252 -366l235 366h55v-55l-253 -385v-310h-87v311zM313 877l-82 -73h-49v49l95 85h71l95 -85v-49h-49z" />
    <glyph glyph-name="ycircumflex" unicode="&#x177;" horiz-adv-x="512" 
d="M77 -250v55l144 265l-196 372v55h55l184 -352l180 352h51v-52l-363 -695h-55zM265 689l-82 -79h-49v49l95 91h71l95 -91v-49h-49z" />
    <glyph glyph-name="Ydieresis" unicode="&#x178;" horiz-adv-x="628" 
d="M272 311l-262 380v59h60l252 -366l235 366h55v-55l-253 -385v-310h-87v311zM174 914h94v-94h-94v94zM363 914h95v-94h-95v94z" />
    <glyph glyph-name="Zacute" unicode="&#x179;" horiz-adv-x="598" 
d="M38 0v63l415 616h-410v71h512v-63l-415 -616h420v-71h-522zM252 854l102 91h69v-49l-101 -91h-70v49z" />
    <glyph glyph-name="zacute" unicode="&#x17a;" horiz-adv-x="473" 
d="M41 0v59l289 370h-284v68h381v-59l-289 -370h294v-68h-391zM203 659l95 91h70v-49l-95 -91h-70v49z" />
    <glyph glyph-name="Zdotaccent" unicode="&#x17b;" horiz-adv-x="598" 
d="M38 0v63l415 616h-410v71h512v-63l-415 -616h420v-71h-522zM250 914h94v-94h-94v94z" />
    <glyph glyph-name="zdotaccent" unicode="&#x17c;" horiz-adv-x="473" 
d="M41 0v59l289 370h-284v68h381v-59l-289 -370h294v-68h-391zM202 720h94v-93h-94v93z" />
    <glyph glyph-name="Zcaron" unicode="&#x17d;" horiz-adv-x="598" 
d="M38 0v63l415 616h-410v71h512v-63l-415 -616h420v-71h-522zM274 804l-98 85v49h49l84 -73l80 73h49v-49l-93 -85h-71z" />
    <glyph glyph-name="zcaron" unicode="&#x17e;" horiz-adv-x="473" 
d="M41 0v59l289 370h-284v68h381v-59l-289 -370h294v-68h-391zM210 610l-98 91v49h49l84 -79l79 79h49v-49l-92 -91h-71z" />
    <glyph glyph-name="florin" unicode="&#x192;" horiz-adv-x="566" 
d="M74 -176c-34 1.33301 -60.3311 8.33301 -78.998 21s-31.334 26 -38.001 40v52h54c0 -2.66699 1.16699 -6.16699 3.5 -10.5s6 -8.83301 11 -13.5s11.333 -8.66699 19 -12s17.167 -5.33301 28.5 -6c24.667 1.33301 42.167 9.83301 52.5 25.5s17.833 37.5 22.5 65.5l67 388
h-88v68h99l26 145c9.33301 57.333 27.166 100.5 53.499 129.5s63.833 43.5 112.5 43.5c35.333 0 63 -6.66699 83 -20s33.667 -28.666 41 -45.999v-53h-54c-2 9.33301 -8.33301 19.666 -19 30.999s-27.667 17 -51 17c-26 0 -45.667 -8.16699 -59 -24.5
s-22.666 -41.5 -27.999 -75.5l-26 -147h151v-68h-162l-67 -389c-8.66699 -50 -24.334 -89.167 -47.001 -117.5s-58 -42.833 -106 -43.5z" />
    <glyph glyph-name="Aringacute" unicode="&#x1fa;" horiz-adv-x="662" 
d="M299 1062l102 91h69v-49l-101 -91h-70v49zM17 0v56l279 694h69l277 -686v-64h-63l-85 217h-330l-85 -217h-62zM329 636l-137 -349h273zM328 792c-26.667 0 -48.667 8.16699 -66 24.5s-26 37.166 -26 62.499s8.66699 46.166 26 62.499s39.333 24.5 66 24.5
c26 0 47.833 -8.16699 65.5 -24.5s26.5 -37.166 26.5 -62.499s-8.83301 -46.166 -26.5 -62.499s-39.5 -24.5 -65.5 -24.5zM328 845c9.33301 0 17.5 2.83301 24.5 8.5s10.5 14.167 10.5 25.5c0 10.667 -3.5 19 -10.5 25s-15.167 9 -24.5 9s-17.5 -3 -24.5 -9
s-10.5 -14.333 -10.5 -25c0 -11.333 3.5 -19.833 10.5 -25.5s15.167 -8.5 24.5 -8.5z" />
    <glyph glyph-name="aringacute" unicode="&#x1fb;" horiz-adv-x="516" 
d="M210 -10c-28.667 0 -53.667 3.99902 -75 11.999s-39 18.833 -53 32.5s-24.5 29.667 -31.5 48s-10.5 38.166 -10.5 59.499s3.83301 40.833 11.5 58.5s19.5 33.167 35.5 46.5s36.833 23.666 62.5 30.999s56.5 11 92.5 11c17.333 0 33.333 -0.666992 48 -2
s27.667 -2.66602 39 -3.99902c12.667 -2 24.334 -4.33301 35.001 -7v35c0 42 -9.33301 73.833 -28 95.5s-49 32.5 -91 32.5c-24.667 0 -45 -3.66699 -61 -11s-28.667 -15.666 -38 -24.999c-10.667 -10.667 -19 -22.667 -25 -36h-52v53c9.33301 16 22 30.667 38 44
c14 11.333 32.167 21.333 54.5 30s50.833 13 85.5 13c64.667 0 113.5 -16.667 146.5 -50s49.5 -82.666 49.5 -147.999v-309h-63l-9 87c-12.667 -24.667 -32.334 -47 -59.001 -67s-60.667 -30 -102 -30zM222 54.999c23.333 0 43.833 3.99805 61.5 11.998s32.5 18.333 44.5 31
s21 26.834 27 42.501s9 30.834 9 45.501v29c-10 2.66699 -21.333 5 -34 7c-11.333 1.33301 -24.333 2.66602 -39 3.99902s-31 2 -49 2c-24.667 0 -45 -2.33301 -61 -7s-28.667 -11 -38 -19s-16 -17.167 -20 -27.5s-6 -21.166 -6 -32.499c0 -58 35 -87 105 -87zM259 580.997
c-26.667 0 -48.667 8.16699 -66 24.5s-26 37.166 -26 62.499s8.66699 46.166 26 62.499s39.333 24.5 66 24.5c26 0 47.667 -8.16699 65 -24.5s26 -37.166 26 -62.499s-8.66699 -46.166 -26 -62.499s-39 -24.5 -65 -24.5zM259 633.997c9.33301 0 17.333 2.83301 24 8.5
s10 14.167 10 25.5c0 10.667 -3.33301 19 -10 25s-14.667 9 -24 9s-17.5 -3 -24.5 -9s-10.5 -14.333 -10.5 -25c0 -11.333 3.5 -19.833 10.5 -25.5s15.167 -8.5 24.5 -8.5zM224 861.997l102 91h69v-49l-101 -91h-70v49z" />
    <glyph glyph-name="AEacute" unicode="&#x1fc;" horiz-adv-x="915" 
d="M417 750h445v-71h-335v-257h302v-71h-302v-280h335v-71h-422v217h-249l-125 -217h-62v55zM440 288v361l-208 -361h208zM601 854l102 91h69v-49l-101 -91h-70v49z" />
    <glyph glyph-name="aeacute" unicode="&#x1fd;" horiz-adv-x="893" 
d="M635 -10c-49.333 0 -91.8281 9.66309 -127.495 28.9961s-63.167 46.666 -82.5 81.999c-10.667 -22 -23.834 -40 -39.501 -54s-32.334 -25.333 -50.001 -34s-36 -14.667 -55 -18s-37.833 -5 -56.5 -5c-31.333 0 -58.5 3.83301 -81.5 11.5s-42.167 18.334 -57.5 32.001
s-26.833 29.667 -34.5 48s-11.5 38.166 -11.5 59.499s4 40.833 12 58.5s20.667 33 38 46s39.666 23.167 66.999 30.5s60.333 11 99 11c12 0 25.5 -0.5 40.5 -1.5s29.5 -2.16699 43.5 -3.5c15.333 -1.33301 31.333 -3 48 -5v34c0 42 -12.167 73.833 -36.5 95.5
s-57.5 32.5 -99.5 32.5c-26 0 -47.333 -3.66699 -64 -11s-30 -15.666 -40 -24.999c-12 -10.667 -21 -22.667 -27 -36h-52v53c9.33301 16 22.333 30.667 39 44c15.333 11.333 34.666 21.333 57.999 30s53 13 89 13c43.333 0 80.833 -7.66699 112.5 -23
s55.5 -38.666 71.5 -69.999c20 28 45.5 50.5 76.5 67.5s68.167 25.5 111.5 25.5c37.333 0 70 -5.66699 98 -17s51.167 -26.666 69.5 -45.999s32 -42.333 41 -69s13.5 -55.667 13.5 -87c0 -8 -0.166992 -15 -0.5 -21s-0.833008 -11.333 -1.5 -16s-1.33398 -9 -2.00098 -13
h-378c2.66699 -57.333 18.667 -101.666 48 -132.999s69.666 -47 120.999 -47c26 0 48.167 3.16699 66.5 9.5s33.5 13.833 45.5 22.5s21 17.5 27 26.5s9.66699 15.833 11 20.5h52v-52c-1.33301 -2.66699 -5.66602 -9.16699 -12.999 -19.5s-19 -21.166 -35 -32.499
s-36.5 -21.333 -61.5 -30s-55.833 -13 -92.5 -13zM770.005 297.996c0 43.333 -12.332 77.668 -36.999 103.001s-60 38 -106 38c-47.333 0 -83.833 -12.833 -109.5 -38.5s-41.834 -59.834 -48.501 -102.501h301zM226.006 54.998c26 0 49 3.83203 69 11.499
s36.833 17.834 50.5 30.501s24 27.334 31 44.001s10.5 34 10.5 52v23c-16 2 -32 3.66699 -48 5c-14 0.666992 -28.5 1.5 -43.5 2.5s-28.5 1.5 -40.5 1.5c-26.667 0 -49 -2.33301 -67 -7s-32.333 -10.834 -43 -18.501s-18.167 -16.5 -22.5 -26.5s-6.5 -20.667 -6.5 -32
c0 -29.333 9.83301 -51 29.5 -65s46.5 -21 80.5 -21zM415.006 658.997l95 91h70v-49l-95 -91h-70v49z" />
    <glyph glyph-name="Oslashacute" unicode="&#x1fe;" horiz-adv-x="834" 
d="M417 -10c-37.333 0 -71.999 4.5 -103.999 13.5s-61.667 21.5 -89 37.5l-58 -81h-88l88 124c-37.333 35.333 -66 78 -86 128s-30 105.333 -30 166c0 55.333 8.66699 106.333 26 153s42 87 74 121s70.5 60.5 115.5 79.5s95.5 28.5 151.5 28.5
c38 0 73.167 -4.33301 105.5 -13s62.166 -21.334 89.499 -38.001l58 81h88l-89 -124c36.667 -34.667 65 -76.5 85 -125.5s30 -103.167 30 -162.5c0 -56 -8.66699 -107.667 -26 -155s-42 -88.166 -74 -122.499s-70.5 -61.333 -115.5 -81s-95.5 -29.5 -151.5 -29.5z
M136.001 378c0 -47.333 6.83203 -89.999 20.499 -127.999s32.834 -71.333 57.501 -100l353 496c-20.667 13.333 -43.5 23.833 -68.5 31.5s-52.167 11.5 -81.5 11.5c-43.333 0 -82.333 -7.83301 -117 -23.5s-64.167 -37.334 -88.5 -65.001s-43 -60.5 -56 -98.5
s-19.5 -79.333 -19.5 -124zM417 61.001c43.333 0 82.333 8 117 24s64.167 38 88.5 66s43 61.333 56 100s19.5 81 19.5 127s-6.66699 87.5 -20 124.5s-32 69.5 -56 97.5l-354 -496c20.667 -13.333 43.5 -23.833 68.5 -31.5s51.833 -11.5 80.5 -11.5zM392 854.001l102 91h69
v-49l-101 -91h-70v49z" />
    <glyph glyph-name="oslashacute" unicode="&#x1ff;" horiz-adv-x="586" 
d="M293 -10c-45.333 0 -85.333 9.66895 -120 29.002l-54 -78h-80l81 116c-24 24 -42.5 52.5 -55.5 85.5s-19.5 68.5 -19.5 106.5c0 36 5.66699 69.667 17 101s27.833 58.666 49.5 81.999s47.834 41.666 78.501 54.999s65 20 103 20c46 0 85.667 -9.66699 119 -29l55 79h80
l-81 -117c24 -23.333 42.5 -51.333 55.5 -84s19.5 -68.334 19.5 -107.001c0 -36 -5.66699 -69.667 -17 -101s-27.833 -58.666 -49.5 -81.999s-47.834 -41.833 -78.501 -55.5s-65 -20.5 -103 -20.5zM124 249.002c0 -24.667 3.16699 -47.999 9.5 -69.999
s16.166 -41.667 29.499 -59l209 300c-23.333 12.667 -49.666 19 -78.999 19c-28 0 -52.667 -5.16699 -74 -15.5s-39 -24.333 -53 -42s-24.5 -37.834 -31.5 -60.501s-10.5 -46.667 -10.5 -72zM293 58.0029c28 0 52.668 5.16699 74.001 15.5s39 24.333 53 42s24.5 38 31.5 61
s10.5 47.167 10.5 72.5c0 24 -3.33301 47 -10 69s-16.667 41.667 -30 59l-208 -300c23.333 -12.667 49.666 -19 78.999 -19zM254.001 659.003l95 91h70v-49l-95 -91h-70v49z" />
    <glyph glyph-name="Scommaaccent" unicode="&#x218;" horiz-adv-x="590" 
d="M299 -10c-34 0 -64.5029 3.83789 -91.5029 11.5049s-50.667 17.834 -71 30.501s-37.5 27.167 -51.5 43.5s-24.667 33.166 -32 50.499v56h63c13.333 -36 35 -65.167 65 -87.5s70 -33.5 120 -33.5c22 0 42.5 3 61.5 9s35.5 14.833 49.5 26.5s25 25.834 33 42.501
s12 35.667 12 57c0 33.333 -10.667 61.166 -32 83.499s-60.666 41.5 -117.999 57.5l-45 13c-70 19.333 -120.5 46.166 -151.5 80.499s-46.5 77.833 -46.5 130.5c0 29.333 5.5 56.166 16.5 80.499s26.667 45.166 47 62.499s45.166 31 74.499 41s62.333 15 99 15
c62.667 0 111.334 -12.167 146.001 -36.5s57.334 -55.5 68.001 -93.5v-56h-62c-3.33301 14 -8.5 28 -15.5 42s-16.667 26.333 -29 37s-27.666 19.334 -45.999 26.001s-40.5 10 -66.5 10c-24.667 0 -46.334 -3.33301 -65.001 -10s-34.167 -15.5 -46.5 -26.5
s-21.666 -24 -27.999 -39s-9.5 -30.5 -9.5 -46.5c0 -38 12.667 -66.833 38 -86.5s60 -36.167 104 -49.5l58 -18c63.333 -18.667 111.5 -44.834 144.5 -78.501s49.5 -79.834 49.5 -138.501c0 -32 -6 -60.667 -18 -86s-28.667 -46.833 -50 -64.5
s-46.833 -31.334 -76.5 -41.001s-62.167 -14.5 -97.5 -14.5zM264.997 -51.9951h78v-66l-33 -81h-45v147z" />
    <glyph glyph-name="scommaaccent" unicode="&#x219;" horiz-adv-x="470" 
d="M245 -10c-34.667 0 -63.999 3.99805 -87.999 11.998s-43.833 17.333 -59.5 28s-27.5 21.334 -35.5 32.001s-13 19 -15 25v53h53c2 -6 6 -13.5 12 -22.5s14.833 -18 26.5 -27s26.167 -16.667 43.5 -23s38 -9.5 62 -9.5c38 0 65.5 6.66699 82.5 20s25.5 30.666 25.5 51.999
c0 13.333 -2.83301 24.333 -8.5 33s-13.5 16 -23.5 22s-21.833 11 -35.5 15s-28.5 7.66699 -44.5 11l-57 13c-16.667 4 -32.5 9.16699 -47.5 15.5s-28.167 15 -39.5 26s-20.5 24.333 -27.5 40s-10.5 34.5 -10.5 56.5c0 19.333 3.83301 37.833 11.5 55.5s19 33.167 34 46.5
s33.333 23.833 55 31.5s46.5 11.5 74.5 11.5c51.333 0 90.833 -9 118.5 -27s46.167 -38.667 55.5 -62v-53h-53c-1.33301 6 -4.33301 13.167 -9 21.5s-11.834 16.333 -21.501 24s-21.667 14.334 -36 20.001s-32.166 8.5 -53.499 8.5c-34.667 0 -60.167 -7 -76.5 -21
s-24.5 -31.667 -24.5 -53c0 -22 8.5 -38.667 25.5 -50s39.5 -20.333 67.5 -27l53 -12c18 -4 35.833 -9.16699 53.5 -15.5s33.5 -14.833 47.5 -25.5s25.167 -23.667 33.5 -39s12.5 -34.333 12.5 -57c0 -20.667 -3.66699 -40.167 -11 -58.5s-18.5 -34.166 -33.5 -47.499
s-33.833 -23.833 -56.5 -31.5s-49.334 -11.5 -80.001 -11.5zM212.001 -52.002h78v-66l-33 -81h-45v147z" />
    <glyph glyph-name="uni0237" unicode="&#x237;" horiz-adv-x="235" 
d="M22 -260c-18.667 0 -34.998 2 -48.998 6s-25.833 9 -35.5 15s-17.334 12.5 -23.001 19.5s-9.83398 13.833 -12.501 20.5v53h52c0.666992 -3.33301 2.16699 -7.33301 4.5 -12s5.83301 -9.33398 10.5 -14.001s11 -8.66699 19 -12s17.667 -5 29 -5
c23.333 0 39.333 7.16699 48 21.5s13 36.5 13 66.5v598h79v-598c0 -51.333 -10.5 -90.666 -31.5 -117.999s-55.5 -41 -103.5 -41z" />
    <glyph glyph-name="circumflex" unicode="&#x2c6;" horiz-adv-x="464" 
d="M206 689l-82 -79h-49v49l95 91h71l95 -91v-49h-49z" />
    <glyph glyph-name="caron" unicode="&#x2c7;" horiz-adv-x="411" 
d="M173 610l-98 91v49h49l84 -79l79 79h49v-49l-92 -91h-71z" />
    <glyph glyph-name="breve" unicode="&#x2d8;" horiz-adv-x="406" 
d="M205 591c-28.667 0 -51.502 3.66797 -68.502 11.001s-30.167 15.666 -39.5 24.999c-10.667 10.667 -18 22.667 -22 36v57h57c1.33301 -11.333 5 -21.666 11 -30.999c4.66699 -8.66699 11.834 -16 21.501 -22s23.167 -9 40.5 -9s30.666 3.16699 39.999 9.5
s16 13.5 20 21.5c4.66699 9.33301 7.33398 19.666 8.00098 30.999h58v-57c-4 -13.333 -11 -25.333 -21 -36c-9.33301 -10 -22.166 -18.5 -38.499 -25.5s-38.5 -10.5 -66.5 -10.5z" />
    <glyph glyph-name="dotaccent" unicode="&#x2d9;" horiz-adv-x="335" 
d="M121 720h94v-93h-94v93z" />
    <glyph glyph-name="ring" unicode="&#x2da;" horiz-adv-x="439" 
d="M220 580c-26.667 0 -48.667 8.16699 -66 24.5s-26 37.166 -26 62.499s8.66699 46.166 26 62.499s39.333 24.5 66 24.5c26 0 47.667 -8.16699 65 -24.5s26 -37.166 26 -62.499s-8.66699 -46.166 -26 -62.499s-39 -24.5 -65 -24.5zM220 633
c9.33301 0 17.333 2.83301 24 8.5s10 14.167 10 25.5c0 10.667 -3.33301 19 -10 25s-14.667 9 -24 9s-17.5 -3 -24.5 -9s-10.5 -14.333 -10.5 -25c0 -11.333 3.5 -19.833 10.5 -25.5s15.167 -8.5 24.5 -8.5z" />
    <glyph glyph-name="ogonek" unicode="&#x2db;" horiz-adv-x="279" 
d="M156 -159c-12.667 3.33301 -23.666 8.33203 -32.999 14.999s-17.333 15.334 -24 26.001s-10 25 -10 43c0 17.333 4.66699 32.833 14 46.5s20.666 23.167 33.999 28.5h63c-7.33301 -2 -14 -5 -20 -9s-11 -9.5 -15 -16.5s-6 -16.167 -6 -27.5
c0 -10.667 2.5 -19.167 7.5 -25.5s10.667 -11.333 17 -15s12.5 -6 18.5 -7s10 -1.5 12 -1.5v-57h-58z" />
    <glyph glyph-name="tilde" unicode="&#x2dc;" horiz-adv-x="437" 
d="M283 618c-14 0 -26.002 2.16602 -36.002 6.49902s-19 9 -27 14s-15.833 9.66699 -23.5 14s-16.5 6.5 -26.5 6.5c-8.66699 0 -16.667 -2.66699 -24 -8s-12 -14.666 -14 -27.999h-57c0 32 7.66699 57 23 75s37 27 65 27c14.667 0 26.834 -2.16699 36.501 -6.5
s18.167 -9 25.5 -14l21 -14c6.66699 -4.33301 14.667 -6.5 24 -6.5c8.66699 0 16.334 2.16699 23.001 6.5s10.667 14.166 12 29.499h57c0 -33.333 -6.33301 -58.666 -19 -75.999s-32.667 -26 -60 -26z" />
    <glyph glyph-name="hungarumlaut" unicode="&#x2dd;" horiz-adv-x="468" 
d="M75 659l97 91h56v-49l-97 -91h-56v49zM241 659l96 91h56v-49l-96 -91h-56v49z" />
    <glyph glyph-name="afii10023" unicode="&#x401;" horiz-adv-x="574" 
d="M99 750h422v-71h-335v-257h302v-71h-302v-280h335v-71h-422v750zM167 914h94v-94h-94v94zM356 914h95v-94h-95v94z" />
    <glyph glyph-name="afii10051" unicode="&#x402;" horiz-adv-x="823" 
d="M564 -10c-21.333 0 -39.333 1.33105 -54 3.99805s-26.334 4.66699 -35.001 6v69c8.66699 -1.33301 20.167 -3 34.5 -5s30.166 -3 47.499 -3c44 0 79.167 15.5 105.5 46.5s39.5 74.833 39.5 131.5s-15.167 100.334 -45.5 131.001s-74.833 46 -133.5 46
c-25.333 0 -48.833 -3.66699 -70.5 -11s-40.5 -17.833 -56.5 -31.5s-28.5 -30.167 -37.5 -49.5s-13.5 -41 -13.5 -65v-259h-87v679h-240v71h567v-71h-240v-282c16.667 28.667 41.834 51.334 75.501 68.001s73.5 25 119.5 25c38.667 0 73.334 -5.83301 104.001 -17.5
s56.667 -28.5 78 -50.5s37.666 -48.5 48.999 -79.5s17 -65.5 17 -103.5c0 -36 -5.5 -69.333 -16.5 -100s-26.333 -57 -46 -79s-43.167 -39.167 -70.5 -51.5s-57.666 -18.5 -90.999 -18.5z" />
    <glyph glyph-name="afii10052" unicode="&#x403;" horiz-adv-x="542" 
d="M268 854l102 91h69v-49l-101 -91h-70v49zM99 750h422v-71h-336v-679h-86v750z" />
    <glyph glyph-name="afii10053" unicode="&#x404;" horiz-adv-x="744" 
d="M696 124c-14 -25.333 -33.667 -47.668 -59 -67.001c-22.667 -18 -51.667 -33.667 -87 -47s-80 -20 -134 -20c-60 0 -112.667 10.167 -158 30.5s-83.5 48 -114.5 83s-54.333 76 -70 123s-23.5 97.5 -23.5 151.5c0 54.667 8.5 105.334 25.5 152.001s41.333 87 73 121
s70 60.667 115 80s95.5 29 151.5 29c54 0 98.667 -6.66699 134 -20s63.666 -28 84.999 -44c24.667 -19.333 43.667 -41 57 -65v-56h-62c-9.33301 21.333 -23 40.333 -41 57c-17.333 15.333 -39.333 28.666 -66 39.999s-61.667 17 -105 17
c-40.667 0 -77.5 -6.66699 -110.5 -20s-61.167 -32 -84.5 -56s-42 -52.333 -56 -85s-23 -68.667 -27 -108h400v-71h-401c2.66699 -42 11.167 -80.5 25.5 -115.5s33.5 -65.167 57.5 -90.5s52.667 -45.166 86 -59.499s70.333 -21.5 111 -21.5
c42.667 0 77.834 6.16699 105.501 18.5s49.5 25.833 65.5 40.5c19.333 17.333 34.333 37 45 59h62v-56z" />
    <glyph glyph-name="afii10054" unicode="&#x405;" horiz-adv-x="591" 
d="M300 -10c-34 0 -64.5029 3.83789 -91.5029 11.5049s-50.667 17.834 -71 30.501s-37.5 27.167 -51.5 43.5s-24.667 33.166 -32 50.499v56h63c13.333 -36 35 -65.167 65 -87.5s70 -33.5 120 -33.5c22 0 42.5 3 61.5 9s35.5 14.833 49.5 26.5s25 25.834 33 42.501
s12 35.667 12 57c0 33.333 -10.667 61.166 -32 83.499s-60.666 41.5 -117.999 57.5l-45 13c-70 19.333 -120.5 46.166 -151.5 80.499s-46.5 77.833 -46.5 130.5c0 29.333 5.5 56.166 16.5 80.499s26.667 45.166 47 62.499s45.166 31 74.499 41s62.333 15 99 15
c62.667 0 111.334 -12.167 146.001 -36.5s57.334 -55.5 68.001 -93.5v-56h-62c-3.33301 14 -8.5 28 -15.5 42s-16.667 26.333 -29 37s-27.666 19.334 -45.999 26.001s-40.5 10 -66.5 10c-24.667 0 -46.334 -3.33301 -65.001 -10s-34.167 -15.5 -46.5 -26.5
s-21.666 -24 -27.999 -39s-9.5 -30.5 -9.5 -46.5c0 -38 12.667 -66.833 38 -86.5s60 -36.167 104 -49.5l58 -18c63.333 -18.667 111.5 -44.834 144.5 -78.501s49.5 -79.834 49.5 -138.501c0 -32 -6 -60.667 -18 -86s-28.667 -46.833 -50 -64.5
s-46.833 -31.334 -76.5 -41.001s-62.167 -14.5 -97.5 -14.5z" />
    <glyph glyph-name="afii10055" unicode="&#x406;" horiz-adv-x="285" 
d="M99 750h87v-750h-87v750z" />
    <glyph glyph-name="afii10056" unicode="&#x407;" horiz-adv-x="285" 
d="M1 914h94v-94h-94v94zM190 914h95v-94h-95v94zM99 750h87v-750h-87v750z" />
    <glyph glyph-name="afii10057" unicode="&#x408;" horiz-adv-x="437" 
d="M174 -10c-26.667 0 -49.499 3.49902 -68.499 10.499s-34.5 15.333 -46.5 25s-20.833 19.334 -26.5 29.001s-8.5 16.834 -8.5 21.501v57h63c0 -4.66699 1.5 -11.167 4.5 -19.5s7.83301 -16.333 14.5 -24s15.5 -14.334 26.5 -20.001s23.833 -8.5 38.5 -8.5
c29.333 0 51.166 8.5 65.499 25.5s21.5 48.833 21.5 95.5v568h86v-567c0 -62.667 -13.333 -110.5 -40 -143.5s-70 -49.5 -130 -49.5z" />
    <glyph glyph-name="afii10058" unicode="&#x409;" horiz-adv-x="1014" 
d="M12 79l22.999 0.000976562c18 0 33.833 5.16699 47.5 15.5s25 28.166 34 53.499s16.167 59.833 21.5 103.5s9 98.834 11 165.501l9 333h441v-284h117c40 0 76.5 -5.16699 109.5 -15.5s61 -25.333 84 -45s40.833 -43.334 53.5 -71.001s19 -58.834 19 -93.501
c0 -32.667 -5.66699 -63.667 -17 -93s-28.166 -55 -50.499 -77s-50 -39.333 -83 -52s-71.5 -19 -115.5 -19h-204v679h-277l-7 -250c-2 -72.667 -6 -136 -12 -190s-15.667 -98.667 -29 -134s-31.5 -61.666 -54.5 -78.999s-52.5 -26 -88.5 -26h-32v79zM714.999 71.001
c58.667 0 103.5 15.167 134.5 45.5s46.5 70.833 46.5 121.5c0 21.333 -3.83301 41.5 -11.5 60.5s-19 35.5 -34 49.5s-33.833 25.167 -56.5 33.5s-49 12.5 -79 12.5h-116v-323h116z" />
    <glyph glyph-name="afii10059" unicode="&#x40a;" horiz-adv-x="1031" 
d="M185 0l-86.001 0.000976562v750h86v-316h346v316h86v-316h117c83.333 0 148.5 -17.333 195.5 -52s70.5 -87 70.5 -157c0 -32.667 -5.66699 -62.834 -17 -90.501s-28.166 -51.5 -50.499 -71.5s-50 -35.5 -83 -46.5s-71.5 -16.5 -115.5 -16.5h-203v363h-346v-363z
M732.999 71.001c58.667 0 103.5 12.333 134.5 37s46.5 62.667 46.5 114c0 44 -15 78.5 -45 103.5s-75.333 37.5 -136 37.5h-116v-292h116z" />
    <glyph glyph-name="afii10060" unicode="&#x40b;" horiz-adv-x="811" 
d="M258 679l-240 0.000976562v71h568v-71h-241v-282c14.667 29.333 38.667 52.166 72 68.499s72.333 24.5 117 24.5c73.333 0 129.5 -20.667 168.5 -62s58.5 -99 58.5 -173v-255h-86v252c0 30 -4 55.5 -12 76.5s-19.167 38 -33.5 51s-31 22.333 -50 28s-39.5 8.5 -61.5 8.5
c-54 0 -96.333 -14.5 -127 -43.5s-46 -68.167 -46 -117.5v-255h-87v679z" />
    <glyph glyph-name="afii10061" unicode="&#x40c;" horiz-adv-x="632" 
d="M307 854l102 91h69v-49l-101 -91h-70v49zM186 0h-87v750h87v-357l353 357h55v-55l-316 -313l334 -323v-59h-59l-367 359v-359z" />
    <glyph glyph-name="afii10062" unicode="&#x40e;" horiz-adv-x="600" 
d="M172 0v55l91 168l-251 468v59h59l238 -443l227 443h55v-55l-364 -695h-55zM307 812c-30.667 0 -55.501 4.33105 -74.501 12.998s-34.167 18.334 -45.5 29.001c-12.667 12 -22 26 -28 42v54h57c2 -15.333 6.66699 -29 14 -41c6 -11.333 15 -21 27 -29s28.667 -12 50 -12
c20.667 0 36.834 4.33301 48.501 13s20.834 18 27.501 28c7.33301 12 12.333 25.667 15 41h57v-54c-6 -16 -15.333 -30 -28 -42c-12 -11.333 -27.333 -21.166 -46 -29.499s-43.334 -12.5 -74.001 -12.5z" />
    <glyph glyph-name="afii10145" unicode="&#x40f;" horiz-adv-x="746" 
d="M334 0h-235v750h86v-679h376v679h86v-750h-235v-150h-78v150z" />
    <glyph glyph-name="afii10017" unicode="&#x410;" horiz-adv-x="662" 
d="M17 0v56l279 694h69l277 -686v-64h-63l-85 217h-330l-85 -217h-62zM329 636l-137 -349h273z" />
    <glyph glyph-name="afii10018" unicode="&#x411;" horiz-adv-x="622" 
d="M99 750h428.999v-71h-343v-233h133c40 0 76.5 -4.83301 109.5 -14.5s61 -23.667 84 -42s40.833 -40.833 53.5 -67.5s19 -57 19 -91c0 -32.667 -5.66699 -63 -17 -91s-28.166 -52.333 -50.499 -73s-50 -37 -83 -49s-71.5 -18 -115.5 -18h-219v750zM316.999 71
c58.667 0 103.5 13.667 134.5 41s46.5 66 46.5 116c0 41.333 -15 76 -45 104s-75.333 42 -136 42h-132v-303h132z" />
    <glyph glyph-name="afii10019" unicode="&#x412;" horiz-adv-x="637" 
d="M99 750h224c36 0 68.333 -4.5 97 -13.5s53 -22 73 -39s35.5 -37.5 46.5 -61.5s16.5 -51 16.5 -81c0 -37.333 -8.83301 -69.833 -26.5 -97.5s-45.167 -48.834 -82.5 -63.501c44 -13.333 77.833 -35.166 101.5 -65.499s35.5 -67.5 35.5 -111.5
c0 -68 -22.667 -121.167 -68 -159.5s-108.333 -57.5 -189 -57.5h-228v750zM315 422c48 0 85.668 11.167 113.001 33.5s41 54.5 41 96.5c0 37.333 -13.333 68 -40 92s-62.334 36 -107.001 36h-138v-258h131zM328.001 70c52 0 93.333 13.168 124 39.501s46 61.833 46 106.5
c0 43.333 -15.333 77.166 -46 101.499s-71.667 36.5 -123 36.5h-145v-284h144z" />
    <glyph glyph-name="afii10020" unicode="&#x413;" horiz-adv-x="542" 
d="M99 750h422v-71h-336v-679h-86v750z" />
    <glyph glyph-name="afii10021" unicode="&#x414;" horiz-adv-x="760" 
d="M7 71h58.999l20.5 34.5c9.66699 16.333 19.834 39 30.501 68s20.5 65.167 29.5 108.5s14.5 95 16.5 155l13 313h452v-679h100v-221h-79v150h-563v-150h-79v221zM540.999 71v608.001h-291l-9 -243c-2 -59.333 -7 -110.5 -15 -153.5s-16.667 -79 -26 -108
s-18.333 -51.833 -27 -68.5s-15 -28.334 -19 -35.001h387z" />
    <glyph glyph-name="afii10022" unicode="&#x415;" horiz-adv-x="574" 
d="M99 750h422v-71h-335v-257h302v-71h-302v-280h335v-71h-422v750z" />
    <glyph glyph-name="afii10024" unicode="&#x416;" horiz-adv-x="929" 
d="M81 0h-58v58l305 321l-288 313v58h58l323 -356v356h87v-356l325 356h55v-55l-288 -311l306 -325v-59h-58l-340 358v-358h-87v358z" />
    <glyph glyph-name="afii10025" unicode="&#x417;" horiz-adv-x="577" 
d="M287 -10c-44.667 0 -82.3271 5.66699 -112.994 17s-55.334 24.5 -74.001 39.5s-32.167 29.5 -40.5 43.5s-13.166 24 -14.499 30v56h62c1.33301 -8 5.5 -18.333 12.5 -31s17.5 -25.167 31.5 -37.5s31.667 -23 53 -32s47 -13.5 77 -13.5c49.333 0 88 13.333 116 40
s42 64 42 112c0 43.333 -13.667 77.666 -41 102.999s-71 38 -131 38h-77v72h73c46 0 81.5 12.667 106.5 38s37.5 58.333 37.5 99c0 36 -12 65.833 -36 89.5s-58 35.5 -102 35.5c-26 0 -47.833 -4 -65.5 -12s-32.334 -17.333 -44.001 -28s-20.334 -21.667 -26.001 -33
s-9.16699 -20.333 -10.5 -27h-63v56c2 6 7 15.333 15 28s20.333 25.5 37 38.5s38.167 24.333 64.5 34s58.166 14.5 95.499 14.5c33.333 0 63.666 -4.66699 90.999 -14s50.666 -22.666 69.999 -39.999s34.333 -38 45 -62s16 -50.667 16 -80
c0 -36.667 -10 -69.334 -30 -98.001s-47.333 -50.667 -82 -66c45.333 -11.333 80.666 -33.166 105.999 -65.499s38 -71.833 38 -118.5c0 -33.333 -5.5 -63.833 -16.5 -91.5s-26.667 -51.5 -47 -71.5s-45.333 -35.5 -75 -46.5s-63.167 -16.5 -100.5 -16.5z" />
    <glyph glyph-name="afii10026" unicode="&#x418;" horiz-adv-x="770" 
d="M99 750h86v-623l399 623h87v-750h-87v615l-399 -615h-86v750z" />
    <glyph glyph-name="afii10027" unicode="&#x419;" horiz-adv-x="770" 
d="M99 750h86v-623l399 623h87v-750h-87v615l-399 -615h-86v750zM395 812c-30.667 0 -55.501 4.33105 -74.501 12.998s-34.167 18.334 -45.5 29.001c-12.667 12 -22 26 -28 42v54h57c2 -15.333 6.66699 -29 14 -41c6 -11.333 15 -21 27 -29s28.667 -12 50 -12
c20.667 0 36.834 4.33301 48.501 13s20.834 18 27.501 28c7.33301 12 12.333 25.667 15 41h57v-54c-6 -16 -15.333 -30 -28 -42c-12 -11.333 -27.333 -21.166 -46 -29.499s-43.334 -12.5 -74.001 -12.5z" />
    <glyph glyph-name="afii10028" unicode="&#x41a;" horiz-adv-x="632" 
d="M186 0h-87v750h87v-357l353 357h55v-55l-316 -313l334 -323v-59h-59l-367 359v-359z" />
    <glyph glyph-name="afii10029" unicode="&#x41b;" horiz-adv-x="702" 
d="M13 79h24.001c20 0 36.667 6.33301 50 19s24.5 32.667 33.5 60s15.667 62.333 20 105s7.5 94 9.5 154l9 333h444v-750h-87v679h-280l-7 -260c-2 -68.667 -5.83301 -129 -11.5 -181s-15.334 -95.667 -29.001 -131s-32 -62 -55 -80s-52.833 -27 -89.5 -27h-31v79z" />
    <glyph glyph-name="afii10030" unicode="&#x41c;" horiz-adv-x="908" 
d="M178 636v-636h-79v750h105l253 -453l248 453h104v-750h-86v638l-243 -447h-59z" />
    <glyph glyph-name="afii10031" unicode="&#x41d;" horiz-adv-x="763" 
d="M99 750h87v-330h391v330h87v-750h-87v349h-391v-349h-87v750z" />
    </font>
</defs>
</svg>
